solid OpenSCAD_Model
  facet normal -1 0 0
    outer loop
      vertex -113.325 45.5 65.3
      vertex -113.325 50 67.05
      vertex -113.325 50 65.3
    endloop
  endfacet
  facet normal -1 0 0
    outer loop
      vertex -113.325 37.37 65.3
      vertex -113.325 50 67.05
      vertex -113.325 45.5 65.3
    endloop
  endfacet
  facet normal -1 0 0
    outer loop
      vertex -113.325 35.25 65.3
      vertex -113.325 50 67.05
      vertex -113.325 37.37 65.3
    endloop
  endfacet
  facet normal -1 0 0
    outer loop
      vertex -113.325 19.25 65.3
      vertex -113.325 50 67.05
      vertex -113.325 35.25 65.3
    endloop
  endfacet
  facet normal -1 0 0
    outer loop
      vertex -113.325 16.95 65.3
      vertex -113.325 50 67.05
      vertex -113.325 19.25 65.3
    endloop
  endfacet
  facet normal -1 0 0
    outer loop
      vertex -113.325 3.75 65.3
      vertex -113.325 50 67.05
      vertex -113.325 16.95 65.3
    endloop
  endfacet
  facet normal -1 0 0
    outer loop
      vertex -113.325 0.2 65.3
      vertex -113.325 50 67.05
      vertex -113.325 3.75 65.3
    endloop
  endfacet
  facet normal -1 0 0
    outer loop
      vertex -113.325 -50 67.05
      vertex -113.325 0.2 65.3
      vertex -113.325 -13 65.3
    endloop
  endfacet
  facet normal -1 0 0
    outer loop
      vertex -113.325 -50 67.05
      vertex -113.325 -13 65.3
      vertex -113.325 -16.5 65.3
    endloop
  endfacet
  facet normal -1 0 0
    outer loop
      vertex -113.325 -50 67.05
      vertex -113.325 -16.5 65.3
      vertex -113.325 -33.5 65.3
    endloop
  endfacet
  facet normal -1 0 0
    outer loop
      vertex -113.325 -50 67.05
      vertex -113.325 -33.5 65.3
      vertex -113.325 -39.4 65.3
    endloop
  endfacet
  facet normal -1 0 0
    outer loop
      vertex -113.325 -50 67.05
      vertex -113.325 -39.4 65.3
      vertex -113.325 -48.5 65.3
    endloop
  endfacet
  facet normal -1 0 0
    outer loop
      vertex -113.325 -50 67.05
      vertex -113.325 -48.5 65.3
      vertex -113.325 -50 65.3
    endloop
  endfacet
  facet normal -1 0 0
    outer loop
      vertex -113.325 0.2 65.3
      vertex -113.325 -50 67.05
      vertex -113.325 50 67.05
    endloop
  endfacet
  facet normal -0 0 1
    outer loop
      vertex -114.225 45.5 65.3
      vertex -113.325 37.37 65.3
      vertex -113.325 45.5 65.3
    endloop
  endfacet
  facet normal 0 0 1
    outer loop
      vertex -113.325 37.37 65.3
      vertex -114.225 45.5 65.3
      vertex -114.225 37.37 65.3
    endloop
  endfacet
  facet normal 0 0 -1
    outer loop
      vertex -113.325 35.25 65.3
      vertex -107.475 37.37 65.3
      vertex -93.325 35.25 65.3
    endloop
  endfacet
  facet normal -0 0 -1
    outer loop
      vertex -107.475 37.37 65.3
      vertex -113.325 35.25 65.3
      vertex -113.325 37.37 65.3
    endloop
  endfacet
  facet normal 0 0 -1
    outer loop
      vertex -113.325 0.2 65.3
      vertex -97.225 3.75 65.3
      vertex -97.225 0.2 65.3
    endloop
  endfacet
  facet normal -0 0 -1
    outer loop
      vertex -97.225 3.75 65.3
      vertex -113.325 0.2 65.3
      vertex -113.325 3.75 65.3
    endloop
  endfacet
  facet normal 0 0 -1
    outer loop
      vertex -113.325 -16.5 65.3
      vertex -97.225 -13 65.3
      vertex -96.675 -16.5 65.3
    endloop
  endfacet
  facet normal -0 0 -1
    outer loop
      vertex -97.225 -13 65.3
      vertex -113.325 -16.5 65.3
      vertex -113.325 -13 65.3
    endloop
  endfacet
  facet normal 0 0 -1
    outer loop
      vertex -33.325 -50 65.3
      vertex -82.325 -34.84 65.3
      vertex -33.325 -34.84 65.3
    endloop
  endfacet
  facet normal 0 0 -1
    outer loop
      vertex -97.225 0.2 65.3
      vertex -82.325 34.84 65.3
      vertex -82.325 -34.84 65.3
    endloop
  endfacet
  facet normal 0 0 -1
    outer loop
      vertex -96.675 -16.5 65.3
      vertex -82.325 -34.84 65.3
      vertex -96.675 -33.5 65.3
    endloop
  endfacet
  facet normal 0 0 -1
    outer loop
      vertex -100.605 -48.5 65.3
      vertex -82.325 -34.84 65.3
      vertex -33.325 -50 65.3
    endloop
  endfacet
  facet normal 0 0 -1
    outer loop
      vertex -100.605 -39.4 65.3
      vertex -82.325 -34.84 65.3
      vertex -100.605 -48.5 65.3
    endloop
  endfacet
  facet normal 0 0 -1
    outer loop
      vertex -113.325 -50 65.3
      vertex -100.605 -48.5 65.3
      vertex -33.325 -50 65.3
    endloop
  endfacet
  facet normal -0 0 -1
    outer loop
      vertex -100.605 -48.5 65.3
      vertex -113.325 -50 65.3
      vertex -113.325 -48.5 65.3
    endloop
  endfacet
  facet normal 0 0 -1
    outer loop
      vertex -82.325 34.84 65.3
      vertex -33.325 50 65.3
      vertex -33.325 34.84 65.3
    endloop
  endfacet
  facet normal 0 0 -1
    outer loop
      vertex -93.325 35.25 65.3
      vertex -82.325 34.84 65.3
      vertex -93.325 19.25 65.3
    endloop
  endfacet
  facet normal 0 0 -1
    outer loop
      vertex -107.475 45.5 65.3
      vertex -82.325 34.84 65.3
      vertex -93.325 35.25 65.3
    endloop
  endfacet
  facet normal 0 0 -1
    outer loop
      vertex -107.475 45.5 65.3
      vertex -93.325 35.25 65.3
      vertex -107.475 37.37 65.3
    endloop
  endfacet
  facet normal 0 0 -1
    outer loop
      vertex -82.325 34.84 65.3
      vertex -107.475 45.5 65.3
      vertex -33.325 50 65.3
    endloop
  endfacet
  facet normal 0 0 -1
    outer loop
      vertex -113.325 50 65.3
      vertex -107.475 45.5 65.3
      vertex -113.325 45.5 65.3
    endloop
  endfacet
  facet normal 0 0 -1
    outer loop
      vertex -107.475 45.5 65.3
      vertex -113.325 50 65.3
      vertex -33.325 50 65.3
    endloop
  endfacet
  facet normal 0 0 -1
    outer loop
      vertex -97.225 -13 65.3
      vertex -82.325 -34.84 65.3
      vertex -96.675 -16.5 65.3
    endloop
  endfacet
  facet normal 0 0 -1
    outer loop
      vertex -82.325 -34.84 65.3
      vertex -97.225 -13 65.3
      vertex -97.225 0.2 65.3
    endloop
  endfacet
  facet normal 0 0 -1
    outer loop
      vertex -82.325 34.84 65.3
      vertex -97.225 0.2 65.3
      vertex -93.325 19.25 65.3
    endloop
  endfacet
  facet normal 0 0 -1
    outer loop
      vertex -97.225 3.75 65.3
      vertex -93.325 19.25 65.3
      vertex -97.225 0.2 65.3
    endloop
  endfacet
  facet normal 0 0 -1
    outer loop
      vertex -97.225 16.95 65.3
      vertex -93.325 19.25 65.3
      vertex -97.225 3.75 65.3
    endloop
  endfacet
  facet normal 0 0 -1
    outer loop
      vertex -113.325 19.25 65.3
      vertex -97.225 16.95 65.3
      vertex -113.325 16.95 65.3
    endloop
  endfacet
  facet normal 0 0 -1
    outer loop
      vertex -97.225 16.95 65.3
      vertex -113.325 19.25 65.3
      vertex -93.325 19.25 65.3
    endloop
  endfacet
  facet normal -0 0 -1
    outer loop
      vertex -82.325 -34.84 65.3
      vertex -100.605 -39.4 65.3
      vertex -96.675 -33.5 65.3
    endloop
  endfacet
  facet normal 0 0 -1
    outer loop
      vertex -113.325 -33.5 65.3
      vertex -100.605 -39.4 65.3
      vertex -113.325 -39.4 65.3
    endloop
  endfacet
  facet normal 0 0 -1
    outer loop
      vertex -100.605 -39.4 65.3
      vertex -113.325 -33.5 65.3
      vertex -96.675 -33.5 65.3
    endloop
  endfacet
  facet normal -0 0 1
    outer loop
      vertex -114.825 35.25 65.3
      vertex -113.325 19.25 65.3
      vertex -113.325 35.25 65.3
    endloop
  endfacet
  facet normal 0 0 1
    outer loop
      vertex -113.325 19.25 65.3
      vertex -114.825 35.25 65.3
      vertex -114.825 19.25 65.3
    endloop
  endfacet
  facet normal -0 0 1
    outer loop
      vertex -114.825 -16.5 65.3
      vertex -113.325 -33.5 65.3
      vertex -113.325 -16.5 65.3
    endloop
  endfacet
  facet normal 0 0 1
    outer loop
      vertex -113.325 -33.5 65.3
      vertex -114.825 -16.5 65.3
      vertex -114.825 -33.5 65.3
    endloop
  endfacet
  facet normal -0 0 1
    outer loop
      vertex -114.825 -39.4 65.3
      vertex -113.325 -48.5 65.3
      vertex -113.325 -39.4 65.3
    endloop
  endfacet
  facet normal 0 0 1
    outer loop
      vertex -113.325 -48.5 65.3
      vertex -114.825 -39.4 65.3
      vertex -114.825 -48.5 65.3
    endloop
  endfacet
  facet normal 1 0 0
    outer loop
      vertex -33.325 50 67.05
      vertex -33.325 34.84 65.3
      vertex -33.325 50 65.3
    endloop
  endfacet
  facet normal 1 0 0
    outer loop
      vertex -33.325 34.84 65.3
      vertex -33.325 -34.84 65.3
      vertex -33.325 34.84 38.55
    endloop
  endfacet
  facet normal 1 0 0
    outer loop
      vertex -33.325 50 67.05
      vertex -33.325 -34.84 65.3
      vertex -33.325 34.84 65.3
    endloop
  endfacet
  facet normal 1 -0 0
    outer loop
      vertex -33.325 -50 67.05
      vertex -33.325 -34.84 65.3
      vertex -33.325 50 67.05
    endloop
  endfacet
  facet normal 1 0 0
    outer loop
      vertex -33.325 -34.84 65.3
      vertex -33.325 -50 67.05
      vertex -33.325 -50 65.3
    endloop
  endfacet
  facet normal 1 0 0
    outer loop
      vertex -33.325 34.84 38.55
      vertex -33.325 -34.84 65.3
      vertex -33.325 -34.84 38.55
    endloop
  endfacet
  facet normal 0 0 1
    outer loop
      vertex -38.075 25.8349 67.05
      vertex -93.4022 26.1421 67.05
      vertex -38.075 -44.8349 67.05
    endloop
  endfacet
  facet normal 0 0 1
    outer loop
      vertex -38.075 -44.8349 67.05
      vertex -92.7911 -45.9832 67.05
      vertex -92.575 -47 67.05
    endloop
  endfacet
  facet normal 0 0 1
    outer loop
      vertex -93.4022 -45.1421 67.05
      vertex -38.075 -44.8349 67.05
      vertex -93.4022 26.1421 67.05
    endloop
  endfacet
  facet normal 0 0 1
    outer loop
      vertex -38.075 -44.8349 67.05
      vertex -93.4022 -45.1421 67.05
      vertex -92.7911 -45.9832 67.05
    endloop
  endfacet
  facet normal -0 0 1
    outer loop
      vertex -94.3025 25.6224 67.05
      vertex -93.4022 -45.1421 67.05
      vertex -93.4022 26.1421 67.05
    endloop
  endfacet
  facet normal 0 0 1
    outer loop
      vertex -94.3025 25.6224 67.05
      vertex -94.3025 -44.6224 67.05
      vertex -93.4022 -45.1421 67.05
    endloop
  endfacet
  facet normal -0 0 1
    outer loop
      vertex -95.3363 25.5137 67.05
      vertex -94.3025 -44.6224 67.05
      vertex -94.3025 25.6224 67.05
    endloop
  endfacet
  facet normal 0 0 1
    outer loop
      vertex -95.3363 25.5137 67.05
      vertex -95.3363 -44.5137 67.05
      vertex -94.3025 -44.6224 67.05
    endloop
  endfacet
  facet normal 0 0 1
    outer loop
      vertex -96.325 25.8349 67.05
      vertex -95.3363 -44.5137 67.05
      vertex -95.3363 25.5137 67.05
    endloop
  endfacet
  facet normal 0 0 1
    outer loop
      vertex -96.325 25.8349 67.05
      vertex -96.325 -44.8349 67.05
      vertex -95.3363 -44.5137 67.05
    endloop
  endfacet
  facet normal 0 0 1
    outer loop
      vertex -113.325 -50 67.05
      vertex -96.325 25.8349 67.05
      vertex -97.0975 26.5305 67.05
    endloop
  endfacet
  facet normal 0 0 1
    outer loop
      vertex -96.325 25.8349 67.05
      vertex -113.325 -50 67.05
      vertex -96.325 -44.8349 67.05
    endloop
  endfacet
  facet normal 0 0 1
    outer loop
      vertex -113.325 -50 67.05
      vertex -97.0975 26.5305 67.05
      vertex -97.5204 27.4802 67.05
    endloop
  endfacet
  facet normal 0 0 1
    outer loop
      vertex -96.325 -44.8349 67.05
      vertex -113.325 -50 67.05
      vertex -97.0975 -45.5305 67.05
    endloop
  endfacet
  facet normal -0 0 1
    outer loop
      vertex -34.5411 -45.9832 67.05
      vertex -33.325 -50 67.05
      vertex -34.5411 26.9832 67.05
    endloop
  endfacet
  facet normal 0 0 1
    outer loop
      vertex -33.325 -50 67.05
      vertex -34.5411 -45.9832 67.05
      vertex -34.325 -47 67.05
    endloop
  endfacet
  facet normal -0 0 1
    outer loop
      vertex -35.1522 26.1421 67.05
      vertex -34.5411 -45.9832 67.05
      vertex -34.5411 26.9832 67.05
    endloop
  endfacet
  facet normal 0 0 1
    outer loop
      vertex -35.1522 26.1421 67.05
      vertex -35.1522 -45.1421 67.05
      vertex -34.5411 -45.9832 67.05
    endloop
  endfacet
  facet normal -0 0 1
    outer loop
      vertex -36.0525 25.6224 67.05
      vertex -35.1522 -45.1421 67.05
      vertex -35.1522 26.1421 67.05
    endloop
  endfacet
  facet normal 0 0 1
    outer loop
      vertex -36.0525 25.6224 67.05
      vertex -36.0525 -44.6224 67.05
      vertex -35.1522 -45.1421 67.05
    endloop
  endfacet
  facet normal -0 0 1
    outer loop
      vertex -37.0863 25.5137 67.05
      vertex -36.0525 -44.6224 67.05
      vertex -36.0525 25.6224 67.05
    endloop
  endfacet
  facet normal 0 0 1
    outer loop
      vertex -37.0863 25.5137 67.05
      vertex -37.0863 -44.5137 67.05
      vertex -36.0525 -44.6224 67.05
    endloop
  endfacet
  facet normal 0 0 1
    outer loop
      vertex -38.075 25.8349 67.05
      vertex -37.0863 -44.5137 67.05
      vertex -37.0863 25.5137 67.05
    endloop
  endfacet
  facet normal 0 0 1
    outer loop
      vertex -38.075 25.8349 67.05
      vertex -38.075 -44.8349 67.05
      vertex -37.0863 -44.5137 67.05
    endloop
  endfacet
  facet normal 0 0 1
    outer loop
      vertex -39.2704 27.4802 67.05
      vertex -92.7911 26.9832 67.05
      vertex -38.8475 26.5305 67.05
    endloop
  endfacet
  facet normal 0 0 1
    outer loop
      vertex -93.4022 26.1421 67.05
      vertex -38.8475 26.5305 67.05
      vertex -92.7911 26.9832 67.05
    endloop
  endfacet
  facet normal 0 0 1
    outer loop
      vertex -92.7911 26.9832 67.05
      vertex -39.2704 27.4802 67.05
      vertex -92.575 28 67.05
    endloop
  endfacet
  facet normal 0 0 1
    outer loop
      vertex -38.8475 26.5305 67.05
      vertex -93.4022 26.1421 67.05
      vertex -38.075 25.8349 67.05
    endloop
  endfacet
  facet normal 0 0 1
    outer loop
      vertex -33.325 50 67.05
      vertex -34.325 28 67.05
      vertex -33.325 -50 67.05
    endloop
  endfacet
  facet normal 0 0 1
    outer loop
      vertex -33.325 50 67.05
      vertex -34.5411 29.0168 67.05
      vertex -34.325 28 67.05
    endloop
  endfacet
  facet normal 0 0 1
    outer loop
      vertex -33.325 50 67.05
      vertex -35.1522 29.8579 67.05
      vertex -34.5411 29.0168 67.05
    endloop
  endfacet
  facet normal 0 0 1
    outer loop
      vertex -33.325 50 67.05
      vertex -36.0525 30.3776 67.05
      vertex -35.1522 29.8579 67.05
    endloop
  endfacet
  facet normal 0 0 1
    outer loop
      vertex -33.325 50 67.05
      vertex -37.0863 30.4863 67.05
      vertex -36.0525 30.3776 67.05
    endloop
  endfacet
  facet normal 0 0 1
    outer loop
      vertex -33.325 50 67.05
      vertex -38.075 30.1651 67.05
      vertex -37.0863 30.4863 67.05
    endloop
  endfacet
  facet normal 0 0 1
    outer loop
      vertex -33.325 50 67.05
      vertex -38.8475 29.4695 67.05
      vertex -38.075 30.1651 67.05
    endloop
  endfacet
  facet normal 0 0 1
    outer loop
      vertex -92.7911 29.0168 67.05
      vertex -38.8475 29.4695 67.05
      vertex -33.325 50 67.05
    endloop
  endfacet
  facet normal -0 0 1
    outer loop
      vertex -92.575 28 67.05
      vertex -39.2704 27.4802 67.05
      vertex -39.2704 28.5198 67.05
    endloop
  endfacet
  facet normal 0 0 1
    outer loop
      vertex -38.075 -44.8349 67.05
      vertex -92.575 -47 67.05
      vertex -38.8475 -45.5305 67.05
    endloop
  endfacet
  facet normal 0 0 1
    outer loop
      vertex -38.8475 -45.5305 67.05
      vertex -92.575 -47 67.05
      vertex -39.2704 -46.4802 67.05
    endloop
  endfacet
  facet normal 0 0 1
    outer loop
      vertex -38.8475 29.4695 67.05
      vertex -92.7911 29.0168 67.05
      vertex -39.2704 28.5198 67.05
    endloop
  endfacet
  facet normal 0 0 1
    outer loop
      vertex -39.2704 28.5198 67.05
      vertex -92.7911 29.0168 67.05
      vertex -92.575 28 67.05
    endloop
  endfacet
  facet normal 0 0 1
    outer loop
      vertex -33.325 50 67.05
      vertex -93.4022 29.8579 67.05
      vertex -92.7911 29.0168 67.05
    endloop
  endfacet
  facet normal 0 0 1
    outer loop
      vertex -33.325 50 67.05
      vertex -94.3025 30.3776 67.05
      vertex -93.4022 29.8579 67.05
    endloop
  endfacet
  facet normal -0 0 1
    outer loop
      vertex -113.325 50 67.05
      vertex -94.3025 30.3776 67.05
      vertex -33.325 50 67.05
    endloop
  endfacet
  facet normal 0 0 1
    outer loop
      vertex -113.325 50 67.05
      vertex -97.5204 27.4802 67.05
      vertex -97.5204 28.5198 67.05
    endloop
  endfacet
  facet normal 0 0 1
    outer loop
      vertex -97.0975 -45.5305 67.05
      vertex -113.325 -50 67.05
      vertex -97.5204 -46.4802 67.05
    endloop
  endfacet
  facet normal 0 0 1
    outer loop
      vertex -97.5204 27.4802 67.05
      vertex -113.325 50 67.05
      vertex -113.325 -50 67.05
    endloop
  endfacet
  facet normal 0 0 1
    outer loop
      vertex -97.0975 29.4695 67.05
      vertex -113.325 50 67.05
      vertex -97.5204 28.5198 67.05
    endloop
  endfacet
  facet normal 0 0 1
    outer loop
      vertex -96.325 30.1651 67.05
      vertex -113.325 50 67.05
      vertex -97.0975 29.4695 67.05
    endloop
  endfacet
  facet normal 0 0 1
    outer loop
      vertex -95.3363 30.4863 67.05
      vertex -113.325 50 67.05
      vertex -96.325 30.1651 67.05
    endloop
  endfacet
  facet normal 0 0 1
    outer loop
      vertex -94.3025 30.3776 67.05
      vertex -113.325 50 67.05
      vertex -95.3363 30.4863 67.05
    endloop
  endfacet
  facet normal -0 0 1
    outer loop
      vertex -34.5411 26.9832 67.05
      vertex -33.325 -50 67.05
      vertex -34.325 28 67.05
    endloop
  endfacet
  facet normal -0 0 1
    outer loop
      vertex -34.5411 -48.0168 67.05
      vertex -33.325 -50 67.05
      vertex -34.325 -47 67.05
    endloop
  endfacet
  facet normal -0 0 1
    outer loop
      vertex -35.1522 -48.8579 67.05
      vertex -33.325 -50 67.05
      vertex -34.5411 -48.0168 67.05
    endloop
  endfacet
  facet normal -0 0 1
    outer loop
      vertex -36.0525 -49.3776 67.05
      vertex -33.325 -50 67.05
      vertex -35.1522 -48.8579 67.05
    endloop
  endfacet
  facet normal -0 0 1
    outer loop
      vertex -37.0863 -49.4863 67.05
      vertex -33.325 -50 67.05
      vertex -36.0525 -49.3776 67.05
    endloop
  endfacet
  facet normal 0 0 1
    outer loop
      vertex -39.2704 -46.4802 67.05
      vertex -92.575 -47 67.05
      vertex -39.2704 -47.5198 67.05
    endloop
  endfacet
  facet normal 0 0 1
    outer loop
      vertex -92.7911 -48.0168 67.05
      vertex -39.2704 -47.5198 67.05
      vertex -92.575 -47 67.05
    endloop
  endfacet
  facet normal 0 0 1
    outer loop
      vertex -39.2704 -47.5198 67.05
      vertex -92.7911 -48.0168 67.05
      vertex -38.8475 -48.4695 67.05
    endloop
  endfacet
  facet normal 0 0 1
    outer loop
      vertex -93.4022 -48.8579 67.05
      vertex -38.8475 -48.4695 67.05
      vertex -92.7911 -48.0168 67.05
    endloop
  endfacet
  facet normal 0 0 1
    outer loop
      vertex -38.8475 -48.4695 67.05
      vertex -93.4022 -48.8579 67.05
      vertex -38.075 -49.1651 67.05
    endloop
  endfacet
  facet normal 0 0 1
    outer loop
      vertex -94.3025 -49.3776 67.05
      vertex -38.075 -49.1651 67.05
      vertex -93.4022 -48.8579 67.05
    endloop
  endfacet
  facet normal 0 0 1
    outer loop
      vertex -38.075 -49.1651 67.05
      vertex -94.3025 -49.3776 67.05
      vertex -37.0863 -49.4863 67.05
    endloop
  endfacet
  facet normal 0 0 1
    outer loop
      vertex -37.0863 -49.4863 67.05
      vertex -94.3025 -49.3776 67.05
      vertex -33.325 -50 67.05
    endloop
  endfacet
  facet normal -0 0 1
    outer loop
      vertex -95.3363 -49.4863 67.05
      vertex -33.325 -50 67.05
      vertex -94.3025 -49.3776 67.05
    endloop
  endfacet
  facet normal 0 0 1
    outer loop
      vertex -95.3363 -49.4863 67.05
      vertex -113.325 -50 67.05
      vertex -33.325 -50 67.05
    endloop
  endfacet
  facet normal 0 0 1
    outer loop
      vertex -96.325 -49.1651 67.05
      vertex -113.325 -50 67.05
      vertex -95.3363 -49.4863 67.05
    endloop
  endfacet
  facet normal 0 0 1
    outer loop
      vertex -97.0975 -48.4695 67.05
      vertex -113.325 -50 67.05
      vertex -96.325 -49.1651 67.05
    endloop
  endfacet
  facet normal 0 0 1
    outer loop
      vertex -97.5204 -47.5198 67.05
      vertex -113.325 -50 67.05
      vertex -97.0975 -48.4695 67.05
    endloop
  endfacet
  facet normal 0 0 1
    outer loop
      vertex -97.5204 -46.4802 67.05
      vertex -113.325 -50 67.05
      vertex -97.5204 -47.5198 67.05
    endloop
  endfacet
  facet normal 0 1 -0
    outer loop
      vertex -33.325 50 65.3
      vertex -113.325 50 67.05
      vertex -33.325 50 67.05
    endloop
  endfacet
  facet normal 0 1 0
    outer loop
      vertex -113.325 50 67.05
      vertex -33.325 50 65.3
      vertex -113.325 50 65.3
    endloop
  endfacet
  facet normal 0 -1 0
    outer loop
      vertex -113.325 -50 65.3
      vertex -33.325 -50 67.05
      vertex -113.325 -50 67.05
    endloop
  endfacet
  facet normal 0 -1 -0
    outer loop
      vertex -33.325 -50 67.05
      vertex -113.325 -50 65.3
      vertex -33.325 -50 65.3
    endloop
  endfacet
  facet normal -1 0 0
    outer loop
      vertex -82.325 -34.84 38.55
      vertex -82.325 34.84 65.3
      vertex -82.325 34.84 38.55
    endloop
  endfacet
  facet normal -1 -0 0
    outer loop
      vertex -82.325 34.84 65.3
      vertex -82.325 -34.84 38.55
      vertex -82.325 -34.84 65.3
    endloop
  endfacet
  facet normal 0 0 -1
    outer loop
      vertex -82.325 -34.84 38.55
      vertex -33.325 34.84 38.55
      vertex -33.325 -34.84 38.55
    endloop
  endfacet
  facet normal -0 0 -1
    outer loop
      vertex -33.325 34.84 38.55
      vertex -82.325 -34.84 38.55
      vertex -82.325 34.84 38.55
    endloop
  endfacet
  facet normal 0 -1 0
    outer loop
      vertex -82.325 -34.84 38.55
      vertex -33.325 -34.84 65.3
      vertex -82.325 -34.84 65.3
    endloop
  endfacet
  facet normal 0 -1 -0
    outer loop
      vertex -33.325 -34.84 65.3
      vertex -82.325 -34.84 38.55
      vertex -33.325 -34.84 38.55
    endloop
  endfacet
  facet normal 0 1 -0
    outer loop
      vertex -33.325 34.84 38.55
      vertex -82.325 34.84 65.3
      vertex -33.325 34.84 65.3
    endloop
  endfacet
  facet normal 0 1 0
    outer loop
      vertex -82.325 34.84 65.3
      vertex -33.325 34.84 38.55
      vertex -82.325 34.84 38.55
    endloop
  endfacet
  facet normal -1 0 0
    outer loop
      vertex -114.825 -48.5 54.3
      vertex -114.825 -39.4 65.3
      vertex -114.825 -39.4 54.3
    endloop
  endfacet
  facet normal -1 -0 0
    outer loop
      vertex -114.825 -39.4 65.3
      vertex -114.825 -48.5 54.3
      vertex -114.825 -48.5 65.3
    endloop
  endfacet
  facet normal 0 0 -1
    outer loop
      vertex -114.825 -48.5 54.3
      vertex -100.605 -39.4 54.3
      vertex -100.605 -48.5 54.3
    endloop
  endfacet
  facet normal -0 0 -1
    outer loop
      vertex -100.605 -39.4 54.3
      vertex -114.825 -48.5 54.3
      vertex -114.825 -39.4 54.3
    endloop
  endfacet
  facet normal 1 -0 0
    outer loop
      vertex -100.605 -48.5 65.3
      vertex -100.605 -39.4 54.3
      vertex -100.605 -39.4 65.3
    endloop
  endfacet
  facet normal 1 0 0
    outer loop
      vertex -100.605 -39.4 54.3
      vertex -100.605 -48.5 65.3
      vertex -100.605 -48.5 54.3
    endloop
  endfacet
  facet normal 0 -1 0
    outer loop
      vertex -114.825 -48.5 54.3
      vertex -113.325 -48.5 65.3
      vertex -114.825 -48.5 65.3
    endloop
  endfacet
  facet normal 0 -1 0
    outer loop
      vertex -100.605 -48.5 54.3
      vertex -113.325 -48.5 65.3
      vertex -114.825 -48.5 54.3
    endloop
  endfacet
  facet normal 0 -1 0
    outer loop
      vertex -113.325 -48.5 65.3
      vertex -100.605 -48.5 54.3
      vertex -100.605 -48.5 65.3
    endloop
  endfacet
  facet normal 0 1 -0
    outer loop
      vertex -100.605 -39.4 54.3
      vertex -113.325 -39.4 65.3
      vertex -100.605 -39.4 65.3
    endloop
  endfacet
  facet normal 0 1 0
    outer loop
      vertex -114.825 -39.4 54.3
      vertex -113.325 -39.4 65.3
      vertex -100.605 -39.4 54.3
    endloop
  endfacet
  facet normal 0 1 0
    outer loop
      vertex -113.325 -39.4 65.3
      vertex -114.825 -39.4 54.3
      vertex -114.825 -39.4 65.3
    endloop
  endfacet
  facet normal -1 0 0
    outer loop
      vertex -114.825 -33.5 46.89
      vertex -114.825 -16.5 65.3
      vertex -114.825 -16.5 46.89
    endloop
  endfacet
  facet normal -1 -0 0
    outer loop
      vertex -114.825 -16.5 65.3
      vertex -114.825 -33.5 46.89
      vertex -114.825 -33.5 65.3
    endloop
  endfacet
  facet normal 0 0 -1
    outer loop
      vertex -114.825 -33.5 46.89
      vertex -96.675 -16.5 46.89
      vertex -96.675 -33.5 46.89
    endloop
  endfacet
  facet normal -0 0 -1
    outer loop
      vertex -96.675 -16.5 46.89
      vertex -114.825 -33.5 46.89
      vertex -114.825 -16.5 46.89
    endloop
  endfacet
  facet normal 1 -0 0
    outer loop
      vertex -96.675 -33.5 65.3
      vertex -96.675 -16.5 46.89
      vertex -96.675 -16.5 65.3
    endloop
  endfacet
  facet normal 1 0 0
    outer loop
      vertex -96.675 -16.5 46.89
      vertex -96.675 -33.5 65.3
      vertex -96.675 -33.5 46.89
    endloop
  endfacet
  facet normal 0 1 -0
    outer loop
      vertex -96.675 -16.5 46.89
      vertex -113.325 -16.5 65.3
      vertex -96.675 -16.5 65.3
    endloop
  endfacet
  facet normal 0 1 0
    outer loop
      vertex -114.825 -16.5 46.89
      vertex -113.325 -16.5 65.3
      vertex -96.675 -16.5 46.89
    endloop
  endfacet
  facet normal 0 1 0
    outer loop
      vertex -113.325 -16.5 65.3
      vertex -114.825 -16.5 46.89
      vertex -114.825 -16.5 65.3
    endloop
  endfacet
  facet normal 0 -1 0
    outer loop
      vertex -114.825 -33.5 46.89
      vertex -113.325 -33.5 65.3
      vertex -114.825 -33.5 65.3
    endloop
  endfacet
  facet normal 0 -1 0
    outer loop
      vertex -96.675 -33.5 46.89
      vertex -113.325 -33.5 65.3
      vertex -114.825 -33.5 46.89
    endloop
  endfacet
  facet normal 0 -1 0
    outer loop
      vertex -113.325 -33.5 65.3
      vertex -96.675 -33.5 46.89
      vertex -96.675 -33.5 65.3
    endloop
  endfacet
  facet normal -1 0 0
    outer loop
      vertex -114.825 -13 49.9
      vertex -114.825 0.2 65.3
      vertex -114.825 0.2 49.9
    endloop
  endfacet
  facet normal -1 -0 0
    outer loop
      vertex -114.825 0.2 65.3
      vertex -114.825 -13 49.9
      vertex -114.825 -13 65.3
    endloop
  endfacet
  facet normal 0 0 -1
    outer loop
      vertex -114.825 -13 49.9
      vertex -97.225 0.2 49.9
      vertex -97.225 -13 49.9
    endloop
  endfacet
  facet normal -0 0 -1
    outer loop
      vertex -97.225 0.2 49.9
      vertex -114.825 -13 49.9
      vertex -114.825 0.2 49.9
    endloop
  endfacet
  facet normal 1 -0 0
    outer loop
      vertex -97.225 -13 65.3
      vertex -97.225 0.2 49.9
      vertex -97.225 0.2 65.3
    endloop
  endfacet
  facet normal 1 0 0
    outer loop
      vertex -97.225 0.2 49.9
      vertex -97.225 -13 65.3
      vertex -97.225 -13 49.9
    endloop
  endfacet
  facet normal 0 -1 0
    outer loop
      vertex -114.825 -13 49.9
      vertex -113.325 -13 65.3
      vertex -114.825 -13 65.3
    endloop
  endfacet
  facet normal 0 -1 0
    outer loop
      vertex -97.225 -13 49.9
      vertex -113.325 -13 65.3
      vertex -114.825 -13 49.9
    endloop
  endfacet
  facet normal 0 -1 0
    outer loop
      vertex -113.325 -13 65.3
      vertex -97.225 -13 49.9
      vertex -97.225 -13 65.3
    endloop
  endfacet
  facet normal -0 0 1
    outer loop
      vertex -114.825 0.2 65.3
      vertex -113.325 -13 65.3
      vertex -113.325 0.2 65.3
    endloop
  endfacet
  facet normal 0 0 1
    outer loop
      vertex -113.325 -13 65.3
      vertex -114.825 0.2 65.3
      vertex -114.825 -13 65.3
    endloop
  endfacet
  facet normal 0 1 -0
    outer loop
      vertex -97.225 0.2 49.9
      vertex -113.325 0.2 65.3
      vertex -97.225 0.2 65.3
    endloop
  endfacet
  facet normal 0 1 0
    outer loop
      vertex -114.825 0.2 49.9
      vertex -113.325 0.2 65.3
      vertex -97.225 0.2 49.9
    endloop
  endfacet
  facet normal 0 1 0
    outer loop
      vertex -113.325 0.2 65.3
      vertex -114.825 0.2 49.9
      vertex -114.825 0.2 65.3
    endloop
  endfacet
  facet normal -1 0 0
    outer loop
      vertex -114.825 3.75 49.9
      vertex -114.825 16.95 65.3
      vertex -114.825 16.95 49.9
    endloop
  endfacet
  facet normal -1 -0 0
    outer loop
      vertex -114.825 16.95 65.3
      vertex -114.825 3.75 49.9
      vertex -114.825 3.75 65.3
    endloop
  endfacet
  facet normal 0 0 -1
    outer loop
      vertex -114.825 3.75 49.9
      vertex -97.225 16.95 49.9
      vertex -97.225 3.75 49.9
    endloop
  endfacet
  facet normal -0 0 -1
    outer loop
      vertex -97.225 16.95 49.9
      vertex -114.825 3.75 49.9
      vertex -114.825 16.95 49.9
    endloop
  endfacet
  facet normal 1 -0 0
    outer loop
      vertex -97.225 3.75 65.3
      vertex -97.225 16.95 49.9
      vertex -97.225 16.95 65.3
    endloop
  endfacet
  facet normal 1 0 0
    outer loop
      vertex -97.225 16.95 49.9
      vertex -97.225 3.75 65.3
      vertex -97.225 3.75 49.9
    endloop
  endfacet
  facet normal -0 0 1
    outer loop
      vertex -114.825 16.95 65.3
      vertex -113.325 3.75 65.3
      vertex -113.325 16.95 65.3
    endloop
  endfacet
  facet normal 0 0 1
    outer loop
      vertex -113.325 3.75 65.3
      vertex -114.825 16.95 65.3
      vertex -114.825 3.75 65.3
    endloop
  endfacet
  facet normal 0 1 -0
    outer loop
      vertex -97.225 16.95 49.9
      vertex -113.325 16.95 65.3
      vertex -97.225 16.95 65.3
    endloop
  endfacet
  facet normal 0 1 0
    outer loop
      vertex -114.825 16.95 49.9
      vertex -113.325 16.95 65.3
      vertex -97.225 16.95 49.9
    endloop
  endfacet
  facet normal 0 1 0
    outer loop
      vertex -113.325 16.95 65.3
      vertex -114.825 16.95 49.9
      vertex -114.825 16.95 65.3
    endloop
  endfacet
  facet normal 0 -1 0
    outer loop
      vertex -114.825 3.75 49.9
      vertex -113.325 3.75 65.3
      vertex -114.825 3.75 65.3
    endloop
  endfacet
  facet normal 0 -1 0
    outer loop
      vertex -97.225 3.75 49.9
      vertex -113.325 3.75 65.3
      vertex -114.825 3.75 49.9
    endloop
  endfacet
  facet normal 0 -1 0
    outer loop
      vertex -113.325 3.75 65.3
      vertex -97.225 3.75 49.9
      vertex -97.225 3.75 65.3
    endloop
  endfacet
  facet normal -1 0 0
    outer loop
      vertex -114.825 19.25 51.63
      vertex -114.825 35.25 65.3
      vertex -114.825 35.25 51.63
    endloop
  endfacet
  facet normal -1 -0 0
    outer loop
      vertex -114.825 35.25 65.3
      vertex -114.825 19.25 51.63
      vertex -114.825 19.25 65.3
    endloop
  endfacet
  facet normal 0 0 -1
    outer loop
      vertex -114.825 19.25 51.63
      vertex -93.325 35.25 51.63
      vertex -93.325 19.25 51.63
    endloop
  endfacet
  facet normal -0 0 -1
    outer loop
      vertex -93.325 35.25 51.63
      vertex -114.825 19.25 51.63
      vertex -114.825 35.25 51.63
    endloop
  endfacet
  facet normal 1 -0 0
    outer loop
      vertex -93.325 19.25 65.3
      vertex -93.325 35.25 51.63
      vertex -93.325 35.25 65.3
    endloop
  endfacet
  facet normal 1 0 0
    outer loop
      vertex -93.325 35.25 51.63
      vertex -93.325 19.25 65.3
      vertex -93.325 19.25 51.63
    endloop
  endfacet
  facet normal 0 1 -0
    outer loop
      vertex -93.325 35.25 51.63
      vertex -113.325 35.25 65.3
      vertex -93.325 35.25 65.3
    endloop
  endfacet
  facet normal 0 1 0
    outer loop
      vertex -114.825 35.25 51.63
      vertex -113.325 35.25 65.3
      vertex -93.325 35.25 51.63
    endloop
  endfacet
  facet normal 0 1 0
    outer loop
      vertex -113.325 35.25 65.3
      vertex -114.825 35.25 51.63
      vertex -114.825 35.25 65.3
    endloop
  endfacet
  facet normal 0 -1 0
    outer loop
      vertex -114.825 19.25 51.63
      vertex -113.325 19.25 65.3
      vertex -114.825 19.25 65.3
    endloop
  endfacet
  facet normal 0 -1 0
    outer loop
      vertex -93.325 19.25 51.63
      vertex -113.325 19.25 65.3
      vertex -114.825 19.25 51.63
    endloop
  endfacet
  facet normal 0 -1 0
    outer loop
      vertex -113.325 19.25 65.3
      vertex -93.325 19.25 51.63
      vertex -93.325 19.25 65.3
    endloop
  endfacet
  facet normal -1 0 0
    outer loop
      vertex -114.225 37.37 62.55
      vertex -114.225 45.5 65.3
      vertex -114.225 45.5 62.55
    endloop
  endfacet
  facet normal -1 -0 0
    outer loop
      vertex -114.225 45.5 65.3
      vertex -114.225 37.37 62.55
      vertex -114.225 37.37 65.3
    endloop
  endfacet
  facet normal 0 0 -1
    outer loop
      vertex -114.225 37.37 62.55
      vertex -107.475 45.5 62.55
      vertex -107.475 37.37 62.55
    endloop
  endfacet
  facet normal -0 0 -1
    outer loop
      vertex -107.475 45.5 62.55
      vertex -114.225 37.37 62.55
      vertex -114.225 45.5 62.55
    endloop
  endfacet
  facet normal 1 -0 0
    outer loop
      vertex -107.475 37.37 65.3
      vertex -107.475 45.5 62.55
      vertex -107.475 45.5 65.3
    endloop
  endfacet
  facet normal 1 0 0
    outer loop
      vertex -107.475 45.5 62.55
      vertex -107.475 37.37 65.3
      vertex -107.475 37.37 62.55
    endloop
  endfacet
  facet normal 0 -1 0
    outer loop
      vertex -114.225 37.37 62.55
      vertex -113.325 37.37 65.3
      vertex -114.225 37.37 65.3
    endloop
  endfacet
  facet normal 0 -1 0
    outer loop
      vertex -107.475 37.37 62.55
      vertex -113.325 37.37 65.3
      vertex -114.225 37.37 62.55
    endloop
  endfacet
  facet normal 0 -1 0
    outer loop
      vertex -113.325 37.37 65.3
      vertex -107.475 37.37 62.55
      vertex -107.475 37.37 65.3
    endloop
  endfacet
  facet normal 0 1 -0
    outer loop
      vertex -107.475 45.5 62.55
      vertex -113.325 45.5 65.3
      vertex -107.475 45.5 65.3
    endloop
  endfacet
  facet normal 0 1 0
    outer loop
      vertex -114.225 45.5 62.55
      vertex -113.325 45.5 65.3
      vertex -107.475 45.5 62.55
    endloop
  endfacet
  facet normal 0 1 0
    outer loop
      vertex -113.325 45.5 65.3
      vertex -114.225 45.5 62.55
      vertex -114.225 45.5 65.3
    endloop
  endfacet
  facet normal 0.978147 -0.207912 0
    outer loop
      vertex -34.5411 -48.0168 71.25
      vertex -34.325 -47 67.05
      vertex -34.325 -47 71.25
    endloop
  endfacet
  facet normal 0.978147 -0.207912 0
    outer loop
      vertex -34.325 -47 67.05
      vertex -34.5411 -48.0168 71.25
      vertex -34.5411 -48.0168 67.05
    endloop
  endfacet
  facet normal -1 0 0
    outer loop
      vertex -39.2704 -47.5198 67.05
      vertex -39.2704 -46.4802 71.25
      vertex -39.2704 -46.4802 67.05
    endloop
  endfacet
  facet normal -1 -0 0
    outer loop
      vertex -39.2704 -46.4802 71.25
      vertex -39.2704 -47.5198 67.05
      vertex -39.2704 -47.5198 71.25
    endloop
  endfacet
  facet normal 0.10453 -0.994522 0
    outer loop
      vertex -37.0863 -49.4863 67.05
      vertex -36.0525 -49.3776 71.25
      vertex -37.0863 -49.4863 71.25
    endloop
  endfacet
  facet normal 0.10453 -0.994522 0
    outer loop
      vertex -36.0525 -49.3776 71.25
      vertex -37.0863 -49.4863 67.05
      vertex -36.0525 -49.3776 67.05
    endloop
  endfacet
  facet normal 0.104527 0.994522 -0
    outer loop
      vertex -36.0525 -44.6224 67.05
      vertex -37.0863 -44.5137 71.25
      vertex -36.0525 -44.6224 71.25
    endloop
  endfacet
  facet normal 0.104527 0.994522 0
    outer loop
      vertex -37.0863 -44.5137 71.25
      vertex -36.0525 -44.6224 67.05
      vertex -37.0863 -44.5137 67.05
    endloop
  endfacet
  facet normal 0 0 1
    outer loop
      vertex -34.5411 -45.9832 71.25
      vertex -34.5411 -48.0168 71.25
      vertex -34.325 -47 71.25
    endloop
  endfacet
  facet normal 0 0 1
    outer loop
      vertex -35.1522 -45.1421 71.25
      vertex -34.5411 -48.0168 71.25
      vertex -34.5411 -45.9832 71.25
    endloop
  endfacet
  facet normal 0 0 1
    outer loop
      vertex -35.1522 -45.1421 71.25
      vertex -35.1522 -48.8579 71.25
      vertex -34.5411 -48.0168 71.25
    endloop
  endfacet
  facet normal 0 0 1
    outer loop
      vertex -36.0525 -44.6224 71.25
      vertex -35.1522 -48.8579 71.25
      vertex -35.1522 -45.1421 71.25
    endloop
  endfacet
  facet normal 0 0 1
    outer loop
      vertex -36.0525 -44.6224 71.25
      vertex -36.0525 -49.3776 71.25
      vertex -35.1522 -48.8579 71.25
    endloop
  endfacet
  facet normal 0 0 1
    outer loop
      vertex -37.0863 -44.5137 71.25
      vertex -36.0525 -49.3776 71.25
      vertex -36.0525 -44.6224 71.25
    endloop
  endfacet
  facet normal 0 0 1
    outer loop
      vertex -37.0863 -44.5137 71.25
      vertex -37.0863 -49.4863 71.25
      vertex -36.0525 -49.3776 71.25
    endloop
  endfacet
  facet normal -0 0 1
    outer loop
      vertex -38.075 -44.8349 71.25
      vertex -37.0863 -49.4863 71.25
      vertex -37.0863 -44.5137 71.25
    endloop
  endfacet
  facet normal 0 0 1
    outer loop
      vertex -38.075 -44.8349 71.25
      vertex -38.075 -49.1651 71.25
      vertex -37.0863 -49.4863 71.25
    endloop
  endfacet
  facet normal -0 0 1
    outer loop
      vertex -38.8475 -45.5305 71.25
      vertex -38.075 -49.1651 71.25
      vertex -38.075 -44.8349 71.25
    endloop
  endfacet
  facet normal 0 0 1
    outer loop
      vertex -38.8475 -45.5305 71.25
      vertex -38.8475 -48.4695 71.25
      vertex -38.075 -49.1651 71.25
    endloop
  endfacet
  facet normal -0 0 1
    outer loop
      vertex -39.2704 -46.4802 71.25
      vertex -38.8475 -48.4695 71.25
      vertex -38.8475 -45.5305 71.25
    endloop
  endfacet
  facet normal 0 0 1
    outer loop
      vertex -38.8475 -48.4695 71.25
      vertex -39.2704 -46.4802 71.25
      vertex -39.2704 -47.5198 71.25
    endloop
  endfacet
  facet normal 0.5 -0.866025 0
    outer loop
      vertex -36.0525 -49.3776 67.05
      vertex -35.1522 -48.8579 71.25
      vertex -36.0525 -49.3776 71.25
    endloop
  endfacet
  facet normal 0.5 -0.866025 0
    outer loop
      vertex -35.1522 -48.8579 71.25
      vertex -36.0525 -49.3776 67.05
      vertex -35.1522 -48.8579 67.05
    endloop
  endfacet
  facet normal 0.809016 -0.587787 0
    outer loop
      vertex -35.1522 -48.8579 71.25
      vertex -34.5411 -48.0168 67.05
      vertex -34.5411 -48.0168 71.25
    endloop
  endfacet
  facet normal 0.809016 -0.587787 0
    outer loop
      vertex -34.5411 -48.0168 67.05
      vertex -35.1522 -48.8579 71.25
      vertex -35.1522 -48.8579 67.05
    endloop
  endfacet
  facet normal -0.66913 -0.743145 0
    outer loop
      vertex -38.8475 -48.4695 67.05
      vertex -38.075 -49.1651 71.25
      vertex -38.8475 -48.4695 71.25
    endloop
  endfacet
  facet normal -0.66913 -0.743145 -0
    outer loop
      vertex -38.075 -49.1651 71.25
      vertex -38.8475 -48.4695 67.05
      vertex -38.075 -49.1651 67.05
    endloop
  endfacet
  facet normal -0.913545 -0.406738 0
    outer loop
      vertex -38.8475 -48.4695 67.05
      vertex -39.2704 -47.5198 71.25
      vertex -39.2704 -47.5198 67.05
    endloop
  endfacet
  facet normal -0.913545 -0.406738 0
    outer loop
      vertex -39.2704 -47.5198 71.25
      vertex -38.8475 -48.4695 67.05
      vertex -38.8475 -48.4695 71.25
    endloop
  endfacet
  facet normal -0.309019 -0.951056 0
    outer loop
      vertex -38.075 -49.1651 67.05
      vertex -37.0863 -49.4863 71.25
      vertex -38.075 -49.1651 71.25
    endloop
  endfacet
  facet normal -0.309019 -0.951056 -0
    outer loop
      vertex -37.0863 -49.4863 71.25
      vertex -38.075 -49.1651 67.05
      vertex -37.0863 -49.4863 67.05
    endloop
  endfacet
  facet normal 0.978147 0.207912 0
    outer loop
      vertex -34.325 -47 71.25
      vertex -34.5411 -45.9832 67.05
      vertex -34.5411 -45.9832 71.25
    endloop
  endfacet
  facet normal 0.978147 0.207912 0
    outer loop
      vertex -34.5411 -45.9832 67.05
      vertex -34.325 -47 71.25
      vertex -34.325 -47 67.05
    endloop
  endfacet
  facet normal -0.309016 0.951057 0
    outer loop
      vertex -37.0863 -44.5137 67.05
      vertex -38.075 -44.8349 71.25
      vertex -37.0863 -44.5137 71.25
    endloop
  endfacet
  facet normal -0.309016 0.951057 0
    outer loop
      vertex -38.075 -44.8349 71.25
      vertex -37.0863 -44.5137 67.05
      vertex -38.075 -44.8349 67.05
    endloop
  endfacet
  facet normal -0.913545 0.406738 0
    outer loop
      vertex -39.2704 -46.4802 67.05
      vertex -38.8475 -45.5305 71.25
      vertex -38.8475 -45.5305 67.05
    endloop
  endfacet
  facet normal -0.913545 0.406738 0
    outer loop
      vertex -38.8475 -45.5305 71.25
      vertex -39.2704 -46.4802 67.05
      vertex -39.2704 -46.4802 71.25
    endloop
  endfacet
  facet normal 0.809017 0.587785 0
    outer loop
      vertex -34.5411 -45.9832 71.25
      vertex -35.1522 -45.1421 67.05
      vertex -35.1522 -45.1421 71.25
    endloop
  endfacet
  facet normal 0.809017 0.587785 0
    outer loop
      vertex -35.1522 -45.1421 67.05
      vertex -34.5411 -45.9832 71.25
      vertex -34.5411 -45.9832 67.05
    endloop
  endfacet
  facet normal 0.5 0.866025 -0
    outer loop
      vertex -35.1522 -45.1421 67.05
      vertex -36.0525 -44.6224 71.25
      vertex -35.1522 -45.1421 71.25
    endloop
  endfacet
  facet normal 0.5 0.866025 0
    outer loop
      vertex -36.0525 -44.6224 71.25
      vertex -35.1522 -45.1421 67.05
      vertex -36.0525 -44.6224 67.05
    endloop
  endfacet
  facet normal -0.669132 0.743143 0
    outer loop
      vertex -38.075 -44.8349 67.05
      vertex -38.8475 -45.5305 71.25
      vertex -38.075 -44.8349 71.25
    endloop
  endfacet
  facet normal -0.669132 0.743143 0
    outer loop
      vertex -38.8475 -45.5305 71.25
      vertex -38.075 -44.8349 67.05
      vertex -38.8475 -45.5305 67.05
    endloop
  endfacet
  facet normal 0.978147 -0.207912 0
    outer loop
      vertex -34.5411 26.9832 71.25
      vertex -34.325 28 67.05
      vertex -34.325 28 71.25
    endloop
  endfacet
  facet normal 0.978147 -0.207912 0
    outer loop
      vertex -34.325 28 67.05
      vertex -34.5411 26.9832 71.25
      vertex -34.5411 26.9832 67.05
    endloop
  endfacet
  facet normal -1 0 0
    outer loop
      vertex -39.2704 27.4802 67.05
      vertex -39.2704 28.5198 71.25
      vertex -39.2704 28.5198 67.05
    endloop
  endfacet
  facet normal -1 -0 0
    outer loop
      vertex -39.2704 28.5198 71.25
      vertex -39.2704 27.4802 67.05
      vertex -39.2704 27.4802 71.25
    endloop
  endfacet
  facet normal 0.10453 0.994522 -0
    outer loop
      vertex -36.0525 30.3776 67.05
      vertex -37.0863 30.4863 71.25
      vertex -36.0525 30.3776 71.25
    endloop
  endfacet
  facet normal 0.10453 0.994522 0
    outer loop
      vertex -37.0863 30.4863 71.25
      vertex -36.0525 30.3776 67.05
      vertex -37.0863 30.4863 67.05
    endloop
  endfacet
  facet normal 0.104529 -0.994522 0
    outer loop
      vertex -37.0863 25.5137 67.05
      vertex -36.0525 25.6224 71.25
      vertex -37.0863 25.5137 71.25
    endloop
  endfacet
  facet normal 0.104529 -0.994522 0
    outer loop
      vertex -36.0525 25.6224 71.25
      vertex -37.0863 25.5137 67.05
      vertex -36.0525 25.6224 67.05
    endloop
  endfacet
  facet normal 0.5 -0.866025 0
    outer loop
      vertex -36.0525 25.6224 67.05
      vertex -35.1522 26.1421 71.25
      vertex -36.0525 25.6224 71.25
    endloop
  endfacet
  facet normal 0.5 -0.866025 0
    outer loop
      vertex -35.1522 26.1421 71.25
      vertex -36.0525 25.6224 67.05
      vertex -35.1522 26.1421 67.05
    endloop
  endfacet
  facet normal 0.809017 -0.587786 0
    outer loop
      vertex -35.1522 26.1421 71.25
      vertex -34.5411 26.9832 67.05
      vertex -34.5411 26.9832 71.25
    endloop
  endfacet
  facet normal 0.809017 -0.587786 0
    outer loop
      vertex -34.5411 26.9832 67.05
      vertex -35.1522 26.1421 71.25
      vertex -35.1522 26.1421 67.05
    endloop
  endfacet
  facet normal -0.669131 -0.743144 0
    outer loop
      vertex -38.8475 26.5305 67.05
      vertex -38.075 25.8349 71.25
      vertex -38.8475 26.5305 71.25
    endloop
  endfacet
  facet normal -0.669131 -0.743144 -0
    outer loop
      vertex -38.075 25.8349 71.25
      vertex -38.8475 26.5305 67.05
      vertex -38.075 25.8349 67.05
    endloop
  endfacet
  facet normal -0.913545 -0.406738 0
    outer loop
      vertex -38.8475 26.5305 67.05
      vertex -39.2704 27.4802 71.25
      vertex -39.2704 27.4802 67.05
    endloop
  endfacet
  facet normal -0.913545 -0.406738 0
    outer loop
      vertex -39.2704 27.4802 71.25
      vertex -38.8475 26.5305 67.05
      vertex -38.8475 26.5305 71.25
    endloop
  endfacet
  facet normal -0.309017 -0.951056 0
    outer loop
      vertex -38.075 25.8349 67.05
      vertex -37.0863 25.5137 71.25
      vertex -38.075 25.8349 71.25
    endloop
  endfacet
  facet normal -0.309017 -0.951056 -0
    outer loop
      vertex -37.0863 25.5137 71.25
      vertex -38.075 25.8349 67.05
      vertex -37.0863 25.5137 67.05
    endloop
  endfacet
  facet normal 0.978147 0.207912 0
    outer loop
      vertex -34.325 28 71.25
      vertex -34.5411 29.0168 67.05
      vertex -34.5411 29.0168 71.25
    endloop
  endfacet
  facet normal 0.978147 0.207912 0
    outer loop
      vertex -34.5411 29.0168 67.05
      vertex -34.325 28 71.25
      vertex -34.325 28 67.05
    endloop
  endfacet
  facet normal 0 0 1
    outer loop
      vertex -34.5411 29.0168 71.25
      vertex -34.5411 26.9832 71.25
      vertex -34.325 28 71.25
    endloop
  endfacet
  facet normal 0 0 1
    outer loop
      vertex -35.1522 29.8579 71.25
      vertex -34.5411 26.9832 71.25
      vertex -34.5411 29.0168 71.25
    endloop
  endfacet
  facet normal 0 0 1
    outer loop
      vertex -35.1522 29.8579 71.25
      vertex -35.1522 26.1421 71.25
      vertex -34.5411 26.9832 71.25
    endloop
  endfacet
  facet normal 0 0 1
    outer loop
      vertex -36.0525 30.3776 71.25
      vertex -35.1522 26.1421 71.25
      vertex -35.1522 29.8579 71.25
    endloop
  endfacet
  facet normal 0 0 1
    outer loop
      vertex -36.0525 30.3776 71.25
      vertex -36.0525 25.6224 71.25
      vertex -35.1522 26.1421 71.25
    endloop
  endfacet
  facet normal 0 0 1
    outer loop
      vertex -37.0863 30.4863 71.25
      vertex -36.0525 25.6224 71.25
      vertex -36.0525 30.3776 71.25
    endloop
  endfacet
  facet normal 0 0 1
    outer loop
      vertex -37.0863 30.4863 71.25
      vertex -37.0863 25.5137 71.25
      vertex -36.0525 25.6224 71.25
    endloop
  endfacet
  facet normal -0 0 1
    outer loop
      vertex -38.075 30.1651 71.25
      vertex -37.0863 25.5137 71.25
      vertex -37.0863 30.4863 71.25
    endloop
  endfacet
  facet normal 0 0 1
    outer loop
      vertex -38.075 30.1651 71.25
      vertex -38.075 25.8349 71.25
      vertex -37.0863 25.5137 71.25
    endloop
  endfacet
  facet normal -0 0 1
    outer loop
      vertex -38.8475 29.4695 71.25
      vertex -38.075 25.8349 71.25
      vertex -38.075 30.1651 71.25
    endloop
  endfacet
  facet normal 0 0 1
    outer loop
      vertex -38.8475 29.4695 71.25
      vertex -38.8475 26.5305 71.25
      vertex -38.075 25.8349 71.25
    endloop
  endfacet
  facet normal -0 0 1
    outer loop
      vertex -39.2704 28.5198 71.25
      vertex -38.8475 26.5305 71.25
      vertex -38.8475 29.4695 71.25
    endloop
  endfacet
  facet normal 0 0 1
    outer loop
      vertex -38.8475 26.5305 71.25
      vertex -39.2704 28.5198 71.25
      vertex -39.2704 27.4802 71.25
    endloop
  endfacet
  facet normal 0.5 0.866025 -0
    outer loop
      vertex -35.1522 29.8579 67.05
      vertex -36.0525 30.3776 71.25
      vertex -35.1522 29.8579 71.25
    endloop
  endfacet
  facet normal 0.5 0.866025 0
    outer loop
      vertex -36.0525 30.3776 71.25
      vertex -35.1522 29.8579 67.05
      vertex -36.0525 30.3776 67.05
    endloop
  endfacet
  facet normal -0.309019 0.951056 0
    outer loop
      vertex -37.0863 30.4863 67.05
      vertex -38.075 30.1651 71.25
      vertex -37.0863 30.4863 71.25
    endloop
  endfacet
  facet normal -0.309019 0.951056 0
    outer loop
      vertex -38.075 30.1651 71.25
      vertex -37.0863 30.4863 67.05
      vertex -38.075 30.1651 67.05
    endloop
  endfacet
  facet normal -0.66913 0.743145 0
    outer loop
      vertex -38.075 30.1651 67.05
      vertex -38.8475 29.4695 71.25
      vertex -38.075 30.1651 71.25
    endloop
  endfacet
  facet normal -0.66913 0.743145 0
    outer loop
      vertex -38.8475 29.4695 71.25
      vertex -38.075 30.1651 67.05
      vertex -38.8475 29.4695 67.05
    endloop
  endfacet
  facet normal -0.913545 0.406738 0
    outer loop
      vertex -39.2704 28.5198 67.05
      vertex -38.8475 29.4695 71.25
      vertex -38.8475 29.4695 67.05
    endloop
  endfacet
  facet normal -0.913545 0.406738 0
    outer loop
      vertex -38.8475 29.4695 71.25
      vertex -39.2704 28.5198 67.05
      vertex -39.2704 28.5198 71.25
    endloop
  endfacet
  facet normal 0.809016 0.587787 0
    outer loop
      vertex -34.5411 29.0168 71.25
      vertex -35.1522 29.8579 67.05
      vertex -35.1522 29.8579 71.25
    endloop
  endfacet
  facet normal 0.809016 0.587787 0
    outer loop
      vertex -35.1522 29.8579 67.05
      vertex -34.5411 29.0168 71.25
      vertex -34.5411 29.0168 67.05
    endloop
  endfacet
  facet normal 0.978147 -0.207916 0
    outer loop
      vertex -92.7911 -48.0168 71.25
      vertex -92.575 -47 67.05
      vertex -92.575 -47 71.25
    endloop
  endfacet
  facet normal 0.978147 -0.207916 0
    outer loop
      vertex -92.575 -47 67.05
      vertex -92.7911 -48.0168 71.25
      vertex -92.7911 -48.0168 67.05
    endloop
  endfacet
  facet normal -1 0 0
    outer loop
      vertex -97.5204 -47.5198 67.05
      vertex -97.5204 -46.4802 71.25
      vertex -97.5204 -46.4802 67.05
    endloop
  endfacet
  facet normal -1 -0 0
    outer loop
      vertex -97.5204 -46.4802 71.25
      vertex -97.5204 -47.5198 67.05
      vertex -97.5204 -47.5198 71.25
    endloop
  endfacet
  facet normal 0.104531 -0.994522 0
    outer loop
      vertex -95.3363 -49.4863 67.05
      vertex -94.3025 -49.3776 71.25
      vertex -95.3363 -49.4863 71.25
    endloop
  endfacet
  facet normal 0.104531 -0.994522 0
    outer loop
      vertex -94.3025 -49.3776 71.25
      vertex -95.3363 -49.4863 67.05
      vertex -94.3025 -49.3776 67.05
    endloop
  endfacet
  facet normal 0.104527 0.994522 -0
    outer loop
      vertex -94.3025 -44.6224 67.05
      vertex -95.3363 -44.5137 71.25
      vertex -94.3025 -44.6224 71.25
    endloop
  endfacet
  facet normal 0.104527 0.994522 0
    outer loop
      vertex -95.3363 -44.5137 71.25
      vertex -94.3025 -44.6224 67.05
      vertex -95.3363 -44.5137 67.05
    endloop
  endfacet
  facet normal 0 0 1
    outer loop
      vertex -92.7911 -45.9832 71.25
      vertex -92.7911 -48.0168 71.25
      vertex -92.575 -47 71.25
    endloop
  endfacet
  facet normal 0 0 1
    outer loop
      vertex -93.4022 -45.1421 71.25
      vertex -92.7911 -48.0168 71.25
      vertex -92.7911 -45.9832 71.25
    endloop
  endfacet
  facet normal 0 0 1
    outer loop
      vertex -93.4022 -45.1421 71.25
      vertex -93.4022 -48.8579 71.25
      vertex -92.7911 -48.0168 71.25
    endloop
  endfacet
  facet normal 0 0 1
    outer loop
      vertex -94.3025 -44.6224 71.25
      vertex -93.4022 -48.8579 71.25
      vertex -93.4022 -45.1421 71.25
    endloop
  endfacet
  facet normal 0 0 1
    outer loop
      vertex -94.3025 -44.6224 71.25
      vertex -94.3025 -49.3776 71.25
      vertex -93.4022 -48.8579 71.25
    endloop
  endfacet
  facet normal 0 0 1
    outer loop
      vertex -95.3363 -44.5137 71.25
      vertex -94.3025 -49.3776 71.25
      vertex -94.3025 -44.6224 71.25
    endloop
  endfacet
  facet normal 0 0 1
    outer loop
      vertex -95.3363 -44.5137 71.25
      vertex -95.3363 -49.4863 71.25
      vertex -94.3025 -49.3776 71.25
    endloop
  endfacet
  facet normal -0 0 1
    outer loop
      vertex -96.325 -44.8349 71.25
      vertex -95.3363 -49.4863 71.25
      vertex -95.3363 -44.5137 71.25
    endloop
  endfacet
  facet normal 0 0 1
    outer loop
      vertex -96.325 -44.8349 71.25
      vertex -96.325 -49.1651 71.25
      vertex -95.3363 -49.4863 71.25
    endloop
  endfacet
  facet normal -0 0 1
    outer loop
      vertex -97.0975 -45.5305 71.25
      vertex -96.325 -49.1651 71.25
      vertex -96.325 -44.8349 71.25
    endloop
  endfacet
  facet normal 0 0 1
    outer loop
      vertex -97.0975 -45.5305 71.25
      vertex -97.0975 -48.4695 71.25
      vertex -96.325 -49.1651 71.25
    endloop
  endfacet
  facet normal -0 0 1
    outer loop
      vertex -97.5204 -46.4802 71.25
      vertex -97.0975 -48.4695 71.25
      vertex -97.0975 -45.5305 71.25
    endloop
  endfacet
  facet normal 0 0 1
    outer loop
      vertex -97.0975 -48.4695 71.25
      vertex -97.5204 -46.4802 71.25
      vertex -97.5204 -47.5198 71.25
    endloop
  endfacet
  facet normal 0.5 -0.866025 0
    outer loop
      vertex -94.3025 -49.3776 67.05
      vertex -93.4022 -48.8579 71.25
      vertex -94.3025 -49.3776 71.25
    endloop
  endfacet
  facet normal 0.5 -0.866025 0
    outer loop
      vertex -93.4022 -48.8579 71.25
      vertex -94.3025 -49.3776 67.05
      vertex -93.4022 -48.8579 67.05
    endloop
  endfacet
  facet normal 0.809016 -0.587787 0
    outer loop
      vertex -93.4022 -48.8579 71.25
      vertex -92.7911 -48.0168 67.05
      vertex -92.7911 -48.0168 71.25
    endloop
  endfacet
  facet normal 0.809016 -0.587787 0
    outer loop
      vertex -92.7911 -48.0168 67.05
      vertex -93.4022 -48.8579 71.25
      vertex -93.4022 -48.8579 67.05
    endloop
  endfacet
  facet normal -0.669129 -0.743147 0
    outer loop
      vertex -97.0975 -48.4695 67.05
      vertex -96.325 -49.1651 71.25
      vertex -97.0975 -48.4695 71.25
    endloop
  endfacet
  facet normal -0.669129 -0.743147 -0
    outer loop
      vertex -96.325 -49.1651 71.25
      vertex -97.0975 -48.4695 67.05
      vertex -96.325 -49.1651 67.05
    endloop
  endfacet
  facet normal -0.913545 -0.406738 0
    outer loop
      vertex -97.0975 -48.4695 67.05
      vertex -97.5204 -47.5198 71.25
      vertex -97.5204 -47.5198 67.05
    endloop
  endfacet
  facet normal -0.913545 -0.406738 0
    outer loop
      vertex -97.5204 -47.5198 71.25
      vertex -97.0975 -48.4695 67.05
      vertex -97.0975 -48.4695 71.25
    endloop
  endfacet
  facet normal -0.309019 -0.951056 0
    outer loop
      vertex -96.325 -49.1651 67.05
      vertex -95.3363 -49.4863 71.25
      vertex -96.325 -49.1651 71.25
    endloop
  endfacet
  facet normal -0.309019 -0.951056 -0
    outer loop
      vertex -95.3363 -49.4863 71.25
      vertex -96.325 -49.1651 67.05
      vertex -95.3363 -49.4863 67.05
    endloop
  endfacet
  facet normal 0.978147 0.207916 0
    outer loop
      vertex -92.575 -47 71.25
      vertex -92.7911 -45.9832 67.05
      vertex -92.7911 -45.9832 71.25
    endloop
  endfacet
  facet normal 0.978147 0.207916 0
    outer loop
      vertex -92.7911 -45.9832 67.05
      vertex -92.575 -47 71.25
      vertex -92.575 -47 67.05
    endloop
  endfacet
  facet normal 0.5 0.866025 -0
    outer loop
      vertex -93.4022 -45.1421 67.05
      vertex -94.3025 -44.6224 71.25
      vertex -93.4022 -45.1421 71.25
    endloop
  endfacet
  facet normal 0.5 0.866025 0
    outer loop
      vertex -94.3025 -44.6224 71.25
      vertex -93.4022 -45.1421 67.05
      vertex -94.3025 -44.6224 67.05
    endloop
  endfacet
  facet normal -0.309016 0.951057 0
    outer loop
      vertex -95.3363 -44.5137 67.05
      vertex -96.325 -44.8349 71.25
      vertex -95.3363 -44.5137 71.25
    endloop
  endfacet
  facet normal -0.309016 0.951057 0
    outer loop
      vertex -96.325 -44.8349 71.25
      vertex -95.3363 -44.5137 67.05
      vertex -96.325 -44.8349 67.05
    endloop
  endfacet
  facet normal -0.913545 0.406738 0
    outer loop
      vertex -97.5204 -46.4802 67.05
      vertex -97.0975 -45.5305 71.25
      vertex -97.0975 -45.5305 67.05
    endloop
  endfacet
  facet normal -0.913545 0.406738 0
    outer loop
      vertex -97.0975 -45.5305 71.25
      vertex -97.5204 -46.4802 67.05
      vertex -97.5204 -46.4802 71.25
    endloop
  endfacet
  facet normal 0.809017 0.587785 0
    outer loop
      vertex -92.7911 -45.9832 71.25
      vertex -93.4022 -45.1421 67.05
      vertex -93.4022 -45.1421 71.25
    endloop
  endfacet
  facet normal 0.809017 0.587785 0
    outer loop
      vertex -93.4022 -45.1421 67.05
      vertex -92.7911 -45.9832 71.25
      vertex -92.7911 -45.9832 67.05
    endloop
  endfacet
  facet normal -0.669131 0.743145 0
    outer loop
      vertex -96.325 -44.8349 67.05
      vertex -97.0975 -45.5305 71.25
      vertex -96.325 -44.8349 71.25
    endloop
  endfacet
  facet normal -0.669131 0.743145 0
    outer loop
      vertex -97.0975 -45.5305 71.25
      vertex -96.325 -44.8349 67.05
      vertex -97.0975 -45.5305 67.05
    endloop
  endfacet
  facet normal 0.978147 -0.207916 0
    outer loop
      vertex -92.7911 26.9832 71.25
      vertex -92.575 28 67.05
      vertex -92.575 28 71.25
    endloop
  endfacet
  facet normal 0.978147 -0.207916 0
    outer loop
      vertex -92.575 28 67.05
      vertex -92.7911 26.9832 71.25
      vertex -92.7911 26.9832 67.05
    endloop
  endfacet
  facet normal -1 0 0
    outer loop
      vertex -97.5204 27.4802 67.05
      vertex -97.5204 28.5198 71.25
      vertex -97.5204 28.5198 67.05
    endloop
  endfacet
  facet normal -1 -0 0
    outer loop
      vertex -97.5204 28.5198 71.25
      vertex -97.5204 27.4802 67.05
      vertex -97.5204 27.4802 71.25
    endloop
  endfacet
  facet normal 0.104529 -0.994522 0
    outer loop
      vertex -95.3363 25.5137 67.05
      vertex -94.3025 25.6224 71.25
      vertex -95.3363 25.5137 71.25
    endloop
  endfacet
  facet normal 0.104529 -0.994522 0
    outer loop
      vertex -94.3025 25.6224 71.25
      vertex -95.3363 25.5137 67.05
      vertex -94.3025 25.6224 67.05
    endloop
  endfacet
  facet normal 0.104531 0.994522 -0
    outer loop
      vertex -94.3025 30.3776 67.05
      vertex -95.3363 30.4863 71.25
      vertex -94.3025 30.3776 71.25
    endloop
  endfacet
  facet normal 0.104531 0.994522 0
    outer loop
      vertex -95.3363 30.4863 71.25
      vertex -94.3025 30.3776 67.05
      vertex -95.3363 30.4863 67.05
    endloop
  endfacet
  facet normal 0.5 0.866025 -0
    outer loop
      vertex -93.4022 29.8579 67.05
      vertex -94.3025 30.3776 71.25
      vertex -93.4022 29.8579 71.25
    endloop
  endfacet
  facet normal 0.5 0.866025 0
    outer loop
      vertex -94.3025 30.3776 71.25
      vertex -93.4022 29.8579 67.05
      vertex -94.3025 30.3776 67.05
    endloop
  endfacet
  facet normal 0.5 -0.866025 0
    outer loop
      vertex -94.3025 25.6224 67.05
      vertex -93.4022 26.1421 71.25
      vertex -94.3025 25.6224 71.25
    endloop
  endfacet
  facet normal 0.5 -0.866025 0
    outer loop
      vertex -93.4022 26.1421 71.25
      vertex -94.3025 25.6224 67.05
      vertex -93.4022 26.1421 67.05
    endloop
  endfacet
  facet normal 0.809017 -0.587786 0
    outer loop
      vertex -93.4022 26.1421 71.25
      vertex -92.7911 26.9832 67.05
      vertex -92.7911 26.9832 71.25
    endloop
  endfacet
  facet normal 0.809017 -0.587786 0
    outer loop
      vertex -92.7911 26.9832 67.05
      vertex -93.4022 26.1421 71.25
      vertex -93.4022 26.1421 67.05
    endloop
  endfacet
  facet normal -0.66913 -0.743146 0
    outer loop
      vertex -97.0975 26.5305 67.05
      vertex -96.325 25.8349 71.25
      vertex -97.0975 26.5305 71.25
    endloop
  endfacet
  facet normal -0.66913 -0.743146 -0
    outer loop
      vertex -96.325 25.8349 71.25
      vertex -97.0975 26.5305 67.05
      vertex -96.325 25.8349 67.05
    endloop
  endfacet
  facet normal -0.913545 -0.406738 0
    outer loop
      vertex -97.0975 26.5305 67.05
      vertex -97.5204 27.4802 71.25
      vertex -97.5204 27.4802 67.05
    endloop
  endfacet
  facet normal -0.913545 -0.406738 0
    outer loop
      vertex -97.5204 27.4802 71.25
      vertex -97.0975 26.5305 67.05
      vertex -97.0975 26.5305 71.25
    endloop
  endfacet
  facet normal -0.309017 -0.951056 0
    outer loop
      vertex -96.325 25.8349 67.05
      vertex -95.3363 25.5137 71.25
      vertex -96.325 25.8349 71.25
    endloop
  endfacet
  facet normal -0.309017 -0.951056 -0
    outer loop
      vertex -95.3363 25.5137 71.25
      vertex -96.325 25.8349 67.05
      vertex -95.3363 25.5137 67.05
    endloop
  endfacet
  facet normal 0.978147 0.207916 0
    outer loop
      vertex -92.575 28 71.25
      vertex -92.7911 29.0168 67.05
      vertex -92.7911 29.0168 71.25
    endloop
  endfacet
  facet normal 0.978147 0.207916 0
    outer loop
      vertex -92.7911 29.0168 67.05
      vertex -92.575 28 71.25
      vertex -92.575 28 67.05
    endloop
  endfacet
  facet normal 0 0 1
    outer loop
      vertex -92.7911 29.0168 71.25
      vertex -92.7911 26.9832 71.25
      vertex -92.575 28 71.25
    endloop
  endfacet
  facet normal 0 0 1
    outer loop
      vertex -93.4022 29.8579 71.25
      vertex -92.7911 26.9832 71.25
      vertex -92.7911 29.0168 71.25
    endloop
  endfacet
  facet normal 0 0 1
    outer loop
      vertex -93.4022 29.8579 71.25
      vertex -93.4022 26.1421 71.25
      vertex -92.7911 26.9832 71.25
    endloop
  endfacet
  facet normal 0 0 1
    outer loop
      vertex -94.3025 30.3776 71.25
      vertex -93.4022 26.1421 71.25
      vertex -93.4022 29.8579 71.25
    endloop
  endfacet
  facet normal 0 0 1
    outer loop
      vertex -94.3025 30.3776 71.25
      vertex -94.3025 25.6224 71.25
      vertex -93.4022 26.1421 71.25
    endloop
  endfacet
  facet normal 0 0 1
    outer loop
      vertex -95.3363 30.4863 71.25
      vertex -94.3025 25.6224 71.25
      vertex -94.3025 30.3776 71.25
    endloop
  endfacet
  facet normal 0 0 1
    outer loop
      vertex -95.3363 30.4863 71.25
      vertex -95.3363 25.5137 71.25
      vertex -94.3025 25.6224 71.25
    endloop
  endfacet
  facet normal -0 0 1
    outer loop
      vertex -96.325 30.1651 71.25
      vertex -95.3363 25.5137 71.25
      vertex -95.3363 30.4863 71.25
    endloop
  endfacet
  facet normal 0 0 1
    outer loop
      vertex -96.325 30.1651 71.25
      vertex -96.325 25.8349 71.25
      vertex -95.3363 25.5137 71.25
    endloop
  endfacet
  facet normal -0 0 1
    outer loop
      vertex -97.0975 29.4695 71.25
      vertex -96.325 25.8349 71.25
      vertex -96.325 30.1651 71.25
    endloop
  endfacet
  facet normal 0 0 1
    outer loop
      vertex -97.0975 29.4695 71.25
      vertex -97.0975 26.5305 71.25
      vertex -96.325 25.8349 71.25
    endloop
  endfacet
  facet normal -0 0 1
    outer loop
      vertex -97.5204 28.5198 71.25
      vertex -97.0975 26.5305 71.25
      vertex -97.0975 29.4695 71.25
    endloop
  endfacet
  facet normal 0 0 1
    outer loop
      vertex -97.0975 26.5305 71.25
      vertex -97.5204 28.5198 71.25
      vertex -97.5204 27.4802 71.25
    endloop
  endfacet
  facet normal 0.809016 0.587787 0
    outer loop
      vertex -92.7911 29.0168 71.25
      vertex -93.4022 29.8579 67.05
      vertex -93.4022 29.8579 71.25
    endloop
  endfacet
  facet normal 0.809016 0.587787 0
    outer loop
      vertex -93.4022 29.8579 67.05
      vertex -92.7911 29.0168 71.25
      vertex -92.7911 29.0168 67.05
    endloop
  endfacet
  facet normal -0.309019 0.951056 0
    outer loop
      vertex -95.3363 30.4863 67.05
      vertex -96.325 30.1651 71.25
      vertex -95.3363 30.4863 71.25
    endloop
  endfacet
  facet normal -0.309019 0.951056 0
    outer loop
      vertex -96.325 30.1651 71.25
      vertex -95.3363 30.4863 67.05
      vertex -96.325 30.1651 67.05
    endloop
  endfacet
  facet normal -0.913545 0.406738 0
    outer loop
      vertex -97.5204 28.5198 67.05
      vertex -97.0975 29.4695 71.25
      vertex -97.0975 29.4695 67.05
    endloop
  endfacet
  facet normal -0.913545 0.406738 0
    outer loop
      vertex -97.0975 29.4695 71.25
      vertex -97.5204 28.5198 67.05
      vertex -97.5204 28.5198 71.25
    endloop
  endfacet
  facet normal -0.669129 0.743147 0
    outer loop
      vertex -96.325 30.1651 67.05
      vertex -97.0975 29.4695 71.25
      vertex -96.325 30.1651 71.25
    endloop
  endfacet
  facet normal -0.669129 0.743147 0
    outer loop
      vertex -97.0975 29.4695 71.25
      vertex -96.325 30.1651 67.05
      vertex -97.0975 29.4695 67.05
    endloop
  endfacet
endsolid OpenSCAD_Model
