solid OpenSCAD_Model
  facet normal 0 -1 0
    outer loop
      vertex 13.925 14.475 6.25
      vertex 24.675 14.475 6.44757
      vertex 13.925 14.475 6.44757
    endloop
  endfacet
  facet normal 0 -1 -0
    outer loop
      vertex 24.675 14.475 6.44757
      vertex 13.925 14.475 6.25
      vertex 24.675 14.475 6.25
    endloop
  endfacet
  facet normal 0 -1 0
    outer loop
      vertex 13.925 14.475 30.0524
      vertex 24.675 14.475 30.25
      vertex 13.925 14.475 30.25
    endloop
  endfacet
  facet normal 0 -1 -0
    outer loop
      vertex 24.675 14.475 30.25
      vertex 13.925 14.475 30.0524
      vertex 24.675 14.475 30.0524
    endloop
  endfacet
  facet normal 1 0 0
    outer loop
      vertex 24.675 8.475 28.6423
      vertex 24.675 14.475 30.0524
      vertex 24.675 13.2207 30.1843
    endloop
  endfacet
  facet normal 1 0 0
    outer loop
      vertex 24.675 4.7668 25.3034
      vertex 24.675 14.475 30.0524
      vertex 24.675 8.475 28.6423
    endloop
  endfacet
  facet normal 1 0 0
    outer loop
      vertex 24.675 14.475 30.0524
      vertex 24.675 4.7668 25.3034
      vertex 24.675 14.475 6.44757
    endloop
  endfacet
  facet normal 1 0 0
    outer loop
      vertex 24.675 14.475 6.44757
      vertex 24.675 8.475 7.8577
      vertex 24.675 13.2207 6.31574
    endloop
  endfacet
  facet normal 1 -0 0
    outer loop
      vertex 24.675 2.73723 20.7449
      vertex 24.675 14.475 6.44757
      vertex 24.675 4.7668 25.3034
    endloop
  endfacet
  facet normal 1 0 0
    outer loop
      vertex 24.675 14.475 6.44757
      vertex 24.675 4.7668 11.1966
      vertex 24.675 8.475 7.8577
    endloop
  endfacet
  facet normal 1 0 0
    outer loop
      vertex 24.675 14.475 6.44757
      vertex 24.675 2.73723 20.7449
      vertex 24.675 4.7668 11.1966
    endloop
  endfacet
  facet normal 1 0 0
    outer loop
      vertex 24.675 4.7668 11.1966
      vertex 24.675 2.73723 20.7449
      vertex 24.675 2.73723 15.7551
    endloop
  endfacet
  facet normal 1 0 0
    outer loop
      vertex 24.675 14.475 30.0524
      vertex 24.675 37.275 30.0524
      vertex 24.675 37.275 30.25
    endloop
  endfacet
  facet normal 1 0 0
    outer loop
      vertex 24.675 14.475 30.0524
      vertex 24.675 37.275 30.25
      vertex 24.675 14.475 30.25
    endloop
  endfacet
  facet normal 1 0 0
    outer loop
      vertex 24.675 37.275 30.0524
      vertex 24.675 14.475 30.0524
      vertex 24.675 37.275 6.44757
    endloop
  endfacet
  facet normal 1 0 0
    outer loop
      vertex 24.675 14.475 6.44757
      vertex 24.675 37.275 6.44757
      vertex 24.675 14.475 30.0524
    endloop
  endfacet
  facet normal 1 0 0
    outer loop
      vertex 24.675 37.275 6.44757
      vertex 24.675 14.475 6.44757
      vertex 24.675 37.275 6.25
    endloop
  endfacet
  facet normal 1 0 0
    outer loop
      vertex 24.675 37.275 6.25
      vertex 24.675 14.475 6.44757
      vertex 24.675 14.475 6.25
    endloop
  endfacet
  facet normal 1 0 0
    outer loop
      vertex 24.675 48.2375 23.1308
      vertex 24.675 48.2375 13.3692
      vertex 24.675 49.275 18.25
    endloop
  endfacet
  facet normal 1 0 0
    outer loop
      vertex 24.675 37.275 30.0524
      vertex 24.675 48.2375 23.1308
      vertex 24.675 45.3046 27.1677
    endloop
  endfacet
  facet normal 1 0 0
    outer loop
      vertex 24.675 48.2375 23.1308
      vertex 24.675 37.275 30.0524
      vertex 24.675 48.2375 13.3692
    endloop
  endfacet
  facet normal 1 0 0
    outer loop
      vertex 24.675 37.275 30.0524
      vertex 24.675 45.3046 27.1677
      vertex 24.675 40.9832 29.6627
    endloop
  endfacet
  facet normal 1 0 0
    outer loop
      vertex 24.675 37.275 6.44757
      vertex 24.675 48.2375 13.3692
      vertex 24.675 37.275 30.0524
    endloop
  endfacet
  facet normal 1 0 0
    outer loop
      vertex 24.675 48.2375 13.3692
      vertex 24.675 37.275 6.44757
      vertex 24.675 45.3046 9.33226
    endloop
  endfacet
  facet normal 1 0 0
    outer loop
      vertex 24.675 45.3046 9.33226
      vertex 24.675 37.275 6.44757
      vertex 24.675 40.9832 6.83732
    endloop
  endfacet
  facet normal 0 1 -0
    outer loop
      vertex 24.675 37.275 6.25
      vertex 13.925 37.275 6.44757
      vertex 24.675 37.275 6.44757
    endloop
  endfacet
  facet normal 0 1 0
    outer loop
      vertex 13.925 37.275 6.44757
      vertex 24.675 37.275 6.25
      vertex 13.925 37.275 6.25
    endloop
  endfacet
  facet normal 0 1 -0
    outer loop
      vertex 24.675 37.275 30.0524
      vertex 13.925 37.275 30.25
      vertex 24.675 37.275 30.25
    endloop
  endfacet
  facet normal 0 1 0
    outer loop
      vertex 13.925 37.275 30.25
      vertex 24.675 37.275 30.0524
      vertex 13.925 37.275 30.0524
    endloop
  endfacet
  facet normal 0 0 1
    outer loop
      vertex 13.925 35.25 30.25
      vertex 24.675 37.275 30.25
      vertex 13.925 37.275 30.25
    endloop
  endfacet
  facet normal 0 0 1
    outer loop
      vertex 24.675 37.275 30.25
      vertex 13.925 35.25 30.25
      vertex 24.675 14.475 30.25
    endloop
  endfacet
  facet normal -0 0 1
    outer loop
      vertex 13.925 16.5 30.25
      vertex 24.675 14.475 30.25
      vertex 13.925 35.25 30.25
    endloop
  endfacet
  facet normal 0 0 1
    outer loop
      vertex 24.675 14.475 30.25
      vertex 13.925 16.5 30.25
      vertex 13.925 14.475 30.25
    endloop
  endfacet
  facet normal -1 0 0
    outer loop
      vertex 13.925 16.5 6.25
      vertex 13.925 15.2457 6.31574
      vertex 13.925 16.5 6.44757
    endloop
  endfacet
  facet normal -1 0 0
    outer loop
      vertex 13.925 14.475 6.25
      vertex 13.925 15.2457 6.31574
      vertex 13.925 16.5 6.25
    endloop
  endfacet
  facet normal -1 0 0
    outer loop
      vertex 13.925 14.475 6.44757
      vertex 13.925 15.2457 6.31574
      vertex 13.925 14.475 6.25
    endloop
  endfacet
  facet normal -1 0 0
    outer loop
      vertex 13.925 14.475 6.44757
      vertex 13.925 10.5 7.8577
      vertex 13.925 15.2457 6.31574
    endloop
  endfacet
  facet normal -1 0 0
    outer loop
      vertex 13.925 13.2207 6.31574
      vertex 13.925 10.5 7.8577
      vertex 13.925 14.475 6.44757
    endloop
  endfacet
  facet normal -1 0 0
    outer loop
      vertex 13.925 8.475 7.8577
      vertex 13.925 10.5 7.8577
      vertex 13.925 13.2207 6.31574
    endloop
  endfacet
  facet normal -1 0 0
    outer loop
      vertex 13.925 8.475 7.8577
      vertex 13.925 6.7918 11.1966
      vertex 13.925 10.5 7.8577
    endloop
  endfacet
  facet normal -1 0 0
    outer loop
      vertex 13.925 4.7668 11.1966
      vertex 13.925 6.7918 11.1966
      vertex 13.925 8.475 7.8577
    endloop
  endfacet
  facet normal -1 0 0
    outer loop
      vertex 13.925 4.7668 11.1966
      vertex 13.925 4.76223 15.7551
      vertex 13.925 6.7918 11.1966
    endloop
  endfacet
  facet normal -1 0 0
    outer loop
      vertex 13.925 4.76223 15.7551
      vertex 13.925 2.73723 15.7551
      vertex 13.925 4.76223 20.7449
    endloop
  endfacet
  facet normal -1 0 0
    outer loop
      vertex 13.925 2.73723 15.7551
      vertex 13.925 4.76223 15.7551
      vertex 13.925 4.7668 11.1966
    endloop
  endfacet
  facet normal -1 0 0
    outer loop
      vertex 13.925 37.275 6.25
      vertex 13.925 35.25 6.25
      vertex 13.925 37.275 6.44757
    endloop
  endfacet
  facet normal -1 0 0
    outer loop
      vertex 13.925 47.25 18.25
      vertex 13.925 49.275 18.25
      vertex 13.925 48.2375 13.3692
    endloop
  endfacet
  facet normal -1 0 0
    outer loop
      vertex 13.925 49.275 18.25
      vertex 13.925 47.25 18.25
      vertex 13.925 48.2375 23.1308
    endloop
  endfacet
  facet normal -1 0 0
    outer loop
      vertex 13.925 48.2375 13.3692
      vertex 13.925 46.2125 13.3692
      vertex 13.925 47.25 18.25
    endloop
  endfacet
  facet normal -1 0 0
    outer loop
      vertex 13.925 45.3046 9.33226
      vertex 13.925 46.2125 13.3692
      vertex 13.925 48.2375 13.3692
    endloop
  endfacet
  facet normal -1 0 0
    outer loop
      vertex 13.925 45.3046 9.33226
      vertex 13.925 43.2796 9.33226
      vertex 13.925 46.2125 13.3692
    endloop
  endfacet
  facet normal -1 0 0
    outer loop
      vertex 13.925 40.9832 6.83732
      vertex 13.925 43.2796 9.33226
      vertex 13.925 45.3046 9.33226
    endloop
  endfacet
  facet normal -1 0 0
    outer loop
      vertex 13.925 40.9832 6.83732
      vertex 13.925 38.9582 6.83732
      vertex 13.925 43.2796 9.33226
    endloop
  endfacet
  facet normal -1 0 0
    outer loop
      vertex 13.925 37.275 6.44757
      vertex 13.925 38.9582 6.83732
      vertex 13.925 40.9832 6.83732
    endloop
  endfacet
  facet normal -1 0 0
    outer loop
      vertex 13.925 35.25 6.44757
      vertex 13.925 37.275 6.44757
      vertex 13.925 35.25 6.25
    endloop
  endfacet
  facet normal -1 0 0
    outer loop
      vertex 13.925 37.275 6.44757
      vertex 13.925 35.25 6.44757
      vertex 13.925 38.9582 6.83732
    endloop
  endfacet
  facet normal -1 0 0
    outer loop
      vertex 13.925 46.2125 23.1308
      vertex 13.925 48.2375 23.1308
      vertex 13.925 47.25 18.25
    endloop
  endfacet
  facet normal -1 0 0
    outer loop
      vertex 13.925 46.2125 23.1308
      vertex 13.925 45.3046 27.1677
      vertex 13.925 48.2375 23.1308
    endloop
  endfacet
  facet normal -1 0 0
    outer loop
      vertex 13.925 43.2796 27.1677
      vertex 13.925 45.3046 27.1677
      vertex 13.925 46.2125 23.1308
    endloop
  endfacet
  facet normal -1 0 0
    outer loop
      vertex 13.925 43.2796 27.1677
      vertex 13.925 40.9832 29.6627
      vertex 13.925 45.3046 27.1677
    endloop
  endfacet
  facet normal -1 0 0
    outer loop
      vertex 13.925 38.9582 29.6627
      vertex 13.925 40.9832 29.6627
      vertex 13.925 43.2796 27.1677
    endloop
  endfacet
  facet normal -1 0 0
    outer loop
      vertex 13.925 38.9582 29.6627
      vertex 13.925 37.275 30.0524
      vertex 13.925 40.9832 29.6627
    endloop
  endfacet
  facet normal -1 0 0
    outer loop
      vertex 13.925 35.25 30.0524
      vertex 13.925 37.275 30.0524
      vertex 13.925 38.9582 29.6627
    endloop
  endfacet
  facet normal -1 0 0
    outer loop
      vertex 13.925 35.25 30.0524
      vertex 13.925 37.275 30.25
      vertex 13.925 37.275 30.0524
    endloop
  endfacet
  facet normal -1 -0 0
    outer loop
      vertex 13.925 37.275 30.25
      vertex 13.925 35.25 30.0524
      vertex 13.925 35.25 30.25
    endloop
  endfacet
  facet normal -1 0 0
    outer loop
      vertex 13.925 10.5 28.6423
      vertex 13.925 14.475 30.0524
      vertex 13.925 15.2457 30.1843
    endloop
  endfacet
  facet normal -1 0 0
    outer loop
      vertex 13.925 10.5 28.6423
      vertex 13.925 13.2207 30.1843
      vertex 13.925 14.475 30.0524
    endloop
  endfacet
  facet normal -1 -0 0
    outer loop
      vertex 13.925 10.5 28.6423
      vertex 13.925 8.475 28.6423
      vertex 13.925 13.2207 30.1843
    endloop
  endfacet
  facet normal -1 0 0
    outer loop
      vertex 13.925 6.7918 25.3034
      vertex 13.925 8.475 28.6423
      vertex 13.925 10.5 28.6423
    endloop
  endfacet
  facet normal -1 0 0
    outer loop
      vertex 13.925 6.7918 25.3034
      vertex 13.925 4.7668 25.3034
      vertex 13.925 8.475 28.6423
    endloop
  endfacet
  facet normal -1 0 0
    outer loop
      vertex 13.925 4.76223 20.7449
      vertex 13.925 4.7668 25.3034
      vertex 13.925 6.7918 25.3034
    endloop
  endfacet
  facet normal -1 0 0
    outer loop
      vertex 13.925 2.73723 20.7449
      vertex 13.925 4.76223 20.7449
      vertex 13.925 2.73723 15.7551
    endloop
  endfacet
  facet normal -1 0 0
    outer loop
      vertex 13.925 4.76223 20.7449
      vertex 13.925 2.73723 20.7449
      vertex 13.925 4.7668 25.3034
    endloop
  endfacet
  facet normal -1 0 0
    outer loop
      vertex 13.925 15.2457 30.1843
      vertex 13.925 16.5 30.25
      vertex 13.925 16.5 30.0524
    endloop
  endfacet
  facet normal -1 0 0
    outer loop
      vertex 13.925 15.2457 30.1843
      vertex 13.925 14.475 30.25
      vertex 13.925 16.5 30.25
    endloop
  endfacet
  facet normal -1 0 0
    outer loop
      vertex 13.925 14.475 30.25
      vertex 13.925 15.2457 30.1843
      vertex 13.925 14.475 30.0524
    endloop
  endfacet
  facet normal 0 0 0
    outer loop
      vertex 13.925 16.5 6.25
      vertex 13.925 35.25 6.25
      vertex 13.925 37.275 6.25
    endloop
  endfacet
  facet normal 0 0 0
    outer loop
      vertex 13.925 16.5 6.25
      vertex 13.925 37.275 6.25
      vertex 13.925 14.475 6.25
    endloop
  endfacet
  facet normal 0 0 -1
    outer loop
      vertex 13.925 14.475 6.25
      vertex 24.675 37.275 6.25
      vertex 24.675 14.475 6.25
    endloop
  endfacet
  facet normal -0 0 -1
    outer loop
      vertex 24.675 37.275 6.25
      vertex 13.925 14.475 6.25
      vertex 13.925 37.275 6.25
    endloop
  endfacet
  facet normal 0 -1 0
    outer loop
      vertex 13.925 2.73723 15.7551
      vertex 24.675 2.73723 20.7449
      vertex 13.925 2.73723 20.7449
    endloop
  endfacet
  facet normal 0 -1 -0
    outer loop
      vertex 24.675 2.73723 20.7449
      vertex 13.925 2.73723 15.7551
      vertex 24.675 2.73723 15.7551
    endloop
  endfacet
  facet normal -1.68744e-07 -0.309017 0.951057
    outer loop
      vertex 13.925 13.2207 30.1843
      vertex 24.675 8.475 28.6423
      vertex 24.675 13.2207 30.1843
    endloop
  endfacet
  facet normal -1.68744e-07 -0.309017 0.951057
    outer loop
      vertex 24.675 8.475 28.6423
      vertex 13.925 13.2207 30.1843
      vertex 13.925 8.475 28.6423
    endloop
  endfacet
  facet normal -1.31855e-07 -0.669131 0.743145
    outer loop
      vertex 13.925 8.475 28.6423
      vertex 24.675 4.7668 25.3034
      vertex 24.675 8.475 28.6423
    endloop
  endfacet
  facet normal 0 -0.66913 0.743145
    outer loop
      vertex 24.675 4.7668 25.3034
      vertex 13.925 8.475 28.6423
      vertex 13.925 4.7668 25.3034
    endloop
  endfacet
  facet normal 0 0.104528 -0.994522
    outer loop
      vertex 13.925 13.2207 6.31574
      vertex 24.675 14.475 6.44757
      vertex 24.675 13.2207 6.31574
    endloop
  endfacet
  facet normal 0 0.104528 -0.994522
    outer loop
      vertex 24.675 14.475 6.44757
      vertex 13.925 13.2207 6.31574
      vertex 13.925 14.475 6.44757
    endloop
  endfacet
  facet normal -0 0.104529 0.994522
    outer loop
      vertex 13.925 14.475 30.0524
      vertex 24.675 13.2207 30.1843
      vertex 24.675 14.475 30.0524
    endloop
  endfacet
  facet normal -1.76456e-07 0.104528 0.994522
    outer loop
      vertex 24.675 13.2207 30.1843
      vertex 13.925 14.475 30.0524
      vertex 13.925 13.2207 30.1843
    endloop
  endfacet
  facet normal 0 -0.913546 0.406737
    outer loop
      vertex 13.925 2.73723 20.7449
      vertex 24.675 4.7668 25.3034
      vertex 13.925 4.7668 25.3034
    endloop
  endfacet
  facet normal 0 -0.913546 0.406737
    outer loop
      vertex 24.675 4.7668 25.3034
      vertex 13.925 2.73723 20.7449
      vertex 24.675 2.73723 20.7449
    endloop
  endfacet
  facet normal 0 -0.913546 -0.406737
    outer loop
      vertex 13.925 4.7668 11.1966
      vertex 24.675 2.73723 15.7551
      vertex 13.925 2.73723 15.7551
    endloop
  endfacet
  facet normal 0 -0.913546 -0.406737
    outer loop
      vertex 24.675 2.73723 15.7551
      vertex 13.925 4.7668 11.1966
      vertex 24.675 4.7668 11.1966
    endloop
  endfacet
  facet normal 0 -0.309017 -0.951057
    outer loop
      vertex 13.925 8.475 7.8577
      vertex 24.675 13.2207 6.31574
      vertex 24.675 8.475 7.8577
    endloop
  endfacet
  facet normal -0 -0.309017 -0.951057
    outer loop
      vertex 24.675 13.2207 6.31574
      vertex 13.925 8.475 7.8577
      vertex 13.925 13.2207 6.31574
    endloop
  endfacet
  facet normal 0 -0.669131 -0.743145
    outer loop
      vertex 13.925 4.7668 11.1966
      vertex 24.675 8.475 7.8577
      vertex 24.675 4.7668 11.1966
    endloop
  endfacet
  facet normal -0 -0.669131 -0.743145
    outer loop
      vertex 24.675 8.475 7.8577
      vertex 13.925 4.7668 11.1966
      vertex 13.925 8.475 7.8577
    endloop
  endfacet
  facet normal 0 0.978148 0.207912
    outer loop
      vertex 24.675 49.275 18.25
      vertex 13.925 48.2375 23.1308
      vertex 24.675 48.2375 23.1308
    endloop
  endfacet
  facet normal 0 0.978148 0.207912
    outer loop
      vertex 13.925 48.2375 23.1308
      vertex 24.675 49.275 18.25
      vertex 13.925 49.275 18.25
    endloop
  endfacet
  facet normal -0 0.104528 0.994522
    outer loop
      vertex 13.925 40.9832 29.6627
      vertex 24.675 37.275 30.0524
      vertex 24.675 40.9832 29.6627
    endloop
  endfacet
  facet normal 0 0.104528 0.994522
    outer loop
      vertex 24.675 37.275 30.0524
      vertex 13.925 40.9832 29.6627
      vertex 13.925 37.275 30.0524
    endloop
  endfacet
  facet normal 0 0.5 -0.866025
    outer loop
      vertex 13.925 40.9832 6.83732
      vertex 24.675 45.3046 9.33226
      vertex 24.675 40.9832 6.83732
    endloop
  endfacet
  facet normal 0 0.5 -0.866025
    outer loop
      vertex 24.675 45.3046 9.33226
      vertex 13.925 40.9832 6.83732
      vertex 13.925 45.3046 9.33226
    endloop
  endfacet
  facet normal -0 0.5 0.866025
    outer loop
      vertex 13.925 45.3046 27.1677
      vertex 24.675 40.9832 29.6627
      vertex 24.675 45.3046 27.1677
    endloop
  endfacet
  facet normal 0 0.5 0.866025
    outer loop
      vertex 24.675 40.9832 29.6627
      vertex 13.925 45.3046 27.1677
      vertex 13.925 40.9832 29.6627
    endloop
  endfacet
  facet normal 0 0.809017 0.587785
    outer loop
      vertex 24.675 48.2375 23.1308
      vertex 13.925 45.3046 27.1677
      vertex 24.675 45.3046 27.1677
    endloop
  endfacet
  facet normal 0 0.809017 0.587785
    outer loop
      vertex 13.925 45.3046 27.1677
      vertex 24.675 48.2375 23.1308
      vertex 13.925 48.2375 23.1308
    endloop
  endfacet
  facet normal 0 0.809017 -0.587785
    outer loop
      vertex 24.675 45.3046 9.33226
      vertex 13.925 48.2375 13.3692
      vertex 24.675 48.2375 13.3692
    endloop
  endfacet
  facet normal 0 0.809017 -0.587785
    outer loop
      vertex 13.925 48.2375 13.3692
      vertex 24.675 45.3046 9.33226
      vertex 13.925 45.3046 9.33226
    endloop
  endfacet
  facet normal 0 0.978148 -0.207912
    outer loop
      vertex 24.675 48.2375 13.3692
      vertex 13.925 49.275 18.25
      vertex 24.675 49.275 18.25
    endloop
  endfacet
  facet normal 0 0.978148 -0.207912
    outer loop
      vertex 13.925 49.275 18.25
      vertex 24.675 48.2375 13.3692
      vertex 13.925 48.2375 13.3692
    endloop
  endfacet
  facet normal 0 0.104528 -0.994522
    outer loop
      vertex 13.925 37.275 6.44757
      vertex 24.675 40.9832 6.83732
      vertex 24.675 37.275 6.44757
    endloop
  endfacet
  facet normal 0 0.104528 -0.994522
    outer loop
      vertex 24.675 40.9832 6.83732
      vertex 13.925 37.275 6.44757
      vertex 13.925 40.9832 6.83732
    endloop
  endfacet
  facet normal 0 -1 0
    outer loop
      vertex -110.325 14.475 6.25
      vertex -99.575 14.475 6.44757
      vertex -110.325 14.475 6.44757
    endloop
  endfacet
  facet normal 0 -1 -0
    outer loop
      vertex -99.575 14.475 6.44757
      vertex -110.325 14.475 6.25
      vertex -99.575 14.475 6.25
    endloop
  endfacet
  facet normal 0 -1 0
    outer loop
      vertex -110.325 14.475 30.0524
      vertex -99.575 14.475 30.25
      vertex -110.325 14.475 30.25
    endloop
  endfacet
  facet normal 0 -1 -0
    outer loop
      vertex -99.575 14.475 30.25
      vertex -110.325 14.475 30.0524
      vertex -99.575 14.475 30.0524
    endloop
  endfacet
  facet normal 1 0 0
    outer loop
      vertex -99.575 16.5 30.25
      vertex -99.575 15.2457 30.1843
      vertex -99.575 16.5 30.0524
    endloop
  endfacet
  facet normal 1 -0 0
    outer loop
      vertex -99.575 14.475 30.25
      vertex -99.575 15.2457 30.1843
      vertex -99.575 16.5 30.25
    endloop
  endfacet
  facet normal 1 0 0
    outer loop
      vertex -99.575 14.475 30.0524
      vertex -99.575 15.2457 30.1843
      vertex -99.575 14.475 30.25
    endloop
  endfacet
  facet normal 1 -0 0
    outer loop
      vertex -99.575 14.475 30.0524
      vertex -99.575 10.5 28.6423
      vertex -99.575 15.2457 30.1843
    endloop
  endfacet
  facet normal 1 0 0
    outer loop
      vertex -99.575 13.2207 30.1843
      vertex -99.575 10.5 28.6423
      vertex -99.575 14.475 30.0524
    endloop
  endfacet
  facet normal 1 -0 0
    outer loop
      vertex -99.575 8.475 28.6423
      vertex -99.575 10.5 28.6423
      vertex -99.575 13.2207 30.1843
    endloop
  endfacet
  facet normal 1 0 0
    outer loop
      vertex -99.575 8.475 28.6423
      vertex -99.575 6.7918 25.3034
      vertex -99.575 10.5 28.6423
    endloop
  endfacet
  facet normal 1 0 0
    outer loop
      vertex -99.575 4.7668 25.3034
      vertex -99.575 6.7918 25.3034
      vertex -99.575 8.475 28.6423
    endloop
  endfacet
  facet normal 1 -0 0
    outer loop
      vertex -99.575 4.7668 25.3034
      vertex -99.575 4.76223 20.7449
      vertex -99.575 6.7918 25.3034
    endloop
  endfacet
  facet normal 1 0 0
    outer loop
      vertex -99.575 4.76223 20.7449
      vertex -99.575 2.73723 20.7449
      vertex -99.575 4.76223 15.7551
    endloop
  endfacet
  facet normal 1 0 0
    outer loop
      vertex -99.575 2.73723 20.7449
      vertex -99.575 4.76223 20.7449
      vertex -99.575 4.7668 25.3034
    endloop
  endfacet
  facet normal 1 0 0
    outer loop
      vertex -99.575 37.275 30.25
      vertex -99.575 35.25 30.25
      vertex -99.575 37.275 30.0524
    endloop
  endfacet
  facet normal 1 0 0
    outer loop
      vertex -99.575 47.25 18.25
      vertex -99.575 49.275 18.25
      vertex -99.575 48.2375 23.1308
    endloop
  endfacet
  facet normal 1 0 0
    outer loop
      vertex -99.575 49.275 18.25
      vertex -99.575 47.25 18.25
      vertex -99.575 48.2375 13.3692
    endloop
  endfacet
  facet normal 1 0 0
    outer loop
      vertex -99.575 48.2375 23.1308
      vertex -99.575 46.2125 23.1308
      vertex -99.575 47.25 18.25
    endloop
  endfacet
  facet normal 1 0 0
    outer loop
      vertex -99.575 45.3046 27.1677
      vertex -99.575 46.2125 23.1308
      vertex -99.575 48.2375 23.1308
    endloop
  endfacet
  facet normal 1 0 0
    outer loop
      vertex -99.575 45.3046 27.1677
      vertex -99.575 43.2796 27.1677
      vertex -99.575 46.2125 23.1308
    endloop
  endfacet
  facet normal 1 0 0
    outer loop
      vertex -99.575 40.9832 29.6627
      vertex -99.575 43.2796 27.1677
      vertex -99.575 45.3046 27.1677
    endloop
  endfacet
  facet normal 1 0 0
    outer loop
      vertex -99.575 40.9832 29.6627
      vertex -99.575 38.9582 29.6627
      vertex -99.575 43.2796 27.1677
    endloop
  endfacet
  facet normal 1 0 0
    outer loop
      vertex -99.575 37.275 30.0524
      vertex -99.575 38.9582 29.6627
      vertex -99.575 40.9832 29.6627
    endloop
  endfacet
  facet normal 1 0 0
    outer loop
      vertex -99.575 35.25 30.0524
      vertex -99.575 37.275 30.0524
      vertex -99.575 35.25 30.25
    endloop
  endfacet
  facet normal 1 0 0
    outer loop
      vertex -99.575 37.275 30.0524
      vertex -99.575 35.25 30.0524
      vertex -99.575 38.9582 29.6627
    endloop
  endfacet
  facet normal 1 0 0
    outer loop
      vertex -99.575 46.2125 13.3692
      vertex -99.575 48.2375 13.3692
      vertex -99.575 47.25 18.25
    endloop
  endfacet
  facet normal 1 -0 0
    outer loop
      vertex -99.575 46.2125 13.3692
      vertex -99.575 45.3046 9.33226
      vertex -99.575 48.2375 13.3692
    endloop
  endfacet
  facet normal 1 0 0
    outer loop
      vertex -99.575 43.2796 9.33226
      vertex -99.575 45.3046 9.33226
      vertex -99.575 46.2125 13.3692
    endloop
  endfacet
  facet normal 1 -0 0
    outer loop
      vertex -99.575 43.2796 9.33226
      vertex -99.575 40.9832 6.83732
      vertex -99.575 45.3046 9.33226
    endloop
  endfacet
  facet normal 1 0 0
    outer loop
      vertex -99.575 38.9582 6.83732
      vertex -99.575 40.9832 6.83732
      vertex -99.575 43.2796 9.33226
    endloop
  endfacet
  facet normal 1 -0 0
    outer loop
      vertex -99.575 38.9582 6.83732
      vertex -99.575 37.275 6.44757
      vertex -99.575 40.9832 6.83732
    endloop
  endfacet
  facet normal 1 -0 0
    outer loop
      vertex -99.575 35.25 6.44757
      vertex -99.575 37.275 6.44757
      vertex -99.575 38.9582 6.83732
    endloop
  endfacet
  facet normal 1 0 0
    outer loop
      vertex -99.575 35.25 6.44757
      vertex -99.575 37.275 6.25
      vertex -99.575 37.275 6.44757
    endloop
  endfacet
  facet normal 1 0 0
    outer loop
      vertex -99.575 37.275 6.25
      vertex -99.575 35.25 6.44757
      vertex -99.575 35.25 6.25
    endloop
  endfacet
  facet normal 1 0 0
    outer loop
      vertex -99.575 10.5 7.8577
      vertex -99.575 14.475 6.44757
      vertex -99.575 15.2457 6.31574
    endloop
  endfacet
  facet normal 1 0 0
    outer loop
      vertex -99.575 10.5 7.8577
      vertex -99.575 13.2207 6.31574
      vertex -99.575 14.475 6.44757
    endloop
  endfacet
  facet normal 1 0 0
    outer loop
      vertex -99.575 10.5 7.8577
      vertex -99.575 8.475 7.8577
      vertex -99.575 13.2207 6.31574
    endloop
  endfacet
  facet normal 1 0 0
    outer loop
      vertex -99.575 6.7918 11.1966
      vertex -99.575 8.475 7.8577
      vertex -99.575 10.5 7.8577
    endloop
  endfacet
  facet normal 1 0 0
    outer loop
      vertex -99.575 6.7918 11.1966
      vertex -99.575 4.7668 11.1966
      vertex -99.575 8.475 7.8577
    endloop
  endfacet
  facet normal 1 0 0
    outer loop
      vertex -99.575 4.76223 15.7551
      vertex -99.575 4.7668 11.1966
      vertex -99.575 6.7918 11.1966
    endloop
  endfacet
  facet normal 1 0 0
    outer loop
      vertex -99.575 2.73723 15.7551
      vertex -99.575 4.76223 15.7551
      vertex -99.575 2.73723 20.7449
    endloop
  endfacet
  facet normal 1 0 0
    outer loop
      vertex -99.575 4.76223 15.7551
      vertex -99.575 2.73723 15.7551
      vertex -99.575 4.7668 11.1966
    endloop
  endfacet
  facet normal 1 -0 0
    outer loop
      vertex -99.575 15.2457 6.31574
      vertex -99.575 16.5 6.25
      vertex -99.575 16.5 6.44757
    endloop
  endfacet
  facet normal 1 0 0
    outer loop
      vertex -99.575 15.2457 6.31574
      vertex -99.575 14.475 6.25
      vertex -99.575 16.5 6.25
    endloop
  endfacet
  facet normal 1 0 0
    outer loop
      vertex -99.575 14.475 6.25
      vertex -99.575 15.2457 6.31574
      vertex -99.575 14.475 6.44757
    endloop
  endfacet
  facet normal 0 0 0
    outer loop
      vertex -99.575 35.25 30.25
      vertex -99.575 37.275 30.25
      vertex -99.575 14.475 30.25
    endloop
  endfacet
  facet normal 0 0 0
    outer loop
      vertex -99.575 14.475 30.25
      vertex -99.575 16.5 30.25
      vertex -99.575 35.25 30.25
    endloop
  endfacet
  facet normal 0 1 -0
    outer loop
      vertex -99.575 37.275 6.25
      vertex -110.325 37.275 6.44757
      vertex -99.575 37.275 6.44757
    endloop
  endfacet
  facet normal 0 1 0
    outer loop
      vertex -110.325 37.275 6.44757
      vertex -99.575 37.275 6.25
      vertex -110.325 37.275 6.25
    endloop
  endfacet
  facet normal 0 1 -0
    outer loop
      vertex -99.575 37.275 30.0524
      vertex -110.325 37.275 30.25
      vertex -99.575 37.275 30.25
    endloop
  endfacet
  facet normal 0 1 0
    outer loop
      vertex -110.325 37.275 30.25
      vertex -99.575 37.275 30.0524
      vertex -110.325 37.275 30.0524
    endloop
  endfacet
  facet normal -0 0 1
    outer loop
      vertex -110.325 37.275 30.25
      vertex -99.575 14.475 30.25
      vertex -99.575 37.275 30.25
    endloop
  endfacet
  facet normal 0 0 1
    outer loop
      vertex -99.575 14.475 30.25
      vertex -110.325 37.275 30.25
      vertex -110.325 14.475 30.25
    endloop
  endfacet
  facet normal -1 0 0
    outer loop
      vertex -110.325 37.275 6.25
      vertex -110.325 14.475 6.25
      vertex -110.325 37.275 6.44757
    endloop
  endfacet
  facet normal -1 0 0
    outer loop
      vertex -110.325 48.2375 13.3692
      vertex -110.325 48.2375 23.1308
      vertex -110.325 49.275 18.25
    endloop
  endfacet
  facet normal -1 0 0
    outer loop
      vertex -110.325 37.275 6.44757
      vertex -110.325 48.2375 13.3692
      vertex -110.325 45.3046 9.33226
    endloop
  endfacet
  facet normal -1 -0 0
    outer loop
      vertex -110.325 48.2375 13.3692
      vertex -110.325 37.275 6.44757
      vertex -110.325 48.2375 23.1308
    endloop
  endfacet
  facet normal -1 0 0
    outer loop
      vertex -110.325 37.275 6.44757
      vertex -110.325 45.3046 9.33226
      vertex -110.325 40.9832 6.83732
    endloop
  endfacet
  facet normal -1 0 -0
    outer loop
      vertex -110.325 37.275 30.0524
      vertex -110.325 48.2375 23.1308
      vertex -110.325 37.275 6.44757
    endloop
  endfacet
  facet normal -1 0 0
    outer loop
      vertex -110.325 45.3046 27.1677
      vertex -110.325 37.275 30.0524
      vertex -110.325 40.9832 29.6627
    endloop
  endfacet
  facet normal -1 0 0
    outer loop
      vertex -110.325 48.2375 23.1308
      vertex -110.325 37.275 30.0524
      vertex -110.325 45.3046 27.1677
    endloop
  endfacet
  facet normal -1 0 0
    outer loop
      vertex -110.325 14.475 6.44757
      vertex -110.325 37.275 30.0524
      vertex -110.325 37.275 6.44757
    endloop
  endfacet
  facet normal -1 0 0
    outer loop
      vertex -110.325 14.475 6.44757
      vertex -110.325 37.275 6.44757
      vertex -110.325 14.475 6.25
    endloop
  endfacet
  facet normal -1 0 0
    outer loop
      vertex -110.325 14.475 30.0524
      vertex -110.325 37.275 30.0524
      vertex -110.325 14.475 6.44757
    endloop
  endfacet
  facet normal -1 0 0
    outer loop
      vertex -110.325 37.275 30.0524
      vertex -110.325 14.475 30.0524
      vertex -110.325 37.275 30.25
    endloop
  endfacet
  facet normal -1 -0 0
    outer loop
      vertex -110.325 37.275 30.25
      vertex -110.325 14.475 30.0524
      vertex -110.325 14.475 30.25
    endloop
  endfacet
  facet normal -1 0 0
    outer loop
      vertex -110.325 8.475 7.8577
      vertex -110.325 14.475 6.44757
      vertex -110.325 13.2207 6.31574
    endloop
  endfacet
  facet normal -1 0 0
    outer loop
      vertex -110.325 4.7668 11.1966
      vertex -110.325 14.475 6.44757
      vertex -110.325 8.475 7.8577
    endloop
  endfacet
  facet normal -1 0 0
    outer loop
      vertex -110.325 14.475 6.44757
      vertex -110.325 4.7668 11.1966
      vertex -110.325 14.475 30.0524
    endloop
  endfacet
  facet normal -1 -0 0
    outer loop
      vertex -110.325 14.475 30.0524
      vertex -110.325 8.475 28.6423
      vertex -110.325 13.2207 30.1843
    endloop
  endfacet
  facet normal -1 0 0
    outer loop
      vertex -110.325 2.73723 15.7551
      vertex -110.325 14.475 30.0524
      vertex -110.325 4.7668 11.1966
    endloop
  endfacet
  facet normal -1 0 0
    outer loop
      vertex -110.325 14.475 30.0524
      vertex -110.325 4.7668 25.3034
      vertex -110.325 8.475 28.6423
    endloop
  endfacet
  facet normal -1 0 0
    outer loop
      vertex -110.325 14.475 30.0524
      vertex -110.325 2.73723 15.7551
      vertex -110.325 4.7668 25.3034
    endloop
  endfacet
  facet normal -1 0 0
    outer loop
      vertex -110.325 4.7668 25.3034
      vertex -110.325 2.73723 15.7551
      vertex -110.325 2.73723 20.7449
    endloop
  endfacet
  facet normal 0 0 -1
    outer loop
      vertex -110.325 14.475 6.25
      vertex -99.575 16.5 6.25
      vertex -99.575 14.475 6.25
    endloop
  endfacet
  facet normal -0 0 -1
    outer loop
      vertex -99.575 16.5 6.25
      vertex -110.325 14.475 6.25
      vertex -99.575 35.25 6.25
    endloop
  endfacet
  facet normal 0 0 -1
    outer loop
      vertex -110.325 37.275 6.25
      vertex -99.575 35.25 6.25
      vertex -110.325 14.475 6.25
    endloop
  endfacet
  facet normal 0 0 -1
    outer loop
      vertex -99.575 35.25 6.25
      vertex -110.325 37.275 6.25
      vertex -99.575 37.275 6.25
    endloop
  endfacet
  facet normal 0 -1 0
    outer loop
      vertex -110.325 2.73723 15.7551
      vertex -99.575 2.73723 20.7449
      vertex -110.325 2.73723 20.7449
    endloop
  endfacet
  facet normal 0 -1 -0
    outer loop
      vertex -99.575 2.73723 20.7449
      vertex -110.325 2.73723 15.7551
      vertex -99.575 2.73723 15.7551
    endloop
  endfacet
  facet normal -1.68744e-07 -0.309017 0.951057
    outer loop
      vertex -110.325 13.2207 30.1843
      vertex -99.575 8.475 28.6423
      vertex -99.575 13.2207 30.1843
    endloop
  endfacet
  facet normal -1.68744e-07 -0.309017 0.951057
    outer loop
      vertex -99.575 8.475 28.6423
      vertex -110.325 13.2207 30.1843
      vertex -110.325 8.475 28.6423
    endloop
  endfacet
  facet normal -1.31855e-07 -0.669131 0.743145
    outer loop
      vertex -110.325 8.475 28.6423
      vertex -99.575 4.7668 25.3034
      vertex -99.575 8.475 28.6423
    endloop
  endfacet
  facet normal 0 -0.66913 0.743145
    outer loop
      vertex -99.575 4.7668 25.3034
      vertex -110.325 8.475 28.6423
      vertex -110.325 4.7668 25.3034
    endloop
  endfacet
  facet normal 0 0.104528 -0.994522
    outer loop
      vertex -110.325 13.2207 6.31574
      vertex -99.575 14.475 6.44757
      vertex -99.575 13.2207 6.31574
    endloop
  endfacet
  facet normal 0 0.104528 -0.994522
    outer loop
      vertex -99.575 14.475 6.44757
      vertex -110.325 13.2207 6.31574
      vertex -110.325 14.475 6.44757
    endloop
  endfacet
  facet normal -0 0.104529 0.994522
    outer loop
      vertex -110.325 14.475 30.0524
      vertex -99.575 13.2207 30.1843
      vertex -99.575 14.475 30.0524
    endloop
  endfacet
  facet normal -1.76456e-07 0.104528 0.994522
    outer loop
      vertex -99.575 13.2207 30.1843
      vertex -110.325 14.475 30.0524
      vertex -110.325 13.2207 30.1843
    endloop
  endfacet
  facet normal 0 -0.913546 0.406737
    outer loop
      vertex -110.325 2.73723 20.7449
      vertex -99.575 4.7668 25.3034
      vertex -110.325 4.7668 25.3034
    endloop
  endfacet
  facet normal 0 -0.913546 0.406737
    outer loop
      vertex -99.575 4.7668 25.3034
      vertex -110.325 2.73723 20.7449
      vertex -99.575 2.73723 20.7449
    endloop
  endfacet
  facet normal 0 -0.913546 -0.406737
    outer loop
      vertex -110.325 4.7668 11.1966
      vertex -99.575 2.73723 15.7551
      vertex -110.325 2.73723 15.7551
    endloop
  endfacet
  facet normal 0 -0.913546 -0.406737
    outer loop
      vertex -99.575 2.73723 15.7551
      vertex -110.325 4.7668 11.1966
      vertex -99.575 4.7668 11.1966
    endloop
  endfacet
  facet normal 0 -0.309017 -0.951057
    outer loop
      vertex -110.325 8.475 7.8577
      vertex -99.575 13.2207 6.31574
      vertex -99.575 8.475 7.8577
    endloop
  endfacet
  facet normal -0 -0.309017 -0.951057
    outer loop
      vertex -99.575 13.2207 6.31574
      vertex -110.325 8.475 7.8577
      vertex -110.325 13.2207 6.31574
    endloop
  endfacet
  facet normal 0 -0.669131 -0.743145
    outer loop
      vertex -110.325 4.7668 11.1966
      vertex -99.575 8.475 7.8577
      vertex -99.575 4.7668 11.1966
    endloop
  endfacet
  facet normal -0 -0.669131 -0.743145
    outer loop
      vertex -99.575 8.475 7.8577
      vertex -110.325 4.7668 11.1966
      vertex -110.325 8.475 7.8577
    endloop
  endfacet
  facet normal 0 0.978148 0.207912
    outer loop
      vertex -99.575 49.275 18.25
      vertex -110.325 48.2375 23.1308
      vertex -99.575 48.2375 23.1308
    endloop
  endfacet
  facet normal 0 0.978148 0.207912
    outer loop
      vertex -110.325 48.2375 23.1308
      vertex -99.575 49.275 18.25
      vertex -110.325 49.275 18.25
    endloop
  endfacet
  facet normal -0 0.104528 0.994522
    outer loop
      vertex -110.325 40.9832 29.6627
      vertex -99.575 37.275 30.0524
      vertex -99.575 40.9832 29.6627
    endloop
  endfacet
  facet normal 0 0.104528 0.994522
    outer loop
      vertex -99.575 37.275 30.0524
      vertex -110.325 40.9832 29.6627
      vertex -110.325 37.275 30.0524
    endloop
  endfacet
  facet normal 0 0.5 -0.866025
    outer loop
      vertex -110.325 40.9832 6.83732
      vertex -99.575 45.3046 9.33226
      vertex -99.575 40.9832 6.83732
    endloop
  endfacet
  facet normal 0 0.5 -0.866025
    outer loop
      vertex -99.575 45.3046 9.33226
      vertex -110.325 40.9832 6.83732
      vertex -110.325 45.3046 9.33226
    endloop
  endfacet
  facet normal -0 0.5 0.866025
    outer loop
      vertex -110.325 45.3046 27.1677
      vertex -99.575 40.9832 29.6627
      vertex -99.575 45.3046 27.1677
    endloop
  endfacet
  facet normal 0 0.5 0.866025
    outer loop
      vertex -99.575 40.9832 29.6627
      vertex -110.325 45.3046 27.1677
      vertex -110.325 40.9832 29.6627
    endloop
  endfacet
  facet normal 0 0.809017 0.587785
    outer loop
      vertex -99.575 48.2375 23.1308
      vertex -110.325 45.3046 27.1677
      vertex -99.575 45.3046 27.1677
    endloop
  endfacet
  facet normal 0 0.809017 0.587785
    outer loop
      vertex -110.325 45.3046 27.1677
      vertex -99.575 48.2375 23.1308
      vertex -110.325 48.2375 23.1308
    endloop
  endfacet
  facet normal 0 0.809017 -0.587785
    outer loop
      vertex -99.575 45.3046 9.33226
      vertex -110.325 48.2375 13.3692
      vertex -99.575 48.2375 13.3692
    endloop
  endfacet
  facet normal 0 0.809017 -0.587785
    outer loop
      vertex -110.325 48.2375 13.3692
      vertex -99.575 45.3046 9.33226
      vertex -110.325 45.3046 9.33226
    endloop
  endfacet
  facet normal 0 0.978148 -0.207912
    outer loop
      vertex -99.575 48.2375 13.3692
      vertex -110.325 49.275 18.25
      vertex -99.575 49.275 18.25
    endloop
  endfacet
  facet normal 0 0.978148 -0.207912
    outer loop
      vertex -110.325 49.275 18.25
      vertex -99.575 48.2375 13.3692
      vertex -110.325 48.2375 13.3692
    endloop
  endfacet
  facet normal 0 0.104528 -0.994522
    outer loop
      vertex -110.325 37.275 6.44757
      vertex -99.575 40.9832 6.83732
      vertex -99.575 37.275 6.44757
    endloop
  endfacet
  facet normal 0 0.104528 -0.994522
    outer loop
      vertex -99.575 40.9832 6.83732
      vertex -110.325 37.275 6.44757
      vertex -110.325 40.9832 6.83732
    endloop
  endfacet
  facet normal 0 -1 0
    outer loop
      vertex -99.575 16.5 6.25
      vertex 13.925 16.5 6.44757
      vertex -99.575 16.5 6.44757
    endloop
  endfacet
  facet normal 0 -1 -0
    outer loop
      vertex 13.925 16.5 6.44757
      vertex -99.575 16.5 6.25
      vertex 13.925 16.5 6.25
    endloop
  endfacet
  facet normal 0 -1 0
    outer loop
      vertex -99.575 16.5 30.0524
      vertex 13.925 16.5 30.25
      vertex -99.575 16.5 30.25
    endloop
  endfacet
  facet normal 0 -1 -0
    outer loop
      vertex 13.925 16.5 30.25
      vertex -99.575 16.5 30.0524
      vertex 13.925 16.5 30.0524
    endloop
  endfacet
  facet normal 0 1 -0
    outer loop
      vertex 13.925 35.25 6.25
      vertex -99.575 35.25 6.44757
      vertex 13.925 35.25 6.44757
    endloop
  endfacet
  facet normal 0 1 0
    outer loop
      vertex -99.575 35.25 6.44757
      vertex 13.925 35.25 6.25
      vertex -99.575 35.25 6.25
    endloop
  endfacet
  facet normal 0 1 -0
    outer loop
      vertex 13.925 35.25 30.0524
      vertex -99.575 35.25 30.25
      vertex 13.925 35.25 30.25
    endloop
  endfacet
  facet normal 0 1 0
    outer loop
      vertex -99.575 35.25 30.25
      vertex 13.925 35.25 30.0524
      vertex -99.575 35.25 30.0524
    endloop
  endfacet
  facet normal 0 0 -1
    outer loop
      vertex -99.575 16.5 6.25
      vertex 13.925 35.25 6.25
      vertex 13.925 16.5 6.25
    endloop
  endfacet
  facet normal -0 0 -1
    outer loop
      vertex 13.925 35.25 6.25
      vertex -99.575 16.5 6.25
      vertex -99.575 35.25 6.25
    endloop
  endfacet
  facet normal -0 0 1
    outer loop
      vertex -99.575 35.25 30.25
      vertex 13.925 16.5 30.25
      vertex 13.925 35.25 30.25
    endloop
  endfacet
  facet normal 0 0 1
    outer loop
      vertex 13.925 16.5 30.25
      vertex -99.575 35.25 30.25
      vertex -99.575 16.5 30.25
    endloop
  endfacet
  facet normal 0 -1 0
    outer loop
      vertex -99.575 4.76223 15.7551
      vertex 13.925 4.76223 20.7449
      vertex -99.575 4.76223 20.7449
    endloop
  endfacet
  facet normal 0 -1 -0
    outer loop
      vertex 13.925 4.76223 20.7449
      vertex -99.575 4.76223 15.7551
      vertex 13.925 4.76223 15.7551
    endloop
  endfacet
  facet normal -0 0.104529 0.994522
    outer loop
      vertex -99.575 16.5 30.0524
      vertex 13.925 15.2457 30.1843
      vertex 13.925 16.5 30.0524
    endloop
  endfacet
  facet normal -1.67128e-08 0.104528 0.994522
    outer loop
      vertex 13.925 15.2457 30.1843
      vertex -99.575 16.5 30.0524
      vertex -99.575 15.2457 30.1843
    endloop
  endfacet
  facet normal 0 0.104528 -0.994522
    outer loop
      vertex -99.575 15.2457 6.31574
      vertex 13.925 16.5 6.44757
      vertex 13.925 15.2457 6.31574
    endloop
  endfacet
  facet normal 0 0.104528 -0.994522
    outer loop
      vertex 13.925 16.5 6.44757
      vertex -99.575 15.2457 6.31574
      vertex -99.575 16.5 6.44757
    endloop
  endfacet
  facet normal -1.24884e-08 -0.669131 0.743145
    outer loop
      vertex -99.575 10.5 28.6423
      vertex 13.925 6.7918 25.3034
      vertex 13.925 10.5 28.6423
    endloop
  endfacet
  facet normal 0 -0.66913 0.743145
    outer loop
      vertex 13.925 6.7918 25.3034
      vertex -99.575 10.5 28.6423
      vertex -99.575 6.7918 25.3034
    endloop
  endfacet
  facet normal 0 -0.913545 0.406737
    outer loop
      vertex -99.575 4.76223 20.7449
      vertex 13.925 6.7918 25.3034
      vertex -99.575 6.7918 25.3034
    endloop
  endfacet
  facet normal 0 -0.913545 0.406737
    outer loop
      vertex 13.925 6.7918 25.3034
      vertex -99.575 4.76223 20.7449
      vertex 13.925 4.76223 20.7449
    endloop
  endfacet
  facet normal -1.59823e-08 -0.309017 0.951057
    outer loop
      vertex -99.575 15.2457 30.1843
      vertex 13.925 10.5 28.6423
      vertex 13.925 15.2457 30.1843
    endloop
  endfacet
  facet normal -1.59823e-08 -0.309017 0.951057
    outer loop
      vertex 13.925 10.5 28.6423
      vertex -99.575 15.2457 30.1843
      vertex -99.575 10.5 28.6423
    endloop
  endfacet
  facet normal 0 -0.309017 -0.951057
    outer loop
      vertex -99.575 10.5 7.8577
      vertex 13.925 15.2457 6.31574
      vertex 13.925 10.5 7.8577
    endloop
  endfacet
  facet normal -0 -0.309017 -0.951057
    outer loop
      vertex 13.925 15.2457 6.31574
      vertex -99.575 10.5 7.8577
      vertex -99.575 15.2457 6.31574
    endloop
  endfacet
  facet normal 0 -0.913545 -0.406737
    outer loop
      vertex -99.575 6.7918 11.1966
      vertex 13.925 4.76223 15.7551
      vertex -99.575 4.76223 15.7551
    endloop
  endfacet
  facet normal 0 -0.913545 -0.406737
    outer loop
      vertex 13.925 4.76223 15.7551
      vertex -99.575 6.7918 11.1966
      vertex 13.925 6.7918 11.1966
    endloop
  endfacet
  facet normal 0 -0.669131 -0.743145
    outer loop
      vertex -99.575 6.7918 11.1966
      vertex 13.925 10.5 7.8577
      vertex 13.925 6.7918 11.1966
    endloop
  endfacet
  facet normal -0 -0.669131 -0.743145
    outer loop
      vertex 13.925 10.5 7.8577
      vertex -99.575 6.7918 11.1966
      vertex -99.575 10.5 7.8577
    endloop
  endfacet
  facet normal -3.49392e-09 0.978148 0.207911
    outer loop
      vertex 13.925 47.25 18.25
      vertex -99.575 46.2125 23.1308
      vertex 13.925 46.2125 23.1308
    endloop
  endfacet
  facet normal 0 0.978148 0.207911
    outer loop
      vertex -99.575 46.2125 23.1308
      vertex 13.925 47.25 18.25
      vertex -99.575 47.25 18.25
    endloop
  endfacet
  facet normal -0 0.104528 0.994522
    outer loop
      vertex -99.575 38.9582 29.6627
      vertex 13.925 35.25 30.0524
      vertex 13.925 38.9582 29.6627
    endloop
  endfacet
  facet normal 0 0.104528 0.994522
    outer loop
      vertex 13.925 35.25 30.0524
      vertex -99.575 38.9582 29.6627
      vertex -99.575 35.25 30.0524
    endloop
  endfacet
  facet normal -1.45534e-08 0.5 0.866026
    outer loop
      vertex -99.575 43.2796 27.1677
      vertex 13.925 38.9582 29.6627
      vertex 13.925 43.2796 27.1677
    endloop
  endfacet
  facet normal 0 0.5 0.866025
    outer loop
      vertex 13.925 38.9582 29.6627
      vertex -99.575 43.2796 27.1677
      vertex -99.575 38.9582 29.6627
    endloop
  endfacet
  facet normal -9.87764e-09 0.809017 0.587785
    outer loop
      vertex 13.925 46.2125 23.1308
      vertex -99.575 43.2796 27.1677
      vertex 13.925 43.2796 27.1677
    endloop
  endfacet
  facet normal -9.87764e-09 0.809017 0.587785
    outer loop
      vertex -99.575 43.2796 27.1677
      vertex 13.925 46.2125 23.1308
      vertex -99.575 46.2125 23.1308
    endloop
  endfacet
  facet normal 0 0.5 -0.866025
    outer loop
      vertex -99.575 38.9582 6.83732
      vertex 13.925 43.2796 9.33226
      vertex 13.925 38.9582 6.83732
    endloop
  endfacet
  facet normal 0 0.5 -0.866025
    outer loop
      vertex 13.925 43.2796 9.33226
      vertex -99.575 38.9582 6.83732
      vertex -99.575 43.2796 9.33226
    endloop
  endfacet
  facet normal 0 0.809017 -0.587785
    outer loop
      vertex 13.925 43.2796 9.33226
      vertex -99.575 46.2125 13.3692
      vertex 13.925 46.2125 13.3692
    endloop
  endfacet
  facet normal 0 0.809017 -0.587785
    outer loop
      vertex -99.575 46.2125 13.3692
      vertex 13.925 43.2796 9.33226
      vertex -99.575 43.2796 9.33226
    endloop
  endfacet
  facet normal 0 0.978148 -0.207912
    outer loop
      vertex 13.925 46.2125 13.3692
      vertex -99.575 47.25 18.25
      vertex 13.925 47.25 18.25
    endloop
  endfacet
  facet normal 0 0.978148 -0.207912
    outer loop
      vertex -99.575 47.25 18.25
      vertex 13.925 46.2125 13.3692
      vertex -99.575 46.2125 13.3692
    endloop
  endfacet
  facet normal 0 0.104528 -0.994522
    outer loop
      vertex -99.575 35.25 6.44757
      vertex 13.925 38.9582 6.83732
      vertex 13.925 35.25 6.44757
    endloop
  endfacet
  facet normal 0 0.104528 -0.994522
    outer loop
      vertex 13.925 38.9582 6.83732
      vertex -99.575 35.25 6.44757
      vertex -99.575 38.9582 6.83732
    endloop
  endfacet
endsolid OpenSCAD_Model
