solid OpenSCAD_Model
  facet normal -0 0 -1
    outer loop
      vertex 97.825 0 -25.75
      vertex 94.9237 -0.711788 -25.75
      vertex 95.075 0 -25.75
    endloop
  endfacet
  facet normal 0 0 -1
    outer loop
      vertex 97.825 0 -25.75
      vertex 94.496 -1.3005 -25.75
      vertex 94.9237 -0.711788 -25.75
    endloop
  endfacet
  facet normal 0 0 -1
    outer loop
      vertex 93.075 -7.62363 -25.75
      vertex 94.496 -1.3005 -25.75
      vertex 97.825 0 -25.75
    endloop
  endfacet
  facet normal 0 0 -1
    outer loop
      vertex 93.075 -7.62363 -25.75
      vertex 97.825 0 -25.75
      vertex 93.155 -8 -25.75
    endloop
  endfacet
  facet normal 0 0 -1
    outer loop
      vertex 93.075 -12.5 -25.75
      vertex 93.155 -8 -25.75
      vertex 97.825 0 -25.75
    endloop
  endfacet
  facet normal 0 0 -1
    outer loop
      vertex 93.155 -8 -25.75
      vertex 93.075 -12.5 -25.75
      vertex 93.075 -8.37637 -25.75
    endloop
  endfacet
  facet normal 0 0 -1
    outer loop
      vertex 94.496 -1.3005 -25.75
      vertex 93.075 -7.62363 -25.75
      vertex 93.8658 -1.66435 -25.75
    endloop
  endfacet
  facet normal 0 0 -1
    outer loop
      vertex 93.8658 -1.66435 -25.75
      vertex 93.075 -7.62363 -25.75
      vertex 93.1421 -1.74041 -25.75
    endloop
  endfacet
  facet normal -0 0 -1
    outer loop
      vertex 93.1421 -1.74041 -25.75
      vertex 93.075 -7.62363 -25.75
      vertex 93.075 -1.71862 -25.75
    endloop
  endfacet
  facet normal 0.934784 -0.355218 0
    outer loop
      vertex 97.825 0 -1.25
      vertex 93.075 -12.5 -25.75
      vertex 97.825 0 -25.75
    endloop
  endfacet
  facet normal 0.934784 -0.355218 1.3827e-008
    outer loop
      vertex 93.075 -12.5 -1.25
      vertex 93.075 -12.5 -25.75
      vertex 97.825 0 -1.25
    endloop
  endfacet
  facet normal 0 0 1
    outer loop
      vertex 97.825 0 -1.25
      vertex 92.9821 -7.18653 -1.25
      vertex 93.155 -8 -1.25
    endloop
  endfacet
  facet normal 0 0 1
    outer loop
      vertex 91.773 -6.09789 -1.25
      vertex 93.1682 -1.49178 -1.25
      vertex 92.575 -1.29904 -1.25
    endloop
  endfacet
  facet normal 0 0 1
    outer loop
      vertex 93.7885 -1.42658 -1.25
      vertex 92.4933 -6.51371 -1.25
      vertex 92.9821 -7.18653 -1.25
    endloop
  endfacet
  facet normal 0 0 1
    outer loop
      vertex 90.9459 -6.01096 -1.25
      vertex 92.575 -1.29904 -1.25
      vertex 92.1115 -0.881678 -1.25
    endloop
  endfacet
  facet normal 0 0 1
    outer loop
      vertex 90.155 -6.26795 -1.25
      vertex 92.1115 -0.881678 -1.25
      vertex 91.8578 -0.311867 -1.25
    endloop
  endfacet
  facet normal 0 0 1
    outer loop
      vertex 93.1682 -1.49178 -1.25
      vertex 91.773 -6.09789 -1.25
      vertex 92.4933 -6.51371 -1.25
    endloop
  endfacet
  facet normal 0 0 1
    outer loop
      vertex 92.1115 0.881678 -1.25
      vertex 90.155 6.26795 -1.25
      vertex 91.8578 0.311867 -1.25
    endloop
  endfacet
  facet normal 0 0 1
    outer loop
      vertex 89.537 6.82443 -1.25
      vertex 91.8578 0.311867 -1.25
      vertex 90.155 6.26795 -1.25
    endloop
  endfacet
  facet normal 0 0 1
    outer loop
      vertex 92.575 -1.29904 -1.25
      vertex 90.9459 -6.01096 -1.25
      vertex 91.773 -6.09789 -1.25
    endloop
  endfacet
  facet normal 0 0 1
    outer loop
      vertex 91.8578 0.311867 -1.25
      vertex 89.537 6.82443 -1.25
      vertex 91.8578 -0.311867 -1.25
    endloop
  endfacet
  facet normal 0 0 1
    outer loop
      vertex 92.1115 -0.881678 -1.25
      vertex 90.155 -6.26795 -1.25
      vertex 90.9459 -6.01096 -1.25
    endloop
  endfacet
  facet normal 0 0 1
    outer loop
      vertex 89.537 -6.82443 -1.25
      vertex 91.8578 -0.311867 -1.25
      vertex 89.537 6.82443 -1.25
    endloop
  endfacet
  facet normal 0 0 1
    outer loop
      vertex 91.8578 -0.311867 -1.25
      vertex 89.537 -6.82443 -1.25
      vertex 90.155 -6.26795 -1.25
    endloop
  endfacet
  facet normal 0 0 1
    outer loop
      vertex 89.1987 7.58418 -1.25
      vertex 89.537 -6.82443 -1.25
      vertex 89.537 6.82443 -1.25
    endloop
  endfacet
  facet normal 0 0 1
    outer loop
      vertex 89.537 -6.82443 -1.25
      vertex 89.1987 7.58418 -1.25
      vertex 89.1987 -7.58418 -1.25
    endloop
  endfacet
  facet normal 0 0 1
    outer loop
      vertex 97.825 0 -1.25
      vertex 94.6953 0.610105 -1.25
      vertex 94.825 0 -1.25
    endloop
  endfacet
  facet normal 0 0 1
    outer loop
      vertex 97.825 0 -1.25
      vertex 94.3287 1.11472 -1.25
      vertex 94.6953 0.610105 -1.25
    endloop
  endfacet
  facet normal 0 0 1
    outer loop
      vertex 92.9821 7.18653 -1.25
      vertex 94.3287 1.11472 -1.25
      vertex 97.825 0 -1.25
    endloop
  endfacet
  facet normal 0 0 1
    outer loop
      vertex 94.3287 1.11472 -1.25
      vertex 92.9821 7.18653 -1.25
      vertex 93.7885 1.42658 -1.25
    endloop
  endfacet
  facet normal -0 0 1
    outer loop
      vertex 92.9821 7.18653 -1.25
      vertex 97.825 0 -1.25
      vertex 93.155 8 -1.25
    endloop
  endfacet
  facet normal 0 0 1
    outer loop
      vertex 93.075 12.5 -1.25
      vertex 93.155 8 -1.25
      vertex 97.825 0 -1.25
    endloop
  endfacet
  facet normal 0 0 1
    outer loop
      vertex 93.075 12.5 -1.25
      vertex 92.9821 8.81347 -1.25
      vertex 93.155 8 -1.25
    endloop
  endfacet
  facet normal 0 0 1
    outer loop
      vertex 93.075 12.5 -1.25
      vertex 92.4933 9.48629 -1.25
      vertex 92.9821 8.81347 -1.25
    endloop
  endfacet
  facet normal 0 0 1
    outer loop
      vertex 93.075 12.5 -1.25
      vertex 91.773 9.90211 -1.25
      vertex 92.4933 9.48629 -1.25
    endloop
  endfacet
  facet normal 0 0 1
    outer loop
      vertex 93.075 12.5 -1.25
      vertex 90.9459 9.98904 -1.25
      vertex 91.773 9.90211 -1.25
    endloop
  endfacet
  facet normal -0 0 1
    outer loop
      vertex 88.425 12.5 -1.25
      vertex 90.9459 9.98904 -1.25
      vertex 93.075 12.5 -1.25
    endloop
  endfacet
  facet normal 0 0 1
    outer loop
      vertex 90.9459 9.98904 -1.25
      vertex 88.425 12.5 -1.25
      vertex 90.155 9.73205 -1.25
    endloop
  endfacet
  facet normal 0 0 1
    outer loop
      vertex 88.425 12.5 -1.25
      vertex 89.1987 7.58418 -1.25
      vertex 89.1987 8.41582 -1.25
    endloop
  endfacet
  facet normal 0 0 1
    outer loop
      vertex 89.1987 7.58418 -1.25
      vertex 88.425 12.5 -1.25
      vertex 89.1987 -7.58418 -1.25
    endloop
  endfacet
  facet normal 0 0 1
    outer loop
      vertex 88.425 -12.5 -1.25
      vertex 89.1987 -7.58418 -1.25
      vertex 88.425 12.5 -1.25
    endloop
  endfacet
  facet normal 0 0 1
    outer loop
      vertex 89.537 9.17557 -1.25
      vertex 88.425 12.5 -1.25
      vertex 89.1987 8.41582 -1.25
    endloop
  endfacet
  facet normal 0 0 1
    outer loop
      vertex 90.155 9.73205 -1.25
      vertex 88.425 12.5 -1.25
      vertex 89.537 9.17557 -1.25
    endloop
  endfacet
  facet normal 0 0 1
    outer loop
      vertex 94.6953 -0.610105 -1.25
      vertex 97.825 0 -1.25
      vertex 94.825 0 -1.25
    endloop
  endfacet
  facet normal 0 0 1
    outer loop
      vertex 94.3287 -1.11472 -1.25
      vertex 97.825 0 -1.25
      vertex 94.6953 -0.610105 -1.25
    endloop
  endfacet
  facet normal 0 0 1
    outer loop
      vertex 92.9821 -7.18653 -1.25
      vertex 94.3287 -1.11472 -1.25
      vertex 93.7885 -1.42658 -1.25
    endloop
  endfacet
  facet normal 0 0 1
    outer loop
      vertex 92.4933 -6.51371 -1.25
      vertex 93.7885 -1.42658 -1.25
      vertex 93.1682 -1.49178 -1.25
    endloop
  endfacet
  facet normal 0 0 1
    outer loop
      vertex 92.9821 -7.18653 -1.25
      vertex 97.825 0 -1.25
      vertex 94.3287 -1.11472 -1.25
    endloop
  endfacet
  facet normal -0 0 1
    outer loop
      vertex 93.155 -8 -1.25
      vertex 93.075 -12.5 -1.25
      vertex 97.825 0 -1.25
    endloop
  endfacet
  facet normal -0 0 1
    outer loop
      vertex 92.9821 -8.81347 -1.25
      vertex 93.075 -12.5 -1.25
      vertex 93.155 -8 -1.25
    endloop
  endfacet
  facet normal -0 0 1
    outer loop
      vertex 92.4933 -9.48629 -1.25
      vertex 93.075 -12.5 -1.25
      vertex 92.9821 -8.81347 -1.25
    endloop
  endfacet
  facet normal -0 0 1
    outer loop
      vertex 91.773 -9.90211 -1.25
      vertex 93.075 -12.5 -1.25
      vertex 92.4933 -9.48629 -1.25
    endloop
  endfacet
  facet normal -0 0 1
    outer loop
      vertex 90.9459 -9.98904 -1.25
      vertex 93.075 -12.5 -1.25
      vertex 91.773 -9.90211 -1.25
    endloop
  endfacet
  facet normal 0 0 1
    outer loop
      vertex 88.425 -12.5 -1.25
      vertex 93.075 -12.5 -1.25
      vertex 90.9459 -9.98904 -1.25
    endloop
  endfacet
  facet normal 0 0 1
    outer loop
      vertex 88.425 -12.5 -1.25
      vertex 90.9459 -9.98904 -1.25
      vertex 90.155 -9.73205 -1.25
    endloop
  endfacet
  facet normal 0 0 1
    outer loop
      vertex 88.425 -12.5 -1.25
      vertex 90.155 -9.73205 -1.25
      vertex 89.537 -9.17557 -1.25
    endloop
  endfacet
  facet normal 0 0 1
    outer loop
      vertex 89.1987 -8.41582 -1.25
      vertex 88.425 -12.5 -1.25
      vertex 89.537 -9.17557 -1.25
    endloop
  endfacet
  facet normal 0 0 1
    outer loop
      vertex 89.1987 -7.58418 -1.25
      vertex 88.425 -12.5 -1.25
      vertex 89.1987 -8.41582 -1.25
    endloop
  endfacet
  facet normal -0 0 1
    outer loop
      vertex 92.4933 6.51371 -1.25
      vertex 93.7885 1.42658 -1.25
      vertex 92.9821 7.18653 -1.25
    endloop
  endfacet
  facet normal 0 0 1
    outer loop
      vertex 93.7885 1.42658 -1.25
      vertex 92.4933 6.51371 -1.25
      vertex 93.1682 1.49178 -1.25
    endloop
  endfacet
  facet normal -0 0 1
    outer loop
      vertex 91.773 6.09789 -1.25
      vertex 93.1682 1.49178 -1.25
      vertex 92.4933 6.51371 -1.25
    endloop
  endfacet
  facet normal 0 0 1
    outer loop
      vertex 93.1682 1.49178 -1.25
      vertex 91.773 6.09789 -1.25
      vertex 92.575 1.29904 -1.25
    endloop
  endfacet
  facet normal -0 0 1
    outer loop
      vertex 90.9459 6.01096 -1.25
      vertex 92.575 1.29904 -1.25
      vertex 91.773 6.09789 -1.25
    endloop
  endfacet
  facet normal 0 0 1
    outer loop
      vertex 90.155 6.26795 -1.25
      vertex 92.1115 0.881678 -1.25
      vertex 90.9459 6.01096 -1.25
    endloop
  endfacet
  facet normal 0 0 1
    outer loop
      vertex 92.575 1.29904 -1.25
      vertex 90.9459 6.01096 -1.25
      vertex 92.1115 0.881678 -1.25
    endloop
  endfacet
  facet normal 0.934784 0.355218 0
    outer loop
      vertex 97.825 0 -1.25
      vertex 93.075 12.5 -25.75
      vertex 93.075 12.5 -1.25
    endloop
  endfacet
  facet normal 0.934784 0.355218 0
    outer loop
      vertex 93.075 12.5 -25.75
      vertex 97.825 0 -1.25
      vertex 97.825 0 -25.75
    endloop
  endfacet
  facet normal 0 0 -1
    outer loop
      vertex 93.075 7.62363 -25.75
      vertex 93.8658 1.66435 -25.75
      vertex 93.1421 1.74041 -25.75
    endloop
  endfacet
  facet normal 0 0 -1
    outer loop
      vertex 93.075 7.62363 -25.75
      vertex 93.1421 1.74041 -25.75
      vertex 93.075 1.71862 -25.75
    endloop
  endfacet
  facet normal 0 0 -1
    outer loop
      vertex 93.8658 1.66435 -25.75
      vertex 93.075 7.62363 -25.75
      vertex 93.155 8 -25.75
    endloop
  endfacet
  facet normal 0 0 -1
    outer loop
      vertex 94.9237 0.711788 -25.75
      vertex 97.825 0 -25.75
      vertex 95.075 0 -25.75
    endloop
  endfacet
  facet normal 0 0 -1
    outer loop
      vertex 94.496 1.3005 -25.75
      vertex 97.825 0 -25.75
      vertex 94.9237 0.711788 -25.75
    endloop
  endfacet
  facet normal 0 0 -1
    outer loop
      vertex 93.155 8 -25.75
      vertex 94.496 1.3005 -25.75
      vertex 93.8658 1.66435 -25.75
    endloop
  endfacet
  facet normal 0 0 -1
    outer loop
      vertex 94.496 1.3005 -25.75
      vertex 93.155 8 -25.75
      vertex 97.825 0 -25.75
    endloop
  endfacet
  facet normal 0 0 -1
    outer loop
      vertex 93.075 12.5 -25.75
      vertex 93.155 8 -25.75
      vertex 93.075 8.37637 -25.75
    endloop
  endfacet
  facet normal 0 0 -1
    outer loop
      vertex 93.155 8 -25.75
      vertex 93.075 12.5 -25.75
      vertex 97.825 0 -25.75
    endloop
  endfacet
  facet normal -1 0 0
    outer loop
      vertex 88.425 -12.5 -25.75
      vertex 88.425 12.5 -1.25
      vertex 88.425 12.5 -25.75
    endloop
  endfacet
  facet normal -1 -0 0
    outer loop
      vertex 88.425 12.5 -1.25
      vertex 88.425 -12.5 -25.75
      vertex 88.425 -12.5 -1.25
    endloop
  endfacet
  facet normal 0 1 -0
    outer loop
      vertex 93.075 12.5 -25.75
      vertex 88.425 12.5 -1.25
      vertex 93.075 12.5 -1.25
    endloop
  endfacet
  facet normal 0 1 0
    outer loop
      vertex 88.425 12.5 -1.25
      vertex 93.075 12.5 -25.75
      vertex 88.425 12.5 -25.75
    endloop
  endfacet
  facet normal 0 0 -1
    outer loop
      vertex 93.075 -12.5 -25.75
      vertex 92.9821 -8.81347 -25.75
      vertex 93.075 -8.37637 -25.75
    endloop
  endfacet
  facet normal 0 0 -1
    outer loop
      vertex 93.075 -12.5 -25.75
      vertex 92.4933 -9.48629 -25.75
      vertex 92.9821 -8.81347 -25.75
    endloop
  endfacet
  facet normal 0 0 -1
    outer loop
      vertex 93.075 -12.5 -25.75
      vertex 91.773 -9.90211 -25.75
      vertex 92.4933 -9.48629 -25.75
    endloop
  endfacet
  facet normal 0 0 -1
    outer loop
      vertex 93.075 -12.5 -25.75
      vertex 90.9459 -9.98904 -25.75
      vertex 91.773 -9.90211 -25.75
    endloop
  endfacet
  facet normal 0 0 -1
    outer loop
      vertex 88.425 -12.5 -25.75
      vertex 90.9459 -9.98904 -25.75
      vertex 93.075 -12.5 -25.75
    endloop
  endfacet
  facet normal -0 0 -1
    outer loop
      vertex 90.9459 -9.98904 -25.75
      vertex 88.425 -12.5 -25.75
      vertex 90.155 -9.73205 -25.75
    endloop
  endfacet
  facet normal 0 0 -1
    outer loop
      vertex 88.425 -12.5 -25.75
      vertex 89.1987 -7.58418 -25.75
      vertex 89.1987 -8.41582 -25.75
    endloop
  endfacet
  facet normal -0 0 -1
    outer loop
      vertex 89.1987 -7.58418 -25.75
      vertex 88.425 -12.5 -25.75
      vertex 89.1987 7.58418 -25.75
    endloop
  endfacet
  facet normal 0 0 -1
    outer loop
      vertex 88.425 12.5 -25.75
      vertex 89.1987 7.58418 -25.75
      vertex 88.425 -12.5 -25.75
    endloop
  endfacet
  facet normal -0 0 -1
    outer loop
      vertex 89.537 -9.17557 -25.75
      vertex 88.425 -12.5 -25.75
      vertex 89.1987 -8.41582 -25.75
    endloop
  endfacet
  facet normal -0 0 -1
    outer loop
      vertex 90.155 -9.73205 -25.75
      vertex 88.425 -12.5 -25.75
      vertex 89.537 -9.17557 -25.75
    endloop
  endfacet
  facet normal 0 0 -1
    outer loop
      vertex 92.9821 -7.18653 -25.75
      vertex 93.075 -1.71862 -25.75
      vertex 93.075 -7.62363 -25.75
    endloop
  endfacet
  facet normal 0 0 -1
    outer loop
      vertex 92.4933 -6.51371 -25.75
      vertex 93.075 -1.71862 -25.75
      vertex 92.9821 -7.18653 -25.75
    endloop
  endfacet
  facet normal 0 0 -1
    outer loop
      vertex 91.773 -6.09789 -25.75
      vertex 93.075 -1.71862 -25.75
      vertex 92.4933 -6.51371 -25.75
    endloop
  endfacet
  facet normal -0 0 -1
    outer loop
      vertex 93.075 -1.71862 -25.75
      vertex 91.773 -6.09789 -25.75
      vertex 92.45 -1.51554 -25.75
    endloop
  endfacet
  facet normal 0 0 -1
    outer loop
      vertex 90.9459 -6.01096 -25.75
      vertex 92.45 -1.51554 -25.75
      vertex 91.773 -6.09789 -25.75
    endloop
  endfacet
  facet normal -0 0 -1
    outer loop
      vertex 92.45 -1.51554 -25.75
      vertex 90.9459 -6.01096 -25.75
      vertex 91.9092 -1.02862 -25.75
    endloop
  endfacet
  facet normal -0 0 -1
    outer loop
      vertex 91.9092 -1.02862 -25.75
      vertex 90.155 -6.26795 -25.75
      vertex 91.6132 -0.363845 -25.75
    endloop
  endfacet
  facet normal 0 0 -1
    outer loop
      vertex 90.155 -6.26795 -25.75
      vertex 91.9092 -1.02862 -25.75
      vertex 90.9459 -6.01096 -25.75
    endloop
  endfacet
  facet normal 0 0 -1
    outer loop
      vertex 93.075 1.71862 -25.75
      vertex 92.9821 7.18653 -25.75
      vertex 93.075 7.62363 -25.75
    endloop
  endfacet
  facet normal 0 0 -1
    outer loop
      vertex 93.075 1.71862 -25.75
      vertex 92.4933 6.51371 -25.75
      vertex 92.9821 7.18653 -25.75
    endloop
  endfacet
  facet normal 0 0 -1
    outer loop
      vertex 91.773 6.09789 -25.75
      vertex 93.075 1.71862 -25.75
      vertex 92.45 1.51554 -25.75
    endloop
  endfacet
  facet normal 0 0 -1
    outer loop
      vertex 90.9459 6.01096 -25.75
      vertex 92.45 1.51554 -25.75
      vertex 91.9092 1.02862 -25.75
    endloop
  endfacet
  facet normal 0 0 -1
    outer loop
      vertex 93.075 1.71862 -25.75
      vertex 91.773 6.09789 -25.75
      vertex 92.4933 6.51371 -25.75
    endloop
  endfacet
  facet normal 0 0 -1
    outer loop
      vertex 90.155 6.26795 -25.75
      vertex 91.9092 1.02862 -25.75
      vertex 91.6132 0.363845 -25.75
    endloop
  endfacet
  facet normal 0 0 -1
    outer loop
      vertex 89.537 -6.82443 -25.75
      vertex 91.6132 -0.363845 -25.75
      vertex 90.155 -6.26795 -25.75
    endloop
  endfacet
  facet normal 0 0 -1
    outer loop
      vertex 92.45 1.51554 -25.75
      vertex 90.9459 6.01096 -25.75
      vertex 91.773 6.09789 -25.75
    endloop
  endfacet
  facet normal -0 0 -1
    outer loop
      vertex 91.6132 -0.363845 -25.75
      vertex 89.537 -6.82443 -25.75
      vertex 91.6132 0.363845 -25.75
    endloop
  endfacet
  facet normal 0 0 -1
    outer loop
      vertex 91.9092 1.02862 -25.75
      vertex 90.155 6.26795 -25.75
      vertex 90.9459 6.01096 -25.75
    endloop
  endfacet
  facet normal 0 0 -1
    outer loop
      vertex 89.537 6.82443 -25.75
      vertex 91.6132 0.363845 -25.75
      vertex 89.537 -6.82443 -25.75
    endloop
  endfacet
  facet normal 0 0 -1
    outer loop
      vertex 91.6132 0.363845 -25.75
      vertex 89.537 6.82443 -25.75
      vertex 90.155 6.26795 -25.75
    endloop
  endfacet
  facet normal 0 0 -1
    outer loop
      vertex 89.1987 -7.58418 -25.75
      vertex 89.537 6.82443 -25.75
      vertex 89.537 -6.82443 -25.75
    endloop
  endfacet
  facet normal -0 0 -1
    outer loop
      vertex 89.537 6.82443 -25.75
      vertex 89.1987 -7.58418 -25.75
      vertex 89.1987 7.58418 -25.75
    endloop
  endfacet
  facet normal 0 0 -1
    outer loop
      vertex 92.9821 8.81347 -25.75
      vertex 93.075 12.5 -25.75
      vertex 93.075 8.37637 -25.75
    endloop
  endfacet
  facet normal 0 0 -1
    outer loop
      vertex 92.4933 9.48629 -25.75
      vertex 93.075 12.5 -25.75
      vertex 92.9821 8.81347 -25.75
    endloop
  endfacet
  facet normal 0 0 -1
    outer loop
      vertex 91.773 9.90211 -25.75
      vertex 93.075 12.5 -25.75
      vertex 92.4933 9.48629 -25.75
    endloop
  endfacet
  facet normal 0 0 -1
    outer loop
      vertex 90.9459 9.98904 -25.75
      vertex 93.075 12.5 -25.75
      vertex 91.773 9.90211 -25.75
    endloop
  endfacet
  facet normal 0 0 -1
    outer loop
      vertex 88.425 12.5 -25.75
      vertex 90.9459 9.98904 -25.75
      vertex 90.155 9.73205 -25.75
    endloop
  endfacet
  facet normal 0 0 -1
    outer loop
      vertex 88.425 12.5 -25.75
      vertex 90.155 9.73205 -25.75
      vertex 89.537 9.17557 -25.75
    endloop
  endfacet
  facet normal 0 0 -1
    outer loop
      vertex 90.9459 9.98904 -25.75
      vertex 88.425 12.5 -25.75
      vertex 93.075 12.5 -25.75
    endloop
  endfacet
  facet normal 0 0 -1
    outer loop
      vertex 89.1987 8.41582 -25.75
      vertex 88.425 12.5 -25.75
      vertex 89.537 9.17557 -25.75
    endloop
  endfacet
  facet normal 0 0 -1
    outer loop
      vertex 89.1987 7.58418 -25.75
      vertex 88.425 12.5 -25.75
      vertex 89.1987 8.41582 -25.75
    endloop
  endfacet
  facet normal 0 -1 0
    outer loop
      vertex 88.425 -12.5 -25.75
      vertex 93.075 -12.5 -1.25
      vertex 88.425 -12.5 -1.25
    endloop
  endfacet
  facet normal 0 -1 -0
    outer loop
      vertex 93.075 -12.5 -1.25
      vertex 88.425 -12.5 -25.75
      vertex 93.075 -12.5 -25.75
    endloop
  endfacet
  facet normal 0.978149 0.207904 0
    outer loop
      vertex 94.825 0 1.75
      vertex 94.6953 0.610105 -1.25
      vertex 94.6953 0.610105 1.75
    endloop
  endfacet
  facet normal 0.978149 0.207904 0
    outer loop
      vertex 94.6953 0.610105 -1.25
      vertex 94.825 0 1.75
      vertex 94.825 0 -1.25
    endloop
  endfacet
  facet normal -1 0 0
    outer loop
      vertex 91.8578 -0.311867 -1.25
      vertex 91.8578 0.311867 1.75
      vertex 91.8578 0.311867 -1.25
    endloop
  endfacet
  facet normal -1 -0 0
    outer loop
      vertex 91.8578 0.311867 1.75
      vertex 91.8578 -0.311867 -1.25
      vertex 91.8578 -0.311867 1.75
    endloop
  endfacet
  facet normal -0.309016 0.951057 0
    outer loop
      vertex 93.1682 1.49178 -1.25
      vertex 92.575 1.29904 1.75
      vertex 93.1682 1.49178 1.75
    endloop
  endfacet
  facet normal -0.309016 0.951057 0
    outer loop
      vertex 92.575 1.29904 1.75
      vertex 93.1682 1.49178 -1.25
      vertex 92.575 1.29904 -1.25
    endloop
  endfacet
  facet normal -0.669132 0.743144 0
    outer loop
      vertex 92.575 1.29904 -1.25
      vertex 92.1115 0.881678 1.75
      vertex 92.575 1.29904 1.75
    endloop
  endfacet
  facet normal -0.669132 0.743144 0
    outer loop
      vertex 92.1115 0.881678 1.75
      vertex 92.575 1.29904 -1.25
      vertex 92.1115 0.881678 -1.25
    endloop
  endfacet
  facet normal 0.500001 0.866025 -0
    outer loop
      vertex 94.3287 1.11472 -1.25
      vertex 93.7885 1.42658 1.75
      vertex 94.3287 1.11472 1.75
    endloop
  endfacet
  facet normal 0.500001 0.866025 0
    outer loop
      vertex 93.7885 1.42658 1.75
      vertex 94.3287 1.11472 -1.25
      vertex 93.7885 1.42658 -1.25
    endloop
  endfacet
  facet normal 0.809016 0.587786 0
    outer loop
      vertex 94.6953 0.610105 1.75
      vertex 94.3287 1.11472 -1.25
      vertex 94.3287 1.11472 1.75
    endloop
  endfacet
  facet normal 0.809016 0.587786 0
    outer loop
      vertex 94.3287 1.11472 -1.25
      vertex 94.6953 0.610105 1.75
      vertex 94.6953 0.610105 -1.25
    endloop
  endfacet
  facet normal 0.978149 -0.207904 0
    outer loop
      vertex 94.6953 -0.610105 1.75
      vertex 94.825 0 -1.25
      vertex 94.825 0 1.75
    endloop
  endfacet
  facet normal 0.978149 -0.207904 0
    outer loop
      vertex 94.825 0 -1.25
      vertex 94.6953 -0.610105 1.75
      vertex 94.6953 -0.610105 -1.25
    endloop
  endfacet
  facet normal -0.913548 -0.406732 0
    outer loop
      vertex 92.1115 -0.881678 -1.25
      vertex 91.8578 -0.311867 1.75
      vertex 91.8578 -0.311867 -1.25
    endloop
  endfacet
  facet normal -0.913548 -0.406732 0
    outer loop
      vertex 91.8578 -0.311867 1.75
      vertex 92.1115 -0.881678 -1.25
      vertex 92.1115 -0.881678 1.75
    endloop
  endfacet
  facet normal 0.104527 0.994522 -0
    outer loop
      vertex 93.7885 1.42658 -1.25
      vertex 93.1682 1.49178 1.75
      vertex 93.7885 1.42658 1.75
    endloop
  endfacet
  facet normal 0.104527 0.994522 0
    outer loop
      vertex 93.1682 1.49178 1.75
      vertex 93.7885 1.42658 -1.25
      vertex 93.1682 1.49178 -1.25
    endloop
  endfacet
  facet normal 0 0 1
    outer loop
      vertex 94.6953 0.610105 1.75
      vertex 94.6953 -0.610105 1.75
      vertex 94.825 0 1.75
    endloop
  endfacet
  facet normal 0 0 1
    outer loop
      vertex 94.3287 1.11472 1.75
      vertex 94.6953 -0.610105 1.75
      vertex 94.6953 0.610105 1.75
    endloop
  endfacet
  facet normal 0 0 1
    outer loop
      vertex 94.3287 1.11472 1.75
      vertex 94.3287 -1.11472 1.75
      vertex 94.6953 -0.610105 1.75
    endloop
  endfacet
  facet normal 0 0 1
    outer loop
      vertex 93.7885 1.42658 1.75
      vertex 94.3287 -1.11472 1.75
      vertex 94.3287 1.11472 1.75
    endloop
  endfacet
  facet normal 0 0 1
    outer loop
      vertex 93.7885 1.42658 1.75
      vertex 93.7885 -1.42658 1.75
      vertex 94.3287 -1.11472 1.75
    endloop
  endfacet
  facet normal 0 0 1
    outer loop
      vertex 93.1682 1.49178 1.75
      vertex 93.7885 -1.42658 1.75
      vertex 93.7885 1.42658 1.75
    endloop
  endfacet
  facet normal 0 0 1
    outer loop
      vertex 93.1682 1.49178 1.75
      vertex 93.1682 -1.49178 1.75
      vertex 93.7885 -1.42658 1.75
    endloop
  endfacet
  facet normal -0 0 1
    outer loop
      vertex 92.575 1.29904 1.75
      vertex 93.1682 -1.49178 1.75
      vertex 93.1682 1.49178 1.75
    endloop
  endfacet
  facet normal 0 0 1
    outer loop
      vertex 92.575 1.29904 1.75
      vertex 92.575 -1.29904 1.75
      vertex 93.1682 -1.49178 1.75
    endloop
  endfacet
  facet normal -0 0 1
    outer loop
      vertex 92.1115 0.881678 1.75
      vertex 92.575 -1.29904 1.75
      vertex 92.575 1.29904 1.75
    endloop
  endfacet
  facet normal 0 0 1
    outer loop
      vertex 92.1115 0.881678 1.75
      vertex 92.1115 -0.881678 1.75
      vertex 92.575 -1.29904 1.75
    endloop
  endfacet
  facet normal -0 0 1
    outer loop
      vertex 91.8578 0.311867 1.75
      vertex 92.1115 -0.881678 1.75
      vertex 92.1115 0.881678 1.75
    endloop
  endfacet
  facet normal 0 0 1
    outer loop
      vertex 92.1115 -0.881678 1.75
      vertex 91.8578 0.311867 1.75
      vertex 91.8578 -0.311867 1.75
    endloop
  endfacet
  facet normal -0.913548 0.406732 0
    outer loop
      vertex 91.8578 0.311867 -1.25
      vertex 92.1115 0.881678 1.75
      vertex 92.1115 0.881678 -1.25
    endloop
  endfacet
  facet normal -0.913548 0.406732 0
    outer loop
      vertex 92.1115 0.881678 1.75
      vertex 91.8578 0.311867 -1.25
      vertex 91.8578 0.311867 1.75
    endloop
  endfacet
  facet normal 0.500001 -0.866025 0
    outer loop
      vertex 93.7885 -1.42658 -1.25
      vertex 94.3287 -1.11472 1.75
      vertex 93.7885 -1.42658 1.75
    endloop
  endfacet
  facet normal 0.500001 -0.866025 0
    outer loop
      vertex 94.3287 -1.11472 1.75
      vertex 93.7885 -1.42658 -1.25
      vertex 94.3287 -1.11472 -1.25
    endloop
  endfacet
  facet normal 0.809016 -0.587786 0
    outer loop
      vertex 94.3287 -1.11472 1.75
      vertex 94.6953 -0.610105 -1.25
      vertex 94.6953 -0.610105 1.75
    endloop
  endfacet
  facet normal 0.809016 -0.587786 0
    outer loop
      vertex 94.6953 -0.610105 -1.25
      vertex 94.3287 -1.11472 1.75
      vertex 94.3287 -1.11472 -1.25
    endloop
  endfacet
  facet normal -0.669132 -0.743144 0
    outer loop
      vertex 92.1115 -0.881678 -1.25
      vertex 92.575 -1.29904 1.75
      vertex 92.1115 -0.881678 1.75
    endloop
  endfacet
  facet normal -0.669132 -0.743144 -0
    outer loop
      vertex 92.575 -1.29904 1.75
      vertex 92.1115 -0.881678 -1.25
      vertex 92.575 -1.29904 -1.25
    endloop
  endfacet
  facet normal 0.104527 -0.994522 0
    outer loop
      vertex 93.1682 -1.49178 -1.25
      vertex 93.7885 -1.42658 1.75
      vertex 93.1682 -1.49178 1.75
    endloop
  endfacet
  facet normal 0.104527 -0.994522 0
    outer loop
      vertex 93.7885 -1.42658 1.75
      vertex 93.1682 -1.49178 -1.25
      vertex 93.7885 -1.42658 -1.25
    endloop
  endfacet
  facet normal -0.309016 -0.951057 0
    outer loop
      vertex 92.575 -1.29904 -1.25
      vertex 93.1682 -1.49178 1.75
      vertex 92.575 -1.29904 1.75
    endloop
  endfacet
  facet normal -0.309016 -0.951057 -0
    outer loop
      vertex 93.1682 -1.49178 1.75
      vertex 92.575 -1.29904 -1.25
      vertex 93.1682 -1.49178 -1.25
    endloop
  endfacet
  facet normal -0.978149 -0.207906 0
    outer loop
      vertex 95.075 0 -25.75
      vertex 94.9237 0.711788 -22.25
      vertex 94.9237 0.711788 -25.75
    endloop
  endfacet
  facet normal -0.978149 -0.207906 0
    outer loop
      vertex 94.9237 0.711788 -22.25
      vertex 95.075 0 -25.75
      vertex 95.075 0 -22.25
    endloop
  endfacet
  facet normal 1 -0 0
    outer loop
      vertex 91.6132 -0.363845 -22.25
      vertex 91.6132 0.363845 -25.75
      vertex 91.6132 0.363845 -22.25
    endloop
  endfacet
  facet normal 1 0 0
    outer loop
      vertex 91.6132 0.363845 -25.75
      vertex 91.6132 -0.363845 -22.25
      vertex 91.6132 -0.363845 -25.75
    endloop
  endfacet
  facet normal -0.104528 -0.994522 0
    outer loop
      vertex 93.1421 1.74041 -25.75
      vertex 93.8658 1.66435 -22.25
      vertex 93.1421 1.74041 -22.25
    endloop
  endfacet
  facet normal -0.104528 -0.994522 -0
    outer loop
      vertex 93.8658 1.66435 -22.25
      vertex 93.1421 1.74041 -25.75
      vertex 93.8658 1.66435 -25.75
    endloop
  endfacet
  facet normal -0.809017 -0.587786 0
    outer loop
      vertex 94.9237 0.711788 -25.75
      vertex 94.496 1.3005 -22.25
      vertex 94.496 1.3005 -25.75
    endloop
  endfacet
  facet normal -0.809017 -0.587786 0
    outer loop
      vertex 94.496 1.3005 -22.25
      vertex 94.9237 0.711788 -25.75
      vertex 94.9237 0.711788 -22.25
    endloop
  endfacet
  facet normal -0.809017 0.587786 0
    outer loop
      vertex 94.496 -1.3005 -25.75
      vertex 94.9237 -0.711788 -22.25
      vertex 94.9237 -0.711788 -25.75
    endloop
  endfacet
  facet normal -0.809017 0.587786 0
    outer loop
      vertex 94.9237 -0.711788 -22.25
      vertex 94.496 -1.3005 -25.75
      vertex 94.496 -1.3005 -22.25
    endloop
  endfacet
  facet normal -0.499998 0.866027 0
    outer loop
      vertex 94.496 -1.3005 -25.75
      vertex 93.8658 -1.66435 -22.25
      vertex 94.496 -1.3005 -22.25
    endloop
  endfacet
  facet normal -0.499998 0.866027 0
    outer loop
      vertex 93.8658 -1.66435 -22.25
      vertex 94.496 -1.3005 -25.75
      vertex 93.8658 -1.66435 -25.75
    endloop
  endfacet
  facet normal -0.104528 0.994522 0
    outer loop
      vertex 93.8658 -1.66435 -25.75
      vertex 93.1421 -1.74041 -22.25
      vertex 93.8658 -1.66435 -22.25
    endloop
  endfacet
  facet normal -0.104528 0.994522 0
    outer loop
      vertex 93.1421 -1.74041 -22.25
      vertex 93.8658 -1.66435 -25.75
      vertex 93.1421 -1.74041 -25.75
    endloop
  endfacet
  facet normal -0.499998 -0.866027 0
    outer loop
      vertex 93.8658 1.66435 -25.75
      vertex 94.496 1.3005 -22.25
      vertex 93.8658 1.66435 -22.25
    endloop
  endfacet
  facet normal -0.499998 -0.866027 -0
    outer loop
      vertex 94.496 1.3005 -22.25
      vertex 93.8658 1.66435 -25.75
      vertex 94.496 1.3005 -25.75
    endloop
  endfacet
  facet normal 0.309017 -0.951056 0
    outer loop
      vertex 93.075 1.71862 -25.75
      vertex 92.45 1.51554 -22.25
      vertex 92.45 1.51554 -25.75
    endloop
  endfacet
  facet normal 0.309016 -0.951057 -3.14135e-007
    outer loop
      vertex 92.45 1.51554 -22.25
      vertex 93.075 1.71862 -25.75
      vertex 93.1421 1.74041 -22.25
    endloop
  endfacet
  facet normal 0.309001 -0.951062 0
    outer loop
      vertex 93.1421 1.74041 -22.25
      vertex 93.075 1.71862 -25.75
      vertex 93.1421 1.74041 -25.75
    endloop
  endfacet
  facet normal 0.669131 -0.743144 0
    outer loop
      vertex 91.9092 1.02862 -25.75
      vertex 92.45 1.51554 -22.25
      vertex 91.9092 1.02862 -22.25
    endloop
  endfacet
  facet normal 0.669131 -0.743144 0
    outer loop
      vertex 92.45 1.51554 -22.25
      vertex 91.9092 1.02862 -25.75
      vertex 92.45 1.51554 -25.75
    endloop
  endfacet
  facet normal 0.913547 0.406732 0
    outer loop
      vertex 91.9092 -1.02862 -22.25
      vertex 91.6132 -0.363845 -25.75
      vertex 91.6132 -0.363845 -22.25
    endloop
  endfacet
  facet normal 0.913547 0.406732 0
    outer loop
      vertex 91.6132 -0.363845 -25.75
      vertex 91.9092 -1.02862 -22.25
      vertex 91.9092 -1.02862 -25.75
    endloop
  endfacet
  facet normal 0.309001 0.951062 0
    outer loop
      vertex 93.075 -1.71862 -25.75
      vertex 93.1421 -1.74041 -22.25
      vertex 93.1421 -1.74041 -25.75
    endloop
  endfacet
  facet normal 0.309016 0.951057 -3.14135e-007
    outer loop
      vertex 93.1421 -1.74041 -22.25
      vertex 93.075 -1.71862 -25.75
      vertex 92.45 -1.51554 -22.25
    endloop
  endfacet
  facet normal 0.309017 0.951056 0
    outer loop
      vertex 92.45 -1.51554 -22.25
      vertex 93.075 -1.71862 -25.75
      vertex 92.45 -1.51554 -25.75
    endloop
  endfacet
  facet normal 0 0 -1
    outer loop
      vertex 94.9237 -0.711788 -22.25
      vertex 94.9237 0.711788 -22.25
      vertex 95.075 0 -22.25
    endloop
  endfacet
  facet normal 0 0 -1
    outer loop
      vertex 94.496 -1.3005 -22.25
      vertex 94.9237 0.711788 -22.25
      vertex 94.9237 -0.711788 -22.25
    endloop
  endfacet
  facet normal 0 0 -1
    outer loop
      vertex 94.496 -1.3005 -22.25
      vertex 94.496 1.3005 -22.25
      vertex 94.9237 0.711788 -22.25
    endloop
  endfacet
  facet normal 0 0 -1
    outer loop
      vertex 93.8658 -1.66435 -22.25
      vertex 94.496 1.3005 -22.25
      vertex 94.496 -1.3005 -22.25
    endloop
  endfacet
  facet normal 0 0 -1
    outer loop
      vertex 93.8658 -1.66435 -22.25
      vertex 93.8658 1.66435 -22.25
      vertex 94.496 1.3005 -22.25
    endloop
  endfacet
  facet normal 0 0 -1
    outer loop
      vertex 93.1421 -1.74041 -22.25
      vertex 93.8658 1.66435 -22.25
      vertex 93.8658 -1.66435 -22.25
    endloop
  endfacet
  facet normal 0 0 -1
    outer loop
      vertex 93.1421 -1.74041 -22.25
      vertex 93.1421 1.74041 -22.25
      vertex 93.8658 1.66435 -22.25
    endloop
  endfacet
  facet normal 0 0 -1
    outer loop
      vertex 92.45 -1.51554 -22.25
      vertex 93.1421 1.74041 -22.25
      vertex 93.1421 -1.74041 -22.25
    endloop
  endfacet
  facet normal 0 0 -1
    outer loop
      vertex 92.45 -1.51554 -22.25
      vertex 92.45 1.51554 -22.25
      vertex 93.1421 1.74041 -22.25
    endloop
  endfacet
  facet normal 0 0 -1
    outer loop
      vertex 91.9092 -1.02862 -22.25
      vertex 92.45 1.51554 -22.25
      vertex 92.45 -1.51554 -22.25
    endloop
  endfacet
  facet normal 0 0 -1
    outer loop
      vertex 91.9092 -1.02862 -22.25
      vertex 91.9092 1.02862 -22.25
      vertex 92.45 1.51554 -22.25
    endloop
  endfacet
  facet normal 0 0 -1
    outer loop
      vertex 91.6132 -0.363845 -22.25
      vertex 91.9092 1.02862 -22.25
      vertex 91.9092 -1.02862 -22.25
    endloop
  endfacet
  facet normal 0 0 -1
    outer loop
      vertex 91.9092 1.02862 -22.25
      vertex 91.6132 -0.363845 -22.25
      vertex 91.6132 0.363845 -22.25
    endloop
  endfacet
  facet normal 0.913547 -0.406732 0
    outer loop
      vertex 91.6132 0.363845 -22.25
      vertex 91.9092 1.02862 -25.75
      vertex 91.9092 1.02862 -22.25
    endloop
  endfacet
  facet normal 0.913547 -0.406732 0
    outer loop
      vertex 91.9092 1.02862 -25.75
      vertex 91.6132 0.363845 -22.25
      vertex 91.6132 0.363845 -25.75
    endloop
  endfacet
  facet normal 0.669131 0.743144 -0
    outer loop
      vertex 92.45 -1.51554 -25.75
      vertex 91.9092 -1.02862 -22.25
      vertex 92.45 -1.51554 -22.25
    endloop
  endfacet
  facet normal 0.669131 0.743144 0
    outer loop
      vertex 91.9092 -1.02862 -22.25
      vertex 92.45 -1.51554 -25.75
      vertex 91.9092 -1.02862 -25.75
    endloop
  endfacet
  facet normal -0.978149 0.207906 0
    outer loop
      vertex 94.9237 -0.711788 -25.75
      vertex 95.075 0 -22.25
      vertex 95.075 0 -25.75
    endloop
  endfacet
  facet normal -0.978149 0.207906 0
    outer loop
      vertex 95.075 0 -22.25
      vertex 94.9237 -0.711788 -25.75
      vertex 94.9237 -0.711788 -22.25
    endloop
  endfacet
  facet normal -0.978151 -0.207897 0
    outer loop
      vertex 93.075 8.37637 -25.75
      vertex 92.9821 8.81347 -1.25
      vertex 92.9821 8.81347 -25.75
    endloop
  endfacet
  facet normal -0.978146 -0.207919 -0
    outer loop
      vertex 93.155 8 -1.25
      vertex 93.075 8.37637 -25.75
      vertex 93.155 8 -25.75
    endloop
  endfacet
  facet normal -0.978149 -0.207907 1.87313e-007
    outer loop
      vertex 93.075 8.37637 -25.75
      vertex 93.155 8 -1.25
      vertex 92.9821 8.81347 -1.25
    endloop
  endfacet
  facet normal 1 -0 0
    outer loop
      vertex 89.1987 7.58418 -1.25
      vertex 89.1987 8.41582 -25.75
      vertex 89.1987 8.41582 -1.25
    endloop
  endfacet
  facet normal 1 0 0
    outer loop
      vertex 89.1987 8.41582 -25.75
      vertex 89.1987 7.58418 -1.25
      vertex 89.1987 7.58418 -25.75
    endloop
  endfacet
  facet normal -0.104528 -0.994522 0
    outer loop
      vertex 90.9459 9.98904 -25.75
      vertex 91.773 9.90211 -1.25
      vertex 90.9459 9.98904 -1.25
    endloop
  endfacet
  facet normal -0.104528 -0.994522 -0
    outer loop
      vertex 91.773 9.90211 -1.25
      vertex 90.9459 9.98904 -25.75
      vertex 91.773 9.90211 -25.75
    endloop
  endfacet
  facet normal -0.104528 0.994522 0
    outer loop
      vertex 91.773 6.09789 -25.75
      vertex 90.9459 6.01096 -1.25
      vertex 91.773 6.09789 -1.25
    endloop
  endfacet
  facet normal -0.104528 0.994522 0
    outer loop
      vertex 90.9459 6.01096 -1.25
      vertex 91.773 6.09789 -25.75
      vertex 90.9459 6.01096 -25.75
    endloop
  endfacet
  facet normal -0.499999 -0.866026 0
    outer loop
      vertex 91.773 9.90211 -25.75
      vertex 92.4933 9.48629 -1.25
      vertex 91.773 9.90211 -1.25
    endloop
  endfacet
  facet normal -0.499999 -0.866026 -0
    outer loop
      vertex 92.4933 9.48629 -1.25
      vertex 91.773 9.90211 -25.75
      vertex 92.4933 9.48629 -25.75
    endloop
  endfacet
  facet normal -0.809016 -0.587786 0
    outer loop
      vertex 92.9821 8.81347 -25.75
      vertex 92.4933 9.48629 -1.25
      vertex 92.4933 9.48629 -25.75
    endloop
  endfacet
  facet normal -0.809016 -0.587786 0
    outer loop
      vertex 92.4933 9.48629 -1.25
      vertex 92.9821 8.81347 -25.75
      vertex 92.9821 8.81347 -1.25
    endloop
  endfacet
  facet normal 0.309016 -0.951057 0
    outer loop
      vertex 90.155 9.73205 -25.75
      vertex 90.9459 9.98904 -1.25
      vertex 90.155 9.73205 -1.25
    endloop
  endfacet
  facet normal 0.309016 -0.951057 0
    outer loop
      vertex 90.9459 9.98904 -1.25
      vertex 90.155 9.73205 -25.75
      vertex 90.9459 9.98904 -25.75
    endloop
  endfacet
  facet normal 0.66913 -0.743146 0
    outer loop
      vertex 89.537 9.17557 -25.75
      vertex 90.155 9.73205 -1.25
      vertex 89.537 9.17557 -1.25
    endloop
  endfacet
  facet normal 0.66913 -0.743146 0
    outer loop
      vertex 90.155 9.73205 -1.25
      vertex 89.537 9.17557 -25.75
      vertex 90.155 9.73205 -25.75
    endloop
  endfacet
  facet normal -0.978146 0.207918 0
    outer loop
      vertex 93.075 7.62363 -25.75
      vertex 93.155 8 -1.25
      vertex 93.155 8 -25.75
    endloop
  endfacet
  facet normal -0.978151 0.207897 0
    outer loop
      vertex 92.9821 7.18653 -1.25
      vertex 93.075 7.62363 -25.75
      vertex 92.9821 7.18653 -25.75
    endloop
  endfacet
  facet normal -0.978149 0.207907 1.82964e-007
    outer loop
      vertex 93.075 7.62363 -25.75
      vertex 92.9821 7.18653 -1.25
      vertex 93.155 8 -1.25
    endloop
  endfacet
  facet normal -0.499999 0.866026 0
    outer loop
      vertex 92.4933 6.51371 -25.75
      vertex 91.773 6.09789 -1.25
      vertex 92.4933 6.51371 -1.25
    endloop
  endfacet
  facet normal -0.499999 0.866026 0
    outer loop
      vertex 91.773 6.09789 -1.25
      vertex 92.4933 6.51371 -25.75
      vertex 91.773 6.09789 -25.75
    endloop
  endfacet
  facet normal -0.809016 0.587786 0
    outer loop
      vertex 92.4933 6.51371 -25.75
      vertex 92.9821 7.18653 -1.25
      vertex 92.9821 7.18653 -25.75
    endloop
  endfacet
  facet normal -0.809016 0.587786 0
    outer loop
      vertex 92.9821 7.18653 -1.25
      vertex 92.4933 6.51371 -25.75
      vertex 92.4933 6.51371 -1.25
    endloop
  endfacet
  facet normal 0.913547 0.406732 0
    outer loop
      vertex 89.537 6.82443 -1.25
      vertex 89.1987 7.58418 -25.75
      vertex 89.1987 7.58418 -1.25
    endloop
  endfacet
  facet normal 0.913547 0.406732 0
    outer loop
      vertex 89.1987 7.58418 -25.75
      vertex 89.537 6.82443 -1.25
      vertex 89.537 6.82443 -25.75
    endloop
  endfacet
  facet normal 0.309016 0.951057 -0
    outer loop
      vertex 90.9459 6.01096 -25.75
      vertex 90.155 6.26795 -1.25
      vertex 90.9459 6.01096 -1.25
    endloop
  endfacet
  facet normal 0.309016 0.951057 0
    outer loop
      vertex 90.155 6.26795 -1.25
      vertex 90.9459 6.01096 -25.75
      vertex 90.155 6.26795 -25.75
    endloop
  endfacet
  facet normal 0.66913 0.743146 -0
    outer loop
      vertex 90.155 6.26795 -25.75
      vertex 89.537 6.82443 -1.25
      vertex 90.155 6.26795 -1.25
    endloop
  endfacet
  facet normal 0.66913 0.743146 0
    outer loop
      vertex 89.537 6.82443 -1.25
      vertex 90.155 6.26795 -25.75
      vertex 89.537 6.82443 -25.75
    endloop
  endfacet
  facet normal 0.913547 -0.406732 0
    outer loop
      vertex 89.1987 8.41582 -1.25
      vertex 89.537 9.17557 -25.75
      vertex 89.537 9.17557 -1.25
    endloop
  endfacet
  facet normal 0.913547 -0.406732 0
    outer loop
      vertex 89.537 9.17557 -25.75
      vertex 89.1987 8.41582 -1.25
      vertex 89.1987 8.41582 -25.75
    endloop
  endfacet
  facet normal -0.978151 -0.207897 0
    outer loop
      vertex 93.075 -7.62363 -25.75
      vertex 92.9821 -7.18653 -1.25
      vertex 92.9821 -7.18653 -25.75
    endloop
  endfacet
  facet normal -0.978146 -0.207918 -0
    outer loop
      vertex 93.155 -8 -1.25
      vertex 93.075 -7.62363 -25.75
      vertex 93.155 -8 -25.75
    endloop
  endfacet
  facet normal -0.978149 -0.207907 1.82964e-007
    outer loop
      vertex 93.075 -7.62363 -25.75
      vertex 93.155 -8 -1.25
      vertex 92.9821 -7.18653 -1.25
    endloop
  endfacet
  facet normal 1 -0 0
    outer loop
      vertex 89.1987 -8.41582 -1.25
      vertex 89.1987 -7.58418 -25.75
      vertex 89.1987 -7.58418 -1.25
    endloop
  endfacet
  facet normal 1 0 0
    outer loop
      vertex 89.1987 -7.58418 -25.75
      vertex 89.1987 -8.41582 -1.25
      vertex 89.1987 -8.41582 -25.75
    endloop
  endfacet
  facet normal -0.104528 -0.994522 0
    outer loop
      vertex 90.9459 -6.01096 -25.75
      vertex 91.773 -6.09789 -1.25
      vertex 90.9459 -6.01096 -1.25
    endloop
  endfacet
  facet normal -0.104528 -0.994522 -0
    outer loop
      vertex 91.773 -6.09789 -1.25
      vertex 90.9459 -6.01096 -25.75
      vertex 91.773 -6.09789 -25.75
    endloop
  endfacet
  facet normal -0.499999 0.866026 0
    outer loop
      vertex 92.4933 -9.48629 -25.75
      vertex 91.773 -9.90211 -1.25
      vertex 92.4933 -9.48629 -1.25
    endloop
  endfacet
  facet normal -0.499999 0.866026 0
    outer loop
      vertex 91.773 -9.90211 -1.25
      vertex 92.4933 -9.48629 -25.75
      vertex 91.773 -9.90211 -25.75
    endloop
  endfacet
  facet normal -0.104528 0.994522 0
    outer loop
      vertex 91.773 -9.90211 -25.75
      vertex 90.9459 -9.98904 -1.25
      vertex 91.773 -9.90211 -1.25
    endloop
  endfacet
  facet normal -0.104528 0.994522 0
    outer loop
      vertex 90.9459 -9.98904 -1.25
      vertex 91.773 -9.90211 -25.75
      vertex 90.9459 -9.98904 -25.75
    endloop
  endfacet
  facet normal -0.499999 -0.866026 0
    outer loop
      vertex 91.773 -6.09789 -25.75
      vertex 92.4933 -6.51371 -1.25
      vertex 91.773 -6.09789 -1.25
    endloop
  endfacet
  facet normal -0.499999 -0.866026 -0
    outer loop
      vertex 92.4933 -6.51371 -1.25
      vertex 91.773 -6.09789 -25.75
      vertex 92.4933 -6.51371 -25.75
    endloop
  endfacet
  facet normal -0.809016 -0.587786 0
    outer loop
      vertex 92.9821 -7.18653 -25.75
      vertex 92.4933 -6.51371 -1.25
      vertex 92.4933 -6.51371 -25.75
    endloop
  endfacet
  facet normal -0.809016 -0.587786 0
    outer loop
      vertex 92.4933 -6.51371 -1.25
      vertex 92.9821 -7.18653 -25.75
      vertex 92.9821 -7.18653 -1.25
    endloop
  endfacet
  facet normal 0.309016 -0.951057 0
    outer loop
      vertex 90.155 -6.26795 -25.75
      vertex 90.9459 -6.01096 -1.25
      vertex 90.155 -6.26795 -1.25
    endloop
  endfacet
  facet normal 0.309016 -0.951057 0
    outer loop
      vertex 90.9459 -6.01096 -1.25
      vertex 90.155 -6.26795 -25.75
      vertex 90.9459 -6.01096 -25.75
    endloop
  endfacet
  facet normal 0.66913 -0.743146 0
    outer loop
      vertex 89.537 -6.82443 -25.75
      vertex 90.155 -6.26795 -1.25
      vertex 89.537 -6.82443 -1.25
    endloop
  endfacet
  facet normal 0.66913 -0.743146 0
    outer loop
      vertex 90.155 -6.26795 -1.25
      vertex 89.537 -6.82443 -25.75
      vertex 90.155 -6.26795 -25.75
    endloop
  endfacet
  facet normal 0.913547 0.406732 0
    outer loop
      vertex 89.537 -9.17557 -1.25
      vertex 89.1987 -8.41582 -25.75
      vertex 89.1987 -8.41582 -1.25
    endloop
  endfacet
  facet normal 0.913547 0.406732 0
    outer loop
      vertex 89.1987 -8.41582 -25.75
      vertex 89.537 -9.17557 -1.25
      vertex 89.537 -9.17557 -25.75
    endloop
  endfacet
  facet normal 0.309016 0.951057 -0
    outer loop
      vertex 90.9459 -9.98904 -25.75
      vertex 90.155 -9.73205 -1.25
      vertex 90.9459 -9.98904 -1.25
    endloop
  endfacet
  facet normal 0.309016 0.951057 0
    outer loop
      vertex 90.155 -9.73205 -1.25
      vertex 90.9459 -9.98904 -25.75
      vertex 90.155 -9.73205 -25.75
    endloop
  endfacet
  facet normal 0.66913 0.743146 -0
    outer loop
      vertex 90.155 -9.73205 -25.75
      vertex 89.537 -9.17557 -1.25
      vertex 90.155 -9.73205 -1.25
    endloop
  endfacet
  facet normal 0.66913 0.743146 0
    outer loop
      vertex 89.537 -9.17557 -1.25
      vertex 90.155 -9.73205 -25.75
      vertex 89.537 -9.17557 -25.75
    endloop
  endfacet
  facet normal 0.913547 -0.406732 0
    outer loop
      vertex 89.1987 -7.58418 -1.25
      vertex 89.537 -6.82443 -25.75
      vertex 89.537 -6.82443 -1.25
    endloop
  endfacet
  facet normal 0.913547 -0.406732 0
    outer loop
      vertex 89.537 -6.82443 -25.75
      vertex 89.1987 -7.58418 -1.25
      vertex 89.1987 -7.58418 -25.75
    endloop
  endfacet
  facet normal -0.809016 0.587786 0
    outer loop
      vertex 92.4933 -9.48629 -25.75
      vertex 92.9821 -8.81347 -1.25
      vertex 92.9821 -8.81347 -25.75
    endloop
  endfacet
  facet normal -0.809016 0.587786 0
    outer loop
      vertex 92.9821 -8.81347 -1.25
      vertex 92.4933 -9.48629 -25.75
      vertex 92.4933 -9.48629 -1.25
    endloop
  endfacet
  facet normal -0.978146 0.207919 0
    outer loop
      vertex 93.075 -8.37637 -25.75
      vertex 93.155 -8 -1.25
      vertex 93.155 -8 -25.75
    endloop
  endfacet
  facet normal -0.978151 0.207897 0
    outer loop
      vertex 92.9821 -8.81347 -1.25
      vertex 93.075 -8.37637 -25.75
      vertex 92.9821 -8.81347 -25.75
    endloop
  endfacet
  facet normal -0.978149 0.207907 1.87313e-007
    outer loop
      vertex 93.075 -8.37637 -25.75
      vertex 92.9821 -8.81347 -1.25
      vertex 93.155 -8 -1.25
    endloop
  endfacet
endsolid OpenSCAD_Model
