solid OpenSCAD_Model
  facet normal -0 0 1
    outer loop
      vertex -99.575 35.25 30.3
      vertex 13.925 16.5 30.3
      vertex 13.925 35.25 30.3
    endloop
  endfacet
  facet normal 0 0 1
    outer loop
      vertex 13.925 16.5 30.3
      vertex -99.575 35.25 30.3
      vertex -99.575 16.5 30.3
    endloop
  endfacet
  facet normal 0 0 -1
    outer loop
      vertex -99.575 16.5 30.2
      vertex 13.925 35.25 30.2
      vertex 13.925 16.5 30.2
    endloop
  endfacet
  facet normal -0 0 -1
    outer loop
      vertex 13.925 35.25 30.2
      vertex -99.575 16.5 30.2
      vertex -99.575 35.25 30.2
    endloop
  endfacet
  facet normal 0 -1 0
    outer loop
      vertex -99.575 16.5 30.2
      vertex 13.925 16.5 30.3
      vertex -99.575 16.5 30.3
    endloop
  endfacet
  facet normal 0 -1 -0
    outer loop
      vertex 13.925 16.5 30.3
      vertex -99.575 16.5 30.2
      vertex 13.925 16.5 30.2
    endloop
  endfacet
  facet normal 1 -0 0
    outer loop
      vertex 13.925 16.5 30.3
      vertex 13.925 35.25 30.2
      vertex 13.925 35.25 30.3
    endloop
  endfacet
  facet normal 1 0 0
    outer loop
      vertex 13.925 35.25 30.2
      vertex 13.925 16.5 30.3
      vertex 13.925 16.5 30.2
    endloop
  endfacet
  facet normal 0 1 -0
    outer loop
      vertex 13.925 35.25 30.2
      vertex -99.575 35.25 30.3
      vertex 13.925 35.25 30.3
    endloop
  endfacet
  facet normal 0 1 0
    outer loop
      vertex -99.575 35.25 30.3
      vertex 13.925 35.25 30.2
      vertex -99.575 35.25 30.2
    endloop
  endfacet
  facet normal -1 0 0
    outer loop
      vertex -99.575 16.5 30.2
      vertex -99.575 35.25 30.3
      vertex -99.575 35.25 30.2
    endloop
  endfacet
  facet normal -1 -0 0
    outer loop
      vertex -99.575 35.25 30.3
      vertex -99.575 16.5 30.2
      vertex -99.575 16.5 30.3
    endloop
  endfacet
endsolid OpenSCAD_Model
