solid OpenSCAD_Model
  facet normal 0.998027 0.0627899 0
    outer loop
      vertex -32.7 0 -5.53
      vertex -32.8262 2.00533 -25.53
      vertex -32.8262 2.00533 -5.53
    endloop
  endfacet
  facet normal 0.998027 0.0627899 0
    outer loop
      vertex -32.8262 2.00533 -25.53
      vertex -32.7 0 -5.53
      vertex -32.7 0 -25.53
    endloop
  endfacet
  facet normal 0.982287 0.187382 0
    outer loop
      vertex -32.8262 2.00533 -5.53
      vertex -33.2027 3.97904 -25.53
      vertex -33.2027 3.97904 -5.53
    endloop
  endfacet
  facet normal 0.982287 0.187382 0
    outer loop
      vertex -33.2027 3.97904 -25.53
      vertex -32.8262 2.00533 -5.53
      vertex -32.8262 2.00533 -25.53
    endloop
  endfacet
  facet normal 0.951057 0.309017 0
    outer loop
      vertex -33.2027 3.97904 -5.53
      vertex -33.8236 5.88999 -25.53
      vertex -33.8236 5.88999 -5.53
    endloop
  endfacet
  facet normal 0.951057 0.309017 0
    outer loop
      vertex -33.8236 5.88999 -25.53
      vertex -33.2027 3.97904 -5.53
      vertex -33.2027 3.97904 -25.53
    endloop
  endfacet
  facet normal 0.904828 0.425778 0
    outer loop
      vertex -33.8236 5.88999 -5.53
      vertex -34.6791 7.70806 -25.53
      vertex -34.6791 7.70806 -5.53
    endloop
  endfacet
  facet normal 0.904828 0.425778 0
    outer loop
      vertex -34.6791 7.70806 -25.53
      vertex -33.8236 5.88999 -5.53
      vertex -33.8236 5.88999 -25.53
    endloop
  endfacet
  facet normal 0.844327 0.535828 0
    outer loop
      vertex -34.6791 7.70806 -5.53
      vertex -35.7557 9.40456 -25.53
      vertex -35.7557 9.40456 -5.53
    endloop
  endfacet
  facet normal 0.844327 0.535828 0
    outer loop
      vertex -35.7557 9.40456 -25.53
      vertex -34.6791 7.70806 -5.53
      vertex -34.6791 7.70806 -25.53
    endloop
  endfacet
  facet normal 0.770514 0.637424 0
    outer loop
      vertex -35.7557 9.40456 -5.53
      vertex -37.0365 10.9528 -25.53
      vertex -37.0365 10.9528 -5.53
    endloop
  endfacet
  facet normal 0.770514 0.637424 0
    outer loop
      vertex -37.0365 10.9528 -25.53
      vertex -35.7557 9.40456 -5.53
      vertex -35.7557 9.40456 -25.53
    endloop
  endfacet
  facet normal 0.684547 0.728969 -0
    outer loop
      vertex -37.0365 10.9528 -25.53
      vertex -38.5012 12.3282 -5.53
      vertex -37.0365 10.9528 -5.53
    endloop
  endfacet
  facet normal 0.684547 0.728969 0
    outer loop
      vertex -38.5012 12.3282 -5.53
      vertex -37.0365 10.9528 -25.53
      vertex -38.5012 12.3282 -25.53
    endloop
  endfacet
  facet normal 0.587786 0.809017 -0
    outer loop
      vertex -38.5012 12.3282 -25.53
      vertex -40.1268 13.5092 -5.53
      vertex -38.5012 12.3282 -5.53
    endloop
  endfacet
  facet normal 0.587786 0.809017 0
    outer loop
      vertex -40.1268 13.5092 -5.53
      vertex -38.5012 12.3282 -25.53
      vertex -40.1268 13.5092 -25.53
    endloop
  endfacet
  facet normal 0.481753 0.876307 -0
    outer loop
      vertex -40.1268 13.5092 -25.53
      vertex -41.8875 14.4772 -5.53
      vertex -40.1268 13.5092 -5.53
    endloop
  endfacet
  facet normal 0.481753 0.876307 0
    outer loop
      vertex -41.8875 14.4772 -5.53
      vertex -40.1268 13.5092 -25.53
      vertex -41.8875 14.4772 -25.53
    endloop
  endfacet
  facet normal 0.368124 0.929777 -0
    outer loop
      vertex -41.8875 14.4772 -25.53
      vertex -43.7557 15.2169 -5.53
      vertex -41.8875 14.4772 -5.53
    endloop
  endfacet
  facet normal 0.368124 0.929777 0
    outer loop
      vertex -43.7557 15.2169 -5.53
      vertex -41.8875 14.4772 -25.53
      vertex -43.7557 15.2169 -25.53
    endloop
  endfacet
  facet normal 0.24869 0.968583 -0
    outer loop
      vertex -43.7557 15.2169 -25.53
      vertex -45.7019 15.7166 -5.53
      vertex -43.7557 15.2169 -5.53
    endloop
  endfacet
  facet normal 0.24869 0.968583 0
    outer loop
      vertex -45.7019 15.7166 -5.53
      vertex -43.7557 15.2169 -25.53
      vertex -45.7019 15.7166 -25.53
    endloop
  endfacet
  facet normal 0.125334 0.992115 -0
    outer loop
      vertex -45.7019 15.7166 -25.53
      vertex -47.6954 15.9684 -5.53
      vertex -45.7019 15.7166 -5.53
    endloop
  endfacet
  facet normal 0.125334 0.992115 0
    outer loop
      vertex -47.6954 15.9684 -5.53
      vertex -45.7019 15.7166 -25.53
      vertex -47.6954 15.9684 -25.53
    endloop
  endfacet
  facet normal 0 1 -0
    outer loop
      vertex -47.6954 15.9684 -25.53
      vertex -49.7046 15.9684 -5.53
      vertex -47.6954 15.9684 -5.53
    endloop
  endfacet
  facet normal 0 1 0
    outer loop
      vertex -49.7046 15.9684 -5.53
      vertex -47.6954 15.9684 -25.53
      vertex -49.7046 15.9684 -25.53
    endloop
  endfacet
  facet normal -0.125333 0.992115 0
    outer loop
      vertex -49.7046 15.9684 -25.53
      vertex -51.6981 15.7166 -5.53
      vertex -49.7046 15.9684 -5.53
    endloop
  endfacet
  facet normal -0.125333 0.992115 0
    outer loop
      vertex -51.6981 15.7166 -5.53
      vertex -49.7046 15.9684 -25.53
      vertex -51.6981 15.7166 -25.53
    endloop
  endfacet
  facet normal -0.24869 0.968583 0
    outer loop
      vertex -51.6981 15.7166 -25.53
      vertex -53.6443 15.2169 -5.53
      vertex -51.6981 15.7166 -5.53
    endloop
  endfacet
  facet normal -0.24869 0.968583 0
    outer loop
      vertex -53.6443 15.2169 -5.53
      vertex -51.6981 15.7166 -25.53
      vertex -53.6443 15.2169 -25.53
    endloop
  endfacet
  facet normal -0.368124 0.929777 0
    outer loop
      vertex -53.6443 15.2169 -25.53
      vertex -55.5125 14.4772 -5.53
      vertex -53.6443 15.2169 -5.53
    endloop
  endfacet
  facet normal -0.368124 0.929777 0
    outer loop
      vertex -55.5125 14.4772 -5.53
      vertex -53.6443 15.2169 -25.53
      vertex -55.5125 14.4772 -25.53
    endloop
  endfacet
  facet normal -0.481754 0.876306 0
    outer loop
      vertex -55.5125 14.4772 -25.53
      vertex -57.2732 13.5092 -5.53
      vertex -55.5125 14.4772 -5.53
    endloop
  endfacet
  facet normal -0.481754 0.876306 0
    outer loop
      vertex -57.2732 13.5092 -5.53
      vertex -55.5125 14.4772 -25.53
      vertex -57.2732 13.5092 -25.53
    endloop
  endfacet
  facet normal -0.587785 0.809017 0
    outer loop
      vertex -57.2732 13.5092 -25.53
      vertex -58.8988 12.3282 -5.53
      vertex -57.2732 13.5092 -5.53
    endloop
  endfacet
  facet normal -0.587785 0.809017 0
    outer loop
      vertex -58.8988 12.3282 -5.53
      vertex -57.2732 13.5092 -25.53
      vertex -58.8988 12.3282 -25.53
    endloop
  endfacet
  facet normal -0.684547 0.728969 0
    outer loop
      vertex -58.8988 12.3282 -25.53
      vertex -60.3635 10.9528 -5.53
      vertex -58.8988 12.3282 -5.53
    endloop
  endfacet
  facet normal -0.684547 0.728969 0
    outer loop
      vertex -60.3635 10.9528 -5.53
      vertex -58.8988 12.3282 -25.53
      vertex -60.3635 10.9528 -25.53
    endloop
  endfacet
  facet normal -0.770514 0.637424 0
    outer loop
      vertex -61.6443 9.40456 -25.53
      vertex -60.3635 10.9528 -5.53
      vertex -60.3635 10.9528 -25.53
    endloop
  endfacet
  facet normal -0.770514 0.637424 0
    outer loop
      vertex -60.3635 10.9528 -5.53
      vertex -61.6443 9.40456 -25.53
      vertex -61.6443 9.40456 -5.53
    endloop
  endfacet
  facet normal -0.844328 0.535826 0
    outer loop
      vertex -62.7209 7.70806 -25.53
      vertex -61.6443 9.40456 -5.53
      vertex -61.6443 9.40456 -25.53
    endloop
  endfacet
  facet normal -0.844328 0.535826 0
    outer loop
      vertex -61.6443 9.40456 -5.53
      vertex -62.7209 7.70806 -25.53
      vertex -62.7209 7.70806 -5.53
    endloop
  endfacet
  facet normal -0.904827 0.42578 0
    outer loop
      vertex -63.5764 5.88999 -25.53
      vertex -62.7209 7.70806 -5.53
      vertex -62.7209 7.70806 -25.53
    endloop
  endfacet
  facet normal -0.904827 0.42578 0
    outer loop
      vertex -62.7209 7.70806 -5.53
      vertex -63.5764 5.88999 -25.53
      vertex -63.5764 5.88999 -5.53
    endloop
  endfacet
  facet normal -0.951056 0.309019 0
    outer loop
      vertex -64.1973 3.97904 -25.53
      vertex -63.5764 5.88999 -5.53
      vertex -63.5764 5.88999 -25.53
    endloop
  endfacet
  facet normal -0.951056 0.309019 0
    outer loop
      vertex -63.5764 5.88999 -5.53
      vertex -64.1973 3.97904 -25.53
      vertex -64.1973 3.97904 -5.53
    endloop
  endfacet
  facet normal -0.982287 0.187381 0
    outer loop
      vertex -64.5738 2.00533 -25.53
      vertex -64.1973 3.97904 -5.53
      vertex -64.1973 3.97904 -25.53
    endloop
  endfacet
  facet normal -0.982287 0.187381 0
    outer loop
      vertex -64.1973 3.97904 -5.53
      vertex -64.5738 2.00533 -25.53
      vertex -64.5738 2.00533 -5.53
    endloop
  endfacet
  facet normal -0.998027 0.062788 0
    outer loop
      vertex -64.7 1.95937e-015 -25.53
      vertex -64.5738 2.00533 -5.53
      vertex -64.5738 2.00533 -25.53
    endloop
  endfacet
  facet normal -0.998027 0.062788 0
    outer loop
      vertex -64.5738 2.00533 -5.53
      vertex -64.7 1.95937e-015 -25.53
      vertex -64.7 1.95937e-015 -5.53
    endloop
  endfacet
  facet normal -0.998027 -0.062788 0
    outer loop
      vertex -64.5738 -2.00533 -25.53
      vertex -64.7 1.95937e-015 -5.53
      vertex -64.7 1.95937e-015 -25.53
    endloop
  endfacet
  facet normal -0.998027 -0.062788 0
    outer loop
      vertex -64.7 1.95937e-015 -5.53
      vertex -64.5738 -2.00533 -25.53
      vertex -64.5738 -2.00533 -5.53
    endloop
  endfacet
  facet normal -0.982287 -0.187381 0
    outer loop
      vertex -64.1973 -3.97904 -25.53
      vertex -64.5738 -2.00533 -5.53
      vertex -64.5738 -2.00533 -25.53
    endloop
  endfacet
  facet normal -0.982287 -0.187381 0
    outer loop
      vertex -64.5738 -2.00533 -5.53
      vertex -64.1973 -3.97904 -25.53
      vertex -64.1973 -3.97904 -5.53
    endloop
  endfacet
  facet normal -0.951056 -0.309019 0
    outer loop
      vertex -63.5764 -5.88999 -25.53
      vertex -64.1973 -3.97904 -5.53
      vertex -64.1973 -3.97904 -25.53
    endloop
  endfacet
  facet normal -0.951056 -0.309019 0
    outer loop
      vertex -64.1973 -3.97904 -5.53
      vertex -63.5764 -5.88999 -25.53
      vertex -63.5764 -5.88999 -5.53
    endloop
  endfacet
  facet normal -0.904827 -0.42578 0
    outer loop
      vertex -62.7209 -7.70806 -25.53
      vertex -63.5764 -5.88999 -5.53
      vertex -63.5764 -5.88999 -25.53
    endloop
  endfacet
  facet normal -0.904827 -0.42578 0
    outer loop
      vertex -63.5764 -5.88999 -5.53
      vertex -62.7209 -7.70806 -25.53
      vertex -62.7209 -7.70806 -5.53
    endloop
  endfacet
  facet normal -0.844328 -0.535826 0
    outer loop
      vertex -61.6443 -9.40456 -25.53
      vertex -62.7209 -7.70806 -5.53
      vertex -62.7209 -7.70806 -25.53
    endloop
  endfacet
  facet normal -0.844328 -0.535826 0
    outer loop
      vertex -62.7209 -7.70806 -5.53
      vertex -61.6443 -9.40456 -25.53
      vertex -61.6443 -9.40456 -5.53
    endloop
  endfacet
  facet normal -0.770514 -0.637424 0
    outer loop
      vertex -60.3635 -10.9528 -25.53
      vertex -61.6443 -9.40456 -5.53
      vertex -61.6443 -9.40456 -25.53
    endloop
  endfacet
  facet normal -0.770514 -0.637424 0
    outer loop
      vertex -61.6443 -9.40456 -5.53
      vertex -60.3635 -10.9528 -25.53
      vertex -60.3635 -10.9528 -5.53
    endloop
  endfacet
  facet normal -0.684547 -0.728969 0
    outer loop
      vertex -60.3635 -10.9528 -25.53
      vertex -58.8988 -12.3282 -5.53
      vertex -60.3635 -10.9528 -5.53
    endloop
  endfacet
  facet normal -0.684547 -0.728969 -0
    outer loop
      vertex -58.8988 -12.3282 -5.53
      vertex -60.3635 -10.9528 -25.53
      vertex -58.8988 -12.3282 -25.53
    endloop
  endfacet
  facet normal -0.587785 -0.809017 0
    outer loop
      vertex -58.8988 -12.3282 -25.53
      vertex -57.2732 -13.5092 -5.53
      vertex -58.8988 -12.3282 -5.53
    endloop
  endfacet
  facet normal -0.587785 -0.809017 -0
    outer loop
      vertex -57.2732 -13.5092 -5.53
      vertex -58.8988 -12.3282 -25.53
      vertex -57.2732 -13.5092 -25.53
    endloop
  endfacet
  facet normal -0.481754 -0.876306 0
    outer loop
      vertex -57.2732 -13.5092 -25.53
      vertex -55.5125 -14.4772 -5.53
      vertex -57.2732 -13.5092 -5.53
    endloop
  endfacet
  facet normal -0.481754 -0.876306 -0
    outer loop
      vertex -55.5125 -14.4772 -5.53
      vertex -57.2732 -13.5092 -25.53
      vertex -55.5125 -14.4772 -25.53
    endloop
  endfacet
  facet normal -0.368124 -0.929777 0
    outer loop
      vertex -55.5125 -14.4772 -25.53
      vertex -53.6443 -15.2169 -5.53
      vertex -55.5125 -14.4772 -5.53
    endloop
  endfacet
  facet normal -0.368124 -0.929777 -0
    outer loop
      vertex -53.6443 -15.2169 -5.53
      vertex -55.5125 -14.4772 -25.53
      vertex -53.6443 -15.2169 -25.53
    endloop
  endfacet
  facet normal -0.24869 -0.968583 0
    outer loop
      vertex -53.6443 -15.2169 -25.53
      vertex -51.6981 -15.7166 -5.53
      vertex -53.6443 -15.2169 -5.53
    endloop
  endfacet
  facet normal -0.24869 -0.968583 -0
    outer loop
      vertex -51.6981 -15.7166 -5.53
      vertex -53.6443 -15.2169 -25.53
      vertex -51.6981 -15.7166 -25.53
    endloop
  endfacet
  facet normal -0.125333 -0.992115 0
    outer loop
      vertex -51.6981 -15.7166 -25.53
      vertex -49.7046 -15.9684 -5.53
      vertex -51.6981 -15.7166 -5.53
    endloop
  endfacet
  facet normal -0.125333 -0.992115 -0
    outer loop
      vertex -49.7046 -15.9684 -5.53
      vertex -51.6981 -15.7166 -25.53
      vertex -49.7046 -15.9684 -25.53
    endloop
  endfacet
  facet normal 0 -1 0
    outer loop
      vertex -49.7046 -15.9684 -25.53
      vertex -47.6954 -15.9684 -5.53
      vertex -49.7046 -15.9684 -5.53
    endloop
  endfacet
  facet normal 0 -1 -0
    outer loop
      vertex -47.6954 -15.9684 -5.53
      vertex -49.7046 -15.9684 -25.53
      vertex -47.6954 -15.9684 -25.53
    endloop
  endfacet
  facet normal 0.125334 -0.992115 0
    outer loop
      vertex -47.6954 -15.9684 -25.53
      vertex -45.7019 -15.7166 -5.53
      vertex -47.6954 -15.9684 -5.53
    endloop
  endfacet
  facet normal 0.125334 -0.992115 0
    outer loop
      vertex -45.7019 -15.7166 -5.53
      vertex -47.6954 -15.9684 -25.53
      vertex -45.7019 -15.7166 -25.53
    endloop
  endfacet
  facet normal 0.24869 -0.968583 0
    outer loop
      vertex -45.7019 -15.7166 -25.53
      vertex -43.7557 -15.2169 -5.53
      vertex -45.7019 -15.7166 -5.53
    endloop
  endfacet
  facet normal 0.24869 -0.968583 0
    outer loop
      vertex -43.7557 -15.2169 -5.53
      vertex -45.7019 -15.7166 -25.53
      vertex -43.7557 -15.2169 -25.53
    endloop
  endfacet
  facet normal 0.368124 -0.929777 0
    outer loop
      vertex -43.7557 -15.2169 -25.53
      vertex -41.8875 -14.4772 -5.53
      vertex -43.7557 -15.2169 -5.53
    endloop
  endfacet
  facet normal 0.368124 -0.929777 0
    outer loop
      vertex -41.8875 -14.4772 -5.53
      vertex -43.7557 -15.2169 -25.53
      vertex -41.8875 -14.4772 -25.53
    endloop
  endfacet
  facet normal 0.481753 -0.876307 0
    outer loop
      vertex -41.8875 -14.4772 -25.53
      vertex -40.1268 -13.5092 -5.53
      vertex -41.8875 -14.4772 -5.53
    endloop
  endfacet
  facet normal 0.481753 -0.876307 0
    outer loop
      vertex -40.1268 -13.5092 -5.53
      vertex -41.8875 -14.4772 -25.53
      vertex -40.1268 -13.5092 -25.53
    endloop
  endfacet
  facet normal 0.587786 -0.809017 0
    outer loop
      vertex -40.1268 -13.5092 -25.53
      vertex -38.5012 -12.3282 -5.53
      vertex -40.1268 -13.5092 -5.53
    endloop
  endfacet
  facet normal 0.587786 -0.809017 0
    outer loop
      vertex -38.5012 -12.3282 -5.53
      vertex -40.1268 -13.5092 -25.53
      vertex -38.5012 -12.3282 -25.53
    endloop
  endfacet
  facet normal 0.684547 -0.728969 0
    outer loop
      vertex -38.5012 -12.3282 -25.53
      vertex -37.0365 -10.9528 -5.53
      vertex -38.5012 -12.3282 -5.53
    endloop
  endfacet
  facet normal 0.684547 -0.728969 0
    outer loop
      vertex -37.0365 -10.9528 -5.53
      vertex -38.5012 -12.3282 -25.53
      vertex -37.0365 -10.9528 -25.53
    endloop
  endfacet
  facet normal 0.770514 -0.637424 0
    outer loop
      vertex -37.0365 -10.9528 -5.53
      vertex -35.7557 -9.40456 -25.53
      vertex -35.7557 -9.40456 -5.53
    endloop
  endfacet
  facet normal 0.770514 -0.637424 0
    outer loop
      vertex -35.7557 -9.40456 -25.53
      vertex -37.0365 -10.9528 -5.53
      vertex -37.0365 -10.9528 -25.53
    endloop
  endfacet
  facet normal 0.844327 -0.535828 0
    outer loop
      vertex -35.7557 -9.40456 -5.53
      vertex -34.6791 -7.70806 -25.53
      vertex -34.6791 -7.70806 -5.53
    endloop
  endfacet
  facet normal 0.844327 -0.535828 0
    outer loop
      vertex -34.6791 -7.70806 -25.53
      vertex -35.7557 -9.40456 -5.53
      vertex -35.7557 -9.40456 -25.53
    endloop
  endfacet
  facet normal 0.904828 -0.425778 0
    outer loop
      vertex -34.6791 -7.70806 -5.53
      vertex -33.8236 -5.88999 -25.53
      vertex -33.8236 -5.88999 -5.53
    endloop
  endfacet
  facet normal 0.904828 -0.425778 0
    outer loop
      vertex -33.8236 -5.88999 -25.53
      vertex -34.6791 -7.70806 -5.53
      vertex -34.6791 -7.70806 -25.53
    endloop
  endfacet
  facet normal 0.951057 -0.309017 0
    outer loop
      vertex -33.8236 -5.88999 -5.53
      vertex -33.2027 -3.97904 -25.53
      vertex -33.2027 -3.97904 -5.53
    endloop
  endfacet
  facet normal 0.951057 -0.309017 0
    outer loop
      vertex -33.2027 -3.97904 -25.53
      vertex -33.8236 -5.88999 -5.53
      vertex -33.8236 -5.88999 -25.53
    endloop
  endfacet
  facet normal 0.982287 -0.187382 0
    outer loop
      vertex -33.2027 -3.97904 -5.53
      vertex -32.8262 -2.00533 -25.53
      vertex -32.8262 -2.00533 -5.53
    endloop
  endfacet
  facet normal 0.982287 -0.187382 0
    outer loop
      vertex -32.8262 -2.00533 -25.53
      vertex -33.2027 -3.97904 -5.53
      vertex -33.2027 -3.97904 -25.53
    endloop
  endfacet
  facet normal 0.998027 -0.0627899 0
    outer loop
      vertex -32.8262 -2.00533 -5.53
      vertex -32.7 0 -25.53
      vertex -32.7 0 -5.53
    endloop
  endfacet
  facet normal 0.998027 -0.0627899 0
    outer loop
      vertex -32.7 0 -25.53
      vertex -32.8262 -2.00533 -5.53
      vertex -32.8262 -2.00533 -25.53
    endloop
  endfacet
  facet normal 0 0 -1
    outer loop
      vertex -32.8262 -2.00533 -25.53
      vertex -32.8262 2.00533 -25.53
      vertex -32.7 0 -25.53
    endloop
  endfacet
  facet normal 0 0 -1
    outer loop
      vertex -33.2027 -3.97904 -25.53
      vertex -32.8262 2.00533 -25.53
      vertex -32.8262 -2.00533 -25.53
    endloop
  endfacet
  facet normal 0 0 -1
    outer loop
      vertex -33.2027 -3.97904 -25.53
      vertex -33.2027 3.97904 -25.53
      vertex -32.8262 2.00533 -25.53
    endloop
  endfacet
  facet normal 0 0 -1
    outer loop
      vertex -33.8236 -5.88999 -25.53
      vertex -33.2027 3.97904 -25.53
      vertex -33.2027 -3.97904 -25.53
    endloop
  endfacet
  facet normal 0 0 -1
    outer loop
      vertex -33.8236 -5.88999 -25.53
      vertex -33.8236 5.88999 -25.53
      vertex -33.2027 3.97904 -25.53
    endloop
  endfacet
  facet normal 0 0 -1
    outer loop
      vertex -34.6791 -7.70806 -25.53
      vertex -33.8236 5.88999 -25.53
      vertex -33.8236 -5.88999 -25.53
    endloop
  endfacet
  facet normal 0 0 -1
    outer loop
      vertex -34.6791 -7.70806 -25.53
      vertex -34.6791 7.70806 -25.53
      vertex -33.8236 5.88999 -25.53
    endloop
  endfacet
  facet normal 0 0 -1
    outer loop
      vertex -35.7557 -9.40456 -25.53
      vertex -34.6791 7.70806 -25.53
      vertex -34.6791 -7.70806 -25.53
    endloop
  endfacet
  facet normal 0 0 -1
    outer loop
      vertex -35.7557 -9.40456 -25.53
      vertex -35.7557 9.40456 -25.53
      vertex -34.6791 7.70806 -25.53
    endloop
  endfacet
  facet normal 0 0 -1
    outer loop
      vertex -37.0365 -10.9528 -25.53
      vertex -35.7557 9.40456 -25.53
      vertex -35.7557 -9.40456 -25.53
    endloop
  endfacet
  facet normal 0 0 -1
    outer loop
      vertex -37.0365 -10.9528 -25.53
      vertex -37.0365 10.9528 -25.53
      vertex -35.7557 9.40456 -25.53
    endloop
  endfacet
  facet normal 0 0 -1
    outer loop
      vertex -38.5012 -12.3282 -25.53
      vertex -37.0365 10.9528 -25.53
      vertex -37.0365 -10.9528 -25.53
    endloop
  endfacet
  facet normal 0 0 -1
    outer loop
      vertex -38.5012 -12.3282 -25.53
      vertex -38.5012 12.3282 -25.53
      vertex -37.0365 10.9528 -25.53
    endloop
  endfacet
  facet normal 0 0 -1
    outer loop
      vertex -40.1268 -13.5092 -25.53
      vertex -38.5012 12.3282 -25.53
      vertex -38.5012 -12.3282 -25.53
    endloop
  endfacet
  facet normal 0 0 -1
    outer loop
      vertex -40.1268 -13.5092 -25.53
      vertex -40.1268 13.5092 -25.53
      vertex -38.5012 12.3282 -25.53
    endloop
  endfacet
  facet normal 0 0 -1
    outer loop
      vertex -41.8875 -14.4772 -25.53
      vertex -40.1268 13.5092 -25.53
      vertex -40.1268 -13.5092 -25.53
    endloop
  endfacet
  facet normal 0 0 -1
    outer loop
      vertex -41.8875 -14.4772 -25.53
      vertex -41.8875 14.4772 -25.53
      vertex -40.1268 13.5092 -25.53
    endloop
  endfacet
  facet normal 0 0 -1
    outer loop
      vertex -43.7557 -15.2169 -25.53
      vertex -41.8875 14.4772 -25.53
      vertex -41.8875 -14.4772 -25.53
    endloop
  endfacet
  facet normal 0 0 -1
    outer loop
      vertex -43.7557 -15.2169 -25.53
      vertex -43.7557 15.2169 -25.53
      vertex -41.8875 14.4772 -25.53
    endloop
  endfacet
  facet normal 0 0 -1
    outer loop
      vertex -45.7019 -15.7166 -25.53
      vertex -43.7557 15.2169 -25.53
      vertex -43.7557 -15.2169 -25.53
    endloop
  endfacet
  facet normal 0 0 -1
    outer loop
      vertex -45.7019 -15.7166 -25.53
      vertex -45.7019 15.7166 -25.53
      vertex -43.7557 15.2169 -25.53
    endloop
  endfacet
  facet normal 0 0 -1
    outer loop
      vertex -47.6954 -15.9684 -25.53
      vertex -45.7019 15.7166 -25.53
      vertex -45.7019 -15.7166 -25.53
    endloop
  endfacet
  facet normal 0 0 -1
    outer loop
      vertex -47.6954 -15.9684 -25.53
      vertex -47.6954 15.9684 -25.53
      vertex -45.7019 15.7166 -25.53
    endloop
  endfacet
  facet normal 0 0 -1
    outer loop
      vertex -49.7046 -15.9684 -25.53
      vertex -47.6954 15.9684 -25.53
      vertex -47.6954 -15.9684 -25.53
    endloop
  endfacet
  facet normal 0 0 -1
    outer loop
      vertex -49.7046 -15.9684 -25.53
      vertex -49.7046 15.9684 -25.53
      vertex -47.6954 15.9684 -25.53
    endloop
  endfacet
  facet normal 0 0 -1
    outer loop
      vertex -51.6981 -15.7166 -25.53
      vertex -49.7046 15.9684 -25.53
      vertex -49.7046 -15.9684 -25.53
    endloop
  endfacet
  facet normal 0 0 -1
    outer loop
      vertex -51.6981 -15.7166 -25.53
      vertex -51.6981 15.7166 -25.53
      vertex -49.7046 15.9684 -25.53
    endloop
  endfacet
  facet normal 0 0 -1
    outer loop
      vertex -53.6443 -15.2169 -25.53
      vertex -51.6981 15.7166 -25.53
      vertex -51.6981 -15.7166 -25.53
    endloop
  endfacet
  facet normal 0 0 -1
    outer loop
      vertex -53.6443 -15.2169 -25.53
      vertex -53.6443 15.2169 -25.53
      vertex -51.6981 15.7166 -25.53
    endloop
  endfacet
  facet normal 0 0 -1
    outer loop
      vertex -55.5125 -14.4772 -25.53
      vertex -53.6443 15.2169 -25.53
      vertex -53.6443 -15.2169 -25.53
    endloop
  endfacet
  facet normal 0 0 -1
    outer loop
      vertex -55.5125 -14.4772 -25.53
      vertex -55.5125 14.4772 -25.53
      vertex -53.6443 15.2169 -25.53
    endloop
  endfacet
  facet normal 0 0 -1
    outer loop
      vertex -57.2732 -13.5092 -25.53
      vertex -55.5125 14.4772 -25.53
      vertex -55.5125 -14.4772 -25.53
    endloop
  endfacet
  facet normal 0 0 -1
    outer loop
      vertex -57.2732 -13.5092 -25.53
      vertex -57.2732 13.5092 -25.53
      vertex -55.5125 14.4772 -25.53
    endloop
  endfacet
  facet normal 0 0 -1
    outer loop
      vertex -58.8988 -12.3282 -25.53
      vertex -57.2732 13.5092 -25.53
      vertex -57.2732 -13.5092 -25.53
    endloop
  endfacet
  facet normal 0 0 -1
    outer loop
      vertex -58.8988 -12.3282 -25.53
      vertex -58.8988 12.3282 -25.53
      vertex -57.2732 13.5092 -25.53
    endloop
  endfacet
  facet normal 0 0 -1
    outer loop
      vertex -60.3635 -10.9528 -25.53
      vertex -58.8988 12.3282 -25.53
      vertex -58.8988 -12.3282 -25.53
    endloop
  endfacet
  facet normal 0 0 -1
    outer loop
      vertex -60.3635 -10.9528 -25.53
      vertex -60.3635 10.9528 -25.53
      vertex -58.8988 12.3282 -25.53
    endloop
  endfacet
  facet normal 0 0 -1
    outer loop
      vertex -61.6443 -9.40456 -25.53
      vertex -60.3635 10.9528 -25.53
      vertex -60.3635 -10.9528 -25.53
    endloop
  endfacet
  facet normal 0 0 -1
    outer loop
      vertex -61.6443 -9.40456 -25.53
      vertex -61.6443 9.40456 -25.53
      vertex -60.3635 10.9528 -25.53
    endloop
  endfacet
  facet normal 0 0 -1
    outer loop
      vertex -62.7209 -7.70806 -25.53
      vertex -61.6443 9.40456 -25.53
      vertex -61.6443 -9.40456 -25.53
    endloop
  endfacet
  facet normal 0 0 -1
    outer loop
      vertex -62.7209 -7.70806 -25.53
      vertex -62.7209 7.70806 -25.53
      vertex -61.6443 9.40456 -25.53
    endloop
  endfacet
  facet normal 0 0 -1
    outer loop
      vertex -63.5764 -5.88999 -25.53
      vertex -62.7209 7.70806 -25.53
      vertex -62.7209 -7.70806 -25.53
    endloop
  endfacet
  facet normal 0 0 -1
    outer loop
      vertex -63.5764 -5.88999 -25.53
      vertex -63.5764 5.88999 -25.53
      vertex -62.7209 7.70806 -25.53
    endloop
  endfacet
  facet normal 0 0 -1
    outer loop
      vertex -64.1973 -3.97904 -25.53
      vertex -63.5764 5.88999 -25.53
      vertex -63.5764 -5.88999 -25.53
    endloop
  endfacet
  facet normal 0 0 -1
    outer loop
      vertex -64.1973 -3.97904 -25.53
      vertex -64.1973 3.97904 -25.53
      vertex -63.5764 5.88999 -25.53
    endloop
  endfacet
  facet normal 0 0 -1
    outer loop
      vertex -64.5738 -2.00533 -25.53
      vertex -64.1973 3.97904 -25.53
      vertex -64.1973 -3.97904 -25.53
    endloop
  endfacet
  facet normal 0 0 -1
    outer loop
      vertex -64.5738 -2.00533 -25.53
      vertex -64.5738 2.00533 -25.53
      vertex -64.1973 3.97904 -25.53
    endloop
  endfacet
  facet normal 0 -0 -1
    outer loop
      vertex -64.5738 2.00533 -25.53
      vertex -64.5738 -2.00533 -25.53
      vertex -64.7 1.95937e-015 -25.53
    endloop
  endfacet
  facet normal 0 0 1
    outer loop
      vertex -32.8262 2.00533 -5.53
      vertex -32.8262 -2.00533 -5.53
      vertex -32.7 0 -5.53
    endloop
  endfacet
  facet normal 0 0 1
    outer loop
      vertex -33.2027 3.97904 -5.53
      vertex -32.8262 -2.00533 -5.53
      vertex -32.8262 2.00533 -5.53
    endloop
  endfacet
  facet normal 0 0 1
    outer loop
      vertex -33.2027 3.97904 -5.53
      vertex -33.2027 -3.97904 -5.53
      vertex -32.8262 -2.00533 -5.53
    endloop
  endfacet
  facet normal 0 0 1
    outer loop
      vertex -33.8236 5.88999 -5.53
      vertex -33.2027 -3.97904 -5.53
      vertex -33.2027 3.97904 -5.53
    endloop
  endfacet
  facet normal 0 0 1
    outer loop
      vertex -33.8236 5.88999 -5.53
      vertex -33.8236 -5.88999 -5.53
      vertex -33.2027 -3.97904 -5.53
    endloop
  endfacet
  facet normal 0 0 1
    outer loop
      vertex -34.6791 7.70806 -5.53
      vertex -33.8236 -5.88999 -5.53
      vertex -33.8236 5.88999 -5.53
    endloop
  endfacet
  facet normal 0 0 1
    outer loop
      vertex -34.6791 7.70806 -5.53
      vertex -34.6791 -7.70806 -5.53
      vertex -33.8236 -5.88999 -5.53
    endloop
  endfacet
  facet normal 0 0 1
    outer loop
      vertex -35.7557 9.40456 -5.53
      vertex -34.6791 -7.70806 -5.53
      vertex -34.6791 7.70806 -5.53
    endloop
  endfacet
  facet normal 0 0 1
    outer loop
      vertex -35.7557 9.40456 -5.53
      vertex -35.7557 -9.40456 -5.53
      vertex -34.6791 -7.70806 -5.53
    endloop
  endfacet
  facet normal 0 0 1
    outer loop
      vertex -37.0365 10.9528 -5.53
      vertex -35.7557 -9.40456 -5.53
      vertex -35.7557 9.40456 -5.53
    endloop
  endfacet
  facet normal 0 0 1
    outer loop
      vertex -37.0365 10.9528 -5.53
      vertex -37.0365 -10.9528 -5.53
      vertex -35.7557 -9.40456 -5.53
    endloop
  endfacet
  facet normal 0 0 1
    outer loop
      vertex -38.5012 12.3282 -5.53
      vertex -37.0365 -10.9528 -5.53
      vertex -37.0365 10.9528 -5.53
    endloop
  endfacet
  facet normal 0 0 1
    outer loop
      vertex -38.5012 12.3282 -5.53
      vertex -38.5012 -12.3282 -5.53
      vertex -37.0365 -10.9528 -5.53
    endloop
  endfacet
  facet normal 0 0 1
    outer loop
      vertex -40.1268 13.5092 -5.53
      vertex -38.5012 -12.3282 -5.53
      vertex -38.5012 12.3282 -5.53
    endloop
  endfacet
  facet normal 0 0 1
    outer loop
      vertex -40.1268 13.5092 -5.53
      vertex -40.1268 -13.5092 -5.53
      vertex -38.5012 -12.3282 -5.53
    endloop
  endfacet
  facet normal 0 0 1
    outer loop
      vertex -41.8875 14.4772 -5.53
      vertex -40.1268 -13.5092 -5.53
      vertex -40.1268 13.5092 -5.53
    endloop
  endfacet
  facet normal 0 0 1
    outer loop
      vertex -41.8875 14.4772 -5.53
      vertex -41.8875 -14.4772 -5.53
      vertex -40.1268 -13.5092 -5.53
    endloop
  endfacet
  facet normal 0 0 1
    outer loop
      vertex -43.7557 15.2169 -5.53
      vertex -41.8875 -14.4772 -5.53
      vertex -41.8875 14.4772 -5.53
    endloop
  endfacet
  facet normal 0 0 1
    outer loop
      vertex -43.7557 15.2169 -5.53
      vertex -43.7557 -15.2169 -5.53
      vertex -41.8875 -14.4772 -5.53
    endloop
  endfacet
  facet normal 0 0 1
    outer loop
      vertex -45.7019 15.7166 -5.53
      vertex -43.7557 -15.2169 -5.53
      vertex -43.7557 15.2169 -5.53
    endloop
  endfacet
  facet normal 0 0 1
    outer loop
      vertex -45.7019 15.7166 -5.53
      vertex -45.7019 -15.7166 -5.53
      vertex -43.7557 -15.2169 -5.53
    endloop
  endfacet
  facet normal 0 0 1
    outer loop
      vertex -47.6954 15.9684 -5.53
      vertex -45.7019 -15.7166 -5.53
      vertex -45.7019 15.7166 -5.53
    endloop
  endfacet
  facet normal 0 0 1
    outer loop
      vertex -47.6954 15.9684 -5.53
      vertex -47.6954 -15.9684 -5.53
      vertex -45.7019 -15.7166 -5.53
    endloop
  endfacet
  facet normal -0 0 1
    outer loop
      vertex -49.7046 15.9684 -5.53
      vertex -47.6954 -15.9684 -5.53
      vertex -47.6954 15.9684 -5.53
    endloop
  endfacet
  facet normal 0 0 1
    outer loop
      vertex -49.7046 15.9684 -5.53
      vertex -49.7046 -15.9684 -5.53
      vertex -47.6954 -15.9684 -5.53
    endloop
  endfacet
  facet normal -0 0 1
    outer loop
      vertex -51.6981 15.7166 -5.53
      vertex -49.7046 -15.9684 -5.53
      vertex -49.7046 15.9684 -5.53
    endloop
  endfacet
  facet normal 0 0 1
    outer loop
      vertex -51.6981 15.7166 -5.53
      vertex -51.6981 -15.7166 -5.53
      vertex -49.7046 -15.9684 -5.53
    endloop
  endfacet
  facet normal -0 0 1
    outer loop
      vertex -53.6443 15.2169 -5.53
      vertex -51.6981 -15.7166 -5.53
      vertex -51.6981 15.7166 -5.53
    endloop
  endfacet
  facet normal 0 0 1
    outer loop
      vertex -53.6443 15.2169 -5.53
      vertex -53.6443 -15.2169 -5.53
      vertex -51.6981 -15.7166 -5.53
    endloop
  endfacet
  facet normal -0 0 1
    outer loop
      vertex -55.5125 14.4772 -5.53
      vertex -53.6443 -15.2169 -5.53
      vertex -53.6443 15.2169 -5.53
    endloop
  endfacet
  facet normal 0 0 1
    outer loop
      vertex -55.5125 14.4772 -5.53
      vertex -55.5125 -14.4772 -5.53
      vertex -53.6443 -15.2169 -5.53
    endloop
  endfacet
  facet normal -0 0 1
    outer loop
      vertex -57.2732 13.5092 -5.53
      vertex -55.5125 -14.4772 -5.53
      vertex -55.5125 14.4772 -5.53
    endloop
  endfacet
  facet normal 0 0 1
    outer loop
      vertex -57.2732 13.5092 -5.53
      vertex -57.2732 -13.5092 -5.53
      vertex -55.5125 -14.4772 -5.53
    endloop
  endfacet
  facet normal -0 0 1
    outer loop
      vertex -58.8988 12.3282 -5.53
      vertex -57.2732 -13.5092 -5.53
      vertex -57.2732 13.5092 -5.53
    endloop
  endfacet
  facet normal 0 0 1
    outer loop
      vertex -58.8988 12.3282 -5.53
      vertex -58.8988 -12.3282 -5.53
      vertex -57.2732 -13.5092 -5.53
    endloop
  endfacet
  facet normal -0 0 1
    outer loop
      vertex -60.3635 10.9528 -5.53
      vertex -58.8988 -12.3282 -5.53
      vertex -58.8988 12.3282 -5.53
    endloop
  endfacet
  facet normal 0 0 1
    outer loop
      vertex -60.3635 10.9528 -5.53
      vertex -60.3635 -10.9528 -5.53
      vertex -58.8988 -12.3282 -5.53
    endloop
  endfacet
  facet normal -0 0 1
    outer loop
      vertex -61.6443 9.40456 -5.53
      vertex -60.3635 -10.9528 -5.53
      vertex -60.3635 10.9528 -5.53
    endloop
  endfacet
  facet normal 0 0 1
    outer loop
      vertex -61.6443 9.40456 -5.53
      vertex -61.6443 -9.40456 -5.53
      vertex -60.3635 -10.9528 -5.53
    endloop
  endfacet
  facet normal -0 0 1
    outer loop
      vertex -62.7209 7.70806 -5.53
      vertex -61.6443 -9.40456 -5.53
      vertex -61.6443 9.40456 -5.53
    endloop
  endfacet
  facet normal 0 0 1
    outer loop
      vertex -62.7209 7.70806 -5.53
      vertex -62.7209 -7.70806 -5.53
      vertex -61.6443 -9.40456 -5.53
    endloop
  endfacet
  facet normal -0 0 1
    outer loop
      vertex -63.5764 5.88999 -5.53
      vertex -62.7209 -7.70806 -5.53
      vertex -62.7209 7.70806 -5.53
    endloop
  endfacet
  facet normal 0 0 1
    outer loop
      vertex -63.5764 5.88999 -5.53
      vertex -63.5764 -5.88999 -5.53
      vertex -62.7209 -7.70806 -5.53
    endloop
  endfacet
  facet normal -0 0 1
    outer loop
      vertex -64.1973 3.97904 -5.53
      vertex -63.5764 -5.88999 -5.53
      vertex -63.5764 5.88999 -5.53
    endloop
  endfacet
  facet normal 0 0 1
    outer loop
      vertex -64.1973 3.97904 -5.53
      vertex -64.1973 -3.97904 -5.53
      vertex -63.5764 -5.88999 -5.53
    endloop
  endfacet
  facet normal -0 0 1
    outer loop
      vertex -64.5738 2.00533 -5.53
      vertex -64.1973 -3.97904 -5.53
      vertex -64.1973 3.97904 -5.53
    endloop
  endfacet
  facet normal 0 0 1
    outer loop
      vertex -64.5738 2.00533 -5.53
      vertex -64.5738 -2.00533 -5.53
      vertex -64.1973 -3.97904 -5.53
    endloop
  endfacet
  facet normal 0 -0 1
    outer loop
      vertex -64.5738 -2.00533 -5.53
      vertex -64.5738 2.00533 -5.53
      vertex -64.7 1.95937e-015 -5.53
    endloop
  endfacet
endsolid OpenSCAD_Model
