solid OpenSCAD_Model
  facet normal 1 -0 0
    outer loop
      vertex 77.4 -37.6 -41.8834
      vertex 77.4 -34.4 -49.7565
      vertex 77.4 -34.4 -41.8834
    endloop
  endfacet
  facet normal 1 0 0
    outer loop
      vertex 77.4 -34.4 -49.7565
      vertex 77.4 -37.6 -41.8834
      vertex 77.4 -37.6 -49.7565
    endloop
  endfacet
  facet normal 0 0 -1
    outer loop
      vertex 25.9267 -37.6 -55.2015
      vertex 30.09 -34.4 -55.2015
      vertex 30.09 -37.6 -55.2015
    endloop
  endfacet
  facet normal -0 0 -1
    outer loop
      vertex 30.09 -34.4 -55.2015
      vertex 25.9267 -37.6 -55.2015
      vertex 25.9267 -34.4 -55.2015
    endloop
  endfacet
  facet normal 0 0 -1
    outer loop
      vertex 70.21 -37.6 -55.2015
      vertex 73.6667 -34.4 -55.2015
      vertex 73.6667 -37.6 -55.2015
    endloop
  endfacet
  facet normal -0 0 -1
    outer loop
      vertex 73.6667 -34.4 -55.2015
      vertex 70.21 -37.6 -55.2015
      vertex 70.21 -34.4 -55.2015
    endloop
  endfacet
  facet normal -0 0 1
    outer loop
      vertex 25.9267 -34.4 -36.4385
      vertex 30.09 -37.6 -36.4385
      vertex 30.09 -34.4 -36.4385
    endloop
  endfacet
  facet normal 0 0 1
    outer loop
      vertex 30.09 -37.6 -36.4385
      vertex 25.9267 -34.4 -36.4385
      vertex 25.9267 -37.6 -36.4385
    endloop
  endfacet
  facet normal -0 0 1
    outer loop
      vertex 70.21 -34.4 -36.4385
      vertex 73.6667 -37.6 -36.4385
      vertex 73.6667 -34.4 -36.4385
    endloop
  endfacet
  facet normal 0 0 1
    outer loop
      vertex 73.6667 -37.6 -36.4385
      vertex 70.21 -34.4 -36.4385
      vertex 70.21 -37.6 -36.4385
    endloop
  endfacet
  facet normal -0.669131 0 -0.743145
    outer loop
      vertex 23.5455 -37.6 -53.8267
      vertex 24.59 -34.4 -54.7672
      vertex 24.59 -37.6 -54.7672
    endloop
  endfacet
  facet normal -0.669131 0 -0.743145
    outer loop
      vertex 24.59 -34.4 -54.7672
      vertex 23.5455 -37.6 -53.8267
      vertex 23.5455 -34.4 -53.8267
    endloop
  endfacet
  facet normal 0.104528 0 0.994522
    outer loop
      vertex 73.6667 -34.4 -36.4385
      vertex 75.0645 -37.6 -36.5854
      vertex 75.0645 -34.4 -36.5854
    endloop
  endfacet
  facet normal 0.104528 0 0.994522
    outer loop
      vertex 75.0645 -37.6 -36.5854
      vertex 73.6667 -34.4 -36.4385
      vertex 73.6667 -37.6 -36.4385
    endloop
  endfacet
  facet normal 0 1 -0
    outer loop
      vertex 26.8228 -34.4 -38.9621
      vertex 25.9267 -34.4 -36.4385
      vertex 30.09 -34.4 -36.4385
    endloop
  endfacet
  facet normal 0 1 0
    outer loop
      vertex 25.9267 -34.4 -36.4385
      vertex 25.9225 -34.4 -38.4424
      vertex 24.59 -34.4 -36.8728
    endloop
  endfacet
  facet normal -0 1 -0
    outer loop
      vertex 24.8887 -34.4 -38.3337
      vertex 24.59 -34.4 -36.8728
      vertex 25.9225 -34.4 -38.4424
    endloop
  endfacet
  facet normal 0 1 0
    outer loop
      vertex 24.59 -34.4 -36.8728
      vertex 24.8887 -34.4 -38.3337
      vertex 23.5455 -34.4 -37.8133
    endloop
  endfacet
  facet normal 0 1 0
    outer loop
      vertex 25.9267 -34.4 -36.4385
      vertex 26.8228 -34.4 -38.9621
      vertex 25.9225 -34.4 -38.4424
    endloop
  endfacet
  facet normal 0 1 0
    outer loop
      vertex 30.09 -34.4 -36.4385
      vertex 27.4339 -34.4 -39.8032
      vertex 26.8228 -34.4 -38.9621
    endloop
  endfacet
  facet normal 0 1 0
    outer loop
      vertex 30.09 -34.4 -36.4385
      vertex 27.65 -34.4 -40.82
      vertex 27.4339 -34.4 -39.8032
    endloop
  endfacet
  facet normal 0 1 0
    outer loop
      vertex 30.09 -34.4 -36.4385
      vertex 27.4339 -34.4 -41.8368
      vertex 27.65 -34.4 -40.82
    endloop
  endfacet
  facet normal 0 1 0
    outer loop
      vertex 25.9225 -34.4 -43.1976
      vertex 24.8887 -34.4 -48.3337
      vertex 24.8887 -34.4 -43.3063
    endloop
  endfacet
  facet normal 0 1 0
    outer loop
      vertex 25.9225 -34.4 -48.4424
      vertex 25.9225 -34.4 -43.1976
      vertex 26.8228 -34.4 -42.6779
    endloop
  endfacet
  facet normal 0 1 0
    outer loop
      vertex 26.8228 -34.4 -48.9621
      vertex 26.8228 -34.4 -42.6779
      vertex 27.4339 -34.4 -41.8368
    endloop
  endfacet
  facet normal 0 1 0
    outer loop
      vertex 27.4339 -34.4 -49.8032
      vertex 27.4339 -34.4 -41.8368
      vertex 30.09 -34.4 -36.4385
    endloop
  endfacet
  facet normal 0 1 0
    outer loop
      vertex 25.9225 -34.4 -43.1976
      vertex 25.9225 -34.4 -48.4424
      vertex 24.8887 -34.4 -48.3337
    endloop
  endfacet
  facet normal 0 1 0
    outer loop
      vertex 26.8228 -34.4 -42.6779
      vertex 26.8228 -34.4 -48.9621
      vertex 25.9225 -34.4 -48.4424
    endloop
  endfacet
  facet normal 0 1 0
    outer loop
      vertex 27.4339 -34.4 -41.8368
      vertex 27.4339 -34.4 -49.8032
      vertex 26.8228 -34.4 -48.9621
    endloop
  endfacet
  facet normal 0 1 -0
    outer loop
      vertex 30.09 -34.4 -55.2015
      vertex 27.4339 -34.4 -49.8032
      vertex 30.09 -34.4 -36.4385
    endloop
  endfacet
  facet normal 0 1 0
    outer loop
      vertex 24.59 -34.4 -54.7672
      vertex 24.8887 -34.4 -53.3063
      vertex 25.9225 -34.4 -53.1976
    endloop
  endfacet
  facet normal 0 1 0
    outer loop
      vertex 24.8887 -34.4 -53.3063
      vertex 24.59 -34.4 -54.7672
      vertex 23.5455 -34.4 -53.8267
    endloop
  endfacet
  facet normal 0 1 -0
    outer loop
      vertex 25.9267 -34.4 -55.2015
      vertex 25.9225 -34.4 -53.1976
      vertex 26.8228 -34.4 -52.6779
    endloop
  endfacet
  facet normal 0 1 0
    outer loop
      vertex 27.4339 -34.4 -49.8032
      vertex 30.09 -34.4 -55.2015
      vertex 27.65 -34.4 -50.82
    endloop
  endfacet
  facet normal 0 1 0
    outer loop
      vertex 30.09 -34.4 -55.2015
      vertex 27.4339 -34.4 -51.8368
      vertex 27.65 -34.4 -50.82
    endloop
  endfacet
  facet normal 0 1 0
    outer loop
      vertex 30.09 -34.4 -55.2015
      vertex 26.8228 -34.4 -52.6779
      vertex 27.4339 -34.4 -51.8368
    endloop
  endfacet
  facet normal 0 1 0
    outer loop
      vertex 25.9267 -34.4 -55.2015
      vertex 26.8228 -34.4 -52.6779
      vertex 30.09 -34.4 -55.2015
    endloop
  endfacet
  facet normal 0 1 0
    outer loop
      vertex 25.9225 -34.4 -53.1976
      vertex 25.9267 -34.4 -55.2015
      vertex 24.59 -34.4 -54.7672
    endloop
  endfacet
  facet normal 0 1 -0
    outer loop
      vertex 23.9 -34.4 -38.6549
      vertex 23.5455 -34.4 -37.8133
      vertex 24.8887 -34.4 -38.3337
    endloop
  endfacet
  facet normal 0 1 0
    outer loop
      vertex 23.9 -34.4 -38.6549
      vertex 22.9739 -34.4 -39.0973
      vertex 23.5455 -34.4 -37.8133
    endloop
  endfacet
  facet normal 0 1 -0
    outer loop
      vertex 23.1275 -34.4 -39.3505
      vertex 22.9739 -34.4 -39.0973
      vertex 23.9 -34.4 -38.6549
    endloop
  endfacet
  facet normal 0 1 0
    outer loop
      vertex 22.9739 -34.4 -39.0973
      vertex 23.1275 -34.4 -39.3505
      vertex 22.9739 -34.4 -39.6955
    endloop
  endfacet
  facet normal 0 1 -0
    outer loop
      vertex 24.8887 -34.4 -48.3337
      vertex 23.9 -34.4 -42.9851
      vertex 24.8887 -34.4 -43.3063
    endloop
  endfacet
  facet normal 0 1 0
    outer loop
      vertex 23.9 -34.4 -48.6549
      vertex 23.9 -34.4 -42.9851
      vertex 24.8887 -34.4 -48.3337
    endloop
  endfacet
  facet normal 0 1 0
    outer loop
      vertex 23.9 -34.4 -42.9851
      vertex 23.9 -34.4 -48.6549
      vertex 23.1275 -34.4 -42.2895
    endloop
  endfacet
  facet normal 0 1 0
    outer loop
      vertex 23.1275 -34.4 -49.3505
      vertex 23.1275 -34.4 -42.2895
      vertex 23.9 -34.4 -48.6549
    endloop
  endfacet
  facet normal 0 1 0
    outer loop
      vertex 23.1275 -34.4 -42.2895
      vertex 23.1275 -34.4 -49.3505
      vertex 22.9739 -34.4 -41.9445
    endloop
  endfacet
  facet normal 0 1 0
    outer loop
      vertex 22.9739 -34.4 -41.9445
      vertex 23.1275 -34.4 -49.3505
      vertex 22.9739 -34.4 -49.6955
    endloop
  endfacet
  facet normal 0 1 0
    outer loop
      vertex 23.1275 -34.4 -52.2895
      vertex 22.9739 -34.4 -52.5427
      vertex 22.9739 -34.4 -51.9445
    endloop
  endfacet
  facet normal 0 1 0
    outer loop
      vertex 23.9 -34.4 -52.9851
      vertex 22.9739 -34.4 -52.5427
      vertex 23.1275 -34.4 -52.2895
    endloop
  endfacet
  facet normal 0 1 0
    outer loop
      vertex 23.9 -34.4 -52.9851
      vertex 23.5455 -34.4 -53.8267
      vertex 22.9739 -34.4 -52.5427
    endloop
  endfacet
  facet normal 0 1 0
    outer loop
      vertex 23.5455 -34.4 -53.8267
      vertex 23.9 -34.4 -52.9851
      vertex 24.8887 -34.4 -53.3063
    endloop
  endfacet
  facet normal 0 1 -0
    outer loop
      vertex 77.1078 -34.4 -53.2148
      vertex 76.8228 -34.4 -52.6779
      vertex 77.3869 -34.4 -51.9014
    endloop
  endfacet
  facet normal 0 1 0
    outer loop
      vertex 77.1078 -34.4 -53.2148
      vertex 75.9225 -34.4 -53.1976
      vertex 76.8228 -34.4 -52.6779
    endloop
  endfacet
  facet normal 0 1 -0
    outer loop
      vertex 76.2817 -34.4 -54.3518
      vertex 75.9225 -34.4 -53.1976
      vertex 77.1078 -34.4 -53.2148
    endloop
  endfacet
  facet normal 0 1 0
    outer loop
      vertex 75.9225 -34.4 -53.1976
      vertex 76.2817 -34.4 -54.3518
      vertex 74.8887 -34.4 -53.3063
    endloop
  endfacet
  facet normal 0 1 0
    outer loop
      vertex 75.9225 -34.4 -43.1976
      vertex 74.8887 -34.4 -48.3337
      vertex 74.8887 -34.4 -43.3063
    endloop
  endfacet
  facet normal 0 1 0
    outer loop
      vertex 75.9225 -34.4 -48.4424
      vertex 75.9225 -34.4 -43.1976
      vertex 76.8228 -34.4 -42.6779
    endloop
  endfacet
  facet normal 0 1 0
    outer loop
      vertex 76.8228 -34.4 -48.9621
      vertex 76.8228 -34.4 -42.6779
      vertex 77.4 -34.4 -41.8834
    endloop
  endfacet
  facet normal 0 1 0
    outer loop
      vertex 75.9225 -34.4 -43.1976
      vertex 75.9225 -34.4 -48.4424
      vertex 74.8887 -34.4 -48.3337
    endloop
  endfacet
  facet normal 0 1 0
    outer loop
      vertex 76.8228 -34.4 -42.6779
      vertex 76.8228 -34.4 -48.9621
      vertex 75.9225 -34.4 -48.4424
    endloop
  endfacet
  facet normal -0 1 0
    outer loop
      vertex 76.8228 -34.4 -48.9621
      vertex 77.4 -34.4 -41.8834
      vertex 77.4 -34.4 -49.7565
    endloop
  endfacet
  facet normal 0 1 0
    outer loop
      vertex 75.9225 -34.4 -38.4424
      vertex 76.2817 -34.4 -37.2882
      vertex 77.1078 -34.4 -38.4252
    endloop
  endfacet
  facet normal 0 1 0
    outer loop
      vertex 76.2817 -34.4 -37.2882
      vertex 75.9225 -34.4 -38.4424
      vertex 74.8887 -34.4 -38.3337
    endloop
  endfacet
  facet normal 0 1 0
    outer loop
      vertex 77.1078 -34.4 -38.4252
      vertex 76.8228 -34.4 -38.9621
      vertex 75.9225 -34.4 -38.4424
    endloop
  endfacet
  facet normal -0 1 0
    outer loop
      vertex 76.8228 -34.4 -38.9621
      vertex 77.1078 -34.4 -38.4252
      vertex 77.3869 -34.4 -39.7386
    endloop
  endfacet
  facet normal 0 1 -0
    outer loop
      vertex 74.8887 -34.4 -38.3337
      vertex 73.6667 -34.4 -36.4385
      vertex 75.0645 -34.4 -36.5854
    endloop
  endfacet
  facet normal 0 1 0
    outer loop
      vertex 74.8887 -34.4 -38.3337
      vertex 75.0645 -34.4 -36.5854
      vertex 76.2817 -34.4 -37.2882
    endloop
  endfacet
  facet normal 0 1 0
    outer loop
      vertex 73.6667 -34.4 -36.4385
      vertex 74.8887 -34.4 -38.3337
      vertex 73.9 -34.4 -38.6549
    endloop
  endfacet
  facet normal 0 1 0
    outer loop
      vertex 73.1275 -34.4 -39.3505
      vertex 73.6667 -34.4 -36.4385
      vertex 73.9 -34.4 -38.6549
    endloop
  endfacet
  facet normal 0 1 0
    outer loop
      vertex 73.6667 -34.4 -36.4385
      vertex 73.1275 -34.4 -39.3505
      vertex 70.21 -34.4 -36.4385
    endloop
  endfacet
  facet normal 0 1 -0
    outer loop
      vertex 72.7046 -34.4 -40.3002
      vertex 70.21 -34.4 -36.4385
      vertex 73.1275 -34.4 -39.3505
    endloop
  endfacet
  facet normal 0 1 -0
    outer loop
      vertex 72.7046 -34.4 -41.3398
      vertex 70.21 -34.4 -36.4385
      vertex 72.7046 -34.4 -40.3002
    endloop
  endfacet
  facet normal 0 1 0
    outer loop
      vertex 72.7046 -34.4 -50.3002
      vertex 72.7046 -34.4 -41.3398
      vertex 73.1275 -34.4 -42.2895
    endloop
  endfacet
  facet normal 0 1 -0
    outer loop
      vertex 74.8887 -34.4 -48.3337
      vertex 73.9 -34.4 -42.9851
      vertex 74.8887 -34.4 -43.3063
    endloop
  endfacet
  facet normal 0 1 0
    outer loop
      vertex 73.9 -34.4 -48.6549
      vertex 73.9 -34.4 -42.9851
      vertex 74.8887 -34.4 -48.3337
    endloop
  endfacet
  facet normal 0 1 0
    outer loop
      vertex 73.9 -34.4 -42.9851
      vertex 73.9 -34.4 -48.6549
      vertex 73.1275 -34.4 -42.2895
    endloop
  endfacet
  facet normal 0 1 0
    outer loop
      vertex 73.1275 -34.4 -49.3505
      vertex 73.1275 -34.4 -42.2895
      vertex 73.9 -34.4 -48.6549
    endloop
  endfacet
  facet normal 0 1 0
    outer loop
      vertex 72.7046 -34.4 -50.3002
      vertex 73.1275 -34.4 -42.2895
      vertex 73.1275 -34.4 -49.3505
    endloop
  endfacet
  facet normal 0 1 0
    outer loop
      vertex 72.7046 -34.4 -41.3398
      vertex 72.7046 -34.4 -50.3002
      vertex 70.21 -34.4 -36.4385
    endloop
  endfacet
  facet normal 0 1 0
    outer loop
      vertex 70.21 -34.4 -55.2015
      vertex 72.7046 -34.4 -50.3002
      vertex 72.7046 -34.4 -51.3398
    endloop
  endfacet
  facet normal 0 1 -0
    outer loop
      vertex 75.0645 -34.4 -55.0546
      vertex 74.8887 -34.4 -53.3063
      vertex 76.2817 -34.4 -54.3518
    endloop
  endfacet
  facet normal 0 1 0
    outer loop
      vertex 73.6667 -34.4 -55.2015
      vertex 74.8887 -34.4 -53.3063
      vertex 75.0645 -34.4 -55.0546
    endloop
  endfacet
  facet normal 0 1 0
    outer loop
      vertex 74.8887 -34.4 -53.3063
      vertex 73.6667 -34.4 -55.2015
      vertex 73.9 -34.4 -52.9851
    endloop
  endfacet
  facet normal 0 1 0
    outer loop
      vertex 73.9 -34.4 -52.9851
      vertex 73.6667 -34.4 -55.2015
      vertex 73.1275 -34.4 -52.2895
    endloop
  endfacet
  facet normal 0 1 0
    outer loop
      vertex 70.21 -34.4 -55.2015
      vertex 73.1275 -34.4 -52.2895
      vertex 73.6667 -34.4 -55.2015
    endloop
  endfacet
  facet normal 0 1 0
    outer loop
      vertex 72.7046 -34.4 -50.3002
      vertex 70.21 -34.4 -55.2015
      vertex 70.21 -34.4 -36.4385
    endloop
  endfacet
  facet normal 0 1 0
    outer loop
      vertex 73.1275 -34.4 -52.2895
      vertex 70.21 -34.4 -55.2015
      vertex 72.7046 -34.4 -51.3398
    endloop
  endfacet
  facet normal -0.309015 0 0.951057
    outer loop
      vertex 24.59 -34.4 -36.8728
      vertex 25.9267 -37.6 -36.4385
      vertex 25.9267 -34.4 -36.4385
    endloop
  endfacet
  facet normal -0.309015 0 0.951057
    outer loop
      vertex 25.9267 -37.6 -36.4385
      vertex 24.59 -34.4 -36.8728
      vertex 24.59 -37.6 -36.8728
    endloop
  endfacet
  facet normal 0 -1 0
    outer loop
      vertex 22.9739 -37.6 -52.5427
      vertex 23.1275 -37.6 -52.2895
      vertex 22.9739 -37.6 -51.9445
    endloop
  endfacet
  facet normal 0 -1 0
    outer loop
      vertex 22.9739 -37.6 -52.5427
      vertex 23.9 -37.6 -52.9851
      vertex 23.1275 -37.6 -52.2895
    endloop
  endfacet
  facet normal 0 -1 -0
    outer loop
      vertex 23.9 -37.6 -52.9851
      vertex 23.5455 -37.6 -53.8267
      vertex 24.8887 -37.6 -53.3063
    endloop
  endfacet
  facet normal 0 -1 0
    outer loop
      vertex 23.5455 -37.6 -53.8267
      vertex 23.9 -37.6 -52.9851
      vertex 22.9739 -37.6 -52.5427
    endloop
  endfacet
  facet normal 0 -1 0
    outer loop
      vertex 23.9 -37.6 -42.9851
      vertex 24.8887 -37.6 -48.3337
      vertex 24.8887 -37.6 -43.3063
    endloop
  endfacet
  facet normal 0 -1 0
    outer loop
      vertex 23.9 -37.6 -48.6549
      vertex 23.9 -37.6 -42.9851
      vertex 23.1275 -37.6 -42.2895
    endloop
  endfacet
  facet normal 0 -1 0
    outer loop
      vertex 23.1275 -37.6 -49.3505
      vertex 23.1275 -37.6 -42.2895
      vertex 22.9739 -37.6 -41.9445
    endloop
  endfacet
  facet normal 0 -1 0
    outer loop
      vertex 23.9 -37.6 -42.9851
      vertex 23.9 -37.6 -48.6549
      vertex 24.8887 -37.6 -48.3337
    endloop
  endfacet
  facet normal 0 -1 0
    outer loop
      vertex 23.1275 -37.6 -42.2895
      vertex 23.1275 -37.6 -49.3505
      vertex 23.9 -37.6 -48.6549
    endloop
  endfacet
  facet normal -0 -1 0
    outer loop
      vertex 23.1275 -37.6 -49.3505
      vertex 22.9739 -37.6 -41.9445
      vertex 22.9739 -37.6 -49.6955
    endloop
  endfacet
  facet normal 0 -1 0
    outer loop
      vertex 23.5455 -37.6 -37.8133
      vertex 23.9 -37.6 -38.6549
      vertex 24.8887 -37.6 -38.3337
    endloop
  endfacet
  facet normal 0 -1 0
    outer loop
      vertex 22.9739 -37.6 -39.0973
      vertex 23.9 -37.6 -38.6549
      vertex 23.5455 -37.6 -37.8133
    endloop
  endfacet
  facet normal 0 -1 0
    outer loop
      vertex 22.9739 -37.6 -39.0973
      vertex 23.1275 -37.6 -39.3505
      vertex 23.9 -37.6 -38.6549
    endloop
  endfacet
  facet normal -0 -1 0
    outer loop
      vertex 23.1275 -37.6 -39.3505
      vertex 22.9739 -37.6 -39.0973
      vertex 22.9739 -37.6 -39.6955
    endloop
  endfacet
  facet normal 0 -1 0
    outer loop
      vertex 25.9225 -37.6 -38.4424
      vertex 25.9267 -37.6 -36.4385
      vertex 24.59 -37.6 -36.8728
    endloop
  endfacet
  facet normal 0 -1 0
    outer loop
      vertex 24.8887 -37.6 -38.3337
      vertex 24.59 -37.6 -36.8728
      vertex 23.5455 -37.6 -37.8133
    endloop
  endfacet
  facet normal 0 -1 0
    outer loop
      vertex 24.59 -37.6 -36.8728
      vertex 24.8887 -37.6 -38.3337
      vertex 25.9225 -37.6 -38.4424
    endloop
  endfacet
  facet normal 0 -1 0
    outer loop
      vertex 26.8228 -37.6 -38.9621
      vertex 25.9267 -37.6 -36.4385
      vertex 25.9225 -37.6 -38.4424
    endloop
  endfacet
  facet normal 0 -1 0
    outer loop
      vertex 25.9267 -37.6 -36.4385
      vertex 26.8228 -37.6 -38.9621
      vertex 30.09 -37.6 -36.4385
    endloop
  endfacet
  facet normal 0 -1 0
    outer loop
      vertex 27.4339 -37.6 -39.8032
      vertex 30.09 -37.6 -36.4385
      vertex 26.8228 -37.6 -38.9621
    endloop
  endfacet
  facet normal 0 -1 0
    outer loop
      vertex 27.65 -37.6 -40.82
      vertex 30.09 -37.6 -36.4385
      vertex 27.4339 -37.6 -39.8032
    endloop
  endfacet
  facet normal 0 -1 0
    outer loop
      vertex 27.4339 -37.6 -41.8368
      vertex 30.09 -37.6 -36.4385
      vertex 27.65 -37.6 -40.82
    endloop
  endfacet
  facet normal 0 -1 0
    outer loop
      vertex 24.8887 -37.6 -48.3337
      vertex 25.9225 -37.6 -43.1976
      vertex 24.8887 -37.6 -43.3063
    endloop
  endfacet
  facet normal 0 -1 0
    outer loop
      vertex 25.9225 -37.6 -48.4424
      vertex 25.9225 -37.6 -43.1976
      vertex 24.8887 -37.6 -48.3337
    endloop
  endfacet
  facet normal 0 -1 0
    outer loop
      vertex 25.9225 -37.6 -43.1976
      vertex 25.9225 -37.6 -48.4424
      vertex 26.8228 -37.6 -42.6779
    endloop
  endfacet
  facet normal 0 -1 0
    outer loop
      vertex 26.8228 -37.6 -48.9621
      vertex 26.8228 -37.6 -42.6779
      vertex 25.9225 -37.6 -48.4424
    endloop
  endfacet
  facet normal 0 -1 0
    outer loop
      vertex 26.8228 -37.6 -42.6779
      vertex 26.8228 -37.6 -48.9621
      vertex 27.4339 -37.6 -41.8368
    endloop
  endfacet
  facet normal 0 -1 0
    outer loop
      vertex 27.4339 -37.6 -49.8032
      vertex 27.4339 -37.6 -41.8368
      vertex 26.8228 -37.6 -48.9621
    endloop
  endfacet
  facet normal 0 -1 0
    outer loop
      vertex 27.4339 -37.6 -41.8368
      vertex 27.4339 -37.6 -49.8032
      vertex 30.09 -37.6 -36.4385
    endloop
  endfacet
  facet normal 0 -1 0
    outer loop
      vertex 30.09 -37.6 -55.2015
      vertex 27.4339 -37.6 -49.8032
      vertex 27.65 -37.6 -50.82
    endloop
  endfacet
  facet normal 0 -1 0
    outer loop
      vertex 24.59 -37.6 -54.7672
      vertex 24.8887 -37.6 -53.3063
      vertex 23.5455 -37.6 -53.8267
    endloop
  endfacet
  facet normal 0 -1 -0
    outer loop
      vertex 24.8887 -37.6 -53.3063
      vertex 24.59 -37.6 -54.7672
      vertex 25.9225 -37.6 -53.1976
    endloop
  endfacet
  facet normal 0 -1 0
    outer loop
      vertex 25.9267 -37.6 -55.2015
      vertex 25.9225 -37.6 -53.1976
      vertex 24.59 -37.6 -54.7672
    endloop
  endfacet
  facet normal 0 -1 0
    outer loop
      vertex 25.9225 -37.6 -53.1976
      vertex 25.9267 -37.6 -55.2015
      vertex 26.8228 -37.6 -52.6779
    endloop
  endfacet
  facet normal 0 -1 0
    outer loop
      vertex 30.09 -37.6 -55.2015
      vertex 26.8228 -37.6 -52.6779
      vertex 25.9267 -37.6 -55.2015
    endloop
  endfacet
  facet normal 0 -1 0
    outer loop
      vertex 27.4339 -37.6 -49.8032
      vertex 30.09 -37.6 -55.2015
      vertex 30.09 -37.6 -36.4385
    endloop
  endfacet
  facet normal 0 -1 0
    outer loop
      vertex 27.4339 -37.6 -51.8368
      vertex 30.09 -37.6 -55.2015
      vertex 27.65 -37.6 -50.82
    endloop
  endfacet
  facet normal 0 -1 0
    outer loop
      vertex 26.8228 -37.6 -52.6779
      vertex 30.09 -37.6 -55.2015
      vertex 27.4339 -37.6 -51.8368
    endloop
  endfacet
  facet normal 0 -1 0
    outer loop
      vertex 73.1275 -37.6 -39.3505
      vertex 73.6667 -37.6 -36.4385
      vertex 70.21 -37.6 -36.4385
    endloop
  endfacet
  facet normal -0 -1 0
    outer loop
      vertex 74.8887 -37.6 -38.3337
      vertex 73.6667 -37.6 -36.4385
      vertex 73.9 -37.6 -38.6549
    endloop
  endfacet
  facet normal 0 -1 -0
    outer loop
      vertex 75.0645 -37.6 -36.5854
      vertex 74.8887 -37.6 -38.3337
      vertex 76.2817 -37.6 -37.2882
    endloop
  endfacet
  facet normal 0 -1 0
    outer loop
      vertex 73.6667 -37.6 -36.4385
      vertex 74.8887 -37.6 -38.3337
      vertex 75.0645 -37.6 -36.5854
    endloop
  endfacet
  facet normal 0 -1 -0
    outer loop
      vertex 73.6667 -37.6 -36.4385
      vertex 73.1275 -37.6 -39.3505
      vertex 73.9 -37.6 -38.6549
    endloop
  endfacet
  facet normal 0 -1 0
    outer loop
      vertex 70.21 -37.6 -36.4385
      vertex 72.7046 -37.6 -40.3002
      vertex 73.1275 -37.6 -39.3505
    endloop
  endfacet
  facet normal 0 -1 0
    outer loop
      vertex 70.21 -37.6 -36.4385
      vertex 72.7046 -37.6 -41.3398
      vertex 72.7046 -37.6 -40.3002
    endloop
  endfacet
  facet normal 0 -1 0
    outer loop
      vertex 72.7046 -37.6 -50.3002
      vertex 72.7046 -37.6 -41.3398
      vertex 70.21 -37.6 -36.4385
    endloop
  endfacet
  facet normal 0 -1 0
    outer loop
      vertex 73.9 -37.6 -42.9851
      vertex 74.8887 -37.6 -48.3337
      vertex 74.8887 -37.6 -43.3063
    endloop
  endfacet
  facet normal 0 -1 0
    outer loop
      vertex 73.9 -37.6 -48.6549
      vertex 73.9 -37.6 -42.9851
      vertex 73.1275 -37.6 -42.2895
    endloop
  endfacet
  facet normal 0 -1 0
    outer loop
      vertex 72.7046 -37.6 -41.3398
      vertex 72.7046 -37.6 -50.3002
      vertex 73.1275 -37.6 -42.2895
    endloop
  endfacet
  facet normal 0 -1 0
    outer loop
      vertex 73.9 -37.6 -42.9851
      vertex 73.9 -37.6 -48.6549
      vertex 74.8887 -37.6 -48.3337
    endloop
  endfacet
  facet normal 0 -1 0
    outer loop
      vertex 73.1275 -37.6 -42.2895
      vertex 73.1275 -37.6 -49.3505
      vertex 73.9 -37.6 -48.6549
    endloop
  endfacet
  facet normal 0 -1 -0
    outer loop
      vertex 73.1275 -37.6 -42.2895
      vertex 72.7046 -37.6 -50.3002
      vertex 73.1275 -37.6 -49.3505
    endloop
  endfacet
  facet normal 0 -1 0
    outer loop
      vertex 70.21 -37.6 -55.2015
      vertex 72.7046 -37.6 -50.3002
      vertex 70.21 -37.6 -36.4385
    endloop
  endfacet
  facet normal 0 -1 0
    outer loop
      vertex 73.6667 -37.6 -55.2015
      vertex 74.8887 -37.6 -53.3063
      vertex 73.9 -37.6 -52.9851
    endloop
  endfacet
  facet normal 0 -1 0
    outer loop
      vertex 74.8887 -37.6 -53.3063
      vertex 75.0645 -37.6 -55.0546
      vertex 76.2817 -37.6 -54.3518
    endloop
  endfacet
  facet normal 0 -1 0
    outer loop
      vertex 73.6667 -37.6 -55.2015
      vertex 73.9 -37.6 -52.9851
      vertex 73.1275 -37.6 -52.2895
    endloop
  endfacet
  facet normal 0 -1 -0
    outer loop
      vertex 72.7046 -37.6 -50.3002
      vertex 70.21 -37.6 -55.2015
      vertex 72.7046 -37.6 -51.3398
    endloop
  endfacet
  facet normal 0 -1 0
    outer loop
      vertex 70.21 -37.6 -55.2015
      vertex 73.1275 -37.6 -52.2895
      vertex 72.7046 -37.6 -51.3398
    endloop
  endfacet
  facet normal 0 -1 0
    outer loop
      vertex 73.6667 -37.6 -55.2015
      vertex 73.1275 -37.6 -52.2895
      vertex 70.21 -37.6 -55.2015
    endloop
  endfacet
  facet normal 0 -1 -0
    outer loop
      vertex 74.8887 -37.6 -53.3063
      vertex 73.6667 -37.6 -55.2015
      vertex 75.0645 -37.6 -55.0546
    endloop
  endfacet
  facet normal 0 -1 0
    outer loop
      vertex 75.9225 -37.6 -38.4424
      vertex 76.2817 -37.6 -37.2882
      vertex 74.8887 -37.6 -38.3337
    endloop
  endfacet
  facet normal 0 -1 -0
    outer loop
      vertex 76.2817 -37.6 -37.2882
      vertex 75.9225 -37.6 -38.4424
      vertex 77.1078 -37.6 -38.4252
    endloop
  endfacet
  facet normal 0 -1 0
    outer loop
      vertex 76.8228 -37.6 -38.9621
      vertex 77.1078 -37.6 -38.4252
      vertex 75.9225 -37.6 -38.4424
    endloop
  endfacet
  facet normal 0 -1 -0
    outer loop
      vertex 77.1078 -37.6 -38.4252
      vertex 76.8228 -37.6 -38.9621
      vertex 77.3869 -37.6 -39.7386
    endloop
  endfacet
  facet normal 0 -1 0
    outer loop
      vertex 74.8887 -37.6 -48.3337
      vertex 75.9225 -37.6 -43.1976
      vertex 74.8887 -37.6 -43.3063
    endloop
  endfacet
  facet normal 0 -1 0
    outer loop
      vertex 75.9225 -37.6 -48.4424
      vertex 75.9225 -37.6 -43.1976
      vertex 74.8887 -37.6 -48.3337
    endloop
  endfacet
  facet normal 0 -1 0
    outer loop
      vertex 75.9225 -37.6 -43.1976
      vertex 75.9225 -37.6 -48.4424
      vertex 76.8228 -37.6 -42.6779
    endloop
  endfacet
  facet normal 0 -1 0
    outer loop
      vertex 76.8228 -37.6 -48.9621
      vertex 76.8228 -37.6 -42.6779
      vertex 75.9225 -37.6 -48.4424
    endloop
  endfacet
  facet normal 0 -1 0
    outer loop
      vertex 76.8228 -37.6 -42.6779
      vertex 76.8228 -37.6 -48.9621
      vertex 77.4 -37.6 -41.8834
    endloop
  endfacet
  facet normal 0 -1 -0
    outer loop
      vertex 77.4 -37.6 -41.8834
      vertex 76.8228 -37.6 -48.9621
      vertex 77.4 -37.6 -49.7565
    endloop
  endfacet
  facet normal 0 -1 0
    outer loop
      vertex 76.8228 -37.6 -52.6779
      vertex 77.1078 -37.6 -53.2148
      vertex 77.3869 -37.6 -51.9014
    endloop
  endfacet
  facet normal 0 -1 0
    outer loop
      vertex 75.9225 -37.6 -53.1976
      vertex 77.1078 -37.6 -53.2148
      vertex 76.8228 -37.6 -52.6779
    endloop
  endfacet
  facet normal 0 -1 0
    outer loop
      vertex 76.2817 -37.6 -54.3518
      vertex 75.9225 -37.6 -53.1976
      vertex 74.8887 -37.6 -53.3063
    endloop
  endfacet
  facet normal 0 -1 0
    outer loop
      vertex 75.9225 -37.6 -53.1976
      vertex 76.2817 -37.6 -54.3518
      vertex 77.1078 -37.6 -53.2148
    endloop
  endfacet
  facet normal 0.499998 0 -0.866026
    outer loop
      vertex 75.0645 -37.6 -55.0546
      vertex 76.2817 -34.4 -54.3518
      vertex 76.2817 -37.6 -54.3518
    endloop
  endfacet
  facet normal 0.499998 0 -0.866026
    outer loop
      vertex 76.2817 -34.4 -54.3518
      vertex 75.0645 -37.6 -55.0546
      vertex 75.0645 -34.4 -55.0546
    endloop
  endfacet
  facet normal 0.978147 -0 0.207916
    outer loop
      vertex 77.1078 -37.6 -38.4252
      vertex 77.3869 -34.4 -39.7386
      vertex 77.1078 -34.4 -38.4252
    endloop
  endfacet
  facet normal 0.978147 0 0.207916
    outer loop
      vertex 77.3869 -34.4 -39.7386
      vertex 77.1078 -37.6 -38.4252
      vertex 77.3869 -37.6 -39.7386
    endloop
  endfacet
  facet normal 0.499998 0 0.866026
    outer loop
      vertex 75.0645 -34.4 -36.5854
      vertex 76.2817 -37.6 -37.2882
      vertex 76.2817 -34.4 -37.2882
    endloop
  endfacet
  facet normal 0.499998 0 0.866026
    outer loop
      vertex 76.2817 -37.6 -37.2882
      vertex 75.0645 -34.4 -36.5854
      vertex 75.0645 -37.6 -36.5854
    endloop
  endfacet
  facet normal -0.309017 0 -0.951056
    outer loop
      vertex 24.59 -37.6 -54.7672
      vertex 25.9267 -34.4 -55.2015
      vertex 25.9267 -37.6 -55.2015
    endloop
  endfacet
  facet normal -0.309017 0 -0.951056
    outer loop
      vertex 25.9267 -34.4 -55.2015
      vertex 24.59 -37.6 -54.7672
      vertex 24.59 -34.4 -54.7672
    endloop
  endfacet
  facet normal -1 0 0
    outer loop
      vertex 22.9739 -37.6 -39.6955
      vertex 22.9739 -34.4 -39.0973
      vertex 22.9739 -34.4 -39.6955
    endloop
  endfacet
  facet normal -1 -0 0
    outer loop
      vertex 22.9739 -34.4 -39.0973
      vertex 22.9739 -37.6 -39.6955
      vertex 22.9739 -37.6 -39.0973
    endloop
  endfacet
  facet normal -1 0 0
    outer loop
      vertex 22.9739 -37.6 -52.5427
      vertex 22.9739 -34.4 -51.9445
      vertex 22.9739 -34.4 -52.5427
    endloop
  endfacet
  facet normal -1 -0 0
    outer loop
      vertex 22.9739 -34.4 -51.9445
      vertex 22.9739 -37.6 -52.5427
      vertex 22.9739 -37.6 -51.9445
    endloop
  endfacet
  facet normal -1 0 0
    outer loop
      vertex 22.9739 -37.6 -49.6955
      vertex 22.9739 -34.4 -41.9445
      vertex 22.9739 -34.4 -49.6955
    endloop
  endfacet
  facet normal -1 -0 0
    outer loop
      vertex 22.9739 -34.4 -41.9445
      vertex 22.9739 -37.6 -49.6955
      vertex 22.9739 -37.6 -41.9445
    endloop
  endfacet
  facet normal -0.913546 0 -0.406736
    outer loop
      vertex 23.5455 -37.6 -53.8267
      vertex 22.9739 -34.4 -52.5427
      vertex 23.5455 -34.4 -53.8267
    endloop
  endfacet
  facet normal -0.913546 -0 -0.406736
    outer loop
      vertex 22.9739 -34.4 -52.5427
      vertex 23.5455 -37.6 -53.8267
      vertex 22.9739 -37.6 -52.5427
    endloop
  endfacet
  facet normal -0.669131 0 0.743145
    outer loop
      vertex 23.5455 -34.4 -37.8133
      vertex 24.59 -37.6 -36.8728
      vertex 24.59 -34.4 -36.8728
    endloop
  endfacet
  facet normal -0.669131 0 0.743145
    outer loop
      vertex 24.59 -37.6 -36.8728
      vertex 23.5455 -34.4 -37.8133
      vertex 23.5455 -37.6 -37.8133
    endloop
  endfacet
  facet normal -0.913546 0 0.406736
    outer loop
      vertex 22.9739 -37.6 -39.0973
      vertex 23.5455 -34.4 -37.8133
      vertex 22.9739 -34.4 -39.0973
    endloop
  endfacet
  facet normal -0.913546 0 0.406736
    outer loop
      vertex 23.5455 -34.4 -37.8133
      vertex 22.9739 -37.6 -39.0973
      vertex 23.5455 -37.6 -37.8133
    endloop
  endfacet
  facet normal 0.809019 -0 0.587783
    outer loop
      vertex 76.2817 -37.6 -37.2882
      vertex 77.1078 -34.4 -38.4252
      vertex 76.2817 -34.4 -37.2882
    endloop
  endfacet
  facet normal 0.809019 0 0.587783
    outer loop
      vertex 77.1078 -34.4 -38.4252
      vertex 76.2817 -37.6 -37.2882
      vertex 77.1078 -37.6 -38.4252
    endloop
  endfacet
  facet normal 0.10453 0 -0.994522
    outer loop
      vertex 73.6667 -37.6 -55.2015
      vertex 75.0645 -34.4 -55.0546
      vertex 75.0645 -37.6 -55.0546
    endloop
  endfacet
  facet normal 0.10453 0 -0.994522
    outer loop
      vertex 75.0645 -34.4 -55.0546
      vertex 73.6667 -37.6 -55.2015
      vertex 73.6667 -34.4 -55.2015
    endloop
  endfacet
  facet normal 0.809018 0 -0.587784
    outer loop
      vertex 77.1078 -37.6 -53.2148
      vertex 76.2817 -34.4 -54.3518
      vertex 77.1078 -34.4 -53.2148
    endloop
  endfacet
  facet normal 0.809018 0 -0.587784
    outer loop
      vertex 76.2817 -34.4 -54.3518
      vertex 77.1078 -37.6 -53.2148
      vertex 76.2817 -37.6 -54.3518
    endloop
  endfacet
  facet normal 0.978147 0 -0.207915
    outer loop
      vertex 77.3869 -37.6 -51.9014
      vertex 77.1078 -34.4 -53.2148
      vertex 77.3869 -34.4 -51.9014
    endloop
  endfacet
  facet normal 0.978147 0 -0.207915
    outer loop
      vertex 77.1078 -34.4 -53.2148
      vertex 77.3869 -37.6 -51.9014
      vertex 77.1078 -37.6 -53.2148
    endloop
  endfacet
  facet normal 1 -0 0
    outer loop
      vertex 72.7046 -37.6 -40.3002
      vertex 72.7046 -34.4 -41.3398
      vertex 72.7046 -34.4 -40.3002
    endloop
  endfacet
  facet normal 1 0 0
    outer loop
      vertex 72.7046 -34.4 -41.3398
      vertex 72.7046 -37.6 -40.3002
      vertex 72.7046 -37.6 -41.3398
    endloop
  endfacet
  facet normal -0.104531 0 -0.994522
    outer loop
      vertex 74.8887 -37.6 -38.3337
      vertex 75.9225 -34.4 -38.4424
      vertex 75.9225 -37.6 -38.4424
    endloop
  endfacet
  facet normal -0.104531 0 -0.994522
    outer loop
      vertex 75.9225 -34.4 -38.4424
      vertex 74.8887 -37.6 -38.3337
      vertex 74.8887 -34.4 -38.3337
    endloop
  endfacet
  facet normal -0.5 0 0.866025
    outer loop
      vertex 75.9225 -34.4 -43.1976
      vertex 76.8228 -37.6 -42.6779
      vertex 76.8228 -34.4 -42.6779
    endloop
  endfacet
  facet normal -0.5 0 0.866025
    outer loop
      vertex 76.8228 -37.6 -42.6779
      vertex 75.9225 -34.4 -43.1976
      vertex 75.9225 -37.6 -43.1976
    endloop
  endfacet
  facet normal -0.104527 0 0.994522
    outer loop
      vertex 74.8887 -34.4 -43.3063
      vertex 75.9225 -37.6 -43.1976
      vertex 75.9225 -34.4 -43.1976
    endloop
  endfacet
  facet normal -0.104527 0 0.994522
    outer loop
      vertex 75.9225 -37.6 -43.1976
      vertex 74.8887 -34.4 -43.3063
      vertex 74.8887 -37.6 -43.3063
    endloop
  endfacet
  facet normal -0.5 0 -0.866025
    outer loop
      vertex 75.9225 -37.6 -38.4424
      vertex 76.8228 -34.4 -38.9621
      vertex 76.8228 -37.6 -38.9621
    endloop
  endfacet
  facet normal -0.5 0 -0.866025
    outer loop
      vertex 76.8228 -34.4 -38.9621
      vertex 75.9225 -37.6 -38.4424
      vertex 75.9225 -34.4 -38.4424
    endloop
  endfacet
  facet normal 0.669129 0 -0.743147
    outer loop
      vertex 73.1275 -37.6 -39.3505
      vertex 73.9 -34.4 -38.6549
      vertex 73.9 -37.6 -38.6549
    endloop
  endfacet
  facet normal 0.669129 0 -0.743147
    outer loop
      vertex 73.9 -34.4 -38.6549
      vertex 73.1275 -37.6 -39.3505
      vertex 73.1275 -34.4 -39.3505
    endloop
  endfacet
  facet normal -0.809016 0 0.587787
    outer loop
      vertex 76.8228 -37.6 -42.6779
      vertex 77.4 -34.4 -41.8834
      vertex 76.8228 -34.4 -42.6779
    endloop
  endfacet
  facet normal -0.809016 0 0.587787
    outer loop
      vertex 77.4 -34.4 -41.8834
      vertex 76.8228 -37.6 -42.6779
      vertex 77.4 -37.6 -41.8834
    endloop
  endfacet
  facet normal -0.809014 0 -0.587789
    outer loop
      vertex 77.3869 -37.6 -39.7386
      vertex 76.8228 -34.4 -38.9621
      vertex 77.3869 -34.4 -39.7386
    endloop
  endfacet
  facet normal -0.809014 -0 -0.587789
    outer loop
      vertex 76.8228 -34.4 -38.9621
      vertex 77.3869 -37.6 -39.7386
      vertex 76.8228 -37.6 -38.9621
    endloop
  endfacet
  facet normal 0.913545 0 -0.406738
    outer loop
      vertex 73.1275 -37.6 -39.3505
      vertex 72.7046 -34.4 -40.3002
      vertex 73.1275 -34.4 -39.3505
    endloop
  endfacet
  facet normal 0.913545 0 -0.406738
    outer loop
      vertex 72.7046 -34.4 -40.3002
      vertex 73.1275 -37.6 -39.3505
      vertex 72.7046 -37.6 -40.3002
    endloop
  endfacet
  facet normal 0.309019 0 -0.951056
    outer loop
      vertex 73.9 -37.6 -38.6549
      vertex 74.8887 -34.4 -38.3337
      vertex 74.8887 -37.6 -38.3337
    endloop
  endfacet
  facet normal 0.309019 0 -0.951056
    outer loop
      vertex 74.8887 -34.4 -38.3337
      vertex 73.9 -37.6 -38.6549
      vertex 73.9 -34.4 -38.6549
    endloop
  endfacet
  facet normal 0.309016 0 0.951057
    outer loop
      vertex 73.9 -34.4 -42.9851
      vertex 74.8887 -37.6 -43.3063
      vertex 74.8887 -34.4 -43.3063
    endloop
  endfacet
  facet normal 0.309016 0 0.951057
    outer loop
      vertex 74.8887 -37.6 -43.3063
      vertex 73.9 -34.4 -42.9851
      vertex 73.9 -37.6 -42.9851
    endloop
  endfacet
  facet normal 0.913545 -0 0.406738
    outer loop
      vertex 72.7046 -37.6 -41.3398
      vertex 73.1275 -34.4 -42.2895
      vertex 72.7046 -34.4 -41.3398
    endloop
  endfacet
  facet normal 0.913545 0 0.406738
    outer loop
      vertex 73.1275 -34.4 -42.2895
      vertex 72.7046 -37.6 -41.3398
      vertex 73.1275 -37.6 -42.2895
    endloop
  endfacet
  facet normal 0.669131 0 0.743145
    outer loop
      vertex 73.1275 -34.4 -42.2895
      vertex 73.9 -37.6 -42.9851
      vertex 73.9 -34.4 -42.9851
    endloop
  endfacet
  facet normal 0.669131 0 0.743145
    outer loop
      vertex 73.9 -37.6 -42.9851
      vertex 73.1275 -34.4 -42.2895
      vertex 73.1275 -37.6 -42.2895
    endloop
  endfacet
  facet normal -0.809014 0 -0.587789
    outer loop
      vertex 77.4 -37.6 -49.7565
      vertex 76.8228 -34.4 -48.9621
      vertex 77.4 -34.4 -49.7565
    endloop
  endfacet
  facet normal -0.809014 -0 -0.587789
    outer loop
      vertex 76.8228 -34.4 -48.9621
      vertex 77.4 -37.6 -49.7565
      vertex 76.8228 -37.6 -48.9621
    endloop
  endfacet
  facet normal 1 -0 0
    outer loop
      vertex 72.7046 -37.6 -50.3002
      vertex 72.7046 -34.4 -51.3398
      vertex 72.7046 -34.4 -50.3002
    endloop
  endfacet
  facet normal 1 0 0
    outer loop
      vertex 72.7046 -34.4 -51.3398
      vertex 72.7046 -37.6 -50.3002
      vertex 72.7046 -37.6 -51.3398
    endloop
  endfacet
  facet normal -0.104531 0 -0.994522
    outer loop
      vertex 74.8887 -37.6 -48.3337
      vertex 75.9225 -34.4 -48.4424
      vertex 75.9225 -37.6 -48.4424
    endloop
  endfacet
  facet normal -0.104531 0 -0.994522
    outer loop
      vertex 75.9225 -34.4 -48.4424
      vertex 74.8887 -37.6 -48.3337
      vertex 74.8887 -34.4 -48.3337
    endloop
  endfacet
  facet normal -0.5 0 -0.866025
    outer loop
      vertex 75.9225 -37.6 -48.4424
      vertex 76.8228 -34.4 -48.9621
      vertex 76.8228 -37.6 -48.9621
    endloop
  endfacet
  facet normal -0.5 0 -0.866025
    outer loop
      vertex 76.8228 -34.4 -48.9621
      vertex 75.9225 -37.6 -48.4424
      vertex 75.9225 -34.4 -48.4424
    endloop
  endfacet
  facet normal 0.669129 0 -0.743147
    outer loop
      vertex 73.1275 -37.6 -49.3505
      vertex 73.9 -34.4 -48.6549
      vertex 73.9 -37.6 -48.6549
    endloop
  endfacet
  facet normal 0.669129 0 -0.743147
    outer loop
      vertex 73.9 -34.4 -48.6549
      vertex 73.1275 -37.6 -49.3505
      vertex 73.1275 -34.4 -49.3505
    endloop
  endfacet
  facet normal 0.913545 -0 0.406738
    outer loop
      vertex 72.7046 -37.6 -51.3398
      vertex 73.1275 -34.4 -52.2895
      vertex 72.7046 -34.4 -51.3398
    endloop
  endfacet
  facet normal 0.913545 0 0.406738
    outer loop
      vertex 73.1275 -34.4 -52.2895
      vertex 72.7046 -37.6 -51.3398
      vertex 73.1275 -37.6 -52.2895
    endloop
  endfacet
  facet normal 0.669129 0 0.743147
    outer loop
      vertex 73.1275 -34.4 -52.2895
      vertex 73.9 -37.6 -52.9851
      vertex 73.9 -34.4 -52.9851
    endloop
  endfacet
  facet normal 0.669129 0 0.743147
    outer loop
      vertex 73.9 -37.6 -52.9851
      vertex 73.1275 -34.4 -52.2895
      vertex 73.1275 -37.6 -52.2895
    endloop
  endfacet
  facet normal 0.913545 0 -0.406738
    outer loop
      vertex 73.1275 -37.6 -49.3505
      vertex 72.7046 -34.4 -50.3002
      vertex 73.1275 -34.4 -49.3505
    endloop
  endfacet
  facet normal 0.913545 0 -0.406738
    outer loop
      vertex 72.7046 -34.4 -50.3002
      vertex 73.1275 -37.6 -49.3505
      vertex 72.7046 -37.6 -50.3002
    endloop
  endfacet
  facet normal 0.309019 0 -0.951056
    outer loop
      vertex 73.9 -37.6 -48.6549
      vertex 74.8887 -34.4 -48.3337
      vertex 74.8887 -37.6 -48.3337
    endloop
  endfacet
  facet normal 0.309019 0 -0.951056
    outer loop
      vertex 74.8887 -34.4 -48.3337
      vertex 73.9 -37.6 -48.6549
      vertex 73.9 -34.4 -48.6549
    endloop
  endfacet
  facet normal -0.104531 0 0.994522
    outer loop
      vertex 74.8887 -34.4 -53.3063
      vertex 75.9225 -37.6 -53.1976
      vertex 75.9225 -34.4 -53.1976
    endloop
  endfacet
  facet normal -0.104531 0 0.994522
    outer loop
      vertex 75.9225 -37.6 -53.1976
      vertex 74.8887 -34.4 -53.3063
      vertex 74.8887 -37.6 -53.3063
    endloop
  endfacet
  facet normal 0.309019 0 0.951056
    outer loop
      vertex 73.9 -34.4 -52.9851
      vertex 74.8887 -37.6 -53.3063
      vertex 74.8887 -34.4 -53.3063
    endloop
  endfacet
  facet normal 0.309019 0 0.951056
    outer loop
      vertex 74.8887 -37.6 -53.3063
      vertex 73.9 -34.4 -52.9851
      vertex 73.9 -37.6 -52.9851
    endloop
  endfacet
  facet normal -0.5 0 0.866025
    outer loop
      vertex 75.9225 -34.4 -53.1976
      vertex 76.8228 -37.6 -52.6779
      vertex 76.8228 -34.4 -52.6779
    endloop
  endfacet
  facet normal -0.5 0 0.866025
    outer loop
      vertex 76.8228 -37.6 -52.6779
      vertex 75.9225 -34.4 -53.1976
      vertex 75.9225 -37.6 -53.1976
    endloop
  endfacet
  facet normal -0.809014 0 0.587789
    outer loop
      vertex 76.8228 -37.6 -52.6779
      vertex 77.3869 -34.4 -51.9014
      vertex 76.8228 -34.4 -52.6779
    endloop
  endfacet
  facet normal -0.809014 0 0.587789
    outer loop
      vertex 77.3869 -34.4 -51.9014
      vertex 76.8228 -37.6 -52.6779
      vertex 77.3869 -37.6 -51.9014
    endloop
  endfacet
  facet normal -0.978148 0 -0.20791
    outer loop
      vertex 27.65 -37.6 -40.82
      vertex 27.4339 -34.4 -39.8032
      vertex 27.65 -34.4 -40.82
    endloop
  endfacet
  facet normal -0.978148 -0 -0.20791
    outer loop
      vertex 27.4339 -34.4 -39.8032
      vertex 27.65 -37.6 -40.82
      vertex 27.4339 -37.6 -39.8032
    endloop
  endfacet
  facet normal -0.10453 0 -0.994522
    outer loop
      vertex 24.8887 -37.6 -38.3337
      vertex 25.9225 -34.4 -38.4424
      vertex 25.9225 -37.6 -38.4424
    endloop
  endfacet
  facet normal -0.10453 0 -0.994522
    outer loop
      vertex 25.9225 -34.4 -38.4424
      vertex 24.8887 -37.6 -38.3337
      vertex 24.8887 -34.4 -38.3337
    endloop
  endfacet
  facet normal -0.104527 0 0.994522
    outer loop
      vertex 24.8887 -34.4 -43.3063
      vertex 25.9225 -37.6 -43.1976
      vertex 25.9225 -34.4 -43.1976
    endloop
  endfacet
  facet normal -0.104527 0 0.994522
    outer loop
      vertex 25.9225 -37.6 -43.1976
      vertex 24.8887 -34.4 -43.3063
      vertex 24.8887 -37.6 -43.3063
    endloop
  endfacet
  facet normal 0.66913 0 -0.743145
    outer loop
      vertex 23.1275 -37.6 -39.3505
      vertex 23.9 -34.4 -38.6549
      vertex 23.9 -37.6 -38.6549
    endloop
  endfacet
  facet normal 0.66913 0 -0.743145
    outer loop
      vertex 23.9 -34.4 -38.6549
      vertex 23.1275 -37.6 -39.3505
      vertex 23.1275 -34.4 -39.3505
    endloop
  endfacet
  facet normal -0.978148 0 0.20791
    outer loop
      vertex 27.4339 -37.6 -41.8368
      vertex 27.65 -34.4 -40.82
      vertex 27.4339 -34.4 -41.8368
    endloop
  endfacet
  facet normal -0.978148 0 0.20791
    outer loop
      vertex 27.65 -34.4 -40.82
      vertex 27.4339 -37.6 -41.8368
      vertex 27.65 -37.6 -40.82
    endloop
  endfacet
  facet normal -0.809017 0 0.587785
    outer loop
      vertex 26.8228 -37.6 -42.6779
      vertex 27.4339 -34.4 -41.8368
      vertex 26.8228 -34.4 -42.6779
    endloop
  endfacet
  facet normal -0.809017 0 0.587785
    outer loop
      vertex 27.4339 -34.4 -41.8368
      vertex 26.8228 -37.6 -42.6779
      vertex 27.4339 -37.6 -41.8368
    endloop
  endfacet
  facet normal -0.809016 0 -0.587787
    outer loop
      vertex 27.4339 -37.6 -39.8032
      vertex 26.8228 -34.4 -38.9621
      vertex 27.4339 -34.4 -39.8032
    endloop
  endfacet
  facet normal -0.809016 -0 -0.587787
    outer loop
      vertex 26.8228 -34.4 -38.9621
      vertex 27.4339 -37.6 -39.8032
      vertex 26.8228 -37.6 -38.9621
    endloop
  endfacet
  facet normal -0.5 0 -0.866025
    outer loop
      vertex 25.9225 -37.6 -38.4424
      vertex 26.8228 -34.4 -38.9621
      vertex 26.8228 -37.6 -38.9621
    endloop
  endfacet
  facet normal -0.5 0 -0.866025
    outer loop
      vertex 26.8228 -34.4 -38.9621
      vertex 25.9225 -37.6 -38.4424
      vertex 25.9225 -34.4 -38.4424
    endloop
  endfacet
  facet normal 0.913546 0 -0.406735
    outer loop
      vertex 23.1275 -37.6 -39.3505
      vertex 22.9739 -34.4 -39.6955
      vertex 23.1275 -34.4 -39.3505
    endloop
  endfacet
  facet normal 0.913546 0 -0.406735
    outer loop
      vertex 22.9739 -34.4 -39.6955
      vertex 23.1275 -37.6 -39.3505
      vertex 22.9739 -37.6 -39.6955
    endloop
  endfacet
  facet normal 0.309018 0 -0.951056
    outer loop
      vertex 23.9 -37.6 -38.6549
      vertex 24.8887 -34.4 -38.3337
      vertex 24.8887 -37.6 -38.3337
    endloop
  endfacet
  facet normal 0.309018 0 -0.951056
    outer loop
      vertex 24.8887 -34.4 -38.3337
      vertex 23.9 -37.6 -38.6549
      vertex 23.9 -34.4 -38.6549
    endloop
  endfacet
  facet normal -0.5 0 0.866025
    outer loop
      vertex 25.9225 -34.4 -43.1976
      vertex 26.8228 -37.6 -42.6779
      vertex 26.8228 -34.4 -42.6779
    endloop
  endfacet
  facet normal -0.5 0 0.866025
    outer loop
      vertex 26.8228 -37.6 -42.6779
      vertex 25.9225 -34.4 -43.1976
      vertex 25.9225 -37.6 -43.1976
    endloop
  endfacet
  facet normal 0.309015 0 0.951057
    outer loop
      vertex 23.9 -34.4 -42.9851
      vertex 24.8887 -37.6 -43.3063
      vertex 24.8887 -34.4 -43.3063
    endloop
  endfacet
  facet normal 0.309015 0 0.951057
    outer loop
      vertex 24.8887 -37.6 -43.3063
      vertex 23.9 -34.4 -42.9851
      vertex 23.9 -37.6 -42.9851
    endloop
  endfacet
  facet normal 0.913545 -0 0.406739
    outer loop
      vertex 22.9739 -37.6 -41.9445
      vertex 23.1275 -34.4 -42.2895
      vertex 22.9739 -34.4 -41.9445
    endloop
  endfacet
  facet normal 0.913545 0 0.406739
    outer loop
      vertex 23.1275 -34.4 -42.2895
      vertex 22.9739 -37.6 -41.9445
      vertex 23.1275 -37.6 -42.2895
    endloop
  endfacet
  facet normal 0.669132 0 0.743143
    outer loop
      vertex 23.1275 -34.4 -42.2895
      vertex 23.9 -37.6 -42.9851
      vertex 23.9 -34.4 -42.9851
    endloop
  endfacet
  facet normal 0.669132 0 0.743143
    outer loop
      vertex 23.9 -37.6 -42.9851
      vertex 23.1275 -34.4 -42.2895
      vertex 23.1275 -37.6 -42.2895
    endloop
  endfacet
  facet normal -0.978148 0 -0.20791
    outer loop
      vertex 27.65 -37.6 -50.82
      vertex 27.4339 -34.4 -49.8032
      vertex 27.65 -34.4 -50.82
    endloop
  endfacet
  facet normal -0.978148 -0 -0.20791
    outer loop
      vertex 27.4339 -34.4 -49.8032
      vertex 27.65 -37.6 -50.82
      vertex 27.4339 -37.6 -49.8032
    endloop
  endfacet
  facet normal -0.809016 0 -0.587787
    outer loop
      vertex 27.4339 -37.6 -49.8032
      vertex 26.8228 -34.4 -48.9621
      vertex 27.4339 -34.4 -49.8032
    endloop
  endfacet
  facet normal -0.809016 -0 -0.587787
    outer loop
      vertex 26.8228 -34.4 -48.9621
      vertex 27.4339 -37.6 -49.8032
      vertex 26.8228 -37.6 -48.9621
    endloop
  endfacet
  facet normal -0.10453 0 -0.994522
    outer loop
      vertex 24.8887 -37.6 -48.3337
      vertex 25.9225 -34.4 -48.4424
      vertex 25.9225 -37.6 -48.4424
    endloop
  endfacet
  facet normal -0.10453 0 -0.994522
    outer loop
      vertex 25.9225 -34.4 -48.4424
      vertex 24.8887 -37.6 -48.3337
      vertex 24.8887 -34.4 -48.3337
    endloop
  endfacet
  facet normal -0.5 0 0.866025
    outer loop
      vertex 25.9225 -34.4 -53.1976
      vertex 26.8228 -37.6 -52.6779
      vertex 26.8228 -34.4 -52.6779
    endloop
  endfacet
  facet normal -0.5 0 0.866025
    outer loop
      vertex 26.8228 -37.6 -52.6779
      vertex 25.9225 -34.4 -53.1976
      vertex 25.9225 -37.6 -53.1976
    endloop
  endfacet
  facet normal -0.5 0 -0.866025
    outer loop
      vertex 25.9225 -37.6 -48.4424
      vertex 26.8228 -34.4 -48.9621
      vertex 26.8228 -37.6 -48.9621
    endloop
  endfacet
  facet normal -0.5 0 -0.866025
    outer loop
      vertex 26.8228 -34.4 -48.9621
      vertex 25.9225 -37.6 -48.4424
      vertex 25.9225 -34.4 -48.4424
    endloop
  endfacet
  facet normal 0.66913 0 -0.743145
    outer loop
      vertex 23.1275 -37.6 -49.3505
      vertex 23.9 -34.4 -48.6549
      vertex 23.9 -37.6 -48.6549
    endloop
  endfacet
  facet normal 0.66913 0 -0.743145
    outer loop
      vertex 23.9 -34.4 -48.6549
      vertex 23.1275 -37.6 -49.3505
      vertex 23.1275 -34.4 -49.3505
    endloop
  endfacet
  facet normal 0.309018 0 -0.951056
    outer loop
      vertex 23.9 -37.6 -48.6549
      vertex 24.8887 -34.4 -48.3337
      vertex 24.8887 -37.6 -48.3337
    endloop
  endfacet
  facet normal 0.309018 0 -0.951056
    outer loop
      vertex 24.8887 -34.4 -48.3337
      vertex 23.9 -37.6 -48.6549
      vertex 23.9 -34.4 -48.6549
    endloop
  endfacet
  facet normal 0.913546 0 -0.406735
    outer loop
      vertex 23.1275 -37.6 -49.3505
      vertex 22.9739 -34.4 -49.6955
      vertex 23.1275 -34.4 -49.3505
    endloop
  endfacet
  facet normal 0.913546 0 -0.406735
    outer loop
      vertex 22.9739 -34.4 -49.6955
      vertex 23.1275 -37.6 -49.3505
      vertex 22.9739 -37.6 -49.6955
    endloop
  endfacet
  facet normal -0.10453 0 0.994522
    outer loop
      vertex 24.8887 -34.4 -53.3063
      vertex 25.9225 -37.6 -53.1976
      vertex 25.9225 -34.4 -53.1976
    endloop
  endfacet
  facet normal -0.10453 0 0.994522
    outer loop
      vertex 25.9225 -37.6 -53.1976
      vertex 24.8887 -34.4 -53.3063
      vertex 24.8887 -37.6 -53.3063
    endloop
  endfacet
  facet normal -0.809016 0 0.587787
    outer loop
      vertex 26.8228 -37.6 -52.6779
      vertex 27.4339 -34.4 -51.8368
      vertex 26.8228 -34.4 -52.6779
    endloop
  endfacet
  facet normal -0.809016 0 0.587787
    outer loop
      vertex 27.4339 -34.4 -51.8368
      vertex 26.8228 -37.6 -52.6779
      vertex 27.4339 -37.6 -51.8368
    endloop
  endfacet
  facet normal -0.978148 0 0.20791
    outer loop
      vertex 27.4339 -37.6 -51.8368
      vertex 27.65 -34.4 -50.82
      vertex 27.4339 -34.4 -51.8368
    endloop
  endfacet
  facet normal -0.978148 0 0.20791
    outer loop
      vertex 27.65 -34.4 -50.82
      vertex 27.4339 -37.6 -51.8368
      vertex 27.65 -37.6 -50.82
    endloop
  endfacet
  facet normal 0.309018 0 0.951056
    outer loop
      vertex 23.9 -34.4 -52.9851
      vertex 24.8887 -37.6 -53.3063
      vertex 24.8887 -34.4 -53.3063
    endloop
  endfacet
  facet normal 0.309018 0 0.951056
    outer loop
      vertex 24.8887 -37.6 -53.3063
      vertex 23.9 -34.4 -52.9851
      vertex 23.9 -37.6 -52.9851
    endloop
  endfacet
  facet normal 0.66913 0 0.743145
    outer loop
      vertex 23.1275 -34.4 -52.2895
      vertex 23.9 -37.6 -52.9851
      vertex 23.9 -34.4 -52.9851
    endloop
  endfacet
  facet normal 0.66913 0 0.743145
    outer loop
      vertex 23.9 -37.6 -52.9851
      vertex 23.1275 -34.4 -52.2895
      vertex 23.1275 -37.6 -52.2895
    endloop
  endfacet
  facet normal 0.913546 -0 0.406735
    outer loop
      vertex 22.9739 -37.6 -51.9445
      vertex 23.1275 -34.4 -52.2895
      vertex 22.9739 -34.4 -51.9445
    endloop
  endfacet
  facet normal 0.913546 0 0.406735
    outer loop
      vertex 23.1275 -34.4 -52.2895
      vertex 22.9739 -37.6 -51.9445
      vertex 23.1275 -37.6 -52.2895
    endloop
  endfacet
  facet normal -1 0 0
    outer loop
      vertex 30.09 -6.95 -55.92
      vertex 30.09 -34.4 -55.2015
      vertex 30.09 -6.95 -35.72
    endloop
  endfacet
  facet normal -1 0 0
    outer loop
      vertex 30.09 -47.45 -55.92
      vertex 30.09 -34.4 -55.2015
      vertex 30.09 -6.95 -55.92
    endloop
  endfacet
  facet normal -1 -0 0
    outer loop
      vertex 30.09 -37.6 -55.2015
      vertex 30.09 -47.45 -55.92
      vertex 30.09 -37.6 -36.4385
    endloop
  endfacet
  facet normal -1 -0 0
    outer loop
      vertex 30.09 -34.4 -55.2015
      vertex 30.09 -47.45 -55.92
      vertex 30.09 -37.6 -55.2015
    endloop
  endfacet
  facet normal -1 0 0
    outer loop
      vertex 30.09 -34.4 -36.4385
      vertex 30.09 -6.95 -35.72
      vertex 30.09 -34.4 -55.2015
    endloop
  endfacet
  facet normal -1 0 0
    outer loop
      vertex 30.09 -47.45 -35.72
      vertex 30.09 -34.4 -36.4385
      vertex 30.09 -37.6 -36.4385
    endloop
  endfacet
  facet normal -1 0 0
    outer loop
      vertex 30.09 -34.4 -36.4385
      vertex 30.09 -47.45 -35.72
      vertex 30.09 -6.95 -35.72
    endloop
  endfacet
  facet normal -1 0 0
    outer loop
      vertex 30.09 -47.45 -35.72
      vertex 30.09 -37.6 -36.4385
      vertex 30.09 -47.45 -55.92
    endloop
  endfacet
  facet normal -0 0 1
    outer loop
      vertex 30.09 -6.95 -35.72
      vertex 70.21 -47.45 -35.72
      vertex 70.21 -6.95 -35.72
    endloop
  endfacet
  facet normal 0 0 1
    outer loop
      vertex 70.21 -47.45 -35.72
      vertex 30.09 -6.95 -35.72
      vertex 30.09 -47.45 -35.72
    endloop
  endfacet
  facet normal 1 0 0
    outer loop
      vertex 70.21 -6.95 -35.72
      vertex 70.21 -34.4 -36.4385
      vertex 70.21 -6.95 -55.92
    endloop
  endfacet
  facet normal 1 -0 0
    outer loop
      vertex 70.21 -47.45 -35.72
      vertex 70.21 -34.4 -36.4385
      vertex 70.21 -6.95 -35.72
    endloop
  endfacet
  facet normal 1 0 0
    outer loop
      vertex 70.21 -37.6 -36.4385
      vertex 70.21 -47.45 -35.72
      vertex 70.21 -37.6 -55.2015
    endloop
  endfacet
  facet normal 1 0 0
    outer loop
      vertex 70.21 -34.4 -36.4385
      vertex 70.21 -47.45 -35.72
      vertex 70.21 -37.6 -36.4385
    endloop
  endfacet
  facet normal 1 -0 0
    outer loop
      vertex 70.21 -34.4 -55.2015
      vertex 70.21 -6.95 -55.92
      vertex 70.21 -34.4 -36.4385
    endloop
  endfacet
  facet normal 1 0 0
    outer loop
      vertex 70.21 -47.45 -55.92
      vertex 70.21 -34.4 -55.2015
      vertex 70.21 -37.6 -55.2015
    endloop
  endfacet
  facet normal 1 0 0
    outer loop
      vertex 70.21 -34.4 -55.2015
      vertex 70.21 -47.45 -55.92
      vertex 70.21 -6.95 -55.92
    endloop
  endfacet
  facet normal 1 0 0
    outer loop
      vertex 70.21 -47.45 -55.92
      vertex 70.21 -37.6 -55.2015
      vertex 70.21 -47.45 -35.72
    endloop
  endfacet
  facet normal 0 0 -1
    outer loop
      vertex 30.09 -47.45 -55.92
      vertex 70.21 -6.95 -55.92
      vertex 70.21 -47.45 -55.92
    endloop
  endfacet
  facet normal -0 0 -1
    outer loop
      vertex 70.21 -6.95 -55.92
      vertex 30.09 -47.45 -55.92
      vertex 30.09 -6.95 -55.92
    endloop
  endfacet
  facet normal 0 -1 0
    outer loop
      vertex 30.09 -47.45 -55.92
      vertex 70.21 -47.45 -35.72
      vertex 30.09 -47.45 -35.72
    endloop
  endfacet
  facet normal 0 -1 -0
    outer loop
      vertex 70.21 -47.45 -35.72
      vertex 30.09 -47.45 -55.92
      vertex 70.21 -47.45 -55.92
    endloop
  endfacet
  facet normal 0 1 -0
    outer loop
      vertex 70.21 -6.95 -55.92
      vertex 30.09 -6.95 -35.72
      vertex 70.21 -6.95 -35.72
    endloop
  endfacet
  facet normal 0 1 0
    outer loop
      vertex 30.09 -6.95 -35.72
      vertex 70.21 -6.95 -55.92
      vertex 30.09 -6.95 -55.92
    endloop
  endfacet
endsolid OpenSCAD_Model
