solid OpenSCAD_Model
  facet normal -0.978147 0.207916 0
    outer loop
      vertex -88.4547 43.8899 -1.74
      vertex -88.325 44.5 1.25
      vertex -88.325 44.5 -1.74
    endloop
  endfacet
  facet normal -0.978147 0.207916 0
    outer loop
      vertex -88.325 44.5 1.25
      vertex -88.4547 43.8899 -1.74
      vertex -88.4547 43.8899 1.25
    endloop
  endfacet
  facet normal -0.978147 0.207916 0
    outer loop
      vertex -88.4547 43.8899 -8.74
      vertex -88.325 44.5 -4.25
      vertex -88.325 44.5 -8.74
    endloop
  endfacet
  facet normal -0.978147 0.207916 0
    outer loop
      vertex -88.325 44.5 -4.25
      vertex -88.4547 43.8899 -8.74
      vertex -88.4547 43.8899 -4.25
    endloop
  endfacet
  facet normal 1 -0 0
    outer loop
      vertex -91.2922 44.1881 1.25
      vertex -91.2922 44.8119 -1.74
      vertex -91.2922 44.8119 1.25
    endloop
  endfacet
  facet normal 1 0 0
    outer loop
      vertex -91.2922 44.8119 -1.74
      vertex -91.2922 44.1881 1.25
      vertex -91.2922 44.1881 -1.74
    endloop
  endfacet
  facet normal 1 -0 0
    outer loop
      vertex -91.2922 44.1881 -4.24
      vertex -91.2922 44.8119 -8.74
      vertex -91.2922 44.8119 -4.24
    endloop
  endfacet
  facet normal 1 0 0
    outer loop
      vertex -91.2922 44.8119 -8.74
      vertex -91.2922 44.1881 -4.24
      vertex -91.2922 44.1881 -8.74
    endloop
  endfacet
  facet normal 0.309021 0.951055 -0
    outer loop
      vertex -89.9818 43.0082 -1.74
      vertex -90.575 43.201 1.25
      vertex -89.9818 43.0082 1.25
    endloop
  endfacet
  facet normal 0.309021 0.951055 0
    outer loop
      vertex -90.575 43.201 1.25
      vertex -89.9818 43.0082 -1.74
      vertex -90.575 43.201 -1.74
    endloop
  endfacet
  facet normal 0.309021 0.951055 -0
    outer loop
      vertex -89.9818 43.0082 -8.74
      vertex -90.575 43.201 -4.24
      vertex -89.9818 43.0082 -4.24
    endloop
  endfacet
  facet normal 0.309021 0.951055 0
    outer loop
      vertex -90.575 43.201 -4.24
      vertex -89.9818 43.0082 -8.74
      vertex -90.575 43.201 -8.74
    endloop
  endfacet
  facet normal 0.669128 0.743148 -0
    outer loop
      vertex -90.575 43.201 -1.74
      vertex -91.0385 43.6183 1.25
      vertex -90.575 43.201 1.25
    endloop
  endfacet
  facet normal 0.669128 0.743148 0
    outer loop
      vertex -91.0385 43.6183 1.25
      vertex -90.575 43.201 -1.74
      vertex -91.0385 43.6183 -1.74
    endloop
  endfacet
  facet normal 0.669124 0.743151 -0
    outer loop
      vertex -90.575 43.201 -8.74
      vertex -91.0385 43.6183 -4.24
      vertex -90.575 43.201 -4.24
    endloop
  endfacet
  facet normal 0.669124 0.743151 0
    outer loop
      vertex -91.0385 43.6183 -4.24
      vertex -90.575 43.201 -8.74
      vertex -91.0385 43.6183 -8.74
    endloop
  endfacet
  facet normal -0.104524 -0.994522 0
    outer loop
      vertex -89.9818 45.9918 -4.24
      vertex -89.825 45.9753 -4.25
      vertex -89.825 45.9753 -4.24
    endloop
  endfacet
  facet normal -0.104524 -0.994522 0
    outer loop
      vertex -89.9818 45.9918 -8.74
      vertex -89.825 45.9753 -4.25
      vertex -89.9818 45.9918 -4.24
    endloop
  endfacet
  facet normal -0.104532 -0.994522 2.9663e-007
    outer loop
      vertex -89.3615 45.9266 -8.74
      vertex -89.825 45.9753 -4.25
      vertex -89.9818 45.9918 -8.74
    endloop
  endfacet
  facet normal -0.104535 -0.994521 0
    outer loop
      vertex -89.825 45.9753 -4.25
      vertex -89.3615 45.9266 -8.74
      vertex -89.3615 45.9266 -4.25
    endloop
  endfacet
  facet normal -0.104532 -0.994522 0
    outer loop
      vertex -89.9818 45.9918 -1.74
      vertex -89.3615 45.9266 1.25
      vertex -89.9818 45.9918 1.25
    endloop
  endfacet
  facet normal -0.104532 -0.994522 -0
    outer loop
      vertex -89.3615 45.9266 1.25
      vertex -89.9818 45.9918 -1.74
      vertex -89.3615 45.9266 -1.74
    endloop
  endfacet
  facet normal -0.5 0.866025 0
    outer loop
      vertex -88.8213 43.3853 -1.74
      vertex -89.3615 43.0734 1.25
      vertex -88.8213 43.3853 1.25
    endloop
  endfacet
  facet normal -0.5 0.866025 0
    outer loop
      vertex -89.3615 43.0734 1.25
      vertex -88.8213 43.3853 -1.74
      vertex -89.3615 43.0734 -1.74
    endloop
  endfacet
  facet normal -0.500005 0.866023 0
    outer loop
      vertex -88.8213 43.3853 -8.74
      vertex -89.3615 43.0734 -4.25
      vertex -88.8213 43.3853 -4.25
    endloop
  endfacet
  facet normal -0.500005 0.866023 0
    outer loop
      vertex -89.3615 43.0734 -4.25
      vertex -88.8213 43.3853 -8.74
      vertex -89.3615 43.0734 -8.74
    endloop
  endfacet
  facet normal -0.809016 0.587786 0
    outer loop
      vertex -88.8213 43.3853 -1.74
      vertex -88.4547 43.8899 1.25
      vertex -88.4547 43.8899 -1.74
    endloop
  endfacet
  facet normal -0.809016 0.587786 0
    outer loop
      vertex -88.4547 43.8899 1.25
      vertex -88.8213 43.3853 -1.74
      vertex -88.8213 43.3853 1.25
    endloop
  endfacet
  facet normal -0.809016 0.587786 0
    outer loop
      vertex -88.8213 43.3853 -8.74
      vertex -88.4547 43.8899 -4.25
      vertex -88.4547 43.8899 -8.74
    endloop
  endfacet
  facet normal -0.809016 0.587786 0
    outer loop
      vertex -88.4547 43.8899 -4.25
      vertex -88.8213 43.3853 -8.74
      vertex -88.8213 43.3853 -4.25
    endloop
  endfacet
  facet normal -0.104532 0.994522 0
    outer loop
      vertex -89.3615 43.0734 -1.74
      vertex -89.9818 43.0082 1.25
      vertex -89.3615 43.0734 1.25
    endloop
  endfacet
  facet normal -0.104532 0.994522 0
    outer loop
      vertex -89.9818 43.0082 1.25
      vertex -89.3615 43.0734 -1.74
      vertex -89.9818 43.0082 -1.74
    endloop
  endfacet
  facet normal -0.104527 0.994522 0
    outer loop
      vertex -89.3615 43.0734 -4.25
      vertex -89.3615 43.0734 -8.74
      vertex -89.825 43.0247 -4.25
    endloop
  endfacet
  facet normal -0.104524 0.994522 0
    outer loop
      vertex -89.825 43.0247 -4.25
      vertex -89.9818 43.0082 -4.24
      vertex -89.825 43.0247 -4.24
    endloop
  endfacet
  facet normal -0.104526 0.994522 8.30531e-008
    outer loop
      vertex -89.9818 43.0082 -8.74
      vertex -89.825 43.0247 -4.25
      vertex -89.3615 43.0734 -8.74
    endloop
  endfacet
  facet normal -0.104524 0.994522 0
    outer loop
      vertex -89.825 43.0247 -4.25
      vertex -89.9818 43.0082 -8.74
      vertex -89.9818 43.0082 -4.24
    endloop
  endfacet
  facet normal 0.913547 0.406733 0
    outer loop
      vertex -91.0385 43.6183 1.25
      vertex -91.2922 44.1881 -1.74
      vertex -91.2922 44.1881 1.25
    endloop
  endfacet
  facet normal 0.913547 0.406733 0
    outer loop
      vertex -91.2922 44.1881 -1.74
      vertex -91.0385 43.6183 1.25
      vertex -91.0385 43.6183 -1.74
    endloop
  endfacet
  facet normal 0.913548 0.406731 0
    outer loop
      vertex -91.0385 43.6183 -4.24
      vertex -91.2922 44.1881 -8.74
      vertex -91.2922 44.1881 -4.24
    endloop
  endfacet
  facet normal 0.913548 0.406731 0
    outer loop
      vertex -91.2922 44.1881 -8.74
      vertex -91.0385 43.6183 -4.24
      vertex -91.0385 43.6183 -8.74
    endloop
  endfacet
  facet normal 0 0 1
    outer loop
      vertex -88.4547 45.1101 -8.74
      vertex -88.4547 43.8899 -8.74
      vertex -88.325 44.5 -8.74
    endloop
  endfacet
  facet normal 0 0 1
    outer loop
      vertex -88.8213 45.6147 -8.74
      vertex -88.4547 43.8899 -8.74
      vertex -88.4547 45.1101 -8.74
    endloop
  endfacet
  facet normal 0 0 1
    outer loop
      vertex -88.8213 45.6147 -8.74
      vertex -88.8213 43.3853 -8.74
      vertex -88.4547 43.8899 -8.74
    endloop
  endfacet
  facet normal 0 0 1
    outer loop
      vertex -89.3615 45.9266 -8.74
      vertex -88.8213 43.3853 -8.74
      vertex -88.8213 45.6147 -8.74
    endloop
  endfacet
  facet normal 0 0 1
    outer loop
      vertex -89.3615 45.9266 -8.74
      vertex -89.3615 43.0734 -8.74
      vertex -88.8213 43.3853 -8.74
    endloop
  endfacet
  facet normal 0 0 1
    outer loop
      vertex -89.9818 45.9918 -8.74
      vertex -89.3615 43.0734 -8.74
      vertex -89.3615 45.9266 -8.74
    endloop
  endfacet
  facet normal 0 0 1
    outer loop
      vertex -89.9818 45.9918 -8.74
      vertex -89.9818 43.0082 -8.74
      vertex -89.3615 43.0734 -8.74
    endloop
  endfacet
  facet normal -0 0 1
    outer loop
      vertex -90.575 45.799 -8.74
      vertex -89.9818 43.0082 -8.74
      vertex -89.9818 45.9918 -8.74
    endloop
  endfacet
  facet normal 0 0 1
    outer loop
      vertex -90.575 45.799 -8.74
      vertex -90.575 43.201 -8.74
      vertex -89.9818 43.0082 -8.74
    endloop
  endfacet
  facet normal -0 0 1
    outer loop
      vertex -91.0385 45.3817 -8.74
      vertex -90.575 43.201 -8.74
      vertex -90.575 45.799 -8.74
    endloop
  endfacet
  facet normal 0 0 1
    outer loop
      vertex -91.0385 45.3817 -8.74
      vertex -91.0385 43.6183 -8.74
      vertex -90.575 43.201 -8.74
    endloop
  endfacet
  facet normal -0 0 1
    outer loop
      vertex -91.2922 44.8119 -8.74
      vertex -91.0385 43.6183 -8.74
      vertex -91.0385 45.3817 -8.74
    endloop
  endfacet
  facet normal 0 0 1
    outer loop
      vertex -91.0385 43.6183 -8.74
      vertex -91.2922 44.8119 -8.74
      vertex -91.2922 44.1881 -8.74
    endloop
  endfacet
  facet normal -0.978147 -0.207916 0
    outer loop
      vertex -88.325 44.5 -8.74
      vertex -88.4547 45.1101 -4.25
      vertex -88.4547 45.1101 -8.74
    endloop
  endfacet
  facet normal -0.978147 -0.207916 0
    outer loop
      vertex -88.4547 45.1101 -4.25
      vertex -88.325 44.5 -8.74
      vertex -88.325 44.5 -4.25
    endloop
  endfacet
  facet normal -0.978147 -0.207916 0
    outer loop
      vertex -88.325 44.5 -1.74
      vertex -88.4547 45.1101 1.25
      vertex -88.4547 45.1101 -1.74
    endloop
  endfacet
  facet normal -0.978147 -0.207916 0
    outer loop
      vertex -88.4547 45.1101 1.25
      vertex -88.325 44.5 -1.74
      vertex -88.325 44.5 1.25
    endloop
  endfacet
  facet normal -0.5 -0.866025 0
    outer loop
      vertex -89.3615 45.9266 -1.74
      vertex -88.8213 45.6147 1.25
      vertex -89.3615 45.9266 1.25
    endloop
  endfacet
  facet normal -0.5 -0.866025 -0
    outer loop
      vertex -88.8213 45.6147 1.25
      vertex -89.3615 45.9266 -1.74
      vertex -88.8213 45.6147 -1.74
    endloop
  endfacet
  facet normal -0.5 -0.866025 0
    outer loop
      vertex -89.3615 45.9266 -8.74
      vertex -88.8213 45.6147 -4.25
      vertex -89.3615 45.9266 -4.25
    endloop
  endfacet
  facet normal -0.5 -0.866025 -0
    outer loop
      vertex -88.8213 45.6147 -4.25
      vertex -89.3615 45.9266 -8.74
      vertex -88.8213 45.6147 -8.74
    endloop
  endfacet
  facet normal 0.309021 -0.951055 0
    outer loop
      vertex -90.575 45.799 -8.74
      vertex -89.9818 45.9918 -4.24
      vertex -90.575 45.799 -4.24
    endloop
  endfacet
  facet normal 0.309021 -0.951055 0
    outer loop
      vertex -89.9818 45.9918 -4.24
      vertex -90.575 45.799 -8.74
      vertex -89.9818 45.9918 -8.74
    endloop
  endfacet
  facet normal 0.309021 -0.951055 0
    outer loop
      vertex -90.575 45.799 -1.74
      vertex -89.9818 45.9918 1.25
      vertex -90.575 45.799 1.25
    endloop
  endfacet
  facet normal 0.309021 -0.951055 0
    outer loop
      vertex -89.9818 45.9918 1.25
      vertex -90.575 45.799 -1.74
      vertex -89.9818 45.9918 -1.74
    endloop
  endfacet
  facet normal -0.809016 -0.587786 0
    outer loop
      vertex -88.4547 45.1101 -8.74
      vertex -88.8213 45.6147 -4.25
      vertex -88.8213 45.6147 -8.74
    endloop
  endfacet
  facet normal -0.809016 -0.587786 0
    outer loop
      vertex -88.8213 45.6147 -4.25
      vertex -88.4547 45.1101 -8.74
      vertex -88.4547 45.1101 -4.25
    endloop
  endfacet
  facet normal -0.809016 -0.587786 0
    outer loop
      vertex -88.4547 45.1101 -1.74
      vertex -88.8213 45.6147 1.25
      vertex -88.8213 45.6147 -1.74
    endloop
  endfacet
  facet normal -0.809016 -0.587786 0
    outer loop
      vertex -88.8213 45.6147 1.25
      vertex -88.4547 45.1101 -1.74
      vertex -88.4547 45.1101 1.25
    endloop
  endfacet
  facet normal 0.669128 -0.743148 0
    outer loop
      vertex -91.0385 45.3817 -1.74
      vertex -90.575 45.799 1.25
      vertex -91.0385 45.3817 1.25
    endloop
  endfacet
  facet normal 0.669128 -0.743148 0
    outer loop
      vertex -90.575 45.799 1.25
      vertex -91.0385 45.3817 -1.74
      vertex -90.575 45.799 -1.74
    endloop
  endfacet
  facet normal 0.669128 -0.743148 0
    outer loop
      vertex -91.0385 45.3817 -8.74
      vertex -90.575 45.799 -4.24
      vertex -91.0385 45.3817 -4.24
    endloop
  endfacet
  facet normal 0.669128 -0.743148 0
    outer loop
      vertex -90.575 45.799 -4.24
      vertex -91.0385 45.3817 -8.74
      vertex -90.575 45.799 -8.74
    endloop
  endfacet
  facet normal 0.913547 -0.406733 0
    outer loop
      vertex -91.2922 44.8119 1.25
      vertex -91.0385 45.3817 -1.74
      vertex -91.0385 45.3817 1.25
    endloop
  endfacet
  facet normal 0.913547 -0.406733 0
    outer loop
      vertex -91.0385 45.3817 -1.74
      vertex -91.2922 44.8119 1.25
      vertex -91.2922 44.8119 -1.74
    endloop
  endfacet
  facet normal 0.913547 -0.406733 0
    outer loop
      vertex -91.2922 44.8119 -4.24
      vertex -91.0385 45.3817 -8.74
      vertex -91.0385 45.3817 -4.24
    endloop
  endfacet
  facet normal 0.913547 -0.406733 0
    outer loop
      vertex -91.0385 45.3817 -8.74
      vertex -91.2922 44.8119 -4.24
      vertex -91.2922 44.8119 -8.74
    endloop
  endfacet
  facet normal -1.27062e-005 -1 0
    outer loop
      vertex -91.3261 47.1 -1.74
      vertex -88.3238 47.1 -3.74
      vertex -88.3238 47.1 -1.74
    endloop
  endfacet
  facet normal -1.27062e-005 -1 0
    outer loop
      vertex -91.3261 47.1 -4.24
      vertex -88.3238 47.1 -3.74
      vertex -91.3261 47.1 -1.74
    endloop
  endfacet
  facet normal -1.27062e-005 -1 -0
    outer loop
      vertex -88.3238 47.1 -3.74
      vertex -91.3261 47.1 -4.24
      vertex -88.3238 47.1 -4.24
    endloop
  endfacet
  facet normal -0.866031 0.49999 0
    outer loop
      vertex -88.3238 41.9 -1.75
      vertex -86.8228 44.5 -1.74
      vertex -86.8228 44.5 -1.75
    endloop
  endfacet
  facet normal -0.866031 0.49999 0
    outer loop
      vertex -86.8228 44.5 -1.74
      vertex -88.3238 41.9 -1.75
      vertex -88.3238 41.9 -1.74
    endloop
  endfacet
  facet normal 0 0 1
    outer loop
      vertex -89.825 47.1 -4.24
      vertex -89.9818 45.9918 -4.24
      vertex -89.825 45.9753 -4.24
    endloop
  endfacet
  facet normal 0 0 1
    outer loop
      vertex -89.825 47.1 -4.24
      vertex -90.575 45.799 -4.24
      vertex -89.9818 45.9918 -4.24
    endloop
  endfacet
  facet normal 0 0 1
    outer loop
      vertex -91.3261 47.1 -4.24
      vertex -90.575 45.799 -4.24
      vertex -89.825 47.1 -4.24
    endloop
  endfacet
  facet normal 0 0 1
    outer loop
      vertex -92.8272 44.5 -4.24
      vertex -91.0385 45.3817 -4.24
      vertex -91.3262 47.1 -4.24
    endloop
  endfacet
  facet normal 0 0 1
    outer loop
      vertex -90.575 45.799 -4.24
      vertex -91.3262 47.1 -4.24
      vertex -91.0385 45.3817 -4.24
    endloop
  endfacet
  facet normal -0 0 1
    outer loop
      vertex -91.3262 47.1 -4.24
      vertex -90.575 45.799 -4.24
      vertex -91.3261 47.1 -4.24
    endloop
  endfacet
  facet normal 0 0 1
    outer loop
      vertex -91.3261 47.1 -4.24
      vertex -89.825 47.1 -4.24
      vertex -88.3238 47.1 -4.24
    endloop
  endfacet
  facet normal 0 0 1
    outer loop
      vertex -89.825 43.0247 -4.24
      vertex -89.9818 43.0082 -4.24
      vertex -89.825 41.9 -4.24
    endloop
  endfacet
  facet normal -0 0 1
    outer loop
      vertex -89.825 41.9 -4.24
      vertex -88.3239 41.9 -4.24
      vertex -88.3238 41.9 -4.24
    endloop
  endfacet
  facet normal 0 0 1
    outer loop
      vertex -90.575 43.201 -4.24
      vertex -89.825 41.9 -4.24
      vertex -89.9818 43.0082 -4.24
    endloop
  endfacet
  facet normal 0 0 1
    outer loop
      vertex -91.3262 41.9 -4.24
      vertex -90.575 43.201 -4.24
      vertex -91.0385 43.6183 -4.24
    endloop
  endfacet
  facet normal 0 0 1
    outer loop
      vertex -91.0385 45.3817 -4.24
      vertex -92.8272 44.5 -4.24
      vertex -91.2922 44.8119 -4.24
    endloop
  endfacet
  facet normal 0 0 1
    outer loop
      vertex -89.825 41.9 -4.24
      vertex -91.3262 41.9 -4.24
      vertex -88.3239 41.9 -4.24
    endloop
  endfacet
  facet normal 0 0 1
    outer loop
      vertex -90.575 43.201 -4.24
      vertex -91.3262 41.9 -4.24
      vertex -89.825 41.9 -4.24
    endloop
  endfacet
  facet normal 0 0 1
    outer loop
      vertex -92.8272 44.5 -4.24
      vertex -91.0385 43.6183 -4.24
      vertex -91.2922 44.1881 -4.24
    endloop
  endfacet
  facet normal 0 0 1
    outer loop
      vertex -91.2922 44.8119 -4.24
      vertex -92.8272 44.5 -4.24
      vertex -91.2922 44.1881 -4.24
    endloop
  endfacet
  facet normal 0 0 1
    outer loop
      vertex -91.0385 43.6183 -4.24
      vertex -92.8272 44.5 -4.24
      vertex -91.3262 41.9 -4.24
    endloop
  endfacet
  facet normal -0.866025 -0.500001 0
    outer loop
      vertex -86.8228 44.5 -1.75
      vertex -88.3238 47.1 -1.74
      vertex -88.3238 47.1 -1.75
    endloop
  endfacet
  facet normal -0.866025 -0.500001 0
    outer loop
      vertex -88.3238 47.1 -1.74
      vertex -86.8228 44.5 -1.75
      vertex -86.8228 44.5 -1.74
    endloop
  endfacet
  facet normal 0 0 0
    outer loop
      vertex -88.3238 47.1 -1.75
      vertex -88.3238 47.1 -1.74
      vertex -88.3238 47.1 -3.74
    endloop
  endfacet
  facet normal 0.866026 0.499999 0
    outer loop
      vertex -91.3262 41.9 -1.74
      vertex -92.8272 44.5 -4.24
      vertex -92.8272 44.5 -1.74
    endloop
  endfacet
  facet normal 0.866026 0.499999 0
    outer loop
      vertex -92.8272 44.5 -4.24
      vertex -91.3262 41.9 -1.74
      vertex -91.3262 41.9 -4.24
    endloop
  endfacet
  facet normal 1.27062e-005 1 -0
    outer loop
      vertex -88.3239 41.9 -4.24
      vertex -91.3262 41.9 -1.74
      vertex -88.3239 41.9 -1.74
    endloop
  endfacet
  facet normal 1.27062e-005 1 0
    outer loop
      vertex -91.3262 41.9 -1.74
      vertex -88.3239 41.9 -4.24
      vertex -91.3262 41.9 -4.24
    endloop
  endfacet
  facet normal -0.485643 0.874157 0
    outer loop
      vertex -88.3238 41.9 -1.75
      vertex -88.3239 41.9 -1.74
      vertex -88.3238 41.9 -1.74
    endloop
  endfacet
  facet normal -0.485643 0.874157 0
    outer loop
      vertex -88.3238 41.9 -3.74
      vertex -88.3239 41.9 -1.74
      vertex -88.3238 41.9 -1.75
    endloop
  endfacet
  facet normal -0.485643 0.874157 0
    outer loop
      vertex -88.3239 41.9 -4.24
      vertex -88.3238 41.9 -3.74
      vertex -88.3238 41.9 -4.24
    endloop
  endfacet
  facet normal -0.485643 0.874157 0
    outer loop
      vertex -88.3238 41.9 -3.74
      vertex -88.3239 41.9 -4.24
      vertex -88.3239 41.9 -1.74
    endloop
  endfacet
  facet normal 0.866032 -0.499988 0
    outer loop
      vertex -92.8272 44.5 -1.74
      vertex -91.3262 47.1 -4.24
      vertex -91.3262 47.1 -1.74
    endloop
  endfacet
  facet normal 0.866032 -0.499988 0
    outer loop
      vertex -91.3262 47.1 -4.24
      vertex -92.8272 44.5 -1.74
      vertex -92.8272 44.5 -4.24
    endloop
  endfacet
  facet normal 0 0 -1
    outer loop
      vertex -86.8228 44.5 -1.74
      vertex -88.4547 43.8899 -1.74
      vertex -88.325 44.5 -1.74
    endloop
  endfacet
  facet normal 0 0 -1
    outer loop
      vertex -88.3238 41.9 -1.74
      vertex -88.8213 43.3853 -1.74
      vertex -88.4547 43.8899 -1.74
    endloop
  endfacet
  facet normal 0 0 -1
    outer loop
      vertex -88.3239 41.9 -1.74
      vertex -89.3615 43.0734 -1.74
      vertex -88.8213 43.3853 -1.74
    endloop
  endfacet
  facet normal 0 0 -1
    outer loop
      vertex -88.3239 41.9 -1.74
      vertex -89.9818 43.0082 -1.74
      vertex -89.3615 43.0734 -1.74
    endloop
  endfacet
  facet normal 0 0 -1
    outer loop
      vertex -91.3262 41.9 -1.74
      vertex -89.9818 43.0082 -1.74
      vertex -88.3239 41.9 -1.74
    endloop
  endfacet
  facet normal 0 0 -1
    outer loop
      vertex -92.8272 44.5 -1.74
      vertex -91.2922 44.8119 -1.74
      vertex -91.2922 44.1881 -1.74
    endloop
  endfacet
  facet normal -0 0 -1
    outer loop
      vertex -89.9818 43.0082 -1.74
      vertex -91.3262 41.9 -1.74
      vertex -90.575 43.201 -1.74
    endloop
  endfacet
  facet normal 0 0 -1
    outer loop
      vertex -91.3262 41.9 -1.74
      vertex -91.0385 43.6183 -1.74
      vertex -90.575 43.201 -1.74
    endloop
  endfacet
  facet normal 0 0 -1
    outer loop
      vertex -92.8272 44.5 -1.74
      vertex -91.0385 43.6183 -1.74
      vertex -91.3262 41.9 -1.74
    endloop
  endfacet
  facet normal 0 0 -1
    outer loop
      vertex -91.0385 43.6183 -1.74
      vertex -92.8272 44.5 -1.74
      vertex -91.2922 44.1881 -1.74
    endloop
  endfacet
  facet normal -0 0 -1
    outer loop
      vertex -91.2922 44.8119 -1.74
      vertex -92.8272 44.5 -1.74
      vertex -91.3262 47.1 -1.74
    endloop
  endfacet
  facet normal 0 0 -1
    outer loop
      vertex -91.2922 44.8119 -1.74
      vertex -91.3262 47.1 -1.74
      vertex -91.3261 47.1 -1.74
    endloop
  endfacet
  facet normal 0 0 -1
    outer loop
      vertex -88.4547 43.8899 -1.74
      vertex -86.8228 44.5 -1.74
      vertex -88.3238 41.9 -1.74
    endloop
  endfacet
  facet normal 0 0 -1
    outer loop
      vertex -88.8213 43.3853 -1.74
      vertex -88.3238 41.9 -1.74
      vertex -88.3239 41.9 -1.74
    endloop
  endfacet
  facet normal 0 0 -1
    outer loop
      vertex -88.4547 45.1101 -1.74
      vertex -86.8228 44.5 -1.74
      vertex -88.325 44.5 -1.74
    endloop
  endfacet
  facet normal 0 0 -1
    outer loop
      vertex -86.8228 44.5 -1.74
      vertex -88.4547 45.1101 -1.74
      vertex -88.3238 47.1 -1.74
    endloop
  endfacet
  facet normal 0 0 -1
    outer loop
      vertex -88.8213 45.6147 -1.74
      vertex -88.3238 47.1 -1.74
      vertex -88.4547 45.1101 -1.74
    endloop
  endfacet
  facet normal 0 0 -1
    outer loop
      vertex -89.3615 45.9266 -1.74
      vertex -88.3238 47.1 -1.74
      vertex -88.8213 45.6147 -1.74
    endloop
  endfacet
  facet normal 0 0 -1
    outer loop
      vertex -89.9818 45.9918 -1.74
      vertex -88.3238 47.1 -1.74
      vertex -89.3615 45.9266 -1.74
    endloop
  endfacet
  facet normal 0 0 -1
    outer loop
      vertex -91.3261 47.1 -1.74
      vertex -89.9818 45.9918 -1.74
      vertex -90.575 45.799 -1.74
    endloop
  endfacet
  facet normal 0 0 -1
    outer loop
      vertex -89.9818 45.9918 -1.74
      vertex -91.3261 47.1 -1.74
      vertex -88.3238 47.1 -1.74
    endloop
  endfacet
  facet normal 0 0 -1
    outer loop
      vertex -91.0385 45.3817 -1.74
      vertex -91.3261 47.1 -1.74
      vertex -90.575 45.799 -1.74
    endloop
  endfacet
  facet normal 0 0 -1
    outer loop
      vertex -91.3261 47.1 -1.74
      vertex -91.0385 45.3817 -1.74
      vertex -91.2922 44.8119 -1.74
    endloop
  endfacet
  facet normal 0.485643 -0.874157 0
    outer loop
      vertex -91.3262 47.1 -4.24
      vertex -91.3261 47.1 -1.74
      vertex -91.3262 47.1 -1.74
    endloop
  endfacet
  facet normal 0.485643 -0.874157 0
    outer loop
      vertex -91.3261 47.1 -1.74
      vertex -91.3262 47.1 -4.24
      vertex -91.3261 47.1 -4.24
    endloop
  endfacet
  facet normal -0.978147 0.207916 0
    outer loop
      vertex -100.455 43.8899 -1.74
      vertex -100.325 44.5 1.25
      vertex -100.325 44.5 -1.74
    endloop
  endfacet
  facet normal -0.978147 0.207916 0
    outer loop
      vertex -100.325 44.5 1.25
      vertex -100.455 43.8899 -1.74
      vertex -100.455 43.8899 1.25
    endloop
  endfacet
  facet normal -0.978147 0.207916 0
    outer loop
      vertex -100.455 43.8899 -8.74
      vertex -100.325 44.5 -4.24
      vertex -100.325 44.5 -8.74
    endloop
  endfacet
  facet normal -0.978147 0.207916 0
    outer loop
      vertex -100.325 44.5 -4.24
      vertex -100.455 43.8899 -8.74
      vertex -100.455 43.8899 -4.24
    endloop
  endfacet
  facet normal 1 -0 0
    outer loop
      vertex -103.292 44.1881 1.25
      vertex -103.292 44.8119 -1.74
      vertex -103.292 44.8119 1.25
    endloop
  endfacet
  facet normal 1 0 0
    outer loop
      vertex -103.292 44.8119 -1.74
      vertex -103.292 44.1881 1.25
      vertex -103.292 44.1881 -1.74
    endloop
  endfacet
  facet normal 1 -0 0
    outer loop
      vertex -103.292 44.1881 -4.25
      vertex -103.292 44.8119 -8.74
      vertex -103.292 44.8119 -4.25
    endloop
  endfacet
  facet normal 1 0 0
    outer loop
      vertex -103.292 44.8119 -8.74
      vertex -103.292 44.1881 -4.25
      vertex -103.292 44.1881 -8.74
    endloop
  endfacet
  facet normal 0.309021 0.951055 -0
    outer loop
      vertex -101.982 43.0082 -1.74
      vertex -102.575 43.201 1.25
      vertex -101.982 43.0082 1.25
    endloop
  endfacet
  facet normal 0.309021 0.951055 0
    outer loop
      vertex -102.575 43.201 1.25
      vertex -101.982 43.0082 -1.74
      vertex -102.575 43.201 -1.74
    endloop
  endfacet
  facet normal 0.309021 0.951055 -0
    outer loop
      vertex -101.982 43.0082 -8.74
      vertex -102.575 43.201 -4.25
      vertex -101.982 43.0082 -4.25
    endloop
  endfacet
  facet normal 0.309021 0.951055 0
    outer loop
      vertex -102.575 43.201 -4.25
      vertex -101.982 43.0082 -8.74
      vertex -102.575 43.201 -8.74
    endloop
  endfacet
  facet normal 0.669128 0.743148 -0
    outer loop
      vertex -102.575 43.201 -1.74
      vertex -103.039 43.6183 1.25
      vertex -102.575 43.201 1.25
    endloop
  endfacet
  facet normal 0.669128 0.743148 0
    outer loop
      vertex -103.039 43.6183 1.25
      vertex -102.575 43.201 -1.74
      vertex -103.039 43.6183 -1.74
    endloop
  endfacet
  facet normal 0.669124 0.743151 -0
    outer loop
      vertex -102.575 43.201 -8.74
      vertex -103.039 43.6183 -4.25
      vertex -102.575 43.201 -4.25
    endloop
  endfacet
  facet normal 0.669124 0.743151 0
    outer loop
      vertex -103.039 43.6183 -4.25
      vertex -102.575 43.201 -8.74
      vertex -103.039 43.6183 -8.74
    endloop
  endfacet
  facet normal -0.104524 -0.994522 -0
    outer loop
      vertex -101.982 45.9918 -4.25
      vertex -101.982 45.9918 -8.74
      vertex -101.825 45.9753 -4.25
    endloop
  endfacet
  facet normal -0.104535 -0.994521 0
    outer loop
      vertex -101.825 45.9753 -4.25
      vertex -101.361 45.9266 -4.24
      vertex -101.825 45.9753 -4.24
    endloop
  endfacet
  facet normal -0.104532 -0.994522 2.9663e-007
    outer loop
      vertex -101.361 45.9266 -8.74
      vertex -101.825 45.9753 -4.25
      vertex -101.982 45.9918 -8.74
    endloop
  endfacet
  facet normal -0.104535 -0.994521 0
    outer loop
      vertex -101.825 45.9753 -4.25
      vertex -101.361 45.9266 -8.74
      vertex -101.361 45.9266 -4.24
    endloop
  endfacet
  facet normal -0.104532 -0.994522 0
    outer loop
      vertex -101.982 45.9918 -1.74
      vertex -101.361 45.9266 1.25
      vertex -101.982 45.9918 1.25
    endloop
  endfacet
  facet normal -0.104532 -0.994522 -0
    outer loop
      vertex -101.361 45.9266 1.25
      vertex -101.982 45.9918 -1.74
      vertex -101.361 45.9266 -1.74
    endloop
  endfacet
  facet normal -0.5 0.866025 0
    outer loop
      vertex -100.821 43.3853 -1.74
      vertex -101.361 43.0734 1.25
      vertex -100.821 43.3853 1.25
    endloop
  endfacet
  facet normal -0.5 0.866025 0
    outer loop
      vertex -101.361 43.0734 1.25
      vertex -100.821 43.3853 -1.74
      vertex -101.361 43.0734 -1.74
    endloop
  endfacet
  facet normal -0.500005 0.866023 0
    outer loop
      vertex -100.821 43.3853 -8.74
      vertex -101.361 43.0734 -4.24
      vertex -100.821 43.3853 -4.24
    endloop
  endfacet
  facet normal -0.500005 0.866023 0
    outer loop
      vertex -101.361 43.0734 -4.24
      vertex -100.821 43.3853 -8.74
      vertex -101.361 43.0734 -8.74
    endloop
  endfacet
  facet normal -0.809016 0.587786 0
    outer loop
      vertex -100.821 43.3853 -1.74
      vertex -100.455 43.8899 1.25
      vertex -100.455 43.8899 -1.74
    endloop
  endfacet
  facet normal -0.809016 0.587786 0
    outer loop
      vertex -100.455 43.8899 1.25
      vertex -100.821 43.3853 -1.74
      vertex -100.821 43.3853 1.25
    endloop
  endfacet
  facet normal -0.809016 0.587786 0
    outer loop
      vertex -100.821 43.3853 -8.74
      vertex -100.455 43.8899 -4.24
      vertex -100.455 43.8899 -8.74
    endloop
  endfacet
  facet normal -0.809016 0.587786 0
    outer loop
      vertex -100.455 43.8899 -4.24
      vertex -100.821 43.3853 -8.74
      vertex -100.821 43.3853 -4.24
    endloop
  endfacet
  facet normal -0.104532 0.994522 0
    outer loop
      vertex -101.361 43.0734 -1.74
      vertex -101.982 43.0082 1.25
      vertex -101.361 43.0734 1.25
    endloop
  endfacet
  facet normal -0.104532 0.994522 0
    outer loop
      vertex -101.982 43.0082 1.25
      vertex -101.361 43.0734 -1.74
      vertex -101.982 43.0082 -1.74
    endloop
  endfacet
  facet normal -0.104527 0.994522 0
    outer loop
      vertex -101.361 43.0734 -4.24
      vertex -101.825 43.0247 -4.25
      vertex -101.825 43.0247 -4.24
    endloop
  endfacet
  facet normal -0.104527 0.994522 0
    outer loop
      vertex -101.361 43.0734 -8.74
      vertex -101.825 43.0247 -4.25
      vertex -101.361 43.0734 -4.24
    endloop
  endfacet
  facet normal -0.104526 0.994522 8.30531e-008
    outer loop
      vertex -101.982 43.0082 -8.74
      vertex -101.825 43.0247 -4.25
      vertex -101.361 43.0734 -8.74
    endloop
  endfacet
  facet normal -0.104524 0.994522 0
    outer loop
      vertex -101.825 43.0247 -4.25
      vertex -101.982 43.0082 -8.74
      vertex -101.982 43.0082 -4.25
    endloop
  endfacet
  facet normal 0.913547 0.406733 0
    outer loop
      vertex -103.039 43.6183 1.25
      vertex -103.292 44.1881 -1.74
      vertex -103.292 44.1881 1.25
    endloop
  endfacet
  facet normal 0.913547 0.406733 0
    outer loop
      vertex -103.292 44.1881 -1.74
      vertex -103.039 43.6183 1.25
      vertex -103.039 43.6183 -1.74
    endloop
  endfacet
  facet normal 0.913548 0.406731 0
    outer loop
      vertex -103.039 43.6183 -4.25
      vertex -103.292 44.1881 -8.74
      vertex -103.292 44.1881 -4.25
    endloop
  endfacet
  facet normal 0.913548 0.406731 0
    outer loop
      vertex -103.292 44.1881 -8.74
      vertex -103.039 43.6183 -4.25
      vertex -103.039 43.6183 -8.74
    endloop
  endfacet
  facet normal 0 0 1
    outer loop
      vertex -100.455 45.1101 -8.74
      vertex -100.455 43.8899 -8.74
      vertex -100.325 44.5 -8.74
    endloop
  endfacet
  facet normal 0 0 1
    outer loop
      vertex -100.821 45.6147 -8.74
      vertex -100.455 43.8899 -8.74
      vertex -100.455 45.1101 -8.74
    endloop
  endfacet
  facet normal 0 0 1
    outer loop
      vertex -100.821 45.6147 -8.74
      vertex -100.821 43.3853 -8.74
      vertex -100.455 43.8899 -8.74
    endloop
  endfacet
  facet normal 0 0 1
    outer loop
      vertex -101.361 45.9266 -8.74
      vertex -100.821 43.3853 -8.74
      vertex -100.821 45.6147 -8.74
    endloop
  endfacet
  facet normal 0 0 1
    outer loop
      vertex -101.361 45.9266 -8.74
      vertex -101.361 43.0734 -8.74
      vertex -100.821 43.3853 -8.74
    endloop
  endfacet
  facet normal 0 0 1
    outer loop
      vertex -101.982 45.9918 -8.74
      vertex -101.361 43.0734 -8.74
      vertex -101.361 45.9266 -8.74
    endloop
  endfacet
  facet normal 0 0 1
    outer loop
      vertex -101.982 45.9918 -8.74
      vertex -101.982 43.0082 -8.74
      vertex -101.361 43.0734 -8.74
    endloop
  endfacet
  facet normal -0 0 1
    outer loop
      vertex -102.575 45.799 -8.74
      vertex -101.982 43.0082 -8.74
      vertex -101.982 45.9918 -8.74
    endloop
  endfacet
  facet normal 0 0 1
    outer loop
      vertex -102.575 45.799 -8.74
      vertex -102.575 43.201 -8.74
      vertex -101.982 43.0082 -8.74
    endloop
  endfacet
  facet normal -0 0 1
    outer loop
      vertex -103.039 45.3817 -8.74
      vertex -102.575 43.201 -8.74
      vertex -102.575 45.799 -8.74
    endloop
  endfacet
  facet normal 0 0 1
    outer loop
      vertex -103.039 45.3817 -8.74
      vertex -103.039 43.6183 -8.74
      vertex -102.575 43.201 -8.74
    endloop
  endfacet
  facet normal -0 0 1
    outer loop
      vertex -103.292 44.8119 -8.74
      vertex -103.039 43.6183 -8.74
      vertex -103.039 45.3817 -8.74
    endloop
  endfacet
  facet normal 0 0 1
    outer loop
      vertex -103.039 43.6183 -8.74
      vertex -103.292 44.8119 -8.74
      vertex -103.292 44.1881 -8.74
    endloop
  endfacet
  facet normal -0.978147 -0.207916 0
    outer loop
      vertex -100.325 44.5 -8.74
      vertex -100.455 45.1101 -4.24
      vertex -100.455 45.1101 -8.74
    endloop
  endfacet
  facet normal -0.978147 -0.207916 0
    outer loop
      vertex -100.455 45.1101 -4.24
      vertex -100.325 44.5 -8.74
      vertex -100.325 44.5 -4.24
    endloop
  endfacet
  facet normal -0.978147 -0.207916 0
    outer loop
      vertex -100.325 44.5 -1.74
      vertex -100.455 45.1101 1.25
      vertex -100.455 45.1101 -1.74
    endloop
  endfacet
  facet normal -0.978147 -0.207916 0
    outer loop
      vertex -100.455 45.1101 1.25
      vertex -100.325 44.5 -1.74
      vertex -100.325 44.5 1.25
    endloop
  endfacet
  facet normal -0.5 -0.866025 0
    outer loop
      vertex -101.361 45.9266 -1.74
      vertex -100.821 45.6147 1.25
      vertex -101.361 45.9266 1.25
    endloop
  endfacet
  facet normal -0.5 -0.866025 -0
    outer loop
      vertex -100.821 45.6147 1.25
      vertex -101.361 45.9266 -1.74
      vertex -100.821 45.6147 -1.74
    endloop
  endfacet
  facet normal -0.5 -0.866025 0
    outer loop
      vertex -101.361 45.9266 -8.74
      vertex -100.821 45.6147 -4.24
      vertex -101.361 45.9266 -4.24
    endloop
  endfacet
  facet normal -0.5 -0.866025 -0
    outer loop
      vertex -100.821 45.6147 -4.24
      vertex -101.361 45.9266 -8.74
      vertex -100.821 45.6147 -8.74
    endloop
  endfacet
  facet normal 0.309021 -0.951055 0
    outer loop
      vertex -102.575 45.799 -8.74
      vertex -101.982 45.9918 -4.25
      vertex -102.575 45.799 -4.25
    endloop
  endfacet
  facet normal 0.309021 -0.951055 0
    outer loop
      vertex -101.982 45.9918 -4.25
      vertex -102.575 45.799 -8.74
      vertex -101.982 45.9918 -8.74
    endloop
  endfacet
  facet normal 0.309021 -0.951055 0
    outer loop
      vertex -102.575 45.799 -1.74
      vertex -101.982 45.9918 1.25
      vertex -102.575 45.799 1.25
    endloop
  endfacet
  facet normal 0.309021 -0.951055 0
    outer loop
      vertex -101.982 45.9918 1.25
      vertex -102.575 45.799 -1.74
      vertex -101.982 45.9918 -1.74
    endloop
  endfacet
  facet normal -0.809016 -0.587786 0
    outer loop
      vertex -100.455 45.1101 -8.74
      vertex -100.821 45.6147 -4.24
      vertex -100.821 45.6147 -8.74
    endloop
  endfacet
  facet normal -0.809016 -0.587786 0
    outer loop
      vertex -100.821 45.6147 -4.24
      vertex -100.455 45.1101 -8.74
      vertex -100.455 45.1101 -4.24
    endloop
  endfacet
  facet normal -0.809016 -0.587786 0
    outer loop
      vertex -100.455 45.1101 -1.74
      vertex -100.821 45.6147 1.25
      vertex -100.821 45.6147 -1.74
    endloop
  endfacet
  facet normal -0.809016 -0.587786 0
    outer loop
      vertex -100.821 45.6147 1.25
      vertex -100.455 45.1101 -1.74
      vertex -100.455 45.1101 1.25
    endloop
  endfacet
  facet normal 0.669128 -0.743148 0
    outer loop
      vertex -103.039 45.3817 -1.74
      vertex -102.575 45.799 1.25
      vertex -103.039 45.3817 1.25
    endloop
  endfacet
  facet normal 0.669128 -0.743148 0
    outer loop
      vertex -102.575 45.799 1.25
      vertex -103.039 45.3817 -1.74
      vertex -102.575 45.799 -1.74
    endloop
  endfacet
  facet normal 0.669128 -0.743148 0
    outer loop
      vertex -103.039 45.3817 -8.74
      vertex -102.575 45.799 -4.25
      vertex -103.039 45.3817 -4.25
    endloop
  endfacet
  facet normal 0.669128 -0.743148 0
    outer loop
      vertex -102.575 45.799 -4.25
      vertex -103.039 45.3817 -8.74
      vertex -102.575 45.799 -8.74
    endloop
  endfacet
  facet normal 0.913547 -0.406733 0
    outer loop
      vertex -103.292 44.8119 1.25
      vertex -103.039 45.3817 -1.74
      vertex -103.039 45.3817 1.25
    endloop
  endfacet
  facet normal 0.913547 -0.406733 0
    outer loop
      vertex -103.039 45.3817 -1.74
      vertex -103.292 44.8119 1.25
      vertex -103.292 44.8119 -1.74
    endloop
  endfacet
  facet normal 0.913547 -0.406733 0
    outer loop
      vertex -103.292 44.8119 -4.25
      vertex -103.039 45.3817 -8.74
      vertex -103.039 45.3817 -4.25
    endloop
  endfacet
  facet normal 0.913547 -0.406733 0
    outer loop
      vertex -103.039 45.3817 -8.74
      vertex -103.292 44.8119 -4.25
      vertex -103.292 44.8119 -8.74
    endloop
  endfacet
  facet normal -1.27062e-005 -1 0
    outer loop
      vertex -103.326 47.1 -4.24
      vertex -100.324 47.1 -1.74
      vertex -103.326 47.1 -1.74
    endloop
  endfacet
  facet normal -1.27062e-005 -1 -0
    outer loop
      vertex -100.324 47.1 -1.74
      vertex -103.326 47.1 -4.24
      vertex -100.324 47.1 -4.24
    endloop
  endfacet
  facet normal -0.866031 0.49999 0
    outer loop
      vertex -100.324 41.9 -4.24
      vertex -98.8228 44.5 -1.74
      vertex -98.8228 44.5 -4.24
    endloop
  endfacet
  facet normal -0.866031 0.49999 0
    outer loop
      vertex -98.8228 44.5 -1.74
      vertex -100.324 41.9 -4.24
      vertex -100.324 41.9 -1.74
    endloop
  endfacet
  facet normal -0 0 1
    outer loop
      vertex -100.455 45.1101 -4.24
      vertex -98.8228 44.5 -4.24
      vertex -100.324 47.1 -4.24
    endloop
  endfacet
  facet normal 0 0 1
    outer loop
      vertex -100.455 43.8899 -4.24
      vertex -98.8228 44.5 -4.24
      vertex -100.325 44.5 -4.24
    endloop
  endfacet
  facet normal 0 0 1
    outer loop
      vertex -98.8228 44.5 -4.24
      vertex -100.455 43.8899 -4.24
      vertex -100.324 41.9 -4.24
    endloop
  endfacet
  facet normal 0 0 1
    outer loop
      vertex -98.8228 44.5 -4.24
      vertex -100.455 45.1101 -4.24
      vertex -100.325 44.5 -4.24
    endloop
  endfacet
  facet normal 0 0 1
    outer loop
      vertex -100.324 47.1 -4.24
      vertex -100.821 45.6147 -4.24
      vertex -100.455 45.1101 -4.24
    endloop
  endfacet
  facet normal 0 0 1
    outer loop
      vertex -100.324 47.1 -4.24
      vertex -101.361 45.9266 -4.24
      vertex -100.821 45.6147 -4.24
    endloop
  endfacet
  facet normal 0 0 1
    outer loop
      vertex -100.324 47.1 -4.24
      vertex -101.825 47.1 -4.24
      vertex -101.361 45.9266 -4.24
    endloop
  endfacet
  facet normal 0 0 1
    outer loop
      vertex -103.326 47.1 -4.24
      vertex -101.825 47.1 -4.24
      vertex -100.324 47.1 -4.24
    endloop
  endfacet
  facet normal -0 0 1
    outer loop
      vertex -100.821 43.3853 -4.24
      vertex -100.324 41.9 -4.24
      vertex -100.455 43.8899 -4.24
    endloop
  endfacet
  facet normal -0 0 1
    outer loop
      vertex -101.361 43.0734 -4.24
      vertex -100.324 41.9 -4.24
      vertex -100.821 43.3853 -4.24
    endloop
  endfacet
  facet normal 0 0 1
    outer loop
      vertex -101.825 41.9 -4.24
      vertex -101.361 43.0734 -4.24
      vertex -101.825 43.0247 -4.24
    endloop
  endfacet
  facet normal 0 0 1
    outer loop
      vertex -101.361 43.0734 -4.24
      vertex -101.825 41.9 -4.24
      vertex -100.324 41.9 -4.24
    endloop
  endfacet
  facet normal 0 0 1
    outer loop
      vertex -100.324 41.9 -4.24
      vertex -101.825 41.9 -4.24
      vertex -103.326 41.9 -4.24
    endloop
  endfacet
  facet normal 0 0 1
    outer loop
      vertex -101.361 45.9266 -4.24
      vertex -101.825 47.1 -4.24
      vertex -101.825 45.9753 -4.24
    endloop
  endfacet
  facet normal -0.866025 -0.500001 0
    outer loop
      vertex -98.8228 44.5 -4.24
      vertex -100.324 47.1 -1.74
      vertex -100.324 47.1 -4.24
    endloop
  endfacet
  facet normal -0.866025 -0.500001 0
    outer loop
      vertex -100.324 47.1 -1.74
      vertex -98.8228 44.5 -4.24
      vertex -98.8228 44.5 -1.74
    endloop
  endfacet
  facet normal 0.866026 0.499999 0
    outer loop
      vertex -103.326 41.9 -1.74
      vertex -104.827 44.5 -1.75
      vertex -104.827 44.5 -1.74
    endloop
  endfacet
  facet normal 0.866026 0.499999 0
    outer loop
      vertex -104.827 44.5 -1.75
      vertex -103.326 41.9 -1.74
      vertex -103.326 41.9 -1.75
    endloop
  endfacet
  facet normal 1.27062e-005 1 0
    outer loop
      vertex -100.324 41.9 -1.74
      vertex -103.326 41.9 -1.75
      vertex -103.326 41.9 -1.74
    endloop
  endfacet
  facet normal 1.27062e-005 1 0
    outer loop
      vertex -100.324 41.9 -1.74
      vertex -103.326 41.9 -3.74
      vertex -103.326 41.9 -1.75
    endloop
  endfacet
  facet normal 1.27062e-005 1 -0
    outer loop
      vertex -100.324 41.9 -4.24
      vertex -103.326 41.9 -3.74
      vertex -100.324 41.9 -1.74
    endloop
  endfacet
  facet normal 1.27062e-005 1 0
    outer loop
      vertex -103.326 41.9 -3.74
      vertex -100.324 41.9 -4.24
      vertex -103.326 41.9 -4.24
    endloop
  endfacet
  facet normal 0.866032 -0.499988 0
    outer loop
      vertex -104.827 44.5 -1.74
      vertex -103.326 47.1 -1.75
      vertex -103.326 47.1 -1.74
    endloop
  endfacet
  facet normal 0.866032 -0.499988 0
    outer loop
      vertex -103.326 47.1 -1.75
      vertex -104.827 44.5 -1.74
      vertex -104.827 44.5 -1.75
    endloop
  endfacet
  facet normal 0 0 0
    outer loop
      vertex -103.326 47.1 -1.74
      vertex -103.326 47.1 -1.75
      vertex -103.326 47.1 -3.74
    endloop
  endfacet
  facet normal 0 0 -1
    outer loop
      vertex -98.8228 44.5 -1.74
      vertex -100.455 43.8899 -1.74
      vertex -100.325 44.5 -1.74
    endloop
  endfacet
  facet normal 0 0 -1
    outer loop
      vertex -100.324 41.9 -1.74
      vertex -100.821 43.3853 -1.74
      vertex -100.455 43.8899 -1.74
    endloop
  endfacet
  facet normal 0 0 -1
    outer loop
      vertex -100.324 41.9 -1.74
      vertex -101.361 43.0734 -1.74
      vertex -100.821 43.3853 -1.74
    endloop
  endfacet
  facet normal 0 0 -1
    outer loop
      vertex -100.324 41.9 -1.74
      vertex -101.982 43.0082 -1.74
      vertex -101.361 43.0734 -1.74
    endloop
  endfacet
  facet normal 0 0 -1
    outer loop
      vertex -103.326 41.9 -1.74
      vertex -101.982 43.0082 -1.74
      vertex -100.324 41.9 -1.74
    endloop
  endfacet
  facet normal 0 0 -1
    outer loop
      vertex -104.827 44.5 -1.74
      vertex -103.292 44.8119 -1.74
      vertex -103.292 44.1881 -1.74
    endloop
  endfacet
  facet normal -0 0 -1
    outer loop
      vertex -101.982 43.0082 -1.74
      vertex -103.326 41.9 -1.74
      vertex -102.575 43.201 -1.74
    endloop
  endfacet
  facet normal 0 0 -1
    outer loop
      vertex -103.326 41.9 -1.74
      vertex -103.039 43.6183 -1.74
      vertex -102.575 43.201 -1.74
    endloop
  endfacet
  facet normal 0 0 -1
    outer loop
      vertex -104.827 44.5 -1.74
      vertex -103.039 43.6183 -1.74
      vertex -103.326 41.9 -1.74
    endloop
  endfacet
  facet normal 0 0 -1
    outer loop
      vertex -103.039 43.6183 -1.74
      vertex -104.827 44.5 -1.74
      vertex -103.292 44.1881 -1.74
    endloop
  endfacet
  facet normal -0 0 -1
    outer loop
      vertex -103.292 44.8119 -1.74
      vertex -104.827 44.5 -1.74
      vertex -103.326 47.1 -1.74
    endloop
  endfacet
  facet normal 0 0 -1
    outer loop
      vertex -100.455 43.8899 -1.74
      vertex -98.8228 44.5 -1.74
      vertex -100.324 41.9 -1.74
    endloop
  endfacet
  facet normal 0 0 -1
    outer loop
      vertex -100.455 45.1101 -1.74
      vertex -98.8228 44.5 -1.74
      vertex -100.325 44.5 -1.74
    endloop
  endfacet
  facet normal 0 0 -1
    outer loop
      vertex -98.8228 44.5 -1.74
      vertex -100.455 45.1101 -1.74
      vertex -100.324 47.1 -1.74
    endloop
  endfacet
  facet normal 0 0 -1
    outer loop
      vertex -100.821 45.6147 -1.74
      vertex -100.324 47.1 -1.74
      vertex -100.455 45.1101 -1.74
    endloop
  endfacet
  facet normal 0 0 -1
    outer loop
      vertex -101.361 45.9266 -1.74
      vertex -100.324 47.1 -1.74
      vertex -100.821 45.6147 -1.74
    endloop
  endfacet
  facet normal 0 0 -1
    outer loop
      vertex -101.982 45.9918 -1.74
      vertex -100.324 47.1 -1.74
      vertex -101.361 45.9266 -1.74
    endloop
  endfacet
  facet normal 0 0 -1
    outer loop
      vertex -103.326 47.1 -1.74
      vertex -101.982 45.9918 -1.74
      vertex -102.575 45.799 -1.74
    endloop
  endfacet
  facet normal 0 0 -1
    outer loop
      vertex -101.982 45.9918 -1.74
      vertex -103.326 47.1 -1.74
      vertex -100.324 47.1 -1.74
    endloop
  endfacet
  facet normal 0 0 -1
    outer loop
      vertex -103.039 45.3817 -1.74
      vertex -103.326 47.1 -1.74
      vertex -102.575 45.799 -1.74
    endloop
  endfacet
  facet normal 0 0 -1
    outer loop
      vertex -103.326 47.1 -1.74
      vertex -103.039 45.3817 -1.74
      vertex -103.292 44.8119 -1.74
    endloop
  endfacet
  facet normal 0.485643 -0.874157 0
    outer loop
      vertex -103.326 47.1 -3.74
      vertex -103.326 47.1 -4.24
      vertex -103.326 47.1 -1.74
    endloop
  endfacet
  facet normal -1 0 0
    outer loop
      vertex -107.325 54.5 -52.12
      vertex -107.325 47.1 -4.25
      vertex -107.325 54.5 1.25
    endloop
  endfacet
  facet normal -1 0 0
    outer loop
      vertex -107.325 54.5 -52.12
      vertex -107.325 41.9 -4.25
      vertex -107.325 47.1 -4.25
    endloop
  endfacet
  facet normal -1 0 0
    outer loop
      vertex -107.325 34.5 1.25
      vertex -107.325 41.9 -4.25
      vertex -107.325 34.5 -52.12
    endloop
  endfacet
  facet normal -1 0 0
    outer loop
      vertex -107.325 34.5 -52.12
      vertex -107.325 41.9 -4.25
      vertex -107.325 54.5 -52.12
    endloop
  endfacet
  facet normal -1 0 0
    outer loop
      vertex -107.325 47.1 -1.75
      vertex -107.325 54.5 1.25
      vertex -107.325 47.1 -4.25
    endloop
  endfacet
  facet normal -1 0 0
    outer loop
      vertex -107.325 41.9 -1.75
      vertex -107.325 54.5 1.25
      vertex -107.325 47.1 -1.75
    endloop
  endfacet
  facet normal -1 0 0
    outer loop
      vertex -107.325 41.9 -1.75
      vertex -107.325 34.5 1.25
      vertex -107.325 54.5 1.25
    endloop
  endfacet
  facet normal -1 0 0
    outer loop
      vertex -107.325 41.9 -4.25
      vertex -107.325 34.5 1.25
      vertex -107.325 41.9 -1.75
    endloop
  endfacet
  facet normal 0 0 1
    outer loop
      vertex -84.325 54.5 1.25
      vertex -88.325 44.5 1.25
      vertex -84.325 34.5 1.25
    endloop
  endfacet
  facet normal 0 0 1
    outer loop
      vertex -84.325 54.5 1.25
      vertex -88.4547 45.1101 1.25
      vertex -88.325 44.5 1.25
    endloop
  endfacet
  facet normal 0 0 1
    outer loop
      vertex -84.325 54.5 1.25
      vertex -88.8213 45.6147 1.25
      vertex -88.4547 45.1101 1.25
    endloop
  endfacet
  facet normal 0 0 1
    outer loop
      vertex -84.325 54.5 1.25
      vertex -89.3615 45.9266 1.25
      vertex -88.8213 45.6147 1.25
    endloop
  endfacet
  facet normal 0 0 1
    outer loop
      vertex -84.325 54.5 1.25
      vertex -89.9818 45.9918 1.25
      vertex -89.3615 45.9266 1.25
    endloop
  endfacet
  facet normal 0 0 1
    outer loop
      vertex -84.325 54.5 1.25
      vertex -90.575 45.799 1.25
      vertex -89.9818 45.9918 1.25
    endloop
  endfacet
  facet normal -0 0 1
    outer loop
      vertex -101.361 45.9266 1.25
      vertex -90.575 45.799 1.25
      vertex -84.325 54.5 1.25
    endloop
  endfacet
  facet normal 0 0 1
    outer loop
      vertex -91.2922 44.8119 1.25
      vertex -100.325 44.5 1.25
      vertex -91.2922 44.1881 1.25
    endloop
  endfacet
  facet normal -0 0 1
    outer loop
      vertex -100.455 45.1101 1.25
      vertex -91.2922 44.8119 1.25
      vertex -91.0385 45.3817 1.25
    endloop
  endfacet
  facet normal 0 -0 1
    outer loop
      vertex -100.821 45.6147 1.25
      vertex -90.575 45.799 1.25
      vertex -101.361 45.9266 1.25
    endloop
  endfacet
  facet normal 0 0 1
    outer loop
      vertex -91.2922 44.8119 1.25
      vertex -100.455 45.1101 1.25
      vertex -100.325 44.5 1.25
    endloop
  endfacet
  facet normal 0 0 1
    outer loop
      vertex -91.0385 45.3817 1.25
      vertex -100.821 45.6147 1.25
      vertex -100.455 45.1101 1.25
    endloop
  endfacet
  facet normal 0 0 1
    outer loop
      vertex -90.575 45.799 1.25
      vertex -100.821 45.6147 1.25
      vertex -91.0385 45.3817 1.25
    endloop
  endfacet
  facet normal -0 0 1
    outer loop
      vertex -107.325 54.5 1.25
      vertex -101.361 45.9266 1.25
      vertex -84.325 54.5 1.25
    endloop
  endfacet
  facet normal 0 0 1
    outer loop
      vertex -101.361 45.9266 1.25
      vertex -107.325 54.5 1.25
      vertex -101.982 45.9918 1.25
    endloop
  endfacet
  facet normal 0 0 1
    outer loop
      vertex -103.292 44.8119 1.25
      vertex -107.325 54.5 1.25
      vertex -103.292 44.1881 1.25
    endloop
  endfacet
  facet normal 0 0 1
    outer loop
      vertex -103.039 45.3817 1.25
      vertex -107.325 54.5 1.25
      vertex -103.292 44.8119 1.25
    endloop
  endfacet
  facet normal 0 0 1
    outer loop
      vertex -102.575 45.799 1.25
      vertex -107.325 54.5 1.25
      vertex -103.039 45.3817 1.25
    endloop
  endfacet
  facet normal 0 0 1
    outer loop
      vertex -101.982 45.9918 1.25
      vertex -107.325 54.5 1.25
      vertex -102.575 45.799 1.25
    endloop
  endfacet
  facet normal -0 0 1
    outer loop
      vertex -88.4547 43.8899 1.25
      vertex -84.325 34.5 1.25
      vertex -88.325 44.5 1.25
    endloop
  endfacet
  facet normal -0 0 1
    outer loop
      vertex -88.8213 43.3853 1.25
      vertex -84.325 34.5 1.25
      vertex -88.4547 43.8899 1.25
    endloop
  endfacet
  facet normal -0 0 1
    outer loop
      vertex -89.3615 43.0734 1.25
      vertex -84.325 34.5 1.25
      vertex -88.8213 43.3853 1.25
    endloop
  endfacet
  facet normal -0 0 1
    outer loop
      vertex -89.9818 43.0082 1.25
      vertex -84.325 34.5 1.25
      vertex -89.3615 43.0734 1.25
    endloop
  endfacet
  facet normal 0 0 1
    outer loop
      vertex -90.575 43.201 1.25
      vertex -84.325 34.5 1.25
      vertex -89.9818 43.0082 1.25
    endloop
  endfacet
  facet normal -0 0 1
    outer loop
      vertex -100.821 43.3853 1.25
      vertex -90.575 43.201 1.25
      vertex -91.0385 43.6183 1.25
    endloop
  endfacet
  facet normal 0 0 1
    outer loop
      vertex -100.455 43.8899 1.25
      vertex -91.2922 44.1881 1.25
      vertex -100.325 44.5 1.25
    endloop
  endfacet
  facet normal 0 0 1
    outer loop
      vertex -91.2922 44.1881 1.25
      vertex -100.455 43.8899 1.25
      vertex -91.0385 43.6183 1.25
    endloop
  endfacet
  facet normal 0 0 1
    outer loop
      vertex -100.821 43.3853 1.25
      vertex -91.0385 43.6183 1.25
      vertex -100.455 43.8899 1.25
    endloop
  endfacet
  facet normal 0 0 1
    outer loop
      vertex -90.575 43.201 1.25
      vertex -100.821 43.3853 1.25
      vertex -101.361 43.0734 1.25
    endloop
  endfacet
  facet normal 0 0 1
    outer loop
      vertex -90.575 43.201 1.25
      vertex -101.361 43.0734 1.25
      vertex -84.325 34.5 1.25
    endloop
  endfacet
  facet normal 0 0 1
    outer loop
      vertex -107.325 34.5 1.25
      vertex -101.361 43.0734 1.25
      vertex -101.982 43.0082 1.25
    endloop
  endfacet
  facet normal 0 0 1
    outer loop
      vertex -107.325 34.5 1.25
      vertex -101.982 43.0082 1.25
      vertex -102.575 43.201 1.25
    endloop
  endfacet
  facet normal 0 0 1
    outer loop
      vertex -101.361 43.0734 1.25
      vertex -107.325 34.5 1.25
      vertex -84.325 34.5 1.25
    endloop
  endfacet
  facet normal 0 0 1
    outer loop
      vertex -103.039 43.6183 1.25
      vertex -107.325 34.5 1.25
      vertex -102.575 43.201 1.25
    endloop
  endfacet
  facet normal 0 0 1
    outer loop
      vertex -103.292 44.1881 1.25
      vertex -107.325 34.5 1.25
      vertex -103.039 43.6183 1.25
    endloop
  endfacet
  facet normal 0 0 1
    outer loop
      vertex -107.325 34.5 1.25
      vertex -103.292 44.1881 1.25
      vertex -107.325 54.5 1.25
    endloop
  endfacet
  facet normal 1 0 0
    outer loop
      vertex -84.325 47.1 -4.25
      vertex -84.325 54.5 1.25
      vertex -84.325 47.1 -1.75
    endloop
  endfacet
  facet normal 1 0 0
    outer loop
      vertex -84.325 54.5 1.25
      vertex -84.325 41.9 -1.75
      vertex -84.325 47.1 -1.75
    endloop
  endfacet
  facet normal 1 0 0
    outer loop
      vertex -84.325 41.9 -1.75
      vertex -84.325 34.5 1.25
      vertex -84.325 41.9 -4.25
    endloop
  endfacet
  facet normal 1 -0 0
    outer loop
      vertex -84.325 34.5 1.25
      vertex -84.325 41.9 -1.75
      vertex -84.325 54.5 1.25
    endloop
  endfacet
  facet normal 1 0 0
    outer loop
      vertex -84.325 54.5 1.25
      vertex -84.325 47.1 -4.25
      vertex -84.325 54.5 -52.12
    endloop
  endfacet
  facet normal 1 -0 0
    outer loop
      vertex -84.325 41.9 -4.25
      vertex -84.325 54.5 -52.12
      vertex -84.325 47.1 -4.25
    endloop
  endfacet
  facet normal 1 0 0
    outer loop
      vertex -84.325 34.5 -52.12
      vertex -84.325 41.9 -4.25
      vertex -84.325 34.5 1.25
    endloop
  endfacet
  facet normal 1 0 0
    outer loop
      vertex -84.325 41.9 -4.25
      vertex -84.325 34.5 -52.12
      vertex -84.325 54.5 -52.12
    endloop
  endfacet
  facet normal 0 1 -0
    outer loop
      vertex -84.325 54.5 -52.12
      vertex -107.325 54.5 1.25
      vertex -84.325 54.5 1.25
    endloop
  endfacet
  facet normal 0 1 0
    outer loop
      vertex -107.325 54.5 1.25
      vertex -84.325 54.5 -52.12
      vertex -107.325 54.5 -52.12
    endloop
  endfacet
  facet normal 0 0 -1
    outer loop
      vertex -107.325 34.5 -52.12
      vertex -84.325 54.5 -52.12
      vertex -84.325 34.5 -52.12
    endloop
  endfacet
  facet normal -0 0 -1
    outer loop
      vertex -84.325 54.5 -52.12
      vertex -107.325 34.5 -52.12
      vertex -107.325 54.5 -52.12
    endloop
  endfacet
  facet normal 0 -1 0
    outer loop
      vertex -107.325 34.5 -52.12
      vertex -84.325 34.5 1.25
      vertex -107.325 34.5 1.25
    endloop
  endfacet
  facet normal 0 -1 -0
    outer loop
      vertex -84.325 34.5 1.25
      vertex -107.325 34.5 -52.12
      vertex -84.325 34.5 -52.12
    endloop
  endfacet
  facet normal 1 -0 0
    outer loop
      vertex -89.825 45.9753 -4.24
      vertex -89.825 47.1 -4.25
      vertex -89.825 47.1 -4.24
    endloop
  endfacet
  facet normal 1 0 0
    outer loop
      vertex -89.825 47.1 -4.25
      vertex -89.825 45.9753 -4.24
      vertex -89.825 45.9753 -4.25
    endloop
  endfacet
  facet normal 1 -0 0
    outer loop
      vertex -89.825 41.9 -4.24
      vertex -89.825 43.0247 -4.25
      vertex -89.825 43.0247 -4.24
    endloop
  endfacet
  facet normal 1 0 0
    outer loop
      vertex -89.825 43.0247 -4.25
      vertex -89.825 41.9 -4.24
      vertex -89.825 41.9 -4.25
    endloop
  endfacet
  facet normal 0 0 -1
    outer loop
      vertex -84.325 41.9 -1.75
      vertex -86.8228 44.5 -1.75
      vertex -84.325 47.1 -1.75
    endloop
  endfacet
  facet normal 0 -0 -1
    outer loop
      vertex -86.8228 44.5 -1.75
      vertex -84.325 41.9 -1.75
      vertex -88.3238 41.9 -1.75
    endloop
  endfacet
  facet normal -0 0 -1
    outer loop
      vertex -84.325 47.1 -1.75
      vertex -86.8228 44.5 -1.75
      vertex -88.3238 47.1 -1.75
    endloop
  endfacet
  facet normal 0 0 1
    outer loop
      vertex -84.325 47.1 -4.25
      vertex -88.325 44.5 -4.25
      vertex -84.325 41.9 -4.25
    endloop
  endfacet
  facet normal 0 0 1
    outer loop
      vertex -84.325 47.1 -4.25
      vertex -88.4547 45.1101 -4.25
      vertex -88.325 44.5 -4.25
    endloop
  endfacet
  facet normal 0 0 1
    outer loop
      vertex -84.325 47.1 -4.25
      vertex -88.8213 45.6147 -4.25
      vertex -88.4547 45.1101 -4.25
    endloop
  endfacet
  facet normal -0 0 1
    outer loop
      vertex -89.825 47.1 -4.25
      vertex -88.8213 45.6147 -4.25
      vertex -84.325 47.1 -4.25
    endloop
  endfacet
  facet normal 0 0 1
    outer loop
      vertex -88.8213 45.6147 -4.25
      vertex -89.825 47.1 -4.25
      vertex -89.3615 45.9266 -4.25
    endloop
  endfacet
  facet normal 0 0 1
    outer loop
      vertex -89.3615 45.9266 -4.25
      vertex -89.825 47.1 -4.25
      vertex -89.825 45.9753 -4.25
    endloop
  endfacet
  facet normal -0 0 1
    outer loop
      vertex -88.4547 43.8899 -4.25
      vertex -84.325 41.9 -4.25
      vertex -88.325 44.5 -4.25
    endloop
  endfacet
  facet normal -0 0 1
    outer loop
      vertex -88.8213 43.3853 -4.25
      vertex -84.325 41.9 -4.25
      vertex -88.4547 43.8899 -4.25
    endloop
  endfacet
  facet normal 0 0 1
    outer loop
      vertex -89.825 41.9 -4.25
      vertex -88.8213 43.3853 -4.25
      vertex -89.3615 43.0734 -4.25
    endloop
  endfacet
  facet normal 0 0 1
    outer loop
      vertex -89.825 41.9 -4.25
      vertex -89.3615 43.0734 -4.25
      vertex -89.825 43.0247 -4.25
    endloop
  endfacet
  facet normal 0 0 1
    outer loop
      vertex -88.8213 43.3853 -4.25
      vertex -89.825 41.9 -4.25
      vertex -84.325 41.9 -4.25
    endloop
  endfacet
  facet normal 0 1 0
    outer loop
      vertex -84.325 41.9 -1.75
      vertex -88.3238 41.9 -3.74
      vertex -88.3238 41.9 -1.75
    endloop
  endfacet
  facet normal 0 1 -0
    outer loop
      vertex -84.325 41.9 -4.25
      vertex -88.3238 41.9 -3.74
      vertex -84.325 41.9 -1.75
    endloop
  endfacet
  facet normal 0 1 0
    outer loop
      vertex -88.3238 41.9 -3.74
      vertex -84.325 41.9 -4.25
      vertex -88.3238 41.9 -4.24
    endloop
  endfacet
  facet normal 0 1 0
    outer loop
      vertex -89.825 41.9 -4.25
      vertex -88.3238 41.9 -4.24
      vertex -84.325 41.9 -4.25
    endloop
  endfacet
  facet normal 0 1 0
    outer loop
      vertex -88.3238 41.9 -4.24
      vertex -89.825 41.9 -4.25
      vertex -89.825 41.9 -4.24
    endloop
  endfacet
  facet normal 0 -1 0
    outer loop
      vertex -89.825 47.1 -4.24
      vertex -89.825 47.1 -4.25
      vertex -88.3238 47.1 -4.24
    endloop
  endfacet
  facet normal 0 -1 0
    outer loop
      vertex -88.3238 47.1 -3.74
      vertex -84.325 47.1 -1.75
      vertex -88.3238 47.1 -1.75
    endloop
  endfacet
  facet normal 0 -1 0
    outer loop
      vertex -84.325 47.1 -4.25
      vertex -88.3238 47.1 -3.74
      vertex -88.3238 47.1 -4.24
    endloop
  endfacet
  facet normal 0 -1 0
    outer loop
      vertex -88.3238 47.1 -3.74
      vertex -84.325 47.1 -4.25
      vertex -84.325 47.1 -1.75
    endloop
  endfacet
  facet normal 0 -1 0
    outer loop
      vertex -84.325 47.1 -4.25
      vertex -88.3238 47.1 -4.24
      vertex -89.825 47.1 -4.25
    endloop
  endfacet
  facet normal 0 0 -1
    outer loop
      vertex -103.326 41.9 -1.75
      vertex -107.325 41.9 -1.75
      vertex -104.827 44.5 -1.75
    endloop
  endfacet
  facet normal 0 0 -1
    outer loop
      vertex -107.325 47.1 -1.75
      vertex -104.827 44.5 -1.75
      vertex -107.325 41.9 -1.75
    endloop
  endfacet
  facet normal 0 0 -1
    outer loop
      vertex -104.827 44.5 -1.75
      vertex -107.325 47.1 -1.75
      vertex -103.326 47.1 -1.75
    endloop
  endfacet
  facet normal -1 0 0
    outer loop
      vertex -101.825 41.9 -4.25
      vertex -101.825 43.0247 -4.24
      vertex -101.825 43.0247 -4.25
    endloop
  endfacet
  facet normal -1 -0 0
    outer loop
      vertex -101.825 43.0247 -4.24
      vertex -101.825 41.9 -4.25
      vertex -101.825 41.9 -4.24
    endloop
  endfacet
  facet normal -1 0 0
    outer loop
      vertex -101.825 45.9753 -4.25
      vertex -101.825 47.1 -4.24
      vertex -101.825 47.1 -4.25
    endloop
  endfacet
  facet normal -1 -0 0
    outer loop
      vertex -101.825 47.1 -4.24
      vertex -101.825 45.9753 -4.25
      vertex -101.825 45.9753 -4.24
    endloop
  endfacet
  facet normal 0 0 1
    outer loop
      vertex -101.825 47.1 -4.25
      vertex -101.982 45.9918 -4.25
      vertex -101.825 45.9753 -4.25
    endloop
  endfacet
  facet normal 0 0 1
    outer loop
      vertex -101.825 47.1 -4.25
      vertex -102.575 45.799 -4.25
      vertex -101.982 45.9918 -4.25
    endloop
  endfacet
  facet normal -0 0 1
    outer loop
      vertex -107.325 47.1 -4.25
      vertex -102.575 45.799 -4.25
      vertex -101.825 47.1 -4.25
    endloop
  endfacet
  facet normal 0 0 1
    outer loop
      vertex -103.292 44.8119 -4.25
      vertex -107.325 47.1 -4.25
      vertex -103.292 44.1881 -4.25
    endloop
  endfacet
  facet normal 0 0 1
    outer loop
      vertex -103.039 45.3817 -4.25
      vertex -107.325 47.1 -4.25
      vertex -103.292 44.8119 -4.25
    endloop
  endfacet
  facet normal 0 0 1
    outer loop
      vertex -102.575 45.799 -4.25
      vertex -107.325 47.1 -4.25
      vertex -103.039 45.3817 -4.25
    endloop
  endfacet
  facet normal -0 0 1
    outer loop
      vertex -101.982 43.0082 -4.25
      vertex -101.825 41.9 -4.25
      vertex -101.825 43.0247 -4.25
    endloop
  endfacet
  facet normal 0 0 1
    outer loop
      vertex -102.575 43.201 -4.25
      vertex -101.825 41.9 -4.25
      vertex -101.982 43.0082 -4.25
    endloop
  endfacet
  facet normal 0 0 1
    outer loop
      vertex -107.325 41.9 -4.25
      vertex -102.575 43.201 -4.25
      vertex -103.039 43.6183 -4.25
    endloop
  endfacet
  facet normal 0 0 1
    outer loop
      vertex -107.325 41.9 -4.25
      vertex -103.292 44.1881 -4.25
      vertex -107.325 47.1 -4.25
    endloop
  endfacet
  facet normal 0 0 1
    outer loop
      vertex -103.292 44.1881 -4.25
      vertex -107.325 41.9 -4.25
      vertex -103.039 43.6183 -4.25
    endloop
  endfacet
  facet normal 0 0 1
    outer loop
      vertex -102.575 43.201 -4.25
      vertex -107.325 41.9 -4.25
      vertex -101.825 41.9 -4.25
    endloop
  endfacet
  facet normal 0 1 0
    outer loop
      vertex -101.825 41.9 -4.24
      vertex -101.825 41.9 -4.25
      vertex -103.326 41.9 -4.24
    endloop
  endfacet
  facet normal 0 1 -0
    outer loop
      vertex -103.326 41.9 -3.74
      vertex -107.325 41.9 -1.75
      vertex -103.326 41.9 -1.75
    endloop
  endfacet
  facet normal 0 1 0
    outer loop
      vertex -107.325 41.9 -4.25
      vertex -103.326 41.9 -3.74
      vertex -103.326 41.9 -4.24
    endloop
  endfacet
  facet normal 0 1 0
    outer loop
      vertex -103.326 41.9 -3.74
      vertex -107.325 41.9 -4.25
      vertex -107.325 41.9 -1.75
    endloop
  endfacet
  facet normal 0 1 0
    outer loop
      vertex -107.325 41.9 -4.25
      vertex -103.326 41.9 -4.24
      vertex -101.825 41.9 -4.25
    endloop
  endfacet
  facet normal 0 -1 0
    outer loop
      vertex -107.325 47.1 -1.75
      vertex -103.326 47.1 -3.74
      vertex -103.326 47.1 -1.75
    endloop
  endfacet
  facet normal 0 -1 0
    outer loop
      vertex -107.325 47.1 -4.25
      vertex -103.326 47.1 -3.74
      vertex -107.325 47.1 -1.75
    endloop
  endfacet
  facet normal 0 -1 -0
    outer loop
      vertex -103.326 47.1 -3.74
      vertex -107.325 47.1 -4.25
      vertex -103.326 47.1 -4.24
    endloop
  endfacet
  facet normal 0 -1 0
    outer loop
      vertex -101.825 47.1 -4.25
      vertex -103.326 47.1 -4.24
      vertex -107.325 47.1 -4.25
    endloop
  endfacet
  facet normal 0 -1 0
    outer loop
      vertex -103.326 47.1 -4.24
      vertex -101.825 47.1 -4.25
      vertex -101.825 47.1 -4.24
    endloop
  endfacet
endsolid OpenSCAD_Model
