solid OpenSCAD_Model
  facet normal 0 -1 0
    outer loop
      vertex 72.025 12.6 -47.62
      vertex 84.525 12.6 1.25
      vertex 72.025 12.6 1.25
    endloop
  endfacet
  facet normal 0 -1 -0
    outer loop
      vertex 84.525 12.6 1.25
      vertex 72.025 12.6 -47.62
      vertex 84.525 12.6 -47.62
    endloop
  endfacet
  facet normal 0 0 1
    outer loop
      vertex 84.525 12.6 1.25
      vertex 80.1771 18.718 1.25
      vertex 80.264 17.8909 1.25
    endloop
  endfacet
  facet normal 0 0 1
    outer loop
      vertex 84.525 52.6 1.25
      vertex 80.007 46.1 1.25
      vertex 80.1771 18.718 1.25
    endloop
  endfacet
  facet normal 0 0 1
    outer loop
      vertex 80.007 46.1 1.25
      vertex 79.7613 19.4383 1.25
      vertex 80.1771 18.718 1.25
    endloop
  endfacet
  facet normal -0 0 1
    outer loop
      vertex 79.4506 45.482 1.25
      vertex 79.7613 19.4383 1.25
      vertex 80.007 46.1 1.25
    endloop
  endfacet
  facet normal 0 0 1
    outer loop
      vertex 79.4506 45.482 1.25
      vertex 79.0885 19.9271 1.25
      vertex 79.7613 19.4383 1.25
    endloop
  endfacet
  facet normal -0 0 1
    outer loop
      vertex 78.6908 45.1437 1.25
      vertex 79.0885 19.9271 1.25
      vertex 79.4506 45.482 1.25
    endloop
  endfacet
  facet normal 0 0 1
    outer loop
      vertex 78.6908 45.1437 1.25
      vertex 78.275 20.1 1.25
      vertex 79.0885 19.9271 1.25
    endloop
  endfacet
  facet normal -0 0 1
    outer loop
      vertex 77.8592 45.1437 1.25
      vertex 78.275 20.1 1.25
      vertex 78.6908 45.1437 1.25
    endloop
  endfacet
  facet normal 0 0 1
    outer loop
      vertex 77.8592 45.1437 1.25
      vertex 77.4615 19.9271 1.25
      vertex 78.275 20.1 1.25
    endloop
  endfacet
  facet normal 0 0 1
    outer loop
      vertex 77.0994 45.482 1.25
      vertex 77.4615 19.9271 1.25
      vertex 77.8592 45.1437 1.25
    endloop
  endfacet
  facet normal 0 0 1
    outer loop
      vertex 77.0994 45.482 1.25
      vertex 76.7887 19.4383 1.25
      vertex 77.4615 19.9271 1.25
    endloop
  endfacet
  facet normal 0 0 1
    outer loop
      vertex 76.543 46.1 1.25
      vertex 76.7887 19.4383 1.25
      vertex 77.0994 45.482 1.25
    endloop
  endfacet
  facet normal 0 0 1
    outer loop
      vertex 76.543 46.1 1.25
      vertex 76.3729 18.718 1.25
      vertex 76.7887 19.4383 1.25
    endloop
  endfacet
  facet normal 0 0 1
    outer loop
      vertex 72.025 52.6 1.25
      vertex 76.543 46.1 1.25
      vertex 76.286 46.8909 1.25
    endloop
  endfacet
  facet normal 0 0 1
    outer loop
      vertex 76.543 46.1 1.25
      vertex 72.025 52.6 1.25
      vertex 76.3729 18.718 1.25
    endloop
  endfacet
  facet normal 0 0 1
    outer loop
      vertex 80.007 46.1 1.25
      vertex 84.525 52.6 1.25
      vertex 80.264 46.8909 1.25
    endloop
  endfacet
  facet normal 0 0 1
    outer loop
      vertex 84.525 52.6 1.25
      vertex 80.1771 47.718 1.25
      vertex 80.264 46.8909 1.25
    endloop
  endfacet
  facet normal 0 0 1
    outer loop
      vertex 84.525 52.6 1.25
      vertex 79.7613 48.4383 1.25
      vertex 80.1771 47.718 1.25
    endloop
  endfacet
  facet normal 0 0 1
    outer loop
      vertex 84.525 52.6 1.25
      vertex 79.0885 48.9271 1.25
      vertex 79.7613 48.4383 1.25
    endloop
  endfacet
  facet normal 0 0 1
    outer loop
      vertex 84.525 52.6 1.25
      vertex 78.275 49.1 1.25
      vertex 79.0885 48.9271 1.25
    endloop
  endfacet
  facet normal -0 0 1
    outer loop
      vertex 72.025 52.6 1.25
      vertex 78.275 49.1 1.25
      vertex 84.525 52.6 1.25
    endloop
  endfacet
  facet normal 0 0 1
    outer loop
      vertex 76.3729 18.718 1.25
      vertex 72.025 52.6 1.25
      vertex 72.025 12.6 1.25
    endloop
  endfacet
  facet normal 0 0 1
    outer loop
      vertex 76.3729 47.718 1.25
      vertex 72.025 52.6 1.25
      vertex 76.286 46.8909 1.25
    endloop
  endfacet
  facet normal 0 0 1
    outer loop
      vertex 76.7887 48.4383 1.25
      vertex 72.025 52.6 1.25
      vertex 76.3729 47.718 1.25
    endloop
  endfacet
  facet normal 0 0 1
    outer loop
      vertex 77.4615 48.9271 1.25
      vertex 72.025 52.6 1.25
      vertex 76.7887 48.4383 1.25
    endloop
  endfacet
  facet normal 0 0 1
    outer loop
      vertex 78.275 49.1 1.25
      vertex 72.025 52.6 1.25
      vertex 77.4615 48.9271 1.25
    endloop
  endfacet
  facet normal 0 0 1
    outer loop
      vertex 84.525 52.6 1.25
      vertex 80.1771 18.718 1.25
      vertex 84.525 12.6 1.25
    endloop
  endfacet
  facet normal -0 0 1
    outer loop
      vertex 80.007 17.1 1.25
      vertex 84.525 12.6 1.25
      vertex 80.264 17.8909 1.25
    endloop
  endfacet
  facet normal -0 0 1
    outer loop
      vertex 79.4506 16.482 1.25
      vertex 84.525 12.6 1.25
      vertex 80.007 17.1 1.25
    endloop
  endfacet
  facet normal -0 0 1
    outer loop
      vertex 78.6908 16.1437 1.25
      vertex 84.525 12.6 1.25
      vertex 79.4506 16.482 1.25
    endloop
  endfacet
  facet normal -0 0 1
    outer loop
      vertex 77.8592 16.1437 1.25
      vertex 84.525 12.6 1.25
      vertex 78.6908 16.1437 1.25
    endloop
  endfacet
  facet normal 0 0 1
    outer loop
      vertex 72.025 12.6 1.25
      vertex 77.8592 16.1437 1.25
      vertex 77.0994 16.482 1.25
    endloop
  endfacet
  facet normal 0 0 1
    outer loop
      vertex 77.8592 16.1437 1.25
      vertex 72.025 12.6 1.25
      vertex 84.525 12.6 1.25
    endloop
  endfacet
  facet normal 0 0 1
    outer loop
      vertex 76.543 17.1 1.25
      vertex 72.025 12.6 1.25
      vertex 77.0994 16.482 1.25
    endloop
  endfacet
  facet normal 0 0 1
    outer loop
      vertex 76.286 17.8909 1.25
      vertex 72.025 12.6 1.25
      vertex 76.543 17.1 1.25
    endloop
  endfacet
  facet normal 0 0 1
    outer loop
      vertex 76.3729 18.718 1.25
      vertex 72.025 12.6 1.25
      vertex 76.286 17.8909 1.25
    endloop
  endfacet
  facet normal 0 1 -0
    outer loop
      vertex 84.525 52.6 -47.62
      vertex 72.025 52.6 1.25
      vertex 84.525 52.6 1.25
    endloop
  endfacet
  facet normal 0 1 0
    outer loop
      vertex 72.025 52.6 1.25
      vertex 84.525 52.6 -47.62
      vertex 72.025 52.6 -47.62
    endloop
  endfacet
  facet normal 0 0 -1
    outer loop
      vertex 72.025 12.6 -47.62
      vertex 84.525 52.6 -47.62
      vertex 84.525 12.6 -47.62
    endloop
  endfacet
  facet normal -0 0 -1
    outer loop
      vertex 84.525 52.6 -47.62
      vertex 72.025 12.6 -47.62
      vertex 72.025 52.6 -47.62
    endloop
  endfacet
  facet normal 1 -0 0
    outer loop
      vertex 84.525 12.6 1.25
      vertex 84.525 52.6 -47.62
      vertex 84.525 52.6 1.25
    endloop
  endfacet
  facet normal 1 0 0
    outer loop
      vertex 84.525 52.6 -47.62
      vertex 84.525 12.6 1.25
      vertex 84.525 12.6 -47.62
    endloop
  endfacet
  facet normal -1 0 0
    outer loop
      vertex 72.025 12.6 -47.62
      vertex 72.025 52.6 1.25
      vertex 72.025 52.6 -47.62
    endloop
  endfacet
  facet normal -1 -0 0
    outer loop
      vertex 72.025 52.6 1.25
      vertex 72.025 12.6 -47.62
      vertex 72.025 12.6 1.25
    endloop
  endfacet
  facet normal -0.207912 -0.978147 0
    outer loop
      vertex 78.275 49.1 -3.74
      vertex 79.0885 48.9271 1.25
      vertex 78.275 49.1 1.25
    endloop
  endfacet
  facet normal -0.207912 -0.978147 -0
    outer loop
      vertex 79.0885 48.9271 1.25
      vertex 78.275 49.1 -3.74
      vertex 79.0885 48.9271 -3.74
    endloop
  endfacet
  facet normal -0.994522 -0.104527 0
    outer loop
      vertex 80.264 46.8909 -3.74
      vertex 80.1771 47.718 1.25
      vertex 80.1771 47.718 -3.74
    endloop
  endfacet
  facet normal -0.994522 -0.104527 0
    outer loop
      vertex 80.1771 47.718 1.25
      vertex 80.264 46.8909 -3.74
      vertex 80.264 46.8909 1.25
    endloop
  endfacet
  facet normal 0 1 -0
    outer loop
      vertex 78.6908 45.1437 -3.74
      vertex 77.8592 45.1437 1.25
      vertex 78.6908 45.1437 1.25
    endloop
  endfacet
  facet normal 0 1 0
    outer loop
      vertex 77.8592 45.1437 1.25
      vertex 78.6908 45.1437 -3.74
      vertex 77.8592 45.1437 -3.74
    endloop
  endfacet
  facet normal 0.866024 -0.500002 0
    outer loop
      vertex 76.3729 47.718 1.25
      vertex 76.7887 48.4383 -3.74
      vertex 76.7887 48.4383 1.25
    endloop
  endfacet
  facet normal 0.866024 -0.500002 0
    outer loop
      vertex 76.7887 48.4383 -3.74
      vertex 76.3729 47.718 1.25
      vertex 76.3729 47.718 -3.74
    endloop
  endfacet
  facet normal 0.994522 -0.104527 0
    outer loop
      vertex 76.286 46.8909 1.25
      vertex 76.3729 47.718 -3.74
      vertex 76.3729 47.718 1.25
    endloop
  endfacet
  facet normal 0.994522 -0.104527 0
    outer loop
      vertex 76.3729 47.718 -3.74
      vertex 76.286 46.8909 1.25
      vertex 76.286 46.8909 -3.74
    endloop
  endfacet
  facet normal -0.866024 -0.500002 0
    outer loop
      vertex 80.1771 47.718 -3.74
      vertex 79.7613 48.4383 1.25
      vertex 79.7613 48.4383 -3.74
    endloop
  endfacet
  facet normal -0.866024 -0.500002 0
    outer loop
      vertex 79.7613 48.4383 1.25
      vertex 80.1771 47.718 -3.74
      vertex 80.1771 47.718 1.25
    endloop
  endfacet
  facet normal -0.743145 0.66913 0
    outer loop
      vertex 79.4506 45.482 -3.74
      vertex 80.007 46.1 1.25
      vertex 80.007 46.1 -3.74
    endloop
  endfacet
  facet normal -0.743145 0.66913 0
    outer loop
      vertex 80.007 46.1 1.25
      vertex 79.4506 45.482 -3.74
      vertex 79.4506 45.482 1.25
    endloop
  endfacet
  facet normal 0.587788 -0.809015 0
    outer loop
      vertex 76.7887 48.4383 -3.74
      vertex 77.4615 48.9271 1.25
      vertex 76.7887 48.4383 1.25
    endloop
  endfacet
  facet normal 0.587788 -0.809015 0
    outer loop
      vertex 77.4615 48.9271 1.25
      vertex 76.7887 48.4383 -3.74
      vertex 77.4615 48.9271 -3.74
    endloop
  endfacet
  facet normal 0.951055 0.30902 0
    outer loop
      vertex 76.543 46.1 1.25
      vertex 76.286 46.8909 -3.74
      vertex 76.286 46.8909 1.25
    endloop
  endfacet
  facet normal 0.951055 0.30902 0
    outer loop
      vertex 76.286 46.8909 -3.74
      vertex 76.543 46.1 1.25
      vertex 76.543 46.1 -3.74
    endloop
  endfacet
  facet normal -0.587783 -0.809018 0
    outer loop
      vertex 79.0885 48.9271 -3.74
      vertex 79.7613 48.4383 1.25
      vertex 79.0885 48.9271 1.25
    endloop
  endfacet
  facet normal -0.587783 -0.809018 -0
    outer loop
      vertex 79.7613 48.4383 1.25
      vertex 79.0885 48.9271 -3.74
      vertex 79.7613 48.4383 -3.74
    endloop
  endfacet
  facet normal 0 0 1
    outer loop
      vertex 80.1771 47.718 -3.74
      vertex 80.007 46.1 -3.74
      vertex 80.264 46.8909 -3.74
    endloop
  endfacet
  facet normal 0 0 1
    outer loop
      vertex 79.7613 48.4383 -3.74
      vertex 80.007 46.1 -3.74
      vertex 80.1771 47.718 -3.74
    endloop
  endfacet
  facet normal 0 0 1
    outer loop
      vertex 79.7613 48.4383 -3.74
      vertex 79.4506 45.482 -3.74
      vertex 80.007 46.1 -3.74
    endloop
  endfacet
  facet normal 0 0 1
    outer loop
      vertex 79.0885 48.9271 -3.74
      vertex 79.4506 45.482 -3.74
      vertex 79.7613 48.4383 -3.74
    endloop
  endfacet
  facet normal 0 0 1
    outer loop
      vertex 79.0885 48.9271 -3.74
      vertex 78.6908 45.1437 -3.74
      vertex 79.4506 45.482 -3.74
    endloop
  endfacet
  facet normal 0 0 1
    outer loop
      vertex 78.275 49.1 -3.74
      vertex 78.6908 45.1437 -3.74
      vertex 79.0885 48.9271 -3.74
    endloop
  endfacet
  facet normal 0 0 1
    outer loop
      vertex 78.275 49.1 -3.74
      vertex 77.8592 45.1437 -3.74
      vertex 78.6908 45.1437 -3.74
    endloop
  endfacet
  facet normal -0 0 1
    outer loop
      vertex 77.4615 48.9271 -3.74
      vertex 77.8592 45.1437 -3.74
      vertex 78.275 49.1 -3.74
    endloop
  endfacet
  facet normal 0 0 1
    outer loop
      vertex 77.4615 48.9271 -3.74
      vertex 77.0994 45.482 -3.74
      vertex 77.8592 45.1437 -3.74
    endloop
  endfacet
  facet normal -0 0 1
    outer loop
      vertex 76.7887 48.4383 -3.74
      vertex 77.0994 45.482 -3.74
      vertex 77.4615 48.9271 -3.74
    endloop
  endfacet
  facet normal 0 0 1
    outer loop
      vertex 76.7887 48.4383 -3.74
      vertex 76.543 46.1 -3.74
      vertex 77.0994 45.482 -3.74
    endloop
  endfacet
  facet normal -0 0 1
    outer loop
      vertex 76.3729 47.718 -3.74
      vertex 76.543 46.1 -3.74
      vertex 76.7887 48.4383 -3.74
    endloop
  endfacet
  facet normal 0 0 1
    outer loop
      vertex 76.543 46.1 -3.74
      vertex 76.3729 47.718 -3.74
      vertex 76.286 46.8909 -3.74
    endloop
  endfacet
  facet normal -0.406738 0.913545 0
    outer loop
      vertex 79.4506 45.482 -3.74
      vertex 78.6908 45.1437 1.25
      vertex 79.4506 45.482 1.25
    endloop
  endfacet
  facet normal -0.406738 0.913545 0
    outer loop
      vertex 78.6908 45.1437 1.25
      vertex 79.4506 45.482 -3.74
      vertex 78.6908 45.1437 -3.74
    endloop
  endfacet
  facet normal -0.951055 0.30902 0
    outer loop
      vertex 80.007 46.1 -3.74
      vertex 80.264 46.8909 1.25
      vertex 80.264 46.8909 -3.74
    endloop
  endfacet
  facet normal -0.951055 0.30902 0
    outer loop
      vertex 80.264 46.8909 1.25
      vertex 80.007 46.1 -3.74
      vertex 80.007 46.1 1.25
    endloop
  endfacet
  facet normal 0.207911 -0.978148 0
    outer loop
      vertex 77.4615 48.9271 -3.74
      vertex 78.275 49.1 1.25
      vertex 77.4615 48.9271 1.25
    endloop
  endfacet
  facet normal 0.207911 -0.978148 0
    outer loop
      vertex 78.275 49.1 1.25
      vertex 77.4615 48.9271 -3.74
      vertex 78.275 49.1 -3.74
    endloop
  endfacet
  facet normal 0.406735 0.913546 -0
    outer loop
      vertex 77.8592 45.1437 -3.74
      vertex 77.0994 45.482 1.25
      vertex 77.8592 45.1437 1.25
    endloop
  endfacet
  facet normal 0.406735 0.913546 0
    outer loop
      vertex 77.0994 45.482 1.25
      vertex 77.8592 45.1437 -3.74
      vertex 77.0994 45.482 -3.74
    endloop
  endfacet
  facet normal 0.74315 0.669125 0
    outer loop
      vertex 77.0994 45.482 1.25
      vertex 76.543 46.1 -3.74
      vertex 76.543 46.1 1.25
    endloop
  endfacet
  facet normal 0.74315 0.669125 0
    outer loop
      vertex 76.543 46.1 -3.74
      vertex 77.0994 45.482 1.25
      vertex 77.0994 45.482 -3.74
    endloop
  endfacet
  facet normal -0.207912 -0.978147 0
    outer loop
      vertex 78.275 20.1 -3.74
      vertex 79.0885 19.9271 1.25
      vertex 78.275 20.1 1.25
    endloop
  endfacet
  facet normal -0.207912 -0.978147 -0
    outer loop
      vertex 79.0885 19.9271 1.25
      vertex 78.275 20.1 -3.74
      vertex 79.0885 19.9271 -3.74
    endloop
  endfacet
  facet normal -0.994522 -0.104527 0
    outer loop
      vertex 80.264 17.8909 -3.74
      vertex 80.1771 18.718 1.25
      vertex 80.1771 18.718 -3.74
    endloop
  endfacet
  facet normal -0.994522 -0.104527 0
    outer loop
      vertex 80.1771 18.718 1.25
      vertex 80.264 17.8909 -3.74
      vertex 80.264 17.8909 1.25
    endloop
  endfacet
  facet normal 0 1 -0
    outer loop
      vertex 78.6908 16.1437 -3.74
      vertex 77.8592 16.1437 1.25
      vertex 78.6908 16.1437 1.25
    endloop
  endfacet
  facet normal 0 1 0
    outer loop
      vertex 77.8592 16.1437 1.25
      vertex 78.6908 16.1437 -3.74
      vertex 77.8592 16.1437 -3.74
    endloop
  endfacet
  facet normal 0.994522 -0.104527 0
    outer loop
      vertex 76.286 17.8909 1.25
      vertex 76.3729 18.718 -3.74
      vertex 76.3729 18.718 1.25
    endloop
  endfacet
  facet normal 0.994522 -0.104527 0
    outer loop
      vertex 76.3729 18.718 -3.74
      vertex 76.286 17.8909 1.25
      vertex 76.286 17.8909 -3.74
    endloop
  endfacet
  facet normal 0.207911 -0.978148 0
    outer loop
      vertex 77.4615 19.9271 -3.74
      vertex 78.275 20.1 1.25
      vertex 77.4615 19.9271 1.25
    endloop
  endfacet
  facet normal 0.207911 -0.978148 0
    outer loop
      vertex 78.275 20.1 1.25
      vertex 77.4615 19.9271 -3.74
      vertex 78.275 20.1 -3.74
    endloop
  endfacet
  facet normal 0.587788 -0.809015 0
    outer loop
      vertex 76.7887 19.4383 -3.74
      vertex 77.4615 19.9271 1.25
      vertex 76.7887 19.4383 1.25
    endloop
  endfacet
  facet normal 0.587788 -0.809015 0
    outer loop
      vertex 77.4615 19.9271 1.25
      vertex 76.7887 19.4383 -3.74
      vertex 77.4615 19.9271 -3.74
    endloop
  endfacet
  facet normal 0.951055 0.30902 0
    outer loop
      vertex 76.543 17.1 1.25
      vertex 76.286 17.8909 -3.74
      vertex 76.286 17.8909 1.25
    endloop
  endfacet
  facet normal 0.951055 0.30902 0
    outer loop
      vertex 76.286 17.8909 -3.74
      vertex 76.543 17.1 1.25
      vertex 76.543 17.1 -3.74
    endloop
  endfacet
  facet normal -0.587783 -0.809018 0
    outer loop
      vertex 79.0885 19.9271 -3.74
      vertex 79.7613 19.4383 1.25
      vertex 79.0885 19.9271 1.25
    endloop
  endfacet
  facet normal -0.587783 -0.809018 -0
    outer loop
      vertex 79.7613 19.4383 1.25
      vertex 79.0885 19.9271 -3.74
      vertex 79.7613 19.4383 -3.74
    endloop
  endfacet
  facet normal -0.866024 -0.500002 0
    outer loop
      vertex 80.1771 18.718 -3.74
      vertex 79.7613 19.4383 1.25
      vertex 79.7613 19.4383 -3.74
    endloop
  endfacet
  facet normal -0.866024 -0.500002 0
    outer loop
      vertex 79.7613 19.4383 1.25
      vertex 80.1771 18.718 -3.74
      vertex 80.1771 18.718 1.25
    endloop
  endfacet
  facet normal 0 0 1
    outer loop
      vertex 80.1771 18.718 -3.74
      vertex 80.007 17.1 -3.74
      vertex 80.264 17.8909 -3.74
    endloop
  endfacet
  facet normal 0 0 1
    outer loop
      vertex 79.7613 19.4383 -3.74
      vertex 80.007 17.1 -3.74
      vertex 80.1771 18.718 -3.74
    endloop
  endfacet
  facet normal 0 0 1
    outer loop
      vertex 79.7613 19.4383 -3.74
      vertex 79.4506 16.482 -3.74
      vertex 80.007 17.1 -3.74
    endloop
  endfacet
  facet normal 0 0 1
    outer loop
      vertex 79.0885 19.9271 -3.74
      vertex 79.4506 16.482 -3.74
      vertex 79.7613 19.4383 -3.74
    endloop
  endfacet
  facet normal 0 0 1
    outer loop
      vertex 79.0885 19.9271 -3.74
      vertex 78.6908 16.1437 -3.74
      vertex 79.4506 16.482 -3.74
    endloop
  endfacet
  facet normal 0 0 1
    outer loop
      vertex 78.275 20.1 -3.74
      vertex 78.6908 16.1437 -3.74
      vertex 79.0885 19.9271 -3.74
    endloop
  endfacet
  facet normal 0 0 1
    outer loop
      vertex 78.275 20.1 -3.74
      vertex 77.8592 16.1437 -3.74
      vertex 78.6908 16.1437 -3.74
    endloop
  endfacet
  facet normal -0 0 1
    outer loop
      vertex 77.4615 19.9271 -3.74
      vertex 77.8592 16.1437 -3.74
      vertex 78.275 20.1 -3.74
    endloop
  endfacet
  facet normal 0 0 1
    outer loop
      vertex 77.4615 19.9271 -3.74
      vertex 77.0994 16.482 -3.74
      vertex 77.8592 16.1437 -3.74
    endloop
  endfacet
  facet normal -0 0 1
    outer loop
      vertex 76.7887 19.4383 -3.74
      vertex 77.0994 16.482 -3.74
      vertex 77.4615 19.9271 -3.74
    endloop
  endfacet
  facet normal 0 0 1
    outer loop
      vertex 76.7887 19.4383 -3.74
      vertex 76.543 17.1 -3.74
      vertex 77.0994 16.482 -3.74
    endloop
  endfacet
  facet normal -0 0 1
    outer loop
      vertex 76.3729 18.718 -3.74
      vertex 76.543 17.1 -3.74
      vertex 76.7887 19.4383 -3.74
    endloop
  endfacet
  facet normal 0 0 1
    outer loop
      vertex 76.543 17.1 -3.74
      vertex 76.3729 18.718 -3.74
      vertex 76.286 17.8909 -3.74
    endloop
  endfacet
  facet normal -0.406738 0.913545 0
    outer loop
      vertex 79.4506 16.482 -3.74
      vertex 78.6908 16.1437 1.25
      vertex 79.4506 16.482 1.25
    endloop
  endfacet
  facet normal -0.406738 0.913545 0
    outer loop
      vertex 78.6908 16.1437 1.25
      vertex 79.4506 16.482 -3.74
      vertex 78.6908 16.1437 -3.74
    endloop
  endfacet
  facet normal -0.951055 0.30902 0
    outer loop
      vertex 80.007 17.1 -3.74
      vertex 80.264 17.8909 1.25
      vertex 80.264 17.8909 -3.74
    endloop
  endfacet
  facet normal -0.951055 0.30902 0
    outer loop
      vertex 80.264 17.8909 1.25
      vertex 80.007 17.1 -3.74
      vertex 80.007 17.1 1.25
    endloop
  endfacet
  facet normal -0.743145 0.66913 0
    outer loop
      vertex 79.4506 16.482 -3.74
      vertex 80.007 17.1 1.25
      vertex 80.007 17.1 -3.74
    endloop
  endfacet
  facet normal -0.743145 0.66913 0
    outer loop
      vertex 80.007 17.1 1.25
      vertex 79.4506 16.482 -3.74
      vertex 79.4506 16.482 1.25
    endloop
  endfacet
  facet normal 0.866024 -0.500002 0
    outer loop
      vertex 76.3729 18.718 1.25
      vertex 76.7887 19.4383 -3.74
      vertex 76.7887 19.4383 1.25
    endloop
  endfacet
  facet normal 0.866024 -0.500002 0
    outer loop
      vertex 76.7887 19.4383 -3.74
      vertex 76.3729 18.718 1.25
      vertex 76.3729 18.718 -3.74
    endloop
  endfacet
  facet normal 0.406735 0.913546 -0
    outer loop
      vertex 77.8592 16.1437 -3.74
      vertex 77.0994 16.482 1.25
      vertex 77.8592 16.1437 1.25
    endloop
  endfacet
  facet normal 0.406735 0.913546 0
    outer loop
      vertex 77.0994 16.482 1.25
      vertex 77.8592 16.1437 -3.74
      vertex 77.0994 16.482 -3.74
    endloop
  endfacet
  facet normal 0.74315 0.669125 0
    outer loop
      vertex 77.0994 16.482 1.25
      vertex 76.543 17.1 -3.74
      vertex 76.543 17.1 1.25
    endloop
  endfacet
  facet normal 0.74315 0.669125 0
    outer loop
      vertex 76.543 17.1 -3.74
      vertex 77.0994 16.482 1.25
      vertex 77.0994 16.482 -3.74
    endloop
  endfacet
endsolid OpenSCAD_Model
