solid OpenSCAD_Model
  facet normal -1 0 0
    outer loop
      vertex -11.5 -10 -26.685
      vertex -11.5 10 26.685
      vertex -11.5 10 -26.685
    endloop
  endfacet
  facet normal -1 -0 0
    outer loop
      vertex -11.5 10 26.685
      vertex -11.5 -10 -26.685
      vertex -11.5 -10 26.685
    endloop
  endfacet
  facet normal 0 0 1
    outer loop
      vertex 11.5 10 26.685
      vertex 8 0 26.685
      vertex 11.5 -10 26.685
    endloop
  endfacet
  facet normal 0 0 1
    outer loop
      vertex 11.5 10 26.685
      vertex 7.82709 0.813473 26.685
      vertex 8 0 26.685
    endloop
  endfacet
  facet normal 0 0 1
    outer loop
      vertex 11.5 10 26.685
      vertex 7.33826 1.48629 26.685
      vertex 7.82709 0.813473 26.685
    endloop
  endfacet
  facet normal 0 0 1
    outer loop
      vertex 11.5 10 26.685
      vertex 6.61803 1.90211 26.685
      vertex 7.33826 1.48629 26.685
    endloop
  endfacet
  facet normal 0 0 1
    outer loop
      vertex 11.5 10 26.685
      vertex 5.79094 1.98904 26.685
      vertex 6.61803 1.90211 26.685
    endloop
  endfacet
  facet normal 0 0 1
    outer loop
      vertex 11.5 10 26.685
      vertex 5 1.73205 26.685
      vertex 5.79094 1.98904 26.685
    endloop
  endfacet
  facet normal -0 0 1
    outer loop
      vertex -5.38197 1.90211 26.685
      vertex 5 1.73205 26.685
      vertex 11.5 10 26.685
    endloop
  endfacet
  facet normal 0 0 1
    outer loop
      vertex 4.0437 0.415823 26.685
      vertex -4 0 26.685
      vertex 4.0437 -0.415823 26.685
    endloop
  endfacet
  facet normal -0 0 1
    outer loop
      vertex -4.17291 0.813473 26.685
      vertex 4.0437 0.415823 26.685
      vertex 4.38197 1.17557 26.685
    endloop
  endfacet
  facet normal 0 -0 1
    outer loop
      vertex -4.66174 1.48629 26.685
      vertex 5 1.73205 26.685
      vertex -5.38197 1.90211 26.685
    endloop
  endfacet
  facet normal 0 0 1
    outer loop
      vertex 4.0437 0.415823 26.685
      vertex -4.17291 0.813473 26.685
      vertex -4 0 26.685
    endloop
  endfacet
  facet normal 0 0 1
    outer loop
      vertex 4.38197 1.17557 26.685
      vertex -4.66174 1.48629 26.685
      vertex -4.17291 0.813473 26.685
    endloop
  endfacet
  facet normal 0 0 1
    outer loop
      vertex 5 1.73205 26.685
      vertex -4.66174 1.48629 26.685
      vertex 4.38197 1.17557 26.685
    endloop
  endfacet
  facet normal -0 0 1
    outer loop
      vertex -11.5 10 26.685
      vertex -5.38197 1.90211 26.685
      vertex 11.5 10 26.685
    endloop
  endfacet
  facet normal 0 0 1
    outer loop
      vertex -5.38197 1.90211 26.685
      vertex -11.5 10 26.685
      vertex -6.20906 1.98904 26.685
    endloop
  endfacet
  facet normal 0 0 1
    outer loop
      vertex -7.9563 0.415823 26.685
      vertex -11.5 10 26.685
      vertex -7.9563 -0.415823 26.685
    endloop
  endfacet
  facet normal 0 0 1
    outer loop
      vertex -7.61803 1.17557 26.685
      vertex -11.5 10 26.685
      vertex -7.9563 0.415823 26.685
    endloop
  endfacet
  facet normal 0 0 1
    outer loop
      vertex -7 1.73205 26.685
      vertex -11.5 10 26.685
      vertex -7.61803 1.17557 26.685
    endloop
  endfacet
  facet normal 0 0 1
    outer loop
      vertex -6.20906 1.98904 26.685
      vertex -11.5 10 26.685
      vertex -7 1.73205 26.685
    endloop
  endfacet
  facet normal -0 0 1
    outer loop
      vertex 7.82709 -0.813473 26.685
      vertex 11.5 -10 26.685
      vertex 8 0 26.685
    endloop
  endfacet
  facet normal -0 0 1
    outer loop
      vertex 7.33826 -1.48629 26.685
      vertex 11.5 -10 26.685
      vertex 7.82709 -0.813473 26.685
    endloop
  endfacet
  facet normal -0 0 1
    outer loop
      vertex 6.61803 -1.90211 26.685
      vertex 11.5 -10 26.685
      vertex 7.33826 -1.48629 26.685
    endloop
  endfacet
  facet normal -0 0 1
    outer loop
      vertex 5.79094 -1.98904 26.685
      vertex 11.5 -10 26.685
      vertex 6.61803 -1.90211 26.685
    endloop
  endfacet
  facet normal 0 0 1
    outer loop
      vertex 5 -1.73205 26.685
      vertex 11.5 -10 26.685
      vertex 5.79094 -1.98904 26.685
    endloop
  endfacet
  facet normal -0 0 1
    outer loop
      vertex -4.66174 -1.48629 26.685
      vertex 5 -1.73205 26.685
      vertex 4.38197 -1.17557 26.685
    endloop
  endfacet
  facet normal 0 0 1
    outer loop
      vertex -4.17291 -0.813473 26.685
      vertex 4.0437 -0.415823 26.685
      vertex -4 0 26.685
    endloop
  endfacet
  facet normal 0 0 1
    outer loop
      vertex 4.0437 -0.415823 26.685
      vertex -4.17291 -0.813473 26.685
      vertex 4.38197 -1.17557 26.685
    endloop
  endfacet
  facet normal 0 0 1
    outer loop
      vertex -4.66174 -1.48629 26.685
      vertex 4.38197 -1.17557 26.685
      vertex -4.17291 -0.813473 26.685
    endloop
  endfacet
  facet normal 0 0 1
    outer loop
      vertex 5 -1.73205 26.685
      vertex -4.66174 -1.48629 26.685
      vertex -5.38197 -1.90211 26.685
    endloop
  endfacet
  facet normal 0 0 1
    outer loop
      vertex 5 -1.73205 26.685
      vertex -5.38197 -1.90211 26.685
      vertex 11.5 -10 26.685
    endloop
  endfacet
  facet normal 0 0 1
    outer loop
      vertex -11.5 -10 26.685
      vertex -5.38197 -1.90211 26.685
      vertex -6.20906 -1.98904 26.685
    endloop
  endfacet
  facet normal 0 0 1
    outer loop
      vertex -11.5 -10 26.685
      vertex -6.20906 -1.98904 26.685
      vertex -7 -1.73205 26.685
    endloop
  endfacet
  facet normal 0 0 1
    outer loop
      vertex -5.38197 -1.90211 26.685
      vertex -11.5 -10 26.685
      vertex 11.5 -10 26.685
    endloop
  endfacet
  facet normal 0 0 1
    outer loop
      vertex -7.61803 -1.17557 26.685
      vertex -11.5 -10 26.685
      vertex -7 -1.73205 26.685
    endloop
  endfacet
  facet normal 0 0 1
    outer loop
      vertex -7.9563 -0.415823 26.685
      vertex -11.5 -10 26.685
      vertex -7.61803 -1.17557 26.685
    endloop
  endfacet
  facet normal 0 0 1
    outer loop
      vertex -11.5 -10 26.685
      vertex -7.9563 -0.415823 26.685
      vertex -11.5 10 26.685
    endloop
  endfacet
  facet normal 1 -0 0
    outer loop
      vertex 11.5 -10 26.685
      vertex 11.5 10 -26.685
      vertex 11.5 10 26.685
    endloop
  endfacet
  facet normal 1 0 0
    outer loop
      vertex 11.5 10 -26.685
      vertex 11.5 -10 26.685
      vertex 11.5 -10 -26.685
    endloop
  endfacet
  facet normal 0 0 -1
    outer loop
      vertex -11.5 -10 -26.685
      vertex 11.5 10 -26.685
      vertex 11.5 -10 -26.685
    endloop
  endfacet
  facet normal -0 0 -1
    outer loop
      vertex 11.5 10 -26.685
      vertex -11.5 -10 -26.685
      vertex -11.5 10 -26.685
    endloop
  endfacet
  facet normal 0 -1 0
    outer loop
      vertex -11.5 -10 -26.685
      vertex 11.5 -10 26.685
      vertex -11.5 -10 26.685
    endloop
  endfacet
  facet normal 0 -1 -0
    outer loop
      vertex 11.5 -10 26.685
      vertex -11.5 -10 -26.685
      vertex 11.5 -10 -26.685
    endloop
  endfacet
  facet normal 0 1 -0
    outer loop
      vertex 11.5 10 -26.685
      vertex -11.5 10 26.685
      vertex 11.5 10 26.685
    endloop
  endfacet
  facet normal 0 1 0
    outer loop
      vertex -11.5 10 26.685
      vertex 11.5 10 -26.685
      vertex -11.5 10 -26.685
    endloop
  endfacet
  facet normal -0.978147 0.207913 0
    outer loop
      vertex 7.82709 -0.813473 21.695
      vertex 8 0 26.685
      vertex 8 0 21.695
    endloop
  endfacet
  facet normal -0.978147 0.207913 0
    outer loop
      vertex 8 0 26.685
      vertex 7.82709 -0.813473 21.695
      vertex 7.82709 -0.813473 26.685
    endloop
  endfacet
  facet normal -0.809017 0.587785 0
    outer loop
      vertex 7.33826 -1.48629 21.695
      vertex 7.82709 -0.813473 26.685
      vertex 7.82709 -0.813473 21.695
    endloop
  endfacet
  facet normal -0.809017 0.587785 0
    outer loop
      vertex 7.82709 -0.813473 26.685
      vertex 7.33826 -1.48629 21.695
      vertex 7.33826 -1.48629 26.685
    endloop
  endfacet
  facet normal -0.104528 0.994522 0
    outer loop
      vertex 6.61803 -1.90211 21.695
      vertex 5.79094 -1.98904 26.685
      vertex 6.61803 -1.90211 26.685
    endloop
  endfacet
  facet normal -0.104528 0.994522 0
    outer loop
      vertex 5.79094 -1.98904 26.685
      vertex 6.61803 -1.90211 21.695
      vertex 5.79094 -1.98904 21.695
    endloop
  endfacet
  facet normal -0.5 -0.866025 0
    outer loop
      vertex 6.61803 1.90211 21.695
      vertex 7.33826 1.48629 26.685
      vertex 6.61803 1.90211 26.685
    endloop
  endfacet
  facet normal -0.5 -0.866025 -0
    outer loop
      vertex 7.33826 1.48629 26.685
      vertex 6.61803 1.90211 21.695
      vertex 7.33826 1.48629 21.695
    endloop
  endfacet
  facet normal -0.5 0.866025 0
    outer loop
      vertex 7.33826 -1.48629 21.695
      vertex 6.61803 -1.90211 26.685
      vertex 7.33826 -1.48629 26.685
    endloop
  endfacet
  facet normal -0.5 0.866025 0
    outer loop
      vertex 6.61803 -1.90211 26.685
      vertex 7.33826 -1.48629 21.695
      vertex 6.61803 -1.90211 21.695
    endloop
  endfacet
  facet normal 0.66913 0.743146 -0
    outer loop
      vertex 5 -1.73205 21.695
      vertex 4.38197 -1.17557 26.685
      vertex 5 -1.73205 26.685
    endloop
  endfacet
  facet normal 0.66913 0.743146 0
    outer loop
      vertex 4.38197 -1.17557 26.685
      vertex 5 -1.73205 21.695
      vertex 4.38197 -1.17557 21.695
    endloop
  endfacet
  facet normal 0 0 1
    outer loop
      vertex 7.82709 0.813473 21.695
      vertex 7.82709 -0.813473 21.695
      vertex 8 0 21.695
    endloop
  endfacet
  facet normal 0 0 1
    outer loop
      vertex 7.33826 1.48629 21.695
      vertex 7.82709 -0.813473 21.695
      vertex 7.82709 0.813473 21.695
    endloop
  endfacet
  facet normal 0 0 1
    outer loop
      vertex 7.33826 1.48629 21.695
      vertex 7.33826 -1.48629 21.695
      vertex 7.82709 -0.813473 21.695
    endloop
  endfacet
  facet normal 0 0 1
    outer loop
      vertex 6.61803 1.90211 21.695
      vertex 7.33826 -1.48629 21.695
      vertex 7.33826 1.48629 21.695
    endloop
  endfacet
  facet normal 0 0 1
    outer loop
      vertex 6.61803 1.90211 21.695
      vertex 6.61803 -1.90211 21.695
      vertex 7.33826 -1.48629 21.695
    endloop
  endfacet
  facet normal 0 0 1
    outer loop
      vertex 5.79094 1.98904 21.695
      vertex 6.61803 -1.90211 21.695
      vertex 6.61803 1.90211 21.695
    endloop
  endfacet
  facet normal 0 0 1
    outer loop
      vertex 5.79094 1.98904 21.695
      vertex 5.79094 -1.98904 21.695
      vertex 6.61803 -1.90211 21.695
    endloop
  endfacet
  facet normal 0 0 1
    outer loop
      vertex 5.79094 1.98904 21.695
      vertex 5 -1.73205 21.695
      vertex 5.79094 -1.98904 21.695
    endloop
  endfacet
  facet normal -0 0 1
    outer loop
      vertex 5 1.73205 21.695
      vertex 5 -1.73205 21.695
      vertex 5.79094 1.98904 21.695
    endloop
  endfacet
  facet normal -0 0 1
    outer loop
      vertex 4.38197 1.17557 21.695
      vertex 5 -1.73205 21.695
      vertex 5 1.73205 21.695
    endloop
  endfacet
  facet normal 0 0 1
    outer loop
      vertex 4.38197 1.17557 21.695
      vertex 4.38197 -1.17557 21.695
      vertex 5 -1.73205 21.695
    endloop
  endfacet
  facet normal -0 0 1
    outer loop
      vertex 4.0437 0.415823 21.695
      vertex 4.38197 -1.17557 21.695
      vertex 4.38197 1.17557 21.695
    endloop
  endfacet
  facet normal 0 0 1
    outer loop
      vertex 4.38197 -1.17557 21.695
      vertex 4.0437 0.415823 21.695
      vertex 4.0437 -0.415823 21.695
    endloop
  endfacet
  facet normal 0.309018 0.951056 -0
    outer loop
      vertex 5.79094 -1.98904 21.695
      vertex 5 -1.73205 26.685
      vertex 5.79094 -1.98904 26.685
    endloop
  endfacet
  facet normal 0.309018 0.951056 0
    outer loop
      vertex 5 -1.73205 26.685
      vertex 5.79094 -1.98904 21.695
      vertex 5 -1.73205 21.695
    endloop
  endfacet
  facet normal 0.913545 -0.406737 0
    outer loop
      vertex 4.0437 0.415823 26.685
      vertex 4.38197 1.17557 21.695
      vertex 4.38197 1.17557 26.685
    endloop
  endfacet
  facet normal 0.913545 -0.406737 0
    outer loop
      vertex 4.38197 1.17557 21.695
      vertex 4.0437 0.415823 26.685
      vertex 4.0437 0.415823 21.695
    endloop
  endfacet
  facet normal 0.913545 0.406737 0
    outer loop
      vertex 4.38197 -1.17557 26.685
      vertex 4.0437 -0.415823 21.695
      vertex 4.0437 -0.415823 26.685
    endloop
  endfacet
  facet normal 0.913545 0.406737 0
    outer loop
      vertex 4.0437 -0.415823 21.695
      vertex 4.38197 -1.17557 26.685
      vertex 4.38197 -1.17557 21.695
    endloop
  endfacet
  facet normal 1 -0 0
    outer loop
      vertex 4.0437 -0.415823 26.685
      vertex 4.0437 0.415823 21.695
      vertex 4.0437 0.415823 26.685
    endloop
  endfacet
  facet normal 1 0 0
    outer loop
      vertex 4.0437 0.415823 21.695
      vertex 4.0437 -0.415823 26.685
      vertex 4.0437 -0.415823 21.695
    endloop
  endfacet
  facet normal -0.809017 -0.587785 0
    outer loop
      vertex 7.82709 0.813473 21.695
      vertex 7.33826 1.48629 26.685
      vertex 7.33826 1.48629 21.695
    endloop
  endfacet
  facet normal -0.809017 -0.587785 0
    outer loop
      vertex 7.33826 1.48629 26.685
      vertex 7.82709 0.813473 21.695
      vertex 7.82709 0.813473 26.685
    endloop
  endfacet
  facet normal -0.978147 -0.207913 0
    outer loop
      vertex 8 0 21.695
      vertex 7.82709 0.813473 26.685
      vertex 7.82709 0.813473 21.695
    endloop
  endfacet
  facet normal -0.978147 -0.207913 0
    outer loop
      vertex 7.82709 0.813473 26.685
      vertex 8 0 21.695
      vertex 8 0 26.685
    endloop
  endfacet
  facet normal 0.309017 -0.951056 0
    outer loop
      vertex 5 1.73205 21.695
      vertex 5.79094 1.98904 26.685
      vertex 5 1.73205 26.685
    endloop
  endfacet
  facet normal 0.309017 -0.951056 0
    outer loop
      vertex 5.79094 1.98904 26.685
      vertex 5 1.73205 21.695
      vertex 5.79094 1.98904 21.695
    endloop
  endfacet
  facet normal -0.104528 -0.994522 0
    outer loop
      vertex 5.79094 1.98904 21.695
      vertex 6.61803 1.90211 26.685
      vertex 5.79094 1.98904 26.685
    endloop
  endfacet
  facet normal -0.104528 -0.994522 -0
    outer loop
      vertex 6.61803 1.90211 26.685
      vertex 5.79094 1.98904 21.695
      vertex 6.61803 1.90211 21.695
    endloop
  endfacet
  facet normal 0.66913 -0.743145 0
    outer loop
      vertex 4.38197 1.17557 21.695
      vertex 5 1.73205 26.685
      vertex 4.38197 1.17557 26.685
    endloop
  endfacet
  facet normal 0.66913 -0.743145 0
    outer loop
      vertex 5 1.73205 26.685
      vertex 4.38197 1.17557 21.695
      vertex 5 1.73205 21.695
    endloop
  endfacet
  facet normal -0.978148 0.207911 0
    outer loop
      vertex -4.17291 -0.813473 21.695
      vertex -4 0 26.685
      vertex -4 0 21.695
    endloop
  endfacet
  facet normal -0.978148 0.207911 0
    outer loop
      vertex -4 0 26.685
      vertex -4.17291 -0.813473 21.695
      vertex -4.17291 -0.813473 26.685
    endloop
  endfacet
  facet normal -0.809017 0.587785 0
    outer loop
      vertex -4.66174 -1.48629 21.695
      vertex -4.17291 -0.813473 26.685
      vertex -4.17291 -0.813473 21.695
    endloop
  endfacet
  facet normal -0.809017 0.587785 0
    outer loop
      vertex -4.17291 -0.813473 26.685
      vertex -4.66174 -1.48629 21.695
      vertex -4.66174 -1.48629 26.685
    endloop
  endfacet
  facet normal -0.104528 0.994522 0
    outer loop
      vertex -5.38197 -1.90211 21.695
      vertex -6.20906 -1.98904 26.685
      vertex -5.38197 -1.90211 26.685
    endloop
  endfacet
  facet normal -0.104528 0.994522 0
    outer loop
      vertex -6.20906 -1.98904 26.685
      vertex -5.38197 -1.90211 21.695
      vertex -6.20906 -1.98904 21.695
    endloop
  endfacet
  facet normal -0.5 0.866025 0
    outer loop
      vertex -4.66174 -1.48629 21.695
      vertex -5.38197 -1.90211 26.685
      vertex -4.66174 -1.48629 26.685
    endloop
  endfacet
  facet normal -0.5 0.866025 0
    outer loop
      vertex -5.38197 -1.90211 26.685
      vertex -4.66174 -1.48629 21.695
      vertex -5.38197 -1.90211 21.695
    endloop
  endfacet
  facet normal 0.66913 0.743145 -0
    outer loop
      vertex -7 -1.73205 21.695
      vertex -7.61803 -1.17557 26.685
      vertex -7 -1.73205 26.685
    endloop
  endfacet
  facet normal 0.66913 0.743145 0
    outer loop
      vertex -7.61803 -1.17557 26.685
      vertex -7 -1.73205 21.695
      vertex -7.61803 -1.17557 21.695
    endloop
  endfacet
  facet normal 0 0 1
    outer loop
      vertex -4.17291 0.813473 21.695
      vertex -4.17291 -0.813473 21.695
      vertex -4 0 21.695
    endloop
  endfacet
  facet normal 0 0 1
    outer loop
      vertex -4.66174 1.48629 21.695
      vertex -4.17291 -0.813473 21.695
      vertex -4.17291 0.813473 21.695
    endloop
  endfacet
  facet normal 0 0 1
    outer loop
      vertex -4.66174 1.48629 21.695
      vertex -4.66174 -1.48629 21.695
      vertex -4.17291 -0.813473 21.695
    endloop
  endfacet
  facet normal 0 0 1
    outer loop
      vertex -5.38197 1.90211 21.695
      vertex -4.66174 -1.48629 21.695
      vertex -4.66174 1.48629 21.695
    endloop
  endfacet
  facet normal 0 0 1
    outer loop
      vertex -5.38197 1.90211 21.695
      vertex -5.38197 -1.90211 21.695
      vertex -4.66174 -1.48629 21.695
    endloop
  endfacet
  facet normal 0 0 1
    outer loop
      vertex -6.20906 1.98904 21.695
      vertex -5.38197 -1.90211 21.695
      vertex -5.38197 1.90211 21.695
    endloop
  endfacet
  facet normal 0 0 1
    outer loop
      vertex -6.20906 1.98904 21.695
      vertex -6.20906 -1.98904 21.695
      vertex -5.38197 -1.90211 21.695
    endloop
  endfacet
  facet normal -0 0 1
    outer loop
      vertex -7 1.73205 21.695
      vertex -6.20906 -1.98904 21.695
      vertex -6.20906 1.98904 21.695
    endloop
  endfacet
  facet normal 0 0 1
    outer loop
      vertex -7 1.73205 21.695
      vertex -7 -1.73205 21.695
      vertex -6.20906 -1.98904 21.695
    endloop
  endfacet
  facet normal -0 0 1
    outer loop
      vertex -7.61803 1.17557 21.695
      vertex -7 -1.73205 21.695
      vertex -7 1.73205 21.695
    endloop
  endfacet
  facet normal 0 0 1
    outer loop
      vertex -7.61803 1.17557 21.695
      vertex -7.61803 -1.17557 21.695
      vertex -7 -1.73205 21.695
    endloop
  endfacet
  facet normal -0 0 1
    outer loop
      vertex -7.9563 0.415823 21.695
      vertex -7.61803 -1.17557 21.695
      vertex -7.61803 1.17557 21.695
    endloop
  endfacet
  facet normal 0 0 1
    outer loop
      vertex -7.61803 -1.17557 21.695
      vertex -7.9563 0.415823 21.695
      vertex -7.9563 -0.415823 21.695
    endloop
  endfacet
  facet normal 0.309017 0.951056 -0
    outer loop
      vertex -6.20906 -1.98904 21.695
      vertex -7 -1.73205 26.685
      vertex -6.20906 -1.98904 26.685
    endloop
  endfacet
  facet normal 0.309017 0.951056 0
    outer loop
      vertex -7 -1.73205 26.685
      vertex -6.20906 -1.98904 21.695
      vertex -7 -1.73205 21.695
    endloop
  endfacet
  facet normal -0.5 -0.866025 0
    outer loop
      vertex -5.38197 1.90211 21.695
      vertex -4.66174 1.48629 26.685
      vertex -5.38197 1.90211 26.685
    endloop
  endfacet
  facet normal -0.5 -0.866025 -0
    outer loop
      vertex -4.66174 1.48629 26.685
      vertex -5.38197 1.90211 21.695
      vertex -4.66174 1.48629 21.695
    endloop
  endfacet
  facet normal -0.978148 -0.207911 0
    outer loop
      vertex -4 0 21.695
      vertex -4.17291 0.813473 26.685
      vertex -4.17291 0.813473 21.695
    endloop
  endfacet
  facet normal -0.978148 -0.207911 0
    outer loop
      vertex -4.17291 0.813473 26.685
      vertex -4 0 21.695
      vertex -4 0 26.685
    endloop
  endfacet
  facet normal 0.913545 -0.406737 0
    outer loop
      vertex -7.9563 0.415823 26.685
      vertex -7.61803 1.17557 21.695
      vertex -7.61803 1.17557 26.685
    endloop
  endfacet
  facet normal 0.913545 -0.406737 0
    outer loop
      vertex -7.61803 1.17557 21.695
      vertex -7.9563 0.415823 26.685
      vertex -7.9563 0.415823 21.695
    endloop
  endfacet
  facet normal 0.913545 0.406737 0
    outer loop
      vertex -7.61803 -1.17557 26.685
      vertex -7.9563 -0.415823 21.695
      vertex -7.9563 -0.415823 26.685
    endloop
  endfacet
  facet normal 0.913545 0.406737 0
    outer loop
      vertex -7.9563 -0.415823 21.695
      vertex -7.61803 -1.17557 26.685
      vertex -7.61803 -1.17557 21.695
    endloop
  endfacet
  facet normal 1 -0 0
    outer loop
      vertex -7.9563 -0.415823 26.685
      vertex -7.9563 0.415823 21.695
      vertex -7.9563 0.415823 26.685
    endloop
  endfacet
  facet normal 1 0 0
    outer loop
      vertex -7.9563 0.415823 21.695
      vertex -7.9563 -0.415823 26.685
      vertex -7.9563 -0.415823 21.695
    endloop
  endfacet
  facet normal -0.809017 -0.587785 0
    outer loop
      vertex -4.17291 0.813473 21.695
      vertex -4.66174 1.48629 26.685
      vertex -4.66174 1.48629 21.695
    endloop
  endfacet
  facet normal -0.809017 -0.587785 0
    outer loop
      vertex -4.66174 1.48629 26.685
      vertex -4.17291 0.813473 21.695
      vertex -4.17291 0.813473 26.685
    endloop
  endfacet
  facet normal 0.309017 -0.951056 0
    outer loop
      vertex -7 1.73205 21.695
      vertex -6.20906 1.98904 26.685
      vertex -7 1.73205 26.685
    endloop
  endfacet
  facet normal 0.309017 -0.951056 0
    outer loop
      vertex -6.20906 1.98904 26.685
      vertex -7 1.73205 21.695
      vertex -6.20906 1.98904 21.695
    endloop
  endfacet
  facet normal -0.104528 -0.994522 0
    outer loop
      vertex -6.20906 1.98904 21.695
      vertex -5.38197 1.90211 26.685
      vertex -6.20906 1.98904 26.685
    endloop
  endfacet
  facet normal -0.104528 -0.994522 -0
    outer loop
      vertex -5.38197 1.90211 26.685
      vertex -6.20906 1.98904 21.695
      vertex -5.38197 1.90211 21.695
    endloop
  endfacet
  facet normal 0.66913 -0.743145 0
    outer loop
      vertex -7.61803 1.17557 21.695
      vertex -7 1.73205 26.685
      vertex -7.61803 1.17557 26.685
    endloop
  endfacet
  facet normal 0.66913 -0.743145 0
    outer loop
      vertex -7 1.73205 26.685
      vertex -7.61803 1.17557 21.695
      vertex -7 1.73205 21.695
    endloop
  endfacet
endsolid OpenSCAD_Model
