solid OpenSCAD_Model
  facet normal -1 0 0
    outer loop
      vertex -3.625 -12.5 -12.25
      vertex -3.625 12.5 12.25
      vertex -3.625 12.5 -12.25
    endloop
  endfacet
  facet normal -1 -0 0
    outer loop
      vertex -3.625 12.5 12.25
      vertex -3.625 -12.5 -12.25
      vertex -3.625 -12.5 12.25
    endloop
  endfacet
  facet normal -0 0 1
    outer loop
      vertex 1.82709 -7.68653 12.25
      vertex 3.625 -12.5 12.25
      vertex 1.82709 7.68653 12.25
    endloop
  endfacet
  facet normal 0 0 1
    outer loop
      vertex 3.625 -12.5 12.25
      vertex 1.82709 -7.68653 12.25
      vertex 2 -8.5 12.25
    endloop
  endfacet
  facet normal -0 0 1
    outer loop
      vertex 1.33826 7.01371 12.25
      vertex 1.82709 -7.68653 12.25
      vertex 1.82709 7.68653 12.25
    endloop
  endfacet
  facet normal 0 0 1
    outer loop
      vertex 1.33826 7.01371 12.25
      vertex 1.33826 -7.01371 12.25
      vertex 1.82709 -7.68653 12.25
    endloop
  endfacet
  facet normal -0 0 1
    outer loop
      vertex 0.618033 6.59789 12.25
      vertex 1.33826 -7.01371 12.25
      vertex 1.33826 7.01371 12.25
    endloop
  endfacet
  facet normal 0 0 1
    outer loop
      vertex 0.618033 6.59789 12.25
      vertex 0.618033 -6.59789 12.25
      vertex 1.33826 -7.01371 12.25
    endloop
  endfacet
  facet normal -0 0 1
    outer loop
      vertex -0.209057 6.51096 12.25
      vertex 0.618033 -6.59789 12.25
      vertex 0.618033 6.59789 12.25
    endloop
  endfacet
  facet normal 0 0 1
    outer loop
      vertex -0.209057 6.51096 12.25
      vertex -0.209057 -6.51096 12.25
      vertex 0.618033 -6.59789 12.25
    endloop
  endfacet
  facet normal 0 0 1
    outer loop
      vertex -0.209057 6.51096 12.25
      vertex -0.999999 -6.76795 12.25
      vertex -0.209057 -6.51096 12.25
    endloop
  endfacet
  facet normal 0 0 1
    outer loop
      vertex -1 6.76795 12.25
      vertex -0.999999 -6.76795 12.25
      vertex -0.209057 6.51096 12.25
    endloop
  endfacet
  facet normal 0 0 1
    outer loop
      vertex -1.61803 7.32443 12.25
      vertex -0.999999 -6.76795 12.25
      vertex -1 6.76795 12.25
    endloop
  endfacet
  facet normal 0 0 1
    outer loop
      vertex -1.61803 7.32443 12.25
      vertex -1.61803 -7.32443 12.25
      vertex -0.999999 -6.76795 12.25
    endloop
  endfacet
  facet normal 0 0 1
    outer loop
      vertex -1.9563 8.08418 12.25
      vertex -1.61803 -7.32443 12.25
      vertex -1.61803 7.32443 12.25
    endloop
  endfacet
  facet normal 0 0 1
    outer loop
      vertex -1.61803 -7.32443 12.25
      vertex -1.9563 8.08418 12.25
      vertex -1.9563 -8.08418 12.25
    endloop
  endfacet
  facet normal 0 0 1
    outer loop
      vertex 1.82709 7.68653 12.25
      vertex 3.625 12.5 12.25
      vertex 2 8.5 12.25
    endloop
  endfacet
  facet normal 0 0 1
    outer loop
      vertex 3.625 12.5 12.25
      vertex 1.82709 9.31347 12.25
      vertex 2 8.5 12.25
    endloop
  endfacet
  facet normal 0 0 1
    outer loop
      vertex 3.625 12.5 12.25
      vertex 1.33826 9.98629 12.25
      vertex 1.82709 9.31347 12.25
    endloop
  endfacet
  facet normal 0 0 1
    outer loop
      vertex 3.625 12.5 12.25
      vertex 0.618033 10.4021 12.25
      vertex 1.33826 9.98629 12.25
    endloop
  endfacet
  facet normal 0 0 1
    outer loop
      vertex 3.625 12.5 12.25
      vertex -0.209057 10.489 12.25
      vertex 0.618033 10.4021 12.25
    endloop
  endfacet
  facet normal -0 0 1
    outer loop
      vertex -3.625 12.5 12.25
      vertex -0.209057 10.489 12.25
      vertex 3.625 12.5 12.25
    endloop
  endfacet
  facet normal 0 0 1
    outer loop
      vertex -3.625 12.5 12.25
      vertex -1.9563 8.08418 12.25
      vertex -1.9563 8.91582 12.25
    endloop
  endfacet
  facet normal 0 0 1
    outer loop
      vertex -1.9563 8.08418 12.25
      vertex -3.625 12.5 12.25
      vertex -1.9563 -8.08418 12.25
    endloop
  endfacet
  facet normal 0 0 1
    outer loop
      vertex -3.625 -12.5 12.25
      vertex -1.9563 -8.08418 12.25
      vertex -3.625 12.5 12.25
    endloop
  endfacet
  facet normal 0 0 1
    outer loop
      vertex -1.61803 9.67557 12.25
      vertex -3.625 12.5 12.25
      vertex -1.9563 8.91582 12.25
    endloop
  endfacet
  facet normal 0 0 1
    outer loop
      vertex -0.999999 10.232 12.25
      vertex -3.625 12.5 12.25
      vertex -1.61803 9.67557 12.25
    endloop
  endfacet
  facet normal 0 0 1
    outer loop
      vertex -0.209057 10.489 12.25
      vertex -3.625 12.5 12.25
      vertex -0.999999 10.232 12.25
    endloop
  endfacet
  facet normal 0 0 1
    outer loop
      vertex 3.625 12.5 12.25
      vertex 1.82709 7.68653 12.25
      vertex 3.625 -12.5 12.25
    endloop
  endfacet
  facet normal -0 0 1
    outer loop
      vertex 1.82709 -9.31347 12.25
      vertex 3.625 -12.5 12.25
      vertex 2 -8.5 12.25
    endloop
  endfacet
  facet normal -0 0 1
    outer loop
      vertex 1.33826 -9.98629 12.25
      vertex 3.625 -12.5 12.25
      vertex 1.82709 -9.31347 12.25
    endloop
  endfacet
  facet normal -0 0 1
    outer loop
      vertex 0.618033 -10.4021 12.25
      vertex 3.625 -12.5 12.25
      vertex 1.33826 -9.98629 12.25
    endloop
  endfacet
  facet normal -0 0 1
    outer loop
      vertex -0.209057 -10.489 12.25
      vertex 3.625 -12.5 12.25
      vertex 0.618033 -10.4021 12.25
    endloop
  endfacet
  facet normal 0 0 1
    outer loop
      vertex -3.625 -12.5 12.25
      vertex -0.209057 -10.489 12.25
      vertex -1 -10.232 12.25
    endloop
  endfacet
  facet normal 0 0 1
    outer loop
      vertex -0.209057 -10.489 12.25
      vertex -3.625 -12.5 12.25
      vertex 3.625 -12.5 12.25
    endloop
  endfacet
  facet normal 0 0 1
    outer loop
      vertex -1.61803 -9.67557 12.25
      vertex -3.625 -12.5 12.25
      vertex -1 -10.232 12.25
    endloop
  endfacet
  facet normal 0 0 1
    outer loop
      vertex -1.9563 -8.91582 12.25
      vertex -3.625 -12.5 12.25
      vertex -1.61803 -9.67557 12.25
    endloop
  endfacet
  facet normal 0 0 1
    outer loop
      vertex -1.9563 -8.08418 12.25
      vertex -3.625 -12.5 12.25
      vertex -1.9563 -8.91582 12.25
    endloop
  endfacet
  facet normal 1 -0 0
    outer loop
      vertex 3.625 -12.5 12.25
      vertex 3.625 12.5 -12.25
      vertex 3.625 12.5 12.25
    endloop
  endfacet
  facet normal 1 0 0
    outer loop
      vertex 3.625 12.5 -12.25
      vertex 3.625 -12.5 12.25
      vertex 3.625 -12.5 -12.25
    endloop
  endfacet
  facet normal 0 1 -0
    outer loop
      vertex 3.625 12.5 -12.25
      vertex -3.625 12.5 12.25
      vertex 3.625 12.5 12.25
    endloop
  endfacet
  facet normal 0 1 0
    outer loop
      vertex -3.625 12.5 12.25
      vertex 3.625 12.5 -12.25
      vertex -3.625 12.5 -12.25
    endloop
  endfacet
  facet normal 0 0 -1
    outer loop
      vertex 1.82709 7.68653 -12.25
      vertex 3.625 12.5 -12.25
      vertex 1.82709 -7.68653 -12.25
    endloop
  endfacet
  facet normal 0 0 -1
    outer loop
      vertex 3.625 12.5 -12.25
      vertex 1.82709 7.68653 -12.25
      vertex 2 8.5 -12.25
    endloop
  endfacet
  facet normal 0 0 -1
    outer loop
      vertex 1.33826 -7.01371 -12.25
      vertex 1.82709 7.68653 -12.25
      vertex 1.82709 -7.68653 -12.25
    endloop
  endfacet
  facet normal 0 0 -1
    outer loop
      vertex 1.33826 -7.01371 -12.25
      vertex 1.33826 7.01371 -12.25
      vertex 1.82709 7.68653 -12.25
    endloop
  endfacet
  facet normal 0 0 -1
    outer loop
      vertex 0.618033 -6.59789 -12.25
      vertex 1.33826 7.01371 -12.25
      vertex 1.33826 -7.01371 -12.25
    endloop
  endfacet
  facet normal 0 0 -1
    outer loop
      vertex 0.618033 -6.59789 -12.25
      vertex 0.618033 6.59789 -12.25
      vertex 1.33826 7.01371 -12.25
    endloop
  endfacet
  facet normal 0 0 -1
    outer loop
      vertex -0.209057 -6.51096 -12.25
      vertex 0.618033 6.59789 -12.25
      vertex 0.618033 -6.59789 -12.25
    endloop
  endfacet
  facet normal 0 0 -1
    outer loop
      vertex -0.209057 -6.51096 -12.25
      vertex -0.209057 6.51096 -12.25
      vertex 0.618033 6.59789 -12.25
    endloop
  endfacet
  facet normal 0 0 -1
    outer loop
      vertex -0.999999 -6.76795 -12.25
      vertex -0.209057 6.51096 -12.25
      vertex -0.209057 -6.51096 -12.25
    endloop
  endfacet
  facet normal 0 0 -1
    outer loop
      vertex -0.999999 -6.76795 -12.25
      vertex -1 6.76795 -12.25
      vertex -0.209057 6.51096 -12.25
    endloop
  endfacet
  facet normal 0 0 -1
    outer loop
      vertex -1.61803 -7.32443 -12.25
      vertex -1 6.76795 -12.25
      vertex -0.999999 -6.76795 -12.25
    endloop
  endfacet
  facet normal 0 0 -1
    outer loop
      vertex -1.61803 -7.32443 -12.25
      vertex -1.61803 7.32443 -12.25
      vertex -1 6.76795 -12.25
    endloop
  endfacet
  facet normal 0 0 -1
    outer loop
      vertex -1.9563 -8.08418 -12.25
      vertex -1.61803 7.32443 -12.25
      vertex -1.61803 -7.32443 -12.25
    endloop
  endfacet
  facet normal -0 0 -1
    outer loop
      vertex -1.61803 7.32443 -12.25
      vertex -1.9563 -8.08418 -12.25
      vertex -1.9563 8.08418 -12.25
    endloop
  endfacet
  facet normal 0 0 -1
    outer loop
      vertex 1.82709 -7.68653 -12.25
      vertex 3.625 -12.5 -12.25
      vertex 2 -8.5 -12.25
    endloop
  endfacet
  facet normal 0 0 -1
    outer loop
      vertex 3.625 -12.5 -12.25
      vertex 1.82709 -9.31347 -12.25
      vertex 2 -8.5 -12.25
    endloop
  endfacet
  facet normal 0 0 -1
    outer loop
      vertex 3.625 -12.5 -12.25
      vertex 1.33826 -9.98629 -12.25
      vertex 1.82709 -9.31347 -12.25
    endloop
  endfacet
  facet normal 0 0 -1
    outer loop
      vertex 3.625 -12.5 -12.25
      vertex 0.618033 -10.4021 -12.25
      vertex 1.33826 -9.98629 -12.25
    endloop
  endfacet
  facet normal 0 0 -1
    outer loop
      vertex 3.625 -12.5 -12.25
      vertex -0.209057 -10.489 -12.25
      vertex 0.618033 -10.4021 -12.25
    endloop
  endfacet
  facet normal 0 0 -1
    outer loop
      vertex -3.625 -12.5 -12.25
      vertex -0.209057 -10.489 -12.25
      vertex 3.625 -12.5 -12.25
    endloop
  endfacet
  facet normal 0 0 -1
    outer loop
      vertex -3.625 -12.5 -12.25
      vertex -1.9563 -8.08418 -12.25
      vertex -1.9563 -8.91582 -12.25
    endloop
  endfacet
  facet normal -0 0 -1
    outer loop
      vertex -1.9563 -8.08418 -12.25
      vertex -3.625 -12.5 -12.25
      vertex -1.9563 8.08418 -12.25
    endloop
  endfacet
  facet normal 0 0 -1
    outer loop
      vertex -3.625 12.5 -12.25
      vertex -1.9563 8.08418 -12.25
      vertex -3.625 -12.5 -12.25
    endloop
  endfacet
  facet normal -0 0 -1
    outer loop
      vertex -1.61803 -9.67557 -12.25
      vertex -3.625 -12.5 -12.25
      vertex -1.9563 -8.91582 -12.25
    endloop
  endfacet
  facet normal -0 0 -1
    outer loop
      vertex -1 -10.232 -12.25
      vertex -3.625 -12.5 -12.25
      vertex -1.61803 -9.67557 -12.25
    endloop
  endfacet
  facet normal -0 0 -1
    outer loop
      vertex -0.209057 -10.489 -12.25
      vertex -3.625 -12.5 -12.25
      vertex -1 -10.232 -12.25
    endloop
  endfacet
  facet normal 0 0 -1
    outer loop
      vertex 3.625 -12.5 -12.25
      vertex 1.82709 -7.68653 -12.25
      vertex 3.625 12.5 -12.25
    endloop
  endfacet
  facet normal 0 0 -1
    outer loop
      vertex 1.82709 9.31347 -12.25
      vertex 3.625 12.5 -12.25
      vertex 2 8.5 -12.25
    endloop
  endfacet
  facet normal 0 0 -1
    outer loop
      vertex 1.33826 9.98629 -12.25
      vertex 3.625 12.5 -12.25
      vertex 1.82709 9.31347 -12.25
    endloop
  endfacet
  facet normal 0 0 -1
    outer loop
      vertex 0.618033 10.4021 -12.25
      vertex 3.625 12.5 -12.25
      vertex 1.33826 9.98629 -12.25
    endloop
  endfacet
  facet normal 0 0 -1
    outer loop
      vertex -0.209057 10.489 -12.25
      vertex 3.625 12.5 -12.25
      vertex 0.618033 10.4021 -12.25
    endloop
  endfacet
  facet normal 0 0 -1
    outer loop
      vertex -3.625 12.5 -12.25
      vertex -0.209057 10.489 -12.25
      vertex -0.999999 10.232 -12.25
    endloop
  endfacet
  facet normal 0 0 -1
    outer loop
      vertex -0.209057 10.489 -12.25
      vertex -3.625 12.5 -12.25
      vertex 3.625 12.5 -12.25
    endloop
  endfacet
  facet normal 0 0 -1
    outer loop
      vertex -1.61803 9.67557 -12.25
      vertex -3.625 12.5 -12.25
      vertex -0.999999 10.232 -12.25
    endloop
  endfacet
  facet normal 0 0 -1
    outer loop
      vertex -1.9563 8.91582 -12.25
      vertex -3.625 12.5 -12.25
      vertex -1.61803 9.67557 -12.25
    endloop
  endfacet
  facet normal 0 0 -1
    outer loop
      vertex -1.9563 8.08418 -12.25
      vertex -3.625 12.5 -12.25
      vertex -1.9563 8.91582 -12.25
    endloop
  endfacet
  facet normal 0 -1 0
    outer loop
      vertex -3.625 -12.5 -12.25
      vertex 3.625 -12.5 12.25
      vertex -3.625 -12.5 12.25
    endloop
  endfacet
  facet normal 0 -1 -0
    outer loop
      vertex 3.625 -12.5 12.25
      vertex -3.625 -12.5 -12.25
      vertex 3.625 -12.5 -12.25
    endloop
  endfacet
  facet normal -0.978147 -0.207913 0
    outer loop
      vertex 2 8.5 -12.25
      vertex 1.82709 9.31347 12.25
      vertex 1.82709 9.31347 -12.25
    endloop
  endfacet
  facet normal -0.978147 -0.207913 0
    outer loop
      vertex 1.82709 9.31347 12.25
      vertex 2 8.5 -12.25
      vertex 2 8.5 12.25
    endloop
  endfacet
  facet normal 1 -0 0
    outer loop
      vertex -1.9563 8.08418 12.25
      vertex -1.9563 8.91582 -12.25
      vertex -1.9563 8.91582 12.25
    endloop
  endfacet
  facet normal 1 0 0
    outer loop
      vertex -1.9563 8.91582 -12.25
      vertex -1.9563 8.08418 12.25
      vertex -1.9563 8.08418 -12.25
    endloop
  endfacet
  facet normal -0.104528 -0.994522 0
    outer loop
      vertex -0.209057 10.489 -12.25
      vertex 0.618033 10.4021 12.25
      vertex -0.209057 10.489 12.25
    endloop
  endfacet
  facet normal -0.104528 -0.994522 -0
    outer loop
      vertex 0.618033 10.4021 12.25
      vertex -0.209057 10.489 -12.25
      vertex 0.618033 10.4021 -12.25
    endloop
  endfacet
  facet normal -0.104528 0.994522 0
    outer loop
      vertex 0.618033 6.59789 -12.25
      vertex -0.209057 6.51096 12.25
      vertex 0.618033 6.59789 12.25
    endloop
  endfacet
  facet normal -0.104528 0.994522 0
    outer loop
      vertex -0.209057 6.51096 12.25
      vertex 0.618033 6.59789 -12.25
      vertex -0.209057 6.51096 -12.25
    endloop
  endfacet
  facet normal -0.5 0.866025 0
    outer loop
      vertex 1.33826 7.01371 -12.25
      vertex 0.618033 6.59789 12.25
      vertex 1.33826 7.01371 12.25
    endloop
  endfacet
  facet normal -0.5 0.866025 0
    outer loop
      vertex 0.618033 6.59789 12.25
      vertex 1.33826 7.01371 -12.25
      vertex 0.618033 6.59789 -12.25
    endloop
  endfacet
  facet normal -0.5 -0.866025 0
    outer loop
      vertex 0.618033 10.4021 -12.25
      vertex 1.33826 9.98629 12.25
      vertex 0.618033 10.4021 12.25
    endloop
  endfacet
  facet normal -0.5 -0.866025 -0
    outer loop
      vertex 1.33826 9.98629 12.25
      vertex 0.618033 10.4021 -12.25
      vertex 1.33826 9.98629 -12.25
    endloop
  endfacet
  facet normal -0.809017 -0.587785 0
    outer loop
      vertex 1.82709 9.31347 -12.25
      vertex 1.33826 9.98629 12.25
      vertex 1.33826 9.98629 -12.25
    endloop
  endfacet
  facet normal -0.809017 -0.587785 0
    outer loop
      vertex 1.33826 9.98629 12.25
      vertex 1.82709 9.31347 -12.25
      vertex 1.82709 9.31347 12.25
    endloop
  endfacet
  facet normal 0.66913 -0.743146 0
    outer loop
      vertex -1.61803 9.67557 -12.25
      vertex -0.999999 10.232 12.25
      vertex -1.61803 9.67557 12.25
    endloop
  endfacet
  facet normal 0.66913 -0.743146 0
    outer loop
      vertex -0.999999 10.232 12.25
      vertex -1.61803 9.67557 -12.25
      vertex -0.999999 10.232 -12.25
    endloop
  endfacet
  facet normal 0.913545 -0.406737 0
    outer loop
      vertex -1.9563 8.91582 12.25
      vertex -1.61803 9.67557 -12.25
      vertex -1.61803 9.67557 12.25
    endloop
  endfacet
  facet normal 0.913545 -0.406737 0
    outer loop
      vertex -1.61803 9.67557 -12.25
      vertex -1.9563 8.91582 12.25
      vertex -1.9563 8.91582 -12.25
    endloop
  endfacet
  facet normal 0.309018 -0.951056 0
    outer loop
      vertex -0.999999 10.232 -12.25
      vertex -0.209057 10.489 12.25
      vertex -0.999999 10.232 12.25
    endloop
  endfacet
  facet normal 0.309018 -0.951056 0
    outer loop
      vertex -0.209057 10.489 12.25
      vertex -0.999999 10.232 -12.25
      vertex -0.209057 10.489 -12.25
    endloop
  endfacet
  facet normal 0.309017 0.951056 -0
    outer loop
      vertex -0.209057 6.51096 -12.25
      vertex -1 6.76795 12.25
      vertex -0.209057 6.51096 12.25
    endloop
  endfacet
  facet normal 0.309017 0.951056 0
    outer loop
      vertex -1 6.76795 12.25
      vertex -0.209057 6.51096 -12.25
      vertex -1 6.76795 -12.25
    endloop
  endfacet
  facet normal 0.913545 0.406737 0
    outer loop
      vertex -1.61803 7.32443 12.25
      vertex -1.9563 8.08418 -12.25
      vertex -1.9563 8.08418 12.25
    endloop
  endfacet
  facet normal 0.913545 0.406737 0
    outer loop
      vertex -1.9563 8.08418 -12.25
      vertex -1.61803 7.32443 12.25
      vertex -1.61803 7.32443 -12.25
    endloop
  endfacet
  facet normal -0.809017 0.587785 0
    outer loop
      vertex 1.33826 7.01371 -12.25
      vertex 1.82709 7.68653 12.25
      vertex 1.82709 7.68653 -12.25
    endloop
  endfacet
  facet normal -0.809017 0.587785 0
    outer loop
      vertex 1.82709 7.68653 12.25
      vertex 1.33826 7.01371 -12.25
      vertex 1.33826 7.01371 12.25
    endloop
  endfacet
  facet normal -0.978147 0.207912 0
    outer loop
      vertex 1.82709 7.68653 -12.25
      vertex 2 8.5 12.25
      vertex 2 8.5 -12.25
    endloop
  endfacet
  facet normal -0.978147 0.207912 0
    outer loop
      vertex 2 8.5 12.25
      vertex 1.82709 7.68653 -12.25
      vertex 1.82709 7.68653 12.25
    endloop
  endfacet
  facet normal 0.66913 0.743145 -0
    outer loop
      vertex -1 6.76795 -12.25
      vertex -1.61803 7.32443 12.25
      vertex -1 6.76795 12.25
    endloop
  endfacet
  facet normal 0.66913 0.743145 0
    outer loop
      vertex -1.61803 7.32443 12.25
      vertex -1 6.76795 -12.25
      vertex -1.61803 7.32443 -12.25
    endloop
  endfacet
  facet normal -0.978147 -0.207912 0
    outer loop
      vertex 2 -8.5 -12.25
      vertex 1.82709 -7.68653 12.25
      vertex 1.82709 -7.68653 -12.25
    endloop
  endfacet
  facet normal -0.978147 -0.207912 0
    outer loop
      vertex 1.82709 -7.68653 12.25
      vertex 2 -8.5 -12.25
      vertex 2 -8.5 12.25
    endloop
  endfacet
  facet normal 1 -0 0
    outer loop
      vertex -1.9563 -8.91582 12.25
      vertex -1.9563 -8.08418 -12.25
      vertex -1.9563 -8.08418 12.25
    endloop
  endfacet
  facet normal 1 0 0
    outer loop
      vertex -1.9563 -8.08418 -12.25
      vertex -1.9563 -8.91582 12.25
      vertex -1.9563 -8.91582 -12.25
    endloop
  endfacet
  facet normal -0.104528 -0.994522 0
    outer loop
      vertex -0.209057 -6.51096 -12.25
      vertex 0.618033 -6.59789 12.25
      vertex -0.209057 -6.51096 12.25
    endloop
  endfacet
  facet normal -0.104528 -0.994522 -0
    outer loop
      vertex 0.618033 -6.59789 12.25
      vertex -0.209057 -6.51096 -12.25
      vertex 0.618033 -6.59789 -12.25
    endloop
  endfacet
  facet normal -0.5 -0.866025 0
    outer loop
      vertex 0.618033 -6.59789 -12.25
      vertex 1.33826 -7.01371 12.25
      vertex 0.618033 -6.59789 12.25
    endloop
  endfacet
  facet normal -0.5 -0.866025 -0
    outer loop
      vertex 1.33826 -7.01371 12.25
      vertex 0.618033 -6.59789 -12.25
      vertex 1.33826 -7.01371 -12.25
    endloop
  endfacet
  facet normal -0.809017 -0.587785 0
    outer loop
      vertex 1.82709 -7.68653 -12.25
      vertex 1.33826 -7.01371 12.25
      vertex 1.33826 -7.01371 -12.25
    endloop
  endfacet
  facet normal -0.809017 -0.587785 0
    outer loop
      vertex 1.33826 -7.01371 12.25
      vertex 1.82709 -7.68653 -12.25
      vertex 1.82709 -7.68653 12.25
    endloop
  endfacet
  facet normal 0.66913 -0.743146 0
    outer loop
      vertex -1.61803 -7.32443 -12.25
      vertex -0.999999 -6.76795 12.25
      vertex -1.61803 -7.32443 12.25
    endloop
  endfacet
  facet normal 0.66913 -0.743146 0
    outer loop
      vertex -0.999999 -6.76795 12.25
      vertex -1.61803 -7.32443 -12.25
      vertex -0.999999 -6.76795 -12.25
    endloop
  endfacet
  facet normal 0.913545 -0.406737 0
    outer loop
      vertex -1.9563 -8.08418 12.25
      vertex -1.61803 -7.32443 -12.25
      vertex -1.61803 -7.32443 12.25
    endloop
  endfacet
  facet normal 0.913545 -0.406737 0
    outer loop
      vertex -1.61803 -7.32443 -12.25
      vertex -1.9563 -8.08418 12.25
      vertex -1.9563 -8.08418 -12.25
    endloop
  endfacet
  facet normal 0.309018 -0.951056 0
    outer loop
      vertex -0.999999 -6.76795 -12.25
      vertex -0.209057 -6.51096 12.25
      vertex -0.999999 -6.76795 12.25
    endloop
  endfacet
  facet normal 0.309018 -0.951056 0
    outer loop
      vertex -0.209057 -6.51096 12.25
      vertex -0.999999 -6.76795 -12.25
      vertex -0.209057 -6.51096 -12.25
    endloop
  endfacet
  facet normal 0.309017 0.951056 -0
    outer loop
      vertex -0.209057 -10.489 -12.25
      vertex -1 -10.232 12.25
      vertex -0.209057 -10.489 12.25
    endloop
  endfacet
  facet normal 0.309017 0.951056 0
    outer loop
      vertex -1 -10.232 12.25
      vertex -0.209057 -10.489 -12.25
      vertex -1 -10.232 -12.25
    endloop
  endfacet
  facet normal 0.913545 0.406737 0
    outer loop
      vertex -1.61803 -9.67557 12.25
      vertex -1.9563 -8.91582 -12.25
      vertex -1.9563 -8.91582 12.25
    endloop
  endfacet
  facet normal 0.913545 0.406737 0
    outer loop
      vertex -1.9563 -8.91582 -12.25
      vertex -1.61803 -9.67557 12.25
      vertex -1.61803 -9.67557 -12.25
    endloop
  endfacet
  facet normal -0.809017 0.587785 0
    outer loop
      vertex 1.33826 -9.98629 -12.25
      vertex 1.82709 -9.31347 12.25
      vertex 1.82709 -9.31347 -12.25
    endloop
  endfacet
  facet normal -0.809017 0.587785 0
    outer loop
      vertex 1.82709 -9.31347 12.25
      vertex 1.33826 -9.98629 -12.25
      vertex 1.33826 -9.98629 12.25
    endloop
  endfacet
  facet normal -0.5 0.866025 0
    outer loop
      vertex 1.33826 -9.98629 -12.25
      vertex 0.618033 -10.4021 12.25
      vertex 1.33826 -9.98629 12.25
    endloop
  endfacet
  facet normal -0.5 0.866025 0
    outer loop
      vertex 0.618033 -10.4021 12.25
      vertex 1.33826 -9.98629 -12.25
      vertex 0.618033 -10.4021 -12.25
    endloop
  endfacet
  facet normal -0.978147 0.207913 0
    outer loop
      vertex 1.82709 -9.31347 -12.25
      vertex 2 -8.5 12.25
      vertex 2 -8.5 -12.25
    endloop
  endfacet
  facet normal -0.978147 0.207913 0
    outer loop
      vertex 2 -8.5 12.25
      vertex 1.82709 -9.31347 -12.25
      vertex 1.82709 -9.31347 12.25
    endloop
  endfacet
  facet normal -0.104528 0.994522 0
    outer loop
      vertex 0.618033 -10.4021 -12.25
      vertex -0.209057 -10.489 12.25
      vertex 0.618033 -10.4021 12.25
    endloop
  endfacet
  facet normal -0.104528 0.994522 0
    outer loop
      vertex -0.209057 -10.489 12.25
      vertex 0.618033 -10.4021 -12.25
      vertex -0.209057 -10.489 -12.25
    endloop
  endfacet
  facet normal 0.66913 0.743145 -0
    outer loop
      vertex -1 -10.232 -12.25
      vertex -1.61803 -9.67557 12.25
      vertex -1 -10.232 12.25
    endloop
  endfacet
  facet normal 0.66913 0.743145 0
    outer loop
      vertex -1.61803 -9.67557 12.25
      vertex -1 -10.232 -12.25
      vertex -1.61803 -9.67557 -12.25
    endloop
  endfacet
endsolid OpenSCAD_Model
