solid OpenSCAD_Model
  facet normal -1 0 0
    outer loop
      vertex -27.835 -10.835 -28.585
      vertex -27.835 6.665 28.585
      vertex -27.835 6.665 -28.585
    endloop
  endfacet
  facet normal -1 -0 0
    outer loop
      vertex -27.835 6.665 28.585
      vertex -27.835 -10.835 -28.585
      vertex -27.835 -10.835 28.585
    endloop
  endfacet
  facet normal -0 0 1
    outer loop
      vertex -27.835 6.665 28.585
      vertex 27.835 -10.835 28.585
      vertex 27.835 6.665 28.585
    endloop
  endfacet
  facet normal 0 0 1
    outer loop
      vertex 27.835 -10.835 28.585
      vertex -27.835 6.665 28.585
      vertex -27.835 -10.835 28.585
    endloop
  endfacet
  facet normal 1 -0 0
    outer loop
      vertex 27.835 -10.835 28.585
      vertex 27.835 6.665 -28.585
      vertex 27.835 6.665 28.585
    endloop
  endfacet
  facet normal 1 0 0
    outer loop
      vertex 27.835 6.665 -28.585
      vertex 27.835 -10.835 28.585
      vertex 27.835 -10.835 -28.585
    endloop
  endfacet
  facet normal 0 0 -1
    outer loop
      vertex -21.335 -10.835 -28.585
      vertex -21.975 1.915 -28.585
      vertex -21.335 6.665 -28.585
    endloop
  endfacet
  facet normal 0 0 -1
    outer loop
      vertex -21.335 -10.835 -28.585
      vertex -22.1479 1.10153 -28.585
      vertex -21.975 1.915 -28.585
    endloop
  endfacet
  facet normal 0 0 -1
    outer loop
      vertex -22.725 -6.085 -28.585
      vertex -22.1479 1.10153 -28.585
      vertex -21.335 -10.835 -28.585
    endloop
  endfacet
  facet normal 0 0 -1
    outer loop
      vertex -22.8331 -5.57658 -28.585
      vertex -22.1479 1.10153 -28.585
      vertex -22.725 -6.085 -28.585
    endloop
  endfacet
  facet normal 0 0 -1
    outer loop
      vertex -21.335 -10.835 -28.585
      vertex -22.8331 -6.59342 -28.585
      vertex -22.725 -6.085 -28.585
    endloop
  endfacet
  facet normal 0 0 -1
    outer loop
      vertex -21.335 -10.835 -28.585
      vertex -23.1386 -7.01393 -28.585
      vertex -22.8331 -6.59342 -28.585
    endloop
  endfacet
  facet normal 0 0 -1
    outer loop
      vertex -21.335 -10.835 -28.585
      vertex -23.5887 -7.27382 -28.585
      vertex -23.1386 -7.01393 -28.585
    endloop
  endfacet
  facet normal 0 0 -1
    outer loop
      vertex -21.335 -10.835 -28.585
      vertex -24.1057 -7.32815 -28.585
      vertex -23.5887 -7.27382 -28.585
    endloop
  endfacet
  facet normal 0 0 -1
    outer loop
      vertex -27.835 -10.835 -28.585
      vertex -24.1057 -7.32815 -28.585
      vertex -21.335 -10.835 -28.585
    endloop
  endfacet
  facet normal -0 0 -1
    outer loop
      vertex -24.1057 -7.32815 -28.585
      vertex -27.835 -10.835 -28.585
      vertex -24.6 -7.16753 -28.585
    endloop
  endfacet
  facet normal 0 0 -1
    outer loop
      vertex -27.835 -10.835 -28.585
      vertex -25.1977 -5.82511 -28.585
      vertex -25.1977 -6.34489 -28.585
    endloop
  endfacet
  facet normal 0 -0 -1
    outer loop
      vertex -25.9313 1.49918 -28.585
      vertex -25.1977 -5.82511 -28.585
      vertex -27.835 -10.835 -28.585
    endloop
  endfacet
  facet normal 0 0 -1
    outer loop
      vertex -27.835 6.665 -28.585
      vertex -25.9313 1.49918 -28.585
      vertex -27.835 -10.835 -28.585
    endloop
  endfacet
  facet normal 0 0 -1
    outer loop
      vertex -25.1977 -5.82511 -28.585
      vertex -25.9313 1.49918 -28.585
      vertex -25.593 0.739429 -28.585
    endloop
  endfacet
  facet normal -0 0 -1
    outer loop
      vertex -24.9863 -6.81973 -28.585
      vertex -27.835 -10.835 -28.585
      vertex -25.1977 -6.34489 -28.585
    endloop
  endfacet
  facet normal -0 0 -1
    outer loop
      vertex -24.6 -7.16753 -28.585
      vertex -27.835 -10.835 -28.585
      vertex -24.9863 -6.81973 -28.585
    endloop
  endfacet
  facet normal 0 0 -1
    outer loop
      vertex -22.1479 2.72847 -28.585
      vertex -21.335 6.665 -28.585
      vertex -21.975 1.915 -28.585
    endloop
  endfacet
  facet normal 0 0 -1
    outer loop
      vertex -22.6367 3.40129 -28.585
      vertex -21.335 6.665 -28.585
      vertex -22.1479 2.72847 -28.585
    endloop
  endfacet
  facet normal 0 0 -1
    outer loop
      vertex -23.357 3.81711 -28.585
      vertex -21.335 6.665 -28.585
      vertex -22.6367 3.40129 -28.585
    endloop
  endfacet
  facet normal 0 0 -1
    outer loop
      vertex -24.1841 3.90404 -28.585
      vertex -21.335 6.665 -28.585
      vertex -23.357 3.81711 -28.585
    endloop
  endfacet
  facet normal 0 0 -1
    outer loop
      vertex -27.835 6.665 -28.585
      vertex -24.1841 3.90404 -28.585
      vertex -24.975 3.64705 -28.585
    endloop
  endfacet
  facet normal 0 0 -1
    outer loop
      vertex -24.1841 3.90404 -28.585
      vertex -27.835 6.665 -28.585
      vertex -21.335 6.665 -28.585
    endloop
  endfacet
  facet normal 0 0 -1
    outer loop
      vertex -25.593 3.09057 -28.585
      vertex -27.835 6.665 -28.585
      vertex -24.975 3.64705 -28.585
    endloop
  endfacet
  facet normal 0 0 -1
    outer loop
      vertex -25.9313 2.33082 -28.585
      vertex -27.835 6.665 -28.585
      vertex -25.593 3.09057 -28.585
    endloop
  endfacet
  facet normal 0 0 -1
    outer loop
      vertex -25.9313 1.49918 -28.585
      vertex -27.835 6.665 -28.585
      vertex -25.9313 2.33082 -28.585
    endloop
  endfacet
  facet normal 0 0 -1
    outer loop
      vertex -22.1479 1.10153 -28.585
      vertex -22.8331 -5.57658 -28.585
      vertex -22.6367 0.42871 -28.585
    endloop
  endfacet
  facet normal 0 0 -1
    outer loop
      vertex -23.1386 -5.15607 -28.585
      vertex -22.6367 0.42871 -28.585
      vertex -22.8331 -5.57658 -28.585
    endloop
  endfacet
  facet normal 0 0 -1
    outer loop
      vertex -23.1386 -5.15607 -28.585
      vertex -23.357 0.012886 -28.585
      vertex -22.6367 0.42871 -28.585
    endloop
  endfacet
  facet normal 0 0 -1
    outer loop
      vertex -23.5887 -4.89618 -28.585
      vertex -23.357 0.012886 -28.585
      vertex -23.1386 -5.15607 -28.585
    endloop
  endfacet
  facet normal 0 0 -1
    outer loop
      vertex -24.1841 -0.0740433 -28.585
      vertex -23.5887 -4.89618 -28.585
      vertex -24.1057 -4.84185 -28.585
    endloop
  endfacet
  facet normal 0 0 -1
    outer loop
      vertex -23.5887 -4.89618 -28.585
      vertex -24.1841 -0.0740433 -28.585
      vertex -23.357 0.012886 -28.585
    endloop
  endfacet
  facet normal 0 0 -1
    outer loop
      vertex -24.6 -5.00247 -28.585
      vertex -24.1841 -0.0740433 -28.585
      vertex -24.1057 -4.84185 -28.585
    endloop
  endfacet
  facet normal 0 0 -1
    outer loop
      vertex -24.6 -5.00247 -28.585
      vertex -24.975 0.182949 -28.585
      vertex -24.1841 -0.0740433 -28.585
    endloop
  endfacet
  facet normal 0 0 -1
    outer loop
      vertex -24.9863 -5.35027 -28.585
      vertex -24.975 0.182949 -28.585
      vertex -24.6 -5.00247 -28.585
    endloop
  endfacet
  facet normal 0 0 -1
    outer loop
      vertex -25.593 0.739429 -28.585
      vertex -24.9863 -5.35027 -28.585
      vertex -25.1977 -5.82511 -28.585
    endloop
  endfacet
  facet normal 0 0 -1
    outer loop
      vertex -24.9863 -5.35027 -28.585
      vertex -25.593 0.739429 -28.585
      vertex -24.975 0.182949 -28.585
    endloop
  endfacet
  facet normal 0 0 -1
    outer loop
      vertex 27.835 -10.835 -28.585
      vertex 25.975 1.915 -28.585
      vertex 27.835 6.665 -28.585
    endloop
  endfacet
  facet normal 0 0 -1
    outer loop
      vertex 27.835 -10.835 -28.585
      vertex 25.8021 1.10153 -28.585
      vertex 25.975 1.915 -28.585
    endloop
  endfacet
  facet normal 0 0 -1
    outer loop
      vertex 25.1169 -5.57658 -28.585
      vertex 25.8021 1.10153 -28.585
      vertex 27.835 -10.835 -28.585
    endloop
  endfacet
  facet normal 0 0 -1
    outer loop
      vertex 25.1169 -5.57658 -28.585
      vertex 27.835 -10.835 -28.585
      vertex 25.225 -6.085 -28.585
    endloop
  endfacet
  facet normal 0 0 -1
    outer loop
      vertex 27.835 -10.835 -28.585
      vertex 25.1169 -6.59342 -28.585
      vertex 25.225 -6.085 -28.585
    endloop
  endfacet
  facet normal 0 0 -1
    outer loop
      vertex 27.835 -10.835 -28.585
      vertex 24.8114 -7.01393 -28.585
      vertex 25.1169 -6.59342 -28.585
    endloop
  endfacet
  facet normal 0 0 -1
    outer loop
      vertex 27.835 -10.835 -28.585
      vertex 24.3613 -7.27382 -28.585
      vertex 24.8114 -7.01393 -28.585
    endloop
  endfacet
  facet normal 0 0 -1
    outer loop
      vertex 21.335 -10.835 -28.585
      vertex 24.3613 -7.27382 -28.585
      vertex 27.835 -10.835 -28.585
    endloop
  endfacet
  facet normal 0 0 -1
    outer loop
      vertex 24.3613 -7.27382 -28.585
      vertex 21.335 -10.835 -28.585
      vertex 23.8443 -7.32815 -28.585
    endloop
  endfacet
  facet normal 0 0 -1
    outer loop
      vertex 21.335 -10.835 -28.585
      vertex 22.7523 -5.82511 -28.585
      vertex 22.7523 -6.34489 -28.585
    endloop
  endfacet
  facet normal 0 0 -1
    outer loop
      vertex 22.7523 -5.82511 -28.585
      vertex 22.0187 1.49918 -28.585
      vertex 22.357 0.739429 -28.585
    endloop
  endfacet
  facet normal 0 0 -1
    outer loop
      vertex 21.335 6.665 -28.585
      vertex 22.0187 1.49918 -28.585
      vertex 21.335 -10.835 -28.585
    endloop
  endfacet
  facet normal -0 0 -1
    outer loop
      vertex 22.7523 -5.82511 -28.585
      vertex 21.335 -10.835 -28.585
      vertex 22.0187 1.49918 -28.585
    endloop
  endfacet
  facet normal -0 0 -1
    outer loop
      vertex 22.9637 -6.81973 -28.585
      vertex 21.335 -10.835 -28.585
      vertex 22.7523 -6.34489 -28.585
    endloop
  endfacet
  facet normal -0 0 -1
    outer loop
      vertex 23.35 -7.16753 -28.585
      vertex 21.335 -10.835 -28.585
      vertex 22.9637 -6.81973 -28.585
    endloop
  endfacet
  facet normal -0 0 -1
    outer loop
      vertex 23.8443 -7.32815 -28.585
      vertex 21.335 -10.835 -28.585
      vertex 23.35 -7.16753 -28.585
    endloop
  endfacet
  facet normal 0 0 -1
    outer loop
      vertex 25.8021 2.72847 -28.585
      vertex 27.835 6.665 -28.585
      vertex 25.975 1.915 -28.585
    endloop
  endfacet
  facet normal 0 0 -1
    outer loop
      vertex 25.3133 3.40129 -28.585
      vertex 27.835 6.665 -28.585
      vertex 25.8021 2.72847 -28.585
    endloop
  endfacet
  facet normal 0 0 -1
    outer loop
      vertex 24.593 3.81711 -28.585
      vertex 27.835 6.665 -28.585
      vertex 25.3133 3.40129 -28.585
    endloop
  endfacet
  facet normal 0 0 -1
    outer loop
      vertex 21.335 6.665 -28.585
      vertex 24.593 3.81711 -28.585
      vertex 23.7659 3.90404 -28.585
    endloop
  endfacet
  facet normal 0 0 -1
    outer loop
      vertex 21.335 6.665 -28.585
      vertex 23.7659 3.90404 -28.585
      vertex 22.975 3.64705 -28.585
    endloop
  endfacet
  facet normal 0 0 -1
    outer loop
      vertex 24.593 3.81711 -28.585
      vertex 21.335 6.665 -28.585
      vertex 27.835 6.665 -28.585
    endloop
  endfacet
  facet normal 0 0 -1
    outer loop
      vertex 22.357 3.09057 -28.585
      vertex 21.335 6.665 -28.585
      vertex 22.975 3.64705 -28.585
    endloop
  endfacet
  facet normal 0 0 -1
    outer loop
      vertex 22.0187 2.33082 -28.585
      vertex 21.335 6.665 -28.585
      vertex 22.357 3.09057 -28.585
    endloop
  endfacet
  facet normal 0 0 -1
    outer loop
      vertex 22.0187 1.49918 -28.585
      vertex 21.335 6.665 -28.585
      vertex 22.0187 2.33082 -28.585
    endloop
  endfacet
  facet normal 0 0 -1
    outer loop
      vertex 25.8021 1.10153 -28.585
      vertex 25.1169 -5.57658 -28.585
      vertex 25.3133 0.42871 -28.585
    endloop
  endfacet
  facet normal 0 0 -1
    outer loop
      vertex 24.8114 -5.15607 -28.585
      vertex 25.3133 0.42871 -28.585
      vertex 25.1169 -5.57658 -28.585
    endloop
  endfacet
  facet normal 0 0 -1
    outer loop
      vertex 24.8114 -5.15607 -28.585
      vertex 24.593 0.012886 -28.585
      vertex 25.3133 0.42871 -28.585
    endloop
  endfacet
  facet normal 0 0 -1
    outer loop
      vertex 24.3613 -4.89618 -28.585
      vertex 24.593 0.012886 -28.585
      vertex 24.8114 -5.15607 -28.585
    endloop
  endfacet
  facet normal 0 0 -1
    outer loop
      vertex 23.7659 -0.0740433 -28.585
      vertex 24.3613 -4.89618 -28.585
      vertex 23.8443 -4.84185 -28.585
    endloop
  endfacet
  facet normal 0 0 -1
    outer loop
      vertex 24.3613 -4.89618 -28.585
      vertex 23.7659 -0.0740433 -28.585
      vertex 24.593 0.012886 -28.585
    endloop
  endfacet
  facet normal 0 0 -1
    outer loop
      vertex 23.35 -5.00247 -28.585
      vertex 23.7659 -0.0740433 -28.585
      vertex 23.8443 -4.84185 -28.585
    endloop
  endfacet
  facet normal 0 0 -1
    outer loop
      vertex 23.35 -5.00247 -28.585
      vertex 22.975 0.182949 -28.585
      vertex 23.7659 -0.0740433 -28.585
    endloop
  endfacet
  facet normal 0 0 -1
    outer loop
      vertex 22.9637 -5.35027 -28.585
      vertex 22.975 0.182949 -28.585
      vertex 23.35 -5.00247 -28.585
    endloop
  endfacet
  facet normal 0 0 -1
    outer loop
      vertex 22.357 0.739429 -28.585
      vertex 22.9637 -5.35027 -28.585
      vertex 22.7523 -5.82511 -28.585
    endloop
  endfacet
  facet normal 0 0 -1
    outer loop
      vertex 22.9637 -5.35027 -28.585
      vertex 22.357 0.739429 -28.585
      vertex 22.975 0.182949 -28.585
    endloop
  endfacet
  facet normal 0 -1 0
    outer loop
      vertex 21.335 -10.835 -7.085
      vertex 23.375 -10.835 -11.0029
      vertex 24.1659 -10.835 -10.746
    endloop
  endfacet
  facet normal 0 -1 0
    outer loop
      vertex 21.335 -10.835 -7.085
      vertex 22.757 -10.835 -11.5594
      vertex 23.375 -10.835 -11.0029
    endloop
  endfacet
  facet normal 0 -1 0
    outer loop
      vertex 21.335 -10.835 -7.085
      vertex 22.4187 -10.835 -12.3192
      vertex 22.757 -10.835 -11.5594
    endloop
  endfacet
  facet normal 0 -1 0
    outer loop
      vertex 21.335 -10.835 -7.085
      vertex 22.4187 -10.835 -13.1508
      vertex 22.4187 -10.835 -12.3192
    endloop
  endfacet
  facet normal 0 -1 0
    outer loop
      vertex 23.375 -10.835 -14.4671
      vertex 24.1659 -10.835 -20.746
      vertex 24.1659 -10.835 -14.724
    endloop
  endfacet
  facet normal 0 -1 0
    outer loop
      vertex 23.375 -10.835 -21.0029
      vertex 23.375 -10.835 -14.4671
      vertex 22.757 -10.835 -13.9106
    endloop
  endfacet
  facet normal 0 -1 0
    outer loop
      vertex 22.757 -10.835 -21.5594
      vertex 22.757 -10.835 -13.9106
      vertex 22.4187 -10.835 -13.1508
    endloop
  endfacet
  facet normal 0 -1 0
    outer loop
      vertex 23.375 -10.835 -14.4671
      vertex 23.375 -10.835 -21.0029
      vertex 24.1659 -10.835 -20.746
    endloop
  endfacet
  facet normal 0 -1 0
    outer loop
      vertex 22.4187 -10.835 -22.3192
      vertex 22.4187 -10.835 -13.1508
      vertex 21.335 -10.835 -7.085
    endloop
  endfacet
  facet normal 0 -1 0
    outer loop
      vertex 22.757 -10.835 -13.9106
      vertex 22.757 -10.835 -21.5594
      vertex 23.375 -10.835 -21.0029
    endloop
  endfacet
  facet normal 0 -1 0
    outer loop
      vertex 22.4187 -10.835 -13.1508
      vertex 22.4187 -10.835 -22.3192
      vertex 22.757 -10.835 -21.5594
    endloop
  endfacet
  facet normal 0 -1 0
    outer loop
      vertex 21.335 -10.835 -28.585
      vertex 22.4187 -10.835 -22.3192
      vertex 21.335 -10.835 -7.085
    endloop
  endfacet
  facet normal 0 -1 -0
    outer loop
      vertex 23.375 -10.835 -24.4671
      vertex 21.335 -10.835 -28.585
      vertex 24.1659 -10.835 -24.724
    endloop
  endfacet
  facet normal 0 -1 -0
    outer loop
      vertex 22.757 -10.835 -23.9106
      vertex 21.335 -10.835 -28.585
      vertex 23.375 -10.835 -24.4671
    endloop
  endfacet
  facet normal 0 -1 -0
    outer loop
      vertex 22.4187 -10.835 -23.1508
      vertex 21.335 -10.835 -28.585
      vertex 22.757 -10.835 -23.9106
    endloop
  endfacet
  facet normal 0 -1 -0
    outer loop
      vertex 22.4187 -10.835 -22.3192
      vertex 21.335 -10.835 -28.585
      vertex 22.4187 -10.835 -23.1508
    endloop
  endfacet
  facet normal 0 -1 0
    outer loop
      vertex -27.835 -10.835 28.585
      vertex -21.335 -10.835 -7.085
      vertex 27.835 -10.835 28.585
    endloop
  endfacet
  facet normal 0 -1 0
    outer loop
      vertex -25.375 -10.835 -11.0029
      vertex -21.335 -10.835 -7.085
      vertex -27.835 -10.835 28.585
    endloop
  endfacet
  facet normal 0 -1 0
    outer loop
      vertex -21.335 -10.835 -7.085
      vertex -25.375 -10.835 -11.0029
      vertex -24.5841 -10.835 -10.746
    endloop
  endfacet
  facet normal 0 -1 0
    outer loop
      vertex -27.835 -10.835 28.585
      vertex -25.993 -10.835 -11.5594
      vertex -25.375 -10.835 -11.0029
    endloop
  endfacet
  facet normal 0 -1 0
    outer loop
      vertex -27.835 -10.835 28.585
      vertex -26.3313 -10.835 -12.3192
      vertex -25.993 -10.835 -11.5594
    endloop
  endfacet
  facet normal 0 -1 0
    outer loop
      vertex -27.835 -10.835 -28.585
      vertex -26.3313 -10.835 -12.3192
      vertex -27.835 -10.835 28.585
    endloop
  endfacet
  facet normal 0 -1 0
    outer loop
      vertex -25.375 -10.835 -14.4671
      vertex -24.5841 -10.835 -20.746
      vertex -24.5841 -10.835 -14.724
    endloop
  endfacet
  facet normal 0 -1 0
    outer loop
      vertex -25.375 -10.835 -21.0029
      vertex -25.375 -10.835 -14.4671
      vertex -25.993 -10.835 -13.9106
    endloop
  endfacet
  facet normal 0 -1 0
    outer loop
      vertex -25.993 -10.835 -21.5594
      vertex -25.993 -10.835 -13.9106
      vertex -26.3313 -10.835 -13.1508
    endloop
  endfacet
  facet normal 0 -1 0
    outer loop
      vertex -25.375 -10.835 -14.4671
      vertex -25.375 -10.835 -21.0029
      vertex -24.5841 -10.835 -20.746
    endloop
  endfacet
  facet normal 0 -1 0
    outer loop
      vertex -25.993 -10.835 -13.9106
      vertex -25.993 -10.835 -21.5594
      vertex -25.375 -10.835 -21.0029
    endloop
  endfacet
  facet normal 0 -1 0
    outer loop
      vertex -26.3313 -10.835 -13.1508
      vertex -26.3313 -10.835 -22.3192
      vertex -25.993 -10.835 -21.5594
    endloop
  endfacet
  facet normal 0 -1 -0
    outer loop
      vertex -26.3313 -10.835 -12.3192
      vertex -27.835 -10.835 -28.585
      vertex -26.3313 -10.835 -13.1508
    endloop
  endfacet
  facet normal 0 -1 -0
    outer loop
      vertex -26.3313 -10.835 -13.1508
      vertex -27.835 -10.835 -28.585
      vertex -26.3313 -10.835 -22.3192
    endloop
  endfacet
  facet normal 0 -1 -0
    outer loop
      vertex -25.375 -10.835 -24.4671
      vertex -27.835 -10.835 -28.585
      vertex -24.5841 -10.835 -24.724
    endloop
  endfacet
  facet normal 0 -1 -0
    outer loop
      vertex -25.993 -10.835 -23.9106
      vertex -27.835 -10.835 -28.585
      vertex -25.375 -10.835 -24.4671
    endloop
  endfacet
  facet normal 0 -1 -0
    outer loop
      vertex -26.3313 -10.835 -23.1508
      vertex -27.835 -10.835 -28.585
      vertex -25.993 -10.835 -23.9106
    endloop
  endfacet
  facet normal 0 -1 -0
    outer loop
      vertex -26.3313 -10.835 -22.3192
      vertex -27.835 -10.835 -28.585
      vertex -26.3313 -10.835 -23.1508
    endloop
  endfacet
  facet normal 0 -1 0
    outer loop
      vertex 21.335 -10.835 -7.085
      vertex 27.835 -10.835 28.585
      vertex -21.335 -10.835 -7.085
    endloop
  endfacet
  facet normal 0 -1 0
    outer loop
      vertex 24.993 -10.835 -10.8329
      vertex 21.335 -10.835 -7.085
      vertex 24.1659 -10.835 -10.746
    endloop
  endfacet
  facet normal 0 -1 0
    outer loop
      vertex 25.7133 -10.835 -11.2487
      vertex 21.335 -10.835 -7.085
      vertex 24.993 -10.835 -10.8329
    endloop
  endfacet
  facet normal 0 -1 0
    outer loop
      vertex 21.335 -10.835 -7.085
      vertex 25.7133 -10.835 -11.2487
      vertex 27.835 -10.835 28.585
    endloop
  endfacet
  facet normal 0 -1 0
    outer loop
      vertex 26.2021 -10.835 -11.9215
      vertex 27.835 -10.835 28.585
      vertex 25.7133 -10.835 -11.2487
    endloop
  endfacet
  facet normal 0 -1 0
    outer loop
      vertex 26.375 -10.835 -12.735
      vertex 27.835 -10.835 28.585
      vertex 26.2021 -10.835 -11.9215
    endloop
  endfacet
  facet normal 0 -1 0
    outer loop
      vertex 24.1659 -10.835 -20.746
      vertex 24.993 -10.835 -14.6371
      vertex 24.1659 -10.835 -14.724
    endloop
  endfacet
  facet normal 0 -1 0
    outer loop
      vertex 24.993 -10.835 -20.8329
      vertex 24.993 -10.835 -14.6371
      vertex 24.1659 -10.835 -20.746
    endloop
  endfacet
  facet normal 0 -1 0
    outer loop
      vertex 24.993 -10.835 -14.6371
      vertex 24.993 -10.835 -20.8329
      vertex 25.7133 -10.835 -14.2213
    endloop
  endfacet
  facet normal 0 -1 0
    outer loop
      vertex 25.7133 -10.835 -21.2487
      vertex 25.7133 -10.835 -14.2213
      vertex 24.993 -10.835 -20.8329
    endloop
  endfacet
  facet normal 0 -1 0
    outer loop
      vertex 25.7133 -10.835 -14.2213
      vertex 25.7133 -10.835 -21.2487
      vertex 26.2021 -10.835 -13.5485
    endloop
  endfacet
  facet normal 0 -1 0
    outer loop
      vertex 26.2021 -10.835 -21.9215
      vertex 26.2021 -10.835 -13.5485
      vertex 25.7133 -10.835 -21.2487
    endloop
  endfacet
  facet normal 0 -1 0
    outer loop
      vertex 26.2021 -10.835 -13.5485
      vertex 26.2021 -10.835 -21.9215
      vertex 26.375 -10.835 -12.735
    endloop
  endfacet
  facet normal 0 -1 0
    outer loop
      vertex 26.375 -10.835 -22.735
      vertex 26.375 -10.835 -12.735
      vertex 26.2021 -10.835 -21.9215
    endloop
  endfacet
  facet normal 0 -1 0
    outer loop
      vertex 27.835 -10.835 -28.585
      vertex 26.375 -10.835 -12.735
      vertex 26.375 -10.835 -22.735
    endloop
  endfacet
  facet normal 0 -1 0
    outer loop
      vertex 27.835 -10.835 -28.585
      vertex 24.1659 -10.835 -24.724
      vertex 21.335 -10.835 -28.585
    endloop
  endfacet
  facet normal 0 -1 0
    outer loop
      vertex 24.1659 -10.835 -24.724
      vertex 27.835 -10.835 -28.585
      vertex 24.993 -10.835 -24.6371
    endloop
  endfacet
  facet normal 0 -1 0
    outer loop
      vertex 26.375 -10.835 -12.735
      vertex 27.835 -10.835 -28.585
      vertex 27.835 -10.835 28.585
    endloop
  endfacet
  facet normal 0 -1 0
    outer loop
      vertex 26.2021 -10.835 -23.5485
      vertex 27.835 -10.835 -28.585
      vertex 26.375 -10.835 -22.735
    endloop
  endfacet
  facet normal 0 -1 0
    outer loop
      vertex 25.7133 -10.835 -24.2213
      vertex 27.835 -10.835 -28.585
      vertex 26.2021 -10.835 -23.5485
    endloop
  endfacet
  facet normal 0 -1 0
    outer loop
      vertex 24.993 -10.835 -24.6371
      vertex 27.835 -10.835 -28.585
      vertex 25.7133 -10.835 -24.2213
    endloop
  endfacet
  facet normal 0 -1 0
    outer loop
      vertex -23.757 -10.835 -10.8329
      vertex -21.335 -10.835 -7.085
      vertex -24.5841 -10.835 -10.746
    endloop
  endfacet
  facet normal 0 -1 0
    outer loop
      vertex -23.0367 -10.835 -11.2487
      vertex -21.335 -10.835 -7.085
      vertex -23.757 -10.835 -10.8329
    endloop
  endfacet
  facet normal 0 -1 0
    outer loop
      vertex -22.5479 -10.835 -11.9215
      vertex -21.335 -10.835 -7.085
      vertex -23.0367 -10.835 -11.2487
    endloop
  endfacet
  facet normal 0 -1 0
    outer loop
      vertex -22.375 -10.835 -12.735
      vertex -21.335 -10.835 -7.085
      vertex -22.5479 -10.835 -11.9215
    endloop
  endfacet
  facet normal 0 -1 0
    outer loop
      vertex -24.5841 -10.835 -20.746
      vertex -23.757 -10.835 -14.6371
      vertex -24.5841 -10.835 -14.724
    endloop
  endfacet
  facet normal 0 -1 0
    outer loop
      vertex -23.757 -10.835 -20.8329
      vertex -23.757 -10.835 -14.6371
      vertex -24.5841 -10.835 -20.746
    endloop
  endfacet
  facet normal 0 -1 0
    outer loop
      vertex -23.757 -10.835 -14.6371
      vertex -23.757 -10.835 -20.8329
      vertex -23.0367 -10.835 -14.2213
    endloop
  endfacet
  facet normal 0 -1 0
    outer loop
      vertex -23.0367 -10.835 -21.2487
      vertex -23.0367 -10.835 -14.2213
      vertex -23.757 -10.835 -20.8329
    endloop
  endfacet
  facet normal 0 -1 0
    outer loop
      vertex -23.0367 -10.835 -14.2213
      vertex -23.0367 -10.835 -21.2487
      vertex -22.5479 -10.835 -13.5485
    endloop
  endfacet
  facet normal 0 -1 0
    outer loop
      vertex -22.5479 -10.835 -21.9215
      vertex -22.5479 -10.835 -13.5485
      vertex -23.0367 -10.835 -21.2487
    endloop
  endfacet
  facet normal 0 -1 0
    outer loop
      vertex -22.5479 -10.835 -13.5485
      vertex -22.5479 -10.835 -21.9215
      vertex -22.375 -10.835 -12.735
    endloop
  endfacet
  facet normal 0 -1 0
    outer loop
      vertex -22.375 -10.835 -22.735
      vertex -22.375 -10.835 -12.735
      vertex -22.5479 -10.835 -21.9215
    endloop
  endfacet
  facet normal 0 -1 0
    outer loop
      vertex -22.375 -10.835 -12.735
      vertex -22.375 -10.835 -22.735
      vertex -21.335 -10.835 -7.085
    endloop
  endfacet
  facet normal 0 -1 0
    outer loop
      vertex -21.335 -10.835 -28.585
      vertex -24.5841 -10.835 -24.724
      vertex -27.835 -10.835 -28.585
    endloop
  endfacet
  facet normal 0 -1 0
    outer loop
      vertex -24.5841 -10.835 -24.724
      vertex -21.335 -10.835 -28.585
      vertex -23.757 -10.835 -24.6371
    endloop
  endfacet
  facet normal 0 -1 0
    outer loop
      vertex -22.375 -10.835 -22.735
      vertex -21.335 -10.835 -28.585
      vertex -21.335 -10.835 -7.085
    endloop
  endfacet
  facet normal 0 -1 0
    outer loop
      vertex -22.5479 -10.835 -23.5485
      vertex -21.335 -10.835 -28.585
      vertex -22.375 -10.835 -22.735
    endloop
  endfacet
  facet normal 0 -1 0
    outer loop
      vertex -23.0367 -10.835 -24.2213
      vertex -21.335 -10.835 -28.585
      vertex -22.5479 -10.835 -23.5485
    endloop
  endfacet
  facet normal 0 -1 0
    outer loop
      vertex -23.757 -10.835 -24.6371
      vertex -21.335 -10.835 -28.585
      vertex -23.0367 -10.835 -24.2213
    endloop
  endfacet
  facet normal 0.978148 0.207909 0
    outer loop
      vertex 25.225 -6.085 -28.585
      vertex 25.1169 -5.57658 -30.835
      vertex 25.1169 -5.57658 -28.585
    endloop
  endfacet
  facet normal 0.978148 0.207909 0
    outer loop
      vertex 25.1169 -5.57658 -30.835
      vertex 25.225 -6.085 -28.585
      vertex 25.225 -6.085 -30.835
    endloop
  endfacet
  facet normal -1 0 0
    outer loop
      vertex 22.7523 -6.34489 -30.835
      vertex 22.7523 -5.82511 -28.585
      vertex 22.7523 -5.82511 -30.835
    endloop
  endfacet
  facet normal -1 -0 0
    outer loop
      vertex 22.7523 -5.82511 -28.585
      vertex 22.7523 -6.34489 -30.835
      vertex 22.7523 -6.34489 -28.585
    endloop
  endfacet
  facet normal 0.104529 0.994522 -0
    outer loop
      vertex 24.3613 -4.89618 -30.835
      vertex 23.8443 -4.84185 -28.585
      vertex 24.3613 -4.89618 -28.585
    endloop
  endfacet
  facet normal 0.104529 0.994522 0
    outer loop
      vertex 23.8443 -4.84185 -28.585
      vertex 24.3613 -4.89618 -30.835
      vertex 23.8443 -4.84185 -30.835
    endloop
  endfacet
  facet normal 0.809017 0.587786 0
    outer loop
      vertex 25.1169 -5.57658 -28.585
      vertex 24.8114 -5.15607 -30.835
      vertex 24.8114 -5.15607 -28.585
    endloop
  endfacet
  facet normal 0.809017 0.587786 0
    outer loop
      vertex 24.8114 -5.15607 -30.835
      vertex 25.1169 -5.57658 -28.585
      vertex 25.1169 -5.57658 -30.835
    endloop
  endfacet
  facet normal 0.104529 -0.994522 0
    outer loop
      vertex 23.8443 -7.32815 -30.835
      vertex 24.3613 -7.27382 -28.585
      vertex 23.8443 -7.32815 -28.585
    endloop
  endfacet
  facet normal 0.104529 -0.994522 0
    outer loop
      vertex 24.3613 -7.27382 -28.585
      vertex 23.8443 -7.32815 -30.835
      vertex 24.3613 -7.27382 -30.835
    endloop
  endfacet
  facet normal 0.5 -0.866025 0
    outer loop
      vertex 24.3613 -7.27382 -30.835
      vertex 24.8114 -7.01393 -28.585
      vertex 24.3613 -7.27382 -28.585
    endloop
  endfacet
  facet normal 0.5 -0.866025 0
    outer loop
      vertex 24.8114 -7.01393 -28.585
      vertex 24.3613 -7.27382 -30.835
      vertex 24.8114 -7.01393 -30.835
    endloop
  endfacet
  facet normal 0.5 0.866025 -0
    outer loop
      vertex 24.8114 -5.15607 -30.835
      vertex 24.3613 -4.89618 -28.585
      vertex 24.8114 -5.15607 -28.585
    endloop
  endfacet
  facet normal 0.5 0.866025 0
    outer loop
      vertex 24.3613 -4.89618 -28.585
      vertex 24.8114 -5.15607 -30.835
      vertex 24.3613 -4.89618 -30.835
    endloop
  endfacet
  facet normal -0.669131 0.743144 0
    outer loop
      vertex 23.35 -5.00247 -30.835
      vertex 22.9637 -5.35027 -28.585
      vertex 23.35 -5.00247 -28.585
    endloop
  endfacet
  facet normal -0.669131 0.743144 0
    outer loop
      vertex 22.9637 -5.35027 -28.585
      vertex 23.35 -5.00247 -30.835
      vertex 22.9637 -5.35027 -30.835
    endloop
  endfacet
  facet normal -0.913546 0.406736 0
    outer loop
      vertex 22.7523 -5.82511 -30.835
      vertex 22.9637 -5.35027 -28.585
      vertex 22.9637 -5.35027 -30.835
    endloop
  endfacet
  facet normal -0.913546 0.406736 0
    outer loop
      vertex 22.9637 -5.35027 -28.585
      vertex 22.7523 -5.82511 -30.835
      vertex 22.7523 -5.82511 -28.585
    endloop
  endfacet
  facet normal -0.309016 0.951057 0
    outer loop
      vertex 23.8443 -4.84185 -30.835
      vertex 23.35 -5.00247 -28.585
      vertex 23.8443 -4.84185 -28.585
    endloop
  endfacet
  facet normal -0.309016 0.951057 0
    outer loop
      vertex 23.35 -5.00247 -28.585
      vertex 23.8443 -4.84185 -30.835
      vertex 23.35 -5.00247 -30.835
    endloop
  endfacet
  facet normal 0.978148 -0.207909 0
    outer loop
      vertex 25.1169 -6.59342 -28.585
      vertex 25.225 -6.085 -30.835
      vertex 25.225 -6.085 -28.585
    endloop
  endfacet
  facet normal 0.978148 -0.207909 0
    outer loop
      vertex 25.225 -6.085 -30.835
      vertex 25.1169 -6.59342 -28.585
      vertex 25.1169 -6.59342 -30.835
    endloop
  endfacet
  facet normal 0 0 -1
    outer loop
      vertex 25.1169 -6.59342 -30.835
      vertex 25.1169 -5.57658 -30.835
      vertex 25.225 -6.085 -30.835
    endloop
  endfacet
  facet normal 0 0 -1
    outer loop
      vertex 24.8114 -7.01393 -30.835
      vertex 25.1169 -5.57658 -30.835
      vertex 25.1169 -6.59342 -30.835
    endloop
  endfacet
  facet normal 0 0 -1
    outer loop
      vertex 24.8114 -7.01393 -30.835
      vertex 24.8114 -5.15607 -30.835
      vertex 25.1169 -5.57658 -30.835
    endloop
  endfacet
  facet normal 0 0 -1
    outer loop
      vertex 24.3613 -7.27382 -30.835
      vertex 24.8114 -5.15607 -30.835
      vertex 24.8114 -7.01393 -30.835
    endloop
  endfacet
  facet normal 0 0 -1
    outer loop
      vertex 24.3613 -7.27382 -30.835
      vertex 24.3613 -4.89618 -30.835
      vertex 24.8114 -5.15607 -30.835
    endloop
  endfacet
  facet normal 0 0 -1
    outer loop
      vertex 23.8443 -7.32815 -30.835
      vertex 24.3613 -4.89618 -30.835
      vertex 24.3613 -7.27382 -30.835
    endloop
  endfacet
  facet normal 0 0 -1
    outer loop
      vertex 23.8443 -7.32815 -30.835
      vertex 23.8443 -4.84185 -30.835
      vertex 24.3613 -4.89618 -30.835
    endloop
  endfacet
  facet normal 0 0 -1
    outer loop
      vertex 23.35 -7.16753 -30.835
      vertex 23.8443 -4.84185 -30.835
      vertex 23.8443 -7.32815 -30.835
    endloop
  endfacet
  facet normal 0 0 -1
    outer loop
      vertex 23.35 -7.16753 -30.835
      vertex 23.35 -5.00247 -30.835
      vertex 23.8443 -4.84185 -30.835
    endloop
  endfacet
  facet normal 0 0 -1
    outer loop
      vertex 22.9637 -6.81973 -30.835
      vertex 23.35 -5.00247 -30.835
      vertex 23.35 -7.16753 -30.835
    endloop
  endfacet
  facet normal 0 0 -1
    outer loop
      vertex 22.9637 -6.81973 -30.835
      vertex 22.9637 -5.35027 -30.835
      vertex 23.35 -5.00247 -30.835
    endloop
  endfacet
  facet normal 0 0 -1
    outer loop
      vertex 22.7523 -6.34489 -30.835
      vertex 22.9637 -5.35027 -30.835
      vertex 22.9637 -6.81973 -30.835
    endloop
  endfacet
  facet normal 0 0 -1
    outer loop
      vertex 22.9637 -5.35027 -30.835
      vertex 22.7523 -6.34489 -30.835
      vertex 22.7523 -5.82511 -30.835
    endloop
  endfacet
  facet normal 0.809017 -0.587786 0
    outer loop
      vertex 24.8114 -7.01393 -28.585
      vertex 25.1169 -6.59342 -30.835
      vertex 25.1169 -6.59342 -28.585
    endloop
  endfacet
  facet normal 0.809017 -0.587786 0
    outer loop
      vertex 25.1169 -6.59342 -30.835
      vertex 24.8114 -7.01393 -28.585
      vertex 24.8114 -7.01393 -30.835
    endloop
  endfacet
  facet normal -0.309016 -0.951057 0
    outer loop
      vertex 23.35 -7.16753 -30.835
      vertex 23.8443 -7.32815 -28.585
      vertex 23.35 -7.16753 -28.585
    endloop
  endfacet
  facet normal -0.309016 -0.951057 -0
    outer loop
      vertex 23.8443 -7.32815 -28.585
      vertex 23.35 -7.16753 -30.835
      vertex 23.8443 -7.32815 -30.835
    endloop
  endfacet
  facet normal -0.669131 -0.743144 0
    outer loop
      vertex 22.9637 -6.81973 -30.835
      vertex 23.35 -7.16753 -28.585
      vertex 22.9637 -6.81973 -28.585
    endloop
  endfacet
  facet normal -0.669131 -0.743144 -0
    outer loop
      vertex 23.35 -7.16753 -28.585
      vertex 22.9637 -6.81973 -30.835
      vertex 23.35 -7.16753 -30.835
    endloop
  endfacet
  facet normal -0.913546 -0.406735 0
    outer loop
      vertex 22.9637 -6.81973 -30.835
      vertex 22.7523 -6.34489 -28.585
      vertex 22.7523 -6.34489 -30.835
    endloop
  endfacet
  facet normal -0.913546 -0.406735 0
    outer loop
      vertex 22.7523 -6.34489 -28.585
      vertex 22.9637 -6.81973 -30.835
      vertex 22.9637 -6.81973 -28.585
    endloop
  endfacet
  facet normal 0.978147 0.207916 0
    outer loop
      vertex -22.725 -6.085 -28.585
      vertex -22.8331 -5.57658 -30.835
      vertex -22.8331 -5.57658 -28.585
    endloop
  endfacet
  facet normal 0.978147 0.207916 0
    outer loop
      vertex -22.8331 -5.57658 -30.835
      vertex -22.725 -6.085 -28.585
      vertex -22.725 -6.085 -30.835
    endloop
  endfacet
  facet normal -1 0 0
    outer loop
      vertex -25.1977 -6.34489 -30.835
      vertex -25.1977 -5.82511 -28.585
      vertex -25.1977 -5.82511 -30.835
    endloop
  endfacet
  facet normal -1 -0 0
    outer loop
      vertex -25.1977 -5.82511 -28.585
      vertex -25.1977 -6.34489 -30.835
      vertex -25.1977 -6.34489 -28.585
    endloop
  endfacet
  facet normal 0.104529 0.994522 -0
    outer loop
      vertex -23.5887 -4.89618 -30.835
      vertex -24.1057 -4.84185 -28.585
      vertex -23.5887 -4.89618 -28.585
    endloop
  endfacet
  facet normal 0.104529 0.994522 0
    outer loop
      vertex -24.1057 -4.84185 -28.585
      vertex -23.5887 -4.89618 -30.835
      vertex -24.1057 -4.84185 -30.835
    endloop
  endfacet
  facet normal 0.104529 -0.994522 0
    outer loop
      vertex -24.1057 -7.32815 -30.835
      vertex -23.5887 -7.27382 -28.585
      vertex -24.1057 -7.32815 -28.585
    endloop
  endfacet
  facet normal 0.104529 -0.994522 0
    outer loop
      vertex -23.5887 -7.27382 -28.585
      vertex -24.1057 -7.32815 -30.835
      vertex -23.5887 -7.27382 -30.835
    endloop
  endfacet
  facet normal 0.5 -0.866025 0
    outer loop
      vertex -23.5887 -7.27382 -30.835
      vertex -23.1386 -7.01393 -28.585
      vertex -23.5887 -7.27382 -28.585
    endloop
  endfacet
  facet normal 0.5 -0.866025 0
    outer loop
      vertex -23.1386 -7.01393 -28.585
      vertex -23.5887 -7.27382 -30.835
      vertex -23.1386 -7.01393 -30.835
    endloop
  endfacet
  facet normal 0 0 -1
    outer loop
      vertex -22.8331 -6.59342 -30.835
      vertex -22.8331 -5.57658 -30.835
      vertex -22.725 -6.085 -30.835
    endloop
  endfacet
  facet normal 0 0 -1
    outer loop
      vertex -23.1386 -7.01393 -30.835
      vertex -22.8331 -5.57658 -30.835
      vertex -22.8331 -6.59342 -30.835
    endloop
  endfacet
  facet normal 0 0 -1
    outer loop
      vertex -23.1386 -7.01393 -30.835
      vertex -23.1386 -5.15607 -30.835
      vertex -22.8331 -5.57658 -30.835
    endloop
  endfacet
  facet normal 0 0 -1
    outer loop
      vertex -23.5887 -7.27382 -30.835
      vertex -23.1386 -5.15607 -30.835
      vertex -23.1386 -7.01393 -30.835
    endloop
  endfacet
  facet normal 0 0 -1
    outer loop
      vertex -23.5887 -7.27382 -30.835
      vertex -23.5887 -4.89618 -30.835
      vertex -23.1386 -5.15607 -30.835
    endloop
  endfacet
  facet normal 0 0 -1
    outer loop
      vertex -24.1057 -7.32815 -30.835
      vertex -23.5887 -4.89618 -30.835
      vertex -23.5887 -7.27382 -30.835
    endloop
  endfacet
  facet normal 0 0 -1
    outer loop
      vertex -24.1057 -7.32815 -30.835
      vertex -24.1057 -4.84185 -30.835
      vertex -23.5887 -4.89618 -30.835
    endloop
  endfacet
  facet normal 0 0 -1
    outer loop
      vertex -24.6 -7.16753 -30.835
      vertex -24.1057 -4.84185 -30.835
      vertex -24.1057 -7.32815 -30.835
    endloop
  endfacet
  facet normal 0 0 -1
    outer loop
      vertex -24.6 -7.16753 -30.835
      vertex -24.6 -5.00247 -30.835
      vertex -24.1057 -4.84185 -30.835
    endloop
  endfacet
  facet normal 0 0 -1
    outer loop
      vertex -24.9863 -6.81973 -30.835
      vertex -24.6 -5.00247 -30.835
      vertex -24.6 -7.16753 -30.835
    endloop
  endfacet
  facet normal 0 0 -1
    outer loop
      vertex -24.9863 -6.81973 -30.835
      vertex -24.9863 -5.35027 -30.835
      vertex -24.6 -5.00247 -30.835
    endloop
  endfacet
  facet normal 0 0 -1
    outer loop
      vertex -25.1977 -6.34489 -30.835
      vertex -24.9863 -5.35027 -30.835
      vertex -24.9863 -6.81973 -30.835
    endloop
  endfacet
  facet normal 0 0 -1
    outer loop
      vertex -24.9863 -5.35027 -30.835
      vertex -25.1977 -6.34489 -30.835
      vertex -25.1977 -5.82511 -30.835
    endloop
  endfacet
  facet normal 0.5 0.866025 -0
    outer loop
      vertex -23.1386 -5.15607 -30.835
      vertex -23.5887 -4.89618 -28.585
      vertex -23.1386 -5.15607 -28.585
    endloop
  endfacet
  facet normal 0.5 0.866025 0
    outer loop
      vertex -23.5887 -4.89618 -28.585
      vertex -23.1386 -5.15607 -30.835
      vertex -23.5887 -4.89618 -30.835
    endloop
  endfacet
  facet normal 0.809018 0.587783 0
    outer loop
      vertex -22.8331 -5.57658 -28.585
      vertex -23.1386 -5.15607 -30.835
      vertex -23.1386 -5.15607 -28.585
    endloop
  endfacet
  facet normal 0.809018 0.587783 0
    outer loop
      vertex -23.1386 -5.15607 -30.835
      vertex -22.8331 -5.57658 -28.585
      vertex -22.8331 -5.57658 -30.835
    endloop
  endfacet
  facet normal -0.66913 0.743146 0
    outer loop
      vertex -24.6 -5.00247 -30.835
      vertex -24.9863 -5.35027 -28.585
      vertex -24.6 -5.00247 -28.585
    endloop
  endfacet
  facet normal -0.66913 0.743146 0
    outer loop
      vertex -24.9863 -5.35027 -28.585
      vertex -24.6 -5.00247 -30.835
      vertex -24.9863 -5.35027 -30.835
    endloop
  endfacet
  facet normal -0.913544 0.406739 0
    outer loop
      vertex -25.1977 -5.82511 -30.835
      vertex -24.9863 -5.35027 -28.585
      vertex -24.9863 -5.35027 -30.835
    endloop
  endfacet
  facet normal -0.913544 0.406739 0
    outer loop
      vertex -24.9863 -5.35027 -28.585
      vertex -25.1977 -5.82511 -30.835
      vertex -25.1977 -5.82511 -28.585
    endloop
  endfacet
  facet normal -0.309017 0.951056 0
    outer loop
      vertex -24.1057 -4.84185 -30.835
      vertex -24.6 -5.00247 -28.585
      vertex -24.1057 -4.84185 -28.585
    endloop
  endfacet
  facet normal -0.309017 0.951056 0
    outer loop
      vertex -24.6 -5.00247 -28.585
      vertex -24.1057 -4.84185 -30.835
      vertex -24.6 -5.00247 -30.835
    endloop
  endfacet
  facet normal 0.978147 -0.207916 0
    outer loop
      vertex -22.8331 -6.59342 -28.585
      vertex -22.725 -6.085 -30.835
      vertex -22.725 -6.085 -28.585
    endloop
  endfacet
  facet normal 0.978147 -0.207916 0
    outer loop
      vertex -22.725 -6.085 -30.835
      vertex -22.8331 -6.59342 -28.585
      vertex -22.8331 -6.59342 -30.835
    endloop
  endfacet
  facet normal -0.309017 -0.951056 0
    outer loop
      vertex -24.6 -7.16753 -30.835
      vertex -24.1057 -7.32815 -28.585
      vertex -24.6 -7.16753 -28.585
    endloop
  endfacet
  facet normal -0.309017 -0.951056 -0
    outer loop
      vertex -24.1057 -7.32815 -28.585
      vertex -24.6 -7.16753 -30.835
      vertex -24.1057 -7.32815 -30.835
    endloop
  endfacet
  facet normal -0.913545 -0.406738 0
    outer loop
      vertex -24.9863 -6.81973 -30.835
      vertex -25.1977 -6.34489 -28.585
      vertex -25.1977 -6.34489 -30.835
    endloop
  endfacet
  facet normal -0.913545 -0.406738 0
    outer loop
      vertex -25.1977 -6.34489 -28.585
      vertex -24.9863 -6.81973 -30.835
      vertex -24.9863 -6.81973 -28.585
    endloop
  endfacet
  facet normal 0.809018 -0.587783 0
    outer loop
      vertex -23.1386 -7.01393 -28.585
      vertex -22.8331 -6.59342 -30.835
      vertex -22.8331 -6.59342 -28.585
    endloop
  endfacet
  facet normal 0.809018 -0.587783 0
    outer loop
      vertex -22.8331 -6.59342 -30.835
      vertex -23.1386 -7.01393 -28.585
      vertex -23.1386 -7.01393 -30.835
    endloop
  endfacet
  facet normal -0.66913 -0.743146 0
    outer loop
      vertex -24.9863 -6.81973 -30.835
      vertex -24.6 -7.16753 -28.585
      vertex -24.9863 -6.81973 -28.585
    endloop
  endfacet
  facet normal -0.66913 -0.743146 -0
    outer loop
      vertex -24.6 -7.16753 -28.585
      vertex -24.9863 -6.81973 -30.835
      vertex -24.6 -7.16753 -30.835
    endloop
  endfacet
  facet normal 1 -0 0
    outer loop
      vertex -21.335 -10.835 -7.085
      vertex -21.335 6.665 -28.585
      vertex -21.335 6.665 -7.085
    endloop
  endfacet
  facet normal 1 0 0
    outer loop
      vertex -21.335 6.665 -28.585
      vertex -21.335 -10.835 -7.085
      vertex -21.335 -10.835 -28.585
    endloop
  endfacet
  facet normal 0 0 -1
    outer loop
      vertex -21.335 -10.835 -7.085
      vertex 21.335 6.665 -7.085
      vertex 21.335 -10.835 -7.085
    endloop
  endfacet
  facet normal -0 0 -1
    outer loop
      vertex 21.335 6.665 -7.085
      vertex -21.335 -10.835 -7.085
      vertex -21.335 6.665 -7.085
    endloop
  endfacet
  facet normal -1 0 0
    outer loop
      vertex 21.335 -10.835 -28.585
      vertex 21.335 6.665 -7.085
      vertex 21.335 6.665 -28.585
    endloop
  endfacet
  facet normal -1 -0 0
    outer loop
      vertex 21.335 6.665 -7.085
      vertex 21.335 -10.835 -28.585
      vertex 21.335 -10.835 -7.085
    endloop
  endfacet
  facet normal -0.978148 -0.207911 0
    outer loop
      vertex 25.975 1.915 -28.585
      vertex 25.8021 2.72847 -23.585
      vertex 25.8021 2.72847 -28.585
    endloop
  endfacet
  facet normal -0.978148 -0.207911 0
    outer loop
      vertex 25.8021 2.72847 -23.585
      vertex 25.975 1.915 -28.585
      vertex 25.975 1.915 -23.585
    endloop
  endfacet
  facet normal 1 -0 0
    outer loop
      vertex 22.0187 1.49918 -23.585
      vertex 22.0187 2.33082 -28.585
      vertex 22.0187 2.33082 -23.585
    endloop
  endfacet
  facet normal 1 0 0
    outer loop
      vertex 22.0187 2.33082 -28.585
      vertex 22.0187 1.49918 -23.585
      vertex 22.0187 1.49918 -28.585
    endloop
  endfacet
  facet normal -0.104528 -0.994522 0
    outer loop
      vertex 23.7659 3.90404 -28.585
      vertex 24.593 3.81711 -23.585
      vertex 23.7659 3.90404 -23.585
    endloop
  endfacet
  facet normal -0.104528 -0.994522 -0
    outer loop
      vertex 24.593 3.81711 -23.585
      vertex 23.7659 3.90404 -28.585
      vertex 24.593 3.81711 -28.585
    endloop
  endfacet
  facet normal -0.104527 0.994522 0
    outer loop
      vertex 24.593 0.012886 -28.585
      vertex 23.7659 -0.0740433 -23.585
      vertex 24.593 0.012886 -23.585
    endloop
  endfacet
  facet normal -0.104527 0.994522 0
    outer loop
      vertex 23.7659 -0.0740433 -23.585
      vertex 24.593 0.012886 -28.585
      vertex 23.7659 -0.0740433 -28.585
    endloop
  endfacet
  facet normal -0.5 -0.866025 0
    outer loop
      vertex 24.593 3.81711 -28.585
      vertex 25.3133 3.40129 -23.585
      vertex 24.593 3.81711 -23.585
    endloop
  endfacet
  facet normal -0.5 -0.866025 -0
    outer loop
      vertex 25.3133 3.40129 -23.585
      vertex 24.593 3.81711 -28.585
      vertex 25.3133 3.40129 -28.585
    endloop
  endfacet
  facet normal -0.809018 -0.587784 0
    outer loop
      vertex 25.8021 2.72847 -28.585
      vertex 25.3133 3.40129 -23.585
      vertex 25.3133 3.40129 -28.585
    endloop
  endfacet
  facet normal -0.809018 -0.587784 0
    outer loop
      vertex 25.3133 3.40129 -23.585
      vertex 25.8021 2.72847 -28.585
      vertex 25.8021 2.72847 -23.585
    endloop
  endfacet
  facet normal 0.66913 -0.743146 0
    outer loop
      vertex 22.357 3.09057 -28.585
      vertex 22.975 3.64705 -23.585
      vertex 22.357 3.09057 -23.585
    endloop
  endfacet
  facet normal 0.66913 -0.743146 0
    outer loop
      vertex 22.975 3.64705 -23.585
      vertex 22.357 3.09057 -28.585
      vertex 22.975 3.64705 -28.585
    endloop
  endfacet
  facet normal 0.913546 -0.406736 0
    outer loop
      vertex 22.0187 2.33082 -23.585
      vertex 22.357 3.09057 -28.585
      vertex 22.357 3.09057 -23.585
    endloop
  endfacet
  facet normal 0.913546 -0.406736 0
    outer loop
      vertex 22.357 3.09057 -28.585
      vertex 22.0187 2.33082 -23.585
      vertex 22.0187 2.33082 -28.585
    endloop
  endfacet
  facet normal 0 0 -1
    outer loop
      vertex 25.8021 1.10153 -23.585
      vertex 25.8021 2.72847 -23.585
      vertex 25.975 1.915 -23.585
    endloop
  endfacet
  facet normal 0 0 -1
    outer loop
      vertex 25.3133 0.42871 -23.585
      vertex 25.8021 2.72847 -23.585
      vertex 25.8021 1.10153 -23.585
    endloop
  endfacet
  facet normal 0 0 -1
    outer loop
      vertex 25.3133 0.42871 -23.585
      vertex 25.3133 3.40129 -23.585
      vertex 25.8021 2.72847 -23.585
    endloop
  endfacet
  facet normal 0 0 -1
    outer loop
      vertex 24.593 0.012886 -23.585
      vertex 25.3133 3.40129 -23.585
      vertex 25.3133 0.42871 -23.585
    endloop
  endfacet
  facet normal 0 0 -1
    outer loop
      vertex 24.593 0.012886 -23.585
      vertex 24.593 3.81711 -23.585
      vertex 25.3133 3.40129 -23.585
    endloop
  endfacet
  facet normal 0 0 -1
    outer loop
      vertex 23.7659 -0.0740433 -23.585
      vertex 24.593 3.81711 -23.585
      vertex 24.593 0.012886 -23.585
    endloop
  endfacet
  facet normal 0 0 -1
    outer loop
      vertex 23.7659 -0.0740433 -23.585
      vertex 23.7659 3.90404 -23.585
      vertex 24.593 3.81711 -23.585
    endloop
  endfacet
  facet normal 0 0 -1
    outer loop
      vertex 22.975 0.182949 -23.585
      vertex 23.7659 3.90404 -23.585
      vertex 23.7659 -0.0740433 -23.585
    endloop
  endfacet
  facet normal 0 0 -1
    outer loop
      vertex 22.975 0.182949 -23.585
      vertex 22.975 3.64705 -23.585
      vertex 23.7659 3.90404 -23.585
    endloop
  endfacet
  facet normal 0 0 -1
    outer loop
      vertex 22.357 0.739429 -23.585
      vertex 22.975 3.64705 -23.585
      vertex 22.975 0.182949 -23.585
    endloop
  endfacet
  facet normal 0 0 -1
    outer loop
      vertex 22.357 0.739429 -23.585
      vertex 22.357 3.09057 -23.585
      vertex 22.975 3.64705 -23.585
    endloop
  endfacet
  facet normal 0 0 -1
    outer loop
      vertex 22.0187 1.49918 -23.585
      vertex 22.357 3.09057 -23.585
      vertex 22.357 0.739429 -23.585
    endloop
  endfacet
  facet normal 0 0 -1
    outer loop
      vertex 22.357 3.09057 -23.585
      vertex 22.0187 1.49918 -23.585
      vertex 22.0187 2.33082 -23.585
    endloop
  endfacet
  facet normal 0.309017 -0.951056 0
    outer loop
      vertex 22.975 3.64705 -28.585
      vertex 23.7659 3.90404 -23.585
      vertex 22.975 3.64705 -23.585
    endloop
  endfacet
  facet normal 0.309017 -0.951056 0
    outer loop
      vertex 23.7659 3.90404 -23.585
      vertex 22.975 3.64705 -28.585
      vertex 23.7659 3.90404 -28.585
    endloop
  endfacet
  facet normal -0.978148 0.207911 0
    outer loop
      vertex 25.8021 1.10153 -28.585
      vertex 25.975 1.915 -23.585
      vertex 25.975 1.915 -28.585
    endloop
  endfacet
  facet normal -0.978148 0.207911 0
    outer loop
      vertex 25.975 1.915 -23.585
      vertex 25.8021 1.10153 -28.585
      vertex 25.8021 1.10153 -23.585
    endloop
  endfacet
  facet normal -0.5 0.866025 0
    outer loop
      vertex 25.3133 0.42871 -28.585
      vertex 24.593 0.012886 -23.585
      vertex 25.3133 0.42871 -23.585
    endloop
  endfacet
  facet normal -0.5 0.866025 0
    outer loop
      vertex 24.593 0.012886 -23.585
      vertex 25.3133 0.42871 -28.585
      vertex 24.593 0.012886 -28.585
    endloop
  endfacet
  facet normal 0.309016 0.951057 -0
    outer loop
      vertex 23.7659 -0.0740433 -28.585
      vertex 22.975 0.182949 -23.585
      vertex 23.7659 -0.0740433 -23.585
    endloop
  endfacet
  facet normal 0.309016 0.951057 0
    outer loop
      vertex 22.975 0.182949 -23.585
      vertex 23.7659 -0.0740433 -28.585
      vertex 22.975 0.182949 -28.585
    endloop
  endfacet
  facet normal 0.913546 0.406736 0
    outer loop
      vertex 22.357 0.739429 -23.585
      vertex 22.0187 1.49918 -28.585
      vertex 22.0187 1.49918 -23.585
    endloop
  endfacet
  facet normal 0.913546 0.406736 0
    outer loop
      vertex 22.0187 1.49918 -28.585
      vertex 22.357 0.739429 -23.585
      vertex 22.357 0.739429 -28.585
    endloop
  endfacet
  facet normal -0.809018 0.587784 0
    outer loop
      vertex 25.3133 0.42871 -28.585
      vertex 25.8021 1.10153 -23.585
      vertex 25.8021 1.10153 -28.585
    endloop
  endfacet
  facet normal -0.809018 0.587784 0
    outer loop
      vertex 25.8021 1.10153 -23.585
      vertex 25.3133 0.42871 -28.585
      vertex 25.3133 0.42871 -23.585
    endloop
  endfacet
  facet normal 0.66913 0.743145 -0
    outer loop
      vertex 22.975 0.182949 -28.585
      vertex 22.357 0.739429 -23.585
      vertex 22.975 0.182949 -23.585
    endloop
  endfacet
  facet normal 0.66913 0.743145 0
    outer loop
      vertex 22.357 0.739429 -23.585
      vertex 22.975 0.182949 -28.585
      vertex 22.357 0.739429 -28.585
    endloop
  endfacet
  facet normal -0.978148 -0.207911 0
    outer loop
      vertex -21.975 1.915 -28.585
      vertex -22.1479 2.72847 -23.585
      vertex -22.1479 2.72847 -28.585
    endloop
  endfacet
  facet normal -0.978148 -0.207911 0
    outer loop
      vertex -22.1479 2.72847 -23.585
      vertex -21.975 1.915 -28.585
      vertex -21.975 1.915 -23.585
    endloop
  endfacet
  facet normal 1 -0 0
    outer loop
      vertex -25.9313 1.49918 -23.585
      vertex -25.9313 2.33082 -28.585
      vertex -25.9313 2.33082 -23.585
    endloop
  endfacet
  facet normal 1 0 0
    outer loop
      vertex -25.9313 2.33082 -28.585
      vertex -25.9313 1.49918 -23.585
      vertex -25.9313 1.49918 -28.585
    endloop
  endfacet
  facet normal -0.104528 -0.994522 0
    outer loop
      vertex -24.1841 3.90404 -28.585
      vertex -23.357 3.81711 -23.585
      vertex -24.1841 3.90404 -23.585
    endloop
  endfacet
  facet normal -0.104528 -0.994522 -0
    outer loop
      vertex -23.357 3.81711 -23.585
      vertex -24.1841 3.90404 -28.585
      vertex -23.357 3.81711 -28.585
    endloop
  endfacet
  facet normal -0.104527 0.994522 0
    outer loop
      vertex -23.357 0.012886 -28.585
      vertex -24.1841 -0.0740433 -23.585
      vertex -23.357 0.012886 -23.585
    endloop
  endfacet
  facet normal -0.104527 0.994522 0
    outer loop
      vertex -24.1841 -0.0740433 -23.585
      vertex -23.357 0.012886 -28.585
      vertex -24.1841 -0.0740433 -28.585
    endloop
  endfacet
  facet normal -0.500001 -0.866025 0
    outer loop
      vertex -23.357 3.81711 -28.585
      vertex -22.6367 3.40129 -23.585
      vertex -23.357 3.81711 -23.585
    endloop
  endfacet
  facet normal -0.500001 -0.866025 -0
    outer loop
      vertex -22.6367 3.40129 -23.585
      vertex -23.357 3.81711 -28.585
      vertex -22.6367 3.40129 -28.585
    endloop
  endfacet
  facet normal -0.809016 -0.587786 0
    outer loop
      vertex -22.1479 2.72847 -28.585
      vertex -22.6367 3.40129 -23.585
      vertex -22.6367 3.40129 -28.585
    endloop
  endfacet
  facet normal -0.809016 -0.587786 0
    outer loop
      vertex -22.6367 3.40129 -23.585
      vertex -22.1479 2.72847 -28.585
      vertex -22.1479 2.72847 -23.585
    endloop
  endfacet
  facet normal 0.66913 -0.743146 0
    outer loop
      vertex -25.593 3.09057 -28.585
      vertex -24.975 3.64705 -23.585
      vertex -25.593 3.09057 -23.585
    endloop
  endfacet
  facet normal 0.66913 -0.743146 0
    outer loop
      vertex -24.975 3.64705 -23.585
      vertex -25.593 3.09057 -28.585
      vertex -24.975 3.64705 -28.585
    endloop
  endfacet
  facet normal 0.913546 -0.406736 0
    outer loop
      vertex -25.9313 2.33082 -23.585
      vertex -25.593 3.09057 -28.585
      vertex -25.593 3.09057 -23.585
    endloop
  endfacet
  facet normal 0.913546 -0.406736 0
    outer loop
      vertex -25.593 3.09057 -28.585
      vertex -25.9313 2.33082 -23.585
      vertex -25.9313 2.33082 -28.585
    endloop
  endfacet
  facet normal 0 0 -1
    outer loop
      vertex -22.1479 1.10153 -23.585
      vertex -22.1479 2.72847 -23.585
      vertex -21.975 1.915 -23.585
    endloop
  endfacet
  facet normal 0 0 -1
    outer loop
      vertex -22.6367 0.42871 -23.585
      vertex -22.1479 2.72847 -23.585
      vertex -22.1479 1.10153 -23.585
    endloop
  endfacet
  facet normal 0 0 -1
    outer loop
      vertex -22.6367 0.42871 -23.585
      vertex -22.6367 3.40129 -23.585
      vertex -22.1479 2.72847 -23.585
    endloop
  endfacet
  facet normal 0 0 -1
    outer loop
      vertex -23.357 0.012886 -23.585
      vertex -22.6367 3.40129 -23.585
      vertex -22.6367 0.42871 -23.585
    endloop
  endfacet
  facet normal 0 0 -1
    outer loop
      vertex -23.357 0.012886 -23.585
      vertex -23.357 3.81711 -23.585
      vertex -22.6367 3.40129 -23.585
    endloop
  endfacet
  facet normal 0 0 -1
    outer loop
      vertex -24.1841 -0.0740433 -23.585
      vertex -23.357 3.81711 -23.585
      vertex -23.357 0.012886 -23.585
    endloop
  endfacet
  facet normal 0 0 -1
    outer loop
      vertex -24.1841 -0.0740433 -23.585
      vertex -24.1841 3.90404 -23.585
      vertex -23.357 3.81711 -23.585
    endloop
  endfacet
  facet normal 0 0 -1
    outer loop
      vertex -24.975 0.182949 -23.585
      vertex -24.1841 3.90404 -23.585
      vertex -24.1841 -0.0740433 -23.585
    endloop
  endfacet
  facet normal 0 0 -1
    outer loop
      vertex -24.975 0.182949 -23.585
      vertex -24.975 3.64705 -23.585
      vertex -24.1841 3.90404 -23.585
    endloop
  endfacet
  facet normal 0 0 -1
    outer loop
      vertex -25.593 0.739429 -23.585
      vertex -24.975 3.64705 -23.585
      vertex -24.975 0.182949 -23.585
    endloop
  endfacet
  facet normal 0 0 -1
    outer loop
      vertex -25.593 0.739429 -23.585
      vertex -25.593 3.09057 -23.585
      vertex -24.975 3.64705 -23.585
    endloop
  endfacet
  facet normal 0 0 -1
    outer loop
      vertex -25.9313 1.49918 -23.585
      vertex -25.593 3.09057 -23.585
      vertex -25.593 0.739429 -23.585
    endloop
  endfacet
  facet normal 0 0 -1
    outer loop
      vertex -25.593 3.09057 -23.585
      vertex -25.9313 1.49918 -23.585
      vertex -25.9313 2.33082 -23.585
    endloop
  endfacet
  facet normal 0.309017 -0.951056 0
    outer loop
      vertex -24.975 3.64705 -28.585
      vertex -24.1841 3.90404 -23.585
      vertex -24.975 3.64705 -23.585
    endloop
  endfacet
  facet normal 0.309017 -0.951056 0
    outer loop
      vertex -24.1841 3.90404 -23.585
      vertex -24.975 3.64705 -28.585
      vertex -24.1841 3.90404 -28.585
    endloop
  endfacet
  facet normal -0.978148 0.207911 0
    outer loop
      vertex -22.1479 1.10153 -28.585
      vertex -21.975 1.915 -23.585
      vertex -21.975 1.915 -28.585
    endloop
  endfacet
  facet normal -0.978148 0.207911 0
    outer loop
      vertex -21.975 1.915 -23.585
      vertex -22.1479 1.10153 -28.585
      vertex -22.1479 1.10153 -23.585
    endloop
  endfacet
  facet normal 0.309016 0.951057 -0
    outer loop
      vertex -24.1841 -0.0740433 -28.585
      vertex -24.975 0.182949 -23.585
      vertex -24.1841 -0.0740433 -23.585
    endloop
  endfacet
  facet normal 0.309016 0.951057 0
    outer loop
      vertex -24.975 0.182949 -23.585
      vertex -24.1841 -0.0740433 -28.585
      vertex -24.975 0.182949 -28.585
    endloop
  endfacet
  facet normal 0.913546 0.406736 0
    outer loop
      vertex -25.593 0.739429 -23.585
      vertex -25.9313 1.49918 -28.585
      vertex -25.9313 1.49918 -23.585
    endloop
  endfacet
  facet normal 0.913546 0.406736 0
    outer loop
      vertex -25.9313 1.49918 -28.585
      vertex -25.593 0.739429 -23.585
      vertex -25.593 0.739429 -28.585
    endloop
  endfacet
  facet normal -0.809016 0.587786 0
    outer loop
      vertex -22.6367 0.42871 -28.585
      vertex -22.1479 1.10153 -23.585
      vertex -22.1479 1.10153 -28.585
    endloop
  endfacet
  facet normal -0.809016 0.587786 0
    outer loop
      vertex -22.1479 1.10153 -23.585
      vertex -22.6367 0.42871 -28.585
      vertex -22.6367 0.42871 -23.585
    endloop
  endfacet
  facet normal -0.500001 0.866025 0
    outer loop
      vertex -22.6367 0.42871 -28.585
      vertex -23.357 0.012886 -23.585
      vertex -22.6367 0.42871 -23.585
    endloop
  endfacet
  facet normal -0.500001 0.866025 0
    outer loop
      vertex -23.357 0.012886 -23.585
      vertex -22.6367 0.42871 -28.585
      vertex -23.357 0.012886 -28.585
    endloop
  endfacet
  facet normal 0.66913 0.743145 -0
    outer loop
      vertex -24.975 0.182949 -28.585
      vertex -25.593 0.739429 -23.585
      vertex -24.975 0.182949 -23.585
    endloop
  endfacet
  facet normal 0.66913 0.743145 0
    outer loop
      vertex -25.593 0.739429 -23.585
      vertex -24.975 0.182949 -28.585
      vertex -25.593 0.739429 -28.585
    endloop
  endfacet
  facet normal -0.978148 0 0.207911
    outer loop
      vertex 26.2021 -10.835 -23.5485
      vertex 26.375 -5.835 -22.735
      vertex 26.2021 -5.835 -23.5485
    endloop
  endfacet
  facet normal -0.978148 0 0.207911
    outer loop
      vertex 26.375 -5.835 -22.735
      vertex 26.2021 -10.835 -23.5485
      vertex 26.375 -10.835 -22.735
    endloop
  endfacet
  facet normal -0.104527 0 -0.994522
    outer loop
      vertex 24.1659 -10.835 -20.746
      vertex 24.993 -5.835 -20.8329
      vertex 24.993 -10.835 -20.8329
    endloop
  endfacet
  facet normal -0.104527 0 -0.994522
    outer loop
      vertex 24.993 -5.835 -20.8329
      vertex 24.1659 -10.835 -20.746
      vertex 24.1659 -5.835 -20.746
    endloop
  endfacet
  facet normal 0.309016 0 0.951057
    outer loop
      vertex 23.375 -5.835 -24.4671
      vertex 24.1659 -10.835 -24.724
      vertex 24.1659 -5.835 -24.724
    endloop
  endfacet
  facet normal 0.309016 0 0.951057
    outer loop
      vertex 24.1659 -10.835 -24.724
      vertex 23.375 -5.835 -24.4671
      vertex 23.375 -10.835 -24.4671
    endloop
  endfacet
  facet normal -0.499998 0 0.866026
    outer loop
      vertex 24.993 -5.835 -24.6371
      vertex 25.7133 -10.835 -24.2213
      vertex 25.7133 -5.835 -24.2213
    endloop
  endfacet
  facet normal -0.499998 0 0.866026
    outer loop
      vertex 25.7133 -10.835 -24.2213
      vertex 24.993 -5.835 -24.6371
      vertex 24.993 -10.835 -24.6371
    endloop
  endfacet
  facet normal -0.809017 0 0.587785
    outer loop
      vertex 25.7133 -10.835 -24.2213
      vertex 26.2021 -5.835 -23.5485
      vertex 25.7133 -5.835 -24.2213
    endloop
  endfacet
  facet normal -0.809017 0 0.587785
    outer loop
      vertex 26.2021 -5.835 -23.5485
      vertex 25.7133 -10.835 -24.2213
      vertex 26.2021 -10.835 -23.5485
    endloop
  endfacet
  facet normal -0.104529 0 0.994522
    outer loop
      vertex 24.1659 -5.835 -24.724
      vertex 24.993 -10.835 -24.6371
      vertex 24.993 -5.835 -24.6371
    endloop
  endfacet
  facet normal -0.104529 0 0.994522
    outer loop
      vertex 24.993 -10.835 -24.6371
      vertex 24.1659 -5.835 -24.724
      vertex 24.1659 -10.835 -24.724
    endloop
  endfacet
  facet normal 0.913546 -0 0.406735
    outer loop
      vertex 22.4187 -10.835 -23.1508
      vertex 22.757 -5.835 -23.9106
      vertex 22.4187 -5.835 -23.1508
    endloop
  endfacet
  facet normal 0.913546 0 0.406735
    outer loop
      vertex 22.757 -5.835 -23.9106
      vertex 22.4187 -10.835 -23.1508
      vertex 22.757 -10.835 -23.9106
    endloop
  endfacet
  facet normal 1 -0 0
    outer loop
      vertex 22.4187 -10.835 -22.3192
      vertex 22.4187 -5.835 -23.1508
      vertex 22.4187 -5.835 -22.3192
    endloop
  endfacet
  facet normal 1 0 0
    outer loop
      vertex 22.4187 -5.835 -23.1508
      vertex 22.4187 -10.835 -22.3192
      vertex 22.4187 -10.835 -23.1508
    endloop
  endfacet
  facet normal 0.66913 0 0.743145
    outer loop
      vertex 22.757 -5.835 -23.9106
      vertex 23.375 -10.835 -24.4671
      vertex 23.375 -5.835 -24.4671
    endloop
  endfacet
  facet normal 0.66913 0 0.743145
    outer loop
      vertex 23.375 -10.835 -24.4671
      vertex 22.757 -5.835 -23.9106
      vertex 22.757 -10.835 -23.9106
    endloop
  endfacet
  facet normal -0.978148 0 -0.207911
    outer loop
      vertex 26.375 -10.835 -22.735
      vertex 26.2021 -5.835 -21.9215
      vertex 26.375 -5.835 -22.735
    endloop
  endfacet
  facet normal -0.978148 -0 -0.207911
    outer loop
      vertex 26.2021 -5.835 -21.9215
      vertex 26.375 -10.835 -22.735
      vertex 26.2021 -10.835 -21.9215
    endloop
  endfacet
  facet normal 0 -1 0
    outer loop
      vertex 23.375 -5.835 -21.0029
      vertex 24.993 -5.835 -20.8329
      vertex 24.1659 -5.835 -20.746
    endloop
  endfacet
  facet normal 0 -1 0
    outer loop
      vertex 23.375 -5.835 -21.0029
      vertex 25.7133 -5.835 -21.2487
      vertex 24.993 -5.835 -20.8329
    endloop
  endfacet
  facet normal 0 -1 0
    outer loop
      vertex 22.757 -5.835 -21.5594
      vertex 25.7133 -5.835 -21.2487
      vertex 23.375 -5.835 -21.0029
    endloop
  endfacet
  facet normal 0 -1 0
    outer loop
      vertex 22.757 -5.835 -21.5594
      vertex 26.2021 -5.835 -21.9215
      vertex 25.7133 -5.835 -21.2487
    endloop
  endfacet
  facet normal 0 -1 0
    outer loop
      vertex 22.4187 -5.835 -22.3192
      vertex 26.2021 -5.835 -21.9215
      vertex 22.757 -5.835 -21.5594
    endloop
  endfacet
  facet normal 0 -1 0
    outer loop
      vertex 22.4187 -5.835 -22.3192
      vertex 26.375 -5.835 -22.735
      vertex 26.2021 -5.835 -21.9215
    endloop
  endfacet
  facet normal 0 -1 0
    outer loop
      vertex 22.4187 -5.835 -23.1508
      vertex 26.375 -5.835 -22.735
      vertex 22.4187 -5.835 -22.3192
    endloop
  endfacet
  facet normal 0 -1 0
    outer loop
      vertex 22.4187 -5.835 -23.1508
      vertex 26.2021 -5.835 -23.5485
      vertex 26.375 -5.835 -22.735
    endloop
  endfacet
  facet normal 0 -1 0
    outer loop
      vertex 22.757 -5.835 -23.9106
      vertex 26.2021 -5.835 -23.5485
      vertex 22.4187 -5.835 -23.1508
    endloop
  endfacet
  facet normal 0 -1 0
    outer loop
      vertex 22.757 -5.835 -23.9106
      vertex 25.7133 -5.835 -24.2213
      vertex 26.2021 -5.835 -23.5485
    endloop
  endfacet
  facet normal 0 -1 0
    outer loop
      vertex 23.375 -5.835 -24.4671
      vertex 25.7133 -5.835 -24.2213
      vertex 22.757 -5.835 -23.9106
    endloop
  endfacet
  facet normal 0 -1 0
    outer loop
      vertex 23.375 -5.835 -24.4671
      vertex 24.993 -5.835 -24.6371
      vertex 25.7133 -5.835 -24.2213
    endloop
  endfacet
  facet normal -0 -1 0
    outer loop
      vertex 24.993 -5.835 -24.6371
      vertex 23.375 -5.835 -24.4671
      vertex 24.1659 -5.835 -24.724
    endloop
  endfacet
  facet normal 0.309016 0 -0.951057
    outer loop
      vertex 23.375 -10.835 -21.0029
      vertex 24.1659 -5.835 -20.746
      vertex 24.1659 -10.835 -20.746
    endloop
  endfacet
  facet normal 0.309016 0 -0.951057
    outer loop
      vertex 24.1659 -5.835 -20.746
      vertex 23.375 -10.835 -21.0029
      vertex 23.375 -5.835 -21.0029
    endloop
  endfacet
  facet normal 0.66913 0 -0.743145
    outer loop
      vertex 22.757 -10.835 -21.5594
      vertex 23.375 -5.835 -21.0029
      vertex 23.375 -10.835 -21.0029
    endloop
  endfacet
  facet normal 0.66913 0 -0.743145
    outer loop
      vertex 23.375 -5.835 -21.0029
      vertex 22.757 -10.835 -21.5594
      vertex 22.757 -5.835 -21.5594
    endloop
  endfacet
  facet normal 0.913546 0 -0.406736
    outer loop
      vertex 22.757 -10.835 -21.5594
      vertex 22.4187 -5.835 -22.3192
      vertex 22.757 -5.835 -21.5594
    endloop
  endfacet
  facet normal 0.913546 0 -0.406736
    outer loop
      vertex 22.4187 -5.835 -22.3192
      vertex 22.757 -10.835 -21.5594
      vertex 22.4187 -10.835 -22.3192
    endloop
  endfacet
  facet normal -0.809016 0 -0.587787
    outer loop
      vertex 26.2021 -10.835 -21.9215
      vertex 25.7133 -5.835 -21.2487
      vertex 26.2021 -5.835 -21.9215
    endloop
  endfacet
  facet normal -0.809016 -0 -0.587787
    outer loop
      vertex 25.7133 -5.835 -21.2487
      vertex 26.2021 -10.835 -21.9215
      vertex 25.7133 -10.835 -21.2487
    endloop
  endfacet
  facet normal -0.500002 0 -0.866024
    outer loop
      vertex 24.993 -10.835 -20.8329
      vertex 25.7133 -5.835 -21.2487
      vertex 25.7133 -10.835 -21.2487
    endloop
  endfacet
  facet normal -0.500002 0 -0.866024
    outer loop
      vertex 25.7133 -5.835 -21.2487
      vertex 24.993 -10.835 -20.8329
      vertex 24.993 -5.835 -20.8329
    endloop
  endfacet
  facet normal -0.978148 0 0.207911
    outer loop
      vertex -22.5479 -10.835 -23.5485
      vertex -22.375 -5.835 -22.735
      vertex -22.5479 -5.835 -23.5485
    endloop
  endfacet
  facet normal -0.978148 0 0.207911
    outer loop
      vertex -22.375 -5.835 -22.735
      vertex -22.5479 -10.835 -23.5485
      vertex -22.375 -10.835 -22.735
    endloop
  endfacet
  facet normal 0.309016 0 0.951057
    outer loop
      vertex -25.375 -5.835 -24.4671
      vertex -24.5841 -10.835 -24.724
      vertex -24.5841 -5.835 -24.724
    endloop
  endfacet
  facet normal 0.309016 0 0.951057
    outer loop
      vertex -24.5841 -10.835 -24.724
      vertex -25.375 -5.835 -24.4671
      vertex -25.375 -10.835 -24.4671
    endloop
  endfacet
  facet normal 0 -1 0
    outer loop
      vertex -25.375 -5.835 -21.0029
      vertex -23.757 -5.835 -20.8329
      vertex -24.5841 -5.835 -20.746
    endloop
  endfacet
  facet normal 0 -1 0
    outer loop
      vertex -25.375 -5.835 -21.0029
      vertex -23.0367 -5.835 -21.2487
      vertex -23.757 -5.835 -20.8329
    endloop
  endfacet
  facet normal 0 -1 0
    outer loop
      vertex -25.993 -5.835 -21.5594
      vertex -23.0367 -5.835 -21.2487
      vertex -25.375 -5.835 -21.0029
    endloop
  endfacet
  facet normal 0 -1 0
    outer loop
      vertex -25.993 -5.835 -21.5594
      vertex -22.5479 -5.835 -21.9215
      vertex -23.0367 -5.835 -21.2487
    endloop
  endfacet
  facet normal 0 -1 0
    outer loop
      vertex -26.3313 -5.835 -22.3192
      vertex -22.5479 -5.835 -21.9215
      vertex -25.993 -5.835 -21.5594
    endloop
  endfacet
  facet normal 0 -1 0
    outer loop
      vertex -26.3313 -5.835 -22.3192
      vertex -22.375 -5.835 -22.735
      vertex -22.5479 -5.835 -21.9215
    endloop
  endfacet
  facet normal 0 -1 0
    outer loop
      vertex -26.3313 -5.835 -23.1508
      vertex -22.375 -5.835 -22.735
      vertex -26.3313 -5.835 -22.3192
    endloop
  endfacet
  facet normal 0 -1 0
    outer loop
      vertex -26.3313 -5.835 -23.1508
      vertex -22.5479 -5.835 -23.5485
      vertex -22.375 -5.835 -22.735
    endloop
  endfacet
  facet normal 0 -1 0
    outer loop
      vertex -25.993 -5.835 -23.9106
      vertex -22.5479 -5.835 -23.5485
      vertex -26.3313 -5.835 -23.1508
    endloop
  endfacet
  facet normal 0 -1 0
    outer loop
      vertex -25.993 -5.835 -23.9106
      vertex -23.0367 -5.835 -24.2213
      vertex -22.5479 -5.835 -23.5485
    endloop
  endfacet
  facet normal 0 -1 0
    outer loop
      vertex -25.375 -5.835 -24.4671
      vertex -23.0367 -5.835 -24.2213
      vertex -25.993 -5.835 -23.9106
    endloop
  endfacet
  facet normal 0 -1 0
    outer loop
      vertex -25.375 -5.835 -24.4671
      vertex -23.757 -5.835 -24.6371
      vertex -23.0367 -5.835 -24.2213
    endloop
  endfacet
  facet normal -0 -1 0
    outer loop
      vertex -23.757 -5.835 -24.6371
      vertex -25.375 -5.835 -24.4671
      vertex -24.5841 -5.835 -24.724
    endloop
  endfacet
  facet normal -0.104527 0 -0.994522
    outer loop
      vertex -24.5841 -10.835 -20.746
      vertex -23.757 -5.835 -20.8329
      vertex -23.757 -10.835 -20.8329
    endloop
  endfacet
  facet normal -0.104527 0 -0.994522
    outer loop
      vertex -23.757 -5.835 -20.8329
      vertex -24.5841 -10.835 -20.746
      vertex -24.5841 -5.835 -20.746
    endloop
  endfacet
  facet normal -0.500002 0 -0.866024
    outer loop
      vertex -23.757 -10.835 -20.8329
      vertex -23.0367 -5.835 -21.2487
      vertex -23.0367 -10.835 -21.2487
    endloop
  endfacet
  facet normal -0.500002 0 -0.866024
    outer loop
      vertex -23.0367 -5.835 -21.2487
      vertex -23.757 -10.835 -20.8329
      vertex -23.757 -5.835 -20.8329
    endloop
  endfacet
  facet normal -0.499998 0 0.866026
    outer loop
      vertex -23.757 -5.835 -24.6371
      vertex -23.0367 -10.835 -24.2213
      vertex -23.0367 -5.835 -24.2213
    endloop
  endfacet
  facet normal -0.499998 0 0.866026
    outer loop
      vertex -23.0367 -10.835 -24.2213
      vertex -23.757 -5.835 -24.6371
      vertex -23.757 -10.835 -24.6371
    endloop
  endfacet
  facet normal -0.809017 0 0.587785
    outer loop
      vertex -23.0367 -10.835 -24.2213
      vertex -22.5479 -5.835 -23.5485
      vertex -23.0367 -5.835 -24.2213
    endloop
  endfacet
  facet normal -0.809017 0 0.587785
    outer loop
      vertex -22.5479 -5.835 -23.5485
      vertex -23.0367 -10.835 -24.2213
      vertex -22.5479 -10.835 -23.5485
    endloop
  endfacet
  facet normal -0.104529 0 0.994522
    outer loop
      vertex -24.5841 -5.835 -24.724
      vertex -23.757 -10.835 -24.6371
      vertex -23.757 -5.835 -24.6371
    endloop
  endfacet
  facet normal -0.104529 0 0.994522
    outer loop
      vertex -23.757 -10.835 -24.6371
      vertex -24.5841 -5.835 -24.724
      vertex -24.5841 -10.835 -24.724
    endloop
  endfacet
  facet normal 0.913546 -0 0.406735
    outer loop
      vertex -26.3313 -10.835 -23.1508
      vertex -25.993 -5.835 -23.9106
      vertex -26.3313 -5.835 -23.1508
    endloop
  endfacet
  facet normal 0.913546 0 0.406735
    outer loop
      vertex -25.993 -5.835 -23.9106
      vertex -26.3313 -10.835 -23.1508
      vertex -25.993 -10.835 -23.9106
    endloop
  endfacet
  facet normal 1 -0 0
    outer loop
      vertex -26.3313 -10.835 -22.3192
      vertex -26.3313 -5.835 -23.1508
      vertex -26.3313 -5.835 -22.3192
    endloop
  endfacet
  facet normal 1 0 0
    outer loop
      vertex -26.3313 -5.835 -23.1508
      vertex -26.3313 -10.835 -22.3192
      vertex -26.3313 -10.835 -23.1508
    endloop
  endfacet
  facet normal 0.66913 0 0.743145
    outer loop
      vertex -25.993 -5.835 -23.9106
      vertex -25.375 -10.835 -24.4671
      vertex -25.375 -5.835 -24.4671
    endloop
  endfacet
  facet normal 0.66913 0 0.743145
    outer loop
      vertex -25.375 -10.835 -24.4671
      vertex -25.993 -5.835 -23.9106
      vertex -25.993 -10.835 -23.9106
    endloop
  endfacet
  facet normal -0.978148 0 -0.207911
    outer loop
      vertex -22.375 -10.835 -22.735
      vertex -22.5479 -5.835 -21.9215
      vertex -22.375 -5.835 -22.735
    endloop
  endfacet
  facet normal -0.978148 -0 -0.207911
    outer loop
      vertex -22.5479 -5.835 -21.9215
      vertex -22.375 -10.835 -22.735
      vertex -22.5479 -10.835 -21.9215
    endloop
  endfacet
  facet normal 0.309016 0 -0.951057
    outer loop
      vertex -25.375 -10.835 -21.0029
      vertex -24.5841 -5.835 -20.746
      vertex -24.5841 -10.835 -20.746
    endloop
  endfacet
  facet normal 0.309016 0 -0.951057
    outer loop
      vertex -24.5841 -5.835 -20.746
      vertex -25.375 -10.835 -21.0029
      vertex -25.375 -5.835 -21.0029
    endloop
  endfacet
  facet normal -0.809016 0 -0.587787
    outer loop
      vertex -22.5479 -10.835 -21.9215
      vertex -23.0367 -5.835 -21.2487
      vertex -22.5479 -5.835 -21.9215
    endloop
  endfacet
  facet normal -0.809016 -0 -0.587787
    outer loop
      vertex -23.0367 -5.835 -21.2487
      vertex -22.5479 -10.835 -21.9215
      vertex -23.0367 -10.835 -21.2487
    endloop
  endfacet
  facet normal 0.66913 0 -0.743145
    outer loop
      vertex -25.993 -10.835 -21.5594
      vertex -25.375 -5.835 -21.0029
      vertex -25.375 -10.835 -21.0029
    endloop
  endfacet
  facet normal 0.66913 0 -0.743145
    outer loop
      vertex -25.375 -5.835 -21.0029
      vertex -25.993 -10.835 -21.5594
      vertex -25.993 -5.835 -21.5594
    endloop
  endfacet
  facet normal 0.913546 0 -0.406736
    outer loop
      vertex -25.993 -10.835 -21.5594
      vertex -26.3313 -5.835 -22.3192
      vertex -25.993 -5.835 -21.5594
    endloop
  endfacet
  facet normal 0.913546 0 -0.406736
    outer loop
      vertex -26.3313 -5.835 -22.3192
      vertex -25.993 -10.835 -21.5594
      vertex -26.3313 -10.835 -22.3192
    endloop
  endfacet
  facet normal -0.978148 0 0.207911
    outer loop
      vertex 26.2021 -10.835 -13.5485
      vertex 26.375 -5.835 -12.735
      vertex 26.2021 -5.835 -13.5485
    endloop
  endfacet
  facet normal -0.978148 0 0.207911
    outer loop
      vertex 26.375 -5.835 -12.735
      vertex 26.2021 -10.835 -13.5485
      vertex 26.375 -10.835 -12.735
    endloop
  endfacet
  facet normal -0.104529 0 -0.994522
    outer loop
      vertex 24.1659 -10.835 -10.746
      vertex 24.993 -5.835 -10.8329
      vertex 24.993 -10.835 -10.8329
    endloop
  endfacet
  facet normal -0.104529 0 -0.994522
    outer loop
      vertex 24.993 -5.835 -10.8329
      vertex 24.1659 -10.835 -10.746
      vertex 24.1659 -5.835 -10.746
    endloop
  endfacet
  facet normal 0.309016 0 0.951057
    outer loop
      vertex 23.375 -5.835 -14.4671
      vertex 24.1659 -10.835 -14.724
      vertex 24.1659 -5.835 -14.724
    endloop
  endfacet
  facet normal 0.309016 0 0.951057
    outer loop
      vertex 24.1659 -10.835 -14.724
      vertex 23.375 -5.835 -14.4671
      vertex 23.375 -10.835 -14.4671
    endloop
  endfacet
  facet normal 0 -1 0
    outer loop
      vertex 23.375 -5.835 -11.0029
      vertex 24.993 -5.835 -10.8329
      vertex 24.1659 -5.835 -10.746
    endloop
  endfacet
  facet normal 0 -1 0
    outer loop
      vertex 23.375 -5.835 -11.0029
      vertex 25.7133 -5.835 -11.2487
      vertex 24.993 -5.835 -10.8329
    endloop
  endfacet
  facet normal 0 -1 0
    outer loop
      vertex 22.757 -5.835 -11.5594
      vertex 25.7133 -5.835 -11.2487
      vertex 23.375 -5.835 -11.0029
    endloop
  endfacet
  facet normal 0 -1 0
    outer loop
      vertex 22.757 -5.835 -11.5594
      vertex 26.2021 -5.835 -11.9215
      vertex 25.7133 -5.835 -11.2487
    endloop
  endfacet
  facet normal 0 -1 0
    outer loop
      vertex 22.4187 -5.835 -12.3192
      vertex 26.2021 -5.835 -11.9215
      vertex 22.757 -5.835 -11.5594
    endloop
  endfacet
  facet normal 0 -1 0
    outer loop
      vertex 22.4187 -5.835 -12.3192
      vertex 26.375 -5.835 -12.735
      vertex 26.2021 -5.835 -11.9215
    endloop
  endfacet
  facet normal 0 -1 0
    outer loop
      vertex 22.4187 -5.835 -13.1508
      vertex 26.375 -5.835 -12.735
      vertex 22.4187 -5.835 -12.3192
    endloop
  endfacet
  facet normal 0 -1 0
    outer loop
      vertex 22.4187 -5.835 -13.1508
      vertex 26.2021 -5.835 -13.5485
      vertex 26.375 -5.835 -12.735
    endloop
  endfacet
  facet normal 0 -1 0
    outer loop
      vertex 22.757 -5.835 -13.9106
      vertex 26.2021 -5.835 -13.5485
      vertex 22.4187 -5.835 -13.1508
    endloop
  endfacet
  facet normal 0 -1 0
    outer loop
      vertex 22.757 -5.835 -13.9106
      vertex 25.7133 -5.835 -14.2213
      vertex 26.2021 -5.835 -13.5485
    endloop
  endfacet
  facet normal 0 -1 0
    outer loop
      vertex 23.375 -5.835 -14.4671
      vertex 25.7133 -5.835 -14.2213
      vertex 22.757 -5.835 -13.9106
    endloop
  endfacet
  facet normal 0 -1 0
    outer loop
      vertex 23.375 -5.835 -14.4671
      vertex 24.993 -5.835 -14.6371
      vertex 25.7133 -5.835 -14.2213
    endloop
  endfacet
  facet normal -0 -1 0
    outer loop
      vertex 24.993 -5.835 -14.6371
      vertex 23.375 -5.835 -14.4671
      vertex 24.1659 -5.835 -14.724
    endloop
  endfacet
  facet normal -0.5 0 0.866025
    outer loop
      vertex 24.993 -5.835 -14.6371
      vertex 25.7133 -10.835 -14.2213
      vertex 25.7133 -5.835 -14.2213
    endloop
  endfacet
  facet normal -0.5 0 0.866025
    outer loop
      vertex 25.7133 -10.835 -14.2213
      vertex 24.993 -5.835 -14.6371
      vertex 24.993 -10.835 -14.6371
    endloop
  endfacet
  facet normal -0.809017 0 0.587785
    outer loop
      vertex 25.7133 -10.835 -14.2213
      vertex 26.2021 -5.835 -13.5485
      vertex 25.7133 -5.835 -14.2213
    endloop
  endfacet
  facet normal -0.809017 0 0.587785
    outer loop
      vertex 26.2021 -5.835 -13.5485
      vertex 25.7133 -10.835 -14.2213
      vertex 26.2021 -10.835 -13.5485
    endloop
  endfacet
  facet normal -0.104528 0 0.994522
    outer loop
      vertex 24.1659 -5.835 -14.724
      vertex 24.993 -10.835 -14.6371
      vertex 24.993 -5.835 -14.6371
    endloop
  endfacet
  facet normal -0.104528 0 0.994522
    outer loop
      vertex 24.993 -10.835 -14.6371
      vertex 24.1659 -5.835 -14.724
      vertex 24.1659 -10.835 -14.724
    endloop
  endfacet
  facet normal 0.913546 -0 0.406736
    outer loop
      vertex 22.4187 -10.835 -13.1508
      vertex 22.757 -5.835 -13.9106
      vertex 22.4187 -5.835 -13.1508
    endloop
  endfacet
  facet normal 0.913546 0 0.406736
    outer loop
      vertex 22.757 -5.835 -13.9106
      vertex 22.4187 -10.835 -13.1508
      vertex 22.757 -10.835 -13.9106
    endloop
  endfacet
  facet normal 1 -0 0
    outer loop
      vertex 22.4187 -10.835 -12.3192
      vertex 22.4187 -5.835 -13.1508
      vertex 22.4187 -5.835 -12.3192
    endloop
  endfacet
  facet normal 1 0 0
    outer loop
      vertex 22.4187 -5.835 -13.1508
      vertex 22.4187 -10.835 -12.3192
      vertex 22.4187 -10.835 -13.1508
    endloop
  endfacet
  facet normal 0.66913 0 0.743145
    outer loop
      vertex 22.757 -5.835 -13.9106
      vertex 23.375 -10.835 -14.4671
      vertex 23.375 -5.835 -14.4671
    endloop
  endfacet
  facet normal 0.66913 0 0.743145
    outer loop
      vertex 23.375 -10.835 -14.4671
      vertex 22.757 -5.835 -13.9106
      vertex 22.757 -10.835 -13.9106
    endloop
  endfacet
  facet normal -0.978148 0 -0.207911
    outer loop
      vertex 26.375 -10.835 -12.735
      vertex 26.2021 -5.835 -11.9215
      vertex 26.375 -5.835 -12.735
    endloop
  endfacet
  facet normal -0.978148 -0 -0.207911
    outer loop
      vertex 26.2021 -5.835 -11.9215
      vertex 26.375 -10.835 -12.735
      vertex 26.2021 -10.835 -11.9215
    endloop
  endfacet
  facet normal 0.309017 0 -0.951056
    outer loop
      vertex 23.375 -10.835 -11.0029
      vertex 24.1659 -5.835 -10.746
      vertex 24.1659 -10.835 -10.746
    endloop
  endfacet
  facet normal 0.309017 0 -0.951056
    outer loop
      vertex 24.1659 -5.835 -10.746
      vertex 23.375 -10.835 -11.0029
      vertex 23.375 -5.835 -11.0029
    endloop
  endfacet
  facet normal 0.66913 0 -0.743145
    outer loop
      vertex 22.757 -10.835 -11.5594
      vertex 23.375 -5.835 -11.0029
      vertex 23.375 -10.835 -11.0029
    endloop
  endfacet
  facet normal 0.66913 0 -0.743145
    outer loop
      vertex 23.375 -5.835 -11.0029
      vertex 22.757 -10.835 -11.5594
      vertex 22.757 -5.835 -11.5594
    endloop
  endfacet
  facet normal 0.913546 0 -0.406736
    outer loop
      vertex 22.757 -10.835 -11.5594
      vertex 22.4187 -5.835 -12.3192
      vertex 22.757 -5.835 -11.5594
    endloop
  endfacet
  facet normal 0.913546 0 -0.406736
    outer loop
      vertex 22.4187 -5.835 -12.3192
      vertex 22.757 -10.835 -11.5594
      vertex 22.4187 -10.835 -12.3192
    endloop
  endfacet
  facet normal -0.809016 0 -0.587786
    outer loop
      vertex 26.2021 -10.835 -11.9215
      vertex 25.7133 -5.835 -11.2487
      vertex 26.2021 -5.835 -11.9215
    endloop
  endfacet
  facet normal -0.809016 -0 -0.587786
    outer loop
      vertex 25.7133 -5.835 -11.2487
      vertex 26.2021 -10.835 -11.9215
      vertex 25.7133 -10.835 -11.2487
    endloop
  endfacet
  facet normal -0.5 0 -0.866025
    outer loop
      vertex 24.993 -10.835 -10.8329
      vertex 25.7133 -5.835 -11.2487
      vertex 25.7133 -10.835 -11.2487
    endloop
  endfacet
  facet normal -0.5 0 -0.866025
    outer loop
      vertex 25.7133 -5.835 -11.2487
      vertex 24.993 -10.835 -10.8329
      vertex 24.993 -5.835 -10.8329
    endloop
  endfacet
  facet normal -0.978148 0 0.207911
    outer loop
      vertex -22.5479 -10.835 -13.5485
      vertex -22.375 -5.835 -12.735
      vertex -22.5479 -5.835 -13.5485
    endloop
  endfacet
  facet normal -0.978148 0 0.207911
    outer loop
      vertex -22.375 -5.835 -12.735
      vertex -22.5479 -10.835 -13.5485
      vertex -22.375 -10.835 -12.735
    endloop
  endfacet
  facet normal 0.309016 0 0.951057
    outer loop
      vertex -25.375 -5.835 -14.4671
      vertex -24.5841 -10.835 -14.724
      vertex -24.5841 -5.835 -14.724
    endloop
  endfacet
  facet normal 0.309016 0 0.951057
    outer loop
      vertex -24.5841 -10.835 -14.724
      vertex -25.375 -5.835 -14.4671
      vertex -25.375 -10.835 -14.4671
    endloop
  endfacet
  facet normal -0.104529 0 -0.994522
    outer loop
      vertex -24.5841 -10.835 -10.746
      vertex -23.757 -5.835 -10.8329
      vertex -23.757 -10.835 -10.8329
    endloop
  endfacet
  facet normal -0.104529 0 -0.994522
    outer loop
      vertex -23.757 -5.835 -10.8329
      vertex -24.5841 -10.835 -10.746
      vertex -24.5841 -5.835 -10.746
    endloop
  endfacet
  facet normal -0.5 0 -0.866025
    outer loop
      vertex -23.757 -10.835 -10.8329
      vertex -23.0367 -5.835 -11.2487
      vertex -23.0367 -10.835 -11.2487
    endloop
  endfacet
  facet normal -0.5 0 -0.866025
    outer loop
      vertex -23.0367 -5.835 -11.2487
      vertex -23.757 -10.835 -10.8329
      vertex -23.757 -5.835 -10.8329
    endloop
  endfacet
  facet normal -0.5 0 0.866025
    outer loop
      vertex -23.757 -5.835 -14.6371
      vertex -23.0367 -10.835 -14.2213
      vertex -23.0367 -5.835 -14.2213
    endloop
  endfacet
  facet normal -0.5 0 0.866025
    outer loop
      vertex -23.0367 -10.835 -14.2213
      vertex -23.757 -5.835 -14.6371
      vertex -23.757 -10.835 -14.6371
    endloop
  endfacet
  facet normal -0.809017 0 0.587785
    outer loop
      vertex -23.0367 -10.835 -14.2213
      vertex -22.5479 -5.835 -13.5485
      vertex -23.0367 -5.835 -14.2213
    endloop
  endfacet
  facet normal -0.809017 0 0.587785
    outer loop
      vertex -22.5479 -5.835 -13.5485
      vertex -23.0367 -10.835 -14.2213
      vertex -22.5479 -10.835 -13.5485
    endloop
  endfacet
  facet normal -0.104528 0 0.994522
    outer loop
      vertex -24.5841 -5.835 -14.724
      vertex -23.757 -10.835 -14.6371
      vertex -23.757 -5.835 -14.6371
    endloop
  endfacet
  facet normal -0.104528 0 0.994522
    outer loop
      vertex -23.757 -10.835 -14.6371
      vertex -24.5841 -5.835 -14.724
      vertex -24.5841 -10.835 -14.724
    endloop
  endfacet
  facet normal 0.913546 -0 0.406736
    outer loop
      vertex -26.3313 -10.835 -13.1508
      vertex -25.993 -5.835 -13.9106
      vertex -26.3313 -5.835 -13.1508
    endloop
  endfacet
  facet normal 0.913546 0 0.406736
    outer loop
      vertex -25.993 -5.835 -13.9106
      vertex -26.3313 -10.835 -13.1508
      vertex -25.993 -10.835 -13.9106
    endloop
  endfacet
  facet normal 1 -0 0
    outer loop
      vertex -26.3313 -10.835 -12.3192
      vertex -26.3313 -5.835 -13.1508
      vertex -26.3313 -5.835 -12.3192
    endloop
  endfacet
  facet normal 1 0 0
    outer loop
      vertex -26.3313 -5.835 -13.1508
      vertex -26.3313 -10.835 -12.3192
      vertex -26.3313 -10.835 -13.1508
    endloop
  endfacet
  facet normal 0.66913 0 0.743145
    outer loop
      vertex -25.993 -5.835 -13.9106
      vertex -25.375 -10.835 -14.4671
      vertex -25.375 -5.835 -14.4671
    endloop
  endfacet
  facet normal 0.66913 0 0.743145
    outer loop
      vertex -25.375 -10.835 -14.4671
      vertex -25.993 -5.835 -13.9106
      vertex -25.993 -10.835 -13.9106
    endloop
  endfacet
  facet normal -0.978148 0 -0.207911
    outer loop
      vertex -22.375 -10.835 -12.735
      vertex -22.5479 -5.835 -11.9215
      vertex -22.375 -5.835 -12.735
    endloop
  endfacet
  facet normal -0.978148 -0 -0.207911
    outer loop
      vertex -22.5479 -5.835 -11.9215
      vertex -22.375 -10.835 -12.735
      vertex -22.5479 -10.835 -11.9215
    endloop
  endfacet
  facet normal 0 -1 0
    outer loop
      vertex -25.375 -5.835 -11.0029
      vertex -23.757 -5.835 -10.8329
      vertex -24.5841 -5.835 -10.746
    endloop
  endfacet
  facet normal 0 -1 0
    outer loop
      vertex -25.375 -5.835 -11.0029
      vertex -23.0367 -5.835 -11.2487
      vertex -23.757 -5.835 -10.8329
    endloop
  endfacet
  facet normal 0 -1 0
    outer loop
      vertex -25.993 -5.835 -11.5594
      vertex -23.0367 -5.835 -11.2487
      vertex -25.375 -5.835 -11.0029
    endloop
  endfacet
  facet normal 0 -1 0
    outer loop
      vertex -25.993 -5.835 -11.5594
      vertex -22.5479 -5.835 -11.9215
      vertex -23.0367 -5.835 -11.2487
    endloop
  endfacet
  facet normal 0 -1 0
    outer loop
      vertex -26.3313 -5.835 -12.3192
      vertex -22.5479 -5.835 -11.9215
      vertex -25.993 -5.835 -11.5594
    endloop
  endfacet
  facet normal 0 -1 0
    outer loop
      vertex -26.3313 -5.835 -12.3192
      vertex -22.375 -5.835 -12.735
      vertex -22.5479 -5.835 -11.9215
    endloop
  endfacet
  facet normal 0 -1 0
    outer loop
      vertex -26.3313 -5.835 -13.1508
      vertex -22.375 -5.835 -12.735
      vertex -26.3313 -5.835 -12.3192
    endloop
  endfacet
  facet normal 0 -1 0
    outer loop
      vertex -26.3313 -5.835 -13.1508
      vertex -22.5479 -5.835 -13.5485
      vertex -22.375 -5.835 -12.735
    endloop
  endfacet
  facet normal 0 -1 0
    outer loop
      vertex -25.993 -5.835 -13.9106
      vertex -22.5479 -5.835 -13.5485
      vertex -26.3313 -5.835 -13.1508
    endloop
  endfacet
  facet normal 0 -1 0
    outer loop
      vertex -25.993 -5.835 -13.9106
      vertex -23.0367 -5.835 -14.2213
      vertex -22.5479 -5.835 -13.5485
    endloop
  endfacet
  facet normal 0 -1 0
    outer loop
      vertex -25.375 -5.835 -14.4671
      vertex -23.0367 -5.835 -14.2213
      vertex -25.993 -5.835 -13.9106
    endloop
  endfacet
  facet normal 0 -1 0
    outer loop
      vertex -25.375 -5.835 -14.4671
      vertex -23.757 -5.835 -14.6371
      vertex -23.0367 -5.835 -14.2213
    endloop
  endfacet
  facet normal -0 -1 0
    outer loop
      vertex -23.757 -5.835 -14.6371
      vertex -25.375 -5.835 -14.4671
      vertex -24.5841 -5.835 -14.724
    endloop
  endfacet
  facet normal 0.309017 0 -0.951056
    outer loop
      vertex -25.375 -10.835 -11.0029
      vertex -24.5841 -5.835 -10.746
      vertex -24.5841 -10.835 -10.746
    endloop
  endfacet
  facet normal 0.309017 0 -0.951056
    outer loop
      vertex -24.5841 -5.835 -10.746
      vertex -25.375 -10.835 -11.0029
      vertex -25.375 -5.835 -11.0029
    endloop
  endfacet
  facet normal -0.809016 0 -0.587786
    outer loop
      vertex -22.5479 -10.835 -11.9215
      vertex -23.0367 -5.835 -11.2487
      vertex -22.5479 -5.835 -11.9215
    endloop
  endfacet
  facet normal -0.809016 -0 -0.587786
    outer loop
      vertex -23.0367 -5.835 -11.2487
      vertex -22.5479 -10.835 -11.9215
      vertex -23.0367 -10.835 -11.2487
    endloop
  endfacet
  facet normal 0.66913 0 -0.743145
    outer loop
      vertex -25.993 -10.835 -11.5594
      vertex -25.375 -5.835 -11.0029
      vertex -25.375 -10.835 -11.0029
    endloop
  endfacet
  facet normal 0.66913 0 -0.743145
    outer loop
      vertex -25.375 -5.835 -11.0029
      vertex -25.993 -10.835 -11.5594
      vertex -25.993 -5.835 -11.5594
    endloop
  endfacet
  facet normal 0.913546 0 -0.406736
    outer loop
      vertex -25.993 -10.835 -11.5594
      vertex -26.3313 -5.835 -12.3192
      vertex -25.993 -5.835 -11.5594
    endloop
  endfacet
  facet normal 0.913546 0 -0.406736
    outer loop
      vertex -26.3313 -5.835 -12.3192
      vertex -25.993 -10.835 -11.5594
      vertex -26.3313 -10.835 -12.3192
    endloop
  endfacet
  facet normal 0 1 0
    outer loop
      vertex 27.835 6.665 28.585
      vertex 21.335 6.665 -7.085
      vertex -27.835 6.665 28.585
    endloop
  endfacet
  facet normal 0 1 -0
    outer loop
      vertex 27.835 6.665 -28.585
      vertex 21.335 6.665 -7.085
      vertex 27.835 6.665 28.585
    endloop
  endfacet
  facet normal 0 1 0
    outer loop
      vertex 21.335 6.665 -7.085
      vertex 27.835 6.665 -28.585
      vertex 21.335 6.665 -28.585
    endloop
  endfacet
  facet normal 0 1 -0
    outer loop
      vertex -21.335 6.665 -7.085
      vertex -27.835 6.665 28.585
      vertex 21.335 6.665 -7.085
    endloop
  endfacet
  facet normal 0 1 0
    outer loop
      vertex -27.835 6.665 -28.585
      vertex -21.335 6.665 -7.085
      vertex -21.335 6.665 -28.585
    endloop
  endfacet
  facet normal 0 1 0
    outer loop
      vertex -21.335 6.665 -7.085
      vertex -27.835 6.665 -28.585
      vertex -27.835 6.665 28.585
    endloop
  endfacet
endsolid OpenSCAD_Model
