solid OpenSCAD_Model
  facet normal 0 -1 0
    outer loop
      vertex -6.25 -20 -26.685
      vertex 6.25 -20 26.685
      vertex -6.25 -20 26.685
    endloop
  endfacet
  facet normal 0 -1 -0
    outer loop
      vertex 6.25 -20 26.685
      vertex -6.25 -20 -26.685
      vertex 6.25 -20 -26.685
    endloop
  endfacet
  facet normal 0 0 1
    outer loop
      vertex 6.25 -20 26.685
      vertex 1.90211 -13.882 26.685
      vertex 1.98904 -14.7091 26.685
    endloop
  endfacet
  facet normal 0 0 1
    outer loop
      vertex 6.25 20 26.685
      vertex 1.73205 13.5 26.685
      vertex 1.90211 -13.882 26.685
    endloop
  endfacet
  facet normal 0 0 1
    outer loop
      vertex 1.73205 13.5 26.685
      vertex 1.48629 -13.1617 26.685
      vertex 1.90211 -13.882 26.685
    endloop
  endfacet
  facet normal -0 0 1
    outer loop
      vertex 1.17557 12.882 26.685
      vertex 1.48629 -13.1617 26.685
      vertex 1.73205 13.5 26.685
    endloop
  endfacet
  facet normal 0 0 1
    outer loop
      vertex 1.17557 12.882 26.685
      vertex 0.813473 -12.6729 26.685
      vertex 1.48629 -13.1617 26.685
    endloop
  endfacet
  facet normal -0 0 1
    outer loop
      vertex 0.415823 12.5437 26.685
      vertex 0.813473 -12.6729 26.685
      vertex 1.17557 12.882 26.685
    endloop
  endfacet
  facet normal 0 0 1
    outer loop
      vertex 0.415823 12.5437 26.685
      vertex -2.77556e-015 -12.5 26.685
      vertex 0.813473 -12.6729 26.685
    endloop
  endfacet
  facet normal -0 0 1
    outer loop
      vertex -0.415823 12.5437 26.685
      vertex -2.77556e-015 -12.5 26.685
      vertex 0.415823 12.5437 26.685
    endloop
  endfacet
  facet normal 0 0 1
    outer loop
      vertex -0.415823 12.5437 26.685
      vertex -0.813473 -12.6729 26.685
      vertex -2.77556e-015 -12.5 26.685
    endloop
  endfacet
  facet normal 0 0 1
    outer loop
      vertex -1.17557 12.882 26.685
      vertex -0.813473 -12.6729 26.685
      vertex -0.415823 12.5437 26.685
    endloop
  endfacet
  facet normal 0 0 1
    outer loop
      vertex -1.17557 12.882 26.685
      vertex -1.48629 -13.1617 26.685
      vertex -0.813473 -12.6729 26.685
    endloop
  endfacet
  facet normal 0 0 1
    outer loop
      vertex -1.73205 13.5 26.685
      vertex -1.48629 -13.1617 26.685
      vertex -1.17557 12.882 26.685
    endloop
  endfacet
  facet normal 0 0 1
    outer loop
      vertex -1.73205 13.5 26.685
      vertex -1.90211 -13.882 26.685
      vertex -1.48629 -13.1617 26.685
    endloop
  endfacet
  facet normal 0 0 1
    outer loop
      vertex -6.25 20 26.685
      vertex -1.73205 13.5 26.685
      vertex -1.98904 14.2909 26.685
    endloop
  endfacet
  facet normal 0 0 1
    outer loop
      vertex -1.73205 13.5 26.685
      vertex -6.25 20 26.685
      vertex -1.90211 -13.882 26.685
    endloop
  endfacet
  facet normal 0 0 1
    outer loop
      vertex 1.73205 13.5 26.685
      vertex 6.25 20 26.685
      vertex 1.98904 14.2909 26.685
    endloop
  endfacet
  facet normal 0 0 1
    outer loop
      vertex 6.25 20 26.685
      vertex 1.90211 15.118 26.685
      vertex 1.98904 14.2909 26.685
    endloop
  endfacet
  facet normal 0 0 1
    outer loop
      vertex 6.25 20 26.685
      vertex 1.48629 15.8383 26.685
      vertex 1.90211 15.118 26.685
    endloop
  endfacet
  facet normal 0 0 1
    outer loop
      vertex 6.25 20 26.685
      vertex 0.813473 16.3271 26.685
      vertex 1.48629 15.8383 26.685
    endloop
  endfacet
  facet normal 0 0 1
    outer loop
      vertex 6.25 20 26.685
      vertex 3.66374e-015 16.5 26.685
      vertex 0.813473 16.3271 26.685
    endloop
  endfacet
  facet normal -0 0 1
    outer loop
      vertex -6.25 20 26.685
      vertex 3.66374e-015 16.5 26.685
      vertex 6.25 20 26.685
    endloop
  endfacet
  facet normal 0 0 1
    outer loop
      vertex -1.90211 -13.882 26.685
      vertex -6.25 20 26.685
      vertex -6.25 -20 26.685
    endloop
  endfacet
  facet normal 0 0 1
    outer loop
      vertex -1.90211 15.118 26.685
      vertex -6.25 20 26.685
      vertex -1.98904 14.2909 26.685
    endloop
  endfacet
  facet normal 0 0 1
    outer loop
      vertex -1.48629 15.8383 26.685
      vertex -6.25 20 26.685
      vertex -1.90211 15.118 26.685
    endloop
  endfacet
  facet normal 0 0 1
    outer loop
      vertex -0.813473 16.3271 26.685
      vertex -6.25 20 26.685
      vertex -1.48629 15.8383 26.685
    endloop
  endfacet
  facet normal 0 0 1
    outer loop
      vertex 3.66374e-015 16.5 26.685
      vertex -6.25 20 26.685
      vertex -0.813473 16.3271 26.685
    endloop
  endfacet
  facet normal 0 0 1
    outer loop
      vertex 6.25 20 26.685
      vertex 1.90211 -13.882 26.685
      vertex 6.25 -20 26.685
    endloop
  endfacet
  facet normal -0 0 1
    outer loop
      vertex 1.73205 -15.5 26.685
      vertex 6.25 -20 26.685
      vertex 1.98904 -14.7091 26.685
    endloop
  endfacet
  facet normal -0 0 1
    outer loop
      vertex 1.17557 -16.118 26.685
      vertex 6.25 -20 26.685
      vertex 1.73205 -15.5 26.685
    endloop
  endfacet
  facet normal -0 0 1
    outer loop
      vertex 0.415823 -16.4563 26.685
      vertex 6.25 -20 26.685
      vertex 1.17557 -16.118 26.685
    endloop
  endfacet
  facet normal -0 0 1
    outer loop
      vertex -0.415823 -16.4563 26.685
      vertex 6.25 -20 26.685
      vertex 0.415823 -16.4563 26.685
    endloop
  endfacet
  facet normal 0 0 1
    outer loop
      vertex -6.25 -20 26.685
      vertex -0.415823 -16.4563 26.685
      vertex -1.17557 -16.118 26.685
    endloop
  endfacet
  facet normal 0 0 1
    outer loop
      vertex -0.415823 -16.4563 26.685
      vertex -6.25 -20 26.685
      vertex 6.25 -20 26.685
    endloop
  endfacet
  facet normal 0 0 1
    outer loop
      vertex -1.73205 -15.5 26.685
      vertex -6.25 -20 26.685
      vertex -1.17557 -16.118 26.685
    endloop
  endfacet
  facet normal 0 0 1
    outer loop
      vertex -1.98904 -14.7091 26.685
      vertex -6.25 -20 26.685
      vertex -1.73205 -15.5 26.685
    endloop
  endfacet
  facet normal 0 0 1
    outer loop
      vertex -1.90211 -13.882 26.685
      vertex -6.25 -20 26.685
      vertex -1.98904 -14.7091 26.685
    endloop
  endfacet
  facet normal 0 1 -0
    outer loop
      vertex 6.25 20 -26.685
      vertex -6.25 20 26.685
      vertex 6.25 20 26.685
    endloop
  endfacet
  facet normal 0 1 0
    outer loop
      vertex -6.25 20 26.685
      vertex 6.25 20 -26.685
      vertex -6.25 20 -26.685
    endloop
  endfacet
  facet normal 0 0 -1
    outer loop
      vertex -6.25 -20 -26.685
      vertex 6.25 20 -26.685
      vertex 6.25 -20 -26.685
    endloop
  endfacet
  facet normal -0 0 -1
    outer loop
      vertex 6.25 20 -26.685
      vertex -6.25 -20 -26.685
      vertex -6.25 20 -26.685
    endloop
  endfacet
  facet normal 1 -0 0
    outer loop
      vertex 6.25 -20 26.685
      vertex 6.25 20 -26.685
      vertex 6.25 20 26.685
    endloop
  endfacet
  facet normal 1 0 0
    outer loop
      vertex 6.25 20 -26.685
      vertex 6.25 -20 26.685
      vertex 6.25 -20 -26.685
    endloop
  endfacet
  facet normal -1 0 0
    outer loop
      vertex -6.25 -20 -26.685
      vertex -6.25 20 26.685
      vertex -6.25 20 -26.685
    endloop
  endfacet
  facet normal -1 -0 0
    outer loop
      vertex -6.25 20 26.685
      vertex -6.25 -20 -26.685
      vertex -6.25 -20 26.685
    endloop
  endfacet
  facet normal -0.207914 -0.978147 0
    outer loop
      vertex 3.66374e-015 16.5 21.695
      vertex 0.813473 16.3271 26.685
      vertex 3.66374e-015 16.5 26.685
    endloop
  endfacet
  facet normal -0.207914 -0.978147 -0
    outer loop
      vertex 0.813473 16.3271 26.685
      vertex 3.66374e-015 16.5 21.695
      vertex 0.813473 16.3271 21.695
    endloop
  endfacet
  facet normal -0.587784 -0.809018 0
    outer loop
      vertex 0.813473 16.3271 21.695
      vertex 1.48629 15.8383 26.685
      vertex 0.813473 16.3271 26.685
    endloop
  endfacet
  facet normal -0.587784 -0.809018 -0
    outer loop
      vertex 1.48629 15.8383 26.685
      vertex 0.813473 16.3271 21.695
      vertex 1.48629 15.8383 21.695
    endloop
  endfacet
  facet normal -0.994522 -0.104528 0
    outer loop
      vertex 1.98904 14.2909 21.695
      vertex 1.90211 15.118 26.685
      vertex 1.90211 15.118 21.695
    endloop
  endfacet
  facet normal -0.994522 -0.104528 0
    outer loop
      vertex 1.90211 15.118 26.685
      vertex 1.98904 14.2909 21.695
      vertex 1.98904 14.2909 26.685
    endloop
  endfacet
  facet normal 0.866025 -0.5 0
    outer loop
      vertex -1.90211 15.118 26.685
      vertex -1.48629 15.8383 21.695
      vertex -1.48629 15.8383 26.685
    endloop
  endfacet
  facet normal 0.866025 -0.5 0
    outer loop
      vertex -1.48629 15.8383 21.695
      vertex -1.90211 15.118 26.685
      vertex -1.90211 15.118 21.695
    endloop
  endfacet
  facet normal -0.866025 -0.5 0
    outer loop
      vertex 1.90211 15.118 21.695
      vertex 1.48629 15.8383 26.685
      vertex 1.48629 15.8383 21.695
    endloop
  endfacet
  facet normal -0.866025 -0.5 0
    outer loop
      vertex 1.48629 15.8383 26.685
      vertex 1.90211 15.118 21.695
      vertex 1.90211 15.118 26.685
    endloop
  endfacet
  facet normal -0.743146 0.66913 0
    outer loop
      vertex 1.17557 12.882 21.695
      vertex 1.73205 13.5 26.685
      vertex 1.73205 13.5 21.695
    endloop
  endfacet
  facet normal -0.743146 0.66913 0
    outer loop
      vertex 1.73205 13.5 26.685
      vertex 1.17557 12.882 21.695
      vertex 1.17557 12.882 26.685
    endloop
  endfacet
  facet normal 0 0 1
    outer loop
      vertex 1.90211 15.118 21.695
      vertex 1.73205 13.5 21.695
      vertex 1.98904 14.2909 21.695
    endloop
  endfacet
  facet normal 0 0 1
    outer loop
      vertex 1.48629 15.8383 21.695
      vertex 1.73205 13.5 21.695
      vertex 1.90211 15.118 21.695
    endloop
  endfacet
  facet normal 0 0 1
    outer loop
      vertex 1.48629 15.8383 21.695
      vertex 1.17557 12.882 21.695
      vertex 1.73205 13.5 21.695
    endloop
  endfacet
  facet normal 0 0 1
    outer loop
      vertex 0.813473 16.3271 21.695
      vertex 1.17557 12.882 21.695
      vertex 1.48629 15.8383 21.695
    endloop
  endfacet
  facet normal 0 0 1
    outer loop
      vertex 0.813473 16.3271 21.695
      vertex 0.415823 12.5437 21.695
      vertex 1.17557 12.882 21.695
    endloop
  endfacet
  facet normal 0 0 1
    outer loop
      vertex 3.66374e-015 16.5 21.695
      vertex 0.415823 12.5437 21.695
      vertex 0.813473 16.3271 21.695
    endloop
  endfacet
  facet normal 0 0 1
    outer loop
      vertex 3.66374e-015 16.5 21.695
      vertex -0.415823 12.5437 21.695
      vertex 0.415823 12.5437 21.695
    endloop
  endfacet
  facet normal -0 0 1
    outer loop
      vertex -0.813473 16.3271 21.695
      vertex -0.415823 12.5437 21.695
      vertex 3.66374e-015 16.5 21.695
    endloop
  endfacet
  facet normal 0 0 1
    outer loop
      vertex -0.813473 16.3271 21.695
      vertex -1.17557 12.882 21.695
      vertex -0.415823 12.5437 21.695
    endloop
  endfacet
  facet normal -0 0 1
    outer loop
      vertex -1.48629 15.8383 21.695
      vertex -1.17557 12.882 21.695
      vertex -0.813473 16.3271 21.695
    endloop
  endfacet
  facet normal 0 0 1
    outer loop
      vertex -1.48629 15.8383 21.695
      vertex -1.73205 13.5 21.695
      vertex -1.17557 12.882 21.695
    endloop
  endfacet
  facet normal -0 0 1
    outer loop
      vertex -1.90211 15.118 21.695
      vertex -1.73205 13.5 21.695
      vertex -1.48629 15.8383 21.695
    endloop
  endfacet
  facet normal 0 0 1
    outer loop
      vertex -1.73205 13.5 21.695
      vertex -1.90211 15.118 21.695
      vertex -1.98904 14.2909 21.695
    endloop
  endfacet
  facet normal -0.951056 0.309018 0
    outer loop
      vertex 1.73205 13.5 21.695
      vertex 1.98904 14.2909 26.685
      vertex 1.98904 14.2909 21.695
    endloop
  endfacet
  facet normal -0.951056 0.309018 0
    outer loop
      vertex 1.98904 14.2909 26.685
      vertex 1.73205 13.5 21.695
      vertex 1.73205 13.5 26.685
    endloop
  endfacet
  facet normal 0.406737 0.913545 -0
    outer loop
      vertex -0.415823 12.5437 21.695
      vertex -1.17557 12.882 26.685
      vertex -0.415823 12.5437 26.685
    endloop
  endfacet
  facet normal 0.406737 0.913545 0
    outer loop
      vertex -1.17557 12.882 26.685
      vertex -0.415823 12.5437 21.695
      vertex -1.17557 12.882 21.695
    endloop
  endfacet
  facet normal -0.406737 0.913545 0
    outer loop
      vertex 1.17557 12.882 21.695
      vertex 0.415823 12.5437 26.685
      vertex 1.17557 12.882 26.685
    endloop
  endfacet
  facet normal -0.406737 0.913545 0
    outer loop
      vertex 0.415823 12.5437 26.685
      vertex 1.17557 12.882 21.695
      vertex 0.415823 12.5437 21.695
    endloop
  endfacet
  facet normal 0 1 -0
    outer loop
      vertex 0.415823 12.5437 21.695
      vertex -0.415823 12.5437 26.685
      vertex 0.415823 12.5437 26.685
    endloop
  endfacet
  facet normal 0 1 0
    outer loop
      vertex -0.415823 12.5437 26.685
      vertex 0.415823 12.5437 21.695
      vertex -0.415823 12.5437 21.695
    endloop
  endfacet
  facet normal 0.587786 -0.809016 0
    outer loop
      vertex -1.48629 15.8383 21.695
      vertex -0.813473 16.3271 26.685
      vertex -1.48629 15.8383 26.685
    endloop
  endfacet
  facet normal 0.587786 -0.809016 0
    outer loop
      vertex -0.813473 16.3271 26.685
      vertex -1.48629 15.8383 21.695
      vertex -0.813473 16.3271 21.695
    endloop
  endfacet
  facet normal 0.207911 -0.978148 0
    outer loop
      vertex -0.813473 16.3271 21.695
      vertex 3.66374e-015 16.5 26.685
      vertex -0.813473 16.3271 26.685
    endloop
  endfacet
  facet normal 0.207911 -0.978148 0
    outer loop
      vertex 3.66374e-015 16.5 26.685
      vertex -0.813473 16.3271 21.695
      vertex 3.66374e-015 16.5 21.695
    endloop
  endfacet
  facet normal 0.951056 0.309018 0
    outer loop
      vertex -1.73205 13.5 26.685
      vertex -1.98904 14.2909 21.695
      vertex -1.98904 14.2909 26.685
    endloop
  endfacet
  facet normal 0.951056 0.309018 0
    outer loop
      vertex -1.98904 14.2909 21.695
      vertex -1.73205 13.5 26.685
      vertex -1.73205 13.5 21.695
    endloop
  endfacet
  facet normal 0.994522 -0.104528 0
    outer loop
      vertex -1.98904 14.2909 26.685
      vertex -1.90211 15.118 21.695
      vertex -1.90211 15.118 26.685
    endloop
  endfacet
  facet normal 0.994522 -0.104528 0
    outer loop
      vertex -1.90211 15.118 21.695
      vertex -1.98904 14.2909 26.685
      vertex -1.98904 14.2909 21.695
    endloop
  endfacet
  facet normal 0.743146 0.66913 0
    outer loop
      vertex -1.17557 12.882 26.685
      vertex -1.73205 13.5 21.695
      vertex -1.73205 13.5 26.685
    endloop
  endfacet
  facet normal 0.743146 0.66913 0
    outer loop
      vertex -1.73205 13.5 21.695
      vertex -1.17557 12.882 26.685
      vertex -1.17557 12.882 21.695
    endloop
  endfacet
  facet normal -0.207911 -0.978148 0
    outer loop
      vertex -2.77556e-015 -12.5 21.695
      vertex 0.813473 -12.6729 26.685
      vertex -2.77556e-015 -12.5 26.685
    endloop
  endfacet
  facet normal -0.207911 -0.978148 -0
    outer loop
      vertex 0.813473 -12.6729 26.685
      vertex -2.77556e-015 -12.5 21.695
      vertex 0.813473 -12.6729 21.695
    endloop
  endfacet
  facet normal -0.587785 -0.809017 0
    outer loop
      vertex 0.813473 -12.6729 21.695
      vertex 1.48629 -13.1617 26.685
      vertex 0.813473 -12.6729 26.685
    endloop
  endfacet
  facet normal -0.587785 -0.809017 -0
    outer loop
      vertex 1.48629 -13.1617 26.685
      vertex 0.813473 -12.6729 21.695
      vertex 1.48629 -13.1617 21.695
    endloop
  endfacet
  facet normal -0.994522 -0.104528 0
    outer loop
      vertex 1.98904 -14.7091 21.695
      vertex 1.90211 -13.882 26.685
      vertex 1.90211 -13.882 21.695
    endloop
  endfacet
  facet normal -0.994522 -0.104528 0
    outer loop
      vertex 1.90211 -13.882 26.685
      vertex 1.98904 -14.7091 21.695
      vertex 1.98904 -14.7091 26.685
    endloop
  endfacet
  facet normal -0.866025 -0.5 0
    outer loop
      vertex 1.90211 -13.882 21.695
      vertex 1.48629 -13.1617 26.685
      vertex 1.48629 -13.1617 21.695
    endloop
  endfacet
  facet normal -0.866025 -0.5 0
    outer loop
      vertex 1.48629 -13.1617 26.685
      vertex 1.90211 -13.882 21.695
      vertex 1.90211 -13.882 26.685
    endloop
  endfacet
  facet normal -0.743146 0.66913 0
    outer loop
      vertex 1.17557 -16.118 21.695
      vertex 1.73205 -15.5 26.685
      vertex 1.73205 -15.5 21.695
    endloop
  endfacet
  facet normal -0.743146 0.66913 0
    outer loop
      vertex 1.73205 -15.5 26.685
      vertex 1.17557 -16.118 21.695
      vertex 1.17557 -16.118 26.685
    endloop
  endfacet
  facet normal 0 0 1
    outer loop
      vertex 1.90211 -13.882 21.695
      vertex 1.73205 -15.5 21.695
      vertex 1.98904 -14.7091 21.695
    endloop
  endfacet
  facet normal 0 0 1
    outer loop
      vertex 1.48629 -13.1617 21.695
      vertex 1.73205 -15.5 21.695
      vertex 1.90211 -13.882 21.695
    endloop
  endfacet
  facet normal 0 0 1
    outer loop
      vertex 1.48629 -13.1617 21.695
      vertex 1.17557 -16.118 21.695
      vertex 1.73205 -15.5 21.695
    endloop
  endfacet
  facet normal 0 0 1
    outer loop
      vertex 0.813473 -12.6729 21.695
      vertex 1.17557 -16.118 21.695
      vertex 1.48629 -13.1617 21.695
    endloop
  endfacet
  facet normal 0 0 1
    outer loop
      vertex 0.813473 -12.6729 21.695
      vertex 0.415823 -16.4563 21.695
      vertex 1.17557 -16.118 21.695
    endloop
  endfacet
  facet normal 0 0 1
    outer loop
      vertex -2.77556e-015 -12.5 21.695
      vertex 0.415823 -16.4563 21.695
      vertex 0.813473 -12.6729 21.695
    endloop
  endfacet
  facet normal 0 0 1
    outer loop
      vertex -2.77556e-015 -12.5 21.695
      vertex -0.415823 -16.4563 21.695
      vertex 0.415823 -16.4563 21.695
    endloop
  endfacet
  facet normal -0 0 1
    outer loop
      vertex -0.813473 -12.6729 21.695
      vertex -0.415823 -16.4563 21.695
      vertex -2.77556e-015 -12.5 21.695
    endloop
  endfacet
  facet normal 0 0 1
    outer loop
      vertex -0.813473 -12.6729 21.695
      vertex -1.17557 -16.118 21.695
      vertex -0.415823 -16.4563 21.695
    endloop
  endfacet
  facet normal -0 0 1
    outer loop
      vertex -1.48629 -13.1617 21.695
      vertex -1.17557 -16.118 21.695
      vertex -0.813473 -12.6729 21.695
    endloop
  endfacet
  facet normal 0 0 1
    outer loop
      vertex -1.48629 -13.1617 21.695
      vertex -1.73205 -15.5 21.695
      vertex -1.17557 -16.118 21.695
    endloop
  endfacet
  facet normal -0 0 1
    outer loop
      vertex -1.90211 -13.882 21.695
      vertex -1.73205 -15.5 21.695
      vertex -1.48629 -13.1617 21.695
    endloop
  endfacet
  facet normal 0 0 1
    outer loop
      vertex -1.73205 -15.5 21.695
      vertex -1.90211 -13.882 21.695
      vertex -1.98904 -14.7091 21.695
    endloop
  endfacet
  facet normal -0.951056 0.309017 0
    outer loop
      vertex 1.73205 -15.5 21.695
      vertex 1.98904 -14.7091 26.685
      vertex 1.98904 -14.7091 21.695
    endloop
  endfacet
  facet normal -0.951056 0.309017 0
    outer loop
      vertex 1.98904 -14.7091 26.685
      vertex 1.73205 -15.5 21.695
      vertex 1.73205 -15.5 26.685
    endloop
  endfacet
  facet normal 0.866025 -0.5 0
    outer loop
      vertex -1.90211 -13.882 26.685
      vertex -1.48629 -13.1617 21.695
      vertex -1.48629 -13.1617 26.685
    endloop
  endfacet
  facet normal 0.866025 -0.5 0
    outer loop
      vertex -1.48629 -13.1617 21.695
      vertex -1.90211 -13.882 26.685
      vertex -1.90211 -13.882 21.695
    endloop
  endfacet
  facet normal 0.207911 -0.978148 0
    outer loop
      vertex -0.813473 -12.6729 21.695
      vertex -2.77556e-015 -12.5 26.685
      vertex -0.813473 -12.6729 26.685
    endloop
  endfacet
  facet normal 0.207911 -0.978148 0
    outer loop
      vertex -2.77556e-015 -12.5 26.685
      vertex -0.813473 -12.6729 21.695
      vertex -2.77556e-015 -12.5 21.695
    endloop
  endfacet
  facet normal 0.406738 0.913545 -0
    outer loop
      vertex -0.415823 -16.4563 21.695
      vertex -1.17557 -16.118 26.685
      vertex -0.415823 -16.4563 26.685
    endloop
  endfacet
  facet normal 0.406738 0.913545 0
    outer loop
      vertex -1.17557 -16.118 26.685
      vertex -0.415823 -16.4563 21.695
      vertex -1.17557 -16.118 21.695
    endloop
  endfacet
  facet normal -0.406736 0.913546 0
    outer loop
      vertex 1.17557 -16.118 21.695
      vertex 0.415823 -16.4563 26.685
      vertex 1.17557 -16.118 26.685
    endloop
  endfacet
  facet normal -0.406736 0.913546 0
    outer loop
      vertex 0.415823 -16.4563 26.685
      vertex 1.17557 -16.118 21.695
      vertex 0.415823 -16.4563 21.695
    endloop
  endfacet
  facet normal 0 1 -0
    outer loop
      vertex 0.415823 -16.4563 21.695
      vertex -0.415823 -16.4563 26.685
      vertex 0.415823 -16.4563 26.685
    endloop
  endfacet
  facet normal 0 1 0
    outer loop
      vertex -0.415823 -16.4563 26.685
      vertex 0.415823 -16.4563 21.695
      vertex -0.415823 -16.4563 21.695
    endloop
  endfacet
  facet normal 0.587785 -0.809017 0
    outer loop
      vertex -1.48629 -13.1617 21.695
      vertex -0.813473 -12.6729 26.685
      vertex -1.48629 -13.1617 26.685
    endloop
  endfacet
  facet normal 0.587785 -0.809017 0
    outer loop
      vertex -0.813473 -12.6729 26.685
      vertex -1.48629 -13.1617 21.695
      vertex -0.813473 -12.6729 21.695
    endloop
  endfacet
  facet normal 0.951056 0.309017 0
    outer loop
      vertex -1.73205 -15.5 26.685
      vertex -1.98904 -14.7091 21.695
      vertex -1.98904 -14.7091 26.685
    endloop
  endfacet
  facet normal 0.951056 0.309017 0
    outer loop
      vertex -1.98904 -14.7091 21.695
      vertex -1.73205 -15.5 26.685
      vertex -1.73205 -15.5 21.695
    endloop
  endfacet
  facet normal 0.994522 -0.104528 0
    outer loop
      vertex -1.98904 -14.7091 26.685
      vertex -1.90211 -13.882 21.695
      vertex -1.90211 -13.882 26.685
    endloop
  endfacet
  facet normal 0.994522 -0.104528 0
    outer loop
      vertex -1.90211 -13.882 21.695
      vertex -1.98904 -14.7091 26.685
      vertex -1.98904 -14.7091 21.695
    endloop
  endfacet
  facet normal 0.743145 0.669131 0
    outer loop
      vertex -1.17557 -16.118 26.685
      vertex -1.73205 -15.5 21.695
      vertex -1.73205 -15.5 26.685
    endloop
  endfacet
  facet normal 0.743145 0.669131 0
    outer loop
      vertex -1.73205 -15.5 21.695
      vertex -1.17557 -16.118 26.685
      vertex -1.17557 -16.118 21.695
    endloop
  endfacet
endsolid OpenSCAD_Model
