solid OpenSCAD_Model
  facet normal -1 0 0
    outer loop
      vertex -30 -4.5 -26.75
      vertex -30 4.5 26.75
      vertex -30 4.5 -26.75
    endloop
  endfacet
  facet normal -1 -0 0
    outer loop
      vertex -30 4.5 26.75
      vertex -30 -4.5 -26.75
      vertex -30 -4.5 26.75
    endloop
  endfacet
  facet normal 0 0 1
    outer loop
      vertex 30 4.5 26.75
      vertex 26.5 0 26.75
      vertex 30 -4.5 26.75
    endloop
  endfacet
  facet normal 0 0 1
    outer loop
      vertex 30 4.5 26.75
      vertex 26.3271 0.813473 26.75
      vertex 26.5 0 26.75
    endloop
  endfacet
  facet normal 0 0 1
    outer loop
      vertex 30 4.5 26.75
      vertex 25.8383 1.48629 26.75
      vertex 26.3271 0.813473 26.75
    endloop
  endfacet
  facet normal 0 0 1
    outer loop
      vertex 30 4.5 26.75
      vertex 25.118 1.90211 26.75
      vertex 25.8383 1.48629 26.75
    endloop
  endfacet
  facet normal 0 0 1
    outer loop
      vertex 30 4.5 26.75
      vertex 24.2909 1.98904 26.75
      vertex 25.118 1.90211 26.75
    endloop
  endfacet
  facet normal 0 0 1
    outer loop
      vertex 30 4.5 26.75
      vertex 23.5 1.73205 26.75
      vertex 24.2909 1.98904 26.75
    endloop
  endfacet
  facet normal 0 0 1
    outer loop
      vertex 22.5437 0.415823 26.75
      vertex -22.5 0 26.75
      vertex 22.5437 -0.415823 26.75
    endloop
  endfacet
  facet normal -0 0 1
    outer loop
      vertex -22.6729 0.813473 26.75
      vertex 22.5437 0.415823 26.75
      vertex 22.882 1.17557 26.75
    endloop
  endfacet
  facet normal -0 0 1
    outer loop
      vertex -23.1617 1.48629 26.75
      vertex 22.882 1.17557 26.75
      vertex 23.5 1.73205 26.75
    endloop
  endfacet
  facet normal -0 0 1
    outer loop
      vertex -23.882 1.90211 26.75
      vertex 23.5 1.73205 26.75
      vertex 30 4.5 26.75
    endloop
  endfacet
  facet normal 0 0 1
    outer loop
      vertex 22.5437 0.415823 26.75
      vertex -22.6729 0.813473 26.75
      vertex -22.5 0 26.75
    endloop
  endfacet
  facet normal 0 0 1
    outer loop
      vertex 22.882 1.17557 26.75
      vertex -23.1617 1.48629 26.75
      vertex -22.6729 0.813473 26.75
    endloop
  endfacet
  facet normal 0 0 1
    outer loop
      vertex 23.5 1.73205 26.75
      vertex -23.882 1.90211 26.75
      vertex -23.1617 1.48629 26.75
    endloop
  endfacet
  facet normal -0 0 1
    outer loop
      vertex -30 4.5 26.75
      vertex -23.882 1.90211 26.75
      vertex 30 4.5 26.75
    endloop
  endfacet
  facet normal 0 0 1
    outer loop
      vertex -26.4563 0.415823 26.75
      vertex -30 4.5 26.75
      vertex -26.4563 -0.415823 26.75
    endloop
  endfacet
  facet normal 0 0 1
    outer loop
      vertex -26.118 1.17557 26.75
      vertex -30 4.5 26.75
      vertex -26.4563 0.415823 26.75
    endloop
  endfacet
  facet normal 0 0 1
    outer loop
      vertex -25.5 1.73205 26.75
      vertex -30 4.5 26.75
      vertex -26.118 1.17557 26.75
    endloop
  endfacet
  facet normal 0 0 1
    outer loop
      vertex -24.7091 1.98904 26.75
      vertex -30 4.5 26.75
      vertex -25.5 1.73205 26.75
    endloop
  endfacet
  facet normal 0 0 1
    outer loop
      vertex -23.882 1.90211 26.75
      vertex -30 4.5 26.75
      vertex -24.7091 1.98904 26.75
    endloop
  endfacet
  facet normal -0 0 1
    outer loop
      vertex 26.3271 -0.813473 26.75
      vertex 30 -4.5 26.75
      vertex 26.5 0 26.75
    endloop
  endfacet
  facet normal -0 0 1
    outer loop
      vertex 25.8383 -1.48629 26.75
      vertex 30 -4.5 26.75
      vertex 26.3271 -0.813473 26.75
    endloop
  endfacet
  facet normal -0 0 1
    outer loop
      vertex 25.118 -1.90211 26.75
      vertex 30 -4.5 26.75
      vertex 25.8383 -1.48629 26.75
    endloop
  endfacet
  facet normal -0 0 1
    outer loop
      vertex 24.2909 -1.98904 26.75
      vertex 30 -4.5 26.75
      vertex 25.118 -1.90211 26.75
    endloop
  endfacet
  facet normal 0 0 1
    outer loop
      vertex 23.5 -1.73205 26.75
      vertex 30 -4.5 26.75
      vertex 24.2909 -1.98904 26.75
    endloop
  endfacet
  facet normal 0 0 1
    outer loop
      vertex -22.6729 -0.813473 26.75
      vertex 22.5437 -0.415823 26.75
      vertex -22.5 0 26.75
    endloop
  endfacet
  facet normal 0 0 1
    outer loop
      vertex 22.5437 -0.415823 26.75
      vertex -22.6729 -0.813473 26.75
      vertex 22.882 -1.17557 26.75
    endloop
  endfacet
  facet normal 0 0 1
    outer loop
      vertex -23.1617 -1.48629 26.75
      vertex 22.882 -1.17557 26.75
      vertex -22.6729 -0.813473 26.75
    endloop
  endfacet
  facet normal 0 0 1
    outer loop
      vertex 22.882 -1.17557 26.75
      vertex -23.1617 -1.48629 26.75
      vertex 23.5 -1.73205 26.75
    endloop
  endfacet
  facet normal 0 0 1
    outer loop
      vertex -23.882 -1.90211 26.75
      vertex 23.5 -1.73205 26.75
      vertex -23.1617 -1.48629 26.75
    endloop
  endfacet
  facet normal 0 0 1
    outer loop
      vertex 23.5 -1.73205 26.75
      vertex -23.882 -1.90211 26.75
      vertex 30 -4.5 26.75
    endloop
  endfacet
  facet normal 0 0 1
    outer loop
      vertex -30 -4.5 26.75
      vertex -23.882 -1.90211 26.75
      vertex -24.7091 -1.98904 26.75
    endloop
  endfacet
  facet normal 0 0 1
    outer loop
      vertex -30 -4.5 26.75
      vertex -26.4563 -0.415823 26.75
      vertex -30 4.5 26.75
    endloop
  endfacet
  facet normal 0 0 1
    outer loop
      vertex -23.882 -1.90211 26.75
      vertex -30 -4.5 26.75
      vertex 30 -4.5 26.75
    endloop
  endfacet
  facet normal 0 0 1
    outer loop
      vertex -25.5 -1.73205 26.75
      vertex -30 -4.5 26.75
      vertex -24.7091 -1.98904 26.75
    endloop
  endfacet
  facet normal 0 0 1
    outer loop
      vertex -26.118 -1.17557 26.75
      vertex -30 -4.5 26.75
      vertex -25.5 -1.73205 26.75
    endloop
  endfacet
  facet normal 0 0 1
    outer loop
      vertex -26.4563 -0.415823 26.75
      vertex -30 -4.5 26.75
      vertex -26.118 -1.17557 26.75
    endloop
  endfacet
  facet normal 1 -0 0
    outer loop
      vertex 30 -4.5 26.75
      vertex 30 4.5 -26.75
      vertex 30 4.5 26.75
    endloop
  endfacet
  facet normal 1 0 0
    outer loop
      vertex 30 4.5 -26.75
      vertex 30 -4.5 26.75
      vertex 30 -4.5 -26.75
    endloop
  endfacet
  facet normal 0 1 -0
    outer loop
      vertex 30 4.5 -26.75
      vertex -30 4.5 26.75
      vertex 30 4.5 26.75
    endloop
  endfacet
  facet normal 0 1 0
    outer loop
      vertex -30 4.5 26.75
      vertex 30 4.5 -26.75
      vertex -30 4.5 -26.75
    endloop
  endfacet
  facet normal 0 0 -1
    outer loop
      vertex -30 -4.5 -26.75
      vertex 30 4.5 -26.75
      vertex 30 -4.5 -26.75
    endloop
  endfacet
  facet normal -0 0 -1
    outer loop
      vertex 30 4.5 -26.75
      vertex -30 -4.5 -26.75
      vertex -30 4.5 -26.75
    endloop
  endfacet
  facet normal 0 -1 0
    outer loop
      vertex -30 -4.5 -26.75
      vertex 30 -4.5 26.75
      vertex -30 -4.5 26.75
    endloop
  endfacet
  facet normal 0 -1 -0
    outer loop
      vertex 30 -4.5 26.75
      vertex -30 -4.5 -26.75
      vertex 30 -4.5 -26.75
    endloop
  endfacet
  facet normal -0.978148 0.207911 0
    outer loop
      vertex 26.3271 -0.813473 21.76
      vertex 26.5 0 26.75
      vertex 26.5 0 21.76
    endloop
  endfacet
  facet normal -0.978148 0.207911 0
    outer loop
      vertex 26.5 0 26.75
      vertex 26.3271 -0.813473 21.76
      vertex 26.3271 -0.813473 26.75
    endloop
  endfacet
  facet normal -0.809016 0.587786 0
    outer loop
      vertex 25.8383 -1.48629 21.76
      vertex 26.3271 -0.813473 26.75
      vertex 26.3271 -0.813473 21.76
    endloop
  endfacet
  facet normal -0.809016 0.587786 0
    outer loop
      vertex 26.3271 -0.813473 26.75
      vertex 25.8383 -1.48629 21.76
      vertex 25.8383 -1.48629 26.75
    endloop
  endfacet
  facet normal -0.104528 0.994522 0
    outer loop
      vertex 25.118 -1.90211 21.76
      vertex 24.2909 -1.98904 26.75
      vertex 25.118 -1.90211 26.75
    endloop
  endfacet
  facet normal -0.104528 0.994522 0
    outer loop
      vertex 24.2909 -1.98904 26.75
      vertex 25.118 -1.90211 21.76
      vertex 24.2909 -1.98904 21.76
    endloop
  endfacet
  facet normal -0.500001 -0.866025 0
    outer loop
      vertex 25.118 1.90211 21.76
      vertex 25.8383 1.48629 26.75
      vertex 25.118 1.90211 26.75
    endloop
  endfacet
  facet normal -0.500001 -0.866025 -0
    outer loop
      vertex 25.8383 1.48629 26.75
      vertex 25.118 1.90211 21.76
      vertex 25.8383 1.48629 21.76
    endloop
  endfacet
  facet normal -0.500001 0.866025 0
    outer loop
      vertex 25.8383 -1.48629 21.76
      vertex 25.118 -1.90211 26.75
      vertex 25.8383 -1.48629 26.75
    endloop
  endfacet
  facet normal -0.500001 0.866025 0
    outer loop
      vertex 25.118 -1.90211 26.75
      vertex 25.8383 -1.48629 21.76
      vertex 25.118 -1.90211 21.76
    endloop
  endfacet
  facet normal 0.66913 0.743146 -0
    outer loop
      vertex 23.5 -1.73205 21.76
      vertex 22.882 -1.17557 26.75
      vertex 23.5 -1.73205 26.75
    endloop
  endfacet
  facet normal 0.66913 0.743146 0
    outer loop
      vertex 22.882 -1.17557 26.75
      vertex 23.5 -1.73205 21.76
      vertex 22.882 -1.17557 21.76
    endloop
  endfacet
  facet normal 0 0 1
    outer loop
      vertex 26.3271 0.813473 21.76
      vertex 26.3271 -0.813473 21.76
      vertex 26.5 0 21.76
    endloop
  endfacet
  facet normal 0 0 1
    outer loop
      vertex 25.8383 1.48629 21.76
      vertex 26.3271 -0.813473 21.76
      vertex 26.3271 0.813473 21.76
    endloop
  endfacet
  facet normal 0 0 1
    outer loop
      vertex 25.8383 1.48629 21.76
      vertex 25.8383 -1.48629 21.76
      vertex 26.3271 -0.813473 21.76
    endloop
  endfacet
  facet normal 0 0 1
    outer loop
      vertex 25.118 1.90211 21.76
      vertex 25.8383 -1.48629 21.76
      vertex 25.8383 1.48629 21.76
    endloop
  endfacet
  facet normal 0 0 1
    outer loop
      vertex 25.118 1.90211 21.76
      vertex 25.118 -1.90211 21.76
      vertex 25.8383 -1.48629 21.76
    endloop
  endfacet
  facet normal 0 0 1
    outer loop
      vertex 24.2909 1.98904 21.76
      vertex 25.118 -1.90211 21.76
      vertex 25.118 1.90211 21.76
    endloop
  endfacet
  facet normal 0 0 1
    outer loop
      vertex 24.2909 1.98904 21.76
      vertex 24.2909 -1.98904 21.76
      vertex 25.118 -1.90211 21.76
    endloop
  endfacet
  facet normal -0 0 1
    outer loop
      vertex 23.5 1.73205 21.76
      vertex 24.2909 -1.98904 21.76
      vertex 24.2909 1.98904 21.76
    endloop
  endfacet
  facet normal 0 0 1
    outer loop
      vertex 23.5 1.73205 21.76
      vertex 23.5 -1.73205 21.76
      vertex 24.2909 -1.98904 21.76
    endloop
  endfacet
  facet normal -0 0 1
    outer loop
      vertex 22.882 1.17557 21.76
      vertex 23.5 -1.73205 21.76
      vertex 23.5 1.73205 21.76
    endloop
  endfacet
  facet normal 0 0 1
    outer loop
      vertex 22.882 1.17557 21.76
      vertex 22.882 -1.17557 21.76
      vertex 23.5 -1.73205 21.76
    endloop
  endfacet
  facet normal -0 0 1
    outer loop
      vertex 22.5437 0.415823 21.76
      vertex 22.882 -1.17557 21.76
      vertex 22.882 1.17557 21.76
    endloop
  endfacet
  facet normal 0 0 1
    outer loop
      vertex 22.882 -1.17557 21.76
      vertex 22.5437 0.415823 21.76
      vertex 22.5437 -0.415823 21.76
    endloop
  endfacet
  facet normal 0.309017 0.951056 -0
    outer loop
      vertex 24.2909 -1.98904 21.76
      vertex 23.5 -1.73205 26.75
      vertex 24.2909 -1.98904 26.75
    endloop
  endfacet
  facet normal 0.309017 0.951056 0
    outer loop
      vertex 23.5 -1.73205 26.75
      vertex 24.2909 -1.98904 21.76
      vertex 23.5 -1.73205 21.76
    endloop
  endfacet
  facet normal 0.913546 -0.406736 0
    outer loop
      vertex 22.5437 0.415823 26.75
      vertex 22.882 1.17557 21.76
      vertex 22.882 1.17557 26.75
    endloop
  endfacet
  facet normal 0.913546 -0.406736 0
    outer loop
      vertex 22.882 1.17557 21.76
      vertex 22.5437 0.415823 26.75
      vertex 22.5437 0.415823 21.76
    endloop
  endfacet
  facet normal 0.913546 0.406736 0
    outer loop
      vertex 22.882 -1.17557 26.75
      vertex 22.5437 -0.415823 21.76
      vertex 22.5437 -0.415823 26.75
    endloop
  endfacet
  facet normal 0.913546 0.406736 0
    outer loop
      vertex 22.5437 -0.415823 21.76
      vertex 22.882 -1.17557 26.75
      vertex 22.882 -1.17557 21.76
    endloop
  endfacet
  facet normal 1 -0 0
    outer loop
      vertex 22.5437 -0.415823 26.75
      vertex 22.5437 0.415823 21.76
      vertex 22.5437 0.415823 26.75
    endloop
  endfacet
  facet normal 1 0 0
    outer loop
      vertex 22.5437 0.415823 21.76
      vertex 22.5437 -0.415823 26.75
      vertex 22.5437 -0.415823 21.76
    endloop
  endfacet
  facet normal -0.809016 -0.587786 0
    outer loop
      vertex 26.3271 0.813473 21.76
      vertex 25.8383 1.48629 26.75
      vertex 25.8383 1.48629 21.76
    endloop
  endfacet
  facet normal -0.809016 -0.587786 0
    outer loop
      vertex 25.8383 1.48629 26.75
      vertex 26.3271 0.813473 21.76
      vertex 26.3271 0.813473 26.75
    endloop
  endfacet
  facet normal -0.978148 -0.207911 0
    outer loop
      vertex 26.5 0 21.76
      vertex 26.3271 0.813473 26.75
      vertex 26.3271 0.813473 21.76
    endloop
  endfacet
  facet normal -0.978148 -0.207911 0
    outer loop
      vertex 26.3271 0.813473 26.75
      vertex 26.5 0 21.76
      vertex 26.5 0 26.75
    endloop
  endfacet
  facet normal 0.309017 -0.951056 0
    outer loop
      vertex 23.5 1.73205 21.76
      vertex 24.2909 1.98904 26.75
      vertex 23.5 1.73205 26.75
    endloop
  endfacet
  facet normal 0.309017 -0.951056 0
    outer loop
      vertex 24.2909 1.98904 26.75
      vertex 23.5 1.73205 21.76
      vertex 24.2909 1.98904 21.76
    endloop
  endfacet
  facet normal -0.104528 -0.994522 0
    outer loop
      vertex 24.2909 1.98904 21.76
      vertex 25.118 1.90211 26.75
      vertex 24.2909 1.98904 26.75
    endloop
  endfacet
  facet normal -0.104528 -0.994522 -0
    outer loop
      vertex 25.118 1.90211 26.75
      vertex 24.2909 1.98904 21.76
      vertex 25.118 1.90211 21.76
    endloop
  endfacet
  facet normal 0.66913 -0.743146 0
    outer loop
      vertex 22.882 1.17557 21.76
      vertex 23.5 1.73205 26.75
      vertex 22.882 1.17557 26.75
    endloop
  endfacet
  facet normal 0.66913 -0.743146 0
    outer loop
      vertex 23.5 1.73205 26.75
      vertex 22.882 1.17557 21.76
      vertex 23.5 1.73205 21.76
    endloop
  endfacet
  facet normal -0.978148 0.207911 0
    outer loop
      vertex -22.6729 -0.813473 21.76
      vertex -22.5 0 26.75
      vertex -22.5 0 21.76
    endloop
  endfacet
  facet normal -0.978148 0.207911 0
    outer loop
      vertex -22.5 0 26.75
      vertex -22.6729 -0.813473 21.76
      vertex -22.6729 -0.813473 26.75
    endloop
  endfacet
  facet normal -0.809016 0.587786 0
    outer loop
      vertex -23.1617 -1.48629 21.76
      vertex -22.6729 -0.813473 26.75
      vertex -22.6729 -0.813473 21.76
    endloop
  endfacet
  facet normal -0.809016 0.587786 0
    outer loop
      vertex -22.6729 -0.813473 26.75
      vertex -23.1617 -1.48629 21.76
      vertex -23.1617 -1.48629 26.75
    endloop
  endfacet
  facet normal -0.104528 0.994522 0
    outer loop
      vertex -23.882 -1.90211 21.76
      vertex -24.7091 -1.98904 26.75
      vertex -23.882 -1.90211 26.75
    endloop
  endfacet
  facet normal -0.104528 0.994522 0
    outer loop
      vertex -24.7091 -1.98904 26.75
      vertex -23.882 -1.90211 21.76
      vertex -24.7091 -1.98904 21.76
    endloop
  endfacet
  facet normal -0.500001 0.866025 0
    outer loop
      vertex -23.1617 -1.48629 21.76
      vertex -23.882 -1.90211 26.75
      vertex -23.1617 -1.48629 26.75
    endloop
  endfacet
  facet normal -0.500001 0.866025 0
    outer loop
      vertex -23.882 -1.90211 26.75
      vertex -23.1617 -1.48629 21.76
      vertex -23.882 -1.90211 21.76
    endloop
  endfacet
  facet normal 0.66913 0.743146 -0
    outer loop
      vertex -25.5 -1.73205 21.76
      vertex -26.118 -1.17557 26.75
      vertex -25.5 -1.73205 26.75
    endloop
  endfacet
  facet normal 0.66913 0.743146 0
    outer loop
      vertex -26.118 -1.17557 26.75
      vertex -25.5 -1.73205 21.76
      vertex -26.118 -1.17557 21.76
    endloop
  endfacet
  facet normal 0 0 1
    outer loop
      vertex -22.6729 0.813473 21.76
      vertex -22.6729 -0.813473 21.76
      vertex -22.5 0 21.76
    endloop
  endfacet
  facet normal 0 0 1
    outer loop
      vertex -23.1617 1.48629 21.76
      vertex -22.6729 -0.813473 21.76
      vertex -22.6729 0.813473 21.76
    endloop
  endfacet
  facet normal 0 0 1
    outer loop
      vertex -23.1617 1.48629 21.76
      vertex -23.1617 -1.48629 21.76
      vertex -22.6729 -0.813473 21.76
    endloop
  endfacet
  facet normal 0 0 1
    outer loop
      vertex -23.882 1.90211 21.76
      vertex -23.1617 -1.48629 21.76
      vertex -23.1617 1.48629 21.76
    endloop
  endfacet
  facet normal 0 0 1
    outer loop
      vertex -23.882 1.90211 21.76
      vertex -23.882 -1.90211 21.76
      vertex -23.1617 -1.48629 21.76
    endloop
  endfacet
  facet normal 0 0 1
    outer loop
      vertex -24.7091 1.98904 21.76
      vertex -23.882 -1.90211 21.76
      vertex -23.882 1.90211 21.76
    endloop
  endfacet
  facet normal 0 0 1
    outer loop
      vertex -24.7091 1.98904 21.76
      vertex -24.7091 -1.98904 21.76
      vertex -23.882 -1.90211 21.76
    endloop
  endfacet
  facet normal -0 0 1
    outer loop
      vertex -25.5 1.73205 21.76
      vertex -24.7091 -1.98904 21.76
      vertex -24.7091 1.98904 21.76
    endloop
  endfacet
  facet normal 0 0 1
    outer loop
      vertex -25.5 1.73205 21.76
      vertex -25.5 -1.73205 21.76
      vertex -24.7091 -1.98904 21.76
    endloop
  endfacet
  facet normal -0 0 1
    outer loop
      vertex -26.118 1.17557 21.76
      vertex -25.5 -1.73205 21.76
      vertex -25.5 1.73205 21.76
    endloop
  endfacet
  facet normal 0 0 1
    outer loop
      vertex -26.118 1.17557 21.76
      vertex -26.118 -1.17557 21.76
      vertex -25.5 -1.73205 21.76
    endloop
  endfacet
  facet normal -0 0 1
    outer loop
      vertex -26.4563 0.415823 21.76
      vertex -26.118 -1.17557 21.76
      vertex -26.118 1.17557 21.76
    endloop
  endfacet
  facet normal 0 0 1
    outer loop
      vertex -26.118 -1.17557 21.76
      vertex -26.4563 0.415823 21.76
      vertex -26.4563 -0.415823 21.76
    endloop
  endfacet
  facet normal 0.309017 0.951056 -0
    outer loop
      vertex -24.7091 -1.98904 21.76
      vertex -25.5 -1.73205 26.75
      vertex -24.7091 -1.98904 26.75
    endloop
  endfacet
  facet normal 0.309017 0.951056 0
    outer loop
      vertex -25.5 -1.73205 26.75
      vertex -24.7091 -1.98904 21.76
      vertex -25.5 -1.73205 21.76
    endloop
  endfacet
  facet normal -0.500001 -0.866025 0
    outer loop
      vertex -23.882 1.90211 21.76
      vertex -23.1617 1.48629 26.75
      vertex -23.882 1.90211 26.75
    endloop
  endfacet
  facet normal -0.500001 -0.866025 -0
    outer loop
      vertex -23.1617 1.48629 26.75
      vertex -23.882 1.90211 21.76
      vertex -23.1617 1.48629 21.76
    endloop
  endfacet
  facet normal -0.978148 -0.207911 0
    outer loop
      vertex -22.5 0 21.76
      vertex -22.6729 0.813473 26.75
      vertex -22.6729 0.813473 21.76
    endloop
  endfacet
  facet normal -0.978148 -0.207911 0
    outer loop
      vertex -22.6729 0.813473 26.75
      vertex -22.5 0 21.76
      vertex -22.5 0 26.75
    endloop
  endfacet
  facet normal 0.913546 -0.406736 0
    outer loop
      vertex -26.4563 0.415823 26.75
      vertex -26.118 1.17557 21.76
      vertex -26.118 1.17557 26.75
    endloop
  endfacet
  facet normal 0.913546 -0.406736 0
    outer loop
      vertex -26.118 1.17557 21.76
      vertex -26.4563 0.415823 26.75
      vertex -26.4563 0.415823 21.76
    endloop
  endfacet
  facet normal 0.913546 0.406736 0
    outer loop
      vertex -26.118 -1.17557 26.75
      vertex -26.4563 -0.415823 21.76
      vertex -26.4563 -0.415823 26.75
    endloop
  endfacet
  facet normal 0.913546 0.406736 0
    outer loop
      vertex -26.4563 -0.415823 21.76
      vertex -26.118 -1.17557 26.75
      vertex -26.118 -1.17557 21.76
    endloop
  endfacet
  facet normal 1 -0 0
    outer loop
      vertex -26.4563 -0.415823 26.75
      vertex -26.4563 0.415823 21.76
      vertex -26.4563 0.415823 26.75
    endloop
  endfacet
  facet normal 1 0 0
    outer loop
      vertex -26.4563 0.415823 21.76
      vertex -26.4563 -0.415823 26.75
      vertex -26.4563 -0.415823 21.76
    endloop
  endfacet
  facet normal -0.809016 -0.587786 0
    outer loop
      vertex -22.6729 0.813473 21.76
      vertex -23.1617 1.48629 26.75
      vertex -23.1617 1.48629 21.76
    endloop
  endfacet
  facet normal -0.809016 -0.587786 0
    outer loop
      vertex -23.1617 1.48629 26.75
      vertex -22.6729 0.813473 21.76
      vertex -22.6729 0.813473 26.75
    endloop
  endfacet
  facet normal 0.309017 -0.951056 0
    outer loop
      vertex -25.5 1.73205 21.76
      vertex -24.7091 1.98904 26.75
      vertex -25.5 1.73205 26.75
    endloop
  endfacet
  facet normal 0.309017 -0.951056 0
    outer loop
      vertex -24.7091 1.98904 26.75
      vertex -25.5 1.73205 21.76
      vertex -24.7091 1.98904 21.76
    endloop
  endfacet
  facet normal -0.104528 -0.994522 0
    outer loop
      vertex -24.7091 1.98904 21.76
      vertex -23.882 1.90211 26.75
      vertex -24.7091 1.98904 26.75
    endloop
  endfacet
  facet normal -0.104528 -0.994522 -0
    outer loop
      vertex -23.882 1.90211 26.75
      vertex -24.7091 1.98904 21.76
      vertex -23.882 1.90211 21.76
    endloop
  endfacet
  facet normal 0.66913 -0.743146 0
    outer loop
      vertex -26.118 1.17557 21.76
      vertex -25.5 1.73205 26.75
      vertex -26.118 1.17557 26.75
    endloop
  endfacet
  facet normal 0.66913 -0.743146 0
    outer loop
      vertex -25.5 1.73205 26.75
      vertex -26.118 1.17557 21.76
      vertex -25.5 1.73205 21.76
    endloop
  endfacet
endsolid OpenSCAD_Model
