solid OpenSCAD_Model
  facet normal -1 0 0
    outer loop
      vertex -97.325 -58.17 -47.75
      vertex -97.325 -49.17 1.25
      vertex -97.325 -49.17 -47.75
    endloop
  endfacet
  facet normal -1 -0 0
    outer loop
      vertex -97.325 -49.17 1.25
      vertex -97.325 -58.17 -47.75
      vertex -97.325 -58.17 1.25
    endloop
  endfacet
  facet normal 0 0 1
    outer loop
      vertex -37.325 -49.17 1.25
      vertex -40.825 -53.67 1.25
      vertex -37.325 -58.17 1.25
    endloop
  endfacet
  facet normal 0 0 1
    outer loop
      vertex -37.325 -49.17 1.25
      vertex -40.9979 -52.8565 1.25
      vertex -40.825 -53.67 1.25
    endloop
  endfacet
  facet normal 0 0 1
    outer loop
      vertex -37.325 -49.17 1.25
      vertex -41.4867 -52.1837 1.25
      vertex -40.9979 -52.8565 1.25
    endloop
  endfacet
  facet normal 0 0 1
    outer loop
      vertex -37.325 -49.17 1.25
      vertex -42.207 -51.7679 1.25
      vertex -41.4867 -52.1837 1.25
    endloop
  endfacet
  facet normal 0 0 1
    outer loop
      vertex -37.325 -49.17 1.25
      vertex -43.0341 -51.681 1.25
      vertex -42.207 -51.7679 1.25
    endloop
  endfacet
  facet normal 0 0 1
    outer loop
      vertex -37.325 -49.17 1.25
      vertex -43.825 -51.938 1.25
      vertex -43.0341 -51.681 1.25
    endloop
  endfacet
  facet normal 0 0 1
    outer loop
      vertex -44.7813 -53.2542 1.25
      vertex -89.825 -53.67 1.25
      vertex -44.7813 -54.0858 1.25
    endloop
  endfacet
  facet normal -0 0 1
    outer loop
      vertex -89.9979 -52.8565 1.25
      vertex -44.7813 -53.2542 1.25
      vertex -44.443 -52.4944 1.25
    endloop
  endfacet
  facet normal -0 0 1
    outer loop
      vertex -90.4867 -52.1837 1.25
      vertex -44.443 -52.4944 1.25
      vertex -43.825 -51.938 1.25
    endloop
  endfacet
  facet normal -0 0 1
    outer loop
      vertex -91.207 -51.7679 1.25
      vertex -43.825 -51.938 1.25
      vertex -37.325 -49.17 1.25
    endloop
  endfacet
  facet normal 0 0 1
    outer loop
      vertex -44.7813 -53.2542 1.25
      vertex -89.9979 -52.8565 1.25
      vertex -89.825 -53.67 1.25
    endloop
  endfacet
  facet normal 0 0 1
    outer loop
      vertex -44.443 -52.4944 1.25
      vertex -90.4867 -52.1837 1.25
      vertex -89.9979 -52.8565 1.25
    endloop
  endfacet
  facet normal 0 0 1
    outer loop
      vertex -43.825 -51.938 1.25
      vertex -91.207 -51.7679 1.25
      vertex -90.4867 -52.1837 1.25
    endloop
  endfacet
  facet normal -0 0 1
    outer loop
      vertex -97.325 -49.17 1.25
      vertex -91.207 -51.7679 1.25
      vertex -37.325 -49.17 1.25
    endloop
  endfacet
  facet normal 0 0 1
    outer loop
      vertex -93.7813 -53.2542 1.25
      vertex -97.325 -49.17 1.25
      vertex -93.7813 -54.0858 1.25
    endloop
  endfacet
  facet normal 0 0 1
    outer loop
      vertex -93.443 -52.4944 1.25
      vertex -97.325 -49.17 1.25
      vertex -93.7813 -53.2542 1.25
    endloop
  endfacet
  facet normal 0 0 1
    outer loop
      vertex -92.825 -51.938 1.25
      vertex -97.325 -49.17 1.25
      vertex -93.443 -52.4944 1.25
    endloop
  endfacet
  facet normal 0 0 1
    outer loop
      vertex -92.0341 -51.681 1.25
      vertex -97.325 -49.17 1.25
      vertex -92.825 -51.938 1.25
    endloop
  endfacet
  facet normal 0 0 1
    outer loop
      vertex -91.207 -51.7679 1.25
      vertex -97.325 -49.17 1.25
      vertex -92.0341 -51.681 1.25
    endloop
  endfacet
  facet normal -0 0 1
    outer loop
      vertex -40.9979 -54.4835 1.25
      vertex -37.325 -58.17 1.25
      vertex -40.825 -53.67 1.25
    endloop
  endfacet
  facet normal -0 0 1
    outer loop
      vertex -41.4867 -55.1563 1.25
      vertex -37.325 -58.17 1.25
      vertex -40.9979 -54.4835 1.25
    endloop
  endfacet
  facet normal -0 0 1
    outer loop
      vertex -42.207 -55.5721 1.25
      vertex -37.325 -58.17 1.25
      vertex -41.4867 -55.1563 1.25
    endloop
  endfacet
  facet normal -0 0 1
    outer loop
      vertex -43.0341 -55.659 1.25
      vertex -37.325 -58.17 1.25
      vertex -42.207 -55.5721 1.25
    endloop
  endfacet
  facet normal 0 0 1
    outer loop
      vertex -43.825 -55.4021 1.25
      vertex -37.325 -58.17 1.25
      vertex -43.0341 -55.659 1.25
    endloop
  endfacet
  facet normal 0 0 1
    outer loop
      vertex -89.9979 -54.4835 1.25
      vertex -44.7813 -54.0858 1.25
      vertex -89.825 -53.67 1.25
    endloop
  endfacet
  facet normal 0 0 1
    outer loop
      vertex -44.7813 -54.0858 1.25
      vertex -89.9979 -54.4835 1.25
      vertex -44.443 -54.8456 1.25
    endloop
  endfacet
  facet normal 0 0 1
    outer loop
      vertex -90.4867 -55.1563 1.25
      vertex -44.443 -54.8456 1.25
      vertex -89.9979 -54.4835 1.25
    endloop
  endfacet
  facet normal 0 0 1
    outer loop
      vertex -44.443 -54.8456 1.25
      vertex -90.4867 -55.1563 1.25
      vertex -43.825 -55.4021 1.25
    endloop
  endfacet
  facet normal 0 0 1
    outer loop
      vertex -91.207 -55.5721 1.25
      vertex -43.825 -55.4021 1.25
      vertex -90.4867 -55.1563 1.25
    endloop
  endfacet
  facet normal 0 0 1
    outer loop
      vertex -43.825 -55.4021 1.25
      vertex -91.207 -55.5721 1.25
      vertex -37.325 -58.17 1.25
    endloop
  endfacet
  facet normal 0 0 1
    outer loop
      vertex -97.325 -58.17 1.25
      vertex -91.207 -55.5721 1.25
      vertex -92.0341 -55.659 1.25
    endloop
  endfacet
  facet normal 0 0 1
    outer loop
      vertex -97.325 -58.17 1.25
      vertex -93.7813 -54.0858 1.25
      vertex -97.325 -49.17 1.25
    endloop
  endfacet
  facet normal 0 0 1
    outer loop
      vertex -91.207 -55.5721 1.25
      vertex -97.325 -58.17 1.25
      vertex -37.325 -58.17 1.25
    endloop
  endfacet
  facet normal 0 0 1
    outer loop
      vertex -92.825 -55.4021 1.25
      vertex -97.325 -58.17 1.25
      vertex -92.0341 -55.659 1.25
    endloop
  endfacet
  facet normal 0 0 1
    outer loop
      vertex -93.443 -54.8456 1.25
      vertex -97.325 -58.17 1.25
      vertex -92.825 -55.4021 1.25
    endloop
  endfacet
  facet normal 0 0 1
    outer loop
      vertex -93.7813 -54.0858 1.25
      vertex -97.325 -58.17 1.25
      vertex -93.443 -54.8456 1.25
    endloop
  endfacet
  facet normal 1 -0 0
    outer loop
      vertex -37.325 -58.17 1.25
      vertex -37.325 -49.17 -47.75
      vertex -37.325 -49.17 1.25
    endloop
  endfacet
  facet normal 1 0 0
    outer loop
      vertex -37.325 -49.17 -47.75
      vertex -37.325 -58.17 1.25
      vertex -37.325 -58.17 -47.75
    endloop
  endfacet
  facet normal 0 1 -0
    outer loop
      vertex -37.325 -49.17 -47.75
      vertex -97.325 -49.17 1.25
      vertex -37.325 -49.17 1.25
    endloop
  endfacet
  facet normal 0 1 0
    outer loop
      vertex -97.325 -49.17 1.25
      vertex -37.325 -49.17 -47.75
      vertex -97.325 -49.17 -47.75
    endloop
  endfacet
  facet normal 0 0 -1
    outer loop
      vertex -97.325 -58.17 -47.75
      vertex -37.325 -49.17 -47.75
      vertex -37.325 -58.17 -47.75
    endloop
  endfacet
  facet normal -0 0 -1
    outer loop
      vertex -37.325 -49.17 -47.75
      vertex -97.325 -58.17 -47.75
      vertex -97.325 -49.17 -47.75
    endloop
  endfacet
  facet normal 0 -1 0
    outer loop
      vertex -97.325 -58.17 -47.75
      vertex -37.325 -58.17 1.25
      vertex -97.325 -58.17 1.25
    endloop
  endfacet
  facet normal 0 -1 -0
    outer loop
      vertex -37.325 -58.17 1.25
      vertex -97.325 -58.17 -47.75
      vertex -37.325 -58.17 -47.75
    endloop
  endfacet
  facet normal -0.978148 0.207911 0
    outer loop
      vertex -40.9979 -54.4835 -3.74
      vertex -40.825 -53.67 1.25
      vertex -40.825 -53.67 -3.74
    endloop
  endfacet
  facet normal -0.978148 0.207911 0
    outer loop
      vertex -40.825 -53.67 1.25
      vertex -40.9979 -54.4835 -3.74
      vertex -40.9979 -54.4835 1.25
    endloop
  endfacet
  facet normal -0.104527 0.994522 0
    outer loop
      vertex -42.207 -55.5721 -3.74
      vertex -43.0341 -55.659 1.25
      vertex -42.207 -55.5721 1.25
    endloop
  endfacet
  facet normal -0.104527 0.994522 0
    outer loop
      vertex -43.0341 -55.659 1.25
      vertex -42.207 -55.5721 -3.74
      vertex -43.0341 -55.659 -3.74
    endloop
  endfacet
  facet normal 1 -0 0
    outer loop
      vertex -44.7813 -54.0858 1.25
      vertex -44.7813 -53.2542 -3.74
      vertex -44.7813 -53.2542 1.25
    endloop
  endfacet
  facet normal 1 0 0
    outer loop
      vertex -44.7813 -53.2542 -3.74
      vertex -44.7813 -54.0858 1.25
      vertex -44.7813 -54.0858 -3.74
    endloop
  endfacet
  facet normal -0.500002 -0.866024 0
    outer loop
      vertex -42.207 -51.7679 -3.74
      vertex -41.4867 -52.1837 1.25
      vertex -42.207 -51.7679 1.25
    endloop
  endfacet
  facet normal -0.500002 -0.866024 -0
    outer loop
      vertex -41.4867 -52.1837 1.25
      vertex -42.207 -51.7679 -3.74
      vertex -41.4867 -52.1837 -3.74
    endloop
  endfacet
  facet normal -0.104527 -0.994522 0
    outer loop
      vertex -43.0341 -51.681 -3.74
      vertex -42.207 -51.7679 1.25
      vertex -43.0341 -51.681 1.25
    endloop
  endfacet
  facet normal -0.104527 -0.994522 -0
    outer loop
      vertex -42.207 -51.7679 1.25
      vertex -43.0341 -51.681 -3.74
      vertex -42.207 -51.7679 -3.74
    endloop
  endfacet
  facet normal -0.809015 -0.587788 0
    outer loop
      vertex -40.9979 -52.8565 -3.74
      vertex -41.4867 -52.1837 1.25
      vertex -41.4867 -52.1837 -3.74
    endloop
  endfacet
  facet normal -0.809015 -0.587788 0
    outer loop
      vertex -41.4867 -52.1837 1.25
      vertex -40.9979 -52.8565 -3.74
      vertex -40.9979 -52.8565 1.25
    endloop
  endfacet
  facet normal 0.309016 -0.951057 0
    outer loop
      vertex -43.825 -51.938 -3.74
      vertex -43.0341 -51.681 1.25
      vertex -43.825 -51.938 1.25
    endloop
  endfacet
  facet normal 0.309016 -0.951057 0
    outer loop
      vertex -43.0341 -51.681 1.25
      vertex -43.825 -51.938 -3.74
      vertex -43.0341 -51.681 -3.74
    endloop
  endfacet
  facet normal -0.809017 0.587785 0
    outer loop
      vertex -41.4867 -55.1563 -3.74
      vertex -40.9979 -54.4835 1.25
      vertex -40.9979 -54.4835 -3.74
    endloop
  endfacet
  facet normal -0.809017 0.587785 0
    outer loop
      vertex -40.9979 -54.4835 1.25
      vertex -41.4867 -55.1563 -3.74
      vertex -41.4867 -55.1563 1.25
    endloop
  endfacet
  facet normal -0.500002 0.866024 0
    outer loop
      vertex -41.4867 -55.1563 -3.74
      vertex -42.207 -55.5721 1.25
      vertex -41.4867 -55.1563 1.25
    endloop
  endfacet
  facet normal -0.500002 0.866024 0
    outer loop
      vertex -42.207 -55.5721 1.25
      vertex -41.4867 -55.1563 -3.74
      vertex -42.207 -55.5721 -3.74
    endloop
  endfacet
  facet normal 0 0 1
    outer loop
      vertex -40.9979 -52.8565 -3.74
      vertex -40.9979 -54.4835 -3.74
      vertex -40.825 -53.67 -3.74
    endloop
  endfacet
  facet normal 0 0 1
    outer loop
      vertex -41.4867 -52.1837 -3.74
      vertex -40.9979 -54.4835 -3.74
      vertex -40.9979 -52.8565 -3.74
    endloop
  endfacet
  facet normal 0 0 1
    outer loop
      vertex -41.4867 -52.1837 -3.74
      vertex -41.4867 -55.1563 -3.74
      vertex -40.9979 -54.4835 -3.74
    endloop
  endfacet
  facet normal 0 0 1
    outer loop
      vertex -42.207 -51.7679 -3.74
      vertex -41.4867 -55.1563 -3.74
      vertex -41.4867 -52.1837 -3.74
    endloop
  endfacet
  facet normal 0 0 1
    outer loop
      vertex -42.207 -51.7679 -3.74
      vertex -42.207 -55.5721 -3.74
      vertex -41.4867 -55.1563 -3.74
    endloop
  endfacet
  facet normal 0 0 1
    outer loop
      vertex -43.0341 -51.681 -3.74
      vertex -42.207 -55.5721 -3.74
      vertex -42.207 -51.7679 -3.74
    endloop
  endfacet
  facet normal 0 0 1
    outer loop
      vertex -43.0341 -51.681 -3.74
      vertex -43.0341 -55.659 -3.74
      vertex -42.207 -55.5721 -3.74
    endloop
  endfacet
  facet normal -0 0 1
    outer loop
      vertex -43.825 -51.938 -3.74
      vertex -43.0341 -55.659 -3.74
      vertex -43.0341 -51.681 -3.74
    endloop
  endfacet
  facet normal 0 0 1
    outer loop
      vertex -43.825 -51.938 -3.74
      vertex -43.825 -55.4021 -3.74
      vertex -43.0341 -55.659 -3.74
    endloop
  endfacet
  facet normal -0 0 1
    outer loop
      vertex -44.443 -52.4944 -3.74
      vertex -43.825 -55.4021 -3.74
      vertex -43.825 -51.938 -3.74
    endloop
  endfacet
  facet normal 0 0 1
    outer loop
      vertex -44.443 -52.4944 -3.74
      vertex -44.443 -54.8456 -3.74
      vertex -43.825 -55.4021 -3.74
    endloop
  endfacet
  facet normal -0 0 1
    outer loop
      vertex -44.7813 -53.2542 -3.74
      vertex -44.443 -54.8456 -3.74
      vertex -44.443 -52.4944 -3.74
    endloop
  endfacet
  facet normal 0 0 1
    outer loop
      vertex -44.443 -54.8456 -3.74
      vertex -44.7813 -53.2542 -3.74
      vertex -44.7813 -54.0858 -3.74
    endloop
  endfacet
  facet normal 0.913546 0.406736 0
    outer loop
      vertex -44.443 -54.8456 1.25
      vertex -44.7813 -54.0858 -3.74
      vertex -44.7813 -54.0858 1.25
    endloop
  endfacet
  facet normal 0.913546 0.406736 0
    outer loop
      vertex -44.7813 -54.0858 -3.74
      vertex -44.443 -54.8456 1.25
      vertex -44.443 -54.8456 -3.74
    endloop
  endfacet
  facet normal 0.309016 0.951057 -0
    outer loop
      vertex -43.0341 -55.659 -3.74
      vertex -43.825 -55.4021 1.25
      vertex -43.0341 -55.659 1.25
    endloop
  endfacet
  facet normal 0.309016 0.951057 0
    outer loop
      vertex -43.825 -55.4021 1.25
      vertex -43.0341 -55.659 -3.74
      vertex -43.825 -55.4021 -3.74
    endloop
  endfacet
  facet normal 0.66913 0.743145 -0
    outer loop
      vertex -43.825 -55.4021 -3.74
      vertex -44.443 -54.8456 1.25
      vertex -43.825 -55.4021 1.25
    endloop
  endfacet
  facet normal 0.66913 0.743145 0
    outer loop
      vertex -44.443 -54.8456 1.25
      vertex -43.825 -55.4021 -3.74
      vertex -44.443 -54.8456 -3.74
    endloop
  endfacet
  facet normal -0.978148 -0.207911 0
    outer loop
      vertex -40.825 -53.67 -3.74
      vertex -40.9979 -52.8565 1.25
      vertex -40.9979 -52.8565 -3.74
    endloop
  endfacet
  facet normal -0.978148 -0.207911 0
    outer loop
      vertex -40.9979 -52.8565 1.25
      vertex -40.825 -53.67 -3.74
      vertex -40.825 -53.67 1.25
    endloop
  endfacet
  facet normal 0.913546 -0.406736 0
    outer loop
      vertex -44.7813 -53.2542 1.25
      vertex -44.443 -52.4944 -3.74
      vertex -44.443 -52.4944 1.25
    endloop
  endfacet
  facet normal 0.913546 -0.406736 0
    outer loop
      vertex -44.443 -52.4944 -3.74
      vertex -44.7813 -53.2542 1.25
      vertex -44.7813 -53.2542 -3.74
    endloop
  endfacet
  facet normal 0.66913 -0.743145 0
    outer loop
      vertex -44.443 -52.4944 -3.74
      vertex -43.825 -51.938 1.25
      vertex -44.443 -52.4944 1.25
    endloop
  endfacet
  facet normal 0.66913 -0.743145 0
    outer loop
      vertex -43.825 -51.938 1.25
      vertex -44.443 -52.4944 -3.74
      vertex -43.825 -51.938 -3.74
    endloop
  endfacet
  facet normal -0.978147 0.207916 0
    outer loop
      vertex -89.9979 -54.4835 -3.74
      vertex -89.825 -53.67 1.25
      vertex -89.825 -53.67 -3.74
    endloop
  endfacet
  facet normal -0.978147 0.207916 0
    outer loop
      vertex -89.825 -53.67 1.25
      vertex -89.9979 -54.4835 -3.74
      vertex -89.9979 -54.4835 1.25
    endloop
  endfacet
  facet normal -0.104526 0.994522 0
    outer loop
      vertex -91.207 -55.5721 -3.74
      vertex -92.0341 -55.659 1.25
      vertex -91.207 -55.5721 1.25
    endloop
  endfacet
  facet normal -0.104526 0.994522 0
    outer loop
      vertex -92.0341 -55.659 1.25
      vertex -91.207 -55.5721 -3.74
      vertex -92.0341 -55.659 -3.74
    endloop
  endfacet
  facet normal 1 -0 0
    outer loop
      vertex -93.7813 -54.0858 1.25
      vertex -93.7813 -53.2542 -3.74
      vertex -93.7813 -53.2542 1.25
    endloop
  endfacet
  facet normal 1 0 0
    outer loop
      vertex -93.7813 -53.2542 -3.74
      vertex -93.7813 -54.0858 1.25
      vertex -93.7813 -54.0858 -3.74
    endloop
  endfacet
  facet normal -0.104526 -0.994522 0
    outer loop
      vertex -92.0341 -51.681 -3.74
      vertex -91.207 -51.7679 1.25
      vertex -92.0341 -51.681 1.25
    endloop
  endfacet
  facet normal -0.104526 -0.994522 -0
    outer loop
      vertex -91.207 -51.7679 1.25
      vertex -92.0341 -51.681 -3.74
      vertex -91.207 -51.7679 -3.74
    endloop
  endfacet
  facet normal -0.978147 -0.207916 0
    outer loop
      vertex -89.825 -53.67 -3.74
      vertex -89.9979 -52.8565 1.25
      vertex -89.9979 -52.8565 -3.74
    endloop
  endfacet
  facet normal -0.978147 -0.207916 0
    outer loop
      vertex -89.9979 -52.8565 1.25
      vertex -89.825 -53.67 -3.74
      vertex -89.825 -53.67 1.25
    endloop
  endfacet
  facet normal -0.809015 -0.587788 0
    outer loop
      vertex -89.9979 -52.8565 -3.74
      vertex -90.4867 -52.1837 1.25
      vertex -90.4867 -52.1837 -3.74
    endloop
  endfacet
  facet normal -0.809015 -0.587788 0
    outer loop
      vertex -90.4867 -52.1837 1.25
      vertex -89.9979 -52.8565 -3.74
      vertex -89.9979 -52.8565 1.25
    endloop
  endfacet
  facet normal 0.309018 -0.951056 0
    outer loop
      vertex -92.825 -51.938 -3.74
      vertex -92.0341 -51.681 1.25
      vertex -92.825 -51.938 1.25
    endloop
  endfacet
  facet normal 0.309018 -0.951056 0
    outer loop
      vertex -92.0341 -51.681 1.25
      vertex -92.825 -51.938 -3.74
      vertex -92.0341 -51.681 -3.74
    endloop
  endfacet
  facet normal -0.809017 0.587785 0
    outer loop
      vertex -90.4867 -55.1563 -3.74
      vertex -89.9979 -54.4835 1.25
      vertex -89.9979 -54.4835 -3.74
    endloop
  endfacet
  facet normal -0.809017 0.587785 0
    outer loop
      vertex -89.9979 -54.4835 1.25
      vertex -90.4867 -55.1563 -3.74
      vertex -90.4867 -55.1563 1.25
    endloop
  endfacet
  facet normal -0.500004 0.866023 0
    outer loop
      vertex -90.4867 -55.1563 -3.74
      vertex -91.207 -55.5721 1.25
      vertex -90.4867 -55.1563 1.25
    endloop
  endfacet
  facet normal -0.500004 0.866023 0
    outer loop
      vertex -91.207 -55.5721 1.25
      vertex -90.4867 -55.1563 -3.74
      vertex -91.207 -55.5721 -3.74
    endloop
  endfacet
  facet normal 0 0 1
    outer loop
      vertex -89.9979 -52.8565 -3.74
      vertex -89.9979 -54.4835 -3.74
      vertex -89.825 -53.67 -3.74
    endloop
  endfacet
  facet normal 0 0 1
    outer loop
      vertex -90.4867 -52.1837 -3.74
      vertex -89.9979 -54.4835 -3.74
      vertex -89.9979 -52.8565 -3.74
    endloop
  endfacet
  facet normal 0 0 1
    outer loop
      vertex -90.4867 -52.1837 -3.74
      vertex -90.4867 -55.1563 -3.74
      vertex -89.9979 -54.4835 -3.74
    endloop
  endfacet
  facet normal 0 0 1
    outer loop
      vertex -91.207 -51.7679 -3.74
      vertex -90.4867 -55.1563 -3.74
      vertex -90.4867 -52.1837 -3.74
    endloop
  endfacet
  facet normal 0 0 1
    outer loop
      vertex -91.207 -51.7679 -3.74
      vertex -91.207 -55.5721 -3.74
      vertex -90.4867 -55.1563 -3.74
    endloop
  endfacet
  facet normal 0 0 1
    outer loop
      vertex -92.0341 -51.681 -3.74
      vertex -91.207 -55.5721 -3.74
      vertex -91.207 -51.7679 -3.74
    endloop
  endfacet
  facet normal 0 0 1
    outer loop
      vertex -92.0341 -51.681 -3.74
      vertex -92.0341 -55.659 -3.74
      vertex -91.207 -55.5721 -3.74
    endloop
  endfacet
  facet normal -0 0 1
    outer loop
      vertex -92.825 -51.938 -3.74
      vertex -92.0341 -55.659 -3.74
      vertex -92.0341 -51.681 -3.74
    endloop
  endfacet
  facet normal 0 0 1
    outer loop
      vertex -92.825 -51.938 -3.74
      vertex -92.825 -55.4021 -3.74
      vertex -92.0341 -55.659 -3.74
    endloop
  endfacet
  facet normal -0 0 1
    outer loop
      vertex -93.443 -52.4944 -3.74
      vertex -92.825 -55.4021 -3.74
      vertex -92.825 -51.938 -3.74
    endloop
  endfacet
  facet normal 0 0 1
    outer loop
      vertex -93.443 -52.4944 -3.74
      vertex -93.443 -54.8456 -3.74
      vertex -92.825 -55.4021 -3.74
    endloop
  endfacet
  facet normal -0 0 1
    outer loop
      vertex -93.7813 -53.2542 -3.74
      vertex -93.443 -54.8456 -3.74
      vertex -93.443 -52.4944 -3.74
    endloop
  endfacet
  facet normal 0 0 1
    outer loop
      vertex -93.443 -54.8456 -3.74
      vertex -93.7813 -53.2542 -3.74
      vertex -93.7813 -54.0858 -3.74
    endloop
  endfacet
  facet normal 0.913544 0.40674 0
    outer loop
      vertex -93.443 -54.8456 1.25
      vertex -93.7813 -54.0858 -3.74
      vertex -93.7813 -54.0858 1.25
    endloop
  endfacet
  facet normal 0.913544 0.40674 0
    outer loop
      vertex -93.7813 -54.0858 -3.74
      vertex -93.443 -54.8456 1.25
      vertex -93.443 -54.8456 -3.74
    endloop
  endfacet
  facet normal 0.309018 0.951056 -0
    outer loop
      vertex -92.0341 -55.659 -3.74
      vertex -92.825 -55.4021 1.25
      vertex -92.0341 -55.659 1.25
    endloop
  endfacet
  facet normal 0.309018 0.951056 0
    outer loop
      vertex -92.825 -55.4021 1.25
      vertex -92.0341 -55.659 -3.74
      vertex -92.825 -55.4021 -3.74
    endloop
  endfacet
  facet normal 0.66913 0.743145 -0
    outer loop
      vertex -92.825 -55.4021 -3.74
      vertex -93.443 -54.8456 1.25
      vertex -92.825 -55.4021 1.25
    endloop
  endfacet
  facet normal 0.66913 0.743145 0
    outer loop
      vertex -93.443 -54.8456 1.25
      vertex -92.825 -55.4021 -3.74
      vertex -93.443 -54.8456 -3.74
    endloop
  endfacet
  facet normal -0.500004 -0.866023 0
    outer loop
      vertex -91.207 -51.7679 -3.74
      vertex -90.4867 -52.1837 1.25
      vertex -91.207 -51.7679 1.25
    endloop
  endfacet
  facet normal -0.500004 -0.866023 -0
    outer loop
      vertex -90.4867 -52.1837 1.25
      vertex -91.207 -51.7679 -3.74
      vertex -90.4867 -52.1837 -3.74
    endloop
  endfacet
  facet normal 0.913544 -0.40674 0
    outer loop
      vertex -93.7813 -53.2542 1.25
      vertex -93.443 -52.4944 -3.74
      vertex -93.443 -52.4944 1.25
    endloop
  endfacet
  facet normal 0.913544 -0.40674 0
    outer loop
      vertex -93.443 -52.4944 -3.74
      vertex -93.7813 -53.2542 1.25
      vertex -93.7813 -53.2542 -3.74
    endloop
  endfacet
  facet normal 0.66913 -0.743145 0
    outer loop
      vertex -93.443 -52.4944 -3.74
      vertex -92.825 -51.938 1.25
      vertex -93.443 -52.4944 1.25
    endloop
  endfacet
  facet normal 0.66913 -0.743145 0
    outer loop
      vertex -92.825 -51.938 1.25
      vertex -93.443 -52.4944 -3.74
      vertex -92.825 -51.938 -3.74
    endloop
  endfacet
endsolid OpenSCAD_Model
