solid OpenSCAD_Model
  facet normal -0.734612 0.154945 -0.660558
    outer loop
      vertex 104.65 -0.00184477 48.54
      vertex 102.425 1.19399e-016 51.015
      vertex 104.651 -1.83691e-016 48.54
    endloop
  endfacet
  facet normal -0.734474 0.15612 -0.660435
    outer loop
      vertex 102.425 1.19399e-016 51.015
      vertex 104.65 -0.00184477 48.54
      vertex 102.23 -0.915157 51.015
    endloop
  endfacet
  facet normal 0.685774 -0.306708 -0.660033
    outer loop
      vertex 98.3547 1.32252 51.015
      vertex 95.7973 0.93051 48.54
      vertex 95.7981 0.932232 48.54
    endloop
  endfacet
  facet normal 0.685965 -0.305414 -0.660435
    outer loop
      vertex 95.7973 0.93051 48.54
      vertex 98.3547 1.32252 51.015
      vertex 97.9742 0.467801 51.015
    endloop
  endfacet
  facet normal 0.50244 0.558014 -0.660435
    outer loop
      vertex 98.3547 -1.32252 51.015
      vertex 97.9358 -3.87464 48.54
      vertex 96.5542 -2.63064 48.54
    endloop
  endfacet
  facet normal -0.607478 -0.441357 -0.660435
    outer loop
      vertex 103.171 3.32442 48.54
      vertex 104.264 1.82035 48.54
      vertex 102.23 0.915157 51.015
    endloop
  endfacet
  facet normal -0.607478 0.441357 -0.660435
    outer loop
      vertex 104.264 -1.82035 48.54
      vertex 103.171 -3.32442 48.54
      vertex 102.23 -0.915157 51.015
    endloop
  endfacet
  facet normal -0.375442 -0.650284 -0.660435
    outer loop
      vertex 103.17 3.32595 48.54
      vertex 101.681 1.67208 51.015
      vertex 101.56 4.25551 48.54
    endloop
  endfacet
  facet normal 0.685966 0.305412 -0.660435
    outer loop
      vertex 98.3547 -1.32252 51.015
      vertex 96.5542 -2.63064 48.54
      vertex 95.7981 -0.932232 48.54
    endloop
  endfacet
  facet normal -0.375442 0.650284 -0.660435
    outer loop
      vertex 101.681 -1.67208 51.015
      vertex 103.17 -3.32595 48.54
      vertex 101.56 -4.25551 48.54
    endloop
  endfacet
  facet normal -0.734474 0.15612 -0.660435
    outer loop
      vertex 104.65 -0.00184477 48.54
      vertex 104.264 -1.82035 48.54
      vertex 102.23 -0.915157 51.015
    endloop
  endfacet
  facet normal -0.607476 -0.441358 -0.660436
    outer loop
      vertex 101.681 1.67208 51.015
      vertex 103.171 3.32442 48.54
      vertex 102.23 0.915157 51.015
    endloop
  endfacet
  facet normal -0.606352 -0.442637 -0.660613
    outer loop
      vertex 103.171 3.32442 48.54
      vertex 101.681 1.67208 51.015
      vertex 103.17 3.32595 48.54
    endloop
  endfacet
  facet normal -0.0784887 -0.74677 -0.660435
    outer loop
      vertex 101.556 4.25665 48.54
      vertex 99.9398 2.23767 51.015
      vertex 99.7072 4.45099 48.54
    endloop
  endfacet
  facet normal -0.375441 -0.650284 -0.660436
    outer loop
      vertex 100.87 2.13988 51.015
      vertex 101.56 4.25551 48.54
      vertex 101.681 1.67208 51.015
    endloop
  endfacet
  facet normal -0.375464 -0.650273 -0.660433
    outer loop
      vertex 101.56 4.25551 48.54
      vertex 100.87 2.13988 51.015
      vertex 101.558 4.25646 48.54
    endloop
  endfacet
  facet normal 0.232036 -0.714132 -0.660435
    outer loop
      vertex 99.7054 4.4504 48.54
      vertex 99.9398 2.23767 51.015
      vertex 99.05 1.94856 51.015
    endloop
  endfacet
  facet normal 0.232089 -0.71412 -0.660429
    outer loop
      vertex 99.9398 2.23767 51.015
      vertex 99.7054 4.4504 48.54
      vertex 99.7072 4.45099 48.54
    endloop
  endfacet
  facet normal 0.685966 -0.305412 -0.660435
    outer loop
      vertex 96.5542 2.63064 48.54
      vertex 98.3547 1.32252 51.015
      vertex 95.7981 0.932232 48.54
    endloop
  endfacet
  facet normal 0.750883 0 -0.660435
    outer loop
      vertex 97.9742 -0.467801 51.015
      vertex 95.7973 0.93051 48.54
      vertex 97.9742 0.467801 51.015
    endloop
  endfacet
  facet normal 0.750883 0 -0.660435
    outer loop
      vertex 95.7973 0.93051 48.54
      vertex 97.9742 -0.467801 51.015
      vertex 95.7973 -0.93051 48.54
    endloop
  endfacet
  facet normal 0.685965 0.305414 -0.660435
    outer loop
      vertex 98.3547 -1.32252 51.015
      vertex 95.7973 -0.93051 48.54
      vertex 97.9742 -0.467801 51.015
    endloop
  endfacet
  facet normal 0.685774 0.306708 -0.660033
    outer loop
      vertex 95.7973 -0.93051 48.54
      vertex 98.3547 -1.32252 51.015
      vertex 95.7981 -0.932232 48.54
    endloop
  endfacet
  facet normal -0.606352 0.442637 -0.660613
    outer loop
      vertex 101.681 -1.67208 51.015
      vertex 103.171 -3.32442 48.54
      vertex 103.17 -3.32595 48.54
    endloop
  endfacet
  facet normal -0.607476 0.441358 -0.660436
    outer loop
      vertex 103.171 -3.32442 48.54
      vertex 101.681 -1.67208 51.015
      vertex 102.23 -0.915157 51.015
    endloop
  endfacet
  facet normal -0.0784887 0.74677 -0.660435
    outer loop
      vertex 99.9398 -2.23767 51.015
      vertex 101.556 -4.25665 48.54
      vertex 99.7072 -4.45099 48.54
    endloop
  endfacet
  facet normal -0.375464 0.650273 -0.660433
    outer loop
      vertex 100.87 -2.13988 51.015
      vertex 101.56 -4.25551 48.54
      vertex 101.558 -4.25646 48.54
    endloop
  endfacet
  facet normal -0.375441 0.650284 -0.660436
    outer loop
      vertex 101.56 -4.25551 48.54
      vertex 100.87 -2.13988 51.015
      vertex 101.681 -1.67208 51.015
    endloop
  endfacet
  facet normal -0.734474 -0.15612 -0.660435
    outer loop
      vertex 104.65 0.00184477 48.54
      vertex 102.425 1.19399e-016 51.015
      vertex 102.23 0.915157 51.015
    endloop
  endfacet
  facet normal -0.734612 -0.154945 -0.660558
    outer loop
      vertex 102.425 1.19399e-016 51.015
      vertex 104.65 0.00184477 48.54
      vertex 104.651 -1.83691e-016 48.54
    endloop
  endfacet
  facet normal -0.734474 -0.15612 -0.660435
    outer loop
      vertex 104.264 1.82035 48.54
      vertex 104.65 0.00184477 48.54
      vertex 102.23 0.915157 51.015
    endloop
  endfacet
  facet normal -0.0784892 -0.746769 -0.660435
    outer loop
      vertex 101.556 4.25665 48.54
      vertex 100.87 2.13988 51.015
      vertex 99.9398 2.23767 51.015
    endloop
  endfacet
  facet normal -0.0785462 -0.746758 -0.660441
    outer loop
      vertex 100.87 2.13988 51.015
      vertex 101.556 4.25665 48.54
      vertex 101.558 4.25646 48.54
    endloop
  endfacet
  facet normal 0.232035 -0.714132 -0.660435
    outer loop
      vertex 99.7054 4.4504 48.54
      vertex 99.05 1.94856 51.015
      vertex 97.9372 3.8759 48.54
    endloop
  endfacet
  facet normal 0.501952 0.558377 -0.660499
    outer loop
      vertex 97.9358 -3.87464 48.54
      vertex 99.05 -1.94856 51.015
      vertex 97.9372 -3.8759 48.54
    endloop
  endfacet
  facet normal 0.502438 0.558015 -0.660436
    outer loop
      vertex 99.05 -1.94856 51.015
      vertex 97.9358 -3.87464 48.54
      vertex 98.3547 -1.32252 51.015
    endloop
  endfacet
  facet normal 0.232035 0.714132 -0.660435
    outer loop
      vertex 99.05 -1.94856 51.015
      vertex 99.7054 -4.4504 48.54
      vertex 97.9372 -3.8759 48.54
    endloop
  endfacet
  facet normal -0.0785462 0.746758 -0.660441
    outer loop
      vertex 101.556 -4.25665 48.54
      vertex 100.87 -2.13988 51.015
      vertex 101.558 -4.25646 48.54
    endloop
  endfacet
  facet normal -0.0784892 0.746769 -0.660435
    outer loop
      vertex 100.87 -2.13988 51.015
      vertex 101.556 -4.25665 48.54
      vertex 99.9398 -2.23767 51.015
    endloop
  endfacet
  facet normal 0.502438 -0.558015 -0.660436
    outer loop
      vertex 97.9372 3.8759 48.54
      vertex 99.05 1.94856 51.015
      vertex 96.5556 2.6319 48.54
    endloop
  endfacet
  facet normal 0.502438 -0.558015 -0.660436
    outer loop
      vertex 98.3547 1.32252 51.015
      vertex 96.5556 2.6319 48.54
      vertex 99.05 1.94856 51.015
    endloop
  endfacet
  facet normal 0.503412 -0.556959 -0.660585
    outer loop
      vertex 96.5556 2.6319 48.54
      vertex 98.3547 1.32252 51.015
      vertex 96.5542 2.63064 48.54
    endloop
  endfacet
  facet normal 0.232089 0.71412 -0.660429
    outer loop
      vertex 99.7054 -4.4504 48.54
      vertex 99.9398 -2.23767 51.015
      vertex 99.7072 -4.45099 48.54
    endloop
  endfacet
  facet normal 0.232036 0.714132 -0.660435
    outer loop
      vertex 99.9398 -2.23767 51.015
      vertex 99.7054 -4.4504 48.54
      vertex 99.05 -1.94856 51.015
    endloop
  endfacet
  facet normal -0.978147 0.207916 -5.65064e-017
    outer loop
      vertex 102.23 -0.915157 51.015
      vertex 102.425 1.83691e-016 51.54
      vertex 102.425 1.19399e-016 51.015
    endloop
  endfacet
  facet normal -0.978147 0.207916 0
    outer loop
      vertex 102.425 1.83691e-016 51.54
      vertex 102.23 -0.915157 51.015
      vertex 102.23 -0.915157 51.54
    endloop
  endfacet
  facet normal 1 -0 0
    outer loop
      vertex 97.9742 -0.467801 51.54
      vertex 97.9742 0.467801 51.015
      vertex 97.9742 0.467801 51.54
    endloop
  endfacet
  facet normal 1 0 0
    outer loop
      vertex 97.9742 0.467801 51.015
      vertex 97.9742 -0.467801 51.54
      vertex 97.9742 -0.467801 51.015
    endloop
  endfacet
  facet normal 0.913544 -0.406739 0
    outer loop
      vertex 97.9742 0.467801 51.54
      vertex 98.3547 1.32252 51.015
      vertex 98.3547 1.32252 51.54
    endloop
  endfacet
  facet normal 0.913544 -0.406739 0
    outer loop
      vertex 98.3547 1.32252 51.015
      vertex 97.9742 0.467801 51.54
      vertex 97.9742 0.467801 51.015
    endloop
  endfacet
  facet normal 0.309017 0.951056 -0
    outer loop
      vertex 99.9398 -2.23767 51.015
      vertex 99.05 -1.94856 51.54
      vertex 99.9398 -2.23767 51.54
    endloop
  endfacet
  facet normal 0.309017 0.951056 0
    outer loop
      vertex 99.05 -1.94856 51.54
      vertex 99.9398 -2.23767 51.015
      vertex 99.05 -1.94856 51.015
    endloop
  endfacet
  facet normal 0.66913 0.743145 -0
    outer loop
      vertex 99.05 -1.94856 51.015
      vertex 98.3547 -1.32252 51.54
      vertex 99.05 -1.94856 51.54
    endloop
  endfacet
  facet normal 0.66913 0.743145 0
    outer loop
      vertex 98.3547 -1.32252 51.54
      vertex 99.05 -1.94856 51.015
      vertex 98.3547 -1.32252 51.015
    endloop
  endfacet
  facet normal -0.499999 0.866026 0
    outer loop
      vertex 101.681 -1.67208 51.015
      vertex 100.87 -2.13988 51.54
      vertex 101.681 -1.67208 51.54
    endloop
  endfacet
  facet normal -0.499999 0.866026 0
    outer loop
      vertex 100.87 -2.13988 51.54
      vertex 101.681 -1.67208 51.015
      vertex 100.87 -2.13988 51.015
    endloop
  endfacet
  facet normal -0.809016 0.587786 0
    outer loop
      vertex 101.681 -1.67208 51.015
      vertex 102.23 -0.915157 51.54
      vertex 102.23 -0.915157 51.015
    endloop
  endfacet
  facet normal -0.809016 0.587786 0
    outer loop
      vertex 102.23 -0.915157 51.54
      vertex 101.681 -1.67208 51.015
      vertex 101.681 -1.67208 51.54
    endloop
  endfacet
  facet normal -0.104529 0.994522 0
    outer loop
      vertex 100.87 -2.13988 51.015
      vertex 99.9398 -2.23767 51.54
      vertex 100.87 -2.13988 51.54
    endloop
  endfacet
  facet normal -0.104529 0.994522 0
    outer loop
      vertex 99.9398 -2.23767 51.54
      vertex 100.87 -2.13988 51.015
      vertex 99.9398 -2.23767 51.015
    endloop
  endfacet
  facet normal 0.913544 0.406739 0
    outer loop
      vertex 98.3547 -1.32252 51.54
      vertex 97.9742 -0.467801 51.015
      vertex 97.9742 -0.467801 51.54
    endloop
  endfacet
  facet normal 0.913544 0.406739 0
    outer loop
      vertex 97.9742 -0.467801 51.015
      vertex 98.3547 -1.32252 51.54
      vertex 98.3547 -1.32252 51.015
    endloop
  endfacet
  facet normal 0.309017 -0.951056 0
    outer loop
      vertex 99.05 1.94856 51.015
      vertex 99.9398 2.23767 51.54
      vertex 99.05 1.94856 51.54
    endloop
  endfacet
  facet normal 0.309017 -0.951056 0
    outer loop
      vertex 99.9398 2.23767 51.54
      vertex 99.05 1.94856 51.015
      vertex 99.9398 2.23767 51.015
    endloop
  endfacet
  facet normal 0.66913 -0.743145 0
    outer loop
      vertex 98.3547 1.32252 51.015
      vertex 99.05 1.94856 51.54
      vertex 98.3547 1.32252 51.54
    endloop
  endfacet
  facet normal 0.66913 -0.743145 0
    outer loop
      vertex 99.05 1.94856 51.54
      vertex 98.3547 1.32252 51.015
      vertex 99.05 1.94856 51.015
    endloop
  endfacet
  facet normal -0.499999 -0.866026 0
    outer loop
      vertex 100.87 2.13988 51.015
      vertex 101.681 1.67208 51.54
      vertex 100.87 2.13988 51.54
    endloop
  endfacet
  facet normal -0.499999 -0.866026 -0
    outer loop
      vertex 101.681 1.67208 51.54
      vertex 100.87 2.13988 51.015
      vertex 101.681 1.67208 51.015
    endloop
  endfacet
  facet normal -0.809016 -0.587786 0
    outer loop
      vertex 102.23 0.915157 51.015
      vertex 101.681 1.67208 51.54
      vertex 101.681 1.67208 51.015
    endloop
  endfacet
  facet normal -0.809016 -0.587786 0
    outer loop
      vertex 101.681 1.67208 51.54
      vertex 102.23 0.915157 51.015
      vertex 102.23 0.915157 51.54
    endloop
  endfacet
  facet normal -0.978147 -0.207916 0
    outer loop
      vertex 102.23 0.915157 51.015
      vertex 102.425 1.83691e-016 51.54
      vertex 102.23 0.915157 51.54
    endloop
  endfacet
  facet normal -0.978147 -0.207916 2.54615e-017
    outer loop
      vertex 102.425 1.83691e-016 51.54
      vertex 102.23 0.915157 51.015
      vertex 102.425 1.19399e-016 51.015
    endloop
  endfacet
  facet normal -0.104529 -0.994522 0
    outer loop
      vertex 99.9398 2.23767 51.015
      vertex 100.87 2.13988 51.54
      vertex 99.9398 2.23767 51.54
    endloop
  endfacet
  facet normal -0.104529 -0.994522 -0
    outer loop
      vertex 100.87 2.13988 51.54
      vertex 99.9398 2.23767 51.015
      vertex 100.87 2.13988 51.015
    endloop
  endfacet
  facet normal -1 0 0
    outer loop
      vertex 84.175 -16 48.54
      vertex 84.175 16 51.54
      vertex 84.175 16 48.54
    endloop
  endfacet
  facet normal -1 -0 0
    outer loop
      vertex 84.175 16 51.54
      vertex 84.175 -16 48.54
      vertex 84.175 -16 51.54
    endloop
  endfacet
  facet normal 0 0 1
    outer loop
      vertex 98.3547 1.32252 51.54
      vertex 87.3808 11.6707 51.54
      vertex 97.9742 0.467801 51.54
    endloop
  endfacet
  facet normal 0 0 1
    outer loop
      vertex 97.9742 -0.467801 51.54
      vertex 88.4387 -12.6232 51.54
      vertex 88.59 -13.335 51.54
    endloop
  endfacet
  facet normal -0 0 1
    outer loop
      vertex 86.6571 11.5946 51.54
      vertex 97.9742 0.467801 51.54
      vertex 87.3808 11.6707 51.54
    endloop
  endfacet
  facet normal 0 0 1
    outer loop
      vertex 97.9742 -0.467801 51.54
      vertex 88.011 -12.0345 51.54
      vertex 88.4387 -12.6232 51.54
    endloop
  endfacet
  facet normal 0 0 1
    outer loop
      vertex 97.9742 0.467801 51.54
      vertex 86.6571 11.5946 51.54
      vertex 97.9742 -0.467801 51.54
    endloop
  endfacet
  facet normal 0 0 1
    outer loop
      vertex 97.9742 -0.467801 51.54
      vertex 87.3808 -11.6707 51.54
      vertex 88.011 -12.0345 51.54
    endloop
  endfacet
  facet normal 0 0 1
    outer loop
      vertex 86.6571 -11.5946 51.54
      vertex 97.9742 -0.467801 51.54
      vertex 86.6571 11.5946 51.54
    endloop
  endfacet
  facet normal 0 0 1
    outer loop
      vertex 97.9742 -0.467801 51.54
      vertex 86.6571 -11.5946 51.54
      vertex 87.3808 -11.6707 51.54
    endloop
  endfacet
  facet normal 0 0 1
    outer loop
      vertex 85.965 11.8195 51.54
      vertex 86.6571 -11.5946 51.54
      vertex 86.6571 11.5946 51.54
    endloop
  endfacet
  facet normal 0 0 1
    outer loop
      vertex 85.965 11.8195 51.54
      vertex 85.965 -11.8195 51.54
      vertex 86.6571 -11.5946 51.54
    endloop
  endfacet
  facet normal 0 0 1
    outer loop
      vertex 85.4242 12.3064 51.54
      vertex 85.965 -11.8195 51.54
      vertex 85.965 11.8195 51.54
    endloop
  endfacet
  facet normal 0 0 1
    outer loop
      vertex 85.4242 12.3064 51.54
      vertex 85.4242 -12.3064 51.54
      vertex 85.965 -11.8195 51.54
    endloop
  endfacet
  facet normal 0 0 1
    outer loop
      vertex 85.1282 12.9712 51.54
      vertex 85.4242 -12.3064 51.54
      vertex 85.4242 12.3064 51.54
    endloop
  endfacet
  facet normal 0 0 1
    outer loop
      vertex 85.4242 -12.3064 51.54
      vertex 85.1282 12.9712 51.54
      vertex 85.1282 -12.9712 51.54
    endloop
  endfacet
  facet normal -0 0 1
    outer loop
      vertex 115.109 -12.6232 51.54
      vertex 116.175 -16 51.54
      vertex 115.109 12.6232 51.54
    endloop
  endfacet
  facet normal 0 0 1
    outer loop
      vertex 116.175 -16 51.54
      vertex 115.109 -12.6232 51.54
      vertex 115.26 -13.335 51.54
    endloop
  endfacet
  facet normal -0 0 1
    outer loop
      vertex 114.681 12.0345 51.54
      vertex 115.109 -12.6232 51.54
      vertex 115.109 12.6232 51.54
    endloop
  endfacet
  facet normal 0 0 1
    outer loop
      vertex 114.681 12.0345 51.54
      vertex 114.681 -12.0345 51.54
      vertex 115.109 -12.6232 51.54
    endloop
  endfacet
  facet normal -0 0 1
    outer loop
      vertex 114.051 11.6707 51.54
      vertex 114.681 -12.0345 51.54
      vertex 114.681 12.0345 51.54
    endloop
  endfacet
  facet normal 0 0 1
    outer loop
      vertex 114.051 11.6707 51.54
      vertex 114.051 -11.6707 51.54
      vertex 114.681 -12.0345 51.54
    endloop
  endfacet
  facet normal -0 0 1
    outer loop
      vertex 113.327 11.5946 51.54
      vertex 114.051 -11.6707 51.54
      vertex 114.051 11.6707 51.54
    endloop
  endfacet
  facet normal 0 0 1
    outer loop
      vertex 113.327 11.5946 51.54
      vertex 113.327 -11.5946 51.54
      vertex 114.051 -11.6707 51.54
    endloop
  endfacet
  facet normal 0 0 1
    outer loop
      vertex 102.23 0.915157 51.54
      vertex 113.327 11.5946 51.54
      vertex 112.635 11.8195 51.54
    endloop
  endfacet
  facet normal 0 0 1
    outer loop
      vertex 113.327 11.5946 51.54
      vertex 102.425 1.83691e-016 51.54
      vertex 113.327 -11.5946 51.54
    endloop
  endfacet
  facet normal 0 0 1
    outer loop
      vertex 101.681 1.67208 51.54
      vertex 112.635 11.8195 51.54
      vertex 112.094 12.3064 51.54
    endloop
  endfacet
  facet normal -0 0 1
    outer loop
      vertex 102.23 -0.915157 51.54
      vertex 113.327 -11.5946 51.54
      vertex 102.425 1.83691e-016 51.54
    endloop
  endfacet
  facet normal 0 0 1
    outer loop
      vertex 100.87 2.13988 51.54
      vertex 112.094 12.3064 51.54
      vertex 111.798 12.9712 51.54
    endloop
  endfacet
  facet normal 0 0 1
    outer loop
      vertex 113.327 -11.5946 51.54
      vertex 102.23 -0.915157 51.54
      vertex 112.635 -11.8195 51.54
    endloop
  endfacet
  facet normal 0 0 1
    outer loop
      vertex 115.109 12.6232 51.54
      vertex 116.175 16 51.54
      vertex 115.26 13.335 51.54
    endloop
  endfacet
  facet normal 0 0 1
    outer loop
      vertex 116.175 16 51.54
      vertex 115.109 14.0468 51.54
      vertex 115.26 13.335 51.54
    endloop
  endfacet
  facet normal 0 0 1
    outer loop
      vertex 116.175 16 51.54
      vertex 114.681 14.6355 51.54
      vertex 115.109 14.0468 51.54
    endloop
  endfacet
  facet normal 0 0 1
    outer loop
      vertex 116.175 16 51.54
      vertex 114.051 14.9993 51.54
      vertex 114.681 14.6355 51.54
    endloop
  endfacet
  facet normal 0 0 1
    outer loop
      vertex 116.175 16 51.54
      vertex 113.327 15.0754 51.54
      vertex 114.051 14.9993 51.54
    endloop
  endfacet
  facet normal 0 0 1
    outer loop
      vertex 99.9398 2.23767 51.54
      vertex 111.798 12.9712 51.54
      vertex 111.798 13.6988 51.54
    endloop
  endfacet
  facet normal -0 0 1
    outer loop
      vertex 101.681 -1.67208 51.54
      vertex 112.635 -11.8195 51.54
      vertex 102.23 -0.915157 51.54
    endloop
  endfacet
  facet normal 0 0 1
    outer loop
      vertex 112.635 -11.8195 51.54
      vertex 101.681 -1.67208 51.54
      vertex 112.094 -12.3064 51.54
    endloop
  endfacet
  facet normal -0 0 1
    outer loop
      vertex 88.4387 14.0468 51.54
      vertex 111.798 13.6988 51.54
      vertex 112.094 14.3636 51.54
    endloop
  endfacet
  facet normal 0 0 1
    outer loop
      vertex 113.327 11.5946 51.54
      vertex 102.23 0.915157 51.54
      vertex 102.425 1.83691e-016 51.54
    endloop
  endfacet
  facet normal 0 0 1
    outer loop
      vertex 112.635 11.8195 51.54
      vertex 101.681 1.67208 51.54
      vertex 102.23 0.915157 51.54
    endloop
  endfacet
  facet normal 0 0 1
    outer loop
      vertex 112.094 12.3064 51.54
      vertex 100.87 2.13988 51.54
      vertex 101.681 1.67208 51.54
    endloop
  endfacet
  facet normal 0 0 1
    outer loop
      vertex 111.798 12.9712 51.54
      vertex 99.9398 2.23767 51.54
      vertex 100.87 2.13988 51.54
    endloop
  endfacet
  facet normal 0 0 1
    outer loop
      vertex 111.798 13.6988 51.54
      vertex 88.59 13.335 51.54
      vertex 99.9398 2.23767 51.54
    endloop
  endfacet
  facet normal -0 0 1
    outer loop
      vertex 88.4387 12.6232 51.54
      vertex 99.9398 2.23767 51.54
      vertex 88.59 13.335 51.54
    endloop
  endfacet
  facet normal 0 0 1
    outer loop
      vertex 99.05 1.94856 51.54
      vertex 88.011 12.0345 51.54
      vertex 98.3547 1.32252 51.54
    endloop
  endfacet
  facet normal -0 0 1
    outer loop
      vertex 88.011 12.0345 51.54
      vertex 99.05 1.94856 51.54
      vertex 88.4387 12.6232 51.54
    endloop
  endfacet
  facet normal 0 0 1
    outer loop
      vertex 99.9398 2.23767 51.54
      vertex 88.4387 12.6232 51.54
      vertex 99.05 1.94856 51.54
    endloop
  endfacet
  facet normal -0 0 1
    outer loop
      vertex 88.011 14.6355 51.54
      vertex 112.094 14.3636 51.54
      vertex 112.635 14.8505 51.54
    endloop
  endfacet
  facet normal -0 0 1
    outer loop
      vertex 87.3808 14.9993 51.54
      vertex 112.635 14.8505 51.54
      vertex 113.327 15.0754 51.54
    endloop
  endfacet
  facet normal 0 0 1
    outer loop
      vertex 87.3808 14.9993 51.54
      vertex 113.327 15.0754 51.54
      vertex 116.175 16 51.54
    endloop
  endfacet
  facet normal 0 0 1
    outer loop
      vertex 111.798 13.6988 51.54
      vertex 88.4387 14.0468 51.54
      vertex 88.59 13.335 51.54
    endloop
  endfacet
  facet normal 0 0 1
    outer loop
      vertex 112.094 14.3636 51.54
      vertex 88.011 14.6355 51.54
      vertex 88.4387 14.0468 51.54
    endloop
  endfacet
  facet normal 0 0 1
    outer loop
      vertex 112.635 14.8505 51.54
      vertex 87.3808 14.9993 51.54
      vertex 88.011 14.6355 51.54
    endloop
  endfacet
  facet normal -0 0 1
    outer loop
      vertex 84.175 16 51.54
      vertex 87.3808 14.9993 51.54
      vertex 116.175 16 51.54
    endloop
  endfacet
  facet normal 0 0 1
    outer loop
      vertex 84.175 16 51.54
      vertex 85.1282 12.9712 51.54
      vertex 85.1282 13.6988 51.54
    endloop
  endfacet
  facet normal 0 0 1
    outer loop
      vertex 85.1282 12.9712 51.54
      vertex 84.175 16 51.54
      vertex 85.1282 -12.9712 51.54
    endloop
  endfacet
  facet normal 0 0 1
    outer loop
      vertex 84.175 -16 51.54
      vertex 85.1282 -12.9712 51.54
      vertex 84.175 16 51.54
    endloop
  endfacet
  facet normal 0 0 1
    outer loop
      vertex 85.4242 14.3636 51.54
      vertex 84.175 16 51.54
      vertex 85.1282 13.6988 51.54
    endloop
  endfacet
  facet normal 0 0 1
    outer loop
      vertex 85.965 14.8505 51.54
      vertex 84.175 16 51.54
      vertex 85.4242 14.3636 51.54
    endloop
  endfacet
  facet normal 0 0 1
    outer loop
      vertex 86.6571 15.0754 51.54
      vertex 84.175 16 51.54
      vertex 85.965 14.8505 51.54
    endloop
  endfacet
  facet normal 0 0 1
    outer loop
      vertex 87.3808 14.9993 51.54
      vertex 84.175 16 51.54
      vertex 86.6571 15.0754 51.54
    endloop
  endfacet
  facet normal 0 0 1
    outer loop
      vertex 116.175 16 51.54
      vertex 115.109 12.6232 51.54
      vertex 116.175 -16 51.54
    endloop
  endfacet
  facet normal -0 0 1
    outer loop
      vertex 115.109 -14.0468 51.54
      vertex 116.175 -16 51.54
      vertex 115.26 -13.335 51.54
    endloop
  endfacet
  facet normal -0 0 1
    outer loop
      vertex 114.681 -14.6355 51.54
      vertex 116.175 -16 51.54
      vertex 115.109 -14.0468 51.54
    endloop
  endfacet
  facet normal -0 0 1
    outer loop
      vertex 114.051 -14.9993 51.54
      vertex 116.175 -16 51.54
      vertex 114.681 -14.6355 51.54
    endloop
  endfacet
  facet normal -0 0 1
    outer loop
      vertex 113.327 -15.0754 51.54
      vertex 116.175 -16 51.54
      vertex 114.051 -14.9993 51.54
    endloop
  endfacet
  facet normal -0 0 1
    outer loop
      vertex 100.87 -2.13988 51.54
      vertex 112.094 -12.3064 51.54
      vertex 101.681 -1.67208 51.54
    endloop
  endfacet
  facet normal 0 0 1
    outer loop
      vertex 112.094 -12.3064 51.54
      vertex 100.87 -2.13988 51.54
      vertex 111.798 -12.9712 51.54
    endloop
  endfacet
  facet normal -0 0 1
    outer loop
      vertex 99.9398 -2.23767 51.54
      vertex 111.798 -12.9712 51.54
      vertex 100.87 -2.13988 51.54
    endloop
  endfacet
  facet normal 0 0 1
    outer loop
      vertex 111.798 -12.9712 51.54
      vertex 99.9398 -2.23767 51.54
      vertex 111.798 -13.6988 51.54
    endloop
  endfacet
  facet normal -0 0 1
    outer loop
      vertex 88.59 -13.335 51.54
      vertex 111.798 -13.6988 51.54
      vertex 99.9398 -2.23767 51.54
    endloop
  endfacet
  facet normal 0 0 1
    outer loop
      vertex 88.59 -13.335 51.54
      vertex 99.9398 -2.23767 51.54
      vertex 99.05 -1.94856 51.54
    endloop
  endfacet
  facet normal 0 0 1
    outer loop
      vertex 88.59 -13.335 51.54
      vertex 99.05 -1.94856 51.54
      vertex 98.3547 -1.32252 51.54
    endloop
  endfacet
  facet normal -0 0 1
    outer loop
      vertex 87.3808 11.6707 51.54
      vertex 98.3547 1.32252 51.54
      vertex 88.011 12.0345 51.54
    endloop
  endfacet
  facet normal 0 0 1
    outer loop
      vertex 97.9742 -0.467801 51.54
      vertex 88.59 -13.335 51.54
      vertex 98.3547 -1.32252 51.54
    endloop
  endfacet
  facet normal 0 0 1
    outer loop
      vertex 88.4387 -14.0468 51.54
      vertex 111.798 -13.6988 51.54
      vertex 88.59 -13.335 51.54
    endloop
  endfacet
  facet normal 0 0 1
    outer loop
      vertex 111.798 -13.6988 51.54
      vertex 88.4387 -14.0468 51.54
      vertex 112.094 -14.3636 51.54
    endloop
  endfacet
  facet normal 0 0 1
    outer loop
      vertex 88.011 -14.6355 51.54
      vertex 112.094 -14.3636 51.54
      vertex 88.4387 -14.0468 51.54
    endloop
  endfacet
  facet normal 0 0 1
    outer loop
      vertex 112.094 -14.3636 51.54
      vertex 88.011 -14.6355 51.54
      vertex 112.635 -14.8505 51.54
    endloop
  endfacet
  facet normal 0 0 1
    outer loop
      vertex 87.3808 -14.9993 51.54
      vertex 112.635 -14.8505 51.54
      vertex 88.011 -14.6355 51.54
    endloop
  endfacet
  facet normal 0 0 1
    outer loop
      vertex 112.635 -14.8505 51.54
      vertex 87.3808 -14.9993 51.54
      vertex 113.327 -15.0754 51.54
    endloop
  endfacet
  facet normal 0 0 1
    outer loop
      vertex 113.327 -15.0754 51.54
      vertex 87.3808 -14.9993 51.54
      vertex 116.175 -16 51.54
    endloop
  endfacet
  facet normal 0 0 1
    outer loop
      vertex 84.175 -16 51.54
      vertex 87.3808 -14.9993 51.54
      vertex 86.6571 -15.0754 51.54
    endloop
  endfacet
  facet normal 0 0 1
    outer loop
      vertex 87.3808 -14.9993 51.54
      vertex 84.175 -16 51.54
      vertex 116.175 -16 51.54
    endloop
  endfacet
  facet normal 0 0 1
    outer loop
      vertex 85.965 -14.8505 51.54
      vertex 84.175 -16 51.54
      vertex 86.6571 -15.0754 51.54
    endloop
  endfacet
  facet normal 0 0 1
    outer loop
      vertex 85.4242 -14.3636 51.54
      vertex 84.175 -16 51.54
      vertex 85.965 -14.8505 51.54
    endloop
  endfacet
  facet normal 0 0 1
    outer loop
      vertex 85.1282 -13.6988 51.54
      vertex 84.175 -16 51.54
      vertex 85.4242 -14.3636 51.54
    endloop
  endfacet
  facet normal 0 0 1
    outer loop
      vertex 85.1282 -12.9712 51.54
      vertex 84.175 -16 51.54
      vertex 85.1282 -13.6988 51.54
    endloop
  endfacet
  facet normal 1 -0 0
    outer loop
      vertex 116.175 -16 51.54
      vertex 116.175 16 48.54
      vertex 116.175 16 51.54
    endloop
  endfacet
  facet normal 1 0 0
    outer loop
      vertex 116.175 16 48.54
      vertex 116.175 -16 51.54
      vertex 116.175 -16 48.54
    endloop
  endfacet
  facet normal 0 1 -0
    outer loop
      vertex 116.175 16 48.54
      vertex 84.175 16 51.54
      vertex 116.175 16 51.54
    endloop
  endfacet
  facet normal 0 1 0
    outer loop
      vertex 84.175 16 51.54
      vertex 116.175 16 48.54
      vertex 84.175 16 48.54
    endloop
  endfacet
  facet normal -0 0 -1
    outer loop
      vertex 95.7981 -0.932232 48.54
      vertex 87.3808 -11.6707 48.54
      vertex 95.7973 -0.93051 48.54
    endloop
  endfacet
  facet normal 0 0 -1
    outer loop
      vertex 95.7973 0.93051 48.54
      vertex 88.4387 12.6232 48.54
      vertex 88.59 13.335 48.54
    endloop
  endfacet
  facet normal 0 0 -1
    outer loop
      vertex 86.6571 -11.5946 48.54
      vertex 95.7973 -0.93051 48.54
      vertex 87.3808 -11.6707 48.54
    endloop
  endfacet
  facet normal 0 0 -1
    outer loop
      vertex 95.7973 0.93051 48.54
      vertex 88.011 12.0345 48.54
      vertex 88.4387 12.6232 48.54
    endloop
  endfacet
  facet normal -0 0 -1
    outer loop
      vertex 95.7973 -0.93051 48.54
      vertex 86.6571 -11.5946 48.54
      vertex 95.7973 0.93051 48.54
    endloop
  endfacet
  facet normal 0 0 -1
    outer loop
      vertex 95.7973 0.93051 48.54
      vertex 87.3808 11.6707 48.54
      vertex 88.011 12.0345 48.54
    endloop
  endfacet
  facet normal 0 0 -1
    outer loop
      vertex 86.6571 11.5946 48.54
      vertex 95.7973 0.93051 48.54
      vertex 86.6571 -11.5946 48.54
    endloop
  endfacet
  facet normal 0 0 -1
    outer loop
      vertex 95.7973 0.93051 48.54
      vertex 86.6571 11.5946 48.54
      vertex 87.3808 11.6707 48.54
    endloop
  endfacet
  facet normal 0 0 -1
    outer loop
      vertex 85.965 -11.8195 48.54
      vertex 86.6571 11.5946 48.54
      vertex 86.6571 -11.5946 48.54
    endloop
  endfacet
  facet normal 0 0 -1
    outer loop
      vertex 85.965 -11.8195 48.54
      vertex 85.965 11.8195 48.54
      vertex 86.6571 11.5946 48.54
    endloop
  endfacet
  facet normal 0 0 -1
    outer loop
      vertex 85.4242 -12.3064 48.54
      vertex 85.965 11.8195 48.54
      vertex 85.965 -11.8195 48.54
    endloop
  endfacet
  facet normal 0 0 -1
    outer loop
      vertex 85.4242 -12.3064 48.54
      vertex 85.4242 12.3064 48.54
      vertex 85.965 11.8195 48.54
    endloop
  endfacet
  facet normal 0 0 -1
    outer loop
      vertex 85.1282 -12.9712 48.54
      vertex 85.4242 12.3064 48.54
      vertex 85.4242 -12.3064 48.54
    endloop
  endfacet
  facet normal -0 0 -1
    outer loop
      vertex 85.4242 12.3064 48.54
      vertex 85.1282 -12.9712 48.54
      vertex 85.1282 12.9712 48.54
    endloop
  endfacet
  facet normal 0 0 -1
    outer loop
      vertex 115.109 12.6232 48.54
      vertex 116.175 16 48.54
      vertex 115.109 -12.6232 48.54
    endloop
  endfacet
  facet normal 0 0 -1
    outer loop
      vertex 116.175 16 48.54
      vertex 115.109 12.6232 48.54
      vertex 115.26 13.335 48.54
    endloop
  endfacet
  facet normal 0 0 -1
    outer loop
      vertex 114.681 -12.0345 48.54
      vertex 115.109 12.6232 48.54
      vertex 115.109 -12.6232 48.54
    endloop
  endfacet
  facet normal 0 0 -1
    outer loop
      vertex 114.681 -12.0345 48.54
      vertex 114.681 12.0345 48.54
      vertex 115.109 12.6232 48.54
    endloop
  endfacet
  facet normal 0 0 -1
    outer loop
      vertex 114.051 -11.6707 48.54
      vertex 114.681 12.0345 48.54
      vertex 114.681 -12.0345 48.54
    endloop
  endfacet
  facet normal 0 0 -1
    outer loop
      vertex 114.051 -11.6707 48.54
      vertex 114.051 11.6707 48.54
      vertex 114.681 12.0345 48.54
    endloop
  endfacet
  facet normal 0 0 -1
    outer loop
      vertex 104.651 -1.83691e-016 48.54
      vertex 114.051 -11.6707 48.54
      vertex 113.327 -11.5946 48.54
    endloop
  endfacet
  facet normal 0 0 -1
    outer loop
      vertex 114.051 -11.6707 48.54
      vertex 104.651 -1.83691e-016 48.54
      vertex 114.051 11.6707 48.54
    endloop
  endfacet
  facet normal 0 0 -1
    outer loop
      vertex 104.264 -1.82035 48.54
      vertex 113.327 -11.5946 48.54
      vertex 112.635 -11.8195 48.54
    endloop
  endfacet
  facet normal 0 0 -1
    outer loop
      vertex 114.051 11.6707 48.54
      vertex 104.651 -1.83691e-016 48.54
      vertex 113.327 11.5946 48.54
    endloop
  endfacet
  facet normal 0 0 -1
    outer loop
      vertex 103.17 -3.32595 48.54
      vertex 112.635 -11.8195 48.54
      vertex 112.094 -12.3064 48.54
    endloop
  endfacet
  facet normal 0 0 -1
    outer loop
      vertex 104.65 0.00184477 48.54
      vertex 113.327 11.5946 48.54
      vertex 104.651 -1.83691e-016 48.54
    endloop
  endfacet
  facet normal 0 0 -1
    outer loop
      vertex 101.56 -4.25551 48.54
      vertex 112.094 -12.3064 48.54
      vertex 111.798 -12.9712 48.54
    endloop
  endfacet
  facet normal 0 0 -1
    outer loop
      vertex 104.264 1.82035 48.54
      vertex 113.327 11.5946 48.54
      vertex 104.65 0.00184477 48.54
    endloop
  endfacet
  facet normal 0 0 -1
    outer loop
      vertex 115.109 -12.6232 48.54
      vertex 116.175 -16 48.54
      vertex 115.26 -13.335 48.54
    endloop
  endfacet
  facet normal 0 0 -1
    outer loop
      vertex 116.175 -16 48.54
      vertex 115.109 -14.0468 48.54
      vertex 115.26 -13.335 48.54
    endloop
  endfacet
  facet normal 0 0 -1
    outer loop
      vertex 116.175 -16 48.54
      vertex 114.681 -14.6355 48.54
      vertex 115.109 -14.0468 48.54
    endloop
  endfacet
  facet normal 0 0 -1
    outer loop
      vertex 116.175 -16 48.54
      vertex 114.051 -14.9993 48.54
      vertex 114.681 -14.6355 48.54
    endloop
  endfacet
  facet normal 0 0 -1
    outer loop
      vertex 116.175 -16 48.54
      vertex 113.327 -15.0754 48.54
      vertex 114.051 -14.9993 48.54
    endloop
  endfacet
  facet normal 0 0 -1
    outer loop
      vertex 101.558 -4.25646 48.54
      vertex 111.798 -12.9712 48.54
      vertex 111.798 -13.6988 48.54
    endloop
  endfacet
  facet normal -0 0 -1
    outer loop
      vertex 113.327 11.5946 48.54
      vertex 104.264 1.82035 48.54
      vertex 112.635 11.8195 48.54
    endloop
  endfacet
  facet normal 0 0 -1
    outer loop
      vertex 103.171 3.32442 48.54
      vertex 112.635 11.8195 48.54
      vertex 104.264 1.82035 48.54
    endloop
  endfacet
  facet normal 0 0 -1
    outer loop
      vertex 88.4387 -14.0468 48.54
      vertex 111.798 -13.6988 48.54
      vertex 112.094 -14.3636 48.54
    endloop
  endfacet
  facet normal 0 0 -1
    outer loop
      vertex 113.327 -11.5946 48.54
      vertex 104.65 -0.00184477 48.54
      vertex 104.651 -1.83691e-016 48.54
    endloop
  endfacet
  facet normal 0 0 -1
    outer loop
      vertex 113.327 -11.5946 48.54
      vertex 104.264 -1.82035 48.54
      vertex 104.65 -0.00184477 48.54
    endloop
  endfacet
  facet normal 0 0 -1
    outer loop
      vertex 112.635 -11.8195 48.54
      vertex 103.171 -3.32442 48.54
      vertex 104.264 -1.82035 48.54
    endloop
  endfacet
  facet normal 0 0 -1
    outer loop
      vertex 112.635 -11.8195 48.54
      vertex 103.17 -3.32595 48.54
      vertex 103.171 -3.32442 48.54
    endloop
  endfacet
  facet normal 0 0 -1
    outer loop
      vertex 112.094 -12.3064 48.54
      vertex 101.56 -4.25551 48.54
      vertex 103.17 -3.32595 48.54
    endloop
  endfacet
  facet normal 0 0 -1
    outer loop
      vertex 111.798 -12.9712 48.54
      vertex 101.558 -4.25646 48.54
      vertex 101.56 -4.25551 48.54
    endloop
  endfacet
  facet normal 0 0 -1
    outer loop
      vertex 111.798 -13.6988 48.54
      vertex 101.556 -4.25665 48.54
      vertex 101.558 -4.25646 48.54
    endloop
  endfacet
  facet normal 0 0 -1
    outer loop
      vertex 111.798 -13.6988 48.54
      vertex 99.7072 -4.45099 48.54
      vertex 101.556 -4.25665 48.54
    endloop
  endfacet
  facet normal 0 0 -1
    outer loop
      vertex 88.011 -14.6355 48.54
      vertex 112.094 -14.3636 48.54
      vertex 112.635 -14.8505 48.54
    endloop
  endfacet
  facet normal -0 0 -1
    outer loop
      vertex 111.798 -13.6988 48.54
      vertex 88.4387 -14.0468 48.54
      vertex 99.7072 -4.45099 48.54
    endloop
  endfacet
  facet normal 0 -0 -1
    outer loop
      vertex 88.59 -13.335 48.54
      vertex 99.7072 -4.45099 48.54
      vertex 88.4387 -14.0468 48.54
    endloop
  endfacet
  facet normal 0 0 -1
    outer loop
      vertex 88.011 -12.0345 48.54
      vertex 97.9358 -3.87464 48.54
      vertex 88.4387 -12.6232 48.54
    endloop
  endfacet
  facet normal 0 0 -1
    outer loop
      vertex 87.3808 -11.6707 48.54
      vertex 96.5542 -2.63064 48.54
      vertex 88.011 -12.0345 48.54
    endloop
  endfacet
  facet normal -0 0 -1
    outer loop
      vertex 97.9358 -3.87464 48.54
      vertex 88.011 -12.0345 48.54
      vertex 96.5542 -2.63064 48.54
    endloop
  endfacet
  facet normal -0 0 -1
    outer loop
      vertex 97.9372 -3.8759 48.54
      vertex 88.4387 -12.6232 48.54
      vertex 97.9358 -3.87464 48.54
    endloop
  endfacet
  facet normal 0 0 -1
    outer loop
      vertex 88.4387 -12.6232 48.54
      vertex 97.9372 -3.8759 48.54
      vertex 88.59 -13.335 48.54
    endloop
  endfacet
  facet normal -0 0 -1
    outer loop
      vertex 99.7054 -4.4504 48.54
      vertex 88.59 -13.335 48.54
      vertex 97.9372 -3.8759 48.54
    endloop
  endfacet
  facet normal 0 0 -1
    outer loop
      vertex 87.3808 -14.9993 48.54
      vertex 112.635 -14.8505 48.54
      vertex 113.327 -15.0754 48.54
    endloop
  endfacet
  facet normal 0 0 -1
    outer loop
      vertex 87.3808 -14.9993 48.54
      vertex 113.327 -15.0754 48.54
      vertex 116.175 -16 48.54
    endloop
  endfacet
  facet normal -0 0 -1
    outer loop
      vertex 99.7072 -4.45099 48.54
      vertex 88.59 -13.335 48.54
      vertex 99.7054 -4.4504 48.54
    endloop
  endfacet
  facet normal -0 0 -1
    outer loop
      vertex 112.094 -14.3636 48.54
      vertex 88.011 -14.6355 48.54
      vertex 88.4387 -14.0468 48.54
    endloop
  endfacet
  facet normal -0 0 -1
    outer loop
      vertex 112.635 -14.8505 48.54
      vertex 87.3808 -14.9993 48.54
      vertex 88.011 -14.6355 48.54
    endloop
  endfacet
  facet normal 0 0 -1
    outer loop
      vertex 84.175 -16 48.54
      vertex 87.3808 -14.9993 48.54
      vertex 116.175 -16 48.54
    endloop
  endfacet
  facet normal 0 0 -1
    outer loop
      vertex 84.175 -16 48.54
      vertex 85.1282 -12.9712 48.54
      vertex 85.1282 -13.6988 48.54
    endloop
  endfacet
  facet normal -0 0 -1
    outer loop
      vertex 85.1282 -12.9712 48.54
      vertex 84.175 -16 48.54
      vertex 85.1282 12.9712 48.54
    endloop
  endfacet
  facet normal 0 0 -1
    outer loop
      vertex 84.175 16 48.54
      vertex 85.1282 12.9712 48.54
      vertex 84.175 -16 48.54
    endloop
  endfacet
  facet normal -0 0 -1
    outer loop
      vertex 85.4242 -14.3636 48.54
      vertex 84.175 -16 48.54
      vertex 85.1282 -13.6988 48.54
    endloop
  endfacet
  facet normal -0 0 -1
    outer loop
      vertex 85.965 -14.8505 48.54
      vertex 84.175 -16 48.54
      vertex 85.4242 -14.3636 48.54
    endloop
  endfacet
  facet normal -0 0 -1
    outer loop
      vertex 86.6571 -15.0754 48.54
      vertex 84.175 -16 48.54
      vertex 85.965 -14.8505 48.54
    endloop
  endfacet
  facet normal 0 0 -1
    outer loop
      vertex 87.3808 -14.9993 48.54
      vertex 84.175 -16 48.54
      vertex 86.6571 -15.0754 48.54
    endloop
  endfacet
  facet normal 0 0 -1
    outer loop
      vertex 116.175 -16 48.54
      vertex 115.109 -12.6232 48.54
      vertex 116.175 16 48.54
    endloop
  endfacet
  facet normal 0 0 -1
    outer loop
      vertex 115.109 14.0468 48.54
      vertex 116.175 16 48.54
      vertex 115.26 13.335 48.54
    endloop
  endfacet
  facet normal 0 0 -1
    outer loop
      vertex 114.681 14.6355 48.54
      vertex 116.175 16 48.54
      vertex 115.109 14.0468 48.54
    endloop
  endfacet
  facet normal 0 0 -1
    outer loop
      vertex 114.051 14.9993 48.54
      vertex 116.175 16 48.54
      vertex 114.681 14.6355 48.54
    endloop
  endfacet
  facet normal 0 0 -1
    outer loop
      vertex 113.327 15.0754 48.54
      vertex 116.175 16 48.54
      vertex 114.051 14.9993 48.54
    endloop
  endfacet
  facet normal 0 0 -1
    outer loop
      vertex 103.17 3.32595 48.54
      vertex 112.635 11.8195 48.54
      vertex 103.171 3.32442 48.54
    endloop
  endfacet
  facet normal -0 0 -1
    outer loop
      vertex 112.635 11.8195 48.54
      vertex 103.17 3.32595 48.54
      vertex 112.094 12.3064 48.54
    endloop
  endfacet
  facet normal 0 0 -1
    outer loop
      vertex 101.56 4.25551 48.54
      vertex 112.094 12.3064 48.54
      vertex 103.17 3.32595 48.54
    endloop
  endfacet
  facet normal -0 0 -1
    outer loop
      vertex 112.094 12.3064 48.54
      vertex 101.56 4.25551 48.54
      vertex 111.798 12.9712 48.54
    endloop
  endfacet
  facet normal 0 0 -1
    outer loop
      vertex 101.558 4.25646 48.54
      vertex 111.798 12.9712 48.54
      vertex 101.56 4.25551 48.54
    endloop
  endfacet
  facet normal -0 0 -1
    outer loop
      vertex 111.798 12.9712 48.54
      vertex 101.558 4.25646 48.54
      vertex 111.798 13.6988 48.54
    endloop
  endfacet
  facet normal 0 0 -1
    outer loop
      vertex 101.556 4.25665 48.54
      vertex 111.798 13.6988 48.54
      vertex 101.558 4.25646 48.54
    endloop
  endfacet
  facet normal 0 0 -1
    outer loop
      vertex 99.7072 4.45099 48.54
      vertex 111.798 13.6988 48.54
      vertex 101.556 4.25665 48.54
    endloop
  endfacet
  facet normal 0 0 -1
    outer loop
      vertex 88.4387 14.0468 48.54
      vertex 111.798 13.6988 48.54
      vertex 99.7072 4.45099 48.54
    endloop
  endfacet
  facet normal 0 0 -1
    outer loop
      vertex 111.798 13.6988 48.54
      vertex 88.4387 14.0468 48.54
      vertex 112.094 14.3636 48.54
    endloop
  endfacet
  facet normal 0 0 -1
    outer loop
      vertex 88.59 13.335 48.54
      vertex 99.7072 4.45099 48.54
      vertex 99.7054 4.4504 48.54
    endloop
  endfacet
  facet normal 0 0 -1
    outer loop
      vertex 88.59 13.335 48.54
      vertex 99.7054 4.4504 48.54
      vertex 97.9372 3.8759 48.54
    endloop
  endfacet
  facet normal 0 0 -1
    outer loop
      vertex 88.59 13.335 48.54
      vertex 95.7981 0.932232 48.54
      vertex 95.7973 0.93051 48.54
    endloop
  endfacet
  facet normal -0 0 -1
    outer loop
      vertex 96.5542 -2.63064 48.54
      vertex 87.3808 -11.6707 48.54
      vertex 95.7981 -0.932232 48.54
    endloop
  endfacet
  facet normal 0 0 -1
    outer loop
      vertex 95.7981 0.932232 48.54
      vertex 88.59 13.335 48.54
      vertex 96.5542 2.63064 48.54
    endloop
  endfacet
  facet normal 0 0 -1
    outer loop
      vertex 88.59 13.335 48.54
      vertex 96.5556 2.6319 48.54
      vertex 96.5542 2.63064 48.54
    endloop
  endfacet
  facet normal 0 0 -1
    outer loop
      vertex 88.59 13.335 48.54
      vertex 97.9372 3.8759 48.54
      vertex 96.5556 2.6319 48.54
    endloop
  endfacet
  facet normal 0 0 -1
    outer loop
      vertex 99.7072 4.45099 48.54
      vertex 88.59 13.335 48.54
      vertex 88.4387 14.0468 48.54
    endloop
  endfacet
  facet normal 0 0 -1
    outer loop
      vertex 88.011 14.6355 48.54
      vertex 112.094 14.3636 48.54
      vertex 88.4387 14.0468 48.54
    endloop
  endfacet
  facet normal 0 0 -1
    outer loop
      vertex 112.094 14.3636 48.54
      vertex 88.011 14.6355 48.54
      vertex 112.635 14.8505 48.54
    endloop
  endfacet
  facet normal 0 0 -1
    outer loop
      vertex 87.3808 14.9993 48.54
      vertex 112.635 14.8505 48.54
      vertex 88.011 14.6355 48.54
    endloop
  endfacet
  facet normal 0 0 -1
    outer loop
      vertex 112.635 14.8505 48.54
      vertex 87.3808 14.9993 48.54
      vertex 113.327 15.0754 48.54
    endloop
  endfacet
  facet normal -0 0 -1
    outer loop
      vertex 113.327 15.0754 48.54
      vertex 87.3808 14.9993 48.54
      vertex 116.175 16 48.54
    endloop
  endfacet
  facet normal 0 0 -1
    outer loop
      vertex 84.175 16 48.54
      vertex 87.3808 14.9993 48.54
      vertex 86.6571 15.0754 48.54
    endloop
  endfacet
  facet normal 0 0 -1
    outer loop
      vertex 87.3808 14.9993 48.54
      vertex 84.175 16 48.54
      vertex 116.175 16 48.54
    endloop
  endfacet
  facet normal 0 0 -1
    outer loop
      vertex 85.965 14.8505 48.54
      vertex 84.175 16 48.54
      vertex 86.6571 15.0754 48.54
    endloop
  endfacet
  facet normal 0 0 -1
    outer loop
      vertex 85.4242 14.3636 48.54
      vertex 84.175 16 48.54
      vertex 85.965 14.8505 48.54
    endloop
  endfacet
  facet normal 0 0 -1
    outer loop
      vertex 85.1282 13.6988 48.54
      vertex 84.175 16 48.54
      vertex 85.4242 14.3636 48.54
    endloop
  endfacet
  facet normal 0 0 -1
    outer loop
      vertex 85.1282 12.9712 48.54
      vertex 84.175 16 48.54
      vertex 85.1282 13.6988 48.54
    endloop
  endfacet
  facet normal 0 -1 0
    outer loop
      vertex 84.175 -16 48.54
      vertex 116.175 -16 51.54
      vertex 84.175 -16 51.54
    endloop
  endfacet
  facet normal 0 -1 -0
    outer loop
      vertex 116.175 -16 51.54
      vertex 84.175 -16 48.54
      vertex 116.175 -16 48.54
    endloop
  endfacet
  facet normal -0.978147 -0.207916 0
    outer loop
      vertex 115.26 13.335 48.54
      vertex 115.109 14.0468 51.54
      vertex 115.109 14.0468 48.54
    endloop
  endfacet
  facet normal -0.978147 -0.207916 0
    outer loop
      vertex 115.109 14.0468 51.54
      vertex 115.26 13.335 48.54
      vertex 115.26 13.335 51.54
    endloop
  endfacet
  facet normal 1 -0 0
    outer loop
      vertex 111.798 12.9712 51.54
      vertex 111.798 13.6988 48.54
      vertex 111.798 13.6988 51.54
    endloop
  endfacet
  facet normal 1 0 0
    outer loop
      vertex 111.798 13.6988 48.54
      vertex 111.798 12.9712 51.54
      vertex 111.798 12.9712 48.54
    endloop
  endfacet
  facet normal -0.104527 -0.994522 0
    outer loop
      vertex 113.327 15.0754 48.54
      vertex 114.051 14.9993 51.54
      vertex 113.327 15.0754 51.54
    endloop
  endfacet
  facet normal -0.104527 -0.994522 -0
    outer loop
      vertex 114.051 14.9993 51.54
      vertex 113.327 15.0754 48.54
      vertex 114.051 14.9993 48.54
    endloop
  endfacet
  facet normal -0.500002 0.866024 0
    outer loop
      vertex 114.681 12.0345 48.54
      vertex 114.051 11.6707 51.54
      vertex 114.681 12.0345 51.54
    endloop
  endfacet
  facet normal -0.500002 0.866024 0
    outer loop
      vertex 114.051 11.6707 51.54
      vertex 114.681 12.0345 48.54
      vertex 114.051 11.6707 48.54
    endloop
  endfacet
  facet normal -0.104527 0.994522 0
    outer loop
      vertex 114.051 11.6707 48.54
      vertex 113.327 11.5946 51.54
      vertex 114.051 11.6707 51.54
    endloop
  endfacet
  facet normal -0.104527 0.994522 0
    outer loop
      vertex 113.327 11.5946 51.54
      vertex 114.051 11.6707 48.54
      vertex 113.327 11.5946 48.54
    endloop
  endfacet
  facet normal -0.500002 -0.866024 0
    outer loop
      vertex 114.051 14.9993 48.54
      vertex 114.681 14.6355 51.54
      vertex 114.051 14.9993 51.54
    endloop
  endfacet
  facet normal -0.500002 -0.866024 -0
    outer loop
      vertex 114.681 14.6355 51.54
      vertex 114.051 14.9993 48.54
      vertex 114.681 14.6355 48.54
    endloop
  endfacet
  facet normal -0.809017 -0.587786 0
    outer loop
      vertex 115.109 14.0468 48.54
      vertex 114.681 14.6355 51.54
      vertex 114.681 14.6355 48.54
    endloop
  endfacet
  facet normal -0.809017 -0.587786 0
    outer loop
      vertex 114.681 14.6355 51.54
      vertex 115.109 14.0468 48.54
      vertex 115.109 14.0468 51.54
    endloop
  endfacet
  facet normal 0.309019 -0.951056 0
    outer loop
      vertex 112.635 14.8505 48.54
      vertex 113.327 15.0754 51.54
      vertex 112.635 14.8505 51.54
    endloop
  endfacet
  facet normal 0.309019 -0.951056 0
    outer loop
      vertex 113.327 15.0754 51.54
      vertex 112.635 14.8505 48.54
      vertex 113.327 15.0754 48.54
    endloop
  endfacet
  facet normal 0.669131 -0.743144 0
    outer loop
      vertex 112.094 14.3636 48.54
      vertex 112.635 14.8505 51.54
      vertex 112.094 14.3636 51.54
    endloop
  endfacet
  facet normal 0.669131 -0.743144 0
    outer loop
      vertex 112.635 14.8505 51.54
      vertex 112.094 14.3636 48.54
      vertex 112.635 14.8505 48.54
    endloop
  endfacet
  facet normal 0.913544 -0.406741 0
    outer loop
      vertex 111.798 13.6988 51.54
      vertex 112.094 14.3636 48.54
      vertex 112.094 14.3636 51.54
    endloop
  endfacet
  facet normal 0.913544 -0.406741 0
    outer loop
      vertex 112.094 14.3636 48.54
      vertex 111.798 13.6988 51.54
      vertex 111.798 13.6988 48.54
    endloop
  endfacet
  facet normal 0.913544 0.406741 0
    outer loop
      vertex 112.094 12.3064 51.54
      vertex 111.798 12.9712 48.54
      vertex 111.798 12.9712 51.54
    endloop
  endfacet
  facet normal 0.913544 0.406741 0
    outer loop
      vertex 111.798 12.9712 48.54
      vertex 112.094 12.3064 51.54
      vertex 112.094 12.3064 48.54
    endloop
  endfacet
  facet normal 0.309019 0.951056 -0
    outer loop
      vertex 113.327 11.5946 48.54
      vertex 112.635 11.8195 51.54
      vertex 113.327 11.5946 51.54
    endloop
  endfacet
  facet normal 0.309019 0.951056 0
    outer loop
      vertex 112.635 11.8195 51.54
      vertex 113.327 11.5946 48.54
      vertex 112.635 11.8195 48.54
    endloop
  endfacet
  facet normal -0.809016 0.587786 0
    outer loop
      vertex 114.681 12.0345 48.54
      vertex 115.109 12.6232 51.54
      vertex 115.109 12.6232 48.54
    endloop
  endfacet
  facet normal -0.809016 0.587786 0
    outer loop
      vertex 115.109 12.6232 51.54
      vertex 114.681 12.0345 48.54
      vertex 114.681 12.0345 51.54
    endloop
  endfacet
  facet normal -0.978147 0.207916 0
    outer loop
      vertex 115.109 12.6232 48.54
      vertex 115.26 13.335 51.54
      vertex 115.26 13.335 48.54
    endloop
  endfacet
  facet normal -0.978147 0.207916 0
    outer loop
      vertex 115.26 13.335 51.54
      vertex 115.109 12.6232 48.54
      vertex 115.109 12.6232 51.54
    endloop
  endfacet
  facet normal 0.669131 0.743144 -0
    outer loop
      vertex 112.635 11.8195 48.54
      vertex 112.094 12.3064 51.54
      vertex 112.635 11.8195 51.54
    endloop
  endfacet
  facet normal 0.669131 0.743144 0
    outer loop
      vertex 112.094 12.3064 51.54
      vertex 112.635 11.8195 48.54
      vertex 112.094 12.3064 48.54
    endloop
  endfacet
  facet normal -0.978147 -0.207916 0
    outer loop
      vertex 115.26 -13.335 48.54
      vertex 115.109 -12.6232 51.54
      vertex 115.109 -12.6232 48.54
    endloop
  endfacet
  facet normal -0.978147 -0.207916 0
    outer loop
      vertex 115.109 -12.6232 51.54
      vertex 115.26 -13.335 48.54
      vertex 115.26 -13.335 51.54
    endloop
  endfacet
  facet normal 1 -0 0
    outer loop
      vertex 111.798 -13.6988 51.54
      vertex 111.798 -12.9712 48.54
      vertex 111.798 -12.9712 51.54
    endloop
  endfacet
  facet normal 1 0 0
    outer loop
      vertex 111.798 -12.9712 48.54
      vertex 111.798 -13.6988 51.54
      vertex 111.798 -13.6988 48.54
    endloop
  endfacet
  facet normal -0.104527 -0.994522 0
    outer loop
      vertex 113.327 -11.5946 48.54
      vertex 114.051 -11.6707 51.54
      vertex 113.327 -11.5946 51.54
    endloop
  endfacet
  facet normal -0.104527 -0.994522 -0
    outer loop
      vertex 114.051 -11.6707 51.54
      vertex 113.327 -11.5946 48.54
      vertex 114.051 -11.6707 48.54
    endloop
  endfacet
  facet normal -0.104527 0.994522 0
    outer loop
      vertex 114.051 -14.9993 48.54
      vertex 113.327 -15.0754 51.54
      vertex 114.051 -14.9993 51.54
    endloop
  endfacet
  facet normal -0.104527 0.994522 0
    outer loop
      vertex 113.327 -15.0754 51.54
      vertex 114.051 -14.9993 48.54
      vertex 113.327 -15.0754 48.54
    endloop
  endfacet
  facet normal -0.500002 -0.866024 0
    outer loop
      vertex 114.051 -11.6707 48.54
      vertex 114.681 -12.0345 51.54
      vertex 114.051 -11.6707 51.54
    endloop
  endfacet
  facet normal -0.500002 -0.866024 -0
    outer loop
      vertex 114.681 -12.0345 51.54
      vertex 114.051 -11.6707 48.54
      vertex 114.681 -12.0345 48.54
    endloop
  endfacet
  facet normal -0.809016 -0.587786 0
    outer loop
      vertex 115.109 -12.6232 48.54
      vertex 114.681 -12.0345 51.54
      vertex 114.681 -12.0345 48.54
    endloop
  endfacet
  facet normal -0.809016 -0.587786 0
    outer loop
      vertex 114.681 -12.0345 51.54
      vertex 115.109 -12.6232 48.54
      vertex 115.109 -12.6232 51.54
    endloop
  endfacet
  facet normal 0.309019 -0.951056 0
    outer loop
      vertex 112.635 -11.8195 48.54
      vertex 113.327 -11.5946 51.54
      vertex 112.635 -11.8195 51.54
    endloop
  endfacet
  facet normal 0.309019 -0.951056 0
    outer loop
      vertex 113.327 -11.5946 51.54
      vertex 112.635 -11.8195 48.54
      vertex 113.327 -11.5946 48.54
    endloop
  endfacet
  facet normal 0.669131 -0.743144 0
    outer loop
      vertex 112.094 -12.3064 48.54
      vertex 112.635 -11.8195 51.54
      vertex 112.094 -12.3064 51.54
    endloop
  endfacet
  facet normal 0.669131 -0.743144 0
    outer loop
      vertex 112.635 -11.8195 51.54
      vertex 112.094 -12.3064 48.54
      vertex 112.635 -11.8195 48.54
    endloop
  endfacet
  facet normal 0.913544 -0.406741 0
    outer loop
      vertex 111.798 -12.9712 51.54
      vertex 112.094 -12.3064 48.54
      vertex 112.094 -12.3064 51.54
    endloop
  endfacet
  facet normal 0.913544 -0.406741 0
    outer loop
      vertex 112.094 -12.3064 48.54
      vertex 111.798 -12.9712 51.54
      vertex 111.798 -12.9712 48.54
    endloop
  endfacet
  facet normal -0.978147 0.207916 0
    outer loop
      vertex 115.109 -14.0468 48.54
      vertex 115.26 -13.335 51.54
      vertex 115.26 -13.335 48.54
    endloop
  endfacet
  facet normal -0.978147 0.207916 0
    outer loop
      vertex 115.26 -13.335 51.54
      vertex 115.109 -14.0468 48.54
      vertex 115.109 -14.0468 51.54
    endloop
  endfacet
  facet normal -0.500002 0.866024 0
    outer loop
      vertex 114.681 -14.6355 48.54
      vertex 114.051 -14.9993 51.54
      vertex 114.681 -14.6355 51.54
    endloop
  endfacet
  facet normal -0.500002 0.866024 0
    outer loop
      vertex 114.051 -14.9993 51.54
      vertex 114.681 -14.6355 48.54
      vertex 114.051 -14.9993 48.54
    endloop
  endfacet
  facet normal -0.809017 0.587786 0
    outer loop
      vertex 114.681 -14.6355 48.54
      vertex 115.109 -14.0468 51.54
      vertex 115.109 -14.0468 48.54
    endloop
  endfacet
  facet normal -0.809017 0.587786 0
    outer loop
      vertex 115.109 -14.0468 51.54
      vertex 114.681 -14.6355 48.54
      vertex 114.681 -14.6355 51.54
    endloop
  endfacet
  facet normal 0.913544 0.406741 0
    outer loop
      vertex 112.094 -14.3636 51.54
      vertex 111.798 -13.6988 48.54
      vertex 111.798 -13.6988 51.54
    endloop
  endfacet
  facet normal 0.913544 0.406741 0
    outer loop
      vertex 111.798 -13.6988 48.54
      vertex 112.094 -14.3636 51.54
      vertex 112.094 -14.3636 48.54
    endloop
  endfacet
  facet normal 0.309019 0.951056 -0
    outer loop
      vertex 113.327 -15.0754 48.54
      vertex 112.635 -14.8505 51.54
      vertex 113.327 -15.0754 51.54
    endloop
  endfacet
  facet normal 0.309019 0.951056 0
    outer loop
      vertex 112.635 -14.8505 51.54
      vertex 113.327 -15.0754 48.54
      vertex 112.635 -14.8505 48.54
    endloop
  endfacet
  facet normal 0.669131 0.743144 -0
    outer loop
      vertex 112.635 -14.8505 48.54
      vertex 112.094 -14.3636 51.54
      vertex 112.635 -14.8505 51.54
    endloop
  endfacet
  facet normal 0.669131 0.743144 0
    outer loop
      vertex 112.094 -14.3636 51.54
      vertex 112.635 -14.8505 48.54
      vertex 112.094 -14.3636 48.54
    endloop
  endfacet
  facet normal -0.978147 -0.207916 0
    outer loop
      vertex 88.59 13.335 48.54
      vertex 88.4387 14.0468 51.54
      vertex 88.4387 14.0468 48.54
    endloop
  endfacet
  facet normal -0.978147 -0.207916 0
    outer loop
      vertex 88.4387 14.0468 51.54
      vertex 88.59 13.335 48.54
      vertex 88.59 13.335 51.54
    endloop
  endfacet
  facet normal 1 -0 0
    outer loop
      vertex 85.1282 12.9712 51.54
      vertex 85.1282 13.6988 48.54
      vertex 85.1282 13.6988 51.54
    endloop
  endfacet
  facet normal 1 0 0
    outer loop
      vertex 85.1282 13.6988 48.54
      vertex 85.1282 12.9712 51.54
      vertex 85.1282 12.9712 48.54
    endloop
  endfacet
  facet normal -0.104527 -0.994522 0
    outer loop
      vertex 86.6571 15.0754 48.54
      vertex 87.3808 14.9993 51.54
      vertex 86.6571 15.0754 51.54
    endloop
  endfacet
  facet normal -0.104527 -0.994522 -0
    outer loop
      vertex 87.3808 14.9993 51.54
      vertex 86.6571 15.0754 48.54
      vertex 87.3808 14.9993 48.54
    endloop
  endfacet
  facet normal -0.809017 -0.587786 0
    outer loop
      vertex 88.4387 14.0468 48.54
      vertex 88.011 14.6355 51.54
      vertex 88.011 14.6355 48.54
    endloop
  endfacet
  facet normal -0.809017 -0.587786 0
    outer loop
      vertex 88.011 14.6355 51.54
      vertex 88.4387 14.0468 48.54
      vertex 88.4387 14.0468 51.54
    endloop
  endfacet
  facet normal -0.500002 0.866024 0
    outer loop
      vertex 88.011 12.0345 48.54
      vertex 87.3808 11.6707 51.54
      vertex 88.011 12.0345 51.54
    endloop
  endfacet
  facet normal -0.500002 0.866024 0
    outer loop
      vertex 87.3808 11.6707 51.54
      vertex 88.011 12.0345 48.54
      vertex 87.3808 11.6707 48.54
    endloop
  endfacet
  facet normal -0.104527 0.994522 0
    outer loop
      vertex 87.3808 11.6707 48.54
      vertex 86.6571 11.5946 51.54
      vertex 87.3808 11.6707 51.54
    endloop
  endfacet
  facet normal -0.104527 0.994522 0
    outer loop
      vertex 86.6571 11.5946 51.54
      vertex 87.3808 11.6707 48.54
      vertex 86.6571 11.5946 48.54
    endloop
  endfacet
  facet normal -0.500002 -0.866024 0
    outer loop
      vertex 87.3808 14.9993 48.54
      vertex 88.011 14.6355 51.54
      vertex 87.3808 14.9993 51.54
    endloop
  endfacet
  facet normal -0.500002 -0.866024 -0
    outer loop
      vertex 88.011 14.6355 51.54
      vertex 87.3808 14.9993 48.54
      vertex 88.011 14.6355 48.54
    endloop
  endfacet
  facet normal 0.309019 -0.951056 0
    outer loop
      vertex 85.965 14.8505 48.54
      vertex 86.6571 15.0754 51.54
      vertex 85.965 14.8505 51.54
    endloop
  endfacet
  facet normal 0.309019 -0.951056 0
    outer loop
      vertex 86.6571 15.0754 51.54
      vertex 85.965 14.8505 48.54
      vertex 86.6571 15.0754 48.54
    endloop
  endfacet
  facet normal 0.913547 -0.406732 0
    outer loop
      vertex 85.1282 13.6988 51.54
      vertex 85.4242 14.3636 48.54
      vertex 85.4242 14.3636 51.54
    endloop
  endfacet
  facet normal 0.913547 -0.406732 0
    outer loop
      vertex 85.4242 14.3636 48.54
      vertex 85.1282 13.6988 51.54
      vertex 85.1282 13.6988 48.54
    endloop
  endfacet
  facet normal 0.669126 -0.743149 0
    outer loop
      vertex 85.4242 14.3636 48.54
      vertex 85.965 14.8505 51.54
      vertex 85.4242 14.3636 51.54
    endloop
  endfacet
  facet normal 0.669126 -0.743149 0
    outer loop
      vertex 85.965 14.8505 51.54
      vertex 85.4242 14.3636 48.54
      vertex 85.965 14.8505 48.54
    endloop
  endfacet
  facet normal 0.913547 0.406732 0
    outer loop
      vertex 85.4242 12.3064 51.54
      vertex 85.1282 12.9712 48.54
      vertex 85.1282 12.9712 51.54
    endloop
  endfacet
  facet normal 0.913547 0.406732 0
    outer loop
      vertex 85.1282 12.9712 48.54
      vertex 85.4242 12.3064 51.54
      vertex 85.4242 12.3064 48.54
    endloop
  endfacet
  facet normal 0.309019 0.951056 -0
    outer loop
      vertex 86.6571 11.5946 48.54
      vertex 85.965 11.8195 51.54
      vertex 86.6571 11.5946 51.54
    endloop
  endfacet
  facet normal 0.309019 0.951056 0
    outer loop
      vertex 85.965 11.8195 51.54
      vertex 86.6571 11.5946 48.54
      vertex 85.965 11.8195 48.54
    endloop
  endfacet
  facet normal -0.809016 0.587786 0
    outer loop
      vertex 88.011 12.0345 48.54
      vertex 88.4387 12.6232 51.54
      vertex 88.4387 12.6232 48.54
    endloop
  endfacet
  facet normal -0.809016 0.587786 0
    outer loop
      vertex 88.4387 12.6232 51.54
      vertex 88.011 12.0345 48.54
      vertex 88.011 12.0345 51.54
    endloop
  endfacet
  facet normal -0.978147 0.207916 0
    outer loop
      vertex 88.4387 12.6232 48.54
      vertex 88.59 13.335 51.54
      vertex 88.59 13.335 48.54
    endloop
  endfacet
  facet normal -0.978147 0.207916 0
    outer loop
      vertex 88.59 13.335 51.54
      vertex 88.4387 12.6232 48.54
      vertex 88.4387 12.6232 51.54
    endloop
  endfacet
  facet normal 0.669126 0.743149 -0
    outer loop
      vertex 85.965 11.8195 48.54
      vertex 85.4242 12.3064 51.54
      vertex 85.965 11.8195 51.54
    endloop
  endfacet
  facet normal 0.669126 0.743149 0
    outer loop
      vertex 85.4242 12.3064 51.54
      vertex 85.965 11.8195 48.54
      vertex 85.4242 12.3064 48.54
    endloop
  endfacet
  facet normal -0.978147 -0.207916 0
    outer loop
      vertex 88.59 -13.335 48.54
      vertex 88.4387 -12.6232 51.54
      vertex 88.4387 -12.6232 48.54
    endloop
  endfacet
  facet normal -0.978147 -0.207916 0
    outer loop
      vertex 88.4387 -12.6232 51.54
      vertex 88.59 -13.335 48.54
      vertex 88.59 -13.335 51.54
    endloop
  endfacet
  facet normal 1 -0 0
    outer loop
      vertex 85.1282 -13.6988 51.54
      vertex 85.1282 -12.9712 48.54
      vertex 85.1282 -12.9712 51.54
    endloop
  endfacet
  facet normal 1 0 0
    outer loop
      vertex 85.1282 -12.9712 48.54
      vertex 85.1282 -13.6988 51.54
      vertex 85.1282 -13.6988 48.54
    endloop
  endfacet
  facet normal -0.104527 -0.994522 0
    outer loop
      vertex 86.6571 -11.5946 48.54
      vertex 87.3808 -11.6707 51.54
      vertex 86.6571 -11.5946 51.54
    endloop
  endfacet
  facet normal -0.104527 -0.994522 -0
    outer loop
      vertex 87.3808 -11.6707 51.54
      vertex 86.6571 -11.5946 48.54
      vertex 87.3808 -11.6707 48.54
    endloop
  endfacet
  facet normal 0.669126 -0.743149 0
    outer loop
      vertex 85.4242 -12.3064 48.54
      vertex 85.965 -11.8195 51.54
      vertex 85.4242 -12.3064 51.54
    endloop
  endfacet
  facet normal 0.669126 -0.743149 0
    outer loop
      vertex 85.965 -11.8195 51.54
      vertex 85.4242 -12.3064 48.54
      vertex 85.965 -11.8195 48.54
    endloop
  endfacet
  facet normal -0.809017 0.587786 0
    outer loop
      vertex 88.011 -14.6355 48.54
      vertex 88.4387 -14.0468 51.54
      vertex 88.4387 -14.0468 48.54
    endloop
  endfacet
  facet normal -0.809017 0.587786 0
    outer loop
      vertex 88.4387 -14.0468 51.54
      vertex 88.011 -14.6355 48.54
      vertex 88.011 -14.6355 51.54
    endloop
  endfacet
  facet normal -0.500002 0.866024 0
    outer loop
      vertex 88.011 -14.6355 48.54
      vertex 87.3808 -14.9993 51.54
      vertex 88.011 -14.6355 51.54
    endloop
  endfacet
  facet normal -0.500002 0.866024 0
    outer loop
      vertex 87.3808 -14.9993 51.54
      vertex 88.011 -14.6355 48.54
      vertex 87.3808 -14.9993 48.54
    endloop
  endfacet
  facet normal -0.104527 0.994522 0
    outer loop
      vertex 87.3808 -14.9993 48.54
      vertex 86.6571 -15.0754 51.54
      vertex 87.3808 -14.9993 51.54
    endloop
  endfacet
  facet normal -0.104527 0.994522 0
    outer loop
      vertex 86.6571 -15.0754 51.54
      vertex 87.3808 -14.9993 48.54
      vertex 86.6571 -15.0754 48.54
    endloop
  endfacet
  facet normal -0.500002 -0.866024 0
    outer loop
      vertex 87.3808 -11.6707 48.54
      vertex 88.011 -12.0345 51.54
      vertex 87.3808 -11.6707 51.54
    endloop
  endfacet
  facet normal -0.500002 -0.866024 -0
    outer loop
      vertex 88.011 -12.0345 51.54
      vertex 87.3808 -11.6707 48.54
      vertex 88.011 -12.0345 48.54
    endloop
  endfacet
  facet normal -0.809016 -0.587786 0
    outer loop
      vertex 88.4387 -12.6232 48.54
      vertex 88.011 -12.0345 51.54
      vertex 88.011 -12.0345 48.54
    endloop
  endfacet
  facet normal -0.809016 -0.587786 0
    outer loop
      vertex 88.011 -12.0345 51.54
      vertex 88.4387 -12.6232 48.54
      vertex 88.4387 -12.6232 51.54
    endloop
  endfacet
  facet normal 0.309019 -0.951056 0
    outer loop
      vertex 85.965 -11.8195 48.54
      vertex 86.6571 -11.5946 51.54
      vertex 85.965 -11.8195 51.54
    endloop
  endfacet
  facet normal 0.309019 -0.951056 0
    outer loop
      vertex 86.6571 -11.5946 51.54
      vertex 85.965 -11.8195 48.54
      vertex 86.6571 -11.5946 48.54
    endloop
  endfacet
  facet normal 0.913547 -0.406732 0
    outer loop
      vertex 85.1282 -12.9712 51.54
      vertex 85.4242 -12.3064 48.54
      vertex 85.4242 -12.3064 51.54
    endloop
  endfacet
  facet normal 0.913547 -0.406732 0
    outer loop
      vertex 85.4242 -12.3064 48.54
      vertex 85.1282 -12.9712 51.54
      vertex 85.1282 -12.9712 48.54
    endloop
  endfacet
  facet normal 0.913547 0.406732 0
    outer loop
      vertex 85.4242 -14.3636 51.54
      vertex 85.1282 -13.6988 48.54
      vertex 85.1282 -13.6988 51.54
    endloop
  endfacet
  facet normal 0.913547 0.406732 0
    outer loop
      vertex 85.1282 -13.6988 48.54
      vertex 85.4242 -14.3636 51.54
      vertex 85.4242 -14.3636 48.54
    endloop
  endfacet
  facet normal 0.309019 0.951056 -0
    outer loop
      vertex 86.6571 -15.0754 48.54
      vertex 85.965 -14.8505 51.54
      vertex 86.6571 -15.0754 51.54
    endloop
  endfacet
  facet normal 0.309019 0.951056 0
    outer loop
      vertex 85.965 -14.8505 51.54
      vertex 86.6571 -15.0754 48.54
      vertex 85.965 -14.8505 48.54
    endloop
  endfacet
  facet normal 0.669126 0.743149 -0
    outer loop
      vertex 85.965 -14.8505 48.54
      vertex 85.4242 -14.3636 51.54
      vertex 85.965 -14.8505 51.54
    endloop
  endfacet
  facet normal 0.669126 0.743149 0
    outer loop
      vertex 85.4242 -14.3636 51.54
      vertex 85.965 -14.8505 48.54
      vertex 85.4242 -14.3636 48.54
    endloop
  endfacet
  facet normal -0.978147 0.207916 0
    outer loop
      vertex 88.4387 -14.0468 48.54
      vertex 88.59 -13.335 51.54
      vertex 88.59 -13.335 48.54
    endloop
  endfacet
  facet normal -0.978147 0.207916 0
    outer loop
      vertex 88.59 -13.335 51.54
      vertex 88.4387 -14.0468 48.54
      vertex 88.4387 -14.0468 51.54
    endloop
  endfacet
endsolid OpenSCAD_Model
