  0
SECTION
  2
HEADER
  9
$ACADVER
  1
AC1014
  9
$HANDSEED
  5
FFFF
  9
$MEASUREMENT
 70
     1
  0
ENDSEC
  0
SECTION
  2
TABLES
  0
TABLE
  2
VPORT
  5
8
330
0
100
AcDbSymbolTable
 70
     4
  0
VPORT
  5
2E
330
8
100
AcDbSymbolTableRecord
100
AcDbViewportTableRecord
  2
*ACTIVE
 70
     0
 10
0.0
 20
0.0
 11
1.0
 21
1.0
 12
210.0
 22
148.5
 13
0.0
 23
0.0
 14
10.0
 24
10.0
 15
10.0
 25
10.0
 16
0.0
 26
0.0
 36
1.0
 17
0.0
 27
0.0
 37
0.0
 40
341.0
 41
1.24
 42
50.0
 43
0.0
 44
0.0
 50
0.0
 51
0.0
 71
     0
 72
   100
 73
     1
 74
     3
 75
     0
 76
     0
 77
     0
 78
     0
  0
ENDTAB
  0
TABLE
  2
LTYPE
  5
5
330
0
100
AcDbSymbolTable
 70
     1
  0
LTYPE
  5
14
330
5
100
AcDbSymbolTableRecord
100
AcDbLinetypeTableRecord
  2
BYBLOCK
 70
     0
  3

 72
    65
 73
     0
 40
0.0
  0
LTYPE
  5
15
330
5
100
AcDbSymbolTableRecord
100
AcDbLinetypeTableRecord
  2
BYLAYER
 70
     0
  3

 72
    65
 73
     0
 40
0.0
  0
LTYPE
  5
16
330
5
100
AcDbSymbolTableRecord
100
AcDbLinetypeTableRecord
  2
CONTINUOUS
 70
     0
  3
Solid line
 72
    65
 73
     0
 40
0.0
  0
ENDTAB
  0
TABLE
  2
LAYER
  5
2
100
AcDbSymbolTable
 70
1
  0
LAYER
  5
50
100
AcDbSymbolTableRecord
100
AcDbLayerTableRecord
  2
0
 70
0
  6
CONTINUOUS
  0
ENDTAB
  0
TABLE
  2
STYLE
  5
3
330
0
100
AcDbSymbolTable
 70
     1
  0
STYLE
  5
11
330
3
100
AcDbSymbolTableRecord
100
AcDbTextStyleTableRecord
  2
STANDARD
 70
     0
 40
0.0
 41
1.0
 50
0.0
 71
     0
 42
2.5
  3
txt
  4

  0
ENDTAB
  0
TABLE
  2
VIEW
  5
6
330
0
100
AcDbSymbolTable
 70
     0
  0
ENDTAB
  0
TABLE
  2
UCS
  5
7
330
0
100
AcDbSymbolTable
 70
     0
  0
ENDTAB
  0
TABLE
  2
APPID
  5
9
330
0
100
AcDbSymbolTable
 70
     2
  0
APPID
  5
12
330
9
100
AcDbSymbolTableRecord
100
AcDbRegAppTableRecord
  2
ACAD
 70
     0
  0
ENDTAB
  0
TABLE
  2
DIMSTYLE
  5
A
330
0
100
AcDbSymbolTable
 70
     1
  0
DIMSTYLE
105
27
330
A
100
AcDbSymbolTableRecord
100
AcDbDimStyleTableRecord
  2
ISO-25
 70
     0
  3

  4

  5

  6

  7

 40
1.0
 41
2.5
 42
0.625
 43
3.75
 44
1.25
 45
0.0
 46
0.0
 47
0.0
 48
0.0
140
2.5
141
2.5
142
0.0
143
0.03937007874016
144
1.0
145
0.0
146
1.0
147
0.625
 71
     0
 72
     0
 73
     0
 74
     0
 75
     0
 76
     0
 77
     1
 78
     8
170
     0
171
     3
172
     1
173
     0
174
     0
175
     0
176
     0
177
     0
178
     0
270
     2
271
     2
272
     2
273
     2
274
     3
340
11
275
     0
280
     0
281
     0
282
     0
283
     0
284
     8
285
     0
286
     0
287
     3
288
     0
  0
ENDTAB
  0
TABLE
  2
BLOCK_RECORD
  5
1
330
0
100
AcDbSymbolTable
 70
     1
  0
BLOCK_RECORD
  5
1F
330
1
100
AcDbSymbolTableRecord
100
AcDbBlockTableRecord
  2
*MODEL_SPACE
  0
BLOCK_RECORD
  5
1B
330
1
100
AcDbSymbolTableRecord
100
AcDbBlockTableRecord
  2
*PAPER_SPACE
  0
ENDTAB
  0
ENDSEC
  0
SECTION
  2
BLOCKS
  0
BLOCK
  5
20
330
1F
100
AcDbEntity
  8
0
100
AcDbBlockBegin
  2
*MODEL_SPACE
 70
     0
 10
0.0
 20
0.0
 30
0.0
  3
*MODEL_SPACE
  1

  0
ENDBLK
  5
21
330
1F
100
AcDbEntity
  8
0
100
AcDbBlockEnd
  0
BLOCK
  5
1C
330
1B
100
AcDbEntity
 67
     1
  8
0
100
AcDbBlockBegin
  2
*PAPER_SPACE
  1

  0
ENDBLK
  5
1D
330
1B
100
AcDbEntity
 67
     1
  8
0
100
AcDbBlockEnd
  0
ENDSEC
  0
SECTION
  2
ENTITIES
  0
LWPOLYLINE
  5
100
100
AcDbEntity
  8
0
 62
7
100
AcDbPolyline
 90
403
 70
1
 10
117.830340
 20
0.799650
 30
0.0
 10
101.461833
 20
3.522347
 30
0.0
 10
85.031033
 20
8.450325
 30
0.0
 10
65.720724
 20
16.615659
 30
0.0
 10
40.713688
 20
29.050425
 30
0.0
 10
27.187179
 20
36.246354
 30
0.0
 10
18.214571
 20
41.587313
 30
0.0
 10
12.486460
 20
45.936415
 30
0.0
 10
8.693443
 20
50.156775
 30
0.0
 10
4.979684
 20
55.993612
 30
0.0
 10
2.322699
 20
62.167015
 30
0.0
 10
0.721776
 20
69.009122
 30
0.0
 10
0.176201
 20
76.852071
 30
0.0
 10
0.685262
 20
86.027997
 30
0.0
 10
2.248247
 20
96.869038
 30
0.0
 10
8.533138
 20
124.875015
 30
0.0
 10
11.881064
 20
137.084599
 30
0.0
 10
15.540254
 20
147.941235
 30
0.0
 10
20.403442
 20
159.827258
 30
0.0
 10
27.363365
 20
175.125000
 30
0.0
 10
35.963952
 20
194.112324
 30
0.0
 10
42.124098
 20
209.203093
 30
0.0
 10
46.471518
 20
222.067316
 30
0.0
 10
49.633925
 20
234.375000
 30
0.0
 10
50.552727
 20
239.324205
 30
0.0
 10
51.066048
 20
245.691726
 30
0.0
 10
51.427835
 20
275.250000
 30
0.0
 10
52.080447
 20
309.365423
 30
0.0
 10
53.920234
 20
338.556798
 30
0.0
 10
57.236414
 20
366.001024
 30
0.0
 10
62.318203
 20
394.875000
 30
0.0
 10
67.309493
 20
417.540219
 30
0.0
 10
73.216229
 20
439.858765
 30
0.0
 10
79.932996
 20
461.554713
 30
0.0
 10
87.354383
 20
482.352137
 30
0.0
 10
95.374977
 20
501.975112
 30
0.0
 10
103.889364
 20
520.147714
 30
0.0
 10
112.792133
 20
536.594017
 30
0.0
 10
121.977870
 20
551.038095
 30
0.0
 10
128.479970
 20
559.831133
 30
0.0
 10
135.983437
 20
568.997863
 30
0.0
 10
153.524866
 20
587.978386
 30
0.0
 10
173.662948
 20
607.031624
 30
0.0
 10
195.458475
 20
625.209540
 30
0.0
 10
218.269334
 20
641.336810
 30
0.0
 10
241.875000
 20
656.330554
 30
0.0
 10
257.456388
 20
664.609110
 30
0.0
 10
273.301288
 20
671.890999
 30
0.0
 10
288.641291
 20
677.849958
 30
0.0
 10
302.707988
 20
682.159730
 30
0.0
 10
313.369341
 20
684.591434
 30
0.0
 10
323.785838
 20
686.134815
 30
0.0
 10
336.205163
 20
687.029885
 30
0.0
 10
352.875000
 20
687.516657
 30
0.0
 10
376.378042
 20
687.520898
 30
0.0
 10
404.575244
 20
686.762533
 30
0.0
 10
474.069052
 20
683.023591
 30
0.0
 10
559.390284
 20
676.431041
 30
0.0
 10
658.572795
 20
667.116095
 30
0.0
 10
685.657998
 20
664.816479
 30
0.0
 10
695.727552
 20
664.696238
 30
0.0
 10
704.807749
 20
665.445162
 30
0.0
 10
713.893094
 20
667.200344
 30
0.0
 10
723.978093
 20
670.098875
 30
0.0
 10
751.125075
 20
679.874352
 30
0.0
 10
780.706969
 20
690.488668
 30
0.0
 10
802.783706
 20
696.880941
 30
0.0
 10
812.283295
 20
698.791854
 30
0.0
 10
821.437378
 20
700.004906
 30
0.0
 10
840.750075
 20
700.814299
 30
0.0
 10
852.607866
 20
700.490286
 30
0.0
 10
863.926982
 20
699.474451
 30
0.0
 10
875.136992
 20
697.648531
 30
0.0
 10
886.667466
 20
694.894266
 30
0.0
 10
898.947974
 20
691.093395
 30
0.0
 10
912.408086
 20
686.127656
 30
0.0
 10
944.585400
 20
672.228530
 30
0.0
 10
973.170563
 20
659.469474
 30
0.0
 10
991.875075
 20
652.268600
 30
0.0
 10
1026.375075
 20
637.860447
 30
0.0
 10
1071.525656
 20
618.273107
 30
0.0
 10
1087.284480
 20
612.302995
 30
0.0
 10
1105.046325
 20
606.251287
 30
0.0
 10
1139.835150
 20
594.335880
 30
0.0
 10
1148.295300
 20
591.132337
 30
0.0
 10
1150.456950
 20
595.378672
 30
0.0
 10
1153.399925
 20
599.960313
 30
0.0
 10
1156.993575
 20
603.605961
 30
0.0
 10
1161.076192
 20
606.275171
 30
0.0
 10
1165.486069
 20
607.927498
 30
0.0
 10
1170.061496
 20
608.522498
 30
0.0
 10
1174.640766
 20
608.019724
 30
0.0
 10
1179.062170
 20
606.378734
 30
0.0
 10
1183.164000
 20
603.559080
 30
0.0
 10
1185.646378
 20
600.994797
 30
0.0
 10
1187.636527
 20
598.112527
 30
0.0
 10
1189.131738
 20
594.925374
 30
0.0
 10
1190.129306
 20
591.446441
 30
0.0
 10
1190.620683
 20
583.665655
 30
0.0
 10
1189.089000
 20
574.875000
 30
0.0
 10
1189.354116
 20
573.375000
 30
0.0
 10
1191.514800
 20
571.875000
 30
0.0
 10
1206.165900
 20
561.937500
 30
0.0
 10
1218.364125
 20
553.500000
 30
0.0
 10
1218.750075
 20
558.023663
 30
0.0
 10
1219.102535
 20
562.247869
 30
0.0
 10
1220.107229
 20
566.591590
 30
0.0
 10
1223.757197
 20
575.080675
 30
0.0
 10
1229.067735
 20
582.377113
 30
0.0
 10
1232.148142
 20
585.230025
 30
0.0
 10
1235.406600
 20
587.367097
 30
0.0
 10
1238.108327
 20
588.417756
 30
0.0
 10
1241.036870
 20
588.904757
 30
0.0
 10
1247.300634
 20
588.260004
 30
0.0
 10
1253.650363
 20
585.577278
 30
0.0
 10
1259.538525
 20
581.001015
 30
0.0
 10
1262.955331
 20
576.886205
 30
0.0
 10
1265.397286
 20
572.288411
 30
0.0
 10
1266.864463
 20
567.114841
 30
0.0
 10
1267.356937
 20
561.272697
 30
0.0
 10
1266.874782
 20
554.669187
 30
0.0
 10
1265.418070
 20
547.211514
 30
0.0
 10
1262.986877
 20
538.806884
 30
0.0
 10
1259.581275
 20
529.362503
 30
0.0
 10
1258.213275
 20
525.850013
 30
0.0
 10
1265.785350
 20
517.988407
 30
0.0
 10
1272.029344
 20
510.922203
 30
0.0
 10
1276.361625
 20
505.000905
 30
0.0
 10
1279.250138
 20
499.438469
 30
0.0
 10
1281.916083
 20
493.025442
 30
0.0
 10
1286.484281
 20
478.036194
 30
0.0
 10
1289.874239
 20
460.810326
 30
0.0
 10
1291.893975
 20
442.125000
 30
0.0
 10
1292.070219
 20
436.061345
 30
0.0
 10
1291.673128
 20
428.764632
 30
0.0
 10
1288.469400
 20
402.489833
 30
0.0
 10
1286.249775
 20
382.665195
 30
0.0
 10
1286.979111
 20
378.110256
 30
0.0
 10
1289.317697
 20
370.327100
 30
0.0
 10
1299.726075
 20
342.375000
 30
0.0
 10
1309.462875
 20
317.165835
 30
0.0
 10
1312.323216
 20
310.940872
 30
0.0
 10
1316.052450
 20
305.165835
 30
0.0
 10
1320.551030
 20
298.617880
 30
0.0
 10
1322.879006
 20
293.492573
 30
0.0
 10
1323.224705
 20
289.121002
 30
0.0
 10
1321.776450
 20
284.834250
 30
0.0
 10
1320.096914
 20
282.210774
 30
0.0
 10
1317.657412
 20
280.332889
 30
0.0
 10
1313.503523
 20
278.691113
 30
0.0
 10
1306.680825
 20
276.775965
 30
0.0
 10
1304.869811
 20
276.190275
 30
0.0
 10
1303.627997
 20
275.314141
 30
0.0
 10
1301.228850
 20
270.958642
 30
0.0
 10
1297.123022
 20
263.648501
 30
0.0
 10
1294.988696
 20
261.194090
 30
0.0
 10
1292.725425
 20
259.438950
 30
0.0
 10
1289.741808
 20
258.121604
 30
0.0
 10
1286.614388
 20
258.327083
 30
0.0
 10
1282.345486
 20
260.356909
 30
0.0
 10
1275.937425
 20
264.512603
 30
0.0
 10
1258.124775
 20
275.786677
 30
0.0
 10
1249.874775
 20
280.548165
 30
0.0
 10
1249.650525
 20
273.211582
 30
0.0
 10
1250.213025
 20
261.313567
 30
0.0
 10
1250.935902
 20
254.161259
 30
0.0
 10
1250.792916
 20
247.216639
 30
0.0
 10
1249.878278
 20
241.598714
 30
0.0
 10
1248.286200
 20
238.426492
 30
0.0
 10
1247.022830
 20
238.164028
 30
0.0
 10
1244.238994
 20
239.584582
 30
0.0
 10
1228.499775
 20
251.055495
 30
0.0
 10
1189.846931
 20
281.454994
 30
0.0
 10
1143.467250
 20
320.372093
 30
0.0
 10
1135.689705
 20
326.817276
 30
0.0
 10
1129.936838
 20
330.587924
 30
0.0
 10
1124.246688
 20
332.691141
 30
0.0
 10
1116.657300
 20
334.134030
 30
0.0
 10
1104.395933
 20
335.195795
 30
0.0
 10
1086.358416
 20
335.790762
 30
0.0
 10
1066.429928
 20
335.851801
 30
0.0
 10
1048.495650
 20
335.311778
 30
0.0
 10
1011.113016
 20
332.328909
 30
0.0
 10
997.411091
 20
330.629313
 30
0.0
 10
990.648525
 20
329.174287
 30
0.0
 10
989.631844
 20
328.114347
 30
0.0
 10
988.909350
 20
326.457285
 30
0.0
 10
985.373985
 20
317.916371
 30
0.0
 10
978.668053
 20
305.902820
 30
0.0
 10
970.180557
 20
292.720103
 30
0.0
 10
961.300500
 20
280.671690
 30
0.0
 10
956.508309
 20
274.131117
 30
0.0
 10
955.654600
 20
271.946772
 30
0.0
 10
955.257225
 20
269.421690
 30
0.0
 10
952.495350
 20
253.125000
 30
0.0
 10
948.049416
 20
228.030243
 30
0.0
 10
946.746450
 20
211.875000
 30
0.0
 10
946.700700
 20
200.599439
 30
0.0
 10
947.961300
 20
192.000000
 30
0.0
 10
952.851600
 20
173.077692
 30
0.0
 10
960.016425
 20
150.750015
 30
0.0
 10
977.829469
 20
103.884111
 30
0.0
 10
986.929603
 20
81.224359
 30
0.0
 10
991.801650
 20
70.131375
 30
0.0
 10
994.686819
 20
67.003597
 30
0.0
 10
999.628734
 20
63.359747
 30
0.0
 10
1016.175750
 20
54.201600
 30
0.0
 10
1027.724109
 20
48.152044
 30
0.0
 10
1035.056025
 20
43.774350
 30
0.0
 10
1038.156836
 20
41.065098
 30
0.0
 10
1040.771484
 20
37.997203
 30
0.0
 10
1042.576147
 20
35.014063
 30
0.0
 10
1043.247000
 20
32.559075
 30
0.0
 10
1042.714976
 20
30.285035
 30
0.0
 10
1041.235069
 20
28.020375
 30
0.0
 10
1038.964652
 20
25.947640
 30
0.0
 10
1036.061100
 20
24.249375
 30
0.0
 10
1031.146082
 20
22.490864
 30
0.0
 10
1025.446284
 20
22.067250
 30
0.0
 10
1016.819814
 20
23.064286
 30
0.0
 10
1003.124775
 20
25.567725
 30
0.0
 10
982.874775
 20
29.494125
 30
0.0
 10
962.249775
 20
29.745975
 30
0.0
 10
942.641612
 20
30.363191
 30
0.0
 10
935.651668
 20
31.060117
 30
0.0
 10
930.037566
 20
32.145928
 30
0.0
 10
925.424119
 20
33.718130
 30
0.0
 10
921.436143
 20
35.874226
 30
0.0
 10
917.698448
 20
38.711723
 30
0.0
 10
913.835850
 20
42.328125
 30
0.0
 10
906.435023
 20
50.480448
 30
0.0
 10
898.377225
 20
60.900386
 30
0.0
 10
889.398108
 20
73.952166
 30
0.0
 10
879.233325
 20
90.000015
 30
0.0
 10
860.233266
 20
121.248962
 30
0.0
 10
852.199425
 20
135.375015
 30
0.0
 10
847.241227
 20
146.655566
 30
0.0
 10
842.023856
 20
161.175539
 30
0.0
 10
836.568239
 20
178.871780
 30
0.0
 10
830.895300
 20
199.681132
 30
0.0
 10
826.365300
 20
215.056132
 30
0.0
 10
811.751625
 20
196.500000
 30
0.0
 10
798.768075
 20
173.625000
 30
0.0
 10
781.406597
 20
143.153676
 30
0.0
 10
774.632490
 20
132.474230
 30
0.0
 10
768.209700
 20
123.318090
 30
0.0
 10
762.668621
 20
115.294578
 30
0.0
 10
758.358272
 20
107.891040
 30
0.0
 10
755.250955
 20
101.054333
 30
0.0
 10
753.318975
 20
94.731315
 30
0.0
 10
752.426026
 20
86.022255
 30
0.0
 10
752.835900
 20
82.204801
 30
0.0
 10
753.790397
 20
78.813471
 30
0.0
 10
755.269808
 20
75.899316
 30
0.0
 10
757.254425
 20
73.513392
 30
0.0
 10
759.724542
 20
71.706752
 30
0.0
 10
762.660450
 20
70.530450
 30
0.0
 10
775.306500
 20
69.009675
 30
0.0
 10
785.097413
 20
68.020165
 30
0.0
 10
792.189731
 20
66.741094
 30
0.0
 10
797.448947
 20
64.957882
 30
0.0
 10
801.740550
 20
62.455950
 30
0.0
 10
804.315792
 20
60.181773
 30
0.0
 10
806.470594
 20
57.480891
 30
0.0
 10
807.950255
 20
54.734994
 30
0.0
 10
808.500075
 20
52.325775
 30
0.0
 10
807.592498
 20
48.215849
 30
0.0
 10
804.978112
 20
44.226291
 30
0.0
 10
800.819440
 20
40.541256
 30
0.0
 10
795.279000
 20
37.344900
 30
0.0
 10
790.678734
 20
35.611075
 30
0.0
 10
785.847112
 20
34.779759
 30
0.0
 10
780.120609
 20
34.799971
 30
0.0
 10
772.835700
 20
35.620725
 30
0.0
 10
761.546781
 20
36.657234
 30
0.0
 10
745.500045
 20
37.150875
 30
0.0
 10
725.044026
 20
38.070652
 30
0.0
 10
705.173323
 20
40.144087
 30
0.0
 10
687.974425
 20
43.088723
 30
0.0
 10
675.533820
 20
46.622100
 30
0.0
 10
673.412956
 20
48.163785
 30
0.0
 10
671.516108
 20
50.936297
 30
0.0
 10
669.915584
 20
54.802436
 30
0.0
 10
668.683695
 20
59.625000
 30
0.0
 10
665.652326
 20
82.608561
 30
0.0
 10
664.206870
 20
105.750015
 30
0.0
 10
664.356859
 20
113.488370
 30
0.0
 10
665.144379
 20
120.530096
 30
0.0
 10
670.529070
 20
144.000015
 30
0.0
 10
673.205945
 20
156.008076
 30
0.0
 10
674.791929
 20
167.397353
 30
0.0
 10
675.540702
 20
180.869207
 30
0.0
 10
675.705945
 20
199.125000
 30
0.0
 10
675.110126
 20
231.903936
 30
0.0
 10
674.081295
 20
250.168718
 30
0.0
 10
667.056195
 20
247.425833
 30
0.0
 10
650.922538
 20
240.594028
 30
0.0
 10
634.315570
 20
234.808357
 30
0.0
 10
617.129546
 20
230.049976
 30
0.0
 10
599.258721
 20
226.300042
 30
0.0
 10
580.597349
 20
223.539709
 30
0.0
 10
561.039685
 20
221.750133
 30
0.0
 10
540.479984
 20
220.912471
 30
0.0
 10
518.812500
 20
221.007878
 30
0.0
 10
499.500000
 20
221.010877
 30
0.0
 10
501.326693
 20
215.078363
 30
0.0
 10
503.311185
 20
207.428616
 30
0.0
 10
504.728843
 20
198.277988
 30
0.0
 10
505.579652
 20
188.012985
 30
0.0
 10
505.863597
 20
177.020113
 30
0.0
 10
505.580664
 20
165.685881
 30
0.0
 10
504.730837
 20
154.396795
 30
0.0
 10
503.314101
 20
143.539362
 30
0.0
 10
501.330443
 20
133.500090
 30
0.0
 10
498.656566
 20
123.770031
 30
0.0
 10
495.244110
 20
114.759015
 30
0.0
 10
490.412849
 20
104.910887
 30
0.0
 10
483.482557
 20
92.669490
 30
0.0
 10
476.984494
 20
80.212492
 30
0.0
 10
475.818044
 20
76.253760
 30
0.0
 10
475.807883
 20
73.220025
 30
0.0
 10
476.726731
 20
70.991844
 30
0.0
 10
478.553441
 20
68.686284
 30
0.0
 10
481.086697
 20
66.510282
 30
0.0
 10
484.125180
 20
64.670775
 30
0.0
 10
497.320120
 20
59.988909
 30
0.0
 10
518.625180
 20
54.380100
 30
0.0
 10
552.385131
 20
45.877538
 30
0.0
 10
560.166488
 20
43.094501
 30
0.0
 10
565.279695
 20
40.262175
 30
0.0
 10
570.267877
 20
35.732215
 30
0.0
 10
571.910254
 20
33.200750
 30
0.0
 10
572.972126
 20
30.536550
 30
0.0
 10
573.443971
 20
27.773308
 30
0.0
 10
573.316266
 20
24.944716
 30
0.0
 10
572.579490
 20
22.084466
 30
0.0
 10
571.224120
 20
19.226250
 30
0.0
 10
569.248764
 20
16.564386
 30
0.0
 10
566.666548
 20
14.607047
 30
0.0
 10
563.057137
 20
13.120421
 30
0.0
 10
558.000195
 20
11.870700
 30
0.0
 10
541.421674
 20
10.947711
 30
0.0
 10
511.409784
 20
11.072822
 30
0.0
 10
475.630597
 20
12.110546
 30
0.0
 10
441.750180
 20
13.925400
 30
0.0
 10
422.224771
 20
15.498763
 30
0.0
 10
409.081735
 20
17.130872
 30
0.0
 10
400.130493
 20
19.187457
 30
0.0
 10
393.180465
 20
22.034250
 30
0.0
 10
386.188896
 20
26.288925
 30
0.0
 10
380.208566
 20
31.578769
 30
0.0
 10
375.032381
 20
38.123466
 30
0.0
 10
370.453245
 20
46.142700
 30
0.0
 10
366.980466
 20
54.142276
 30
0.0
 10
364.614344
 20
62.195522
 30
0.0
 10
363.107411
 20
71.405450
 30
0.0
 10
362.212200
 20
82.875075
 30
0.0
 10
360.994243
 20
103.197446
 30
0.0
 10
359.688044
 20
117.003229
 30
0.0
 10
358.052258
 20
126.177595
 30
0.0
 10
355.845540
 20
132.605715
 30
0.0
 10
343.610257
 20
151.730715
 30
0.0
 10
328.026425
 20
174.792047
 30
0.0
 10
316.118348
 20
193.459202
 30
0.0
 10
307.402866
 20
208.522405
 30
0.0
 10
301.396815
 20
220.771883
 30
0.0
 10
297.866692
 20
228.918698
 30
0.0
 10
296.365785
 20
225.976680
 30
0.0
 10
293.148190
 20
220.761962
 30
0.0
 10
288.035040
 20
213.982571
 30
0.0
 10
272.352901
 20
195.980254
 30
0.0
 10
249.781022
 20
172.470696
 30
0.0
 10
220.781055
 20
143.954865
 30
0.0
 10
183.092165
 20
108.050181
 30
0.0
 10
173.986498
 20
100.031866
 30
0.0
 10
165.669368
 20
93.404340
 30
0.0
 10
150.972656
 20
81.699986
 30
0.0
 10
141.530574
 20
73.296527
 30
0.0
 10
136.490548
 20
67.349114
 30
0.0
 10
135.354875
 20
65.032410
 30
0.0
 10
135.000000
 20
63.012900
 30
0.0
 10
135.375607
 20
61.064387
 30
0.0
 10
136.579801
 20
59.165931
 30
0.0
 10
138.728644
 20
57.254700
 30
0.0
 10
141.938198
 20
55.267866
 30
0.0
 10
152.003678
 20
50.816061
 30
0.0
 10
167.704733
 20
45.307875
 30
0.0
 10
178.884277
 20
41.494336
 30
0.0
 10
186.093855
 20
38.563331
 30
0.0
 10
191.025078
 20
35.708742
 30
0.0
 10
195.369555
 20
32.124450
 30
0.0
 10
199.146702
 20
27.998798
 30
0.0
 10
201.697829
 20
23.751812
 30
0.0
 10
203.039106
 20
19.526660
 30
0.0
 10
203.186702
 20
15.466509
 30
0.0
 10
202.156786
 20
11.714528
 30
0.0
 10
199.965529
 20
8.413883
 30
0.0
 10
196.629098
 20
5.707743
 30
0.0
 10
192.163665
 20
3.739275
 30
0.0
 10
179.678040
 20
1.539225
 30
0.0
 10
147.321095
 20
0.456469
 30
0.0
 10
129.033434
 20
0.411743
 30
0.0
 10
117.830340
 20
0.799650
 30
0.0
  0
ENDSEC
  0
SECTION
  2
OBJECTS
  0
DICTIONARY
  5
C
330
0
100
AcDbDictionary
  3
ACAD_GROUP
350
D
  3
ACAD_MLINESTYLE
350
17
  0
DICTIONARY
  5
D
330
C
100
AcDbDictionary
  0
DICTIONARY
  5
1A
330
C
100
AcDbDictionary
  0
DICTIONARY
  5
17
330
C
100
AcDbDictionary
  3
STANDARD
350
18
  0
DICTIONARY
  5
19
330
C
100
AcDbDictionary
  0
ENDSEC
  0
EOF
