999
Inkscape export via OpenSCAD DXF Export
  0
SECTION
  2
HEADER
  9
$ACADVER
  1
AC1014
  9
$HANDSEED
  5
FFFF
  9
$MEASUREMENT
 70
     1
  0
ENDSEC
  0
SECTION
  2
TABLES
  0
TABLE
  2
VPORT
  5
8
330
0
100
AcDbSymbolTable
 70
     4
  0
VPORT
  5
2E
330
8
100
AcDbSymbolTableRecord
100
AcDbViewportTableRecord
  2
*ACTIVE
 70
     0
 10
0.0
 20
0.0
 11
1.0
 21
1.0
 12
210.0
 22
148.5
 13
0.0
 23
0.0
 14
10.0
 24
10.0
 15
10.0
 25
10.0
 16
0.0
 26
0.0
 36
1.0
 17
0.0
 27
0.0
 37
0.0
 40
341.0
 41
1.24
 42
50.0
 43
0.0
 44
0.0
 50
0.0
 51
0.0
 71
     0
 72
   100
 73
     1
 74
     3
 75
     0
 76
     0
 77
     0
 78
     0
  0
ENDTAB
  0
TABLE
  2
LTYPE
  5
5
330
0
100
AcDbSymbolTable
 70
     1
  0
LTYPE
  5
14
330
5
100
AcDbSymbolTableRecord
100
AcDbLinetypeTableRecord
  2
BYBLOCK
 70
     0
  3

 72
    65
 73
     0
 40
0.0
  0
LTYPE
  5
15
330
5
100
AcDbSymbolTableRecord
100
AcDbLinetypeTableRecord
  2
BYLAYER
 70
     0
  3

 72
    65
 73
     0
 40
0.0
  0
LTYPE
  5
16
330
5
100
AcDbSymbolTableRecord
100
AcDbLinetypeTableRecord
  2
CONTINUOUS
 70
     0
  3
Solid line
 72
    65
 73
     0
 40
0.0
  0
ENDTAB
  0
TABLE
0
TABLE
2
LAYER
5
2
330
0
100
AcDbSymbolTable
70
1
0
LAYER
5
10
330
2
100
AcDbSymbolTableRecord
100
AcDbLayerTableRecord
2
Layer_1
70
0
62
7
6
CONTINUOUS
0
ENDTAB
0
ENDSEC
  0
ENDTAB
  0
TABLE
  2
STYLE
  5
3
330
0
100
AcDbSymbolTable
 70
     1
  0
STYLE
  5
11
330
3
100
AcDbSymbolTableRecord
100
AcDbTextStyleTableRecord
  2
STANDARD
 70
     0
 40
0.0
 41
1.0
 50
0.0
 71
     0
 42
2.5
  3
txt
  4

  0
ENDTAB
  0
TABLE
  2
VIEW
  5
6
330
0
100
AcDbSymbolTable
 70
     0
  0
ENDTAB
  0
TABLE
  2
UCS
  5
7
330
0
100
AcDbSymbolTable
 70
     0
  0
ENDTAB
  0
TABLE
  2
APPID
  5
9
330
0
100
AcDbSymbolTable
 70
     2
  0
APPID
  5
12
330
9
100
AcDbSymbolTableRecord
100
AcDbRegAppTableRecord
  2
ACAD
 70
     0
  0
ENDTAB
  0
TABLE
  2
DIMSTYLE
  5
A
330
0
100
AcDbSymbolTable
 70
     1
  0
DIMSTYLE
105
27
330
A
100
AcDbSymbolTableRecord
100
AcDbDimStyleTableRecord
  2
ISO-25
 70
     0
  3

  4

  5

  6

  7

 40
1.0
 41
2.5
 42
0.625
 43
3.75
 44
1.25
 45
0.0
 46
0.0
 47
0.0
 48
0.0
140
2.5
141
2.5
142
0.0
143
0.03937007874016
144
1.0
145
0.0
146
1.0
147
0.625
 71
     0
 72
     0
 73
     0
 74
     0
 75
     0
 76
     0
 77
     1
 78
     8
170
     0
171
     3
172
     1
173
     0
174
     0
175
     0
176
     0
177
     0
178
     0
270
     2
271
     2
272
     2
273
     2
274
     3
340
11
275
     0
280
     0
281
     0
282
     0
283
     0
284
     8
285
     0
286
     0
287
     3
288
     0
  0
ENDTAB
  0
TABLE
  2
BLOCK_RECORD
  5
1
330
0
100
AcDbSymbolTable
 70
     1
  0
BLOCK_RECORD
  5
1F
330
1
100
AcDbSymbolTableRecord
100
AcDbBlockTableRecord
  2
*MODEL_SPACE
  0
BLOCK_RECORD
  5
1B
330
1
100
AcDbSymbolTableRecord
100
AcDbBlockTableRecord
  2
*PAPER_SPACE
  0
ENDTAB
  0
ENDSEC
  0
SECTION
  2
BLOCKS
  0
BLOCK
  5
20
330
1F
100
AcDbEntity
  8
0
100
AcDbBlockBegin
  2
*MODEL_SPACE
 70
     0
 10
0.0
 20
0.0
 30
0.0
  3
*MODEL_SPACE
  1

  0
ENDBLK
  5
21
330
1F
100
AcDbEntity
  8
0
100
AcDbBlockEnd
  0
BLOCK
  5
1C
330
1B
100
AcDbEntity
 67
     1
  8
0
100
AcDbBlockBegin
  2
*PAPER_SPACE
  1

  0
ENDBLK
  5
1D
330
1B
100
AcDbEntity
 67
     1
  8
0
100
AcDbBlockEnd
  0
ENDSEC
  0
SECTION
  2
ENTITIES
0
DIMENSION
5
83
100
AcDbEntity
62
256
370
-1
6
ByLayer
1
total_width
3
Standard
70
0
71
5
72
1
41
1.0
100
AcDbAlignedDimension
13
2.397381
23
0.000000
33
0.0
14
213.527101
24
0.000000
34
0.0
50
0.000000
100
AcDbRotatedDimension
0
DIMENSION
5
83
100
AcDbEntity
62
256
370
-1
6
ByLayer
1
total_minx
3
Standard
70
0
71
5
72
1
41
1.0
100
AcDbAlignedDimension
13
2.397381
23
0.000000
33
0.0
14
0.000000
24
0.000000
34
0.0
50
0.000000
100
AcDbRotatedDimension
0
DIMENSION
5
83
100
AcDbEntity
62
256
370
-1
6
ByLayer
1
total_maxx
3
Standard
70
0
71
5
72
1
41
1.0
100
AcDbAlignedDimension
13
0.000000
23
0.000000
33
0.0
14
213.527101
24
0.000000
34
0.0
50
0.000000
100
AcDbRotatedDimension
0
DIMENSION
5
83
100
AcDbEntity
62
256
370
-1
6
ByLayer
1
total_height
3
Standard
70
0
71
5
72
1
41
1.0
100
AcDbAlignedDimension
13
0.000000
23
0.741039
33
0.0
14
0.000000
24
190.361047
34
0.0
50
90.000000
100
AcDbRotatedDimension
0
DIMENSION
5
83
100
AcDbEntity
62
256
370
-1
6
ByLayer
1
total_miny
3
Standard
70
0
71
5
72
1
41
1.0
100
AcDbAlignedDimension
13
0.741039
23
0.000000
33
0.0
14
0.000000
24
0.000000
34
0.0
50
0.000000
100
AcDbRotatedDimension
0
DIMENSION
5
83
100
AcDbEntity
62
256
370
-1
6
ByLayer
1
total_maxy
3
Standard
70
0
71
5
72
1
41
1.0
100
AcDbAlignedDimension
13
0.000000
23
0.000000
33
0.0
14
190.361047
24
0.000000
34
0.0
50
0.000000
100
AcDbRotatedDimension
0
DIMENSION
8
Layer_1
5
83
100
AcDbEntity
62
256
370
-1
6
ByLayer
1
Layer_1_width
3
Standard
70
0
71
5
72
1
41
1.0
100
AcDbAlignedDimension
13
2.397381
23
0.000000
33
0.0
14
213.527101
24
0.000000
34
0.0
50
0.000000
100
AcDbRotatedDimension
0
DIMENSION
8
Layer_1
5
83
100
AcDbEntity
62
256
370
-1
6
ByLayer
1
Layer_1_minx
3
Standard
70
0
71
5
72
1
41
1.0
100
AcDbAlignedDimension
13
2.397381
23
0.000000
33
0.0
14
0.000000
24
0.000000
34
0.0
50
0.000000
100
AcDbRotatedDimension
0
DIMENSION
8
Layer_1
5
83
100
AcDbEntity
62
256
370
-1
6
ByLayer
1
Layer_1_maxx
3
Standard
70
0
71
5
72
1
41
1.0
100
AcDbAlignedDimension
13
0.000000
23
0.000000
33
0.0
14
213.527101
24
0.000000
34
0.0
50
0.000000
100
AcDbRotatedDimension
0
DIMENSION
8
Layer_1
5
83
100
AcDbEntity
62
256
370
-1
6
ByLayer
1
Layer_1_height
3
Standard
70
0
71
5
72
1
41
1.0
100
AcDbAlignedDimension
13
0.000000
23
0.741039
33
0.0
14
0.000000
24
190.361047
34
0.0
50
90.000000
100
AcDbRotatedDimension
0
DIMENSION
8
Layer_1
5
83
100
AcDbEntity
62
256
370
-1
6
ByLayer
1
Layer_1_miny
3
Standard
70
0
71
5
72
1
41
1.0
100
AcDbAlignedDimension
13
0.741039
23
0.000000
33
0.0
14
0.000000
24
0.000000
34
0.0
50
0.000000
100
AcDbRotatedDimension
0
DIMENSION
8
Layer_1
5
83
100
AcDbEntity
62
256
370
-1
6
ByLayer
1
Layer_1_maxy
3
Standard
70
0
71
5
72
1
41
1.0
100
AcDbAlignedDimension
13
0.000000
23
0.000000
33
0.0
14
190.361047
24
0.000000
34
0.0
50
0.000000
100
AcDbRotatedDimension
62
0
0
LWPOLYLINE
100
AcDbPolyline
8
Layer_1
90
131
70
0
10
137.115115
20
0.960749
30
0.0
10
131.124511
20
1.287408
30
0.0
10
125.537545
20
1.772642
30
0.0
10
120.335180
20
2.420119
30
0.0
10
115.498380
20
3.233504
30
0.0
10
111.008106
20
4.216465
30
0.0
10
106.845321
20
5.372666
30
0.0
10
102.990988
20
6.705776
30
0.0
10
99.426070
20
8.219460
30
0.0
10
95.251753
20
10.434543
30
0.0
10
91.595216
20
12.913999
30
0.0
10
88.477820
20
15.629428
30
0.0
10
85.920927
20
18.552429
30
0.0
10
83.945898
20
21.654603
30
0.0
10
83.183258
20
23.264004
30
0.0
10
82.574094
20
24.907549
30
0.0
10
82.121077
20
26.581687
30
0.0
10
81.826877
20
28.282868
30
0.0
10
81.694165
20
30.007542
30
0.0
10
81.725609
20
31.752159
30
0.0
10
81.968461
20
34.008132
30
0.0
10
82.402119
20
36.147419
30
0.0
10
83.038920
20
38.195045
30
0.0
10
83.891198
20
40.176036
30
0.0
10
84.971289
20
42.115416
30
0.0
10
86.291527
20
44.038212
30
0.0
10
87.864247
20
45.969448
30
0.0
10
89.701785
20
47.934149
30
0.0
10
92.182442
20
50.296280
30
0.0
10
94.574438
20
52.241252
30
0.0
10
97.164180
20
53.980902
30
0.0
10
100.238080
20
55.727064
30
0.0
10
102.872156
20
57.132358
30
0.0
10
101.257032
20
57.142264
30
0.0
10
99.073379
20
56.966816
30
0.0
10
96.241826
20
56.433436
30
0.0
10
92.864435
20
55.565169
30
0.0
10
89.043267
20
54.385055
30
0.0
10
85.661196
20
53.321920
30
0.0
10
84.267144
20
52.998209
30
0.0
10
85.101312
20
53.879308
30
0.0
10
87.062804
20
55.525072
30
0.0
10
91.516259
20
58.820391
30
0.0
10
94.816404
20
60.756489
30
0.0
10
98.395986
20
62.544392
30
0.0
10
102.236358
20
64.177924
30
0.0
10
106.318870
20
65.650904
30
0.0
10
110.624873
20
66.957156
30
0.0
10
115.135718
20
68.090499
30
0.0
10
119.832757
20
69.044756
30
0.0
10
124.697340
20
69.813749
30
0.0
10
127.705096
20
70.118750
30
0.0
10
131.495196
20
70.335218
30
0.0
10
140.746218
20
70.503129
30
0.0
10
151.097985
20
70.318627
30
0.0
10
161.198077
20
69.782857
30
0.0
10
169.886993
20
69.279824
30
0.0
10
177.566963
20
69.056704
30
0.0
10
183.860241
20
69.181027
30
0.0
10
185.718200
20
69.436122
30
0.0
10
187.527483
20
69.887428
30
0.0
10
190.277601
20
70.802980
30
0.0
10
192.560480
20
71.887808
30
0.0
10
194.578052
20
73.257151
30
0.0
10
196.532252
20
75.026246
30
0.0
10
198.559043
20
77.282683
30
0.0
10
200.231488
20
79.598983
30
0.0
10
201.533023
20
81.949157
30
0.0
10
202.447085
20
84.307214
30
0.0
10
202.859407
20
85.758667
30
0.0
10
203.018811
20
86.765475
30
0.0
10
202.939924
20
87.675949
30
0.0
10
202.637373
20
88.838399
30
0.0
10
201.948447
20
90.667956
30
0.0
10
200.943911
20
92.534855
30
0.0
10
199.641619
20
94.410133
30
0.0
10
198.059424
20
96.264832
30
0.0
10
196.362427
20
98.079060
30
0.0
10
199.334027
20
98.513567
30
0.0
10
202.305629
20
98.948073
30
0.0
10
206.399260
20
97.203014
30
0.0
10
209.607578
20
95.795266
30
0.0
10
211.509830
20
94.806441
30
0.0
10
212.543710
20
93.963471
30
0.0
10
213.146908
20
92.993289
30
0.0
10
213.527101
20
91.758957
30
0.0
10
213.410498
20
90.364421
30
0.0
10
212.713932
20
88.473669
30
0.0
10
211.354233
20
85.750691
30
0.0
10
208.362775
20
80.548619
30
0.0
10
205.262297
20
76.042560
30
0.0
10
202.076425
20
72.263649
30
0.0
10
200.458849
20
70.656605
30
0.0
10
198.828784
20
69.243025
30
0.0
10
196.232385
20
67.325054
30
0.0
10
193.519045
20
65.762624
30
0.0
10
190.409213
20
64.493087
30
0.0
10
186.623341
20
63.453796
30
0.0
10
181.881878
20
62.582104
30
0.0
10
175.905274
20
61.815362
30
0.0
10
159.128446
20
60.346141
30
0.0
10
148.945151
20
59.460658
30
0.0
10
142.163845
20
58.668248
30
0.0
10
137.069401
20
57.603303
30
0.0
10
132.290360
20
56.172184
30
0.0
10
127.875693
20
54.403687
30
0.0
10
123.874368
20
52.326608
30
0.0
10
120.335357
20
49.969743
30
0.0
10
117.307629
20
47.361888
30
0.0
10
114.840154
20
44.531838
30
0.0
10
113.831814
20
43.042489
30
0.0
10
112.981901
20
41.508389
30
0.0
10
112.149098
20
39.747111
30
0.0
10
111.716240
20
38.382011
30
0.0
10
111.552479
20
36.757405
30
0.0
10
111.526969
20
34.217610
30
0.0
10
111.693718
20
30.203071
30
0.0
10
111.994532
20
28.898152
30
0.0
10
112.522421
20
27.508002
30
0.0
10
113.886881
20
24.616196
30
0.0
10
115.471337
20
22.068966
30
0.0
10
117.543212
20
19.491486
30
0.0
10
120.369931
20
16.508930
30
0.0
10
124.365227
20
12.791799
30
0.0
10
128.806792
20
9.333543
30
0.0
10
134.263073
20
5.728510
30
0.0
10
141.302514
20
1.571049
30
0.0
10
142.759560
20
0.741039
30
0.0
10
141.254376
20
0.798085
30
0.0
10
137.115115
20
0.960761
30
0.0
10
137.115115
20
0.960749
30
0.0
62
0
0
LWPOLYLINE
100
AcDbPolyline
8
Layer_1
90
232
70
0
10
29.336825
20
29.157763
30
0.0
10
26.480366
20
32.013111
30
0.0
10
23.817546
20
35.016630
30
0.0
10
21.353188
20
38.154691
30
0.0
10
19.092118
20
41.413665
30
0.0
10
17.039159
20
44.779922
30
0.0
10
15.199137
20
48.239835
30
0.0
10
13.576877
20
51.779775
30
0.0
10
12.177202
20
55.386112
30
0.0
10
11.004937
20
59.045217
30
0.0
10
10.064908
20
62.743462
30
0.0
10
9.361937
20
66.467218
30
0.0
10
8.900851
20
70.202856
30
0.0
10
8.686474
20
73.936747
30
0.0
10
8.723629
20
77.655262
30
0.0
10
9.017143
20
81.344772
30
0.0
10
9.571839
20
84.991648
30
0.0
10
9.930853
20
87.235533
30
0.0
10
9.968799
20
88.280209
30
0.0
10
9.679782
20
88.337004
30
0.0
10
9.178368
20
88.192326
30
0.0
10
7.724745
20
87.415605
30
0.0
10
5.980711
20
86.184157
30
0.0
10
4.319048
20
84.732094
30
0.0
10
2.902858
20
83.390527
30
0.0
10
2.538185
20
83.181718
30
0.0
10
2.397381
20
83.341408
30
0.0
10
2.772136
20
84.947832
30
0.0
10
3.996646
20
88.572899
30
0.0
10
5.973104
20
93.682962
30
0.0
10
8.290013
20
98.505443
30
0.0
10
10.973437
20
103.074101
30
0.0
10
14.049440
20
107.422698
30
0.0
10
17.544085
20
111.584992
30
0.0
10
21.483438
20
115.594745
30
0.0
10
25.893560
20
119.485716
30
0.0
10
30.800517
20
123.291665
30
0.0
10
30.763094
20
123.493795
30
0.0
10
30.424219
20
123.797825
30
0.0
10
28.981371
20
124.023634
30
0.0
10
26.201786
20
124.022773
30
0.0
10
22.532897
20
123.941527
30
0.0
10
26.007442
20
126.490081
30
0.0
10
31.375858
20
129.984046
30
0.0
10
35.559185
20
132.320086
30
0.0
10
40.155159
20
134.646299
30
0.0
10
44.991478
20
136.892215
30
0.0
10
49.895841
20
138.987364
30
0.0
10
54.695947
20
140.861276
30
0.0
10
59.219494
20
142.443480
30
0.0
10
63.294182
20
143.663508
30
0.0
10
66.747709
20
144.450889
30
0.0
10
69.381782
20
144.918340
30
0.0
10
71.907259
20
148.787310
30
0.0
10
74.202449
20
152.123046
30
0.0
10
77.031324
20
155.881535
30
0.0
10
85.106485
20
165.713639
30
0.0
10
90.791742
20
172.650730
30
0.0
10
95.099141
20
178.466717
30
0.0
10
98.200050
20
183.410488
30
0.0
10
99.351622
20
185.633071
30
0.0
10
100.265834
20
187.730933
30
0.0
10
101.079630
20
189.588451
30
0.0
10
101.587170
20
190.361047
30
0.0
10
102.277170
20
189.873498
30
0.0
10
103.246954
20
188.637424
30
0.0
10
104.262330
20
186.992682
30
0.0
10
105.089102
20
185.279128
30
0.0
10
106.188887
20
182.096935
30
0.0
10
106.884401
20
178.858520
30
0.0
10
107.247001
20
175.091444
30
0.0
10
107.348045
20
170.323269
30
0.0
10
107.409961
20
165.606042
30
0.0
10
107.569116
20
163.644010
30
0.0
10
108.186822
20
164.210788
30
0.0
10
109.279789
20
165.625789
30
0.0
10
111.652874
20
169.288454
30
0.0
10
112.968281
20
171.874701
30
0.0
10
114.184437
20
174.737595
30
0.0
10
115.281831
20
177.826942
30
0.0
10
116.240952
20
181.092547
30
0.0
10
117.509550
20
185.368319
30
0.0
10
117.898715
20
185.124232
30
0.0
10
118.546394
20
184.138013
30
0.0
10
120.036598
20
180.953639
30
0.0
10
121.082781
20
177.676623
30
0.0
10
121.806400
20
174.102027
30
0.0
10
122.234743
20
170.049163
30
0.0
10
122.395099
20
165.337343
30
0.0
10
122.334241
20
159.858967
30
0.0
10
122.125466
20
155.670625
30
0.0
10
121.811375
20
152.400945
30
0.0
10
119.303244
20
151.847347
30
0.0
10
115.545246
20
151.036034
30
0.0
10
114.706453
20
150.810097
30
0.0
10
114.444910
20
150.628782
30
0.0
10
119.095664
20
149.562507
30
0.0
10
125.538373
20
148.127280
30
0.0
10
132.065958
20
146.448297
30
0.0
10
138.259556
20
144.640369
30
0.0
10
143.700302
20
142.818310
30
0.0
10
148.649007
20
140.937205
30
0.0
10
153.954373
20
138.502864
30
0.0
10
157.508819
20
136.666916
30
0.0
10
158.188888
20
136.103051
30
0.0
10
158.375855
20
135.619854
30
0.0
10
158.573448
20
134.148922
30
0.0
10
159.092869
20
132.176861
30
0.0
10
159.824083
20
130.063156
30
0.0
10
160.657052
20
128.167288
30
0.0
10
161.939771
20
125.914480
30
0.0
10
163.486886
20
123.738257
30
0.0
10
165.415103
20
121.490042
30
0.0
10
167.841128
20
119.021256
30
0.0
10
171.111536
20
116.012253
30
0.0
10
174.541331
20
113.273462
30
0.0
10
178.839892
20
110.278597
30
0.0
10
184.716595
20
106.501373
30
0.0
10
186.033630
20
105.672509
30
0.0
10
184.904741
20
105.911337
30
0.0
10
181.844931
20
106.760758
30
0.0
10
177.886458
20
108.127106
30
0.0
10
173.768239
20
109.738003
30
0.0
10
170.229186
20
111.321068
30
0.0
10
167.047547
20
113.011351
30
0.0
10
164.099478
20
114.836222
30
0.0
10
161.379902
20
116.800319
30
0.0
10
158.883748
20
118.908281
30
0.0
10
156.605939
20
121.164748
30
0.0
10
154.541402
20
123.574359
30
0.0
10
152.685064
20
126.141751
30
0.0
10
151.031849
20
128.871565
30
0.0
10
150.279152
20
130.121230
30
0.0
10
149.834419
20
130.574501
30
0.0
10
149.195805
20
130.994812
30
0.0
10
146.892061
20
131.980796
30
0.0
10
142.478173
20
133.567667
30
0.0
10
136.531152
20
135.433537
30
0.0
10
131.326915
20
136.555675
30
0.0
10
129.045463
20
136.831306
30
0.0
10
127.000254
20
136.913156
30
0.0
10
125.208137
20
136.798611
30
0.0
10
123.685960
20
136.485054
30
0.0
10
122.222707
20
135.731841
30
0.0
10
120.642131
20
134.361645
30
0.0
10
119.001366
20
132.463273
30
0.0
10
117.357547
20
130.125529
30
0.0
10
115.767807
20
127.437220
30
0.0
10
114.289280
20
124.487149
30
0.0
10
112.979100
20
121.364123
30
0.0
10
111.894400
20
118.156948
30
0.0
10
111.072368
20
115.379520
30
0.0
10
101.892261
20
115.439757
30
0.0
10
93.895362
20
115.346936
30
0.0
10
88.196598
20
114.956824
30
0.0
10
81.117051
20
113.949006
30
0.0
10
79.302548
20
113.545459
30
0.0
10
78.873211
20
113.377297
30
0.0
10
78.780236
20
113.234789
30
0.0
10
79.709134
20
112.960131
30
0.0
10
81.695028
20
112.700108
30
0.0
10
84.682480
20
112.312915
30
0.0
10
87.860250
20
111.720479
30
0.0
10
90.709690
20
111.032944
30
0.0
10
92.712156
20
110.360452
30
0.0
10
94.217340
20
109.687916
30
0.0
10
91.959563
20
109.371198
30
0.0
10
87.331915
20
108.634811
30
0.0
10
83.194191
20
107.778438
30
0.0
10
79.462988
20
106.768968
30
0.0
10
76.054906
20
105.573296
30
0.0
10
72.886543
20
104.158313
30
0.0
10
69.874499
20
102.490910
30
0.0
10
66.935372
20
100.537981
30
0.0
10
63.985761
20
98.266417
30
0.0
10
63.554638
20
97.794026
30
0.0
10
63.601138
20
97.678961
30
0.0
10
63.826633
20
97.644733
30
0.0
10
66.582832
20
98.317456
30
0.0
10
69.121618
20
99.005547
30
0.0
10
71.271615
20
99.439981
30
0.0
10
74.528087
20
99.900240
30
0.0
10
75.911422
20
100.106703
30
0.0
10
74.961471
20
97.350171
30
0.0
10
74.178793
20
94.382940
30
0.0
10
73.793633
20
91.322125
30
0.0
10
73.821796
20
88.431264
30
0.0
10
74.279091
20
85.973895
30
0.0
10
74.886181
20
84.392526
30
0.0
10
75.688349
20
82.894634
30
0.0
10
76.689881
20
81.475936
30
0.0
10
77.895059
20
80.132151
30
0.0
10
79.308170
20
78.858997
30
0.0
10
80.933495
20
77.652191
30
0.0
10
82.775321
20
76.507452
30
0.0
10
84.837930
20
75.420497
30
0.0
10
89.259416
20
73.504004
30
0.0
10
89.968582
20
73.254621
30
0.0
10
90.259772
20
73.009881
30
0.0
10
88.792554
20
72.483253
30
0.0
10
85.273842
20
71.556126
30
0.0
10
78.843517
20
69.813308
30
0.0
10
72.744695
20
67.801974
30
0.0
10
67.007260
20
65.537335
30
0.0
10
61.661096
20
63.034604
30
0.0
10
56.736087
20
60.308992
30
0.0
10
52.262116
20
57.375710
30
0.0
10
48.269067
20
54.249971
30
0.0
10
44.786824
20
50.946987
30
0.0
10
42.910018
20
48.839811
30
0.0
10
41.306446
20
46.811871
30
0.0
10
40.245568
20
45.228399
30
0.0
10
40.002846
20
44.717473
30
0.0
10
39.996847
20
44.454626
30
0.0
10
40.746605
20
44.676211
30
0.0
10
42.344447
20
45.413724
30
0.0
10
44.637658
20
46.471315
30
0.0
10
46.877740
20
47.350413
30
0.0
10
48.706909
20
47.923348
30
0.0
10
49.767380
20
48.062453
30
0.0
10
49.815755
20
47.820189
30
0.0
10
49.362950
20
47.223344
30
0.0
10
46.957034
20
44.969472
30
0.0
10
42.938427
20
41.134925
30
0.0
10
39.368194
20
37.036604
30
0.0
10
36.361827
20
32.820520
30
0.0
10
35.106185
20
30.713944
30
0.0
10
34.034817
20
28.632681
30
0.0
10
33.174073
20
26.982301
30
0.0
10
32.654929
20
26.295861
30
0.0
10
29.336825
20
29.157763
30
0.0
10
29.336825
20
29.157763
30
0.0
62
0
0
LWPOLYLINE
100
AcDbPolyline
8
Layer_1
90
30
70
0
10
90.999152
20
145.397734
30
0.0
10
93.267090
20
146.748545
30
0.0
10
95.257465
20
147.769123
30
0.0
10
96.642181
20
148.618370
30
0.0
10
97.192159
20
149.242053
30
0.0
10
97.691931
20
150.088703
30
0.0
10
98.675003
20
152.721672
30
0.0
10
99.859688
20
157.058826
30
0.0
10
101.162315
20
163.253132
30
0.0
10
102.004437
20
169.480505
30
0.0
10
102.295044
20
174.812224
30
0.0
10
102.205088
20
176.851987
30
0.0
10
101.943126
20
178.319565
30
0.0
10
101.762006
20
178.782101
30
0.0
10
101.564869
20
178.803612
30
0.0
10
100.779377
20
177.190676
30
0.0
10
98.105485
20
171.668664
30
0.0
10
95.045852
20
166.390335
30
0.0
10
92.000922
20
161.551466
30
0.0
10
89.559966
20
157.271452
30
0.0
10
87.571439
20
153.266854
30
0.0
10
85.883798
20
149.254230
30
0.0
10
84.104213
20
143.710048
30
0.0
10
83.404820
20
141.037727
30
0.0
10
83.119234
20
139.449358
30
0.0
10
83.913002
20
139.922363
30
0.0
10
85.825076
20
141.480636
30
0.0
10
88.462212
20
143.592870
30
0.0
10
90.999152
20
145.397734
30
0.0
10
90.999152
20
145.397734
30
0.0
62
0
0
LWPOLYLINE
100
AcDbPolyline
8
Layer_1
90
28
70
0
10
147.220570
20
112.858869
30
0.0
10
145.231242
20
113.462075
30
0.0
10
143.206880
20
114.474163
30
0.0
10
141.211659
20
115.856900
30
0.0
10
139.309749
20
117.572053
30
0.0
10
137.970229
20
118.876621
30
0.0
10
136.890441
20
119.694516
30
0.0
10
135.703269
20
120.247789
30
0.0
10
134.041600
20
120.758489
30
0.0
10
131.343022
20
121.582815
30
0.0
10
130.810213
20
121.847111
30
0.0
10
130.854800
20
122.026407
30
0.0
10
132.775394
20
122.170722
30
0.0
10
137.303264
20
122.097216
30
0.0
10
143.055347
20
121.886909
30
0.0
10
144.964301
20
121.714601
30
0.0
10
146.417528
20
121.449471
30
0.0
10
147.556777
20
121.055481
30
0.0
10
148.523795
20
120.496593
30
0.0
10
150.508137
20
118.739968
30
0.0
10
153.161739
20
116.499785
30
0.0
10
156.058509
20
114.526190
30
0.0
10
159.128446
20
112.605072
30
0.0
10
157.482878
20
112.488240
30
0.0
10
153.747943
20
112.517208
30
0.0
10
149.726290
20
112.653558
30
0.0
10
147.220570
20
112.858869
30
0.0
10
147.220570
20
112.858869
30
0.0
  0
ENDSEC
  0
SECTION
  2
OBJECTS
  0
DICTIONARY
  5
C
330
0
100
AcDbDictionary
  3
ACAD_GROUP
350
D
  3
ACAD_MLINESTYLE
350
17
  0
DICTIONARY
  5
D
330
C
100
AcDbDictionary
  0
DICTIONARY
  5
1A
330
C
100
AcDbDictionary
  0
DICTIONARY
  5
17
330
C
100
AcDbDictionary
  3
STANDARD
350
18
  0
DICTIONARY
  5
19
330
C
100
AcDbDictionary
  0
ENDSEC
  0
EOF
