  0
SECTION
  2
HEADER
  9
$ACADVER
  1
AC1014
  9
$HANDSEED
  5
FFFF
  9
$MEASUREMENT
 70
     1
  0
ENDSEC
  0
SECTION
  2
TABLES
  0
TABLE
  2
VPORT
  5
8
330
0
100
AcDbSymbolTable
 70
     4
  0
VPORT
  5
2E
330
8
100
AcDbSymbolTableRecord
100
AcDbViewportTableRecord
  2
*ACTIVE
 70
     0
 10
0.0
 20
0.0
 11
1.0
 21
1.0
 12
210.0
 22
148.5
 13
0.0
 23
0.0
 14
10.0
 24
10.0
 15
10.0
 25
10.0
 16
0.0
 26
0.0
 36
1.0
 17
0.0
 27
0.0
 37
0.0
 40
341.0
 41
1.24
 42
50.0
 43
0.0
 44
0.0
 50
0.0
 51
0.0
 71
     0
 72
   100
 73
     1
 74
     3
 75
     0
 76
     0
 77
     0
 78
     0
  0
ENDTAB
  0
TABLE
  2
LTYPE
  5
5
330
0
100
AcDbSymbolTable
 70
     1
  0
LTYPE
  5
14
330
5
100
AcDbSymbolTableRecord
100
AcDbLinetypeTableRecord
  2
BYBLOCK
 70
     0
  3

 72
    65
 73
     0
 40
0.0
  0
LTYPE
  5
15
330
5
100
AcDbSymbolTableRecord
100
AcDbLinetypeTableRecord
  2
BYLAYER
 70
     0
  3

 72
    65
 73
     0
 40
0.0
  0
LTYPE
  5
16
330
5
100
AcDbSymbolTableRecord
100
AcDbLinetypeTableRecord
  2
CONTINUOUS
 70
     0
  3
Solid line
 72
    65
 73
     0
 40
0.0
  0
ENDTAB
  0
TABLE
  2
LAYER
  5
2
100
AcDbSymbolTable
 70
2
  0
LAYER
  5
50
100
AcDbSymbolTableRecord
100
AcDbLayerTableRecord
  2
0
 70
0
  6
CONTINUOUS
  0
LAYER
  5
51
100
AcDbSymbolTableRecord
100
AcDbLayerTableRecord
  2
Layer_1
 70
0
  6
CONTINUOUS
  0
ENDTAB
  0
TABLE
  2
STYLE
  5
3
330
0
100
AcDbSymbolTable
 70
     1
  0
STYLE
  5
11
330
3
100
AcDbSymbolTableRecord
100
AcDbTextStyleTableRecord
  2
STANDARD
 70
     0
 40
0.0
 41
1.0
 50
0.0
 71
     0
 42
2.5
  3
txt
  4

  0
ENDTAB
  0
TABLE
  2
VIEW
  5
6
330
0
100
AcDbSymbolTable
 70
     0
  0
ENDTAB
  0
TABLE
  2
UCS
  5
7
330
0
100
AcDbSymbolTable
 70
     0
  0
ENDTAB
  0
TABLE
  2
APPID
  5
9
330
0
100
AcDbSymbolTable
 70
     2
  0
APPID
  5
12
330
9
100
AcDbSymbolTableRecord
100
AcDbRegAppTableRecord
  2
ACAD
 70
     0
  0
ENDTAB
  0
TABLE
  2
DIMSTYLE
  5
A
330
0
100
AcDbSymbolTable
 70
     1
  0
DIMSTYLE
105
27
330
A
100
AcDbSymbolTableRecord
100
AcDbDimStyleTableRecord
  2
ISO-25
 70
     0
  3

  4

  5

  6

  7

 40
1.0
 41
2.5
 42
0.625
 43
3.75
 44
1.25
 45
0.0
 46
0.0
 47
0.0
 48
0.0
140
2.5
141
2.5
142
0.0
143
0.03937007874016
144
1.0
145
0.0
146
1.0
147
0.625
 71
     0
 72
     0
 73
     0
 74
     0
 75
     0
 76
     0
 77
     1
 78
     8
170
     0
171
     3
172
     1
173
     0
174
     0
175
     0
176
     0
177
     0
178
     0
270
     2
271
     2
272
     2
273
     2
274
     3
340
11
275
     0
280
     0
281
     0
282
     0
283
     0
284
     8
285
     0
286
     0
287
     3
288
     0
  0
ENDTAB
  0
TABLE
  2
BLOCK_RECORD
  5
1
330
0
100
AcDbSymbolTable
 70
     1
  0
BLOCK_RECORD
  5
1F
330
1
100
AcDbSymbolTableRecord
100
AcDbBlockTableRecord
  2
*MODEL_SPACE
  0
BLOCK_RECORD
  5
1B
330
1
100
AcDbSymbolTableRecord
100
AcDbBlockTableRecord
  2
*PAPER_SPACE
  0
ENDTAB
  0
ENDSEC
  0
SECTION
  2
BLOCKS
  0
BLOCK
  5
20
330
1F
100
AcDbEntity
  8
0
100
AcDbBlockBegin
  2
*MODEL_SPACE
 70
     0
 10
0.0
 20
0.0
 30
0.0
  3
*MODEL_SPACE
  1

  0
ENDBLK
  5
21
330
1F
100
AcDbEntity
  8
0
100
AcDbBlockEnd
  0
BLOCK
  5
1C
330
1B
100
AcDbEntity
 67
     1
  8
0
100
AcDbBlockBegin
  2
*PAPER_SPACE
  1

  0
ENDBLK
  5
1D
330
1B
100
AcDbEntity
 67
     1
  8
0
100
AcDbBlockEnd
  0
ENDSEC
  0
SECTION
  2
ENTITIES
  0
LWPOLYLINE
  5
100
100
AcDbEntity
  8
Layer_1
 62
7
100
AcDbPolyline
 90
64
 70
1
 10
59.566907
 20
147.689880
 30
0.0
 10
54.088963
 20
147.549046
 30
0.0
 10
49.416751
 20
146.901563
 30
0.0
 10
43.288974
 20
145.461102
 30
0.0
 10
37.365987
 20
143.354663
 30
0.0
 10
31.697332
 20
140.616775
 30
0.0
 10
26.332549
 20
137.281967
 30
0.0
 10
21.321178
 20
133.384770
 30
0.0
 10
16.712760
 20
128.959712
 30
0.0
 10
12.556835
 20
124.041325
 30
0.0
 10
8.902945
 20
118.664138
 30
0.0
 10
4.588867
 20
110.058075
 30
0.0
 10
2.265834
 20
102.718878
 30
0.0
 10
1.109622
 20
95.624070
 30
0.0
 10
0.358893
 20
29.681580
 30
0.0
 10
0.270526
 20
-0.538275
 30
0.0
 10
17.427618
 20
-0.538275
 30
0.0
 10
34.584711
 20
-0.538275
 30
0.0
 10
34.623471
 20
46.158487
 30
0.0
 10
34.662614
 20
92.855633
 30
0.0
 10
34.948257
 20
93.910223
 30
0.0
 10
37.334545
 20
99.818385
 30
0.0
 10
39.523450
 20
102.961458
 30
0.0
 10
42.288850
 20
105.841244
 30
0.0
 10
45.531762
 20
108.368645
 30
0.0
 10
49.153202
 20
110.454563
 30
0.0
 10
55.760568
 20
112.853738
 30
0.0
 10
62.601994
 20
113.615993
 30
0.0
 10
69.788335
 20
112.665136
 30
0.0
 10
76.110083
 20
109.696080
 30
0.0
 10
79.106226
 20
107.202078
 30
0.0
 10
81.683385
 20
104.303385
 30
0.0
 10
84.108225
 20
100.165927
 30
0.0
 10
85.847771
 20
95.513888
 30
0.0
 10
86.935948
 20
90.227835
 30
0.0
 10
87.406680
 20
84.188333
 30
0.0
 10
87.486908
 20
81.189292
 30
0.0
 10
88.224847
 20
81.190792
 30
0.0
 10
88.962397
 20
81.192293
 30
0.0
 10
89.951100
 20
82.472835
 30
0.0
 10
95.006992
 20
87.540353
 30
0.0
 10
98.561663
 20
89.604253
 30
0.0
 10
102.190275
 20
90.688222
 30
0.0
 10
106.190955
 20
90.672949
 30
0.0
 10
110.140177
 20
89.636355
 30
0.0
 10
115.287896
 20
86.488286
 30
0.0
 10
119.476035
 20
82.141845
 30
0.0
 10
120.330638
 20
80.926027
 30
0.0
 10
120.940290
 20
80.926027
 30
0.0
 10
121.549942
 20
80.926027
 30
0.0
 10
121.639088
 20
83.199923
 30
0.0
 10
121.188338
 20
93.613628
 30
0.0
 10
119.860112
 20
101.348513
 30
0.0
 10
117.690510
 20
108.719311
 30
0.0
 10
114.707865
 20
115.647299
 30
0.0
 10
110.940510
 20
122.053755
 30
0.0
 10
107.490016
 20
126.627497
 30
0.0
 10
103.626666
 20
130.793391
 30
0.0
 10
99.370737
 20
134.538404
 30
0.0
 10
94.742512
 20
137.849504
 30
0.0
 10
84.450284
 20
143.117833
 30
0.0
 10
72.912217
 20
146.494118
 30
0.0
 10
66.584429
 20
147.433157
 30
0.0
 10
59.566909
 20
147.689782
 30
0.0
  0
LWPOLYLINE
  5
101
100
AcDbEntity
  8
Layer_1
 62
7
100
AcDbPolyline
 90
27
 70
1
 10
104.033573
 20
86.769187
 30
0.0
 10
102.801480
 20
86.713012
 30
0.0
 10
98.348668
 20
85.644513
 30
0.0
 10
94.557419
 20
83.365297
 30
0.0
 10
91.635007
 20
80.048185
 30
0.0
 10
89.788702
 20
75.865995
 30
0.0
 10
89.497253
 20
72.489847
 30
0.0
 10
89.641509
 20
69.763307
 30
0.0
 10
90.367740
 20
67.414575
 30
0.0
 10
92.350367
 20
63.911087
 30
0.0
 10
95.215912
 20
61.112984
 30
0.0
 10
98.749817
 20
59.178897
 30
0.0
 10
102.737527
 20
58.267455
 30
0.0
 10
104.451375
 20
58.202730
 30
0.0
 10
105.835402
 20
58.313190
 30
0.0
 10
109.245961
 20
59.131208
 30
0.0
 10
112.649708
 20
60.848310
 30
0.0
 10
115.419979
 20
63.369142
 30
0.0
 10
117.519570
 20
66.630510
 30
0.0
 10
118.426416
 20
69.251678
 30
0.0
 10
118.793708
 20
72.017286
 30
0.0
 10
118.617239
 20
74.804068
 30
0.0
 10
117.892800
 20
77.488763
 30
0.0
 10
115.670026
 20
81.325609
 30
0.0
 10
112.443793
 20
84.258521
 30
0.0
 10
108.477257
 20
86.126666
 30
0.0
 10
104.033573
 20
86.769210
 30
0.0
  0
LWPOLYLINE
  5
102
100
AcDbEntity
  8
Layer_1
 62
7
100
AcDbPolyline
 90
36
 70
1
 10
70.438723
 20
65.766975
 30
0.0
 10
70.522052
 20
65.206935
 30
0.0
 10
72.083971
 20
59.373960
 30
0.0
 10
74.385027
 20
54.362276
 30
0.0
 10
77.461748
 20
49.804009
 30
0.0
 10
81.257608
 20
45.769930
 30
0.0
 10
85.716082
 20
42.330810
 30
0.0
 10
87.215603
 20
41.351025
 30
0.0
 10
87.134213
 20
38.103165
 30
0.0
 10
86.968725
 20
17.158703
 30
0.0
 10
86.884230
 20
-0.538665
 30
0.0
 10
103.972335
 20
-0.538665
 30
0.0
 10
121.060440
 20
-0.538665
 30
0.0
 10
121.060440
 20
20.470523
 30
0.0
 10
121.060440
 20
41.479703
 30
0.0
 10
122.164245
 20
42.099427
 30
0.0
 10
125.577398
 20
44.485287
 30
0.0
 10
128.794463
 20
47.556075
 30
0.0
 10
133.734876
 20
54.567612
 30
0.0
 10
137.597415
 20
63.399293
 30
0.0
 10
138.320235
 20
65.502653
 30
0.0
 10
129.047550
 20
65.502653
 30
0.0
 10
119.775248
 20
65.502653
 30
0.0
 10
118.961730
 20
64.050412
 30
0.0
 10
116.805639
 20
60.831367
 30
0.0
 10
114.312014
 20
58.252981
 30
0.0
 10
111.511043
 20
56.340888
 30
0.0
 10
108.432915
 20
55.120725
 30
0.0
 10
104.780812
 20
54.767265
 30
0.0
 10
101.309318
 20
54.996315
 30
0.0
 10
95.893233
 20
56.998502
 30
0.0
 10
91.260705
 20
60.485520
 30
0.0
 10
89.239274
 20
62.849279
 30
0.0
 10
88.152757
 20
64.978650
 30
0.0
 10
87.907815
 20
65.763878
 30
0.0
 10
79.173465
 20
65.765377
 30
0.0
  0
LWPOLYLINE
  5
103
100
AcDbEntity
  8
Layer_1
 62
7
100
AcDbPolyline
 90
5
 70
1
 10
51.874352
 20
20.449590
 30
0.0
 10
51.786373
 20
20.370135
 30
0.0
 10
51.954580
 20
20.356935
 30
0.0
 10
51.954977
 20
20.356935
 30
0.0
 10
51.874362
 20
20.449560
 30
0.0
  0
LWPOLYLINE
  5
104
100
AcDbEntity
  8
Layer_1
 62
7
100
AcDbPolyline
 90
5
 70
1
 10
80.270678
 20
-19.154970
 30
0.0
 10
80.242402
 20
-19.170870
 30
0.0
 10
80.317590
 20
-19.185570
 30
0.0
 10
80.325090
 20
-19.171995
 30
0.0
 10
80.270790
 20
-19.154970
 30
0.0
  0
LWPOLYLINE
  5
105
100
AcDbEntity
  8
Layer_1
 62
7
100
AcDbPolyline
 90
5
 70
1
 10
120.759682
 20
-48.295433
 30
0.0
 10
120.625973
 20
-48.297683
 30
0.0
 10
120.702705
 20
-48.341858
 30
0.0
 10
120.755055
 20
-48.339607
 30
0.0
 10
120.759555
 20
-48.295433
 30
0.0
  0
ENDSEC
  0
SECTION
  2
OBJECTS
  0
DICTIONARY
  5
C
330
0
100
AcDbDictionary
  3
ACAD_GROUP
350
D
  3
ACAD_MLINESTYLE
350
17
  0
DICTIONARY
  5
D
330
C
100
AcDbDictionary
  0
DICTIONARY
  5
1A
330
C
100
AcDbDictionary
  0
DICTIONARY
  5
17
330
C
100
AcDbDictionary
  3
STANDARD
350
18
  0
DICTIONARY
  5
19
330
C
100
AcDbDictionary
  0
ENDSEC
  0
EOF
