solid OpenSCAD_Model
  facet normal -0 0 -1
    outer loop
      vertex 97.825 0 -1.25
      vertex 94.9237 -0.711788 -1.25
      vertex 95.075 0 -1.25
    endloop
  endfacet
  facet normal 6.04537e-008 -2.46413e-007 -1
    outer loop
      vertex 97.825 0 -1.25
      vertex 94.496 -1.3005 -1.25
      vertex 94.9237 -0.711788 -1.25
    endloop
  endfacet
  facet normal -6.96017e-009 -7.38474e-008 -1
    outer loop
      vertex 93.075 -7.62363 -1.25
      vertex 94.496 -1.3005 -1.25
      vertex 97.825 0 -1.25
    endloop
  endfacet
  facet normal -9.35634e-008 -1.98882e-008 -1
    outer loop
      vertex 93.075 -7.62363 -1.25
      vertex 97.825 0 -1.25
      vertex 93.155 -8 -1.25
    endloop
  endfacet
  facet normal 8.77615e-009 -7.96289e-008 -1
    outer loop
      vertex 93.075 -12.5 -1.25
      vertex 93.155 -8 -1.25
      vertex 97.825 0 -1.25
    endloop
  endfacet
  facet normal 4.08001e-007 -8.67264e-008 -1
    outer loop
      vertex 93.155 -8 -1.25
      vertex 93.075 -12.5 -1.25
      vertex 93.075 -8.37637 -1.25
    endloop
  endfacet
  facet normal 5.00298e-008 -8.66546e-008 -1
    outer loop
      vertex 94.496 -1.3005 -1.25
      vertex 93.075 -7.62363 -1.25
      vertex 93.8658 -1.66435 -1.25
    endloop
  endfacet
  facet normal 8.52896e-009 -8.11476e-008 -1
    outer loop
      vertex 93.8658 -1.66435 -1.25
      vertex 93.075 -7.62363 -1.25
      vertex 93.1421 -1.74041 -1.25
    endloop
  endfacet
  facet normal -2.62362e-008 -8.07512e-008 -1
    outer loop
      vertex 93.1421 -1.74041 -1.25
      vertex 93.075 -7.62363 -1.25
      vertex 93.075 -1.71862 -1.25
    endloop
  endfacet
  facet normal 0.934784 -0.355218 0
    outer loop
      vertex 93.075 -12.5 1.25
      vertex 97.825 0 -1.25
      vertex 97.825 0 1.25
    endloop
  endfacet
  facet normal 0.934784 -0.355218 0
    outer loop
      vertex 97.825 0 -1.25
      vertex 93.075 -12.5 1.25
      vertex 93.075 -12.5 -1.25
    endloop
  endfacet
  facet normal 0 0 1
    outer loop
      vertex 92.4933 -6.51371 1.25
      vertex 93.8658 -1.66435 1.25
      vertex 93.1421 -1.74041 1.25
    endloop
  endfacet
  facet normal 0 0 1
    outer loop
      vertex 93.8658 -1.66435 1.25
      vertex 92.9821 -7.18653 1.25
      vertex 93.155 -8 1.25
    endloop
  endfacet
  facet normal 0 0 1
    outer loop
      vertex 93.8658 -1.66435 1.25
      vertex 92.4933 -6.51371 1.25
      vertex 92.9821 -7.18653 1.25
    endloop
  endfacet
  facet normal 0 0 1
    outer loop
      vertex 91.773 -6.09789 1.25
      vertex 93.1421 -1.74041 1.25
      vertex 92.45 -1.51554 1.25
    endloop
  endfacet
  facet normal 0 0 1
    outer loop
      vertex 90.9459 -6.01096 1.25
      vertex 92.45 -1.51554 1.25
      vertex 91.9092 -1.02862 1.25
    endloop
  endfacet
  facet normal 0 0 1
    outer loop
      vertex 93.1421 -1.74041 1.25
      vertex 91.773 -6.09789 1.25
      vertex 92.4933 -6.51371 1.25
    endloop
  endfacet
  facet normal 0 0 1
    outer loop
      vertex 90.155 -6.26795 1.25
      vertex 91.9092 -1.02862 1.25
      vertex 91.6132 -0.363845 1.25
    endloop
  endfacet
  facet normal 0 0 1
    outer loop
      vertex 89.537 6.82443 1.25
      vertex 91.6132 0.363845 1.25
      vertex 90.155 6.26795 1.25
    endloop
  endfacet
  facet normal 0 0 1
    outer loop
      vertex 92.45 -1.51554 1.25
      vertex 90.9459 -6.01096 1.25
      vertex 91.773 -6.09789 1.25
    endloop
  endfacet
  facet normal 0 0 1
    outer loop
      vertex 91.6132 0.363845 1.25
      vertex 89.537 6.82443 1.25
      vertex 91.6132 -0.363845 1.25
    endloop
  endfacet
  facet normal 0 0 1
    outer loop
      vertex 91.9092 -1.02862 1.25
      vertex 90.155 -6.26795 1.25
      vertex 90.9459 -6.01096 1.25
    endloop
  endfacet
  facet normal 0 0 1
    outer loop
      vertex 89.537 -6.82443 1.25
      vertex 91.6132 -0.363845 1.25
      vertex 89.537 6.82443 1.25
    endloop
  endfacet
  facet normal 0 0 1
    outer loop
      vertex 91.6132 -0.363845 1.25
      vertex 89.537 -6.82443 1.25
      vertex 90.155 -6.26795 1.25
    endloop
  endfacet
  facet normal 0 0 1
    outer loop
      vertex 89.1987 7.58418 1.25
      vertex 89.537 -6.82443 1.25
      vertex 89.537 6.82443 1.25
    endloop
  endfacet
  facet normal 0 0 1
    outer loop
      vertex 89.537 -6.82443 1.25
      vertex 89.1987 7.58418 1.25
      vertex 89.1987 -7.58418 1.25
    endloop
  endfacet
  facet normal 0 0 1
    outer loop
      vertex 97.825 0 1.25
      vertex 94.9237 0.711788 1.25
      vertex 95.075 0 1.25
    endloop
  endfacet
  facet normal 0 0 1
    outer loop
      vertex 97.825 0 1.25
      vertex 94.496 1.3005 1.25
      vertex 94.9237 0.711788 1.25
    endloop
  endfacet
  facet normal 0 0 1
    outer loop
      vertex 92.9821 7.18653 1.25
      vertex 94.496 1.3005 1.25
      vertex 97.825 0 1.25
    endloop
  endfacet
  facet normal -0 0 1
    outer loop
      vertex 92.9821 7.18653 1.25
      vertex 97.825 0 1.25
      vertex 93.155 8 1.25
    endloop
  endfacet
  facet normal 0 0 1
    outer loop
      vertex 93.075 12.5 1.25
      vertex 93.155 8 1.25
      vertex 97.825 0 1.25
    endloop
  endfacet
  facet normal 0 0 1
    outer loop
      vertex 93.075 12.5 1.25
      vertex 92.9821 8.81347 1.25
      vertex 93.155 8 1.25
    endloop
  endfacet
  facet normal 0 0 1
    outer loop
      vertex 93.075 12.5 1.25
      vertex 92.4933 9.48629 1.25
      vertex 92.9821 8.81347 1.25
    endloop
  endfacet
  facet normal 0 0 1
    outer loop
      vertex 93.075 12.5 1.25
      vertex 91.773 9.90211 1.25
      vertex 92.4933 9.48629 1.25
    endloop
  endfacet
  facet normal 0 0 1
    outer loop
      vertex 93.075 12.5 1.25
      vertex 90.9459 9.98904 1.25
      vertex 91.773 9.90211 1.25
    endloop
  endfacet
  facet normal -0 0 1
    outer loop
      vertex 88.425 12.5 1.25
      vertex 90.9459 9.98904 1.25
      vertex 93.075 12.5 1.25
    endloop
  endfacet
  facet normal 0 0 1
    outer loop
      vertex 90.9459 9.98904 1.25
      vertex 88.425 12.5 1.25
      vertex 90.155 9.73205 1.25
    endloop
  endfacet
  facet normal 0 0 1
    outer loop
      vertex 88.425 12.5 1.25
      vertex 89.1987 7.58418 1.25
      vertex 89.1987 8.41582 1.25
    endloop
  endfacet
  facet normal 0 0 1
    outer loop
      vertex 89.1987 7.58418 1.25
      vertex 88.425 12.5 1.25
      vertex 89.1987 -7.58418 1.25
    endloop
  endfacet
  facet normal 0 0 1
    outer loop
      vertex 88.425 -12.5 1.25
      vertex 89.1987 -7.58418 1.25
      vertex 88.425 12.5 1.25
    endloop
  endfacet
  facet normal 0 0 1
    outer loop
      vertex 89.537 9.17557 1.25
      vertex 88.425 12.5 1.25
      vertex 89.1987 8.41582 1.25
    endloop
  endfacet
  facet normal 0 0 1
    outer loop
      vertex 90.155 9.73205 1.25
      vertex 88.425 12.5 1.25
      vertex 89.537 9.17557 1.25
    endloop
  endfacet
  facet normal 0 0 1
    outer loop
      vertex 94.9237 -0.711788 1.25
      vertex 97.825 0 1.25
      vertex 95.075 0 1.25
    endloop
  endfacet
  facet normal 0 0 1
    outer loop
      vertex 94.496 -1.3005 1.25
      vertex 97.825 0 1.25
      vertex 94.9237 -0.711788 1.25
    endloop
  endfacet
  facet normal 0 0 1
    outer loop
      vertex 93.155 -8 1.25
      vertex 94.496 -1.3005 1.25
      vertex 93.8658 -1.66435 1.25
    endloop
  endfacet
  facet normal -0 0 1
    outer loop
      vertex 94.496 -1.3005 1.25
      vertex 93.155 -8 1.25
      vertex 97.825 0 1.25
    endloop
  endfacet
  facet normal -0 0 1
    outer loop
      vertex 93.155 -8 1.25
      vertex 93.075 -12.5 1.25
      vertex 97.825 0 1.25
    endloop
  endfacet
  facet normal -0 0 1
    outer loop
      vertex 92.9821 -8.81347 1.25
      vertex 93.075 -12.5 1.25
      vertex 93.155 -8 1.25
    endloop
  endfacet
  facet normal -0 0 1
    outer loop
      vertex 92.4933 -9.48629 1.25
      vertex 93.075 -12.5 1.25
      vertex 92.9821 -8.81347 1.25
    endloop
  endfacet
  facet normal -0 0 1
    outer loop
      vertex 91.773 -9.90211 1.25
      vertex 93.075 -12.5 1.25
      vertex 92.4933 -9.48629 1.25
    endloop
  endfacet
  facet normal -0 0 1
    outer loop
      vertex 90.9459 -9.98904 1.25
      vertex 93.075 -12.5 1.25
      vertex 91.773 -9.90211 1.25
    endloop
  endfacet
  facet normal 0 0 1
    outer loop
      vertex 88.425 -12.5 1.25
      vertex 90.9459 -9.98904 1.25
      vertex 90.155 -9.73205 1.25
    endloop
  endfacet
  facet normal 0 0 1
    outer loop
      vertex 88.425 -12.5 1.25
      vertex 90.155 -9.73205 1.25
      vertex 89.537 -9.17557 1.25
    endloop
  endfacet
  facet normal 0 0 1
    outer loop
      vertex 90.9459 -9.98904 1.25
      vertex 88.425 -12.5 1.25
      vertex 93.075 -12.5 1.25
    endloop
  endfacet
  facet normal 0 0 1
    outer loop
      vertex 89.1987 -8.41582 1.25
      vertex 88.425 -12.5 1.25
      vertex 89.537 -9.17557 1.25
    endloop
  endfacet
  facet normal 0 0 1
    outer loop
      vertex 89.1987 -7.58418 1.25
      vertex 88.425 -12.5 1.25
      vertex 89.1987 -8.41582 1.25
    endloop
  endfacet
  facet normal 0 0 1
    outer loop
      vertex 94.496 1.3005 1.25
      vertex 92.9821 7.18653 1.25
      vertex 93.8658 1.66435 1.25
    endloop
  endfacet
  facet normal -0 0 1
    outer loop
      vertex 92.4933 6.51371 1.25
      vertex 93.8658 1.66435 1.25
      vertex 92.9821 7.18653 1.25
    endloop
  endfacet
  facet normal 0 0 1
    outer loop
      vertex 93.8658 1.66435 1.25
      vertex 92.4933 6.51371 1.25
      vertex 93.1421 1.74041 1.25
    endloop
  endfacet
  facet normal -0 0 1
    outer loop
      vertex 91.773 6.09789 1.25
      vertex 93.1421 1.74041 1.25
      vertex 92.4933 6.51371 1.25
    endloop
  endfacet
  facet normal 0 0 1
    outer loop
      vertex 93.1421 1.74041 1.25
      vertex 91.773 6.09789 1.25
      vertex 92.45 1.51554 1.25
    endloop
  endfacet
  facet normal -0 0 1
    outer loop
      vertex 90.9459 6.01096 1.25
      vertex 92.45 1.51554 1.25
      vertex 91.773 6.09789 1.25
    endloop
  endfacet
  facet normal 0 0 1
    outer loop
      vertex 92.45 1.51554 1.25
      vertex 90.9459 6.01096 1.25
      vertex 91.9092 1.02862 1.25
    endloop
  endfacet
  facet normal 0 0 1
    outer loop
      vertex 91.9092 1.02862 1.25
      vertex 90.155 6.26795 1.25
      vertex 91.6132 0.363845 1.25
    endloop
  endfacet
  facet normal 0 0 1
    outer loop
      vertex 90.155 6.26795 1.25
      vertex 91.9092 1.02862 1.25
      vertex 90.9459 6.01096 1.25
    endloop
  endfacet
  facet normal 0.934784 0.355218 0
    outer loop
      vertex 97.825 0 1.25
      vertex 93.075 12.5 -1.25
      vertex 93.075 12.5 1.25
    endloop
  endfacet
  facet normal 0.934784 0.355218 0
    outer loop
      vertex 93.075 12.5 -1.25
      vertex 97.825 0 1.25
      vertex 97.825 0 -1.25
    endloop
  endfacet
  facet normal 8.52896e-009 8.11476e-008 -1
    outer loop
      vertex 93.075 7.62363 -1.25
      vertex 93.8658 1.66435 -1.25
      vertex 93.1421 1.74041 -1.25
    endloop
  endfacet
  facet normal -2.62362e-008 8.07512e-008 -1
    outer loop
      vertex 93.075 7.62363 -1.25
      vertex 93.1421 1.74041 -1.25
      vertex 93.075 1.71862 -1.25
    endloop
  endfacet
  facet normal -2.31755e-007 4.92627e-008 -1
    outer loop
      vertex 93.8658 1.66435 -1.25
      vertex 93.075 7.62363 -1.25
      vertex 93.155 8 -1.25
    endloop
  endfacet
  facet normal 0 0 -1
    outer loop
      vertex 94.9237 0.711788 -1.25
      vertex 97.825 0 -1.25
      vertex 95.075 0 -1.25
    endloop
  endfacet
  facet normal 6.04537e-008 2.46413e-007 -1
    outer loop
      vertex 94.496 1.3005 -1.25
      vertex 97.825 0 -1.25
      vertex 94.9237 0.711788 -1.25
    endloop
  endfacet
  facet normal 4.6462e-008 8.0475e-008 -1
    outer loop
      vertex 93.155 8 -1.25
      vertex 94.496 1.3005 -1.25
      vertex 93.8658 1.66435 -1.25
    endloop
  endfacet
  facet normal -8.68311e-009 6.9437e-008 -1
    outer loop
      vertex 94.496 1.3005 -1.25
      vertex 93.155 8 -1.25
      vertex 97.825 0 -1.25
    endloop
  endfacet
  facet normal 4.08001e-007 8.67264e-008 -1
    outer loop
      vertex 93.075 12.5 -1.25
      vertex 93.155 8 -1.25
      vertex 93.075 8.37637 -1.25
    endloop
  endfacet
  facet normal 8.77615e-009 7.96289e-008 -1
    outer loop
      vertex 93.155 8 -1.25
      vertex 93.075 12.5 -1.25
      vertex 97.825 0 -1.25
    endloop
  endfacet
  facet normal -1 0 0
    outer loop
      vertex 88.425 -12.5 -1.25
      vertex 88.425 12.5 1.25
      vertex 88.425 12.5 -1.25
    endloop
  endfacet
  facet normal -1 -0 0
    outer loop
      vertex 88.425 12.5 1.25
      vertex 88.425 -12.5 -1.25
      vertex 88.425 -12.5 1.25
    endloop
  endfacet
  facet normal 0 0 -1
    outer loop
      vertex 93.075 -12.5 -1.25
      vertex 92.9821 -8.81347 -1.25
      vertex 93.075 -8.37637 -1.25
    endloop
  endfacet
  facet normal 0 0 -1
    outer loop
      vertex 93.075 -12.5 -1.25
      vertex 92.4933 -9.48629 -1.25
      vertex 92.9821 -8.81347 -1.25
    endloop
  endfacet
  facet normal 0 0 -1
    outer loop
      vertex 93.075 -12.5 -1.25
      vertex 91.773 -9.90211 -1.25
      vertex 92.4933 -9.48629 -1.25
    endloop
  endfacet
  facet normal 0 0 -1
    outer loop
      vertex 93.075 -12.5 -1.25
      vertex 90.9459 -9.98904 -1.25
      vertex 91.773 -9.90211 -1.25
    endloop
  endfacet
  facet normal 0 0 -1
    outer loop
      vertex 88.425 -12.5 -1.25
      vertex 90.9459 -9.98904 -1.25
      vertex 93.075 -12.5 -1.25
    endloop
  endfacet
  facet normal -0 0 -1
    outer loop
      vertex 90.9459 -9.98904 -1.25
      vertex 88.425 -12.5 -1.25
      vertex 90.155 -9.73205 -1.25
    endloop
  endfacet
  facet normal 0 0 -1
    outer loop
      vertex 88.425 -12.5 -1.25
      vertex 89.1987 -7.58418 -1.25
      vertex 89.1987 -8.41582 -1.25
    endloop
  endfacet
  facet normal -0 0 -1
    outer loop
      vertex 89.1987 -7.58418 -1.25
      vertex 88.425 -12.5 -1.25
      vertex 89.1987 7.58418 -1.25
    endloop
  endfacet
  facet normal 0 0 -1
    outer loop
      vertex 88.425 12.5 -1.25
      vertex 89.1987 7.58418 -1.25
      vertex 88.425 -12.5 -1.25
    endloop
  endfacet
  facet normal -0 0 -1
    outer loop
      vertex 89.537 -9.17557 -1.25
      vertex 88.425 -12.5 -1.25
      vertex 89.1987 -8.41582 -1.25
    endloop
  endfacet
  facet normal -0 0 -1
    outer loop
      vertex 90.155 -9.73205 -1.25
      vertex 88.425 -12.5 -1.25
      vertex 89.537 -9.17557 -1.25
    endloop
  endfacet
  facet normal 0 0 -1
    outer loop
      vertex 92.9821 -7.18653 -1.25
      vertex 93.075 -1.71862 -1.25
      vertex 93.075 -7.62363 -1.25
    endloop
  endfacet
  facet normal 0 0 -1
    outer loop
      vertex 92.4933 -6.51371 -1.25
      vertex 93.075 -1.71862 -1.25
      vertex 92.9821 -7.18653 -1.25
    endloop
  endfacet
  facet normal 0 0 -1
    outer loop
      vertex 91.773 -6.09789 -1.25
      vertex 93.075 -1.71862 -1.25
      vertex 92.4933 -6.51371 -1.25
    endloop
  endfacet
  facet normal -0 0 -1
    outer loop
      vertex 93.075 -1.71862 -1.25
      vertex 91.773 -6.09789 -1.25
      vertex 92.45 -1.51554 -1.25
    endloop
  endfacet
  facet normal 0 0 -1
    outer loop
      vertex 90.9459 -6.01096 -1.25
      vertex 92.45 -1.51554 -1.25
      vertex 91.773 -6.09789 -1.25
    endloop
  endfacet
  facet normal -0 0 -1
    outer loop
      vertex 92.45 -1.51554 -1.25
      vertex 90.9459 -6.01096 -1.25
      vertex 91.9092 -1.02862 -1.25
    endloop
  endfacet
  facet normal -0 0 -1
    outer loop
      vertex 91.9092 -1.02862 -1.25
      vertex 90.155 -6.26795 -1.25
      vertex 91.6132 -0.363845 -1.25
    endloop
  endfacet
  facet normal 0 0 -1
    outer loop
      vertex 90.155 -6.26795 -1.25
      vertex 91.9092 -1.02862 -1.25
      vertex 90.9459 -6.01096 -1.25
    endloop
  endfacet
  facet normal 0 0 -1
    outer loop
      vertex 93.075 1.71862 -1.25
      vertex 92.9821 7.18653 -1.25
      vertex 93.075 7.62363 -1.25
    endloop
  endfacet
  facet normal 0 0 -1
    outer loop
      vertex 93.075 1.71862 -1.25
      vertex 92.4933 6.51371 -1.25
      vertex 92.9821 7.18653 -1.25
    endloop
  endfacet
  facet normal 0 0 -1
    outer loop
      vertex 91.773 6.09789 -1.25
      vertex 93.075 1.71862 -1.25
      vertex 92.45 1.51554 -1.25
    endloop
  endfacet
  facet normal 0 0 -1
    outer loop
      vertex 90.9459 6.01096 -1.25
      vertex 92.45 1.51554 -1.25
      vertex 91.9092 1.02862 -1.25
    endloop
  endfacet
  facet normal 0 0 -1
    outer loop
      vertex 93.075 1.71862 -1.25
      vertex 91.773 6.09789 -1.25
      vertex 92.4933 6.51371 -1.25
    endloop
  endfacet
  facet normal 0 0 -1
    outer loop
      vertex 90.155 6.26795 -1.25
      vertex 91.9092 1.02862 -1.25
      vertex 91.6132 0.363845 -1.25
    endloop
  endfacet
  facet normal 0 0 -1
    outer loop
      vertex 89.537 -6.82443 -1.25
      vertex 91.6132 -0.363845 -1.25
      vertex 90.155 -6.26795 -1.25
    endloop
  endfacet
  facet normal 0 0 -1
    outer loop
      vertex 92.45 1.51554 -1.25
      vertex 90.9459 6.01096 -1.25
      vertex 91.773 6.09789 -1.25
    endloop
  endfacet
  facet normal -0 0 -1
    outer loop
      vertex 91.6132 -0.363845 -1.25
      vertex 89.537 -6.82443 -1.25
      vertex 91.6132 0.363845 -1.25
    endloop
  endfacet
  facet normal 0 0 -1
    outer loop
      vertex 91.9092 1.02862 -1.25
      vertex 90.155 6.26795 -1.25
      vertex 90.9459 6.01096 -1.25
    endloop
  endfacet
  facet normal 0 0 -1
    outer loop
      vertex 89.537 6.82443 -1.25
      vertex 91.6132 0.363845 -1.25
      vertex 89.537 -6.82443 -1.25
    endloop
  endfacet
  facet normal 0 0 -1
    outer loop
      vertex 91.6132 0.363845 -1.25
      vertex 89.537 6.82443 -1.25
      vertex 90.155 6.26795 -1.25
    endloop
  endfacet
  facet normal 0 0 -1
    outer loop
      vertex 89.1987 -7.58418 -1.25
      vertex 89.537 6.82443 -1.25
      vertex 89.537 -6.82443 -1.25
    endloop
  endfacet
  facet normal -0 0 -1
    outer loop
      vertex 89.537 6.82443 -1.25
      vertex 89.1987 -7.58418 -1.25
      vertex 89.1987 7.58418 -1.25
    endloop
  endfacet
  facet normal 0 0 -1
    outer loop
      vertex 92.9821 8.81347 -1.25
      vertex 93.075 12.5 -1.25
      vertex 93.075 8.37637 -1.25
    endloop
  endfacet
  facet normal 0 0 -1
    outer loop
      vertex 92.4933 9.48629 -1.25
      vertex 93.075 12.5 -1.25
      vertex 92.9821 8.81347 -1.25
    endloop
  endfacet
  facet normal 0 0 -1
    outer loop
      vertex 91.773 9.90211 -1.25
      vertex 93.075 12.5 -1.25
      vertex 92.4933 9.48629 -1.25
    endloop
  endfacet
  facet normal 0 0 -1
    outer loop
      vertex 90.9459 9.98904 -1.25
      vertex 93.075 12.5 -1.25
      vertex 91.773 9.90211 -1.25
    endloop
  endfacet
  facet normal 0 0 -1
    outer loop
      vertex 88.425 12.5 -1.25
      vertex 90.9459 9.98904 -1.25
      vertex 90.155 9.73205 -1.25
    endloop
  endfacet
  facet normal 0 0 -1
    outer loop
      vertex 88.425 12.5 -1.25
      vertex 90.155 9.73205 -1.25
      vertex 89.537 9.17557 -1.25
    endloop
  endfacet
  facet normal 0 0 -1
    outer loop
      vertex 90.9459 9.98904 -1.25
      vertex 88.425 12.5 -1.25
      vertex 93.075 12.5 -1.25
    endloop
  endfacet
  facet normal 0 0 -1
    outer loop
      vertex 89.1987 8.41582 -1.25
      vertex 88.425 12.5 -1.25
      vertex 89.537 9.17557 -1.25
    endloop
  endfacet
  facet normal 0 0 -1
    outer loop
      vertex 89.1987 7.58418 -1.25
      vertex 88.425 12.5 -1.25
      vertex 89.1987 8.41582 -1.25
    endloop
  endfacet
  facet normal 0 -1 0
    outer loop
      vertex 88.425 -12.5 1.25
      vertex 93.075 -12.5 -1.25
      vertex 93.075 -12.5 1.25
    endloop
  endfacet
  facet normal 0 -1 0
    outer loop
      vertex 88.425 -12.5 -1.25
      vertex 93.075 -12.5 -1.25
      vertex 88.425 -12.5 1.25
    endloop
  endfacet
  facet normal 0 1 -0
    outer loop
      vertex 93.075 12.5 -1.25
      vertex 88.425 12.5 1.25
      vertex 93.075 12.5 1.25
    endloop
  endfacet
  facet normal 0 1 0
    outer loop
      vertex 93.075 12.5 -1.25
      vertex 88.425 12.5 -1.25
      vertex 88.425 12.5 1.25
    endloop
  endfacet
  facet normal -0.978149 -0.207906 0
    outer loop
      vertex 95.075 0 -1.25
      vertex 94.9237 0.711788 1.25
      vertex 94.9237 0.711788 -1.25
    endloop
  endfacet
  facet normal -0.978149 -0.207906 0
    outer loop
      vertex 94.9237 0.711788 1.25
      vertex 95.075 0 -1.25
      vertex 95.075 0 1.25
    endloop
  endfacet
  facet normal 1 -0 0
    outer loop
      vertex 91.6132 -0.363845 1.25
      vertex 91.6132 0.363845 -1.25
      vertex 91.6132 0.363845 1.25
    endloop
  endfacet
  facet normal 1 0 0
    outer loop
      vertex 91.6132 0.363845 -1.25
      vertex 91.6132 -0.363845 1.25
      vertex 91.6132 -0.363845 -1.25
    endloop
  endfacet
  facet normal -0.104528 -0.994522 0
    outer loop
      vertex 93.1421 1.74041 -1.25
      vertex 93.8658 1.66435 1.25
      vertex 93.1421 1.74041 1.25
    endloop
  endfacet
  facet normal -0.104528 -0.994522 -0
    outer loop
      vertex 93.8658 1.66435 1.25
      vertex 93.1421 1.74041 -1.25
      vertex 93.8658 1.66435 -1.25
    endloop
  endfacet
  facet normal -0.809017 -0.587786 0
    outer loop
      vertex 94.9237 0.711788 -1.25
      vertex 94.496 1.3005 1.25
      vertex 94.496 1.3005 -1.25
    endloop
  endfacet
  facet normal -0.809017 -0.587786 0
    outer loop
      vertex 94.496 1.3005 1.25
      vertex 94.9237 0.711788 -1.25
      vertex 94.9237 0.711788 1.25
    endloop
  endfacet
  facet normal -0.809017 0.587786 0
    outer loop
      vertex 94.496 -1.3005 -1.25
      vertex 94.9237 -0.711788 1.25
      vertex 94.9237 -0.711788 -1.25
    endloop
  endfacet
  facet normal -0.809017 0.587786 0
    outer loop
      vertex 94.9237 -0.711788 1.25
      vertex 94.496 -1.3005 -1.25
      vertex 94.496 -1.3005 1.25
    endloop
  endfacet
  facet normal -0.499998 0.866027 0
    outer loop
      vertex 94.496 -1.3005 -1.25
      vertex 93.8658 -1.66435 1.25
      vertex 94.496 -1.3005 1.25
    endloop
  endfacet
  facet normal -0.499998 0.866027 0
    outer loop
      vertex 93.8658 -1.66435 1.25
      vertex 94.496 -1.3005 -1.25
      vertex 93.8658 -1.66435 -1.25
    endloop
  endfacet
  facet normal -0.104528 0.994522 0
    outer loop
      vertex 93.8658 -1.66435 -1.25
      vertex 93.1421 -1.74041 1.25
      vertex 93.8658 -1.66435 1.25
    endloop
  endfacet
  facet normal -0.104528 0.994522 0
    outer loop
      vertex 93.1421 -1.74041 1.25
      vertex 93.8658 -1.66435 -1.25
      vertex 93.1421 -1.74041 -1.25
    endloop
  endfacet
  facet normal -0.499998 -0.866027 0
    outer loop
      vertex 93.8658 1.66435 -1.25
      vertex 94.496 1.3005 1.25
      vertex 93.8658 1.66435 1.25
    endloop
  endfacet
  facet normal -0.499998 -0.866027 -0
    outer loop
      vertex 94.496 1.3005 1.25
      vertex 93.8658 1.66435 -1.25
      vertex 94.496 1.3005 -1.25
    endloop
  endfacet
  facet normal 0.309016 -0.951057 -4.39789e-007
    outer loop
      vertex 92.45 1.51554 1.25
      vertex 93.075 1.71862 -1.25
      vertex 93.1421 1.74041 1.25
    endloop
  endfacet
  facet normal 0.309017 -0.951056 0
    outer loop
      vertex 92.45 1.51554 -1.25
      vertex 93.075 1.71862 -1.25
      vertex 92.45 1.51554 1.25
    endloop
  endfacet
  facet normal 0.309001 -0.951062 0
    outer loop
      vertex 93.1421 1.74041 1.25
      vertex 93.075 1.71862 -1.25
      vertex 93.1421 1.74041 -1.25
    endloop
  endfacet
  facet normal 0.669131 -0.743144 0
    outer loop
      vertex 91.9092 1.02862 -1.25
      vertex 92.45 1.51554 1.25
      vertex 91.9092 1.02862 1.25
    endloop
  endfacet
  facet normal 0.669131 -0.743144 0
    outer loop
      vertex 92.45 1.51554 1.25
      vertex 91.9092 1.02862 -1.25
      vertex 92.45 1.51554 -1.25
    endloop
  endfacet
  facet normal 0.913547 0.406732 0
    outer loop
      vertex 91.9092 -1.02862 1.25
      vertex 91.6132 -0.363845 -1.25
      vertex 91.6132 -0.363845 1.25
    endloop
  endfacet
  facet normal 0.913547 0.406732 0
    outer loop
      vertex 91.6132 -0.363845 -1.25
      vertex 91.9092 -1.02862 1.25
      vertex 91.9092 -1.02862 -1.25
    endloop
  endfacet
  facet normal 0.309001 0.951062 0
    outer loop
      vertex 93.075 -1.71862 -1.25
      vertex 93.1421 -1.74041 1.25
      vertex 93.1421 -1.74041 -1.25
    endloop
  endfacet
  facet normal 0.309016 0.951057 -4.39789e-007
    outer loop
      vertex 93.1421 -1.74041 1.25
      vertex 93.075 -1.71862 -1.25
      vertex 92.45 -1.51554 1.25
    endloop
  endfacet
  facet normal 0.309017 0.951056 0
    outer loop
      vertex 93.075 -1.71862 -1.25
      vertex 92.45 -1.51554 -1.25
      vertex 92.45 -1.51554 1.25
    endloop
  endfacet
  facet normal 0.913547 -0.406732 0
    outer loop
      vertex 91.6132 0.363845 1.25
      vertex 91.9092 1.02862 -1.25
      vertex 91.9092 1.02862 1.25
    endloop
  endfacet
  facet normal 0.913547 -0.406732 0
    outer loop
      vertex 91.9092 1.02862 -1.25
      vertex 91.6132 0.363845 1.25
      vertex 91.6132 0.363845 -1.25
    endloop
  endfacet
  facet normal 0.669131 0.743144 -0
    outer loop
      vertex 92.45 -1.51554 -1.25
      vertex 91.9092 -1.02862 1.25
      vertex 92.45 -1.51554 1.25
    endloop
  endfacet
  facet normal 0.669131 0.743144 0
    outer loop
      vertex 91.9092 -1.02862 1.25
      vertex 92.45 -1.51554 -1.25
      vertex 91.9092 -1.02862 -1.25
    endloop
  endfacet
  facet normal -0.978149 0.207906 0
    outer loop
      vertex 94.9237 -0.711788 -1.25
      vertex 95.075 0 1.25
      vertex 95.075 0 -1.25
    endloop
  endfacet
  facet normal -0.978149 0.207906 0
    outer loop
      vertex 95.075 0 1.25
      vertex 94.9237 -0.711788 -1.25
      vertex 94.9237 -0.711788 1.25
    endloop
  endfacet
  facet normal -0.978151 -0.207897 0
    outer loop
      vertex 92.9821 8.81347 -1.25
      vertex 93.075 8.37637 -1.25
      vertex 92.9821 8.81347 1.25
    endloop
  endfacet
  facet normal -0.978146 -0.207919 -0
    outer loop
      vertex 93.155 8 1.25
      vertex 93.075 8.37637 -1.25
      vertex 93.155 8 -1.25
    endloop
  endfacet
  facet normal -0.978149 -0.207907 1.83567e-006
    outer loop
      vertex 93.075 8.37637 -1.25
      vertex 93.155 8 1.25
      vertex 92.9821 8.81347 1.25
    endloop
  endfacet
  facet normal 1 -0 0
    outer loop
      vertex 89.1987 7.58418 1.25
      vertex 89.1987 8.41582 -1.25
      vertex 89.1987 8.41582 1.25
    endloop
  endfacet
  facet normal 1 0 0
    outer loop
      vertex 89.1987 8.41582 -1.25
      vertex 89.1987 7.58418 1.25
      vertex 89.1987 7.58418 -1.25
    endloop
  endfacet
  facet normal -0.104528 -0.994522 0
    outer loop
      vertex 90.9459 9.98904 -1.25
      vertex 91.773 9.90211 1.25
      vertex 90.9459 9.98904 1.25
    endloop
  endfacet
  facet normal -0.104528 -0.994522 -0
    outer loop
      vertex 91.773 9.90211 1.25
      vertex 90.9459 9.98904 -1.25
      vertex 91.773 9.90211 -1.25
    endloop
  endfacet
  facet normal -0.104528 0.994522 0
    outer loop
      vertex 91.773 6.09789 -1.25
      vertex 90.9459 6.01096 1.25
      vertex 91.773 6.09789 1.25
    endloop
  endfacet
  facet normal -0.104528 0.994522 0
    outer loop
      vertex 90.9459 6.01096 1.25
      vertex 91.773 6.09789 -1.25
      vertex 90.9459 6.01096 -1.25
    endloop
  endfacet
  facet normal -0.499999 -0.866026 0
    outer loop
      vertex 91.773 9.90211 -1.25
      vertex 92.4933 9.48629 1.25
      vertex 91.773 9.90211 1.25
    endloop
  endfacet
  facet normal -0.499999 -0.866026 -0
    outer loop
      vertex 92.4933 9.48629 1.25
      vertex 91.773 9.90211 -1.25
      vertex 92.4933 9.48629 -1.25
    endloop
  endfacet
  facet normal -0.809016 -0.587786 0
    outer loop
      vertex 92.9821 8.81347 -1.25
      vertex 92.4933 9.48629 1.25
      vertex 92.4933 9.48629 -1.25
    endloop
  endfacet
  facet normal -0.809016 -0.587786 0
    outer loop
      vertex 92.4933 9.48629 1.25
      vertex 92.9821 8.81347 -1.25
      vertex 92.9821 8.81347 1.25
    endloop
  endfacet
  facet normal 0.309016 -0.951057 0
    outer loop
      vertex 90.155 9.73205 -1.25
      vertex 90.9459 9.98904 1.25
      vertex 90.155 9.73205 1.25
    endloop
  endfacet
  facet normal 0.309016 -0.951057 0
    outer loop
      vertex 90.9459 9.98904 1.25
      vertex 90.155 9.73205 -1.25
      vertex 90.9459 9.98904 -1.25
    endloop
  endfacet
  facet normal 0.66913 -0.743146 0
    outer loop
      vertex 89.537 9.17557 -1.25
      vertex 90.155 9.73205 1.25
      vertex 89.537 9.17557 1.25
    endloop
  endfacet
  facet normal 0.66913 -0.743146 0
    outer loop
      vertex 90.155 9.73205 1.25
      vertex 89.537 9.17557 -1.25
      vertex 90.155 9.73205 -1.25
    endloop
  endfacet
  facet normal -0.978146 0.207918 0
    outer loop
      vertex 93.075 7.62363 -1.25
      vertex 93.155 8 1.25
      vertex 93.155 8 -1.25
    endloop
  endfacet
  facet normal -0.978151 0.207897 0
    outer loop
      vertex 92.9821 7.18653 1.25
      vertex 93.075 7.62363 -1.25
      vertex 92.9821 7.18653 -1.25
    endloop
  endfacet
  facet normal -0.978149 0.207907 1.79305e-006
    outer loop
      vertex 93.075 7.62363 -1.25
      vertex 92.9821 7.18653 1.25
      vertex 93.155 8 1.25
    endloop
  endfacet
  facet normal -0.499999 0.866026 0
    outer loop
      vertex 92.4933 6.51371 -1.25
      vertex 91.773 6.09789 1.25
      vertex 92.4933 6.51371 1.25
    endloop
  endfacet
  facet normal -0.499999 0.866026 0
    outer loop
      vertex 91.773 6.09789 1.25
      vertex 92.4933 6.51371 -1.25
      vertex 91.773 6.09789 -1.25
    endloop
  endfacet
  facet normal -0.809016 0.587786 0
    outer loop
      vertex 92.4933 6.51371 -1.25
      vertex 92.9821 7.18653 1.25
      vertex 92.9821 7.18653 -1.25
    endloop
  endfacet
  facet normal -0.809016 0.587786 0
    outer loop
      vertex 92.9821 7.18653 1.25
      vertex 92.4933 6.51371 -1.25
      vertex 92.4933 6.51371 1.25
    endloop
  endfacet
  facet normal 0.913547 0.406732 0
    outer loop
      vertex 89.537 6.82443 1.25
      vertex 89.1987 7.58418 -1.25
      vertex 89.1987 7.58418 1.25
    endloop
  endfacet
  facet normal 0.913547 0.406732 0
    outer loop
      vertex 89.1987 7.58418 -1.25
      vertex 89.537 6.82443 1.25
      vertex 89.537 6.82443 -1.25
    endloop
  endfacet
  facet normal 0.309016 0.951057 -0
    outer loop
      vertex 90.9459 6.01096 -1.25
      vertex 90.155 6.26795 1.25
      vertex 90.9459 6.01096 1.25
    endloop
  endfacet
  facet normal 0.309016 0.951057 0
    outer loop
      vertex 90.155 6.26795 1.25
      vertex 90.9459 6.01096 -1.25
      vertex 90.155 6.26795 -1.25
    endloop
  endfacet
  facet normal 0.66913 0.743146 -0
    outer loop
      vertex 90.155 6.26795 -1.25
      vertex 89.537 6.82443 1.25
      vertex 90.155 6.26795 1.25
    endloop
  endfacet
  facet normal 0.66913 0.743146 0
    outer loop
      vertex 89.537 6.82443 1.25
      vertex 90.155 6.26795 -1.25
      vertex 89.537 6.82443 -1.25
    endloop
  endfacet
  facet normal 0.913547 -0.406732 0
    outer loop
      vertex 89.1987 8.41582 1.25
      vertex 89.537 9.17557 -1.25
      vertex 89.537 9.17557 1.25
    endloop
  endfacet
  facet normal 0.913547 -0.406732 0
    outer loop
      vertex 89.537 9.17557 -1.25
      vertex 89.1987 8.41582 1.25
      vertex 89.1987 8.41582 -1.25
    endloop
  endfacet
  facet normal -0.978151 -0.207897 0
    outer loop
      vertex 92.9821 -7.18653 -1.25
      vertex 93.075 -7.62363 -1.25
      vertex 92.9821 -7.18653 1.25
    endloop
  endfacet
  facet normal -0.978146 -0.207918 -0
    outer loop
      vertex 93.155 -8 1.25
      vertex 93.075 -7.62363 -1.25
      vertex 93.155 -8 -1.25
    endloop
  endfacet
  facet normal -0.978149 -0.207907 1.79305e-006
    outer loop
      vertex 93.075 -7.62363 -1.25
      vertex 93.155 -8 1.25
      vertex 92.9821 -7.18653 1.25
    endloop
  endfacet
  facet normal 1 -0 0
    outer loop
      vertex 89.1987 -8.41582 1.25
      vertex 89.1987 -7.58418 -1.25
      vertex 89.1987 -7.58418 1.25
    endloop
  endfacet
  facet normal 1 0 0
    outer loop
      vertex 89.1987 -7.58418 -1.25
      vertex 89.1987 -8.41582 1.25
      vertex 89.1987 -8.41582 -1.25
    endloop
  endfacet
  facet normal -0.104528 -0.994522 0
    outer loop
      vertex 90.9459 -6.01096 -1.25
      vertex 91.773 -6.09789 1.25
      vertex 90.9459 -6.01096 1.25
    endloop
  endfacet
  facet normal -0.104528 -0.994522 -0
    outer loop
      vertex 91.773 -6.09789 1.25
      vertex 90.9459 -6.01096 -1.25
      vertex 91.773 -6.09789 -1.25
    endloop
  endfacet
  facet normal -0.499999 0.866026 0
    outer loop
      vertex 92.4933 -9.48629 -1.25
      vertex 91.773 -9.90211 1.25
      vertex 92.4933 -9.48629 1.25
    endloop
  endfacet
  facet normal -0.499999 0.866026 0
    outer loop
      vertex 91.773 -9.90211 1.25
      vertex 92.4933 -9.48629 -1.25
      vertex 91.773 -9.90211 -1.25
    endloop
  endfacet
  facet normal -0.104528 0.994522 0
    outer loop
      vertex 91.773 -9.90211 -1.25
      vertex 90.9459 -9.98904 1.25
      vertex 91.773 -9.90211 1.25
    endloop
  endfacet
  facet normal -0.104528 0.994522 0
    outer loop
      vertex 90.9459 -9.98904 1.25
      vertex 91.773 -9.90211 -1.25
      vertex 90.9459 -9.98904 -1.25
    endloop
  endfacet
  facet normal -0.499999 -0.866026 0
    outer loop
      vertex 91.773 -6.09789 -1.25
      vertex 92.4933 -6.51371 1.25
      vertex 91.773 -6.09789 1.25
    endloop
  endfacet
  facet normal -0.499999 -0.866026 -0
    outer loop
      vertex 92.4933 -6.51371 1.25
      vertex 91.773 -6.09789 -1.25
      vertex 92.4933 -6.51371 -1.25
    endloop
  endfacet
  facet normal -0.809016 -0.587786 0
    outer loop
      vertex 92.9821 -7.18653 -1.25
      vertex 92.4933 -6.51371 1.25
      vertex 92.4933 -6.51371 -1.25
    endloop
  endfacet
  facet normal -0.809016 -0.587786 0
    outer loop
      vertex 92.4933 -6.51371 1.25
      vertex 92.9821 -7.18653 -1.25
      vertex 92.9821 -7.18653 1.25
    endloop
  endfacet
  facet normal 0.309016 -0.951057 0
    outer loop
      vertex 90.155 -6.26795 -1.25
      vertex 90.9459 -6.01096 1.25
      vertex 90.155 -6.26795 1.25
    endloop
  endfacet
  facet normal 0.309016 -0.951057 0
    outer loop
      vertex 90.9459 -6.01096 1.25
      vertex 90.155 -6.26795 -1.25
      vertex 90.9459 -6.01096 -1.25
    endloop
  endfacet
  facet normal 0.66913 -0.743146 0
    outer loop
      vertex 89.537 -6.82443 -1.25
      vertex 90.155 -6.26795 1.25
      vertex 89.537 -6.82443 1.25
    endloop
  endfacet
  facet normal 0.66913 -0.743146 0
    outer loop
      vertex 90.155 -6.26795 1.25
      vertex 89.537 -6.82443 -1.25
      vertex 90.155 -6.26795 -1.25
    endloop
  endfacet
  facet normal 0.913547 0.406732 0
    outer loop
      vertex 89.537 -9.17557 1.25
      vertex 89.1987 -8.41582 -1.25
      vertex 89.1987 -8.41582 1.25
    endloop
  endfacet
  facet normal 0.913547 0.406732 0
    outer loop
      vertex 89.1987 -8.41582 -1.25
      vertex 89.537 -9.17557 1.25
      vertex 89.537 -9.17557 -1.25
    endloop
  endfacet
  facet normal 0.309016 0.951057 -0
    outer loop
      vertex 90.9459 -9.98904 -1.25
      vertex 90.155 -9.73205 1.25
      vertex 90.9459 -9.98904 1.25
    endloop
  endfacet
  facet normal 0.309016 0.951057 0
    outer loop
      vertex 90.155 -9.73205 1.25
      vertex 90.9459 -9.98904 -1.25
      vertex 90.155 -9.73205 -1.25
    endloop
  endfacet
  facet normal 0.66913 0.743146 -0
    outer loop
      vertex 90.155 -9.73205 -1.25
      vertex 89.537 -9.17557 1.25
      vertex 90.155 -9.73205 1.25
    endloop
  endfacet
  facet normal 0.66913 0.743146 0
    outer loop
      vertex 89.537 -9.17557 1.25
      vertex 90.155 -9.73205 -1.25
      vertex 89.537 -9.17557 -1.25
    endloop
  endfacet
  facet normal 0.913547 -0.406732 0
    outer loop
      vertex 89.1987 -7.58418 1.25
      vertex 89.537 -6.82443 -1.25
      vertex 89.537 -6.82443 1.25
    endloop
  endfacet
  facet normal 0.913547 -0.406732 0
    outer loop
      vertex 89.537 -6.82443 -1.25
      vertex 89.1987 -7.58418 1.25
      vertex 89.1987 -7.58418 -1.25
    endloop
  endfacet
  facet normal -0.809016 0.587786 0
    outer loop
      vertex 92.4933 -9.48629 -1.25
      vertex 92.9821 -8.81347 1.25
      vertex 92.9821 -8.81347 -1.25
    endloop
  endfacet
  facet normal -0.809016 0.587786 0
    outer loop
      vertex 92.9821 -8.81347 1.25
      vertex 92.4933 -9.48629 -1.25
      vertex 92.4933 -9.48629 1.25
    endloop
  endfacet
  facet normal -0.978146 0.207919 0
    outer loop
      vertex 93.075 -8.37637 -1.25
      vertex 93.155 -8 1.25
      vertex 93.155 -8 -1.25
    endloop
  endfacet
  facet normal -0.978151 0.207897 0
    outer loop
      vertex 92.9821 -8.81347 1.25
      vertex 93.075 -8.37637 -1.25
      vertex 92.9821 -8.81347 -1.25
    endloop
  endfacet
  facet normal -0.978149 0.207907 1.83567e-006
    outer loop
      vertex 93.075 -8.37637 -1.25
      vertex 92.9821 -8.81347 1.25
      vertex 93.155 -8 1.25
    endloop
  endfacet
  facet normal -1 0 0
    outer loop
      vertex -97.825 -12.5 -1.25
      vertex -97.825 12.5 1.25
      vertex -97.825 12.5 -1.25
    endloop
  endfacet
  facet normal -1 -0 0
    outer loop
      vertex -97.825 12.5 1.25
      vertex -97.825 -12.5 -1.25
      vertex -97.825 -12.5 1.25
    endloop
  endfacet
  facet normal -0 0 1
    outer loop
      vertex -92.3729 -7.68653 1.25
      vertex -90.575 -12.5 1.25
      vertex -92.3729 7.68653 1.25
    endloop
  endfacet
  facet normal 0 0 1
    outer loop
      vertex -90.575 -12.5 1.25
      vertex -92.3729 -7.68653 1.25
      vertex -92.2 -8.5 1.25
    endloop
  endfacet
  facet normal -0 0 1
    outer loop
      vertex -92.8617 7.01371 1.25
      vertex -92.3729 -7.68653 1.25
      vertex -92.3729 7.68653 1.25
    endloop
  endfacet
  facet normal 0 0 1
    outer loop
      vertex -92.8617 7.01371 1.25
      vertex -92.8617 -7.01371 1.25
      vertex -92.3729 -7.68653 1.25
    endloop
  endfacet
  facet normal -0 0 1
    outer loop
      vertex -93.582 6.59789 1.25
      vertex -92.8617 -7.01371 1.25
      vertex -92.8617 7.01371 1.25
    endloop
  endfacet
  facet normal 0 0 1
    outer loop
      vertex -93.582 6.59789 1.25
      vertex -93.582 -6.59789 1.25
      vertex -92.8617 -7.01371 1.25
    endloop
  endfacet
  facet normal -0 0 1
    outer loop
      vertex -94.4091 6.51096 1.25
      vertex -93.582 -6.59789 1.25
      vertex -93.582 6.59789 1.25
    endloop
  endfacet
  facet normal 0 0 1
    outer loop
      vertex -94.4091 6.51096 1.25
      vertex -94.4091 -6.51096 1.25
      vertex -93.582 -6.59789 1.25
    endloop
  endfacet
  facet normal 0 0 1
    outer loop
      vertex -95.2 6.76795 1.25
      vertex -94.4091 -6.51096 1.25
      vertex -94.4091 6.51096 1.25
    endloop
  endfacet
  facet normal 0 0 1
    outer loop
      vertex -95.2 6.76795 1.25
      vertex -95.2 -6.76795 1.25
      vertex -94.4091 -6.51096 1.25
    endloop
  endfacet
  facet normal 0 0 1
    outer loop
      vertex -95.818 7.32443 1.25
      vertex -95.2 -6.76795 1.25
      vertex -95.2 6.76795 1.25
    endloop
  endfacet
  facet normal 0 0 1
    outer loop
      vertex -95.818 7.32443 1.25
      vertex -95.818 -7.32443 1.25
      vertex -95.2 -6.76795 1.25
    endloop
  endfacet
  facet normal 0 0 1
    outer loop
      vertex -96.1563 8.08418 1.25
      vertex -95.818 -7.32443 1.25
      vertex -95.818 7.32443 1.25
    endloop
  endfacet
  facet normal 0 0 1
    outer loop
      vertex -95.818 -7.32443 1.25
      vertex -96.1563 8.08418 1.25
      vertex -96.1563 -8.08418 1.25
    endloop
  endfacet
  facet normal 0 0 1
    outer loop
      vertex -92.3729 7.68653 1.25
      vertex -90.575 12.5 1.25
      vertex -92.2 8.5 1.25
    endloop
  endfacet
  facet normal 0 0 1
    outer loop
      vertex -90.575 12.5 1.25
      vertex -92.3729 9.31347 1.25
      vertex -92.2 8.5 1.25
    endloop
  endfacet
  facet normal 0 0 1
    outer loop
      vertex -90.575 12.5 1.25
      vertex -92.8617 9.98629 1.25
      vertex -92.3729 9.31347 1.25
    endloop
  endfacet
  facet normal 0 0 1
    outer loop
      vertex -90.575 12.5 1.25
      vertex -93.582 10.4021 1.25
      vertex -92.8617 9.98629 1.25
    endloop
  endfacet
  facet normal 0 0 1
    outer loop
      vertex -90.575 12.5 1.25
      vertex -94.4091 10.489 1.25
      vertex -93.582 10.4021 1.25
    endloop
  endfacet
  facet normal -0 0 1
    outer loop
      vertex -97.825 12.5 1.25
      vertex -94.4091 10.489 1.25
      vertex -90.575 12.5 1.25
    endloop
  endfacet
  facet normal 0 0 1
    outer loop
      vertex -97.825 12.5 1.25
      vertex -96.1563 8.08418 1.25
      vertex -96.1563 8.91582 1.25
    endloop
  endfacet
  facet normal 0 0 1
    outer loop
      vertex -96.1563 8.08418 1.25
      vertex -97.825 12.5 1.25
      vertex -96.1563 -8.08418 1.25
    endloop
  endfacet
  facet normal 0 0 1
    outer loop
      vertex -97.825 -12.5 1.25
      vertex -96.1563 -8.08418 1.25
      vertex -97.825 12.5 1.25
    endloop
  endfacet
  facet normal 0 0 1
    outer loop
      vertex -95.818 9.67557 1.25
      vertex -97.825 12.5 1.25
      vertex -96.1563 8.91582 1.25
    endloop
  endfacet
  facet normal 0 0 1
    outer loop
      vertex -95.2 10.232 1.25
      vertex -97.825 12.5 1.25
      vertex -95.818 9.67557 1.25
    endloop
  endfacet
  facet normal 0 0 1
    outer loop
      vertex -94.4091 10.489 1.25
      vertex -97.825 12.5 1.25
      vertex -95.2 10.232 1.25
    endloop
  endfacet
  facet normal 0 0 1
    outer loop
      vertex -90.575 12.5 1.25
      vertex -92.3729 7.68653 1.25
      vertex -90.575 -12.5 1.25
    endloop
  endfacet
  facet normal -0 0 1
    outer loop
      vertex -92.3729 -9.31347 1.25
      vertex -90.575 -12.5 1.25
      vertex -92.2 -8.5 1.25
    endloop
  endfacet
  facet normal -0 0 1
    outer loop
      vertex -92.8617 -9.98629 1.25
      vertex -90.575 -12.5 1.25
      vertex -92.3729 -9.31347 1.25
    endloop
  endfacet
  facet normal -0 0 1
    outer loop
      vertex -93.582 -10.4021 1.25
      vertex -90.575 -12.5 1.25
      vertex -92.8617 -9.98629 1.25
    endloop
  endfacet
  facet normal -0 0 1
    outer loop
      vertex -94.4091 -10.489 1.25
      vertex -90.575 -12.5 1.25
      vertex -93.582 -10.4021 1.25
    endloop
  endfacet
  facet normal 0 0 1
    outer loop
      vertex -97.825 -12.5 1.25
      vertex -94.4091 -10.489 1.25
      vertex -95.2 -10.232 1.25
    endloop
  endfacet
  facet normal 0 0 1
    outer loop
      vertex -94.4091 -10.489 1.25
      vertex -97.825 -12.5 1.25
      vertex -90.575 -12.5 1.25
    endloop
  endfacet
  facet normal 0 0 1
    outer loop
      vertex -95.818 -9.67557 1.25
      vertex -97.825 -12.5 1.25
      vertex -95.2 -10.232 1.25
    endloop
  endfacet
  facet normal 0 0 1
    outer loop
      vertex -96.1563 -8.91582 1.25
      vertex -97.825 -12.5 1.25
      vertex -95.818 -9.67557 1.25
    endloop
  endfacet
  facet normal 0 0 1
    outer loop
      vertex -96.1563 -8.08418 1.25
      vertex -97.825 -12.5 1.25
      vertex -96.1563 -8.91582 1.25
    endloop
  endfacet
  facet normal 1 -0 0
    outer loop
      vertex -90.575 -12.5 1.25
      vertex -90.575 12.5 -1.25
      vertex -90.575 12.5 1.25
    endloop
  endfacet
  facet normal 1 0 0
    outer loop
      vertex -90.575 12.5 -1.25
      vertex -90.575 -12.5 1.25
      vertex -90.575 -12.5 -1.25
    endloop
  endfacet
  facet normal 0 1 -0
    outer loop
      vertex -90.575 12.5 -1.25
      vertex -97.825 12.5 1.25
      vertex -90.575 12.5 1.25
    endloop
  endfacet
  facet normal 0 1 0
    outer loop
      vertex -97.825 12.5 1.25
      vertex -90.575 12.5 -1.25
      vertex -97.825 12.5 -1.25
    endloop
  endfacet
  facet normal 0 0 -1
    outer loop
      vertex -92.3729 7.68653 -1.25
      vertex -90.575 12.5 -1.25
      vertex -92.3729 -7.68653 -1.25
    endloop
  endfacet
  facet normal 0 0 -1
    outer loop
      vertex -90.575 12.5 -1.25
      vertex -92.3729 7.68653 -1.25
      vertex -92.2 8.5 -1.25
    endloop
  endfacet
  facet normal 0 0 -1
    outer loop
      vertex -92.8617 -7.01371 -1.25
      vertex -92.3729 7.68653 -1.25
      vertex -92.3729 -7.68653 -1.25
    endloop
  endfacet
  facet normal 0 0 -1
    outer loop
      vertex -92.8617 -7.01371 -1.25
      vertex -92.8617 7.01371 -1.25
      vertex -92.3729 7.68653 -1.25
    endloop
  endfacet
  facet normal 0 0 -1
    outer loop
      vertex -93.582 -6.59789 -1.25
      vertex -92.8617 7.01371 -1.25
      vertex -92.8617 -7.01371 -1.25
    endloop
  endfacet
  facet normal 0 0 -1
    outer loop
      vertex -93.582 -6.59789 -1.25
      vertex -93.582 6.59789 -1.25
      vertex -92.8617 7.01371 -1.25
    endloop
  endfacet
  facet normal 0 0 -1
    outer loop
      vertex -94.4091 -6.51096 -1.25
      vertex -93.582 6.59789 -1.25
      vertex -93.582 -6.59789 -1.25
    endloop
  endfacet
  facet normal 0 0 -1
    outer loop
      vertex -94.4091 -6.51096 -1.25
      vertex -94.4091 6.51096 -1.25
      vertex -93.582 6.59789 -1.25
    endloop
  endfacet
  facet normal 0 0 -1
    outer loop
      vertex -95.2 -6.76795 -1.25
      vertex -94.4091 6.51096 -1.25
      vertex -94.4091 -6.51096 -1.25
    endloop
  endfacet
  facet normal 0 0 -1
    outer loop
      vertex -95.2 -6.76795 -1.25
      vertex -95.2 6.76795 -1.25
      vertex -94.4091 6.51096 -1.25
    endloop
  endfacet
  facet normal 0 0 -1
    outer loop
      vertex -95.818 -7.32443 -1.25
      vertex -95.2 6.76795 -1.25
      vertex -95.2 -6.76795 -1.25
    endloop
  endfacet
  facet normal 0 0 -1
    outer loop
      vertex -95.818 -7.32443 -1.25
      vertex -95.818 7.32443 -1.25
      vertex -95.2 6.76795 -1.25
    endloop
  endfacet
  facet normal 0 0 -1
    outer loop
      vertex -96.1563 -8.08418 -1.25
      vertex -95.818 7.32443 -1.25
      vertex -95.818 -7.32443 -1.25
    endloop
  endfacet
  facet normal -0 0 -1
    outer loop
      vertex -95.818 7.32443 -1.25
      vertex -96.1563 -8.08418 -1.25
      vertex -96.1563 8.08418 -1.25
    endloop
  endfacet
  facet normal 0 0 -1
    outer loop
      vertex -92.3729 -7.68653 -1.25
      vertex -90.575 -12.5 -1.25
      vertex -92.2 -8.5 -1.25
    endloop
  endfacet
  facet normal 0 0 -1
    outer loop
      vertex -90.575 -12.5 -1.25
      vertex -92.3729 -9.31347 -1.25
      vertex -92.2 -8.5 -1.25
    endloop
  endfacet
  facet normal 0 0 -1
    outer loop
      vertex -90.575 -12.5 -1.25
      vertex -92.8617 -9.98629 -1.25
      vertex -92.3729 -9.31347 -1.25
    endloop
  endfacet
  facet normal 0 0 -1
    outer loop
      vertex -90.575 -12.5 -1.25
      vertex -93.582 -10.4021 -1.25
      vertex -92.8617 -9.98629 -1.25
    endloop
  endfacet
  facet normal 0 0 -1
    outer loop
      vertex -90.575 -12.5 -1.25
      vertex -94.4091 -10.489 -1.25
      vertex -93.582 -10.4021 -1.25
    endloop
  endfacet
  facet normal 0 0 -1
    outer loop
      vertex -97.825 -12.5 -1.25
      vertex -94.4091 -10.489 -1.25
      vertex -90.575 -12.5 -1.25
    endloop
  endfacet
  facet normal 0 0 -1
    outer loop
      vertex -97.825 -12.5 -1.25
      vertex -96.1563 -8.08418 -1.25
      vertex -96.1563 -8.91582 -1.25
    endloop
  endfacet
  facet normal -0 0 -1
    outer loop
      vertex -96.1563 -8.08418 -1.25
      vertex -97.825 -12.5 -1.25
      vertex -96.1563 8.08418 -1.25
    endloop
  endfacet
  facet normal 0 0 -1
    outer loop
      vertex -97.825 12.5 -1.25
      vertex -96.1563 8.08418 -1.25
      vertex -97.825 -12.5 -1.25
    endloop
  endfacet
  facet normal -0 0 -1
    outer loop
      vertex -95.818 -9.67557 -1.25
      vertex -97.825 -12.5 -1.25
      vertex -96.1563 -8.91582 -1.25
    endloop
  endfacet
  facet normal -0 0 -1
    outer loop
      vertex -95.2 -10.232 -1.25
      vertex -97.825 -12.5 -1.25
      vertex -95.818 -9.67557 -1.25
    endloop
  endfacet
  facet normal -0 0 -1
    outer loop
      vertex -94.4091 -10.489 -1.25
      vertex -97.825 -12.5 -1.25
      vertex -95.2 -10.232 -1.25
    endloop
  endfacet
  facet normal 0 0 -1
    outer loop
      vertex -90.575 -12.5 -1.25
      vertex -92.3729 -7.68653 -1.25
      vertex -90.575 12.5 -1.25
    endloop
  endfacet
  facet normal 0 0 -1
    outer loop
      vertex -92.3729 9.31347 -1.25
      vertex -90.575 12.5 -1.25
      vertex -92.2 8.5 -1.25
    endloop
  endfacet
  facet normal 0 0 -1
    outer loop
      vertex -92.8617 9.98629 -1.25
      vertex -90.575 12.5 -1.25
      vertex -92.3729 9.31347 -1.25
    endloop
  endfacet
  facet normal 0 0 -1
    outer loop
      vertex -93.582 10.4021 -1.25
      vertex -90.575 12.5 -1.25
      vertex -92.8617 9.98629 -1.25
    endloop
  endfacet
  facet normal 0 0 -1
    outer loop
      vertex -94.4091 10.489 -1.25
      vertex -90.575 12.5 -1.25
      vertex -93.582 10.4021 -1.25
    endloop
  endfacet
  facet normal 0 0 -1
    outer loop
      vertex -97.825 12.5 -1.25
      vertex -94.4091 10.489 -1.25
      vertex -95.2 10.232 -1.25
    endloop
  endfacet
  facet normal 0 0 -1
    outer loop
      vertex -94.4091 10.489 -1.25
      vertex -97.825 12.5 -1.25
      vertex -90.575 12.5 -1.25
    endloop
  endfacet
  facet normal 0 0 -1
    outer loop
      vertex -95.818 9.67557 -1.25
      vertex -97.825 12.5 -1.25
      vertex -95.2 10.232 -1.25
    endloop
  endfacet
  facet normal 0 0 -1
    outer loop
      vertex -96.1563 8.91582 -1.25
      vertex -97.825 12.5 -1.25
      vertex -95.818 9.67557 -1.25
    endloop
  endfacet
  facet normal 0 0 -1
    outer loop
      vertex -96.1563 8.08418 -1.25
      vertex -97.825 12.5 -1.25
      vertex -96.1563 8.91582 -1.25
    endloop
  endfacet
  facet normal 0 -1 0
    outer loop
      vertex -97.825 -12.5 -1.25
      vertex -90.575 -12.5 1.25
      vertex -97.825 -12.5 1.25
    endloop
  endfacet
  facet normal 0 -1 -0
    outer loop
      vertex -90.575 -12.5 1.25
      vertex -97.825 -12.5 -1.25
      vertex -90.575 -12.5 -1.25
    endloop
  endfacet
  facet normal -0.978147 -0.207916 0
    outer loop
      vertex -92.2 8.5 -1.25
      vertex -92.3729 9.31347 1.25
      vertex -92.3729 9.31347 -1.25
    endloop
  endfacet
  facet normal -0.978147 -0.207916 0
    outer loop
      vertex -92.3729 9.31347 1.25
      vertex -92.2 8.5 -1.25
      vertex -92.2 8.5 1.25
    endloop
  endfacet
  facet normal 1 -0 0
    outer loop
      vertex -96.1563 8.08418 1.25
      vertex -96.1563 8.91582 -1.25
      vertex -96.1563 8.91582 1.25
    endloop
  endfacet
  facet normal 1 0 0
    outer loop
      vertex -96.1563 8.91582 -1.25
      vertex -96.1563 8.08418 1.25
      vertex -96.1563 8.08418 -1.25
    endloop
  endfacet
  facet normal -0.104528 -0.994522 0
    outer loop
      vertex -94.4091 10.489 -1.25
      vertex -93.582 10.4021 1.25
      vertex -94.4091 10.489 1.25
    endloop
  endfacet
  facet normal -0.104528 -0.994522 -0
    outer loop
      vertex -93.582 10.4021 1.25
      vertex -94.4091 10.489 -1.25
      vertex -93.582 10.4021 -1.25
    endloop
  endfacet
  facet normal -0.499999 0.866026 0
    outer loop
      vertex -92.8617 7.01371 -1.25
      vertex -93.582 6.59789 1.25
      vertex -92.8617 7.01371 1.25
    endloop
  endfacet
  facet normal -0.499999 0.866026 0
    outer loop
      vertex -93.582 6.59789 1.25
      vertex -92.8617 7.01371 -1.25
      vertex -93.582 6.59789 -1.25
    endloop
  endfacet
  facet normal -0.104528 0.994522 0
    outer loop
      vertex -93.582 6.59789 -1.25
      vertex -94.4091 6.51096 1.25
      vertex -93.582 6.59789 1.25
    endloop
  endfacet
  facet normal -0.104528 0.994522 0
    outer loop
      vertex -94.4091 6.51096 1.25
      vertex -93.582 6.59789 -1.25
      vertex -94.4091 6.51096 -1.25
    endloop
  endfacet
  facet normal -0.499999 -0.866026 0
    outer loop
      vertex -93.582 10.4021 -1.25
      vertex -92.8617 9.98629 1.25
      vertex -93.582 10.4021 1.25
    endloop
  endfacet
  facet normal -0.499999 -0.866026 -0
    outer loop
      vertex -92.8617 9.98629 1.25
      vertex -93.582 10.4021 -1.25
      vertex -92.8617 9.98629 -1.25
    endloop
  endfacet
  facet normal -0.809016 -0.587786 0
    outer loop
      vertex -92.3729 9.31347 -1.25
      vertex -92.8617 9.98629 1.25
      vertex -92.8617 9.98629 -1.25
    endloop
  endfacet
  facet normal -0.809016 -0.587786 0
    outer loop
      vertex -92.8617 9.98629 1.25
      vertex -92.3729 9.31347 -1.25
      vertex -92.3729 9.31347 1.25
    endloop
  endfacet
  facet normal 0.309019 -0.951056 0
    outer loop
      vertex -95.2 10.232 -1.25
      vertex -94.4091 10.489 1.25
      vertex -95.2 10.232 1.25
    endloop
  endfacet
  facet normal 0.309019 -0.951056 0
    outer loop
      vertex -94.4091 10.489 1.25
      vertex -95.2 10.232 -1.25
      vertex -94.4091 10.489 -1.25
    endloop
  endfacet
  facet normal 0.66913 -0.743146 0
    outer loop
      vertex -95.818 9.67557 -1.25
      vertex -95.2 10.232 1.25
      vertex -95.818 9.67557 1.25
    endloop
  endfacet
  facet normal 0.66913 -0.743146 0
    outer loop
      vertex -95.2 10.232 1.25
      vertex -95.818 9.67557 -1.25
      vertex -95.2 10.232 -1.25
    endloop
  endfacet
  facet normal 0.913544 0.40674 0
    outer loop
      vertex -95.818 7.32443 1.25
      vertex -96.1563 8.08418 -1.25
      vertex -96.1563 8.08418 1.25
    endloop
  endfacet
  facet normal 0.913544 0.40674 0
    outer loop
      vertex -96.1563 8.08418 -1.25
      vertex -95.818 7.32443 1.25
      vertex -95.818 7.32443 -1.25
    endloop
  endfacet
  facet normal 0.309019 0.951056 -0
    outer loop
      vertex -94.4091 6.51096 -1.25
      vertex -95.2 6.76795 1.25
      vertex -94.4091 6.51096 1.25
    endloop
  endfacet
  facet normal 0.309019 0.951056 0
    outer loop
      vertex -95.2 6.76795 1.25
      vertex -94.4091 6.51096 -1.25
      vertex -95.2 6.76795 -1.25
    endloop
  endfacet
  facet normal 0.913544 -0.40674 0
    outer loop
      vertex -96.1563 8.91582 1.25
      vertex -95.818 9.67557 -1.25
      vertex -95.818 9.67557 1.25
    endloop
  endfacet
  facet normal 0.913544 -0.40674 0
    outer loop
      vertex -95.818 9.67557 -1.25
      vertex -96.1563 8.91582 1.25
      vertex -96.1563 8.91582 -1.25
    endloop
  endfacet
  facet normal -0.809016 0.587786 0
    outer loop
      vertex -92.8617 7.01371 -1.25
      vertex -92.3729 7.68653 1.25
      vertex -92.3729 7.68653 -1.25
    endloop
  endfacet
  facet normal -0.809016 0.587786 0
    outer loop
      vertex -92.3729 7.68653 1.25
      vertex -92.8617 7.01371 -1.25
      vertex -92.8617 7.01371 1.25
    endloop
  endfacet
  facet normal -0.978147 0.207916 0
    outer loop
      vertex -92.3729 7.68653 -1.25
      vertex -92.2 8.5 1.25
      vertex -92.2 8.5 -1.25
    endloop
  endfacet
  facet normal -0.978147 0.207916 0
    outer loop
      vertex -92.2 8.5 1.25
      vertex -92.3729 7.68653 -1.25
      vertex -92.3729 7.68653 1.25
    endloop
  endfacet
  facet normal 0.66913 0.743146 -0
    outer loop
      vertex -95.2 6.76795 -1.25
      vertex -95.818 7.32443 1.25
      vertex -95.2 6.76795 1.25
    endloop
  endfacet
  facet normal 0.66913 0.743146 0
    outer loop
      vertex -95.818 7.32443 1.25
      vertex -95.2 6.76795 -1.25
      vertex -95.818 7.32443 -1.25
    endloop
  endfacet
  facet normal -0.978147 -0.207916 0
    outer loop
      vertex -92.2 -8.5 -1.25
      vertex -92.3729 -7.68653 1.25
      vertex -92.3729 -7.68653 -1.25
    endloop
  endfacet
  facet normal -0.978147 -0.207916 0
    outer loop
      vertex -92.3729 -7.68653 1.25
      vertex -92.2 -8.5 -1.25
      vertex -92.2 -8.5 1.25
    endloop
  endfacet
  facet normal 1 -0 0
    outer loop
      vertex -96.1563 -8.91582 1.25
      vertex -96.1563 -8.08418 -1.25
      vertex -96.1563 -8.08418 1.25
    endloop
  endfacet
  facet normal 1 0 0
    outer loop
      vertex -96.1563 -8.08418 -1.25
      vertex -96.1563 -8.91582 1.25
      vertex -96.1563 -8.91582 -1.25
    endloop
  endfacet
  facet normal -0.104528 -0.994522 0
    outer loop
      vertex -94.4091 -6.51096 -1.25
      vertex -93.582 -6.59789 1.25
      vertex -94.4091 -6.51096 1.25
    endloop
  endfacet
  facet normal -0.104528 -0.994522 -0
    outer loop
      vertex -93.582 -6.59789 1.25
      vertex -94.4091 -6.51096 -1.25
      vertex -93.582 -6.59789 -1.25
    endloop
  endfacet
  facet normal -0.499999 0.866026 0
    outer loop
      vertex -92.8617 -9.98629 -1.25
      vertex -93.582 -10.4021 1.25
      vertex -92.8617 -9.98629 1.25
    endloop
  endfacet
  facet normal -0.499999 0.866026 0
    outer loop
      vertex -93.582 -10.4021 1.25
      vertex -92.8617 -9.98629 -1.25
      vertex -93.582 -10.4021 -1.25
    endloop
  endfacet
  facet normal -0.104528 0.994522 0
    outer loop
      vertex -93.582 -10.4021 -1.25
      vertex -94.4091 -10.489 1.25
      vertex -93.582 -10.4021 1.25
    endloop
  endfacet
  facet normal -0.104528 0.994522 0
    outer loop
      vertex -94.4091 -10.489 1.25
      vertex -93.582 -10.4021 -1.25
      vertex -94.4091 -10.489 -1.25
    endloop
  endfacet
  facet normal -0.499999 -0.866026 0
    outer loop
      vertex -93.582 -6.59789 -1.25
      vertex -92.8617 -7.01371 1.25
      vertex -93.582 -6.59789 1.25
    endloop
  endfacet
  facet normal -0.499999 -0.866026 -0
    outer loop
      vertex -92.8617 -7.01371 1.25
      vertex -93.582 -6.59789 -1.25
      vertex -92.8617 -7.01371 -1.25
    endloop
  endfacet
  facet normal -0.809016 -0.587786 0
    outer loop
      vertex -92.3729 -7.68653 -1.25
      vertex -92.8617 -7.01371 1.25
      vertex -92.8617 -7.01371 -1.25
    endloop
  endfacet
  facet normal -0.809016 -0.587786 0
    outer loop
      vertex -92.8617 -7.01371 1.25
      vertex -92.3729 -7.68653 -1.25
      vertex -92.3729 -7.68653 1.25
    endloop
  endfacet
  facet normal 0.309019 -0.951056 0
    outer loop
      vertex -95.2 -6.76795 -1.25
      vertex -94.4091 -6.51096 1.25
      vertex -95.2 -6.76795 1.25
    endloop
  endfacet
  facet normal 0.309019 -0.951056 0
    outer loop
      vertex -94.4091 -6.51096 1.25
      vertex -95.2 -6.76795 -1.25
      vertex -94.4091 -6.51096 -1.25
    endloop
  endfacet
  facet normal 0.66913 -0.743146 0
    outer loop
      vertex -95.818 -7.32443 -1.25
      vertex -95.2 -6.76795 1.25
      vertex -95.818 -7.32443 1.25
    endloop
  endfacet
  facet normal 0.66913 -0.743146 0
    outer loop
      vertex -95.2 -6.76795 1.25
      vertex -95.818 -7.32443 -1.25
      vertex -95.2 -6.76795 -1.25
    endloop
  endfacet
  facet normal 0.913544 0.40674 0
    outer loop
      vertex -95.818 -9.67557 1.25
      vertex -96.1563 -8.91582 -1.25
      vertex -96.1563 -8.91582 1.25
    endloop
  endfacet
  facet normal 0.913544 0.40674 0
    outer loop
      vertex -96.1563 -8.91582 -1.25
      vertex -95.818 -9.67557 1.25
      vertex -95.818 -9.67557 -1.25
    endloop
  endfacet
  facet normal 0.309019 0.951056 -0
    outer loop
      vertex -94.4091 -10.489 -1.25
      vertex -95.2 -10.232 1.25
      vertex -94.4091 -10.489 1.25
    endloop
  endfacet
  facet normal 0.309019 0.951056 0
    outer loop
      vertex -95.2 -10.232 1.25
      vertex -94.4091 -10.489 -1.25
      vertex -95.2 -10.232 -1.25
    endloop
  endfacet
  facet normal 0.66913 0.743146 -0
    outer loop
      vertex -95.2 -10.232 -1.25
      vertex -95.818 -9.67557 1.25
      vertex -95.2 -10.232 1.25
    endloop
  endfacet
  facet normal 0.66913 0.743146 0
    outer loop
      vertex -95.818 -9.67557 1.25
      vertex -95.2 -10.232 -1.25
      vertex -95.818 -9.67557 -1.25
    endloop
  endfacet
  facet normal 0.913544 -0.40674 0
    outer loop
      vertex -96.1563 -8.08418 1.25
      vertex -95.818 -7.32443 -1.25
      vertex -95.818 -7.32443 1.25
    endloop
  endfacet
  facet normal 0.913544 -0.40674 0
    outer loop
      vertex -95.818 -7.32443 -1.25
      vertex -96.1563 -8.08418 1.25
      vertex -96.1563 -8.08418 -1.25
    endloop
  endfacet
  facet normal -0.809016 0.587786 0
    outer loop
      vertex -92.8617 -9.98629 -1.25
      vertex -92.3729 -9.31347 1.25
      vertex -92.3729 -9.31347 -1.25
    endloop
  endfacet
  facet normal -0.809016 0.587786 0
    outer loop
      vertex -92.3729 -9.31347 1.25
      vertex -92.8617 -9.98629 -1.25
      vertex -92.8617 -9.98629 1.25
    endloop
  endfacet
  facet normal -0.978147 0.207916 0
    outer loop
      vertex -92.3729 -9.31347 -1.25
      vertex -92.2 -8.5 1.25
      vertex -92.2 -8.5 -1.25
    endloop
  endfacet
  facet normal -0.978147 0.207916 0
    outer loop
      vertex -92.2 -8.5 1.25
      vertex -92.3729 -9.31347 -1.25
      vertex -92.3729 -9.31347 1.25
    endloop
  endfacet
  facet normal -1 0 0
    outer loop
      vertex -90.575 -12.5 -1.25
      vertex -90.575 12.5 1.25
      vertex -90.575 12.5 -1.25
    endloop
  endfacet
  facet normal -1 -0 0
    outer loop
      vertex -90.575 12.5 1.25
      vertex -90.575 -12.5 -1.25
      vertex -90.575 -12.5 1.25
    endloop
  endfacet
  facet normal 0 0 1
    outer loop
      vertex 88.425 12.5 1.25
      vertex 6.175 -8.5 1.25
      vertex 88.425 -12.5 1.25
    endloop
  endfacet
  facet normal 0 0 1
    outer loop
      vertex 88.425 12.5 1.25
      vertex 6.00209 -7.68653 1.25
      vertex 6.175 -8.5 1.25
    endloop
  endfacet
  facet normal 0 0 1
    outer loop
      vertex 88.425 12.5 1.25
      vertex 5.51326 -7.01371 1.25
      vertex 6.00209 -7.68653 1.25
    endloop
  endfacet
  facet normal 0 0 1
    outer loop
      vertex 88.425 12.5 1.25
      vertex 4.79303 -6.59789 1.25
      vertex 5.51326 -7.01371 1.25
    endloop
  endfacet
  facet normal 0 0 1
    outer loop
      vertex 88.425 12.5 1.25
      vertex 3.96594 -6.51096 1.25
      vertex 4.79303 -6.59789 1.25
    endloop
  endfacet
  facet normal 0 0 1
    outer loop
      vertex 2.2187 -8.08418 1.25
      vertex -8.825 -8.5 1.25
      vertex 2.2187 -8.91582 1.25
    endloop
  endfacet
  facet normal -0 0 1
    outer loop
      vertex -8.99791 -7.68653 1.25
      vertex 2.2187 -8.08418 1.25
      vertex 2.55697 -7.32443 1.25
    endloop
  endfacet
  facet normal -0 0 1
    outer loop
      vertex -9.48674 -7.01371 1.25
      vertex 2.55697 -7.32443 1.25
      vertex 3.175 -6.76795 1.25
    endloop
  endfacet
  facet normal -0 0 1
    outer loop
      vertex -10.207 -6.59789 1.25
      vertex 3.175 -6.76795 1.25
      vertex 3.96594 -6.51096 1.25
    endloop
  endfacet
  facet normal -0 0 1
    outer loop
      vertex -90.575 12.5 1.25
      vertex 3.96594 -6.51096 1.25
      vertex 88.425 12.5 1.25
    endloop
  endfacet
  facet normal 0 0 1
    outer loop
      vertex 2.2187 -8.08418 1.25
      vertex -8.99791 -7.68653 1.25
      vertex -8.825 -8.5 1.25
    endloop
  endfacet
  facet normal 0 0 1
    outer loop
      vertex 2.55697 -7.32443 1.25
      vertex -9.48674 -7.01371 1.25
      vertex -8.99791 -7.68653 1.25
    endloop
  endfacet
  facet normal 0 0 1
    outer loop
      vertex 3.175 -6.76795 1.25
      vertex -10.207 -6.59789 1.25
      vertex -9.48674 -7.01371 1.25
    endloop
  endfacet
  facet normal 0 0 1
    outer loop
      vertex 3.96594 -6.51096 1.25
      vertex -11.0341 -6.51096 1.25
      vertex -10.207 -6.59789 1.25
    endloop
  endfacet
  facet normal 0 0 1
    outer loop
      vertex -90.575 -12.5 1.25
      vertex -12.7813 -8.08418 1.25
      vertex -90.575 12.5 1.25
    endloop
  endfacet
  facet normal 0 0 1
    outer loop
      vertex -12.443 -7.32443 1.25
      vertex -90.575 12.5 1.25
      vertex -12.7813 -8.08418 1.25
    endloop
  endfacet
  facet normal 0 0 1
    outer loop
      vertex -11.825 -6.76795 1.25
      vertex -90.575 12.5 1.25
      vertex -12.443 -7.32443 1.25
    endloop
  endfacet
  facet normal 0 0 1
    outer loop
      vertex -11.0341 -6.51096 1.25
      vertex -90.575 12.5 1.25
      vertex -11.825 -6.76795 1.25
    endloop
  endfacet
  facet normal 0 0 1
    outer loop
      vertex 3.96594 -6.51096 1.25
      vertex -90.575 12.5 1.25
      vertex -11.0341 -6.51096 1.25
    endloop
  endfacet
  facet normal -0 0 1
    outer loop
      vertex 6.00209 -9.31347 1.25
      vertex 88.425 -12.5 1.25
      vertex 6.175 -8.5 1.25
    endloop
  endfacet
  facet normal -0 0 1
    outer loop
      vertex 5.51326 -9.98629 1.25
      vertex 88.425 -12.5 1.25
      vertex 6.00209 -9.31347 1.25
    endloop
  endfacet
  facet normal -0 0 1
    outer loop
      vertex 4.79303 -10.4021 1.25
      vertex 88.425 -12.5 1.25
      vertex 5.51326 -9.98629 1.25
    endloop
  endfacet
  facet normal -0 0 1
    outer loop
      vertex 3.96594 -10.489 1.25
      vertex 88.425 -12.5 1.25
      vertex 4.79303 -10.4021 1.25
    endloop
  endfacet
  facet normal 0 0 1
    outer loop
      vertex -8.99791 -9.31347 1.25
      vertex 2.2187 -8.91582 1.25
      vertex -8.825 -8.5 1.25
    endloop
  endfacet
  facet normal 0 0 1
    outer loop
      vertex 2.2187 -8.91582 1.25
      vertex -8.99791 -9.31347 1.25
      vertex 2.55697 -9.67557 1.25
    endloop
  endfacet
  facet normal 0 0 1
    outer loop
      vertex -9.48674 -9.98629 1.25
      vertex 2.55697 -9.67557 1.25
      vertex -8.99791 -9.31347 1.25
    endloop
  endfacet
  facet normal 0 0 1
    outer loop
      vertex 2.55697 -9.67557 1.25
      vertex -9.48674 -9.98629 1.25
      vertex 3.175 -10.232 1.25
    endloop
  endfacet
  facet normal 0 0 1
    outer loop
      vertex -10.207 -10.4021 1.25
      vertex 3.175 -10.232 1.25
      vertex -9.48674 -9.98629 1.25
    endloop
  endfacet
  facet normal 0 0 1
    outer loop
      vertex 3.175 -10.232 1.25
      vertex -10.207 -10.4021 1.25
      vertex 3.96594 -10.489 1.25
    endloop
  endfacet
  facet normal 0 0 1
    outer loop
      vertex -11.0341 -10.489 1.25
      vertex 3.96594 -10.489 1.25
      vertex -10.207 -10.4021 1.25
    endloop
  endfacet
  facet normal 0 0 1
    outer loop
      vertex 3.96594 -10.489 1.25
      vertex -11.0341 -10.489 1.25
      vertex 88.425 -12.5 1.25
    endloop
  endfacet
  facet normal 0 0 1
    outer loop
      vertex -12.7813 -8.08418 1.25
      vertex -90.575 -12.5 1.25
      vertex -12.7813 -8.91582 1.25
    endloop
  endfacet
  facet normal 0 0 1
    outer loop
      vertex -12.7813 -8.91582 1.25
      vertex -90.575 -12.5 1.25
      vertex -12.443 -9.67557 1.25
    endloop
  endfacet
  facet normal 0 0 1
    outer loop
      vertex -12.443 -9.67557 1.25
      vertex -90.575 -12.5 1.25
      vertex -11.825 -10.232 1.25
    endloop
  endfacet
  facet normal 0 0 1
    outer loop
      vertex -11.0341 -10.489 1.25
      vertex -90.575 -12.5 1.25
      vertex 88.425 -12.5 1.25
    endloop
  endfacet
  facet normal 0 0 1
    outer loop
      vertex -11.825 -10.232 1.25
      vertex -90.575 -12.5 1.25
      vertex -11.0341 -10.489 1.25
    endloop
  endfacet
  facet normal 1 -0 0
    outer loop
      vertex 88.425 -12.5 1.25
      vertex 88.425 12.5 -1.25
      vertex 88.425 12.5 1.25
    endloop
  endfacet
  facet normal 1 0 0
    outer loop
      vertex 88.425 12.5 -1.25
      vertex 88.425 -12.5 1.25
      vertex 88.425 -12.5 -1.25
    endloop
  endfacet
  facet normal 0 0 -1
    outer loop
      vertex 88.425 -12.5 -1.25
      vertex 6.175 -8.5 -1.25
      vertex 88.425 12.5 -1.25
    endloop
  endfacet
  facet normal 0 0 -1
    outer loop
      vertex 88.425 -12.5 -1.25
      vertex 6.00209 -9.31347 -1.25
      vertex 6.175 -8.5 -1.25
    endloop
  endfacet
  facet normal 0 0 -1
    outer loop
      vertex 88.425 -12.5 -1.25
      vertex 5.51326 -9.98629 -1.25
      vertex 6.00209 -9.31347 -1.25
    endloop
  endfacet
  facet normal 0 0 -1
    outer loop
      vertex 88.425 -12.5 -1.25
      vertex 4.79303 -10.4021 -1.25
      vertex 5.51326 -9.98629 -1.25
    endloop
  endfacet
  facet normal 0 0 -1
    outer loop
      vertex 88.425 -12.5 -1.25
      vertex 3.96594 -10.489 -1.25
      vertex 4.79303 -10.4021 -1.25
    endloop
  endfacet
  facet normal 0 0 -1
    outer loop
      vertex 2.2187 -8.91582 -1.25
      vertex -8.825 -8.5 -1.25
      vertex 2.2187 -8.08418 -1.25
    endloop
  endfacet
  facet normal 0 0 -1
    outer loop
      vertex -8.99791 -9.31347 -1.25
      vertex 2.2187 -8.91582 -1.25
      vertex 2.55697 -9.67557 -1.25
    endloop
  endfacet
  facet normal 0 0 -1
    outer loop
      vertex -9.48674 -9.98629 -1.25
      vertex 2.55697 -9.67557 -1.25
      vertex 3.175 -10.232 -1.25
    endloop
  endfacet
  facet normal 0 0 -1
    outer loop
      vertex -10.207 -10.4021 -1.25
      vertex 3.175 -10.232 -1.25
      vertex 3.96594 -10.489 -1.25
    endloop
  endfacet
  facet normal -0 0 -1
    outer loop
      vertex 2.2187 -8.91582 -1.25
      vertex -8.99791 -9.31347 -1.25
      vertex -8.825 -8.5 -1.25
    endloop
  endfacet
  facet normal -0 0 -1
    outer loop
      vertex 2.55697 -9.67557 -1.25
      vertex -9.48674 -9.98629 -1.25
      vertex -8.99791 -9.31347 -1.25
    endloop
  endfacet
  facet normal -0 0 -1
    outer loop
      vertex 3.175 -10.232 -1.25
      vertex -10.207 -10.4021 -1.25
      vertex -9.48674 -9.98629 -1.25
    endloop
  endfacet
  facet normal 0 0 -1
    outer loop
      vertex -11.0341 -10.489 -1.25
      vertex 3.96594 -10.489 -1.25
      vertex 88.425 -12.5 -1.25
    endloop
  endfacet
  facet normal 0 0 -1
    outer loop
      vertex 3.96594 -10.489 -1.25
      vertex -11.0341 -10.489 -1.25
      vertex -10.207 -10.4021 -1.25
    endloop
  endfacet
  facet normal -0 0 -1
    outer loop
      vertex -12.7813 -8.91582 -1.25
      vertex -90.575 -12.5 -1.25
      vertex -12.7813 -8.08418 -1.25
    endloop
  endfacet
  facet normal -0 0 -1
    outer loop
      vertex -12.443 -9.67557 -1.25
      vertex -90.575 -12.5 -1.25
      vertex -12.7813 -8.91582 -1.25
    endloop
  endfacet
  facet normal -0 0 -1
    outer loop
      vertex -11.825 -10.232 -1.25
      vertex -90.575 -12.5 -1.25
      vertex -12.443 -9.67557 -1.25
    endloop
  endfacet
  facet normal -0 0 -1
    outer loop
      vertex -11.0341 -10.489 -1.25
      vertex -90.575 -12.5 -1.25
      vertex -11.825 -10.232 -1.25
    endloop
  endfacet
  facet normal 0 0 -1
    outer loop
      vertex -90.575 -12.5 -1.25
      vertex -11.0341 -10.489 -1.25
      vertex 88.425 -12.5 -1.25
    endloop
  endfacet
  facet normal 0 0 -1
    outer loop
      vertex 6.00209 -7.68653 -1.25
      vertex 88.425 12.5 -1.25
      vertex 6.175 -8.5 -1.25
    endloop
  endfacet
  facet normal 0 0 -1
    outer loop
      vertex 5.51326 -7.01371 -1.25
      vertex 88.425 12.5 -1.25
      vertex 6.00209 -7.68653 -1.25
    endloop
  endfacet
  facet normal 0 0 -1
    outer loop
      vertex 4.79303 -6.59789 -1.25
      vertex 88.425 12.5 -1.25
      vertex 5.51326 -7.01371 -1.25
    endloop
  endfacet
  facet normal 0 0 -1
    outer loop
      vertex 3.96594 -6.51096 -1.25
      vertex 88.425 12.5 -1.25
      vertex 4.79303 -6.59789 -1.25
    endloop
  endfacet
  facet normal 0 0 -1
    outer loop
      vertex -8.99791 -7.68653 -1.25
      vertex 2.2187 -8.08418 -1.25
      vertex -8.825 -8.5 -1.25
    endloop
  endfacet
  facet normal 0 0 -1
    outer loop
      vertex 2.2187 -8.08418 -1.25
      vertex -8.99791 -7.68653 -1.25
      vertex 2.55697 -7.32443 -1.25
    endloop
  endfacet
  facet normal 0 0 -1
    outer loop
      vertex -9.48674 -7.01371 -1.25
      vertex 2.55697 -7.32443 -1.25
      vertex -8.99791 -7.68653 -1.25
    endloop
  endfacet
  facet normal 0 0 -1
    outer loop
      vertex 2.55697 -7.32443 -1.25
      vertex -9.48674 -7.01371 -1.25
      vertex 3.175 -6.76795 -1.25
    endloop
  endfacet
  facet normal 0 0 -1
    outer loop
      vertex -10.207 -6.59789 -1.25
      vertex 3.175 -6.76795 -1.25
      vertex -9.48674 -7.01371 -1.25
    endloop
  endfacet
  facet normal 0 0 -1
    outer loop
      vertex 3.175 -6.76795 -1.25
      vertex -10.207 -6.59789 -1.25
      vertex 3.96594 -6.51096 -1.25
    endloop
  endfacet
  facet normal 0 0 -1
    outer loop
      vertex -11.0341 -6.51096 -1.25
      vertex 3.96594 -6.51096 -1.25
      vertex -10.207 -6.59789 -1.25
    endloop
  endfacet
  facet normal 0 0 -1
    outer loop
      vertex -90.575 12.5 -1.25
      vertex 3.96594 -6.51096 -1.25
      vertex -11.0341 -6.51096 -1.25
    endloop
  endfacet
  facet normal 0 0 -1
    outer loop
      vertex -90.575 12.5 -1.25
      vertex -12.7813 -8.08418 -1.25
      vertex -90.575 -12.5 -1.25
    endloop
  endfacet
  facet normal 0 0 -1
    outer loop
      vertex -12.7813 -8.08418 -1.25
      vertex -90.575 12.5 -1.25
      vertex -12.443 -7.32443 -1.25
    endloop
  endfacet
  facet normal 0 0 -1
    outer loop
      vertex -12.443 -7.32443 -1.25
      vertex -90.575 12.5 -1.25
      vertex -11.825 -6.76795 -1.25
    endloop
  endfacet
  facet normal 0 0 -1
    outer loop
      vertex -11.825 -6.76795 -1.25
      vertex -90.575 12.5 -1.25
      vertex -11.0341 -6.51096 -1.25
    endloop
  endfacet
  facet normal 0 0 -1
    outer loop
      vertex 3.96594 -6.51096 -1.25
      vertex -90.575 12.5 -1.25
      vertex 88.425 12.5 -1.25
    endloop
  endfacet
  facet normal 0 -1 0
    outer loop
      vertex -90.575 -12.5 -1.25
      vertex 88.425 -12.5 1.25
      vertex -90.575 -12.5 1.25
    endloop
  endfacet
  facet normal 0 -1 -0
    outer loop
      vertex 88.425 -12.5 1.25
      vertex -90.575 -12.5 -1.25
      vertex 88.425 -12.5 -1.25
    endloop
  endfacet
  facet normal 0 1 -0
    outer loop
      vertex 88.425 12.5 -1.25
      vertex -90.575 12.5 1.25
      vertex 88.425 12.5 1.25
    endloop
  endfacet
  facet normal 0 1 0
    outer loop
      vertex -90.575 12.5 1.25
      vertex 88.425 12.5 -1.25
      vertex -90.575 12.5 -1.25
    endloop
  endfacet
  facet normal -0.978148 -0.207911 0
    outer loop
      vertex 6.175 -8.5 -1.25
      vertex 6.00209 -7.68653 1.25
      vertex 6.00209 -7.68653 -1.25
    endloop
  endfacet
  facet normal -0.978148 -0.207911 0
    outer loop
      vertex 6.00209 -7.68653 1.25
      vertex 6.175 -8.5 -1.25
      vertex 6.175 -8.5 1.25
    endloop
  endfacet
  facet normal 1 -0 0
    outer loop
      vertex 2.2187 -8.91582 1.25
      vertex 2.2187 -8.08418 -1.25
      vertex 2.2187 -8.08418 1.25
    endloop
  endfacet
  facet normal 1 0 0
    outer loop
      vertex 2.2187 -8.08418 -1.25
      vertex 2.2187 -8.91582 1.25
      vertex 2.2187 -8.91582 -1.25
    endloop
  endfacet
  facet normal -0.104528 -0.994522 0
    outer loop
      vertex 3.96594 -6.51096 -1.25
      vertex 4.79303 -6.59789 1.25
      vertex 3.96594 -6.51096 1.25
    endloop
  endfacet
  facet normal -0.104528 -0.994522 -0
    outer loop
      vertex 4.79303 -6.59789 1.25
      vertex 3.96594 -6.51096 -1.25
      vertex 4.79303 -6.59789 -1.25
    endloop
  endfacet
  facet normal -0.5 0.866025 0
    outer loop
      vertex 5.51326 -9.98629 -1.25
      vertex 4.79303 -10.4021 1.25
      vertex 5.51326 -9.98629 1.25
    endloop
  endfacet
  facet normal -0.5 0.866025 0
    outer loop
      vertex 4.79303 -10.4021 1.25
      vertex 5.51326 -9.98629 -1.25
      vertex 4.79303 -10.4021 -1.25
    endloop
  endfacet
  facet normal -0.104528 0.994522 0
    outer loop
      vertex 4.79303 -10.4021 -1.25
      vertex 3.96594 -10.489 1.25
      vertex 4.79303 -10.4021 1.25
    endloop
  endfacet
  facet normal -0.104528 0.994522 0
    outer loop
      vertex 3.96594 -10.489 1.25
      vertex 4.79303 -10.4021 -1.25
      vertex 3.96594 -10.489 -1.25
    endloop
  endfacet
  facet normal -0.5 -0.866025 0
    outer loop
      vertex 4.79303 -6.59789 -1.25
      vertex 5.51326 -7.01371 1.25
      vertex 4.79303 -6.59789 1.25
    endloop
  endfacet
  facet normal -0.5 -0.866025 -0
    outer loop
      vertex 5.51326 -7.01371 1.25
      vertex 4.79303 -6.59789 -1.25
      vertex 5.51326 -7.01371 -1.25
    endloop
  endfacet
  facet normal -0.809017 -0.587785 0
    outer loop
      vertex 6.00209 -7.68653 -1.25
      vertex 5.51326 -7.01371 1.25
      vertex 5.51326 -7.01371 -1.25
    endloop
  endfacet
  facet normal -0.809017 -0.587785 0
    outer loop
      vertex 5.51326 -7.01371 1.25
      vertex 6.00209 -7.68653 -1.25
      vertex 6.00209 -7.68653 1.25
    endloop
  endfacet
  facet normal 0.309017 -0.951056 0
    outer loop
      vertex 3.175 -6.76795 -1.25
      vertex 3.96594 -6.51096 1.25
      vertex 3.175 -6.76795 1.25
    endloop
  endfacet
  facet normal 0.309017 -0.951056 0
    outer loop
      vertex 3.96594 -6.51096 1.25
      vertex 3.175 -6.76795 -1.25
      vertex 3.96594 -6.51096 -1.25
    endloop
  endfacet
  facet normal 0.66913 -0.743145 0
    outer loop
      vertex 2.55697 -7.32443 -1.25
      vertex 3.175 -6.76795 1.25
      vertex 2.55697 -7.32443 1.25
    endloop
  endfacet
  facet normal 0.66913 -0.743145 0
    outer loop
      vertex 3.175 -6.76795 1.25
      vertex 2.55697 -7.32443 -1.25
      vertex 3.175 -6.76795 -1.25
    endloop
  endfacet
  facet normal 0.913545 0.406737 0
    outer loop
      vertex 2.55697 -9.67557 1.25
      vertex 2.2187 -8.91582 -1.25
      vertex 2.2187 -8.91582 1.25
    endloop
  endfacet
  facet normal 0.913545 0.406737 0
    outer loop
      vertex 2.2187 -8.91582 -1.25
      vertex 2.55697 -9.67557 1.25
      vertex 2.55697 -9.67557 -1.25
    endloop
  endfacet
  facet normal 0.309017 0.951056 -0
    outer loop
      vertex 3.96594 -10.489 -1.25
      vertex 3.175 -10.232 1.25
      vertex 3.96594 -10.489 1.25
    endloop
  endfacet
  facet normal 0.309017 0.951056 0
    outer loop
      vertex 3.175 -10.232 1.25
      vertex 3.96594 -10.489 -1.25
      vertex 3.175 -10.232 -1.25
    endloop
  endfacet
  facet normal 0.66913 0.743145 -0
    outer loop
      vertex 3.175 -10.232 -1.25
      vertex 2.55697 -9.67557 1.25
      vertex 3.175 -10.232 1.25
    endloop
  endfacet
  facet normal 0.66913 0.743145 0
    outer loop
      vertex 2.55697 -9.67557 1.25
      vertex 3.175 -10.232 -1.25
      vertex 2.55697 -9.67557 -1.25
    endloop
  endfacet
  facet normal 0.913545 -0.406737 0
    outer loop
      vertex 2.2187 -8.08418 1.25
      vertex 2.55697 -7.32443 -1.25
      vertex 2.55697 -7.32443 1.25
    endloop
  endfacet
  facet normal 0.913545 -0.406737 0
    outer loop
      vertex 2.55697 -7.32443 -1.25
      vertex 2.2187 -8.08418 1.25
      vertex 2.2187 -8.08418 -1.25
    endloop
  endfacet
  facet normal -0.809017 0.587785 0
    outer loop
      vertex 5.51326 -9.98629 -1.25
      vertex 6.00209 -9.31347 1.25
      vertex 6.00209 -9.31347 -1.25
    endloop
  endfacet
  facet normal -0.809017 0.587785 0
    outer loop
      vertex 6.00209 -9.31347 1.25
      vertex 5.51326 -9.98629 -1.25
      vertex 5.51326 -9.98629 1.25
    endloop
  endfacet
  facet normal -0.978148 0.207911 0
    outer loop
      vertex 6.00209 -9.31347 -1.25
      vertex 6.175 -8.5 1.25
      vertex 6.175 -8.5 -1.25
    endloop
  endfacet
  facet normal -0.978148 0.207911 0
    outer loop
      vertex 6.175 -8.5 1.25
      vertex 6.00209 -9.31347 -1.25
      vertex 6.00209 -9.31347 1.25
    endloop
  endfacet
  facet normal -0.978148 -0.207911 0
    outer loop
      vertex -8.825 -8.5 -1.25
      vertex -8.99791 -7.68653 1.25
      vertex -8.99791 -7.68653 -1.25
    endloop
  endfacet
  facet normal -0.978148 -0.207911 0
    outer loop
      vertex -8.99791 -7.68653 1.25
      vertex -8.825 -8.5 -1.25
      vertex -8.825 -8.5 1.25
    endloop
  endfacet
  facet normal 1 -0 0
    outer loop
      vertex -12.7813 -8.91582 1.25
      vertex -12.7813 -8.08418 -1.25
      vertex -12.7813 -8.08418 1.25
    endloop
  endfacet
  facet normal 1 0 0
    outer loop
      vertex -12.7813 -8.08418 -1.25
      vertex -12.7813 -8.91582 1.25
      vertex -12.7813 -8.91582 -1.25
    endloop
  endfacet
  facet normal -0.104528 -0.994522 0
    outer loop
      vertex -11.0341 -6.51096 -1.25
      vertex -10.207 -6.59789 1.25
      vertex -11.0341 -6.51096 1.25
    endloop
  endfacet
  facet normal -0.104528 -0.994522 -0
    outer loop
      vertex -10.207 -6.59789 1.25
      vertex -11.0341 -6.51096 -1.25
      vertex -10.207 -6.59789 -1.25
    endloop
  endfacet
  facet normal -0.5 0.866025 0
    outer loop
      vertex -9.48674 -9.98629 -1.25
      vertex -10.207 -10.4021 1.25
      vertex -9.48674 -9.98629 1.25
    endloop
  endfacet
  facet normal -0.5 0.866025 0
    outer loop
      vertex -10.207 -10.4021 1.25
      vertex -9.48674 -9.98629 -1.25
      vertex -10.207 -10.4021 -1.25
    endloop
  endfacet
  facet normal -0.104528 0.994522 0
    outer loop
      vertex -10.207 -10.4021 -1.25
      vertex -11.0341 -10.489 1.25
      vertex -10.207 -10.4021 1.25
    endloop
  endfacet
  facet normal -0.104528 0.994522 0
    outer loop
      vertex -11.0341 -10.489 1.25
      vertex -10.207 -10.4021 -1.25
      vertex -11.0341 -10.489 -1.25
    endloop
  endfacet
  facet normal -0.5 -0.866025 0
    outer loop
      vertex -10.207 -6.59789 -1.25
      vertex -9.48674 -7.01371 1.25
      vertex -10.207 -6.59789 1.25
    endloop
  endfacet
  facet normal -0.5 -0.866025 -0
    outer loop
      vertex -9.48674 -7.01371 1.25
      vertex -10.207 -6.59789 -1.25
      vertex -9.48674 -7.01371 -1.25
    endloop
  endfacet
  facet normal -0.809017 -0.587785 0
    outer loop
      vertex -8.99791 -7.68653 -1.25
      vertex -9.48674 -7.01371 1.25
      vertex -9.48674 -7.01371 -1.25
    endloop
  endfacet
  facet normal -0.809017 -0.587785 0
    outer loop
      vertex -9.48674 -7.01371 1.25
      vertex -8.99791 -7.68653 -1.25
      vertex -8.99791 -7.68653 1.25
    endloop
  endfacet
  facet normal 0.309017 -0.951056 0
    outer loop
      vertex -11.825 -6.76795 -1.25
      vertex -11.0341 -6.51096 1.25
      vertex -11.825 -6.76795 1.25
    endloop
  endfacet
  facet normal 0.309017 -0.951056 0
    outer loop
      vertex -11.0341 -6.51096 1.25
      vertex -11.825 -6.76795 -1.25
      vertex -11.0341 -6.51096 -1.25
    endloop
  endfacet
  facet normal 0.913545 -0.406737 0
    outer loop
      vertex -12.7813 -8.08418 1.25
      vertex -12.443 -7.32443 -1.25
      vertex -12.443 -7.32443 1.25
    endloop
  endfacet
  facet normal 0.913545 -0.406737 0
    outer loop
      vertex -12.443 -7.32443 -1.25
      vertex -12.7813 -8.08418 1.25
      vertex -12.7813 -8.08418 -1.25
    endloop
  endfacet
  facet normal 0.66913 -0.743145 0
    outer loop
      vertex -12.443 -7.32443 -1.25
      vertex -11.825 -6.76795 1.25
      vertex -12.443 -7.32443 1.25
    endloop
  endfacet
  facet normal 0.66913 -0.743145 0
    outer loop
      vertex -11.825 -6.76795 1.25
      vertex -12.443 -7.32443 -1.25
      vertex -11.825 -6.76795 -1.25
    endloop
  endfacet
  facet normal 0.913545 0.406737 0
    outer loop
      vertex -12.443 -9.67557 1.25
      vertex -12.7813 -8.91582 -1.25
      vertex -12.7813 -8.91582 1.25
    endloop
  endfacet
  facet normal 0.913545 0.406737 0
    outer loop
      vertex -12.7813 -8.91582 -1.25
      vertex -12.443 -9.67557 1.25
      vertex -12.443 -9.67557 -1.25
    endloop
  endfacet
  facet normal 0.309017 0.951056 -0
    outer loop
      vertex -11.0341 -10.489 -1.25
      vertex -11.825 -10.232 1.25
      vertex -11.0341 -10.489 1.25
    endloop
  endfacet
  facet normal 0.309017 0.951056 0
    outer loop
      vertex -11.825 -10.232 1.25
      vertex -11.0341 -10.489 -1.25
      vertex -11.825 -10.232 -1.25
    endloop
  endfacet
  facet normal 0.66913 0.743145 -0
    outer loop
      vertex -11.825 -10.232 -1.25
      vertex -12.443 -9.67557 1.25
      vertex -11.825 -10.232 1.25
    endloop
  endfacet
  facet normal 0.66913 0.743145 0
    outer loop
      vertex -12.443 -9.67557 1.25
      vertex -11.825 -10.232 -1.25
      vertex -12.443 -9.67557 -1.25
    endloop
  endfacet
  facet normal -0.809017 0.587785 0
    outer loop
      vertex -9.48674 -9.98629 -1.25
      vertex -8.99791 -9.31347 1.25
      vertex -8.99791 -9.31347 -1.25
    endloop
  endfacet
  facet normal -0.809017 0.587785 0
    outer loop
      vertex -8.99791 -9.31347 1.25
      vertex -9.48674 -9.98629 -1.25
      vertex -9.48674 -9.98629 1.25
    endloop
  endfacet
  facet normal -0.978148 0.207911 0
    outer loop
      vertex -8.99791 -9.31347 -1.25
      vertex -8.825 -8.5 1.25
      vertex -8.825 -8.5 -1.25
    endloop
  endfacet
  facet normal -0.978148 0.207911 0
    outer loop
      vertex -8.825 -8.5 1.25
      vertex -8.99791 -9.31347 -1.25
      vertex -8.99791 -9.31347 1.25
    endloop
  endfacet
endsolid OpenSCAD_Model
