solid OpenSCAD_Model
  facet normal 1 -0 0
    outer loop
      vertex 77.4 -37.6 -37.3834
      vertex 77.4 -34.4 -45.2565
      vertex 77.4 -34.4 -37.3834
    endloop
  endfacet
  facet normal 1 0 0
    outer loop
      vertex 77.4 -34.4 -45.2565
      vertex 77.4 -37.6 -37.3834
      vertex 77.4 -37.6 -45.2565
    endloop
  endfacet
  facet normal 0.809018 0 -0.587784
    outer loop
      vertex 77.1078 -37.6 -48.7148
      vertex 76.2817 -34.4 -49.8518
      vertex 77.1078 -34.4 -48.7148
    endloop
  endfacet
  facet normal 0.809018 0 -0.587784
    outer loop
      vertex 76.2817 -34.4 -49.8518
      vertex 77.1078 -37.6 -48.7148
      vertex 76.2817 -37.6 -49.8518
    endloop
  endfacet
  facet normal 0 -1 0
    outer loop
      vertex 22.9739 -37.6 -48.0427
      vertex 23.1275 -37.6 -47.7895
      vertex 22.9739 -37.6 -47.4445
    endloop
  endfacet
  facet normal 0 -1 0
    outer loop
      vertex 22.9739 -37.6 -48.0427
      vertex 23.9 -37.6 -48.4851
      vertex 23.1275 -37.6 -47.7895
    endloop
  endfacet
  facet normal 0 -1 -0
    outer loop
      vertex 23.9 -37.6 -48.4851
      vertex 23.5455 -37.6 -49.3267
      vertex 24.8887 -37.6 -48.8063
    endloop
  endfacet
  facet normal 0 -1 0
    outer loop
      vertex 23.5455 -37.6 -49.3267
      vertex 23.9 -37.6 -48.4851
      vertex 22.9739 -37.6 -48.0427
    endloop
  endfacet
  facet normal 0 -1 0
    outer loop
      vertex 23.9 -37.6 -38.4851
      vertex 24.8887 -37.6 -43.8337
      vertex 24.8887 -37.6 -38.8063
    endloop
  endfacet
  facet normal 0 -1 0
    outer loop
      vertex 23.9 -37.6 -44.1549
      vertex 23.9 -37.6 -38.4851
      vertex 23.1275 -37.6 -37.7895
    endloop
  endfacet
  facet normal 0 -1 0
    outer loop
      vertex 23.1275 -37.6 -44.8505
      vertex 23.1275 -37.6 -37.7895
      vertex 22.9739 -37.6 -37.4445
    endloop
  endfacet
  facet normal 0 -1 0
    outer loop
      vertex 23.9 -37.6 -38.4851
      vertex 23.9 -37.6 -44.1549
      vertex 24.8887 -37.6 -43.8337
    endloop
  endfacet
  facet normal 0 -1 0
    outer loop
      vertex 23.1275 -37.6 -37.7895
      vertex 23.1275 -37.6 -44.8505
      vertex 23.9 -37.6 -44.1549
    endloop
  endfacet
  facet normal -0 -1 0
    outer loop
      vertex 23.1275 -37.6 -44.8505
      vertex 22.9739 -37.6 -37.4445
      vertex 22.9739 -37.6 -45.1955
    endloop
  endfacet
  facet normal 0 -1 0
    outer loop
      vertex 23.5455 -37.6 -33.3133
      vertex 23.9 -37.6 -34.1549
      vertex 24.8887 -37.6 -33.8337
    endloop
  endfacet
  facet normal 0 -1 0
    outer loop
      vertex 22.9739 -37.6 -34.5973
      vertex 23.9 -37.6 -34.1549
      vertex 23.5455 -37.6 -33.3133
    endloop
  endfacet
  facet normal 0 -1 0
    outer loop
      vertex 22.9739 -37.6 -34.5973
      vertex 23.1275 -37.6 -34.8505
      vertex 23.9 -37.6 -34.1549
    endloop
  endfacet
  facet normal -0 -1 0
    outer loop
      vertex 23.1275 -37.6 -34.8505
      vertex 22.9739 -37.6 -34.5973
      vertex 22.9739 -37.6 -35.1955
    endloop
  endfacet
  facet normal 0 -1 0
    outer loop
      vertex 25.9225 -37.6 -33.9424
      vertex 25.9267 -37.6 -31.9385
      vertex 24.59 -37.6 -32.3728
    endloop
  endfacet
  facet normal 0 -1 0
    outer loop
      vertex 24.8887 -37.6 -33.8337
      vertex 24.59 -37.6 -32.3728
      vertex 23.5455 -37.6 -33.3133
    endloop
  endfacet
  facet normal 0 -1 0
    outer loop
      vertex 24.59 -37.6 -32.3728
      vertex 24.8887 -37.6 -33.8337
      vertex 25.9225 -37.6 -33.9424
    endloop
  endfacet
  facet normal 0 -1 0
    outer loop
      vertex 26.8228 -37.6 -34.4621
      vertex 25.9267 -37.6 -31.9385
      vertex 25.9225 -37.6 -33.9424
    endloop
  endfacet
  facet normal 0 -1 0
    outer loop
      vertex 25.9267 -37.6 -31.9385
      vertex 26.8228 -37.6 -34.4621
      vertex 30.09 -37.6 -31.9385
    endloop
  endfacet
  facet normal 0 -1 0
    outer loop
      vertex 27.4339 -37.6 -35.3032
      vertex 30.09 -37.6 -31.9385
      vertex 26.8228 -37.6 -34.4621
    endloop
  endfacet
  facet normal 0 -1 0
    outer loop
      vertex 27.65 -37.6 -36.32
      vertex 30.09 -37.6 -31.9385
      vertex 27.4339 -37.6 -35.3032
    endloop
  endfacet
  facet normal 0 -1 0
    outer loop
      vertex 27.4339 -37.6 -37.3368
      vertex 30.09 -37.6 -31.9385
      vertex 27.65 -37.6 -36.32
    endloop
  endfacet
  facet normal 0 -1 0
    outer loop
      vertex 24.8887 -37.6 -43.8337
      vertex 25.9225 -37.6 -38.6976
      vertex 24.8887 -37.6 -38.8063
    endloop
  endfacet
  facet normal 0 -1 0
    outer loop
      vertex 25.9225 -37.6 -43.9424
      vertex 25.9225 -37.6 -38.6976
      vertex 24.8887 -37.6 -43.8337
    endloop
  endfacet
  facet normal 0 -1 0
    outer loop
      vertex 25.9225 -37.6 -38.6976
      vertex 25.9225 -37.6 -43.9424
      vertex 26.8228 -37.6 -38.1779
    endloop
  endfacet
  facet normal 0 -1 0
    outer loop
      vertex 26.8228 -37.6 -44.4621
      vertex 26.8228 -37.6 -38.1779
      vertex 25.9225 -37.6 -43.9424
    endloop
  endfacet
  facet normal 0 -1 0
    outer loop
      vertex 26.8228 -37.6 -38.1779
      vertex 26.8228 -37.6 -44.4621
      vertex 27.4339 -37.6 -37.3368
    endloop
  endfacet
  facet normal 0 -1 0
    outer loop
      vertex 27.4339 -37.6 -45.3032
      vertex 27.4339 -37.6 -37.3368
      vertex 26.8228 -37.6 -44.4621
    endloop
  endfacet
  facet normal 0 -1 0
    outer loop
      vertex 27.4339 -37.6 -37.3368
      vertex 27.4339 -37.6 -45.3032
      vertex 30.09 -37.6 -31.9385
    endloop
  endfacet
  facet normal 0 -1 0
    outer loop
      vertex 30.09 -37.6 -50.7015
      vertex 27.4339 -37.6 -45.3032
      vertex 27.65 -37.6 -46.32
    endloop
  endfacet
  facet normal 0 -1 0
    outer loop
      vertex 24.59 -37.6 -50.2672
      vertex 24.8887 -37.6 -48.8063
      vertex 23.5455 -37.6 -49.3267
    endloop
  endfacet
  facet normal 0 -1 -0
    outer loop
      vertex 24.8887 -37.6 -48.8063
      vertex 24.59 -37.6 -50.2672
      vertex 25.9225 -37.6 -48.6976
    endloop
  endfacet
  facet normal 0 -1 0
    outer loop
      vertex 25.9267 -37.6 -50.7015
      vertex 25.9225 -37.6 -48.6976
      vertex 24.59 -37.6 -50.2672
    endloop
  endfacet
  facet normal 0 -1 0
    outer loop
      vertex 25.9225 -37.6 -48.6976
      vertex 25.9267 -37.6 -50.7015
      vertex 26.8228 -37.6 -48.1779
    endloop
  endfacet
  facet normal 0 -1 0
    outer loop
      vertex 30.09 -37.6 -50.7015
      vertex 26.8228 -37.6 -48.1779
      vertex 25.9267 -37.6 -50.7015
    endloop
  endfacet
  facet normal 0 -1 0
    outer loop
      vertex 27.4339 -37.6 -45.3032
      vertex 30.09 -37.6 -50.7015
      vertex 30.09 -37.6 -31.9385
    endloop
  endfacet
  facet normal 0 -1 0
    outer loop
      vertex 27.4339 -37.6 -47.3368
      vertex 30.09 -37.6 -50.7015
      vertex 27.65 -37.6 -46.32
    endloop
  endfacet
  facet normal 0 -1 0
    outer loop
      vertex 26.8228 -37.6 -48.1779
      vertex 30.09 -37.6 -50.7015
      vertex 27.4339 -37.6 -47.3368
    endloop
  endfacet
  facet normal 0 -1 0
    outer loop
      vertex 73.1275 -37.6 -34.8505
      vertex 73.6667 -37.6 -31.9385
      vertex 70.21 -37.6 -31.9385
    endloop
  endfacet
  facet normal -0 -1 0
    outer loop
      vertex 74.8887 -37.6 -33.8337
      vertex 73.6667 -37.6 -31.9385
      vertex 73.9 -37.6 -34.1549
    endloop
  endfacet
  facet normal 0 -1 -0
    outer loop
      vertex 75.0645 -37.6 -32.0854
      vertex 74.8887 -37.6 -33.8337
      vertex 76.2817 -37.6 -32.7882
    endloop
  endfacet
  facet normal 0 -1 0
    outer loop
      vertex 73.6667 -37.6 -31.9385
      vertex 74.8887 -37.6 -33.8337
      vertex 75.0645 -37.6 -32.0854
    endloop
  endfacet
  facet normal 0 -1 -0
    outer loop
      vertex 73.6667 -37.6 -31.9385
      vertex 73.1275 -37.6 -34.8505
      vertex 73.9 -37.6 -34.1549
    endloop
  endfacet
  facet normal 0 -1 0
    outer loop
      vertex 70.21 -37.6 -31.9385
      vertex 72.7046 -37.6 -35.8002
      vertex 73.1275 -37.6 -34.8505
    endloop
  endfacet
  facet normal 0 -1 0
    outer loop
      vertex 70.21 -37.6 -31.9385
      vertex 72.7046 -37.6 -36.8398
      vertex 72.7046 -37.6 -35.8002
    endloop
  endfacet
  facet normal 0 -1 0
    outer loop
      vertex 72.7046 -37.6 -45.8002
      vertex 72.7046 -37.6 -36.8398
      vertex 70.21 -37.6 -31.9385
    endloop
  endfacet
  facet normal 0 -1 0
    outer loop
      vertex 73.9 -37.6 -38.4851
      vertex 74.8887 -37.6 -43.8337
      vertex 74.8887 -37.6 -38.8063
    endloop
  endfacet
  facet normal 0 -1 0
    outer loop
      vertex 73.9 -37.6 -44.1549
      vertex 73.9 -37.6 -38.4851
      vertex 73.1275 -37.6 -37.7895
    endloop
  endfacet
  facet normal 0 -1 0
    outer loop
      vertex 72.7046 -37.6 -36.8398
      vertex 72.7046 -37.6 -45.8002
      vertex 73.1275 -37.6 -37.7895
    endloop
  endfacet
  facet normal 0 -1 0
    outer loop
      vertex 73.9 -37.6 -38.4851
      vertex 73.9 -37.6 -44.1549
      vertex 74.8887 -37.6 -43.8337
    endloop
  endfacet
  facet normal 0 -1 0
    outer loop
      vertex 73.1275 -37.6 -37.7895
      vertex 73.1275 -37.6 -44.8505
      vertex 73.9 -37.6 -44.1549
    endloop
  endfacet
  facet normal 0 -1 -0
    outer loop
      vertex 73.1275 -37.6 -37.7895
      vertex 72.7046 -37.6 -45.8002
      vertex 73.1275 -37.6 -44.8505
    endloop
  endfacet
  facet normal 0 -1 0
    outer loop
      vertex 70.21 -37.6 -50.7015
      vertex 72.7046 -37.6 -45.8002
      vertex 70.21 -37.6 -31.9385
    endloop
  endfacet
  facet normal 0 -1 0
    outer loop
      vertex 73.6667 -37.6 -50.7015
      vertex 74.8887 -37.6 -48.8063
      vertex 73.9 -37.6 -48.4851
    endloop
  endfacet
  facet normal 0 -1 0
    outer loop
      vertex 74.8887 -37.6 -48.8063
      vertex 75.0645 -37.6 -50.5546
      vertex 76.2817 -37.6 -49.8518
    endloop
  endfacet
  facet normal 0 -1 0
    outer loop
      vertex 73.6667 -37.6 -50.7015
      vertex 73.9 -37.6 -48.4851
      vertex 73.1275 -37.6 -47.7895
    endloop
  endfacet
  facet normal 0 -1 -0
    outer loop
      vertex 72.7046 -37.6 -45.8002
      vertex 70.21 -37.6 -50.7015
      vertex 72.7046 -37.6 -46.8398
    endloop
  endfacet
  facet normal 0 -1 0
    outer loop
      vertex 70.21 -37.6 -50.7015
      vertex 73.1275 -37.6 -47.7895
      vertex 72.7046 -37.6 -46.8398
    endloop
  endfacet
  facet normal 0 -1 0
    outer loop
      vertex 73.6667 -37.6 -50.7015
      vertex 73.1275 -37.6 -47.7895
      vertex 70.21 -37.6 -50.7015
    endloop
  endfacet
  facet normal 0 -1 -0
    outer loop
      vertex 74.8887 -37.6 -48.8063
      vertex 73.6667 -37.6 -50.7015
      vertex 75.0645 -37.6 -50.5546
    endloop
  endfacet
  facet normal 0 -1 0
    outer loop
      vertex 75.9225 -37.6 -33.9424
      vertex 76.2817 -37.6 -32.7882
      vertex 74.8887 -37.6 -33.8337
    endloop
  endfacet
  facet normal 0 -1 -0
    outer loop
      vertex 76.2817 -37.6 -32.7882
      vertex 75.9225 -37.6 -33.9424
      vertex 77.1078 -37.6 -33.9252
    endloop
  endfacet
  facet normal 0 -1 0
    outer loop
      vertex 76.8228 -37.6 -34.4621
      vertex 77.1078 -37.6 -33.9252
      vertex 75.9225 -37.6 -33.9424
    endloop
  endfacet
  facet normal 0 -1 -0
    outer loop
      vertex 77.1078 -37.6 -33.9252
      vertex 76.8228 -37.6 -34.4621
      vertex 77.3869 -37.6 -35.2386
    endloop
  endfacet
  facet normal 0 -1 0
    outer loop
      vertex 74.8887 -37.6 -43.8337
      vertex 75.9225 -37.6 -38.6976
      vertex 74.8887 -37.6 -38.8063
    endloop
  endfacet
  facet normal 0 -1 0
    outer loop
      vertex 75.9225 -37.6 -43.9424
      vertex 75.9225 -37.6 -38.6976
      vertex 74.8887 -37.6 -43.8337
    endloop
  endfacet
  facet normal 0 -1 0
    outer loop
      vertex 75.9225 -37.6 -38.6976
      vertex 75.9225 -37.6 -43.9424
      vertex 76.8228 -37.6 -38.1779
    endloop
  endfacet
  facet normal 0 -1 0
    outer loop
      vertex 76.8228 -37.6 -44.4621
      vertex 76.8228 -37.6 -38.1779
      vertex 75.9225 -37.6 -43.9424
    endloop
  endfacet
  facet normal 0 -1 0
    outer loop
      vertex 76.8228 -37.6 -38.1779
      vertex 76.8228 -37.6 -44.4621
      vertex 77.4 -37.6 -37.3834
    endloop
  endfacet
  facet normal 0 -1 -0
    outer loop
      vertex 77.4 -37.6 -37.3834
      vertex 76.8228 -37.6 -44.4621
      vertex 77.4 -37.6 -45.2565
    endloop
  endfacet
  facet normal 0 -1 0
    outer loop
      vertex 76.8228 -37.6 -48.1779
      vertex 77.1078 -37.6 -48.7148
      vertex 77.3869 -37.6 -47.4014
    endloop
  endfacet
  facet normal 0 -1 0
    outer loop
      vertex 75.9225 -37.6 -48.6976
      vertex 77.1078 -37.6 -48.7148
      vertex 76.8228 -37.6 -48.1779
    endloop
  endfacet
  facet normal 0 -1 0
    outer loop
      vertex 76.2817 -37.6 -49.8518
      vertex 75.9225 -37.6 -48.6976
      vertex 74.8887 -37.6 -48.8063
    endloop
  endfacet
  facet normal 0 -1 0
    outer loop
      vertex 75.9225 -37.6 -48.6976
      vertex 76.2817 -37.6 -49.8518
      vertex 77.1078 -37.6 -48.7148
    endloop
  endfacet
  facet normal -1 0 0
    outer loop
      vertex 22.9739 -37.6 -48.0427
      vertex 22.9739 -34.4 -47.4445
      vertex 22.9739 -34.4 -48.0427
    endloop
  endfacet
  facet normal -1 -0 0
    outer loop
      vertex 22.9739 -34.4 -47.4445
      vertex 22.9739 -37.6 -48.0427
      vertex 22.9739 -37.6 -47.4445
    endloop
  endfacet
  facet normal -1 0 0
    outer loop
      vertex 22.9739 -37.6 -35.1955
      vertex 22.9739 -34.4 -34.5973
      vertex 22.9739 -34.4 -35.1955
    endloop
  endfacet
  facet normal -1 -0 0
    outer loop
      vertex 22.9739 -34.4 -34.5973
      vertex 22.9739 -37.6 -35.1955
      vertex 22.9739 -37.6 -34.5973
    endloop
  endfacet
  facet normal -1 0 0
    outer loop
      vertex 22.9739 -37.6 -45.1955
      vertex 22.9739 -34.4 -37.4445
      vertex 22.9739 -34.4 -45.1955
    endloop
  endfacet
  facet normal -1 -0 0
    outer loop
      vertex 22.9739 -34.4 -37.4445
      vertex 22.9739 -37.6 -45.1955
      vertex 22.9739 -37.6 -37.4445
    endloop
  endfacet
  facet normal 0.499998 0 -0.866026
    outer loop
      vertex 75.0645 -37.6 -50.5546
      vertex 76.2817 -34.4 -49.8518
      vertex 76.2817 -37.6 -49.8518
    endloop
  endfacet
  facet normal 0.499998 0 -0.866026
    outer loop
      vertex 76.2817 -34.4 -49.8518
      vertex 75.0645 -37.6 -50.5546
      vertex 75.0645 -34.4 -50.5546
    endloop
  endfacet
  facet normal 0.104529 0 0.994522
    outer loop
      vertex 73.6667 -34.4 -31.9385
      vertex 75.0645 -37.6 -32.0854
      vertex 75.0645 -34.4 -32.0854
    endloop
  endfacet
  facet normal 0.104529 0 0.994522
    outer loop
      vertex 75.0645 -37.6 -32.0854
      vertex 73.6667 -34.4 -31.9385
      vertex 73.6667 -37.6 -31.9385
    endloop
  endfacet
  facet normal -0 0 1
    outer loop
      vertex 25.9267 -34.4 -31.9385
      vertex 30.09 -37.6 -31.9385
      vertex 30.09 -34.4 -31.9385
    endloop
  endfacet
  facet normal 0 0 1
    outer loop
      vertex 30.09 -37.6 -31.9385
      vertex 25.9267 -34.4 -31.9385
      vertex 25.9267 -37.6 -31.9385
    endloop
  endfacet
  facet normal -0 0 1
    outer loop
      vertex 70.21 -34.4 -31.9385
      vertex 73.6667 -37.6 -31.9385
      vertex 73.6667 -34.4 -31.9385
    endloop
  endfacet
  facet normal 0 0 1
    outer loop
      vertex 73.6667 -37.6 -31.9385
      vertex 70.21 -34.4 -31.9385
      vertex 70.21 -37.6 -31.9385
    endloop
  endfacet
  facet normal -0.309016 0 0.951057
    outer loop
      vertex 24.59 -34.4 -32.3728
      vertex 25.9267 -37.6 -31.9385
      vertex 25.9267 -34.4 -31.9385
    endloop
  endfacet
  facet normal -0.309016 0 0.951057
    outer loop
      vertex 25.9267 -37.6 -31.9385
      vertex 24.59 -34.4 -32.3728
      vertex 24.59 -37.6 -32.3728
    endloop
  endfacet
  facet normal 0 0 -1
    outer loop
      vertex 70.21 -37.6 -50.7015
      vertex 73.6667 -34.4 -50.7015
      vertex 73.6667 -37.6 -50.7015
    endloop
  endfacet
  facet normal -0 0 -1
    outer loop
      vertex 73.6667 -34.4 -50.7015
      vertex 70.21 -37.6 -50.7015
      vertex 70.21 -34.4 -50.7015
    endloop
  endfacet
  facet normal 0 0 -1
    outer loop
      vertex 25.9267 -37.6 -50.7015
      vertex 30.09 -34.4 -50.7015
      vertex 30.09 -37.6 -50.7015
    endloop
  endfacet
  facet normal -0 0 -1
    outer loop
      vertex 30.09 -34.4 -50.7015
      vertex 25.9267 -37.6 -50.7015
      vertex 25.9267 -34.4 -50.7015
    endloop
  endfacet
  facet normal -0.309017 0 -0.951056
    outer loop
      vertex 24.59 -37.6 -50.2672
      vertex 25.9267 -34.4 -50.7015
      vertex 25.9267 -37.6 -50.7015
    endloop
  endfacet
  facet normal -0.309017 0 -0.951056
    outer loop
      vertex 25.9267 -34.4 -50.7015
      vertex 24.59 -37.6 -50.2672
      vertex 24.59 -34.4 -50.2672
    endloop
  endfacet
  facet normal 0.978147 0 -0.207915
    outer loop
      vertex 77.3869 -37.6 -47.4014
      vertex 77.1078 -34.4 -48.7148
      vertex 77.3869 -34.4 -47.4014
    endloop
  endfacet
  facet normal 0.978147 0 -0.207915
    outer loop
      vertex 77.1078 -34.4 -48.7148
      vertex 77.3869 -37.6 -47.4014
      vertex 77.1078 -37.6 -48.7148
    endloop
  endfacet
  facet normal 0.809019 -0 0.587783
    outer loop
      vertex 76.2817 -37.6 -32.7882
      vertex 77.1078 -34.4 -33.9252
      vertex 76.2817 -34.4 -32.7882
    endloop
  endfacet
  facet normal 0.809019 0 0.587783
    outer loop
      vertex 77.1078 -34.4 -33.9252
      vertex 76.2817 -37.6 -32.7882
      vertex 77.1078 -37.6 -33.9252
    endloop
  endfacet
  facet normal 0.10453 0 -0.994522
    outer loop
      vertex 73.6667 -37.6 -50.7015
      vertex 75.0645 -34.4 -50.5546
      vertex 75.0645 -37.6 -50.5546
    endloop
  endfacet
  facet normal 0.10453 0 -0.994522
    outer loop
      vertex 75.0645 -34.4 -50.5546
      vertex 73.6667 -37.6 -50.7015
      vertex 73.6667 -34.4 -50.7015
    endloop
  endfacet
  facet normal 0 1 -0
    outer loop
      vertex 26.8228 -34.4 -34.4621
      vertex 25.9267 -34.4 -31.9385
      vertex 30.09 -34.4 -31.9385
    endloop
  endfacet
  facet normal 0 1 0
    outer loop
      vertex 25.9267 -34.4 -31.9385
      vertex 25.9225 -34.4 -33.9424
      vertex 24.59 -34.4 -32.3728
    endloop
  endfacet
  facet normal -0 1 -0
    outer loop
      vertex 24.8887 -34.4 -33.8337
      vertex 24.59 -34.4 -32.3728
      vertex 25.9225 -34.4 -33.9424
    endloop
  endfacet
  facet normal 0 1 0
    outer loop
      vertex 24.59 -34.4 -32.3728
      vertex 24.8887 -34.4 -33.8337
      vertex 23.5455 -34.4 -33.3133
    endloop
  endfacet
  facet normal 0 1 0
    outer loop
      vertex 25.9267 -34.4 -31.9385
      vertex 26.8228 -34.4 -34.4621
      vertex 25.9225 -34.4 -33.9424
    endloop
  endfacet
  facet normal 0 1 0
    outer loop
      vertex 30.09 -34.4 -31.9385
      vertex 27.4339 -34.4 -35.3032
      vertex 26.8228 -34.4 -34.4621
    endloop
  endfacet
  facet normal 0 1 0
    outer loop
      vertex 30.09 -34.4 -31.9385
      vertex 27.65 -34.4 -36.32
      vertex 27.4339 -34.4 -35.3032
    endloop
  endfacet
  facet normal 0 1 0
    outer loop
      vertex 30.09 -34.4 -31.9385
      vertex 27.4339 -34.4 -37.3368
      vertex 27.65 -34.4 -36.32
    endloop
  endfacet
  facet normal 0 1 0
    outer loop
      vertex 25.9225 -34.4 -38.6976
      vertex 24.8887 -34.4 -43.8337
      vertex 24.8887 -34.4 -38.8063
    endloop
  endfacet
  facet normal 0 1 0
    outer loop
      vertex 25.9225 -34.4 -43.9424
      vertex 25.9225 -34.4 -38.6976
      vertex 26.8228 -34.4 -38.1779
    endloop
  endfacet
  facet normal 0 1 0
    outer loop
      vertex 26.8228 -34.4 -44.4621
      vertex 26.8228 -34.4 -38.1779
      vertex 27.4339 -34.4 -37.3368
    endloop
  endfacet
  facet normal 0 1 0
    outer loop
      vertex 27.4339 -34.4 -45.3032
      vertex 27.4339 -34.4 -37.3368
      vertex 30.09 -34.4 -31.9385
    endloop
  endfacet
  facet normal 0 1 0
    outer loop
      vertex 25.9225 -34.4 -38.6976
      vertex 25.9225 -34.4 -43.9424
      vertex 24.8887 -34.4 -43.8337
    endloop
  endfacet
  facet normal 0 1 0
    outer loop
      vertex 26.8228 -34.4 -38.1779
      vertex 26.8228 -34.4 -44.4621
      vertex 25.9225 -34.4 -43.9424
    endloop
  endfacet
  facet normal 0 1 0
    outer loop
      vertex 27.4339 -34.4 -37.3368
      vertex 27.4339 -34.4 -45.3032
      vertex 26.8228 -34.4 -44.4621
    endloop
  endfacet
  facet normal 0 1 -0
    outer loop
      vertex 30.09 -34.4 -50.7015
      vertex 27.4339 -34.4 -45.3032
      vertex 30.09 -34.4 -31.9385
    endloop
  endfacet
  facet normal 0 1 0
    outer loop
      vertex 24.59 -34.4 -50.2672
      vertex 24.8887 -34.4 -48.8063
      vertex 25.9225 -34.4 -48.6976
    endloop
  endfacet
  facet normal 0 1 0
    outer loop
      vertex 24.8887 -34.4 -48.8063
      vertex 24.59 -34.4 -50.2672
      vertex 23.5455 -34.4 -49.3267
    endloop
  endfacet
  facet normal 0 1 -0
    outer loop
      vertex 25.9267 -34.4 -50.7015
      vertex 25.9225 -34.4 -48.6976
      vertex 26.8228 -34.4 -48.1779
    endloop
  endfacet
  facet normal 0 1 0
    outer loop
      vertex 27.4339 -34.4 -45.3032
      vertex 30.09 -34.4 -50.7015
      vertex 27.65 -34.4 -46.32
    endloop
  endfacet
  facet normal 0 1 0
    outer loop
      vertex 30.09 -34.4 -50.7015
      vertex 27.4339 -34.4 -47.3368
      vertex 27.65 -34.4 -46.32
    endloop
  endfacet
  facet normal 0 1 0
    outer loop
      vertex 30.09 -34.4 -50.7015
      vertex 26.8228 -34.4 -48.1779
      vertex 27.4339 -34.4 -47.3368
    endloop
  endfacet
  facet normal 0 1 0
    outer loop
      vertex 25.9267 -34.4 -50.7015
      vertex 26.8228 -34.4 -48.1779
      vertex 30.09 -34.4 -50.7015
    endloop
  endfacet
  facet normal 0 1 0
    outer loop
      vertex 25.9225 -34.4 -48.6976
      vertex 25.9267 -34.4 -50.7015
      vertex 24.59 -34.4 -50.2672
    endloop
  endfacet
  facet normal 0 1 -0
    outer loop
      vertex 23.9 -34.4 -34.1549
      vertex 23.5455 -34.4 -33.3133
      vertex 24.8887 -34.4 -33.8337
    endloop
  endfacet
  facet normal 0 1 0
    outer loop
      vertex 23.9 -34.4 -34.1549
      vertex 22.9739 -34.4 -34.5973
      vertex 23.5455 -34.4 -33.3133
    endloop
  endfacet
  facet normal 0 1 -0
    outer loop
      vertex 23.1275 -34.4 -34.8505
      vertex 22.9739 -34.4 -34.5973
      vertex 23.9 -34.4 -34.1549
    endloop
  endfacet
  facet normal 0 1 0
    outer loop
      vertex 22.9739 -34.4 -34.5973
      vertex 23.1275 -34.4 -34.8505
      vertex 22.9739 -34.4 -35.1955
    endloop
  endfacet
  facet normal 0 1 -0
    outer loop
      vertex 24.8887 -34.4 -43.8337
      vertex 23.9 -34.4 -38.4851
      vertex 24.8887 -34.4 -38.8063
    endloop
  endfacet
  facet normal 0 1 0
    outer loop
      vertex 23.9 -34.4 -44.1549
      vertex 23.9 -34.4 -38.4851
      vertex 24.8887 -34.4 -43.8337
    endloop
  endfacet
  facet normal 0 1 0
    outer loop
      vertex 23.9 -34.4 -38.4851
      vertex 23.9 -34.4 -44.1549
      vertex 23.1275 -34.4 -37.7895
    endloop
  endfacet
  facet normal 0 1 0
    outer loop
      vertex 23.1275 -34.4 -44.8505
      vertex 23.1275 -34.4 -37.7895
      vertex 23.9 -34.4 -44.1549
    endloop
  endfacet
  facet normal 0 1 0
    outer loop
      vertex 23.1275 -34.4 -37.7895
      vertex 23.1275 -34.4 -44.8505
      vertex 22.9739 -34.4 -37.4445
    endloop
  endfacet
  facet normal 0 1 0
    outer loop
      vertex 22.9739 -34.4 -37.4445
      vertex 23.1275 -34.4 -44.8505
      vertex 22.9739 -34.4 -45.1955
    endloop
  endfacet
  facet normal 0 1 0
    outer loop
      vertex 23.1275 -34.4 -47.7895
      vertex 22.9739 -34.4 -48.0427
      vertex 22.9739 -34.4 -47.4445
    endloop
  endfacet
  facet normal 0 1 0
    outer loop
      vertex 23.9 -34.4 -48.4851
      vertex 22.9739 -34.4 -48.0427
      vertex 23.1275 -34.4 -47.7895
    endloop
  endfacet
  facet normal 0 1 0
    outer loop
      vertex 23.9 -34.4 -48.4851
      vertex 23.5455 -34.4 -49.3267
      vertex 22.9739 -34.4 -48.0427
    endloop
  endfacet
  facet normal 0 1 0
    outer loop
      vertex 23.5455 -34.4 -49.3267
      vertex 23.9 -34.4 -48.4851
      vertex 24.8887 -34.4 -48.8063
    endloop
  endfacet
  facet normal 0 1 -0
    outer loop
      vertex 77.1078 -34.4 -48.7148
      vertex 76.8228 -34.4 -48.1779
      vertex 77.3869 -34.4 -47.4014
    endloop
  endfacet
  facet normal 0 1 0
    outer loop
      vertex 77.1078 -34.4 -48.7148
      vertex 75.9225 -34.4 -48.6976
      vertex 76.8228 -34.4 -48.1779
    endloop
  endfacet
  facet normal 0 1 -0
    outer loop
      vertex 76.2817 -34.4 -49.8518
      vertex 75.9225 -34.4 -48.6976
      vertex 77.1078 -34.4 -48.7148
    endloop
  endfacet
  facet normal 0 1 0
    outer loop
      vertex 75.9225 -34.4 -48.6976
      vertex 76.2817 -34.4 -49.8518
      vertex 74.8887 -34.4 -48.8063
    endloop
  endfacet
  facet normal 0 1 0
    outer loop
      vertex 75.9225 -34.4 -38.6976
      vertex 74.8887 -34.4 -43.8337
      vertex 74.8887 -34.4 -38.8063
    endloop
  endfacet
  facet normal 0 1 0
    outer loop
      vertex 75.9225 -34.4 -43.9424
      vertex 75.9225 -34.4 -38.6976
      vertex 76.8228 -34.4 -38.1779
    endloop
  endfacet
  facet normal 0 1 0
    outer loop
      vertex 76.8228 -34.4 -44.4621
      vertex 76.8228 -34.4 -38.1779
      vertex 77.4 -34.4 -37.3834
    endloop
  endfacet
  facet normal 0 1 0
    outer loop
      vertex 75.9225 -34.4 -38.6976
      vertex 75.9225 -34.4 -43.9424
      vertex 74.8887 -34.4 -43.8337
    endloop
  endfacet
  facet normal 0 1 0
    outer loop
      vertex 76.8228 -34.4 -38.1779
      vertex 76.8228 -34.4 -44.4621
      vertex 75.9225 -34.4 -43.9424
    endloop
  endfacet
  facet normal -0 1 0
    outer loop
      vertex 76.8228 -34.4 -44.4621
      vertex 77.4 -34.4 -37.3834
      vertex 77.4 -34.4 -45.2565
    endloop
  endfacet
  facet normal 0 1 0
    outer loop
      vertex 75.9225 -34.4 -33.9424
      vertex 76.2817 -34.4 -32.7882
      vertex 77.1078 -34.4 -33.9252
    endloop
  endfacet
  facet normal 0 1 0
    outer loop
      vertex 76.2817 -34.4 -32.7882
      vertex 75.9225 -34.4 -33.9424
      vertex 74.8887 -34.4 -33.8337
    endloop
  endfacet
  facet normal 0 1 0
    outer loop
      vertex 77.1078 -34.4 -33.9252
      vertex 76.8228 -34.4 -34.4621
      vertex 75.9225 -34.4 -33.9424
    endloop
  endfacet
  facet normal -0 1 0
    outer loop
      vertex 76.8228 -34.4 -34.4621
      vertex 77.1078 -34.4 -33.9252
      vertex 77.3869 -34.4 -35.2386
    endloop
  endfacet
  facet normal 0 1 -0
    outer loop
      vertex 74.8887 -34.4 -33.8337
      vertex 73.6667 -34.4 -31.9385
      vertex 75.0645 -34.4 -32.0854
    endloop
  endfacet
  facet normal 0 1 0
    outer loop
      vertex 74.8887 -34.4 -33.8337
      vertex 75.0645 -34.4 -32.0854
      vertex 76.2817 -34.4 -32.7882
    endloop
  endfacet
  facet normal 0 1 0
    outer loop
      vertex 73.6667 -34.4 -31.9385
      vertex 74.8887 -34.4 -33.8337
      vertex 73.9 -34.4 -34.1549
    endloop
  endfacet
  facet normal 0 1 0
    outer loop
      vertex 73.1275 -34.4 -34.8505
      vertex 73.6667 -34.4 -31.9385
      vertex 73.9 -34.4 -34.1549
    endloop
  endfacet
  facet normal 0 1 0
    outer loop
      vertex 73.6667 -34.4 -31.9385
      vertex 73.1275 -34.4 -34.8505
      vertex 70.21 -34.4 -31.9385
    endloop
  endfacet
  facet normal 0 1 -0
    outer loop
      vertex 72.7046 -34.4 -35.8002
      vertex 70.21 -34.4 -31.9385
      vertex 73.1275 -34.4 -34.8505
    endloop
  endfacet
  facet normal 0 1 -0
    outer loop
      vertex 72.7046 -34.4 -36.8398
      vertex 70.21 -34.4 -31.9385
      vertex 72.7046 -34.4 -35.8002
    endloop
  endfacet
  facet normal 0 1 0
    outer loop
      vertex 72.7046 -34.4 -45.8002
      vertex 72.7046 -34.4 -36.8398
      vertex 73.1275 -34.4 -37.7895
    endloop
  endfacet
  facet normal 0 1 -0
    outer loop
      vertex 74.8887 -34.4 -43.8337
      vertex 73.9 -34.4 -38.4851
      vertex 74.8887 -34.4 -38.8063
    endloop
  endfacet
  facet normal 0 1 0
    outer loop
      vertex 73.9 -34.4 -44.1549
      vertex 73.9 -34.4 -38.4851
      vertex 74.8887 -34.4 -43.8337
    endloop
  endfacet
  facet normal 0 1 0
    outer loop
      vertex 73.9 -34.4 -38.4851
      vertex 73.9 -34.4 -44.1549
      vertex 73.1275 -34.4 -37.7895
    endloop
  endfacet
  facet normal 0 1 0
    outer loop
      vertex 73.1275 -34.4 -44.8505
      vertex 73.1275 -34.4 -37.7895
      vertex 73.9 -34.4 -44.1549
    endloop
  endfacet
  facet normal 0 1 0
    outer loop
      vertex 72.7046 -34.4 -45.8002
      vertex 73.1275 -34.4 -37.7895
      vertex 73.1275 -34.4 -44.8505
    endloop
  endfacet
  facet normal 0 1 0
    outer loop
      vertex 72.7046 -34.4 -36.8398
      vertex 72.7046 -34.4 -45.8002
      vertex 70.21 -34.4 -31.9385
    endloop
  endfacet
  facet normal 0 1 0
    outer loop
      vertex 70.21 -34.4 -50.7015
      vertex 72.7046 -34.4 -45.8002
      vertex 72.7046 -34.4 -46.8398
    endloop
  endfacet
  facet normal 0 1 -0
    outer loop
      vertex 75.0645 -34.4 -50.5546
      vertex 74.8887 -34.4 -48.8063
      vertex 76.2817 -34.4 -49.8518
    endloop
  endfacet
  facet normal 0 1 0
    outer loop
      vertex 73.6667 -34.4 -50.7015
      vertex 74.8887 -34.4 -48.8063
      vertex 75.0645 -34.4 -50.5546
    endloop
  endfacet
  facet normal 0 1 0
    outer loop
      vertex 74.8887 -34.4 -48.8063
      vertex 73.6667 -34.4 -50.7015
      vertex 73.9 -34.4 -48.4851
    endloop
  endfacet
  facet normal 0 1 0
    outer loop
      vertex 73.9 -34.4 -48.4851
      vertex 73.6667 -34.4 -50.7015
      vertex 73.1275 -34.4 -47.7895
    endloop
  endfacet
  facet normal 0 1 0
    outer loop
      vertex 70.21 -34.4 -50.7015
      vertex 73.1275 -34.4 -47.7895
      vertex 73.6667 -34.4 -50.7015
    endloop
  endfacet
  facet normal 0 1 0
    outer loop
      vertex 72.7046 -34.4 -45.8002
      vertex 70.21 -34.4 -50.7015
      vertex 70.21 -34.4 -31.9385
    endloop
  endfacet
  facet normal 0 1 0
    outer loop
      vertex 73.1275 -34.4 -47.7895
      vertex 70.21 -34.4 -50.7015
      vertex 72.7046 -34.4 -46.8398
    endloop
  endfacet
  facet normal -0.913546 0 0.406736
    outer loop
      vertex 22.9739 -37.6 -34.5973
      vertex 23.5455 -34.4 -33.3133
      vertex 22.9739 -34.4 -34.5973
    endloop
  endfacet
  facet normal -0.913546 0 0.406736
    outer loop
      vertex 23.5455 -34.4 -33.3133
      vertex 22.9739 -37.6 -34.5973
      vertex 23.5455 -37.6 -33.3133
    endloop
  endfacet
  facet normal -0.669131 0 -0.743145
    outer loop
      vertex 23.5455 -37.6 -49.3267
      vertex 24.59 -34.4 -50.2672
      vertex 24.59 -37.6 -50.2672
    endloop
  endfacet
  facet normal -0.669131 0 -0.743145
    outer loop
      vertex 24.59 -34.4 -50.2672
      vertex 23.5455 -37.6 -49.3267
      vertex 23.5455 -34.4 -49.3267
    endloop
  endfacet
  facet normal -0.913546 0 -0.406736
    outer loop
      vertex 23.5455 -37.6 -49.3267
      vertex 22.9739 -34.4 -48.0427
      vertex 23.5455 -34.4 -49.3267
    endloop
  endfacet
  facet normal -0.913546 -0 -0.406736
    outer loop
      vertex 22.9739 -34.4 -48.0427
      vertex 23.5455 -37.6 -49.3267
      vertex 22.9739 -37.6 -48.0427
    endloop
  endfacet
  facet normal 0.978147 -0 0.207916
    outer loop
      vertex 77.1078 -37.6 -33.9252
      vertex 77.3869 -34.4 -35.2386
      vertex 77.1078 -34.4 -33.9252
    endloop
  endfacet
  facet normal 0.978147 0 0.207916
    outer loop
      vertex 77.3869 -34.4 -35.2386
      vertex 77.1078 -37.6 -33.9252
      vertex 77.3869 -37.6 -35.2386
    endloop
  endfacet
  facet normal 0.499998 0 0.866026
    outer loop
      vertex 75.0645 -34.4 -32.0854
      vertex 76.2817 -37.6 -32.7882
      vertex 76.2817 -34.4 -32.7882
    endloop
  endfacet
  facet normal 0.499998 0 0.866026
    outer loop
      vertex 76.2817 -37.6 -32.7882
      vertex 75.0645 -34.4 -32.0854
      vertex 75.0645 -37.6 -32.0854
    endloop
  endfacet
  facet normal -0.669131 0 0.743145
    outer loop
      vertex 23.5455 -34.4 -33.3133
      vertex 24.59 -37.6 -32.3728
      vertex 24.59 -34.4 -32.3728
    endloop
  endfacet
  facet normal -0.669131 0 0.743145
    outer loop
      vertex 24.59 -37.6 -32.3728
      vertex 23.5455 -34.4 -33.3133
      vertex 23.5455 -37.6 -33.3133
    endloop
  endfacet
  facet normal 1 -0 0
    outer loop
      vertex 72.7046 -37.6 -35.8002
      vertex 72.7046 -34.4 -36.8398
      vertex 72.7046 -34.4 -35.8002
    endloop
  endfacet
  facet normal 1 0 0
    outer loop
      vertex 72.7046 -34.4 -36.8398
      vertex 72.7046 -37.6 -35.8002
      vertex 72.7046 -37.6 -36.8398
    endloop
  endfacet
  facet normal -0.104531 0 -0.994522
    outer loop
      vertex 74.8887 -37.6 -33.8337
      vertex 75.9225 -34.4 -33.9424
      vertex 75.9225 -37.6 -33.9424
    endloop
  endfacet
  facet normal -0.104531 0 -0.994522
    outer loop
      vertex 75.9225 -34.4 -33.9424
      vertex 74.8887 -37.6 -33.8337
      vertex 74.8887 -34.4 -33.8337
    endloop
  endfacet
  facet normal -0.5 0 0.866025
    outer loop
      vertex 75.9225 -34.4 -38.6976
      vertex 76.8228 -37.6 -38.1779
      vertex 76.8228 -34.4 -38.1779
    endloop
  endfacet
  facet normal -0.5 0 0.866025
    outer loop
      vertex 76.8228 -37.6 -38.1779
      vertex 75.9225 -34.4 -38.6976
      vertex 75.9225 -37.6 -38.6976
    endloop
  endfacet
  facet normal -0.104527 0 0.994522
    outer loop
      vertex 74.8887 -34.4 -38.8063
      vertex 75.9225 -37.6 -38.6976
      vertex 75.9225 -34.4 -38.6976
    endloop
  endfacet
  facet normal -0.104527 0 0.994522
    outer loop
      vertex 75.9225 -37.6 -38.6976
      vertex 74.8887 -34.4 -38.8063
      vertex 74.8887 -37.6 -38.8063
    endloop
  endfacet
  facet normal -0.809016 0 0.587787
    outer loop
      vertex 76.8228 -37.6 -38.1779
      vertex 77.4 -34.4 -37.3834
      vertex 76.8228 -34.4 -38.1779
    endloop
  endfacet
  facet normal -0.809016 0 0.587787
    outer loop
      vertex 77.4 -34.4 -37.3834
      vertex 76.8228 -37.6 -38.1779
      vertex 77.4 -37.6 -37.3834
    endloop
  endfacet
  facet normal 0.309016 0 0.951057
    outer loop
      vertex 73.9 -34.4 -38.4851
      vertex 74.8887 -37.6 -38.8063
      vertex 74.8887 -34.4 -38.8063
    endloop
  endfacet
  facet normal 0.309016 0 0.951057
    outer loop
      vertex 74.8887 -37.6 -38.8063
      vertex 73.9 -34.4 -38.4851
      vertex 73.9 -37.6 -38.4851
    endloop
  endfacet
  facet normal -0.809014 0 -0.587789
    outer loop
      vertex 77.3869 -37.6 -35.2386
      vertex 76.8228 -34.4 -34.4621
      vertex 77.3869 -34.4 -35.2386
    endloop
  endfacet
  facet normal -0.809014 -0 -0.587789
    outer loop
      vertex 76.8228 -34.4 -34.4621
      vertex 77.3869 -37.6 -35.2386
      vertex 76.8228 -37.6 -34.4621
    endloop
  endfacet
  facet normal -0.5 0 -0.866025
    outer loop
      vertex 75.9225 -37.6 -33.9424
      vertex 76.8228 -34.4 -34.4621
      vertex 76.8228 -37.6 -34.4621
    endloop
  endfacet
  facet normal -0.5 0 -0.866025
    outer loop
      vertex 76.8228 -34.4 -34.4621
      vertex 75.9225 -37.6 -33.9424
      vertex 75.9225 -34.4 -33.9424
    endloop
  endfacet
  facet normal 0.913545 0 -0.406738
    outer loop
      vertex 73.1275 -37.6 -34.8505
      vertex 72.7046 -34.4 -35.8002
      vertex 73.1275 -34.4 -34.8505
    endloop
  endfacet
  facet normal 0.913545 0 -0.406738
    outer loop
      vertex 72.7046 -34.4 -35.8002
      vertex 73.1275 -37.6 -34.8505
      vertex 72.7046 -37.6 -35.8002
    endloop
  endfacet
  facet normal 0.309019 0 -0.951056
    outer loop
      vertex 73.9 -37.6 -34.1549
      vertex 74.8887 -34.4 -33.8337
      vertex 74.8887 -37.6 -33.8337
    endloop
  endfacet
  facet normal 0.309019 0 -0.951056
    outer loop
      vertex 74.8887 -34.4 -33.8337
      vertex 73.9 -37.6 -34.1549
      vertex 73.9 -34.4 -34.1549
    endloop
  endfacet
  facet normal 0.669129 0 -0.743147
    outer loop
      vertex 73.1275 -37.6 -34.8505
      vertex 73.9 -34.4 -34.1549
      vertex 73.9 -37.6 -34.1549
    endloop
  endfacet
  facet normal 0.669129 0 -0.743147
    outer loop
      vertex 73.9 -34.4 -34.1549
      vertex 73.1275 -37.6 -34.8505
      vertex 73.1275 -34.4 -34.8505
    endloop
  endfacet
  facet normal 0.913545 -0 0.406738
    outer loop
      vertex 72.7046 -37.6 -36.8398
      vertex 73.1275 -34.4 -37.7895
      vertex 72.7046 -34.4 -36.8398
    endloop
  endfacet
  facet normal 0.913545 0 0.406738
    outer loop
      vertex 73.1275 -34.4 -37.7895
      vertex 72.7046 -37.6 -36.8398
      vertex 73.1275 -37.6 -37.7895
    endloop
  endfacet
  facet normal 0.669131 0 0.743145
    outer loop
      vertex 73.1275 -34.4 -37.7895
      vertex 73.9 -37.6 -38.4851
      vertex 73.9 -34.4 -38.4851
    endloop
  endfacet
  facet normal 0.669131 0 0.743145
    outer loop
      vertex 73.9 -37.6 -38.4851
      vertex 73.1275 -34.4 -37.7895
      vertex 73.1275 -37.6 -37.7895
    endloop
  endfacet
  facet normal -0.809014 0 -0.587789
    outer loop
      vertex 77.4 -37.6 -45.2565
      vertex 76.8228 -34.4 -44.4621
      vertex 77.4 -34.4 -45.2565
    endloop
  endfacet
  facet normal -0.809014 -0 -0.587789
    outer loop
      vertex 76.8228 -34.4 -44.4621
      vertex 77.4 -37.6 -45.2565
      vertex 76.8228 -37.6 -44.4621
    endloop
  endfacet
  facet normal 1 -0 0
    outer loop
      vertex 72.7046 -37.6 -45.8002
      vertex 72.7046 -34.4 -46.8398
      vertex 72.7046 -34.4 -45.8002
    endloop
  endfacet
  facet normal 1 0 0
    outer loop
      vertex 72.7046 -34.4 -46.8398
      vertex 72.7046 -37.6 -45.8002
      vertex 72.7046 -37.6 -46.8398
    endloop
  endfacet
  facet normal -0.104531 0 -0.994522
    outer loop
      vertex 74.8887 -37.6 -43.8337
      vertex 75.9225 -34.4 -43.9424
      vertex 75.9225 -37.6 -43.9424
    endloop
  endfacet
  facet normal -0.104531 0 -0.994522
    outer loop
      vertex 75.9225 -34.4 -43.9424
      vertex 74.8887 -37.6 -43.8337
      vertex 74.8887 -34.4 -43.8337
    endloop
  endfacet
  facet normal -0.5 0 -0.866025
    outer loop
      vertex 75.9225 -37.6 -43.9424
      vertex 76.8228 -34.4 -44.4621
      vertex 76.8228 -37.6 -44.4621
    endloop
  endfacet
  facet normal -0.5 0 -0.866025
    outer loop
      vertex 76.8228 -34.4 -44.4621
      vertex 75.9225 -37.6 -43.9424
      vertex 75.9225 -34.4 -43.9424
    endloop
  endfacet
  facet normal 0.913545 -0 0.406738
    outer loop
      vertex 72.7046 -37.6 -46.8398
      vertex 73.1275 -34.4 -47.7895
      vertex 72.7046 -34.4 -46.8398
    endloop
  endfacet
  facet normal 0.913545 0 0.406738
    outer loop
      vertex 73.1275 -34.4 -47.7895
      vertex 72.7046 -37.6 -46.8398
      vertex 73.1275 -37.6 -47.7895
    endloop
  endfacet
  facet normal 0.669129 0 0.743147
    outer loop
      vertex 73.1275 -34.4 -47.7895
      vertex 73.9 -37.6 -48.4851
      vertex 73.9 -34.4 -48.4851
    endloop
  endfacet
  facet normal 0.669129 0 0.743147
    outer loop
      vertex 73.9 -37.6 -48.4851
      vertex 73.1275 -34.4 -47.7895
      vertex 73.1275 -37.6 -47.7895
    endloop
  endfacet
  facet normal 0.913545 0 -0.406738
    outer loop
      vertex 73.1275 -37.6 -44.8505
      vertex 72.7046 -34.4 -45.8002
      vertex 73.1275 -34.4 -44.8505
    endloop
  endfacet
  facet normal 0.913545 0 -0.406738
    outer loop
      vertex 72.7046 -34.4 -45.8002
      vertex 73.1275 -37.6 -44.8505
      vertex 72.7046 -37.6 -45.8002
    endloop
  endfacet
  facet normal 0.309019 0 -0.951056
    outer loop
      vertex 73.9 -37.6 -44.1549
      vertex 74.8887 -34.4 -43.8337
      vertex 74.8887 -37.6 -43.8337
    endloop
  endfacet
  facet normal 0.309019 0 -0.951056
    outer loop
      vertex 74.8887 -34.4 -43.8337
      vertex 73.9 -37.6 -44.1549
      vertex 73.9 -34.4 -44.1549
    endloop
  endfacet
  facet normal 0.669129 0 -0.743147
    outer loop
      vertex 73.1275 -37.6 -44.8505
      vertex 73.9 -34.4 -44.1549
      vertex 73.9 -37.6 -44.1549
    endloop
  endfacet
  facet normal 0.669129 0 -0.743147
    outer loop
      vertex 73.9 -34.4 -44.1549
      vertex 73.1275 -37.6 -44.8505
      vertex 73.1275 -34.4 -44.8505
    endloop
  endfacet
  facet normal -0.104531 0 0.994522
    outer loop
      vertex 74.8887 -34.4 -48.8063
      vertex 75.9225 -37.6 -48.6976
      vertex 75.9225 -34.4 -48.6976
    endloop
  endfacet
  facet normal -0.104531 0 0.994522
    outer loop
      vertex 75.9225 -37.6 -48.6976
      vertex 74.8887 -34.4 -48.8063
      vertex 74.8887 -37.6 -48.8063
    endloop
  endfacet
  facet normal 0.309019 0 0.951056
    outer loop
      vertex 73.9 -34.4 -48.4851
      vertex 74.8887 -37.6 -48.8063
      vertex 74.8887 -34.4 -48.8063
    endloop
  endfacet
  facet normal 0.309019 0 0.951056
    outer loop
      vertex 74.8887 -37.6 -48.8063
      vertex 73.9 -34.4 -48.4851
      vertex 73.9 -37.6 -48.4851
    endloop
  endfacet
  facet normal -0.5 0 0.866025
    outer loop
      vertex 75.9225 -34.4 -48.6976
      vertex 76.8228 -37.6 -48.1779
      vertex 76.8228 -34.4 -48.1779
    endloop
  endfacet
  facet normal -0.5 0 0.866025
    outer loop
      vertex 76.8228 -37.6 -48.1779
      vertex 75.9225 -34.4 -48.6976
      vertex 75.9225 -37.6 -48.6976
    endloop
  endfacet
  facet normal -0.809014 0 0.587789
    outer loop
      vertex 76.8228 -37.6 -48.1779
      vertex 77.3869 -34.4 -47.4014
      vertex 76.8228 -34.4 -48.1779
    endloop
  endfacet
  facet normal -0.809014 0 0.587789
    outer loop
      vertex 77.3869 -34.4 -47.4014
      vertex 76.8228 -37.6 -48.1779
      vertex 77.3869 -37.6 -47.4014
    endloop
  endfacet
  facet normal -0.978148 0 -0.20791
    outer loop
      vertex 27.65 -37.6 -36.32
      vertex 27.4339 -34.4 -35.3032
      vertex 27.65 -34.4 -36.32
    endloop
  endfacet
  facet normal -0.978148 -0 -0.20791
    outer loop
      vertex 27.4339 -34.4 -35.3032
      vertex 27.65 -37.6 -36.32
      vertex 27.4339 -37.6 -35.3032
    endloop
  endfacet
  facet normal -0.10453 0 -0.994522
    outer loop
      vertex 24.8887 -37.6 -33.8337
      vertex 25.9225 -34.4 -33.9424
      vertex 25.9225 -37.6 -33.9424
    endloop
  endfacet
  facet normal -0.10453 0 -0.994522
    outer loop
      vertex 25.9225 -34.4 -33.9424
      vertex 24.8887 -37.6 -33.8337
      vertex 24.8887 -34.4 -33.8337
    endloop
  endfacet
  facet normal -0.104527 0 0.994522
    outer loop
      vertex 24.8887 -34.4 -38.8063
      vertex 25.9225 -37.6 -38.6976
      vertex 25.9225 -34.4 -38.6976
    endloop
  endfacet
  facet normal -0.104527 0 0.994522
    outer loop
      vertex 25.9225 -37.6 -38.6976
      vertex 24.8887 -34.4 -38.8063
      vertex 24.8887 -37.6 -38.8063
    endloop
  endfacet
  facet normal -0.978148 0 0.20791
    outer loop
      vertex 27.4339 -37.6 -37.3368
      vertex 27.65 -34.4 -36.32
      vertex 27.4339 -34.4 -37.3368
    endloop
  endfacet
  facet normal -0.978148 0 0.20791
    outer loop
      vertex 27.65 -34.4 -36.32
      vertex 27.4339 -37.6 -37.3368
      vertex 27.65 -37.6 -36.32
    endloop
  endfacet
  facet normal -0.809017 0 0.587785
    outer loop
      vertex 26.8228 -37.6 -38.1779
      vertex 27.4339 -34.4 -37.3368
      vertex 26.8228 -34.4 -38.1779
    endloop
  endfacet
  facet normal -0.809017 0 0.587785
    outer loop
      vertex 27.4339 -34.4 -37.3368
      vertex 26.8228 -37.6 -38.1779
      vertex 27.4339 -37.6 -37.3368
    endloop
  endfacet
  facet normal 0.309015 0 0.951057
    outer loop
      vertex 23.9 -34.4 -38.4851
      vertex 24.8887 -37.6 -38.8063
      vertex 24.8887 -34.4 -38.8063
    endloop
  endfacet
  facet normal 0.309015 0 0.951057
    outer loop
      vertex 24.8887 -37.6 -38.8063
      vertex 23.9 -34.4 -38.4851
      vertex 23.9 -37.6 -38.4851
    endloop
  endfacet
  facet normal -0.809016 0 -0.587787
    outer loop
      vertex 27.4339 -37.6 -35.3032
      vertex 26.8228 -34.4 -34.4621
      vertex 27.4339 -34.4 -35.3032
    endloop
  endfacet
  facet normal -0.809016 -0 -0.587787
    outer loop
      vertex 26.8228 -34.4 -34.4621
      vertex 27.4339 -37.6 -35.3032
      vertex 26.8228 -37.6 -34.4621
    endloop
  endfacet
  facet normal -0.5 0 -0.866025
    outer loop
      vertex 25.9225 -37.6 -33.9424
      vertex 26.8228 -34.4 -34.4621
      vertex 26.8228 -37.6 -34.4621
    endloop
  endfacet
  facet normal -0.5 0 -0.866025
    outer loop
      vertex 26.8228 -34.4 -34.4621
      vertex 25.9225 -37.6 -33.9424
      vertex 25.9225 -34.4 -33.9424
    endloop
  endfacet
  facet normal 0.913546 0 -0.406735
    outer loop
      vertex 23.1275 -37.6 -34.8505
      vertex 22.9739 -34.4 -35.1955
      vertex 23.1275 -34.4 -34.8505
    endloop
  endfacet
  facet normal 0.913546 0 -0.406735
    outer loop
      vertex 22.9739 -34.4 -35.1955
      vertex 23.1275 -37.6 -34.8505
      vertex 22.9739 -37.6 -35.1955
    endloop
  endfacet
  facet normal 0.309018 0 -0.951056
    outer loop
      vertex 23.9 -37.6 -34.1549
      vertex 24.8887 -34.4 -33.8337
      vertex 24.8887 -37.6 -33.8337
    endloop
  endfacet
  facet normal 0.309018 0 -0.951056
    outer loop
      vertex 24.8887 -34.4 -33.8337
      vertex 23.9 -37.6 -34.1549
      vertex 23.9 -34.4 -34.1549
    endloop
  endfacet
  facet normal 0.66913 0 -0.743145
    outer loop
      vertex 23.1275 -37.6 -34.8505
      vertex 23.9 -34.4 -34.1549
      vertex 23.9 -37.6 -34.1549
    endloop
  endfacet
  facet normal 0.66913 0 -0.743145
    outer loop
      vertex 23.9 -34.4 -34.1549
      vertex 23.1275 -37.6 -34.8505
      vertex 23.1275 -34.4 -34.8505
    endloop
  endfacet
  facet normal -0.5 0 0.866025
    outer loop
      vertex 25.9225 -34.4 -38.6976
      vertex 26.8228 -37.6 -38.1779
      vertex 26.8228 -34.4 -38.1779
    endloop
  endfacet
  facet normal -0.5 0 0.866025
    outer loop
      vertex 26.8228 -37.6 -38.1779
      vertex 25.9225 -34.4 -38.6976
      vertex 25.9225 -37.6 -38.6976
    endloop
  endfacet
  facet normal 0.913545 -0 0.406739
    outer loop
      vertex 22.9739 -37.6 -37.4445
      vertex 23.1275 -34.4 -37.7895
      vertex 22.9739 -34.4 -37.4445
    endloop
  endfacet
  facet normal 0.913545 0 0.406739
    outer loop
      vertex 23.1275 -34.4 -37.7895
      vertex 22.9739 -37.6 -37.4445
      vertex 23.1275 -37.6 -37.7895
    endloop
  endfacet
  facet normal 0.669132 0 0.743143
    outer loop
      vertex 23.1275 -34.4 -37.7895
      vertex 23.9 -37.6 -38.4851
      vertex 23.9 -34.4 -38.4851
    endloop
  endfacet
  facet normal 0.669132 0 0.743143
    outer loop
      vertex 23.9 -37.6 -38.4851
      vertex 23.1275 -34.4 -37.7895
      vertex 23.1275 -37.6 -37.7895
    endloop
  endfacet
  facet normal -0.978148 0 -0.20791
    outer loop
      vertex 27.65 -37.6 -46.32
      vertex 27.4339 -34.4 -45.3032
      vertex 27.65 -34.4 -46.32
    endloop
  endfacet
  facet normal -0.978148 -0 -0.20791
    outer loop
      vertex 27.4339 -34.4 -45.3032
      vertex 27.65 -37.6 -46.32
      vertex 27.4339 -37.6 -45.3032
    endloop
  endfacet
  facet normal -0.809016 0 -0.587787
    outer loop
      vertex 27.4339 -37.6 -45.3032
      vertex 26.8228 -34.4 -44.4621
      vertex 27.4339 -34.4 -45.3032
    endloop
  endfacet
  facet normal -0.809016 -0 -0.587787
    outer loop
      vertex 26.8228 -34.4 -44.4621
      vertex 27.4339 -37.6 -45.3032
      vertex 26.8228 -37.6 -44.4621
    endloop
  endfacet
  facet normal 0.913546 -0 0.406735
    outer loop
      vertex 22.9739 -37.6 -47.4445
      vertex 23.1275 -34.4 -47.7895
      vertex 22.9739 -34.4 -47.4445
    endloop
  endfacet
  facet normal 0.913546 0 0.406735
    outer loop
      vertex 23.1275 -34.4 -47.7895
      vertex 22.9739 -37.6 -47.4445
      vertex 23.1275 -37.6 -47.7895
    endloop
  endfacet
  facet normal -0.10453 0 -0.994522
    outer loop
      vertex 24.8887 -37.6 -43.8337
      vertex 25.9225 -34.4 -43.9424
      vertex 25.9225 -37.6 -43.9424
    endloop
  endfacet
  facet normal -0.10453 0 -0.994522
    outer loop
      vertex 25.9225 -34.4 -43.9424
      vertex 24.8887 -37.6 -43.8337
      vertex 24.8887 -34.4 -43.8337
    endloop
  endfacet
  facet normal -0.5 0 -0.866025
    outer loop
      vertex 25.9225 -37.6 -43.9424
      vertex 26.8228 -34.4 -44.4621
      vertex 26.8228 -37.6 -44.4621
    endloop
  endfacet
  facet normal -0.5 0 -0.866025
    outer loop
      vertex 26.8228 -34.4 -44.4621
      vertex 25.9225 -37.6 -43.9424
      vertex 25.9225 -34.4 -43.9424
    endloop
  endfacet
  facet normal -0.809016 0 0.587787
    outer loop
      vertex 26.8228 -37.6 -48.1779
      vertex 27.4339 -34.4 -47.3368
      vertex 26.8228 -34.4 -48.1779
    endloop
  endfacet
  facet normal -0.809016 0 0.587787
    outer loop
      vertex 27.4339 -34.4 -47.3368
      vertex 26.8228 -37.6 -48.1779
      vertex 27.4339 -37.6 -47.3368
    endloop
  endfacet
  facet normal 0.913546 0 -0.406735
    outer loop
      vertex 23.1275 -37.6 -44.8505
      vertex 22.9739 -34.4 -45.1955
      vertex 23.1275 -34.4 -44.8505
    endloop
  endfacet
  facet normal 0.913546 0 -0.406735
    outer loop
      vertex 22.9739 -34.4 -45.1955
      vertex 23.1275 -37.6 -44.8505
      vertex 22.9739 -37.6 -45.1955
    endloop
  endfacet
  facet normal 0.309018 0 -0.951056
    outer loop
      vertex 23.9 -37.6 -44.1549
      vertex 24.8887 -34.4 -43.8337
      vertex 24.8887 -37.6 -43.8337
    endloop
  endfacet
  facet normal 0.309018 0 -0.951056
    outer loop
      vertex 24.8887 -34.4 -43.8337
      vertex 23.9 -37.6 -44.1549
      vertex 23.9 -34.4 -44.1549
    endloop
  endfacet
  facet normal 0.66913 0 -0.743145
    outer loop
      vertex 23.1275 -37.6 -44.8505
      vertex 23.9 -34.4 -44.1549
      vertex 23.9 -37.6 -44.1549
    endloop
  endfacet
  facet normal 0.66913 0 -0.743145
    outer loop
      vertex 23.9 -34.4 -44.1549
      vertex 23.1275 -37.6 -44.8505
      vertex 23.1275 -34.4 -44.8505
    endloop
  endfacet
  facet normal -0.10453 0 0.994522
    outer loop
      vertex 24.8887 -34.4 -48.8063
      vertex 25.9225 -37.6 -48.6976
      vertex 25.9225 -34.4 -48.6976
    endloop
  endfacet
  facet normal -0.10453 0 0.994522
    outer loop
      vertex 25.9225 -37.6 -48.6976
      vertex 24.8887 -34.4 -48.8063
      vertex 24.8887 -37.6 -48.8063
    endloop
  endfacet
  facet normal -0.5 0 0.866025
    outer loop
      vertex 25.9225 -34.4 -48.6976
      vertex 26.8228 -37.6 -48.1779
      vertex 26.8228 -34.4 -48.1779
    endloop
  endfacet
  facet normal -0.5 0 0.866025
    outer loop
      vertex 26.8228 -37.6 -48.1779
      vertex 25.9225 -34.4 -48.6976
      vertex 25.9225 -37.6 -48.6976
    endloop
  endfacet
  facet normal -0.978148 0 0.20791
    outer loop
      vertex 27.4339 -37.6 -47.3368
      vertex 27.65 -34.4 -46.32
      vertex 27.4339 -34.4 -47.3368
    endloop
  endfacet
  facet normal -0.978148 0 0.20791
    outer loop
      vertex 27.65 -34.4 -46.32
      vertex 27.4339 -37.6 -47.3368
      vertex 27.65 -37.6 -46.32
    endloop
  endfacet
  facet normal 0.309018 0 0.951056
    outer loop
      vertex 23.9 -34.4 -48.4851
      vertex 24.8887 -37.6 -48.8063
      vertex 24.8887 -34.4 -48.8063
    endloop
  endfacet
  facet normal 0.309018 0 0.951056
    outer loop
      vertex 24.8887 -37.6 -48.8063
      vertex 23.9 -34.4 -48.4851
      vertex 23.9 -37.6 -48.4851
    endloop
  endfacet
  facet normal 0.66913 0 0.743145
    outer loop
      vertex 23.1275 -34.4 -47.7895
      vertex 23.9 -37.6 -48.4851
      vertex 23.9 -34.4 -48.4851
    endloop
  endfacet
  facet normal 0.66913 0 0.743145
    outer loop
      vertex 23.9 -37.6 -48.4851
      vertex 23.1275 -34.4 -47.7895
      vertex 23.1275 -37.6 -47.7895
    endloop
  endfacet
  facet normal -1 0 0
    outer loop
      vertex 30.09 -6.95 -51.42
      vertex 30.09 -34.4 -50.7015
      vertex 30.09 -6.95 -31.22
    endloop
  endfacet
  facet normal -1 0 0
    outer loop
      vertex 30.09 -47.45 -51.42
      vertex 30.09 -34.4 -50.7015
      vertex 30.09 -6.95 -51.42
    endloop
  endfacet
  facet normal -1 -0 0
    outer loop
      vertex 30.09 -37.6 -50.7015
      vertex 30.09 -47.45 -51.42
      vertex 30.09 -37.6 -31.9385
    endloop
  endfacet
  facet normal -1 -0 0
    outer loop
      vertex 30.09 -34.4 -50.7015
      vertex 30.09 -47.45 -51.42
      vertex 30.09 -37.6 -50.7015
    endloop
  endfacet
  facet normal -1 0 0
    outer loop
      vertex 30.09 -34.4 -31.9385
      vertex 30.09 -6.95 -31.22
      vertex 30.09 -34.4 -50.7015
    endloop
  endfacet
  facet normal -1 0 0
    outer loop
      vertex 30.09 -47.45 -31.22
      vertex 30.09 -34.4 -31.9385
      vertex 30.09 -37.6 -31.9385
    endloop
  endfacet
  facet normal -1 0 0
    outer loop
      vertex 30.09 -34.4 -31.9385
      vertex 30.09 -47.45 -31.22
      vertex 30.09 -6.95 -31.22
    endloop
  endfacet
  facet normal -1 0 0
    outer loop
      vertex 30.09 -47.45 -31.22
      vertex 30.09 -37.6 -31.9385
      vertex 30.09 -47.45 -51.42
    endloop
  endfacet
  facet normal -0 0 1
    outer loop
      vertex 30.09 -6.95 -31.22
      vertex 70.21 -47.45 -31.22
      vertex 70.21 -6.95 -31.22
    endloop
  endfacet
  facet normal 0 0 1
    outer loop
      vertex 70.21 -47.45 -31.22
      vertex 30.09 -6.95 -31.22
      vertex 30.09 -47.45 -31.22
    endloop
  endfacet
  facet normal 1 0 0
    outer loop
      vertex 70.21 -6.95 -31.22
      vertex 70.21 -34.4 -31.9385
      vertex 70.21 -6.95 -51.42
    endloop
  endfacet
  facet normal 1 -0 0
    outer loop
      vertex 70.21 -47.45 -31.22
      vertex 70.21 -34.4 -31.9385
      vertex 70.21 -6.95 -31.22
    endloop
  endfacet
  facet normal 1 0 0
    outer loop
      vertex 70.21 -37.6 -31.9385
      vertex 70.21 -47.45 -31.22
      vertex 70.21 -37.6 -50.7015
    endloop
  endfacet
  facet normal 1 0 0
    outer loop
      vertex 70.21 -34.4 -31.9385
      vertex 70.21 -47.45 -31.22
      vertex 70.21 -37.6 -31.9385
    endloop
  endfacet
  facet normal 1 -0 0
    outer loop
      vertex 70.21 -34.4 -50.7015
      vertex 70.21 -6.95 -51.42
      vertex 70.21 -34.4 -31.9385
    endloop
  endfacet
  facet normal 1 0 0
    outer loop
      vertex 70.21 -47.45 -51.42
      vertex 70.21 -34.4 -50.7015
      vertex 70.21 -37.6 -50.7015
    endloop
  endfacet
  facet normal 1 0 0
    outer loop
      vertex 70.21 -34.4 -50.7015
      vertex 70.21 -47.45 -51.42
      vertex 70.21 -6.95 -51.42
    endloop
  endfacet
  facet normal 1 0 0
    outer loop
      vertex 70.21 -47.45 -51.42
      vertex 70.21 -37.6 -50.7015
      vertex 70.21 -47.45 -31.22
    endloop
  endfacet
  facet normal 0 1 -0
    outer loop
      vertex 70.21 -6.95 -51.42
      vertex 30.09 -6.95 -31.22
      vertex 70.21 -6.95 -31.22
    endloop
  endfacet
  facet normal 0 1 0
    outer loop
      vertex 30.09 -6.95 -31.22
      vertex 70.21 -6.95 -51.42
      vertex 30.09 -6.95 -51.42
    endloop
  endfacet
  facet normal 0 0 -1
    outer loop
      vertex 30.09 -47.45 -51.42
      vertex 70.21 -6.95 -51.42
      vertex 70.21 -47.45 -51.42
    endloop
  endfacet
  facet normal -0 0 -1
    outer loop
      vertex 70.21 -6.95 -51.42
      vertex 30.09 -47.45 -51.42
      vertex 30.09 -6.95 -51.42
    endloop
  endfacet
  facet normal 0 -1 0
    outer loop
      vertex 30.09 -47.45 -51.42
      vertex 70.21 -47.45 -31.22
      vertex 30.09 -47.45 -31.22
    endloop
  endfacet
  facet normal 0 -1 -0
    outer loop
      vertex 70.21 -47.45 -31.22
      vertex 30.09 -47.45 -51.42
      vertex 70.21 -47.45 -51.42
    endloop
  endfacet
endsolid OpenSCAD_Model
