solid OpenSCAD_Model
  facet normal -0 0 1
    outer loop
      vertex -234.465 132.5 131.25
      vertex 204.4 -132.5 131.25
      vertex 204.4 132.5 131.25
    endloop
  endfacet
  facet normal 0 0 1
    outer loop
      vertex 204.4 -132.5 131.25
      vertex -234.465 132.5 131.25
      vertex -234.465 -132.5 131.25
    endloop
  endfacet
  facet normal 0 0 -1
    outer loop
      vertex -234.465 -132.5 -94.655
      vertex 204.4 132.5 -94.655
      vertex 204.4 -132.5 -94.655
    endloop
  endfacet
  facet normal -0 0 -1
    outer loop
      vertex 204.4 132.5 -94.655
      vertex -234.465 -132.5 -94.655
      vertex -234.465 132.5 -94.655
    endloop
  endfacet
  facet normal 0 -1 0
    outer loop
      vertex -234.465 -132.5 -94.655
      vertex 204.4 -132.5 131.25
      vertex -234.465 -132.5 131.25
    endloop
  endfacet
  facet normal 0 -1 -0
    outer loop
      vertex 204.4 -132.5 131.25
      vertex -234.465 -132.5 -94.655
      vertex 204.4 -132.5 -94.655
    endloop
  endfacet
  facet normal 1 -0 0
    outer loop
      vertex 204.4 -132.5 131.25
      vertex 204.4 132.5 -94.655
      vertex 204.4 132.5 131.25
    endloop
  endfacet
  facet normal 1 0 0
    outer loop
      vertex 204.4 132.5 -94.655
      vertex 204.4 -132.5 131.25
      vertex 204.4 -132.5 -94.655
    endloop
  endfacet
  facet normal 0 1 -0
    outer loop
      vertex 204.4 132.5 -94.655
      vertex -234.465 132.5 131.25
      vertex 204.4 132.5 131.25
    endloop
  endfacet
  facet normal 0 1 0
    outer loop
      vertex -234.465 132.5 131.25
      vertex 204.4 132.5 -94.655
      vertex -234.465 132.5 -94.655
    endloop
  endfacet
  facet normal -1 0 0
    outer loop
      vertex -234.465 -132.5 -94.655
      vertex -234.465 132.5 131.25
      vertex -234.465 132.5 -94.655
    endloop
  endfacet
  facet normal -1 -0 0
    outer loop
      vertex -234.465 132.5 131.25
      vertex -234.465 -132.5 -94.655
      vertex -234.465 -132.5 131.25
    endloop
  endfacet
endsolid OpenSCAD_Model
